<svg width="20" height="28" viewBox="0 0 20 28" fill="none" xmlns="http://www.w3.org/2000/svg">
<path d="M6.99011 27C5.17564 27 2.52226 25.1918 1.39987 22.2704C0.485625 19.8889 0.438319 17.0926 1.27127 14.5983C1.88415 12.7558 3.11272 11.2034 4.30064 9.7019C4.74427 9.14158 5.20297 8.56234 5.61892 7.97994L5.87437 7.61761C7.09874 5.88654 8.3648 4.09695 7.69795 1.72426C7.64119 1.52207 7.70006 1.30551 7.85109 1.16008C8.00177 1.01396 8.22148 0.963149 8.42052 1.02728C11.8297 2.11918 13.2433 5.7737 13.9214 8.20491C14.3556 7.43679 14.9436 6.76644 15.4124 6.45597C15.5911 6.33648 15.8217 6.32912 16.0089 6.4353C16.1953 6.54147 16.3067 6.74331 16.2965 6.95812C16.2002 8.98039 16.7405 11.3702 17.7417 13.3519C17.8917 13.6497 18.0455 13.9364 18.1972 14.2188C18.863 15.4617 19.4927 16.6353 19.5866 18.2234C19.7688 21.2987 18.2922 25.2255 14.6173 26.5809C14.3237 26.6878 13.6467 26.8378 13.0534 26.8378C11.6924 26.8378 11.5862 26.0206 11.5862 25.77C11.5883 25.1158 12.2015 24.7069 12.5681 24.4623L12.6991 24.3733C13.9365 23.4674 14.6194 21.6302 14.3174 20.0098C14.2021 19.3938 13.9379 18.7729 13.6572 18.1155C13.359 17.4157 13.0552 16.7029 12.9157 15.9583C12.8719 16.042 12.8309 16.1296 12.7924 16.2218C12.5113 16.9125 12.3428 17.5485 12.2934 18.1078C12.2559 18.5297 12.3375 19.3735 12.4591 19.5897C12.6816 19.7744 12.7324 20.102 12.5674 20.3469C12.3911 20.6087 12.0375 20.677 11.7765 20.5011C11.7765 20.5008 11.7765 20.5008 11.7758 20.5004C11.7754 20.5004 11.7751 20.5001 11.7747 20.5001C10.5574 19.6804 9.80853 18.6215 9.60809 17.4374C9.49806 16.7881 9.4921 16.1773 9.4865 15.5875C9.48474 15.4067 9.48264 15.2242 9.47844 15.0381C9.47283 14.8331 9.47213 14.6176 9.47108 14.3972C9.46792 13.4672 9.43884 12.6773 9.22613 12.0953C9.08351 12.8199 8.75552 13.5309 8.54001 13.9448C8.22674 14.5422 7.88228 14.9862 7.54868 15.4158C7.32196 15.7081 7.08717 16.0105 6.86151 16.3637C6.13228 17.497 4.61497 20.416 6.25388 23.0669C6.79072 23.9363 7.37592 24.3712 7.80308 24.6886C8.21658 24.9952 8.68439 25.3432 8.53756 25.9386C8.38162 26.6012 7.80238 27 6.99011 27ZM8.99871 2.51375C9.20896 4.87768 7.89104 6.74051 6.80474 8.27675L6.54928 8.63873C6.11371 9.24811 5.6466 9.83892 5.19421 10.4105C4.0154 11.8997 2.90177 13.307 2.35231 14.9592C1.61292 17.1742 1.65462 19.7547 2.46374 21.8621C3.45263 24.4363 5.76785 25.8601 6.98976 25.8601C7.1909 25.8601 7.29848 25.8236 7.357 25.7805C7.28867 25.7255 7.20071 25.6603 7.12397 25.6032C6.65055 25.2518 5.9357 24.7205 5.28462 23.6654C3.89065 21.4105 4.11562 18.5244 5.90241 15.7473C6.15506 15.3521 6.40631 15.0286 6.64915 14.7161C6.96558 14.3082 7.26484 13.9224 7.53045 13.4167C8.10479 12.3122 8.32661 11.2522 8.03366 11.0055C7.82621 10.8306 7.77084 10.5338 7.9012 10.2962C8.0312 10.0579 8.31014 9.94509 8.5698 10.0253C10.5984 10.6526 10.6064 12.814 10.6117 14.3926C10.6124 14.6046 10.6131 14.8114 10.6187 15.0087C10.6233 15.2014 10.6254 15.3899 10.6271 15.5767C10.6327 16.1475 10.638 16.6865 10.7326 17.2475C10.7995 17.6438 10.9509 17.9967 11.1478 18.3068C11.1499 18.1267 11.1583 18.0117 11.1587 18.0072C11.2179 17.3351 11.4131 16.5883 11.739 15.788C12.0474 15.0472 12.4717 14.564 12.921 14.0524L13.1186 13.826C13.2945 13.622 13.5896 13.5702 13.8257 13.7002C14.0616 13.8309 14.1737 14.1088 14.0945 14.3663C13.7609 15.4505 14.22 16.5277 14.7067 17.6683C14.9986 18.3534 15.3007 19.062 15.4384 19.8006C15.8231 21.8622 14.9716 24.1231 13.3674 25.2977L13.2009 25.4108C13.1119 25.4704 12.9409 25.5843 12.8277 25.6849C12.8849 25.6922 12.9588 25.6978 13.0541 25.6978C13.523 25.6978 14.0742 25.5657 14.2249 25.5107C17.3527 24.3571 18.6076 20.9595 18.4488 18.291C18.3696 16.9531 17.8244 15.9355 17.1926 14.7574C17.0366 14.4666 16.8786 14.1715 16.7244 13.8659C15.8673 12.1692 15.3217 10.1897 15.1819 8.34333C14.6993 9.04557 14.3163 9.91671 14.4803 10.3502C14.4828 10.3568 14.4849 10.3624 14.4873 10.3691C14.4873 10.3698 14.488 10.3698 14.488 10.3709C14.4884 10.3712 14.4884 10.3723 14.4887 10.3726C14.4887 10.3733 14.4891 10.374 14.4891 10.3744C14.4891 10.3744 14.4891 10.3751 14.4898 10.3758C14.4898 10.3765 14.4898 10.3768 14.4898 10.3775C14.4898 10.3779 14.4898 10.3786 14.4905 10.3793C14.4905 10.3796 14.4912 10.38 14.4908 10.381C14.4912 10.3817 14.4919 10.3831 14.4915 10.3824C14.4915 10.3831 14.4919 10.3835 14.4919 10.3842C14.5595 10.6042 14.4894 10.8422 14.3244 10.989C14.3237 10.9893 14.3233 10.99 14.323 10.9904C14.3226 10.9907 14.3223 10.9911 14.3216 10.9914C14.3212 10.9918 14.3212 10.9921 14.3205 10.9925C14.3205 10.9925 14.3202 10.9921 14.3191 10.9939L14.3184 10.9946C14.3181 10.995 14.3184 10.996 14.317 10.9957C14.3167 10.996 14.3167 10.996 14.3163 10.9964L14.3156 10.9974C14.3153 10.9981 14.3146 10.9985 14.3142 10.9985C14.3135 10.9992 14.3128 10.9988 14.3128 10.9999C14.3121 10.9999 14.3121 11.0002 14.3114 11.0009C14.3104 11.0013 14.3097 11.002 14.3097 11.002C14.309 11.0027 14.3079 11.003 14.3083 11.003C14.3079 11.0034 14.3076 11.0037 14.3072 11.0041C14.2634 11.0398 14.2133 11.0696 14.1579 11.091C13.8969 11.1933 13.6074 11.0948 13.4673 10.8642C13.4673 10.8639 13.4673 10.8635 13.4669 10.8632C13.4669 10.8632 13.4673 10.8632 13.4662 10.8621C13.4662 10.8618 13.4655 10.8607 13.4655 10.8607C13.4655 10.86 13.4648 10.8597 13.4648 10.8597C13.4648 10.8593 13.4641 10.859 13.4641 10.8586C13.4641 10.8583 13.4638 10.8579 13.4634 10.8576C13.4634 10.8576 13.4638 10.8569 13.4627 10.8569C13.4627 10.8565 13.4627 10.8558 13.462 10.8555C13.462 10.8551 13.4617 10.8548 13.4613 10.8544C13.4613 10.8541 13.461 10.8537 13.461 10.8534C13.461 10.853 13.4602 10.8527 13.4602 10.8523C13.4599 10.8516 13.4595 10.8502 13.4588 10.8499C13.4511 10.8359 13.4438 10.8208 13.4368 10.8061C13.4364 10.805 13.4364 10.8043 13.4361 10.8036C13.4361 10.8036 13.4364 10.8036 13.4354 10.8026C13.4343 10.8012 13.4347 10.8005 13.4347 10.8005C13.434 10.8001 13.434 10.7994 13.434 10.7987C13.4336 10.7984 13.4336 10.798 13.4333 10.7977C13.4312 10.7928 13.4287 10.7875 13.4266 10.7822C13.4266 10.7819 13.4263 10.7815 13.4263 10.7812C13.4256 10.7791 13.4249 10.7773 13.4242 10.7756C13.3323 10.5334 13.2549 10.2111 13.1473 9.76743C12.6795 7.84573 11.7593 4.04438 8.99871 2.51375Z" fill="#BDBDBD" stroke="#BDBDBD" stroke-width="0.3"/>
</svg>
