<svg width="73" height="73" viewBox="0 0 73 73" fill="none" xmlns="http://www.w3.org/2000/svg">
<g filter="url(#filter0_d_430_10591)">
<circle cx="36.5" cy="36.5" r="26.5" fill="#353535"/>
</g>
<path d="M25.7337 39.6838C25.4953 41.2006 26.5612 42.2534 27.8661 42.7781C32.8691 44.7897 39.8313 44.7897 44.8343 42.7781C46.1392 42.2534 47.2051 41.2006 46.9666 39.6838C46.8201 38.7516 46.0957 37.9754 45.559 37.2174C44.8559 36.2124 44.7861 35.1163 44.786 33.95C44.786 29.4431 41.0091 25.7894 36.3502 25.7894C31.6912 25.7894 27.9144 29.4431 27.9144 33.95C27.9143 35.1163 27.8445 36.2124 27.1414 37.2174C26.6047 37.9754 25.8803 38.7516 25.7337 39.6838Z" stroke="#BDBDBD" stroke-width="2.5" stroke-linecap="round" stroke-linejoin="round"/>
<path d="M32.9868 47.0895C33.8793 47.7866 35.0579 48.2105 36.35 48.2105C37.642 48.2105 38.8206 47.7866 39.7131 47.0895" stroke="#BDBDBD" stroke-width="2.5" stroke-linecap="round" stroke-linejoin="round"/>
<defs>
<filter id="filter0_d_430_10591" x="0" y="0" width="73" height="73" filterUnits="userSpaceOnUse" color-interpolation-filters="sRGB">
<feFlood flood-opacity="0" result="BackgroundImageFix"/>
<feColorMatrix in="SourceAlpha" type="matrix" values="0 0 0 0 0 0 0 0 0 0 0 0 0 0 0 0 0 0 127 0" result="hardAlpha"/>
<feOffset/>
<feGaussianBlur stdDeviation="5"/>
<feComposite in2="hardAlpha" operator="out"/>
<feColorMatrix type="matrix" values="0 0 0 0 0 0 0 0 0 0 0 0 0 0 0 0 0 0 0.05 0"/>
<feBlend mode="normal" in2="BackgroundImageFix" result="effect1_dropShadow_430_10591"/>
<feBlend mode="normal" in="SourceGraphic" in2="effect1_dropShadow_430_10591" result="shape"/>
</filter>
</defs>
</svg>
