<svg width="30" height="37" viewBox="0 0 30 37" fill="none" xmlns="http://www.w3.org/2000/svg">
<path d="M28.1168 6.55381C26.9419 3.65205 25.0735 2.11841 22.7135 2.11841C19.1659 2.11882 15.9929 5.28818 14.4056 7.26756C14.2343 5.83437 13.9183 4.20312 13.9122 4.17588C13.4559 2.10092 12.466 0.376543 12.4242 0.304152C12.3643 0.200851 12.2754 0.117388 12.1686 0.0641088C12.0617 0.0108294 11.9416 -0.00992478 11.8231 0.0044184L5.33101 0.793404C5.32532 0.794218 5.32084 0.797064 5.31556 0.797878C5.25607 0.806121 5.1982 0.823401 5.14393 0.849121L5.13295 0.853188L5.12929 0.854408C5.04104 0.899144 2.96446 1.97444 2.70052 4.1653C2.54068 5.51552 2.60047 6.82549 2.65659 7.53964C-0.0532071 10.1185 -0.0198585 13.6339 0.00494985 16.0794L0.00657651 16.2331C0.00657651 16.3328 0.00657644 16.3328 0.815897 18.8274C0.858484 18.9584 0.944129 19.0711 1.0589 19.1472C1.17367 19.2233 1.31081 19.2583 1.44802 19.2466C1.58523 19.2349 1.71444 19.177 1.81462 19.0825C1.91479 18.9881 1.98006 18.8624 1.99978 18.7262C2.086 18.437 3.62371 13.6209 7.37627 11.3857C7.94606 11.0209 8.54122 10.6973 9.15718 10.4174C9.04664 10.7255 8.98982 11.0503 8.98922 11.3776C8.98922 12.9653 10.2813 14.2574 11.869 14.2574C12.3176 14.2571 12.7598 14.1512 13.1599 13.9483C13.7105 18.7026 13.3018 24.6049 11.9695 31.1722C7.56172 31.5809 3.93849 33.2813 2.45162 35.669C2.36598 35.8063 2.33839 35.972 2.37492 36.1297C2.41145 36.2873 2.50912 36.424 2.64643 36.5097C2.78373 36.5953 2.94944 36.6229 3.10709 36.5863C3.26474 36.5498 3.40142 36.4522 3.48706 36.3148C4.7165 34.3403 7.89237 32.8518 11.7051 32.4228C11.6787 32.5448 11.6543 32.6652 11.627 32.7876C11.6246 32.7994 11.6246 32.8108 11.623 32.8226C11.6017 32.9413 11.6182 33.0638 11.6701 33.1727C11.6783 33.1906 11.6868 33.2081 11.6966 33.2252C11.7366 33.2924 11.7884 33.3517 11.8495 33.4005C11.867 33.4143 11.8857 33.4261 11.9044 33.4379C11.9142 33.444 11.9223 33.4513 11.9325 33.457L11.9687 33.4749L11.9752 33.4782C12.6844 33.8499 13.6276 34.0557 14.641 34.0557C15.3227 34.0557 15.9982 33.9585 16.5956 33.7742C16.6021 33.7722 16.6078 33.7685 16.6143 33.7661C16.6249 33.7624 16.6342 33.7576 16.6444 33.7535C16.7038 33.7295 16.7591 33.699 16.8063 33.6599C16.8554 33.6178 16.8982 33.5673 16.9315 33.5119C16.936 33.5046 16.9413 33.4981 16.9458 33.4904C16.9775 33.4342 16.9986 33.3728 17.0117 33.3094C17.0129 33.3041 17.0161 33.2996 17.0174 33.2943C17.0605 33.0426 17.0983 32.7896 17.1377 32.5371C20.6003 33.0763 23.4041 34.4981 24.5331 36.3157C24.6189 36.4526 24.7555 36.55 24.9129 36.5865C25.0704 36.623 25.2359 36.5957 25.3733 36.5105C25.6596 36.3327 25.7474 35.9565 25.5693 35.6706C24.2366 33.5249 21.1754 31.9254 17.3142 31.3288C18.1528 25.1385 17.9963 18.7335 16.8514 12.6465C17.8523 12.3114 18.5762 11.3666 18.5762 10.2547C18.5757 9.79441 18.4493 9.34299 18.2109 8.94926C17.9724 8.55553 17.6308 8.23446 17.2231 8.02076C18.1223 7.77146 19.2326 7.58641 20.5698 7.58641L20.7947 7.58804L20.8639 7.58763C24.7039 7.58763 27.7248 12.1572 28.1233 12.9755C28.1479 13.0671 28.1936 13.1517 28.2568 13.2224C28.3199 13.2932 28.3987 13.3482 28.4869 13.383L28.4886 13.3834C28.598 13.4267 28.7176 13.4375 28.833 13.4145C28.9485 13.3915 29.0548 13.3357 29.1393 13.2537L29.1446 13.2484C29.2108 13.1829 29.2625 13.102 29.2934 13.0101C29.3231 12.9226 29.3507 12.8401 29.3125 12.6868C29.4244 11.3715 28.8188 8.28674 28.1168 6.55381ZM9.4012 4.40932C9.53337 4.52034 9.6627 4.63381 9.78756 4.75135C10.2264 5.16455 10.7868 5.7449 11.4156 6.50867C10.3801 6.006 9.18647 5.59524 7.98713 5.48502C8.37837 4.67245 9.05754 4.46178 9.4012 4.40932ZM11.5555 1.26598C11.8503 1.84511 12.4209 3.07333 12.721 4.43819C12.8931 5.22149 13.0196 6.00518 13.1107 6.69412C12.1387 5.38823 11.2622 4.46381 10.6245 3.86313C10.4366 3.68948 10.2423 3.52276 10.0421 3.3633C10.0116 3.33056 9.97753 3.30137 9.94048 3.27627C9.16247 2.65769 8.32184 2.142 7.58897 1.74791L11.5555 1.26598ZM3.91165 4.31049C4.05399 3.12986 5.0146 2.37056 5.45668 2.07896C5.9565 2.28963 7.08386 2.79962 8.22179 3.54143C7.59873 3.87777 6.98666 4.4809 6.67798 5.49356C5.7983 5.58995 4.98451 5.86935 4.26141 6.33013C4.11093 6.4196 3.96737 6.51192 3.82706 6.60546C3.80632 5.95435 3.81323 5.14096 3.91165 4.31049ZM6.73614 10.3479C4.07514 11.9323 2.30724 14.8215 1.43489 16.7826L1.22503 16.1351L1.22462 16.0672C1.19697 13.3371 1.15874 9.59832 4.90113 7.36923C5.62586 6.90764 6.4547 6.67379 7.36529 6.67379C9.16003 6.67379 10.9438 7.56404 12.1126 8.31724C10.849 8.45917 8.95221 8.93623 6.73614 10.3479ZM10.2089 11.3784C10.2089 10.4634 10.9535 9.7187 11.8686 9.7187C12.7837 9.7187 13.5283 10.4634 13.5283 11.3784C13.5283 12.2935 12.7837 13.0381 11.8686 13.0381C10.9535 13.0381 10.2089 12.2939 10.2089 11.3784ZM12.9244 32.5619C13.3674 30.5229 13.733 28.4679 14.0204 26.4013L14.8785 26.433L14.9237 25.2137L14.177 25.1861C14.6549 21.2192 14.8245 16.929 14.2608 12.9796C14.4 12.7714 14.5111 12.5457 14.5914 12.3085C14.8944 12.5245 15.2462 12.6746 15.6277 12.7396C16.141 15.4448 16.4568 18.1838 16.5724 20.9349L15.7818 20.8442L15.6427 22.0562L16.6115 22.1672C16.6633 24.517 16.5724 26.8678 16.3394 29.2067H15.3971V30.4267H16.2032C16.1491 30.8709 16.0897 31.3143 16.025 31.757L16.0218 31.7709L16.0214 31.7822C15.9762 32.0893 15.9258 32.3955 15.8758 32.7014C15.487 32.7884 15.0673 32.834 14.6414 32.834C14.0111 32.8348 13.4104 32.7363 12.9244 32.5619ZM16.0523 11.5582C15.7066 11.5577 15.3752 11.4202 15.1308 11.1758C14.8863 10.9314 14.7488 10.6 14.7484 10.2543C14.7484 9.53529 15.3332 8.95046 16.0523 8.95046C16.7713 8.95046 17.3561 9.53529 17.3561 10.2543C17.3557 10.6 17.2182 10.9314 16.9738 11.1758C16.7293 11.4202 16.3979 11.5577 16.0523 11.5582ZM20.8643 6.36714L20.7951 6.36755L20.5702 6.36592C18.7873 6.36592 17.3297 6.66931 16.206 7.05527C17.788 5.36423 20.2367 3.33849 22.7139 3.33849C23.8344 3.33849 24.7734 3.77162 25.5848 4.66309C26.9708 6.18535 27.6239 8.70238 27.9131 10.5211C26.6048 8.89474 24.058 6.36714 20.8643 6.36714Z" fill="#FF6154"/>
</svg>
