<svg width="117" height="101" viewBox="0 0 117 101" fill="none" xmlns="http://www.w3.org/2000/svg">
<path d="M70.2363 101L115.441 74.8706V42.7488L116.398 42.1996V28.8695L70.2363 55.5235V101Z" fill="#FF6154"/>
<g opacity="0.45">
<path d="M70.2383 101L115.443 74.8705V42.7487L116.4 42.1995V28.8694L70.2383 55.5234V101Z" fill="white"/>
</g>
<path opacity="0.15" d="M70.2363 68.8473L87.5469 58.8559L115.441 42.7488V44.6681L70.2363 70.7605V68.8473Z" fill="black"/>
<path d="M70.2368 101L25.2786 75.0619V42.8908L24.0752 42.1996V28.8695L70.2368 55.5235V101Z" fill="#FF6154"/>
<path opacity="0.3" d="M70.2368 101L25.2786 75.0619V42.8908L24.0752 42.1996V28.8695L70.2368 55.5235V101Z" fill="white"/>
<path opacity="0.1" d="M25.2734 42.8907L70.2378 68.8474V70.7605L25.2734 44.8285V42.8907Z" fill="black"/>
<path d="M24.0752 28.8695L70.2368 2.22168L116.398 28.8695L70.2368 55.5235L24.0752 28.8695Z" fill="#FF6154"/>
<g opacity="0.6">
<path d="M24.0752 28.8695L70.2368 2.22168L116.398 28.8695L70.2368 55.5235L24.0752 28.8695Z" fill="white"/>
</g>
<path d="M51.4874 90.1817V44.699L43.9893 40.3729V85.8556L51.4874 90.1817Z" fill="#EBEBEB"/>
<path d="M51.4874 90.1817V44.699L43.9893 40.3729V85.8556L51.4874 90.1817Z" fill="#FF6154"/>
<path opacity="0.4" d="M51.4874 90.1817V44.699L43.9893 40.3729V85.8556L51.4874 90.1817Z" fill="black"/>
<path d="M88.9844 90.1817V44.699L96.4826 40.3729V85.8556L88.9844 90.1817Z" fill="#FF6154"/>
<path opacity="0.15" d="M88.9844 90.1817V44.699L96.4826 40.3729V85.8556L88.9844 90.1817Z" fill="black"/>
<path d="M43.9893 40.3728L90.1508 13.7189L97.649 18.0511L51.4874 44.6989L43.9893 40.3728Z" fill="#FF6154"/>
<path opacity="0.25" d="M69.6251 34.2324L62.127 29.9001L69.6251 25.574L77.1233 29.9001L69.6251 34.2324Z" fill="black"/>
<path d="M88.9858 44.6989L42.8242 18.0511L50.3224 13.7189L96.4839 40.3728L88.9858 44.6989Z" fill="#FF6154"/>
<path d="M68.4346 32.9797L79.0493 50.4445V80.8754L85.6156 71.5937V46.68L69.9712 29.7644L68.4346 32.9797Z" fill="#FF6154"/>
<path d="M70.2564 31.1467L100.835 32.0909L106.112 24.9816L70.1885 28.2153L70.2564 31.1467Z" fill="#FF6154"/>
<path d="M40.6025 17.3538C40.6025 17.3538 42.4539 24.7594 51.0506 27.6168C59.6473 30.4741 69.6078 31.1529 69.6078 31.1529L50.0755 7.84381L40.6025 17.3538Z" fill="#FF6154"/>
<path opacity="0.4" d="M40.6025 17.3538C40.6025 17.3538 42.4539 24.7594 51.0506 27.6168C59.6473 30.4741 69.6078 31.1529 69.6078 31.1529L50.0755 7.84381L40.6025 17.3538Z" fill="black"/>
<path d="M69.6078 31.1529C69.6078 31.1529 69.8176 23.8522 66.0469 18.3351C62.2763 12.8179 50.0755 7.84381 50.0755 7.84381C46.5197 10.5906 43.3354 13.7873 40.6025 17.3538C40.6025 17.3538 56.8208 17.2242 67.9662 30.8999L69.6078 31.1529Z" fill="#FF6154"/>
<path opacity="0.1" d="M69.6078 31.1529C69.6078 31.1529 69.8176 23.8522 66.0469 18.3351C62.2763 12.8179 50.0755 7.84381 50.0755 7.84381C46.5197 10.5906 43.3354 13.7873 40.6025 17.3538C40.6025 17.3538 56.8208 17.2242 67.9662 30.8999L69.6078 31.1529Z" fill="white"/>
<path opacity="0.3" d="M50.7793 19.2299C53.8054 20.2132 56.6957 21.5733 59.3821 23.2783L65.3251 17.4094C63.3441 15.0951 60.0672 12.9352 57.0494 11.238L50.7793 19.2299Z" fill="white"/>
<path d="M69.6076 31.1529C67.8004 34.4431 64.9896 37.0702 61.5849 38.6511C55.7221 41.4961 45.9097 41.348 45.9097 41.348L44.9717 29.0053C46.0984 30.7162 47.6333 32.1198 49.4379 33.0894C51.2425 34.0591 53.2601 34.5643 55.3087 34.5595C59.7142 34.5902 63.9804 33.0175 67.3119 30.1347L69.6076 31.1529Z" fill="#FF6154"/>
<path opacity="0.4" d="M69.6076 31.1529C67.8004 34.4431 64.9896 37.0702 61.5849 38.6511C55.7221 41.4961 45.9097 41.348 45.9097 41.348L44.9717 29.0053C46.0984 30.7162 47.6333 32.1198 49.4379 33.0894C51.2425 34.0591 53.2601 34.5643 55.3087 34.5595C59.7142 34.5902 63.9804 33.0175 67.3119 30.1347L69.6076 31.1529Z" fill="black"/>
<path d="M69.607 31.1529C63.4665 24.8952 57.721 24.2904 52.4815 25.5123C46.6805 26.87 44.9648 28.9868 44.9648 28.9868L45.9029 41.3295C45.9029 41.3295 48.9886 35.2939 57.3692 32.5785C65.7499 29.8631 69.607 31.1529 69.607 31.1529Z" fill="#FF6154"/>
<path opacity="0.1" d="M69.607 31.1529C63.4665 24.8952 57.721 24.2904 52.4815 25.5123C46.6805 26.87 44.9648 28.9868 44.9648 28.9868L45.9029 41.3295C45.9029 41.3295 48.9886 35.2939 57.3692 32.5785C65.7499 29.8631 69.607 31.1529 69.607 31.1529Z" fill="white"/>
<path opacity="0.3" d="M47.8408 27.0798C49.2664 29.1287 51.5436 32.4797 52.9692 34.5965C54.3595 33.7732 55.8348 33.1028 57.3694 32.597C58.8231 32.128 60.3025 31.7427 61.8004 31.4429L56.4683 25.0001C55.1249 25.0268 53.7882 25.1985 52.4817 25.5123C50.8842 25.8714 49.3288 26.3967 47.8408 27.0798Z" fill="white"/>
<path d="M69.2622 29.7767C69.2622 29.7767 77.9021 28.5424 83.8698 22.1366C89.8375 15.7307 91.1334 6.78846 91.1334 6.78846L80.2596 0C81.1633 2.77396 81.4574 5.71034 81.1219 8.60845C80.7864 11.5066 79.8292 14.2981 78.3156 16.7922C74.4462 23.3955 69.0586 24.747 69.0586 24.747L69.2622 29.7767Z" fill="#FF6154"/>
<path opacity="0.4" d="M69.2622 29.7767C69.2622 29.7767 77.9021 28.5424 83.8698 22.1366C89.8375 15.7307 91.1334 6.78846 91.1334 6.78846L80.2596 0C81.1633 2.77396 81.4574 5.71034 81.1219 8.60845C80.7864 11.5066 79.8292 14.2981 78.3156 16.7922C74.4462 23.3955 69.0586 24.747 69.0586 24.747L69.2622 29.7767Z" fill="black"/>
<path d="M69.2623 29.7767L70.8545 29.4496C71.7659 23.2038 74.7682 17.4517 79.3709 13.1326C87.2949 5.87511 91.1335 6.78846 91.1335 6.78846C87.9491 3.59171 84.1846 1.61689 80.2596 0C80.2596 0 73.5205 3.93731 70.5397 9.51002C66.9665 16.1812 68.1391 26.0677 69.2623 29.7767Z" fill="#FF6154"/>
<path opacity="0.1" d="M69.2623 29.7767L70.8545 29.4496C71.7659 23.2038 74.7682 17.4517 79.3709 13.1326C87.2949 5.87511 91.1335 6.78846 91.1335 6.78846C87.9491 3.59171 84.1846 1.61689 80.2596 0C80.2596 0 73.5205 3.93731 70.5397 9.51002C66.9665 16.1812 68.1391 26.0677 69.2623 29.7767Z" fill="white"/>
<g opacity="0.3">
<path d="M85.3083 8.63993L76.1315 2.99316C75.6934 3.35727 75.2552 3.73989 74.8047 4.15955L83.7655 9.62117C84.3085 9.25706 84.8269 8.91147 85.3083 8.63993Z" fill="white"/>
<path d="M82.4014 10.5901L73.527 5.43701C72.6804 6.33055 71.9142 7.29703 71.2375 8.3252L71.1757 8.4116C70.9474 8.76336 70.7314 9.12747 70.5586 9.49158C70.4475 9.70758 70.3735 9.95443 70.2686 10.1766L77.6742 14.8483C78.1987 14.2682 78.7603 13.6943 79.3713 13.1327C80.4636 12.1329 81.4634 11.306 82.4014 10.5901Z" fill="white"/>
</g>
<path d="M69.5343 31.1406C69.5343 31.1406 72.3238 33.9238 78.8716 35.3432C85.4193 36.7626 93.6025 35.5222 97.0153 31.5108L95.9291 20.0445C95.9291 20.0445 90.6958 27.5735 82.7904 29.0793C76.7671 30.221 69.4541 28.0549 69.4541 28.0549L69.5343 31.1406Z" fill="#FF6154"/>
<path opacity="0.4" d="M69.5343 31.1406C69.5343 31.1406 72.3238 33.9238 78.8716 35.3432C85.4193 36.7626 93.6025 35.5222 97.0153 31.5108L95.9291 20.0445C95.9291 20.0445 90.6958 27.5735 82.7904 29.0793C76.7671 30.221 69.4541 28.0549 69.4541 28.0549L69.5343 31.1406Z" fill="black"/>
<path d="M69.0713 28.5116C69.0713 28.5116 75.1624 21.7231 81.92 20.4889C91.0721 18.8041 95.9536 20.0445 95.9536 20.0445C97.7063 24.1361 98.0148 27.95 97.0398 31.5109C97.0398 31.5109 92.9358 27.3637 83.6171 27.3143C76.2486 27.2773 69.5588 31.1406 69.5588 31.1406L69.0713 28.5116Z" fill="#FF6154"/>
<path opacity="0.1" d="M69.0713 28.5116C69.0713 28.5116 75.1624 21.7231 81.92 20.4889C91.0721 18.8041 95.9536 20.0445 95.9536 20.0445C97.7063 24.1361 98.0148 27.95 97.0398 31.5109C97.0398 31.5109 92.9358 27.3637 83.6171 27.3143C76.2486 27.2773 69.5588 31.1406 69.5588 31.1406L69.0713 28.5116Z" fill="white"/>
<path opacity="0.3" d="M95.0522 30.1099C93.0222 28.9812 90.8172 28.201 88.5291 27.8018L87.085 19.7791C89.3625 19.5619 91.6547 19.5453 93.9351 19.7297C94.987 23.0826 95.3666 26.61 95.0522 30.1099Z" fill="white"/>
<path opacity="0.15" d="M85.6161 46.68L79.0498 50.4445V80.8753L85.6161 71.5937V46.68Z" fill="black"/>
<path d="M62.5751 75.247C62.0382 76.4812 59.1623 75.8641 58.1317 75.8641C57.8573 75.8493 57.5823 75.8785 57.3171 75.9505C57.0017 76.0794 56.7082 76.2564 56.4469 76.4751C55.0872 77.304 53.4805 77.6315 51.9048 77.4008C50.2262 77.2465 48.0045 76.0801 46.4864 76.9935C44.9683 77.9068 42.8823 77.4933 41.1235 76.9256C38.0714 75.945 35.1036 74.7191 32.2491 73.2598C30.3977 72.3217 28.7006 71.2603 26.9912 70.1741L26.553 69.8841C24.7016 68.6868 22.7576 67.7056 20.9371 66.4652C17.2343 63.9349 13.7722 61.1331 9.93978 58.8312C8.76105 58.1215 7.38485 57.3439 5.86053 56.517L5.32362 56.2269L5.27425 56.1899C4.13255 55.3814 3.42285 53.7214 3.42285 51.4688C3.42285 47.0316 6.11973 41.8786 9.45224 39.9531C11.0136 39.0459 12.4392 39.0213 13.513 39.7124L14.0129 40.1012C16.0216 41.7317 18.1324 43.2323 20.3323 44.594C26.1827 47.8462 28.6081 47.803 32.3047 47.6117C34.6683 47.4945 36.9949 47.766 39.3523 47.8154C42.3393 47.8833 45.3509 47.9573 48.3563 47.9882C48.4822 47.9738 48.6097 47.9843 48.7315 48.0193C48.8533 48.0542 48.9669 48.1129 49.066 48.1918C49.1629 48.3111 49.2268 48.4536 49.2512 48.6053C49.5597 49.8396 49.2943 50.537 48.2946 51.3516C46.7579 52.5858 44.5918 53.203 42.6478 53.4992C41.7777 53.6411 39.1734 53.7028 38.7784 54.7335C38.5007 55.4617 39.8831 56.4429 40.4261 56.7762C43.4686 58.6276 47.0912 59.7631 50.3929 61.0961C52.2011 61.8367 53.9969 62.5957 55.7619 63.4289C58.0391 64.5027 61.5321 65.6567 61.8777 68.5696C61.9064 68.6937 61.8933 68.8238 61.8407 68.9399C61.7515 69.0725 61.6143 69.1655 61.4581 69.1991C60.6926 69.3914 59.8944 69.4145 59.1191 69.2669C58.0144 69.125 56.9221 68.9028 55.8298 68.6868C54.7375 68.4708 53.929 68.2487 52.6701 67.9154C51.7752 67.6809 50.5656 67.2489 49.4918 67.0576C49.4918 67.0576 56.484 70.1988 59.6005 71.5071C60.5517 71.816 61.4122 72.3544 62.106 73.0746C62.3587 73.3692 62.534 73.722 62.6159 74.1014C62.6978 74.4807 62.6837 74.8744 62.5751 75.247Z" fill="#FFA8A7"/>
<path d="M49.4796 67.0391C46.0607 65.8604 41.3704 64.2435 40.1855 63.5523C42.2776 65.1198 46.2211 66.4096 49.4796 67.0391Z" fill="#F28F8F"/>
<path d="M56.5758 75.352C53.6876 74.4818 50.8241 73.4697 48.01 72.3774C46.5905 71.822 45.1773 71.2419 43.7703 70.6556C42.3632 70.0693 41.0302 69.4213 39.654 68.8042C39.654 68.8042 39.6108 68.8536 39.654 68.8659C42.3214 70.3376 45.0889 71.6202 47.9359 72.7045C50.7609 73.7861 53.6456 74.7051 56.5758 75.4569C56.6066 75.4692 56.619 75.3582 56.5758 75.352Z" fill="#F28F8F"/>
<path d="M47.9361 76.3085C45.6836 75.537 43.4495 74.6237 41.2526 73.6239C40.1355 73.1179 39.037 72.581 37.9324 72.0441C36.8277 71.5072 35.7909 70.89 34.7109 70.3161C34.7109 70.3161 34.7109 70.3655 34.7109 70.3778C36.7813 71.746 38.961 72.9411 41.2279 73.951C43.4027 74.9316 45.6444 75.7565 47.9361 76.4195C47.9731 76.4319 47.9855 76.3208 47.9361 76.3085Z" fill="#F28F8F"/>
<path d="M5.67474 40.3791C4.94689 41.175 4.29407 42.0365 3.72459 42.9525C3.16437 43.896 2.70319 44.8949 2.34839 45.9333C2.00971 46.9207 1.76182 47.937 1.60782 48.9696C1.45671 50.1138 1.44428 51.2721 1.57079 52.4193C1.57079 52.4625 1.60782 52.4193 1.60782 52.4193C1.60992 51.4064 1.69247 50.3952 1.85468 49.3954C1.9986 48.3258 2.2424 47.2721 2.58289 46.248C3.25834 44.1494 4.32178 42.1963 5.71793 40.4901C5.74262 40.447 5.71793 40.3359 5.67474 40.3791Z" fill="#E0E0E0"/>
<path d="M5.62512 58.0784C4.91788 58.1594 4.20147 58.0835 3.52687 57.8562C2.85196 57.5916 2.25077 57.1682 1.77421 56.6219C1.26376 56.009 0.881799 55.2996 0.651034 54.536C0.510889 54.0999 0.401593 53.6545 0.323954 53.203C0.262066 52.7155 0.175548 52.2315 0.0647497 51.7527H0.0277232C-0.0562631 52.6314 0.0511187 53.5177 0.342467 54.3509C0.569432 55.2111 0.970618 56.0156 1.52118 56.7145C2.02734 57.3393 2.68037 57.8291 3.42195 58.1401C3.77173 58.3142 4.15268 58.417 4.54259 58.4425C4.9325 58.4679 5.32358 58.4155 5.69301 58.2882C5.77324 58.2388 5.70535 58.0722 5.62512 58.0784Z" fill="#E0E0E0"/>
<path d="M14.8572 39.2311C14.467 38.3921 13.8447 37.6823 13.0638 37.1858C12.2829 36.6892 11.3762 36.4268 10.4509 36.4293C8.15512 36.3861 5.95196 37.6636 4.39678 39.225C3.43002 40.2062 2.62588 41.3354 2.01465 42.5698C2.01465 42.6068 2.01465 42.7303 2.07019 42.6686C3.92159 39.7248 5.44591 38.1758 8.14278 37.1699C10.4509 36.3183 13.5859 36.8984 14.7399 39.3052C14.7955 39.4163 14.8942 39.3237 14.8572 39.2311Z" fill="#E0E0E0"/>
</svg>
