<svg width="129" height="152" viewBox="0 0 129 152" fill="none" xmlns="http://www.w3.org/2000/svg">
<path d="M12.0098 118.376L70.2513 84.7564L128.488 118.376L70.2513 152L12.0098 118.376Z" fill="#E0E0E0"/>
<path d="M70.251 90.3612V31.3266L124.572 62.6893L73.4475 92.2066L70.251 90.3612Z" fill="#FF1D0A"/>
<path d="M70.2513 90.3612V31.3266L15.9307 62.6894L67.0548 92.2066L70.2513 90.3612Z" fill="#FF1D0A"/>
<path opacity="0.1" d="M70.2513 90.3612V31.3266L15.9307 62.6894L67.0548 92.2066L70.2513 90.3612Z" fill="black"/>
<path d="M70.2521 94.0521L67.0557 92.2066L70.2521 90.3612L73.4486 92.2066L70.2521 94.0521Z" fill="#FF1D0A"/>
<path opacity="0.45" d="M70.2521 94.0521L67.0557 92.2066L70.2521 90.3612L73.4486 92.2066L70.2521 94.0521Z" fill="black"/>
<path d="M31.4483 62.9488C31.9534 62.9345 32.4588 62.9558 32.9609 63.0124C34.9772 63.2301 36.8532 64.1482 38.2622 65.6068C38.4611 64.9144 38.8226 64.2796 39.3164 63.7551C39.8102 63.2306 40.4222 62.8316 41.1014 62.5914C41.7118 62.3285 42.3721 62.2015 43.0365 62.2193C43.7008 62.237 44.3534 62.3991 44.9489 62.6943C44.7222 61.5751 44.7566 60.4187 45.0495 59.3151C45.3424 58.2114 45.8859 57.1901 46.6377 56.3307C47.3184 55.5243 48.1771 54.8871 49.146 54.4693C50.115 54.0514 51.1677 53.8643 52.2213 53.9226C53.2749 53.981 54.3006 54.2833 55.2174 54.8057C56.1343 55.328 56.9173 56.0562 57.5048 56.9327C57.2209 55.5719 57.9943 54.1426 59.1152 53.33C60.2929 52.5693 61.6636 52.1616 63.0656 52.1552C66.1593 52.0034 69.7522 53.2859 70.6236 56.2523C71.3042 54.6266 72.4182 53.219 73.844 52.183C75.2699 51.1471 76.9528 50.5226 78.7093 50.3776C80.4658 50.2327 82.2283 50.5729 83.8047 51.3611C85.3811 52.1493 86.7107 53.3553 87.6486 54.8475C88.5913 54.5771 89.5896 54.5676 90.5372 54.82C91.4847 55.0724 92.3461 55.5771 93.0294 56.2805C93.7127 56.9839 94.1923 57.8595 94.4171 58.814C94.6419 59.7685 94.6035 60.7662 94.3059 61.7006C97.4192 59.9383 101.991 62.2733 102.383 65.8271C103.482 64.9366 104.768 64.3068 106.146 63.9853C107.523 63.6637 108.956 63.6587 110.335 63.9706C111.715 64.2825 113.006 64.9033 114.111 65.7861C115.216 66.669 116.107 67.791 116.716 69.0676C118.909 73.669 117.053 79.1172 114.885 83.7528C113.781 86.2164 112.457 88.5755 110.93 90.8018C105.134 98.8933 95.3094 103.25 85.5095 104.973C69.962 107.65 53.9708 104.625 40.4748 96.4556C34.3804 92.7353 24.8742 87.0668 22.6127 80.3018C20.64 74.3054 23.1658 63.267 31.4483 62.9488Z" fill="#FAFAFA"/>
<path d="M70.251 145.71V94.0521L124.572 62.6894L118.184 118.038L70.251 145.71Z" fill="#FF1D0A"/>
<path opacity="0.45" d="M70.251 145.71V94.0521L124.572 62.6894L118.184 118.038L70.251 145.71Z" fill="white"/>
<path d="M103.362 74.9368L93.8996 80.3556L93.0283 132.562L101.12 127.887L103.362 74.9368Z" fill="#EBEBEB"/>
<path d="M70.2513 145.71V94.0521L15.9307 62.6894L22.3187 118.038L70.2513 145.71Z" fill="#FF1D0A"/>
<path opacity="0.3" d="M70.2513 145.71V94.0521L15.9307 62.6894L22.3187 118.038L70.2513 145.71Z" fill="white"/>
<path d="M37.1416 74.9368L46.6038 80.3556L47.4751 132.562L39.3835 127.887L37.1416 74.9368Z" fill="#EBEBEB"/>
<path opacity="0.1" d="M37.1416 74.9368L46.6038 80.3556L47.4751 132.562L39.3835 127.887L37.1416 74.9368Z" fill="black"/>
<path d="M116.493 33.6363V46.8726L91.3613 61.3718L81.904 66.8249L80.0781 67.8822L58.251 80.4919V67.2508L81.904 53.5984L89.3885 49.281L91.3613 48.1453V48.1306L116.493 33.6363Z" fill="#FF1D0A"/>
<g opacity="0.45">
<path d="M116.494 33.6363V46.8726L91.3622 61.3718L81.905 66.8249L80.0791 67.8822L58.252 80.4919V67.2508L81.905 53.5984L89.3895 49.2809L91.3622 48.1453V48.1306L116.494 33.6363Z" fill="white"/>
</g>
<path d="M34.5984 53.5984L26.6537 49.0166L25.1411 48.1306L0 33.6363V46.853L1.50768 47.7243L25.1264 61.3522L34.5837 66.8151L58.2514 80.4919V67.2508L34.5984 53.5984Z" fill="#FF1D0A"/>
<path opacity="0.3" d="M34.5984 53.5984L26.6537 49.0166L25.1411 48.1306L0 33.6363V46.853L1.50768 47.7243L25.1264 61.3522L34.5837 66.8151L58.2514 80.4919V67.2508L34.5984 53.5984Z" fill="white"/>
<path d="M0.00976562 33.6314L58.2513 0.00717163L116.488 33.6314L58.2513 67.2557L0.00976562 33.6314Z" fill="#FF1D0A"/>
<g opacity="0.6">
<path d="M0.00976562 33.6314L58.2513 0.00714111L116.488 33.6314L58.2513 67.2557L0.00976562 33.6314Z" fill="white"/>
</g>
<path d="M34.5989 53.5984V66.8347L25.1416 61.3718V48.1306L34.5989 53.5984Z" fill="#EBEBEB"/>
<path d="M34.5989 53.5984V66.8347L25.1416 61.3718V48.1306L34.5989 53.5984Z" fill="#FF1D0A"/>
<path d="M34.5989 53.5984V66.8347L25.1416 61.3718V48.1306L34.5989 53.5984Z" fill="#E0E0E0"/>
<path opacity="0.1" d="M34.5989 53.5984V66.8347L25.1416 61.3718V48.1306L34.5989 53.5984Z" fill="black"/>
<path d="M91.3616 48.1306V61.3718L81.9043 66.8249V53.5984L87.4602 50.3873L91.3616 48.1306Z" fill="#FF1D0A"/>
<path d="M91.3616 48.1306V61.3718L81.9043 66.8249V53.5984L87.4602 50.3873L91.3616 48.1306Z" fill="#EBEBEB"/>
<path d="M25.1357 48.1404L83.3724 14.5161L92.8346 19.979L34.5979 53.5984L25.1357 48.1404Z" fill="#FAFAFA"/>
<path opacity="0.1" d="M57.4729 40.3915L48.0156 34.9286L57.4729 29.4706L66.9351 34.9286L57.4729 40.3915Z" fill="black"/>
<path d="M81.8998 53.5984L23.6631 19.979L33.1253 14.5161L91.362 48.1404L81.8998 53.5984Z" fill="#FAFAFA"/>
<path d="M83.1523 16.9734C82.4523 20.8503 77.4201 32.2657 59.7293 34.3559L57.8447 32.8629C57.8447 32.8629 78.2033 26.6804 72.8236 8.82805L83.1523 16.9734Z" fill="#E0E0E0"/>
<path d="M57.8206 36.5586C57.8206 36.5586 57.2772 25.6426 61.1003 18.9902C64.9233 12.3378 72.824 8.82805 72.824 8.82805C76.9177 10.5969 80.4782 13.4048 83.1526 16.9734C78.1932 17.3538 73.3807 18.8336 69.0645 21.3056C62.2898 25.3342 59.7199 34.3559 59.7199 34.3559L57.8206 36.5586Z" fill="#EBEBEB"/>
<path d="M69.2304 21.2077L61.8535 17.7811C62.9591 16.2023 64.2564 14.7668 65.7157 13.5077L75.4765 18.4664C73.2988 19.1445 71.2037 20.0639 69.2304 21.2077Z" fill="#FAFAFA"/>
<path d="M84.9782 37.0041C84.9782 37.0041 73.2006 40.7782 57.8203 36.5586L58.8581 34.3999C58.8581 34.3999 66.8175 35.3789 72.3244 33.7342C77.8314 32.0894 82.188 23.7923 82.188 23.7923L84.9782 37.0041Z" fill="#E0E0E0"/>
<path d="M57.8203 36.5586C57.8203 36.5586 57.8203 33.5579 61.7364 29.4314C66.9105 24.0468 77.5132 23.4986 82.1733 23.7923C84.1451 25.1715 85.5257 27.2423 86.0404 29.5929C86.7453 32.4908 84.9635 37.0041 84.9635 37.0041C83.3535 35.2211 81.3912 33.7916 79.2005 32.8058C77.0098 31.82 74.6385 31.2994 72.2363 31.2768C64.458 31.2083 60.2727 35.653 60.2727 35.653L57.8203 36.5586Z" fill="#EBEBEB"/>
<path d="M73.3174 24.2965C75.0646 24.0064 76.829 23.8315 78.5992 23.7727C79.97 25.0707 80.966 26.7137 81.4828 28.5293C81.9996 30.345 82.018 32.2663 81.5362 34.0915C79.8004 32.9807 77.8836 32.1822 75.8726 31.7321C75.8569 29.0408 74.9593 26.4289 73.3174 24.2965Z" fill="#FAFAFA"/>
<path d="M75.3054 54.0047C75.3054 54.0047 67.9628 53.1285 63.3321 47.8712C60.4165 44.61 58.3931 40.6509 57.458 36.3775L59.7146 34.0524C59.7146 34.0524 62.0692 40.2202 68.5258 43.0348C73.7488 45.3208 83.4753 45.2964 83.4753 45.2964L75.3054 54.0047Z" fill="#E0E0E0"/>
<path d="M57.4775 36.3824L59.7342 34.0573C59.7342 34.0573 68.4621 32.3146 73.1712 34.0573C77.8802 35.7999 83.3725 43.0691 83.4508 45.3159C82.2368 49.3739 79.4124 52.1984 75.2858 54.0243C75.2858 54.0243 75.7362 46.0893 69.6858 41.439C66.153 38.6728 61.9316 36.9243 57.4775 36.3824Z" fill="#EBEBEB"/>
<path d="M66.5732 39.4076L74.2389 34.6006C75.9589 35.5656 77.5193 36.7908 78.8648 38.2328L71.3264 42.9369C70.8309 42.3881 70.287 41.8852 69.7012 41.4341C68.7112 40.6806 67.6656 40.0032 66.5732 39.4076Z" fill="#FAFAFA"/>
<path d="M37.1433 18.1874C36.8154 20.2972 38.6412 26.0195 43.9328 29.5587C49.2244 33.0978 57.9033 34.1013 57.9033 34.1013L59.0928 33.3034C59.0928 33.3034 50.2817 28.3643 47.2712 23.5916C44.2608 18.8189 45.8957 10.8644 45.8957 10.8644L37.1433 18.1874Z" fill="#E0E0E0"/>
<path d="M57.9036 34.1013C57.9036 34.1013 55.3728 26.6804 48.7547 22.4657C42.1365 18.2511 37.1436 18.1874 37.1436 18.1874C38.0435 16.4449 39.2806 14.8985 40.7831 13.638C42.2856 12.3776 44.0235 11.4281 45.8959 10.8448C45.8959 10.8448 53.405 14.7609 56.5085 21.2028C58.3291 24.9686 59.2156 29.1175 59.0931 33.2985L57.9036 34.1013Z" fill="#EBEBEB"/>
<path d="M45.4067 20.6154C43.9654 19.9082 42.4651 19.3284 40.9229 18.8825C43.075 16.2757 45.7694 14.1692 48.8186 12.7098C50.4575 13.8721 51.9731 15.199 53.3417 16.67C50.3999 17.2764 47.6658 18.6359 45.4067 20.6154Z" fill="#FAFAFA"/>
<path d="M30.4863 32.1971C33.159 35.4572 42.0974 40.6558 57.0274 35.3104L57.8743 33.4894C57.8743 33.4894 49.2834 34.5908 41.9995 31.316C34.7157 28.0412 33.952 23.2 33.952 23.2L30.4863 32.1971Z" fill="#E0E0E0"/>
<path d="M57.874 33.4894C57.874 33.4894 54.2761 26.9496 46.9041 24.2965C39.5322 21.6433 33.9518 23.2 33.9518 23.2C33.9518 23.2 29.6441 26.9398 30.4861 32.1971C34.3018 30.1288 38.6485 29.2475 42.9685 29.6664C50.2426 30.3566 56.0383 33.3377 57.0271 35.3104L57.874 33.4894Z" fill="#EBEBEB"/>
<path d="M37.8185 29.7986C36.0658 30.0443 34.3486 30.4978 32.7031 31.1496C33.3427 27.9501 34.9528 25.0255 37.3143 22.7741C38.4005 22.7388 39.488 22.7748 40.5695 22.8818C39.008 24.6587 38.215 27.5272 37.8185 29.7986Z" fill="#FAFAFA"/>
<path d="M41.6713 53.6277C45.4796 53.5298 57.0907 47.7781 57.825 36.353L56.4103 33.6901C56.4103 33.6901 53.9236 40.1222 48.7153 43.26C43.5069 46.3977 35.6846 46.7355 35.6846 46.7355L41.6713 53.6277Z" fill="#E0E0E0"/>
<path d="M57.874 33.4894C57.874 33.4894 51.0992 33.6657 46.5272 35.7118C38.4601 39.3195 35.8657 43.2355 35.6748 46.7355C36.8026 49.6656 38.9254 52.1055 41.6713 53.6278C41.6713 53.6278 44.6328 45.0075 48.6027 41.253C53.9041 36.2356 57.8152 36.3579 57.8152 36.3579L57.874 33.4894Z" fill="#EBEBEB"/>
<path d="M42.5866 51.2781C40.0482 49.493 37.8513 47.2662 36.1006 44.704C36.639 43.0886 37.7453 41.4243 39.7327 39.7649C41.8371 41.4691 44.3314 42.6245 46.9921 43.1278C45.0341 45.683 43.497 49.0508 42.5866 51.2781Z" fill="#FAFAFA"/>
<path d="M57.0865 37.474C57.311 37.3447 57.5128 37.1793 57.6837 36.9845C57.8175 36.8314 57.9386 36.6677 58.0459 36.495C58.3441 35.9606 58.4389 35.3364 58.3129 34.7375C58.1868 34.1387 57.8485 33.6056 57.3603 33.2367C56.8721 32.8677 56.2669 32.6878 55.6564 32.7301C55.0459 32.7723 54.4713 33.034 54.0386 33.4667C53.6059 33.8994 53.3442 34.474 53.302 35.0845C53.2597 35.695 53.4396 36.3002 53.8086 36.7884C54.1775 37.2766 54.7106 37.615 55.3094 37.741C55.9083 37.867 56.5325 37.7722 57.0669 37.474H57.0865Z" fill="#FF1D0A"/>
<path opacity="0.15" d="M54.1195 34.4244C53.8797 34.9139 54.3888 35.2614 55.1524 34.9775C55.916 34.6936 56.4985 34.0474 55.8573 33.5873C57.0517 33.4307 58.4419 34.9041 58.1726 36.2355C58.3274 35.8496 58.3847 35.4315 58.3395 35.0182C58.2942 34.6049 58.1478 34.2091 57.9133 33.8658C57.6787 33.5225 57.3632 33.2423 56.9946 33.05C56.626 32.8576 56.2157 32.759 55.7999 32.7629C55.3841 32.7668 54.9757 32.8731 54.6108 33.0724C54.2459 33.2717 53.9357 33.5578 53.7077 33.9054C53.4796 34.2531 53.3407 34.6515 53.3033 35.0656C53.2658 35.4797 53.331 35.8967 53.493 36.2796C53.4042 35.943 53.4162 35.5877 53.5276 35.2579C53.639 34.9281 53.8448 34.6382 54.1195 34.4244Z" fill="black"/>
<path opacity="0.2" d="M54.1245 36.5586C54.0993 36.4656 54.1021 36.3672 54.1325 36.2757C54.163 36.1843 54.2198 36.1039 54.2958 36.0446C54.5308 35.8831 54.844 36.0446 55.1133 36.1376C55.821 36.3706 56.5877 36.3498 57.2818 36.0789C57.3675 36.0434 57.4585 36.0219 57.551 36.0152C57.5974 36.0125 57.6436 36.0237 57.6837 36.0472C57.7237 36.0707 57.7559 36.1056 57.7762 36.1474C57.8079 36.2377 57.8079 36.3361 57.7762 36.4264C57.6853 36.6149 57.5551 36.7818 57.3944 36.9159C56.979 37.2595 56.4641 37.4603 55.9259 37.4887C55.3942 37.533 54.8666 37.3659 54.4573 37.0236C54.3026 36.9052 54.1867 36.7433 54.1245 36.5586Z" fill="white"/>
<path opacity="0.2" d="M54.967 36.353C54.8822 36.2851 54.7808 36.2411 54.6733 36.2257C54.6108 36.2087 54.5449 36.2087 54.4824 36.2257C53.8558 36.4803 55.0551 37.5425 55.2362 36.9551C55.266 36.8523 55.2555 36.742 55.2069 36.6467C55.1552 36.5287 55.0723 36.4272 54.967 36.353Z" fill="white"/>
<path d="M62.6578 36.6957C62.8817 36.5634 63.0846 36.3984 63.2599 36.2062C63.3941 36.0534 63.5152 35.8897 63.6221 35.7167C63.9202 35.1823 64.015 34.5581 63.889 33.9592C63.763 33.3604 63.4247 32.8273 62.9365 32.4584C62.4482 32.0894 61.8431 31.9095 61.2326 31.9518C60.6221 31.994 60.0475 32.2557 59.6147 32.6884C59.182 33.1211 58.9204 33.6957 58.8781 34.3062C58.8359 34.9167 59.0158 35.5219 59.3847 36.0101C59.7537 36.4983 60.2868 36.8366 60.8856 36.9627C61.4844 37.0887 62.1087 36.9938 62.6431 36.6957H62.6578Z" fill="#FF1D0A"/>
<path opacity="0.15" d="M59.7207 33.6167C59.476 34.1062 59.9802 34.4537 60.7487 34.1747C61.5172 33.8957 62.0997 33.2496 61.4585 32.7894C62.6578 32.6328 64.0382 34.116 63.7591 35.4474C63.9056 35.0939 63.9689 34.7114 63.9443 34.3295C63.9197 33.9477 63.8078 33.5765 63.6172 33.2447C63.2949 32.6922 62.7754 32.2822 62.1632 32.0972C61.5509 31.9122 60.8913 31.9659 60.3171 32.2474C59.7428 32.529 59.2964 33.0176 59.0677 33.6149C58.839 34.2122 58.845 34.8739 59.0844 35.467C58.9964 35.1302 59.0098 34.7749 59.1231 34.4457C59.2363 34.1166 59.4442 33.8281 59.7207 33.6167Z" fill="black"/>
<path opacity="0.2" d="M59.7207 35.7607C59.7 35.6718 59.7047 35.5787 59.7341 35.4922C59.7635 35.4057 59.8165 35.3292 59.8872 35.2712C60.127 35.1097 60.4403 35.2712 60.7096 35.3642C61.4156 35.6019 62.1823 35.5864 62.8781 35.3202C62.9638 35.2847 63.0547 35.2632 63.1473 35.2566C63.1931 35.2572 63.2379 35.2697 63.2773 35.2929C63.3168 35.3161 63.3496 35.3491 63.3725 35.3887C63.4042 35.479 63.4042 35.5774 63.3725 35.6677C63.2794 35.8549 63.1495 36.0214 62.9907 36.1572C62.5735 36.4964 62.0591 36.6936 61.5221 36.7202C60.9872 36.7572 60.4593 36.5813 60.0536 36.2307C59.8957 36.1132 59.7792 35.9487 59.7207 35.7607Z" fill="white"/>
<path opacity="0.2" d="M60.5388 35.5601C60.4552 35.4933 60.3556 35.4494 60.25 35.4328C60.1858 35.4158 60.1183 35.4158 60.0542 35.4328C59.4276 35.6824 60.622 36.7496 60.808 36.1621C60.8373 36.0593 60.8268 35.9492 60.7786 35.8538C60.727 35.7358 60.6441 35.6342 60.5388 35.5601Z" fill="white"/>
<path d="M59.412 32.1286C59.6354 31.9976 59.8369 31.8324 60.0092 31.6391C60.1442 31.487 60.2654 31.3232 60.3714 31.1496C60.6686 30.6162 60.7629 29.9932 60.637 29.3957C60.511 28.7982 60.1732 28.2664 59.6859 27.8984C59.1986 27.5303 58.5947 27.3509 57.9855 27.3932C57.3763 27.4354 56.8029 27.6965 56.3711 28.1283C55.9393 28.5601 55.6782 29.1335 55.636 29.7427C55.5937 30.3519 55.7731 30.9558 56.1412 31.4431C56.5092 31.9304 57.041 32.2682 57.6385 32.3942C58.236 32.5201 58.859 32.4258 59.3924 32.1286H59.412Z" fill="#FF1D0A"/>
<path opacity="0.15" d="M56.4447 29.0643C56.2049 29.5538 56.7139 29.9013 57.4776 29.6174C58.2412 29.3335 58.8237 28.6825 58.1825 28.2272C59.3769 28.0657 60.7671 29.5391 60.4978 30.8755C60.6526 30.4895 60.7099 30.0715 60.6646 29.6582C60.6194 29.2448 60.473 28.849 60.2385 28.5057C60.0039 28.1625 59.6884 27.8822 59.3198 27.6899C58.9512 27.4975 58.5409 27.3989 58.1251 27.4029C57.7093 27.4068 57.3009 27.5131 56.936 27.7123C56.5711 27.9116 56.2609 28.1977 56.0329 28.5453C55.8048 28.893 55.6659 29.2915 55.6285 29.7056C55.591 30.1196 55.6562 30.5366 55.8181 30.9195C55.7294 30.5829 55.7414 30.2276 55.8528 29.8978C55.9642 29.568 56.17 29.2781 56.4447 29.0643Z" fill="black"/>
<path opacity="0.2" d="M56.4544 31.2132C56.4287 31.1207 56.4307 31.0226 56.4603 30.9312C56.4899 30.8398 56.5458 30.7591 56.6209 30.6992C56.8558 30.5377 57.1691 30.6992 57.4384 30.7874C58.1454 31.0249 58.9137 31.0041 59.6069 30.7286C59.6929 30.6946 59.7838 30.6748 59.8761 30.6699C59.9219 30.6674 59.9674 30.678 60.0073 30.7006C60.0472 30.7231 60.0798 30.7566 60.1013 30.7971C60.1355 30.887 60.1355 30.9863 60.1013 31.0762C60.0093 31.2641 59.8793 31.4308 59.7195 31.5657C59.3031 31.9074 58.7888 32.108 58.2509 32.1384C57.7166 32.1712 57.1902 31.9958 56.7824 31.6489C56.6328 31.5389 56.5188 31.3874 56.4544 31.2132Z" fill="white"/>
<path opacity="0.2" d="M57.2716 30.9979C57.1859 30.9325 57.0847 30.8903 56.9779 30.8755C56.9154 30.8584 56.8495 30.8584 56.787 30.8755C56.1605 31.1251 57.3598 32.1922 57.5458 31.5999C57.5713 31.498 57.5592 31.3902 57.5115 31.2965C57.46 31.1771 57.3771 31.0739 57.2716 30.9979Z" fill="white"/>
</svg>
