<svg width="9" height="14" viewBox="0 0 9 14" fill="none" xmlns="http://www.w3.org/2000/svg">
<path d="M1.00453 1.61649C2.98622 0.90554 5.71023 1.10303 7.36917 2.73821C8.66017 4.00212 9.38314 6.74324 7.49182 7.68327C6.74949 8.04664 4.30305 8.04664 4.01257 6.80643C3.80601 5.95329 4.56125 5.43982 5.16156 5.32133C6.94315 4.98955 8.60208 7.2804 8.56335 9.32635C8.50526 12.3992 5.58113 13.4183 3.51552 13.442C3.37996 13.442 3.41224 13.7579 3.51552 13.7658C7.03351 14.1845 10.9582 10.1953 7.82747 6.19817C6.98832 5.12385 5.67149 4.3576 4.45795 4.95006C3.77372 5.28183 3.2315 6.04809 3.57361 6.95652C4.12229 8.41792 6.32992 8.67069 7.40146 8.29152C7.68581 8.20098 7.95183 8.03965 8.18292 7.81761C8.41402 7.59556 8.60521 7.31757 8.74454 7.00101C8.88388 6.68445 8.96838 6.33612 8.99273 5.97779C9.01709 5.61947 8.98078 5.25885 8.8861 4.91846C8.02113 1.02404 3.57362 0.178797 0.939973 1.38741C0.862513 1.38741 0.888337 1.64809 0.985163 1.61649H1.00453Z" fill="#FF6154"/>
</svg>
