<svg width="287" height="177" viewBox="0 0 287 177" fill="none" xmlns="http://www.w3.org/2000/svg">
<g clip-path="url(#clip0_1214_3122)">
<path d="M179.656 8.42872C176.641 8.06534 172.555 14.2269 175.511 17.1892C177.151 18.8323 180.721 18.1213 180.675 15.0484C180.668 14.9632 180.638 14.8832 180.591 14.8205C180.543 14.7578 180.48 14.7158 180.411 14.7009C178.042 14.0373 175.692 15.2854 176.092 18.6506C176.307 20.1013 176.918 21.4199 177.824 22.3913C178.73 23.3626 179.879 23.9292 181.082 23.9985C181.224 23.9985 181.172 23.6983 181.082 23.6667C179.017 23.1375 177.067 21.5655 176.66 18.8639C176.569 18.3857 176.561 17.8892 176.638 17.4071C176.714 16.925 176.874 16.4684 177.106 16.0675C177.382 15.6614 177.747 15.36 178.158 15.1985C178.513 15.0642 179.785 14.8194 180.094 15.1985C180.65 15.9016 179.139 17.0944 178.687 17.284C178.241 17.4799 177.765 17.5532 177.293 17.4986C176.821 17.444 176.365 17.2628 175.957 16.968C174.705 15.8937 175.014 13.8714 175.621 12.4416C176.441 10.5063 177.874 8.93428 179.72 8.85529C179.888 8.85529 179.798 8.46822 179.668 8.45242L179.656 8.42872Z" fill="#FF6154"/>
<path d="M253.036 1.54828C255.018 0.837332 257.742 1.03482 259.401 2.67C260.692 3.93391 261.415 6.67502 259.523 7.61506C258.781 7.97843 256.334 7.97843 256.044 6.74612C255.837 5.88508 256.593 5.37161 257.199 5.26102C258.975 4.92135 260.64 7.21218 260.595 9.25814C260.537 12.331 257.613 13.35 255.547 13.3737C255.411 13.3737 255.444 13.6897 255.547 13.6976C259.065 14.1163 262.99 10.1271 259.859 6.12996C259.02 5.05564 257.703 4.28939 256.489 4.88185C255.805 5.22152 255.263 5.97987 255.605 6.88831C256.154 8.3497 258.361 8.60249 259.433 8.23121C259.717 8.13872 259.982 7.97591 260.213 7.75284C260.444 7.52978 260.634 7.25119 260.774 6.93431C260.913 6.61743 260.997 6.26899 261.022 5.91053C261.047 5.55207 261.011 5.19121 260.917 4.85025C260.053 0.963724 255.605 0.110583 252.971 1.3192C252.894 1.3192 252.926 1.57988 253.017 1.54828H253.036Z" fill="#FF6154"/>
<path d="M279.005 164.616C280.986 163.906 283.71 164.103 285.369 165.738C286.66 167.002 287.383 169.743 285.492 170.683C284.749 171.047 282.303 171.047 282.013 169.806C281.806 168.953 282.561 168.44 283.162 168.321C284.943 167.99 286.602 170.28 286.563 172.326C286.505 175.399 283.581 176.418 281.516 176.442C281.38 176.442 281.412 176.758 281.516 176.766C285.034 177.185 288.958 173.195 285.827 169.198C284.988 168.124 283.671 167.358 282.458 167.95C281.774 168.282 281.231 169.048 281.574 169.957C282.122 171.418 284.33 171.671 285.401 171.292C285.686 171.201 285.952 171.04 286.183 170.818C286.414 170.596 286.605 170.318 286.745 170.001C286.884 169.684 286.968 169.336 286.993 168.978C287.017 168.619 286.981 168.259 286.886 167.918C286.021 164.024 281.574 163.179 278.94 164.387C278.863 164.387 278.888 164.648 278.985 164.616H279.005Z" fill="#FF6154"/>
<path d="M264.481 46.504C262.119 47.3651 259.924 52.4523 262.119 54.7668C263.984 56.7338 267.754 56.2914 267.128 52.5392C267.122 52.4964 267.107 52.4564 267.084 52.423C267.062 52.3897 267.032 52.3644 266.999 52.3496C264.52 51.6229 263.7 55.1618 264.223 57.5C265.03 61.1338 268.025 61.0864 270.188 59.1905C270.259 59.1273 270.226 58.8745 270.123 58.9377C268.354 60.02 265.876 60.9837 264.798 58.2189C264.223 56.7417 264.204 54.2692 265.314 53.1553C265.603 52.8256 265.984 52.6445 266.379 52.6498C267.205 52.7683 267.063 53.8584 266.599 54.5536C265.856 55.6595 264.365 55.541 263.371 55.1144C259.969 53.6372 262.306 48.2419 264.526 46.7252C264.591 46.6778 264.578 46.4724 264.481 46.504Z" fill="#FF6154"/>
<path d="M211.945 33.7938C209.156 33.3594 203.159 36.2347 204.722 40.9033C205.554 43.3916 209.272 44.9873 210.492 42.1356C210.519 42.058 210.519 41.9709 210.494 41.8928C210.468 41.8146 210.419 41.7516 210.357 41.717C204.547 37.6883 198.428 49.3241 204.592 53.5661C204.786 53.7004 204.78 53.2976 204.67 53.1949C204.138 52.7492 203.684 52.1782 203.335 51.5153C202.985 50.8524 202.747 50.1109 202.635 49.3341C202.523 48.5574 202.538 47.761 202.68 46.9915C202.822 46.2221 203.088 45.4951 203.463 44.853C204.091 43.626 204.985 42.6361 206.045 41.9934C206.839 41.5353 208.833 40.8875 209.576 41.8355C209.911 42.2778 209.905 41.7249 209.731 42.2383C209.565 42.5433 209.311 42.7605 209.021 42.8466C208.387 43.0929 207.703 43.065 207.084 42.7676C205.793 42.2146 204.78 40.7611 205.148 39.0154C205.825 35.5159 209.466 34.2757 212.016 34.2204C212.19 34.2204 212.08 33.8175 211.945 33.7938Z" fill="#FF6154"/>
<path d="M224.635 2.29871C224.635 2.29871 224.467 6.12204 226.784 8.24699L229.211 7.33855C229.211 7.33855 227.591 6.39062 226.784 2.29871H224.635Z" fill="#455A64"/>
<path d="M279.67 21.4549C279.67 21.4549 278.249 24.8675 275.377 25.2861L273.641 23.0111C273.641 23.0111 275.435 23.1849 277.811 20.1436L279.67 21.4549Z" fill="#455A64"/>
<path d="M263.024 143.47C263.024 143.47 261.61 146.882 258.732 147.293L256.995 145.026C256.995 145.026 258.796 145.192 261.165 142.15L263.024 143.47Z" fill="#455A64"/>
<path d="M223.292 71.798C223.292 71.798 221.878 75.2106 218.999 75.6214L217.263 73.3542C217.263 73.3542 219.064 73.5201 221.433 70.4788L223.292 71.798Z" fill="#FF6154"/>
<path d="M197.465 29.6861C197.465 29.6861 196.051 33.0987 193.179 33.5173L191.442 31.2423C191.442 31.2423 193.237 31.4161 195.612 28.3748L197.465 29.6861Z" fill="#455A64"/>
<path d="M251.101 34.8206C251.101 34.8206 247.996 35.2946 246.104 32.6009L246.679 29.5754C246.679 29.5754 247.563 31.495 250.952 32.198L251.101 34.8206Z" fill="#FF6154"/>
<path d="M206.083 16.1703C206.083 16.1703 202.985 16.6442 201.094 13.9584L201.662 10.9329C201.662 10.9329 202.553 12.8446 205.941 13.5555L206.083 16.1703Z" fill="#FF6154"/>
<path d="M153.882 7.87576C153.882 7.87576 150.784 8.34973 148.893 5.66392L149.461 2.63843C149.461 2.63843 150.351 4.5501 153.734 5.26105L153.882 7.87576Z" fill="#FF6154"/>
<path d="M191.023 58.843C191.023 58.843 187.925 59.309 186.033 56.6232L186.601 53.5977C186.601 53.5977 187.492 55.5173 190.881 56.2203L191.023 58.843Z" fill="#FF6154"/>
<path d="M283.906 87.1309C283.906 87.1309 280.801 87.5969 278.916 84.9111L279.484 81.8856C279.484 81.8856 280.375 83.8052 283.757 84.5082L283.906 87.1309Z" fill="#FF6154"/>
<path d="M229.845 48.8423C229.845 48.8423 228.432 52.2548 225.553 52.6735L223.816 50.3984C223.816 50.3984 225.94 50.8013 228.335 47.76L229.845 48.8423Z" fill="#455A64"/>
<path d="M232.968 53.8822C232.968 53.8822 232.413 57.6502 229.741 59.0563L227.546 57.4764C229.099 56.619 230.389 55.1808 231.232 53.3687L232.968 53.8822Z" fill="#37474F"/>
<path d="M123.865 5.47427C126.886 5.1109 130.965 11.2646 128.009 14.2269C126.376 15.8779 122.8 15.159 122.845 12.0862C122.853 12.0023 122.884 11.9241 122.931 11.863C122.979 11.8019 123.041 11.761 123.109 11.7465C125.485 11.0829 127.828 12.3231 127.428 15.6962C127.214 17.1454 126.605 18.4629 125.7 19.433C124.794 20.4031 123.647 20.9684 122.445 21.0362C122.296 21.0362 122.348 20.736 122.445 20.7123C124.51 20.1752 126.46 18.6032 126.86 15.9016C126.953 15.4249 126.962 14.9292 126.885 14.4481C126.808 13.967 126.648 13.5117 126.414 13.1131C126.135 12.693 125.76 12.3848 125.336 12.2283C124.988 12.0941 123.71 11.8492 123.432 12.2283C122.871 12.9393 124.388 14.1242 124.839 14.3138C125.284 14.5124 125.759 14.587 126.231 14.5324C126.702 14.4777 127.157 14.2951 127.563 13.9978C128.816 12.9314 128.506 10.9091 127.899 9.4714C127.086 7.54394 125.646 5.96405 123.8 5.89295C123.639 5.89295 123.723 5.50587 123.852 5.49007L123.865 5.47427Z" fill="#FF6154"/>
<path d="M39.6989 1.54828C37.7172 0.837332 34.9932 1.03482 33.3278 2.67C32.0368 3.93391 31.3203 6.67502 33.2116 7.61506C33.9539 7.97843 36.4004 7.97843 36.6908 6.74612C36.8974 5.88508 36.1422 5.37161 35.5354 5.26102C33.7603 4.92135 32.0949 7.21218 32.1336 9.25814C32.1982 12.331 35.1223 13.35 37.1879 13.3737C37.3234 13.3737 37.2912 13.6897 37.1879 13.6976C33.6699 14.1163 29.7452 10.1271 32.8695 6.12996C33.7151 5.05564 35.0319 4.28939 36.2455 4.88185C36.9297 5.22152 37.4719 5.97987 37.1298 6.88831C36.5811 8.3497 34.3735 8.60249 33.302 8.23121C33.0179 8.13872 32.7523 7.97591 32.5217 7.75284C32.2911 7.52978 32.1003 7.25119 31.9612 6.93431C31.822 6.61743 31.7374 6.26899 31.7127 5.91053C31.688 5.55207 31.7236 5.19121 31.8173 4.85025C32.6823 0.963724 37.1233 0.110583 39.7634 1.3192C39.8409 1.3192 39.8086 1.57988 39.7183 1.54828H39.6989Z" fill="#FF6154"/>
<path d="M16.6472 161.694C14.6655 160.983 11.9415 161.18 10.2761 162.815C8.98509 164.079 8.26213 166.82 10.1599 167.76C10.9022 168.124 13.3422 168.124 13.6392 166.892C13.8393 166.031 13.084 165.517 12.4837 165.406C10.7021 165.067 9.04319 167.358 9.08192 169.404C9.14001 172.476 12.0641 173.495 14.1297 173.519C14.2718 173.519 14.233 173.835 14.1297 173.851C10.6118 174.262 6.68711 170.273 9.81134 166.275C10.6569 165.201 11.9673 164.435 13.1809 165.027C13.8715 165.367 14.4138 166.125 14.0716 167.034C13.523 168.495 11.3089 168.748 10.2374 168.377C9.95336 168.284 9.6879 168.121 9.45749 167.898C9.22708 167.675 9.03664 167.396 8.898 167.079C8.75937 166.762 8.67551 166.414 8.65162 166.055C8.62774 165.697 8.66434 165.336 8.75917 164.996C9.61768 161.109 14.0652 160.296 16.7053 161.465C16.7828 161.465 16.7505 161.725 16.6601 161.694H16.6472Z" fill="#FF6154"/>
<path d="M21.7277 47.9654C24.0902 48.8265 26.2849 53.9137 24.0902 56.2282C22.2247 58.2031 18.455 57.7528 19.0811 54.0006C19.0882 53.9584 19.1036 53.919 19.1262 53.8859C19.1487 53.8528 19.1776 53.8271 19.2102 53.811C21.6889 53.0922 22.5087 56.6311 21.9859 58.9693C21.179 62.5952 18.1839 62.5557 16.0214 60.6519C15.9504 60.5887 15.9827 60.3438 16.086 60.407C17.8547 61.4893 20.3334 62.4451 21.4114 59.6803C21.9859 58.2031 22.0052 55.7306 20.895 54.6246C20.6069 54.2927 20.2256 54.1088 19.8299 54.1112C19.0037 54.2297 19.1457 55.3277 19.6104 56.0149C20.3528 57.1209 21.8439 57.0024 22.8379 56.5758C26.2397 55.1065 23.903 49.7033 21.6825 48.1866C21.6179 48.1392 21.6309 47.9338 21.7277 47.9654Z" fill="#FF6154"/>
<path d="M29.235 112.662C25.2135 113.057 25.9365 122.402 29.1833 123.666C29.3829 123.753 29.5946 123.791 29.8063 123.778C30.0179 123.764 30.2252 123.699 30.4163 123.587C30.6545 123.372 30.8457 123.089 30.9729 122.763C31.1002 122.436 31.1595 122.076 31.1457 121.715C30.7584 120.135 28.5637 122.141 28.3119 122.765C27.894 123.588 27.699 124.55 27.7546 125.516C27.8102 126.482 28.1137 127.402 28.6218 128.145C30.2742 130.333 33.4372 130.404 35.5028 129.14C35.6061 129.069 35.6255 129.314 35.5544 129.377C33.3275 131.123 29.5965 130.87 27.944 128.105C26.653 125.893 27.5373 120.024 30.4163 120.545C33.1015 121.027 31.2425 124.772 29.2092 124.274C27.1758 123.776 26.44 120.474 26.2463 118.428C26.001 115.853 26.6272 112.377 29.235 112.433C29.3189 112.433 29.3124 112.654 29.235 112.662Z" fill="#FF6154"/>
<path d="M79.739 33.7938C82.5276 33.3594 88.5243 36.2347 86.9622 40.9033C86.1295 43.3916 82.4114 44.9873 81.1914 42.1356C81.1652 42.058 81.1647 41.9709 81.19 41.8928C81.2153 41.8146 81.2644 41.7516 81.327 41.717C87.1365 37.6883 93.2558 49.3241 87.0913 53.5661C86.8976 53.7004 86.9041 53.2976 87.0138 53.1949C87.5466 52.7492 88.0014 52.1778 88.3513 51.5143C88.7013 50.8507 88.9395 50.1083 89.052 49.3306C89.1644 48.5529 89.1488 47.7555 89.0061 46.9853C88.8634 46.2151 88.5964 45.4875 88.2209 44.8451C87.5929 43.6181 86.6991 42.6282 85.6389 41.9855C84.8449 41.5274 82.8503 40.8796 82.108 41.8276C81.7724 42.2699 81.7788 41.717 81.9531 42.2304C82.1187 42.5354 82.3723 42.7526 82.6631 42.8387C83.2969 43.085 83.9807 43.0571 84.5997 42.7597C85.8907 42.2067 86.9041 40.7532 86.5362 39.0075C85.8584 35.508 82.2177 34.2678 79.668 34.2125C79.4937 34.2125 79.6035 33.8096 79.739 33.7859V33.7938Z" fill="#FF6154"/>
<path d="M68.4223 9.25021C68.4223 9.25021 68.5966 13.0736 66.2728 15.1985L63.8457 14.2822C63.8457 14.2822 65.4659 13.3343 66.2728 9.24231L68.4223 9.25021Z" fill="#455A64"/>
<path d="M12.0137 21.4549C12.0137 21.4549 13.4338 24.8675 16.3063 25.2861L18.0749 23.0111C18.0749 23.0111 16.2804 23.1849 13.905 20.1436L12.0137 21.4549Z" fill="#455A64"/>
<path d="M100.698 31.5582C100.698 31.5582 102.112 34.9707 104.991 35.3894L106.721 33.1144C106.721 33.1144 104.926 33.2881 102.557 30.2469L100.698 31.5582Z" fill="#455A64"/>
<path d="M40.5771 34.8206C40.5771 34.8206 43.682 35.2946 45.5733 32.6009L44.9988 29.5754C44.9988 29.5754 44.1146 31.495 40.7257 32.198L40.5771 34.8206Z" fill="#FF6154"/>
<path d="M93.5986 5.23733C93.5986 5.23733 96.7035 5.7113 98.5948 3.02549L98.0268 0C98.0268 0 97.136 1.91167 93.7471 2.62262L93.5986 5.23733Z" fill="#FF6154"/>
<path d="M0 130.767C0 130.767 3.10487 131.241 4.99619 128.556L4.42814 125.522C4.42814 125.522 3.53735 127.442 0.148465 128.145L0 130.767Z" fill="#FF6154"/>
<path d="M61.8389 48.8423C61.8389 48.8423 63.2525 52.2548 66.1315 52.6735L67.8679 50.3984C67.8679 50.3984 65.7442 50.8013 63.3493 47.76L61.8389 48.8423Z" fill="#455A64"/>
<path d="M58.7402 53.8822C58.7402 53.8822 59.2954 57.6502 61.9677 59.0563L64.1625 57.4764C62.6096 56.619 61.3191 55.1808 60.4766 53.3687L58.7402 53.8822Z" fill="#37474F"/>
<path d="M160.652 34.2204C160.652 34.2204 159.238 37.6329 156.359 38.0516L154.623 35.7845C154.623 35.7845 156.747 36.1795 159.142 33.1382L160.652 34.2204Z" fill="#455A64"/>
<path d="M146.736 30.1285C146.736 30.1285 146.181 33.8965 143.508 35.3105L141.313 33.7306C142.868 32.8721 144.159 31.4307 144.999 29.615L146.736 30.1285Z" fill="#37474F"/>
</g>
<defs>
<clipPath id="clip0_1214_3122">
<rect width="287" height="177" fill="white"/>
</clipPath>
</defs>
</svg>
