<svg width="31" height="30" viewBox="0 0 31 30" fill="none" xmlns="http://www.w3.org/2000/svg">
<path d="M26.0578 3.75867C26.4103 4.20073 26.7436 4.66429 27.0578 5.14937C31.8488 12.564 30.1463 22.2153 23.2537 26.7064C16.3623 31.1975 6.89148 28.8271 2.0993 21.4112C1.61662 20.6645 1.20084 19.8963 0.849585 19.1113L26.0578 3.75867Z" fill="url(#paint0_linear_430_12812)"/>
<path style="mix-blend-mode:multiply" opacity="0.32" d="M26.0578 3.75867C26.4103 4.20073 26.7436 4.66429 27.0578 5.14937C31.8488 12.564 30.1463 22.2153 23.2537 26.7064C16.3623 31.1975 6.89148 28.8271 2.0993 21.4112C1.61662 20.6645 1.20084 19.8963 0.849585 19.1113L26.0578 3.75867Z" fill="url(#paint1_linear_430_12812)"/>
<mask id="mask0_430_12812" style="mask-type:luminance" maskUnits="userSpaceOnUse" x="0" y="0" width="28" height="22">
<path d="M5.55085 6.0777L6.41705 4.62368L8.47562 3.70133L13.7326 1.92831L15.0205 0.335693L22.6037 0.788507C25.8259 2.00358 26.9944 5.01915 27.0577 5.22465C27.5213 6.74557 25.9346 8.12313 25.9346 8.12313L24.1425 9.11478L21.8856 14.4207L18.9465 14.7158L17.5964 15.944L15.5773 15.2666L9.98341 19.9811L7.51504 20.281L3.18403 21.8485C3.18403 21.8485 1.1398 20.4925 0.512552 18.5426C-0.114697 16.5928 0.458788 12.5652 0.510162 10.7014C0.561537 8.8376 5.55205 6.0789 5.55205 6.0789L5.55085 6.0777ZM2.2808 16.9691C2.22942 18.1053 3.29395 18.6764 3.29395 18.6764L6.64167 17.1017L8.40274 16.5761L13.1806 13.0109L13.3682 12.8699L13.3885 12.8544L13.5605 12.8759L13.7529 12.8998L13.9452 12.9237L14.1376 12.9476L14.3299 12.9715L14.5223 12.9954L14.6023 13.0049L14.7123 12.9189L14.8998 12.7719L15.0874 12.625L15.275 12.478L15.4626 12.3311L15.6502 12.1841L15.8258 12.0467L15.8377 12.0431L16.0277 11.9894L16.2177 11.9356L16.4076 11.8818L16.5976 11.8281L16.7876 11.7743L16.9775 11.7206L17.1675 11.6668L17.3575 11.613L17.5474 11.5593L17.7374 11.5055L17.9035 11.4589L17.9274 11.4278L18.1125 11.1913L18.2977 10.9547L18.4829 10.7181L18.6681 10.4816L18.8533 10.245L19.0385 10.0085L19.2237 9.7719L19.4089 9.53534L19.5941 9.29878L19.7792 9.06221L19.9644 8.82565L20.1496 8.58909L20.3348 8.35253L20.52 8.11596L20.7052 7.8794L20.7458 7.82683L20.8928 7.73961L21.0815 7.6285L21.2703 7.51739L21.4591 7.40628L21.6478 7.29516L21.8366 7.18405L22.0254 7.07294L22.2142 6.96183C22.2142 6.96183 22.2882 6.90567 22.4017 6.8089C22.4567 6.7623 22.52 6.70734 22.5893 6.64402C22.6479 6.59026 22.7112 6.53171 22.7769 6.4672C22.8378 6.40746 22.9011 6.34414 22.9633 6.27603C23.0266 6.20913 23.0887 6.13864 23.1497 6.06695C23.2142 5.98929 23.2775 5.91044 23.3348 5.828C23.4029 5.73242 23.4663 5.63326 23.5188 5.53528C23.6168 5.35249 23.6837 5.1673 23.6945 4.98928C23.698 4.93313 23.6873 4.52332 23.4794 4.07051C23.4268 3.95462 23.3599 3.83634 23.2787 3.72045C23.2213 3.6392 23.1556 3.55796 23.0804 3.4803C23.0206 3.41817 22.9549 3.35843 22.8832 3.30108C22.8223 3.2521 22.7578 3.2067 22.6873 3.16249C22.6264 3.12426 22.5618 3.08722 22.4925 3.05258C22.4316 3.02271 22.3659 2.99403 22.299 2.96775C22.2369 2.94385 22.1723 2.92115 22.1054 2.90084C22.0433 2.88172 21.9788 2.865 21.9119 2.84947C21.8569 2.83632 21.7996 2.82557 21.7398 2.81601L21.7195 2.8184L21.5284 2.8411L21.3372 2.8638L21.146 2.8865L20.9549 2.9092L20.7637 2.9319L20.5726 2.95461L20.3814 2.97731L20.1902 3.00001L19.9991 3.02271L19.8079 3.04541L19.6168 3.06811L19.4256 3.09081L19.2344 3.11351L19.0433 3.13621L18.8521 3.15891L18.6609 3.18161L18.4698 3.20431L18.2786 3.22701L18.0875 3.24971L17.8963 3.27241L17.7051 3.29511L17.514 3.31781L17.3228 3.34051L17.1317 3.36321L16.9405 3.38591L16.8365 3.39786L16.7517 3.48149L16.5641 3.66549L16.3766 3.84948L16.189 4.03347L16.0014 4.21746L15.8138 4.40146L15.6263 4.58545L15.6143 4.5974L15.4375 4.67267L15.2475 4.75391L15.0576 4.83516L14.8676 4.9164L14.6776 4.99764L14.4876 5.07889L14.2977 5.16013L14.1077 5.24137L13.9178 5.32262L13.7278 5.40386L13.5378 5.4851L13.3478 5.56635L13.1579 5.64759L12.9679 5.72884L11.2224 6.47198L9.46727 7.24379L8.7325 8.45527C8.7325 8.45527 4.68107 10.8794 4.18763 12.0539C3.6942 13.2295 2.30947 15.8329 2.25929 16.9691H2.2808Z" fill="white"/>
</mask>
<g mask="url(#mask0_430_12812)">
<path d="M27.0779 5.29143C27.0146 5.08473 25.8473 2.06916 22.6239 0.855287L14.8317 0.312866L13.6895 1.92699L8.49586 3.76811L6.39786 4.62475L5.4994 6.10984C5.4994 6.10984 0.580582 8.90318 0.529207 10.767C0.479027 12.6308 -0.0956516 16.6572 0.531597 18.6082C1.15885 20.5581 3.20308 21.9141 3.20308 21.9141L7.53408 20.3466L10.0025 20.0467L15.5963 15.3322L17.6155 16.0096L18.9655 14.7814L21.9046 14.4863L24.1615 9.18037L25.9537 8.18872C25.9537 8.18872 27.5403 6.81116 27.0768 5.29023L27.0779 5.29143Z" fill="#783E16"/>
<mask id="mask1_430_12812" style="mask-type:luminance" maskUnits="userSpaceOnUse" x="0" y="0" width="28" height="22">
<path d="M27.0779 5.29143C27.0146 5.08473 25.8473 2.06916 22.6239 0.855287L14.8317 0.312866L13.6895 1.92699L8.49586 3.76811L6.39786 4.62475L5.4994 6.10984C5.4994 6.10984 0.580582 8.90318 0.529207 10.767C0.479027 12.6308 -0.0956516 16.6572 0.531597 18.6082C1.15885 20.5581 3.20308 21.9141 3.20308 21.9141L7.53408 20.3466L10.0025 20.0467L15.5963 15.3322L17.6155 16.0096L18.9655 14.7814L21.9046 14.4863L24.1615 9.18037L25.9537 8.18872C25.9537 8.18872 27.5403 6.81116 27.0768 5.29023L27.0779 5.29143Z" fill="white"/>
</mask>
<g mask="url(#mask1_430_12812)">
<path d="M25.8497 2.07275L28.0396 7.80282L29.6968 5.99634L25.8497 2.07275Z" fill="#783E16"/>
<path d="M25.6517 1.87098L25.4653 1.7981L27.8429 8.01801L28.04 7.80295L25.85 2.07289L25.6517 1.87098Z" fill="#783E16"/>
<path d="M25.4647 1.79783L25.1362 1.6676L27.6451 8.2328L27.8423 8.01775L25.4647 1.79783Z" fill="#783E16"/>
<path d="M25.1365 1.66783L24.808 1.5376L27.4484 8.44689L27.6455 8.23303L25.1365 1.66783Z" fill="#783E16"/>
<path d="M24.8078 1.53746L24.4793 1.40723L27.2511 8.6618L27.4482 8.44675L24.8078 1.53746Z" fill="#783E16"/>
<path d="M24.4796 1.40721L24.1511 1.27698L27.0543 8.87684L27.2515 8.66178L24.4796 1.40721Z" fill="#783E16"/>
<path d="M24.1509 1.27708L23.8212 1.14685L26.8571 9.092L27.0542 8.87694L24.1509 1.27708Z" fill="#783E16"/>
<path d="M23.8206 1.14683L23.492 1.0166L26.6593 9.30584L26.8564 9.09198L23.8206 1.14683Z" fill="#783E16"/>
<path d="M23.4924 1.01658L23.1638 0.886353L26.4625 9.52088L26.6597 9.30582L23.4924 1.01658Z" fill="#783E16"/>
<path d="M23.1642 0.886332L22.8356 0.756104L26.2658 9.73591L26.4629 9.52086L23.1642 0.886332Z" fill="#783E16"/>
<path d="M22.8355 0.756205L22.5057 0.625977L26.0697 9.95107L26.2656 9.73601L22.8355 0.756205Z" fill="#783E16"/>
<path d="M22.5059 0.625956L22.1773 0.495728L25.8727 10.1649L26.0698 9.95105L22.5059 0.625956Z" fill="#783E16"/>
<path d="M22.1772 0.495733L21.8486 0.366699L25.6754 10.38L25.8726 10.1649L22.1772 0.495733Z" fill="#783E16"/>
<path d="M21.8485 0.366679L21.5199 0.23645L25.4782 10.595L25.6753 10.38L21.8485 0.366679Z" fill="#783E16"/>
<path d="M21.5203 0.23643L21.1917 0.106201L25.2814 10.8089L25.4785 10.595L21.5203 0.23643Z" fill="#783E16"/>
<path d="M21.1916 0.106181L20.8618 -0.0240479L25.0841 11.0239L25.2812 10.8088L21.1916 0.106181Z" fill="#783E16"/>
<path d="M20.8617 -0.0239463L20.5331 -0.154175L24.8868 11.239L25.084 11.024L20.8617 -0.0239463Z" fill="#783E16"/>
<path d="M20.533 -0.154195L20.2045 -0.284424L24.6896 11.4541L24.8867 11.239L20.533 -0.154195Z" fill="#783E16"/>
<path d="M20.2048 -0.284566L19.8763 -0.414795L24.4928 11.6678L24.6899 11.4539L20.2048 -0.284566Z" fill="#783E16"/>
<path d="M19.8756 -0.414571L19.5471 -0.5448L24.2951 11.8831L24.4922 11.668L19.8756 -0.414571Z" fill="#783E16"/>
<path d="M19.5474 -0.545064L19.2177 -0.675293L24.0983 12.0979L24.2954 11.8828L19.5474 -0.545064Z" fill="#783E16"/>
<path d="M19.218 -0.675191L18.8895 -0.80542L23.9015 12.313L24.0986 12.098L19.218 -0.675191Z" fill="#783E16"/>
<path d="M18.8894 -0.80544L18.5608 -0.935669L23.7054 12.5269L23.9014 12.313L18.8894 -0.80544Z" fill="#783E16"/>
<path d="M18.5604 -0.935689L18.2319 -1.06592L23.5079 12.7419L23.7051 12.5269L18.5604 -0.935689Z" fill="#783E16"/>
<path d="M18.2322 -1.06582L17.9025 -1.19604L23.3112 12.9571L23.5083 12.742L18.2322 -1.06582Z" fill="#783E16"/>
<path d="M17.9024 -1.19616L17.5738 -1.3252L23.1139 13.1708L23.311 12.957L17.9024 -1.19616Z" fill="#783E16"/>
<path d="M17.5732 -1.32509L17.2446 -1.45532L22.9161 13.386L23.1133 13.1709L17.5732 -1.32509Z" fill="#783E16"/>
<path d="M17.245 -1.45534L16.9164 -1.58557L22.7194 13.601L22.9165 13.386L17.245 -1.45534Z" fill="#783E16"/>
<path d="M16.9168 -1.58559L16.5882 -1.71582L22.5226 13.816L22.7197 13.601L16.9168 -1.58559Z" fill="#783E16"/>
<path d="M16.5881 -1.71584L16.2583 -1.84607L22.3253 14.0299L22.5225 13.816L16.5881 -1.71584Z" fill="#783E16"/>
<path d="M16.2587 -1.84597L15.9301 -1.9762L22.1285 14.245L22.3257 14.03L16.2587 -1.84597Z" fill="#783E16"/>
<path d="M15.9295 -1.97622L15.601 -2.10645L21.9308 14.4601L22.1279 14.245L15.9295 -1.97622Z" fill="#783E16"/>
<path d="M15.6008 -2.10647L15.2723 -2.23669L21.7335 14.6751L21.9307 14.4601L15.6008 -2.10647Z" fill="#783E16"/>
<path d="M15.2726 -2.23671L14.9441 -2.36694L21.5368 14.889L21.7339 14.6751L15.2726 -2.23671Z" fill="#783E16"/>
<path d="M14.9444 -2.36709L14.6147 -2.49731L21.34 15.1039L21.5371 14.8888L14.9444 -2.36709Z" fill="#783E16"/>
<path d="M14.6141 -2.49721L14.2855 -2.62744L21.1434 15.319L21.3394 15.104L14.6141 -2.49721Z" fill="#783E16"/>
<path d="M14.2722 -2.63588L13.9424 -2.76611L20.9318 15.5245L21.1289 15.3094L14.2722 -2.63588Z" fill="#783E16"/>
<path d="M13.9574 -2.75771L13.6289 -2.88794L20.7496 15.7479L20.9468 15.5329L13.9574 -2.75771Z" fill="#783E16"/>
<path d="M13.6283 -2.88796L13.2985 -3.01819L20.5519 15.9629L20.749 15.7479L13.6283 -2.88796Z" fill="#783E16"/>
<path d="M13.2989 -3.01818L12.9703 -3.14722L20.3551 16.178L20.5522 15.963L13.2989 -3.01818Z" fill="#783E16"/>
<path d="M12.9707 -3.14724L12.6421 -3.27747L20.1583 16.3919L20.3555 16.178L12.9707 -3.14724Z" fill="#783E16"/>
<path d="M12.642 -3.27736L12.3134 -3.40759L19.9611 16.607L20.1582 16.392L12.642 -3.27736Z" fill="#783E16"/>
<path d="M12.3128 -3.40754L11.9938 -3.53418L11.9878 -3.52821L19.7633 16.8221L19.9604 16.6071L12.3128 -3.40754Z" fill="#783E16"/>
<path d="M11.791 -3.31326L19.5665 17.0359L19.7637 16.822L11.9882 -3.52832L11.791 -3.31326Z" fill="#783E16"/>
<path d="M11.5938 -3.09805L19.3693 17.2511L19.5664 17.036L11.7909 -3.31311L11.5938 -3.09805Z" fill="#783E16"/>
<path d="M11.397 -2.88428L19.1725 17.466L19.3696 17.251L11.5941 -3.09814L11.397 -2.88428Z" fill="#783E16"/>
<path d="M11.1997 -2.66922L18.9752 17.6811L19.1724 17.4661L11.3969 -2.88428L11.1997 -2.66922Z" fill="#783E16"/>
<path d="M11.003 -2.45425L18.7796 17.8949L18.9756 17.681L11.2001 -2.66931L11.003 -2.45425Z" fill="#783E16"/>
<path d="M10.8055 -2.23904L18.5822 18.1101L18.7793 17.895L11.0026 -2.4541L10.8055 -2.23904Z" fill="#783E16"/>
<path d="M10.6087 -2.02527L18.3854 18.3251L18.5825 18.11L10.8058 -2.23914L10.6087 -2.02527Z" fill="#783E16"/>
<path d="M10.4109 -1.81021L18.1876 18.5401L18.3848 18.3251L10.6081 -2.02527L10.4109 -1.81021Z" fill="#783E16"/>
<path d="M10.2149 -1.59525L17.9904 18.7539L18.1875 18.54L10.4108 -1.8103L10.2149 -1.59525Z" fill="#783E16"/>
<path d="M10.0181 -1.38004L17.7936 18.9691L17.9907 18.754L10.2152 -1.59509L10.0181 -1.38004Z" fill="#783E16"/>
<path d="M9.82132 -1.16627L17.5968 19.1841L17.7939 18.969L10.0185 -1.38013L9.82132 -1.16627Z" fill="#783E16"/>
<path d="M9.62405 -0.951203L17.3995 19.3979L17.5967 19.1841L9.82119 -1.16626L9.62405 -0.951203Z" fill="#783E16"/>
<path d="M9.4263 -0.736237L17.2018 19.6129L17.3989 19.3978L9.62343 -0.951294L9.4263 -0.736237Z" fill="#783E16"/>
<path d="M9.22952 -0.522222L17.005 19.8281L17.2021 19.6131L9.42666 -0.736084L9.22952 -0.522222Z" fill="#783E16"/>
<path d="M9.03226 -0.30716L16.8077 20.0432L17.0049 19.8281L9.22939 -0.522217L9.03226 -0.30716Z" fill="#783E16"/>
<path d="M2.23204 21.6512L11.8427 25.4541L16.8081 20.0431L9.03261 -0.307251L-4.6641 14.6189L2.23204 21.6512Z" fill="#783E16"/>
</g>
<mask id="mask2_430_12812" style="mask-type:luminance" maskUnits="userSpaceOnUse" x="0" y="0" width="27" height="22">
<path d="M26.3802 5.50169C26.3216 5.30933 25.2332 2.49329 22.1842 1.37738L15.1482 0.778809L14.0132 2.33797L8.78255 4.21016L6.79925 5.03454L5.91035 6.40493C5.91035 6.40493 1.22689 9.05013 1.16715 10.7957C1.10742 12.54 0.537516 16.3131 1.12056 18.1351C1.7036 19.9559 3.63433 21.2128 3.63433 21.2128L7.75147 19.7181L9.70729 19.4828L15.429 14.9737L17.3406 15.595L18.6286 14.4373L21.4183 14.1422L23.5928 9.16243L25.2989 8.22216C25.2989 8.22216 26.8127 6.92226 26.3825 5.50289L26.3802 5.50169Z" fill="white"/>
</mask>
<g mask="url(#mask2_430_12812)">
<path d="M25.2357 2.49573L27.2751 7.84586L28.8594 6.14452L25.2357 2.49573Z" fill="#C6C6C6"/>
<path d="M25.0491 2.30797L24.8722 2.23987L27.0873 8.04759L27.2749 7.84568L25.2354 2.49555L25.0491 2.30797Z" fill="#C6C6C6"/>
<path d="M24.8723 2.23996L24.5617 2.12048L26.8986 8.2496L27.0874 8.04768L24.8723 2.23996Z" fill="#C7C7C7"/>
<path d="M24.5615 2.12057L24.2497 2.0011L26.7109 8.4528L26.8984 8.24969L24.5615 2.12057Z" fill="#C8C8C8"/>
<path d="M24.2497 2.00095L23.9391 1.88147L26.5222 8.65456L26.7109 8.45264L24.2497 2.00095Z" fill="#C9C9C9"/>
<path d="M23.9389 1.88144L23.6283 1.76196L26.3344 8.85644L26.522 8.65453L23.9389 1.88144Z" fill="#CACACA"/>
<path d="M23.6288 1.76203L23.317 1.64136L26.1462 9.05842L26.335 8.85651L23.6288 1.76203Z" fill="#CBCBCB"/>
<path d="M23.3168 1.64133L23.0062 1.52185L25.9584 9.2615L26.146 9.05839" fill="#CCCCCC"/>
<path d="M23.0062 1.52194L22.6956 1.40247L25.7697 9.46351L25.9585 9.26159L23.0062 1.52194Z" fill="#CDCDCD"/>
<path d="M22.6959 1.40243L22.3841 1.28296L25.5824 9.66539L25.77 9.46347L22.6959 1.40243Z" fill="#CECECE"/>
<path d="M22.3841 1.2829L22.0735 1.16223L25.3937 9.86844L25.5825 9.66533L22.3841 1.2829Z" fill="#CFCFCF"/>
<path d="M22.0733 1.16232L21.7627 1.04285L25.2048 10.0704L25.3936 9.86853L22.0733 1.16232Z" fill="#D0D0D0"/>
<path d="M21.7625 1.04269L21.4507 0.923218L25.017 10.2722L25.2046 10.0703L21.7625 1.04269Z" fill="#D1D1D1"/>
<path d="M21.4507 0.923309L21.1401 0.803833L24.8283 10.4742L25.0171 10.2723L21.4507 0.923309Z" fill="#D2D2D2"/>
<path d="M21.1399 0.803802L20.8293 0.684326L24.6405 10.6773L24.8281 10.4742L21.1399 0.803802Z" fill="#D3D3D3"/>
<path d="M20.8293 0.684392L20.5175 0.563721L24.4519 10.8793L24.6406 10.6774L20.8293 0.684392Z" fill="#D4D4D4"/>
<path d="M20.5173 0.56369L20.2067 0.444214L24.2641 11.0812L24.4517 10.8792L20.5173 0.56369Z" fill="#D5D5D5"/>
<path d="M20.2072 0.444183L19.8966 0.324707L24.0759 11.283L24.2646 11.0811L20.2072 0.444183Z" fill="#D6D6D6"/>
<path d="M19.8964 0.324798L19.5846 0.205322L23.8881 11.4862L24.0757 11.2831L19.8964 0.324798Z" fill="#D7D7D7"/>
<path d="M19.5847 0.205413L19.274 0.0859375L23.6994 11.6882L23.8882 11.4863L19.5847 0.205413Z" fill="#D8D8D8"/>
<path d="M19.2738 0.0858804L18.9632 -0.03479L23.5116 11.8901L23.6992 11.6882L19.2738 0.0858804Z" fill="#D9D9D9"/>
<path d="M18.9633 -0.034943L18.6514 -0.154419L23.3229 12.0919L23.5117 11.8899L18.9633 -0.034943Z" fill="#DADADA"/>
<path d="M18.6512 -0.154328L18.3406 -0.273804L23.134 12.2951L23.3228 12.092L18.6512 -0.154328Z" fill="#DBDBDB"/>
<path d="M18.3404 -0.273835L18.0298 -0.393311L22.9462 12.4969L23.1338 12.295L18.3404 -0.273835Z" fill="#DCDCDC"/>
<path d="M18.0299 -0.393367L17.718 -0.514038L22.7575 12.6988L22.9463 12.4969L18.0299 -0.393367Z" fill="#DDDDDD"/>
<path d="M17.7183 -0.513947L17.4077 -0.633423L22.5702 12.902L22.7578 12.6989L17.7183 -0.513947Z" fill="#DEDEDE"/>
<path d="M17.4078 -0.633454L17.0971 -0.75293L22.3815 13.1039L22.5703 12.902L17.4078 -0.633454Z" fill="#DFDFDF"/>
<path d="M17.0969 -0.752839L16.7851 -0.872314L22.1938 13.3059L22.3813 13.104L17.0969 -0.752839Z" fill="#E0E0E0"/>
<path d="M16.7852 -0.872467L16.4745 -0.991943L22.0051 13.5077L22.1938 13.3057L16.7852 -0.872467Z" fill="#E1E1E1"/>
<path d="M16.4748 -0.992L16.1642 -1.11267L21.8178 13.7107L22.0054 13.5076L16.4748 -0.992Z" fill="#E3E3E3"/>
<path d="M16.1638 -1.11258L15.852 -1.23206L21.6286 13.9127L21.8174 13.7108L16.1638 -1.11258Z" fill="#E4E4E4"/>
<path d="M15.8522 -1.23209L15.5416 -1.35156L21.4401 14.1146L21.6289 13.9127L15.8522 -1.23209Z" fill="#E5E5E5"/>
<path d="M15.5414 -1.35147L15.2308 -1.47095L21.2524 14.3166L21.4399 14.1147L15.5414 -1.35147Z" fill="#E6E6E6"/>
<path d="M15.2309 -1.471L14.919 -1.59167L21.0637 14.5197L21.2524 14.3165L15.2309 -1.471Z" fill="#E7E7E7"/>
<path d="M14.9188 -1.59158L14.6082 -1.71106L20.8759 14.7217L21.0635 14.5197L14.9188 -1.59158Z" fill="#E8E8E8"/>
<path d="M14.6083 -1.71109L14.2976 -1.83057L20.6872 14.9235L20.876 14.7216L14.6083 -1.71109Z" fill="#E9E9E9"/>
<path d="M14.2979 -1.83072L13.9861 -1.9502L20.4999 15.1265L20.6875 14.9234L14.2979 -1.83072Z" fill="#EAEAEA"/>
<path d="M13.9862 -1.9501L13.6755 -2.06958L20.3112 15.3285L20.5 15.1266L13.9862 -1.9501Z" fill="#EBEBEB"/>
<path d="M13.6753 -2.06964L13.3635 -2.19031L20.1235 15.5304L20.311 15.3284L13.6753 -2.06964Z" fill="#ECECEC"/>
<path d="M13.3636 -2.19022L13.0529 -2.30969L19.9348 15.7324L20.1235 15.5305L13.3636 -2.19022Z" fill="#EDEDED"/>
<path d="M13.0528 -2.30972L12.7421 -2.4292L19.747 15.9354L19.9346 15.7323L13.0528 -2.30972Z" fill="#EEEEEE"/>
<path d="M12.7422 -2.42911L12.4304 -2.54858L19.5583 16.1374L19.7471 15.9355L12.7422 -2.42911Z" fill="#EFEFEF"/>
<path d="M12.4302 -2.54856L12.1291 -2.66565L12.1231 -2.65968L19.3693 16.3394L19.5581 16.1375L12.4302 -2.54856Z" fill="#F0F0F0"/>
<path d="M11.9354 -2.45668L19.1816 16.5412L19.3691 16.3393L12.1229 -2.65979L11.9354 -2.45668Z" fill="#F1F1F1"/>
<path d="M11.7471 -2.25463L18.9934 16.7444L19.1821 16.5413L11.9359 -2.45654L11.7471 -2.25463Z" fill="#F2F2F2"/>
<path d="M11.5594 -2.05285L18.8056 16.9462L18.9932 16.7443L11.747 -2.25476L11.5594 -2.05285Z" fill="#F3F3F3"/>
<path d="M11.3707 -1.85094L18.6169 17.1481L18.8057 16.9462L11.5594 -2.05286L11.3707 -1.85094Z" fill="#F4F4F4"/>
<path d="M11.1822 -1.64784L18.4296 17.35L18.6172 17.1481L11.371 -1.85095L11.1822 -1.64784Z" fill="#F5F5F5"/>
<path d="M10.9937 -1.44579L18.2399 17.5533L18.4287 17.3502L11.1813 -1.64771L10.9937 -1.44579Z" fill="#F6F6F6"/>
<path d="M10.8057 -1.24401L18.0531 17.7551L18.2407 17.5531L10.9945 -1.44592L10.8057 -1.24401Z" fill="#F7F7F7"/>
<path d="M10.6173 -1.04091L17.8635 17.957L18.0522 17.755L10.8048 -1.24402L10.6173 -1.04091Z" fill="#F8F8F8"/>
<path d="M10.4293 -0.838857L17.6755 18.1602L17.8643 17.9571L10.618 -1.04077L10.4293 -0.838857Z" fill="#F9F9F9"/>
<path d="M10.2415 -0.636953L17.4877 18.3621L17.6753 18.1602L10.4291 -0.838867L10.2415 -0.636953Z" fill="#FAFAFA"/>
<path d="M10.0528 -0.435171L17.299 18.5639L17.4878 18.362L10.2416 -0.637085L10.0528 -0.435171Z" fill="#FBFBFB"/>
<path d="M9.86504 -0.232072L17.1113 18.7658L17.2988 18.5639L10.0526 -0.435181L9.86504 -0.232072Z" fill="#FCFCFC"/>
<path d="M9.67683 -0.0300192L16.923 18.969L17.1118 18.7659L9.8656 -0.231934L9.67683 -0.0300192Z" fill="#FDFDFD"/>
<path d="M9.48787 0.171885L16.7353 19.1709L16.9229 18.969L9.67664 -0.0300293L9.48787 0.171885Z" fill="#FEFEFE"/>
<path d="M9.30037 0.373789L16.5466 19.3728L16.7354 19.1709L9.48794 0.171875L9.30037 0.373789Z" fill="white"/>
<path d="M2.71108 20.9701L11.802 24.4696L16.5464 19.3727L9.30017 0.373657L-3.78483 14.4324L2.71108 20.9701Z" fill="white"/>
</g>
<path d="M2.22205 17.0252C2.27343 15.889 3.65696 13.2856 4.15039 12.1099C4.64383 10.9343 8.69525 8.51133 8.69525 8.51133L9.43003 7.29985L11.1851 6.52803L12.9307 5.78489L13.1206 5.70365L13.3106 5.62241L13.5006 5.54116L13.6905 5.45992L13.8805 5.37867L14.0705 5.29743L14.2604 5.21619L14.4504 5.13494L14.6404 5.0537L14.8303 4.97246L15.0203 4.89121L15.2103 4.80997L15.4002 4.72873L15.5771 4.65346L15.589 4.64151L15.7766 4.45752L15.9642 4.27352L16.1517 4.08953L16.3393 3.90554L16.5269 3.72154L16.7145 3.53755L16.7993 3.45392L16.9032 3.44197L17.0944 3.41927L17.2856 3.39657L17.4767 3.37387L17.6679 3.35117L17.8591 3.32847L18.0502 3.30577L18.2414 3.28307L18.4325 3.26037L18.6237 3.23767L18.8149 3.21497L19.006 3.19227L19.1972 3.16957L19.3883 3.14686L19.5795 3.12416L19.7707 3.10146L19.9618 3.07876L20.153 3.05606L20.3442 3.03336L20.5353 3.01066L20.7265 2.98796L20.9176 2.96526L21.1088 2.94256L21.3 2.91986L21.4911 2.89716L21.6823 2.87446L21.7026 2.87207C21.7611 2.88163 21.8185 2.89358 21.8746 2.90552C21.9415 2.92106 22.0061 2.93778 22.0682 2.9569C22.1351 2.97721 22.1996 2.99991 22.2617 3.0238C22.3298 3.05009 22.3944 3.07757 22.4553 3.10863C22.5246 3.14328 22.5891 3.17912 22.65 3.21855C22.7193 3.26276 22.785 3.30816 22.846 3.35714C22.9177 3.41449 22.9834 3.47423 23.0431 3.53636C23.1172 3.61402 23.1841 3.69406 23.2414 3.7765C23.3227 3.89239 23.3896 4.01068 23.4422 4.12657C23.6501 4.57938 23.6608 4.98918 23.6572 5.04534C23.6453 5.22336 23.5796 5.40854 23.4816 5.59134C23.4278 5.69051 23.3657 5.78848 23.2976 5.88406C23.2391 5.9653 23.1769 6.04535 23.1124 6.12301C23.0515 6.19589 22.9894 6.26519 22.926 6.33209C22.8627 6.399 22.8006 6.46232 22.7396 6.52325C22.6739 6.58658 22.6118 6.64631 22.5521 6.70008C22.4828 6.7634 22.4195 6.81836 22.3645 6.86496C22.251 6.96173 22.1769 7.01669 22.1769 7.01669L21.9881 7.1278L21.7994 7.23891L21.6106 7.35003L21.4218 7.46114L21.2331 7.57225L21.0443 7.68336L20.8555 7.79448L20.7086 7.8817L20.6679 7.93426L20.4827 8.17083L20.2976 8.40739L20.1124 8.64395L19.9272 8.88051L19.742 9.11708L19.5568 9.35364L19.3716 9.5902L19.1864 9.82676L19.0012 10.0633L18.8161 10.2999L18.6309 10.5364L18.4457 10.773L18.2605 11.0096L18.0753 11.2461L17.8901 11.4827L17.8662 11.5138L17.7002 11.5604L17.5102 11.6141L17.3202 11.6679L17.1303 11.7217L16.9403 11.7754L16.7503 11.8292L16.5604 11.8829L16.3704 11.9367L16.1804 11.9905L15.9905 12.0442L15.8005 12.098L15.7885 12.1016L15.6129 12.239L15.4253 12.3859L15.2378 12.5329L15.0502 12.6798L14.8626 12.8268L14.675 12.9738L14.5651 13.0598L14.4851 13.0502L14.2927 13.0263L14.1003 13.0024L13.908 12.9785L13.7156 12.9546L13.5233 12.9307L13.3512 12.9092L13.3309 12.9248L13.1433 13.0658L8.3655 16.6309L6.60443 17.1566L3.25671 18.7313C3.25671 18.7313 2.19218 18.1602 2.24356 17.024L2.22205 17.0252Z" fill="url(#paint2_linear_430_12812)"/>
<path d="M2.22205 17.0252C2.27343 15.889 3.65696 13.2856 4.15039 12.1099C4.64383 10.9343 8.69525 8.51133 8.69525 8.51133L9.43003 7.29985L11.1851 6.52803L12.9307 5.78489L13.1206 5.70365L13.3106 5.62241L13.5006 5.54116L13.6905 5.45992L13.8805 5.37867L14.0705 5.29743L14.2604 5.21619L14.4504 5.13494L14.6404 5.0537L14.8303 4.97246L15.0203 4.89121L15.2103 4.80997L15.4002 4.72873L15.5771 4.65346L15.589 4.64151L15.7766 4.45752L15.9642 4.27352L16.1517 4.08953L16.3393 3.90554L16.5269 3.72154L16.7145 3.53755L16.7993 3.45392L16.9032 3.44197L17.0944 3.41927L17.2856 3.39657L17.4767 3.37387L17.6679 3.35117L17.8591 3.32847L18.0502 3.30577L18.2414 3.28307L18.4325 3.26037L18.6237 3.23767L18.8149 3.21497L19.006 3.19227L19.1972 3.16957L19.3883 3.14686L19.5795 3.12416L19.7707 3.10146L19.9618 3.07876L20.153 3.05606L20.3442 3.03336L20.5353 3.01066L20.7265 2.98796L20.9176 2.96526L21.1088 2.94256L21.3 2.91986L21.4911 2.89716L21.6823 2.87446L21.7026 2.87207C21.7611 2.88163 21.8185 2.89358 21.8746 2.90552C21.9415 2.92106 22.0061 2.93778 22.0682 2.9569C22.1351 2.97721 22.1996 2.99991 22.2617 3.0238C22.3298 3.05009 22.3944 3.07757 22.4553 3.10863C22.5246 3.14328 22.5891 3.17912 22.65 3.21855C22.7193 3.26276 22.785 3.30816 22.846 3.35714C22.9177 3.41449 22.9834 3.47423 23.0431 3.53636C23.1172 3.61402 23.1841 3.69406 23.2414 3.7765C23.3227 3.89239 23.3896 4.01068 23.4422 4.12657C23.6501 4.57938 23.6608 4.98918 23.6572 5.04534C23.6453 5.22336 23.5796 5.40854 23.4816 5.59134C23.4278 5.69051 23.3657 5.78848 23.2976 5.88406C23.2391 5.9653 23.1769 6.04535 23.1124 6.12301C23.0515 6.19589 22.9894 6.26519 22.926 6.33209C22.8627 6.399 22.8006 6.46232 22.7396 6.52325C22.6739 6.58658 22.6118 6.64631 22.5521 6.70008C22.4828 6.7634 22.4195 6.81836 22.3645 6.86496C22.251 6.96173 22.1769 7.01669 22.1769 7.01669L21.9881 7.1278L21.7994 7.23891L21.6106 7.35003L21.4218 7.46114L21.2331 7.57225L21.0443 7.68336L20.8555 7.79448L20.7086 7.8817L20.6679 7.93426L20.4827 8.17083L20.2976 8.40739L20.1124 8.64395L19.9272 8.88051L19.742 9.11708L19.5568 9.35364L19.3716 9.5902L19.1864 9.82676L19.0012 10.0633L18.8161 10.2999L18.6309 10.5364L18.4457 10.773L18.2605 11.0096L18.0753 11.2461L17.8901 11.4827L17.8662 11.5138L17.7002 11.5604L17.5102 11.6141L17.3202 11.6679L17.1303 11.7217L16.9403 11.7754L16.7503 11.8292L16.5604 11.8829L16.3704 11.9367L16.1804 11.9905L15.9905 12.0442L15.8005 12.098L15.7885 12.1016L15.6129 12.239L15.4253 12.3859L15.2378 12.5329L15.0502 12.6798L14.8626 12.8268L14.675 12.9738L14.5651 13.0598L14.4851 13.0502L14.2927 13.0263L14.1003 13.0024L13.908 12.9785L13.7156 12.9546L13.5233 12.9307L13.3512 12.9092L13.3309 12.9248L13.1433 13.0658L8.3655 16.6309L6.60443 17.1566L3.25671 18.7313C3.25671 18.7313 2.19218 18.1602 2.24356 17.024L2.22205 17.0252Z" stroke="url(#paint3_linear_430_12812)" stroke-width="0.35" stroke-miterlimit="10"/>
<path style="mix-blend-mode:overlay" opacity="0.21" d="M20.4664 7.68933C20.5417 7.73115 27.2861 10.675 27.2861 10.675C27.2861 10.675 22.1726 14.5891 22.0925 14.5676C22.0113 14.5461 17.1653 10.9331 17.1653 10.9331L20.4664 7.68933Z" fill="url(#paint4_linear_430_12812)"/>
<path style="mix-blend-mode:multiply" opacity="0.24" d="M22.0913 14.5665C22.0567 14.5354 17.1641 10.932 17.1641 10.932L15.3099 11.7205L19.4377 15.1077L22.0901 14.5653L22.0913 14.5665Z" fill="url(#paint5_linear_430_12812)"/>
<path style="mix-blend-mode:overlay" opacity="0.21" d="M19.2285 14.9235L14.8079 11.295L14.5427 12.8889L18.1508 16.3644C18.1508 16.3644 19.1831 14.9331 19.2285 14.9247V14.9235Z" fill="url(#paint6_linear_430_12812)"/>
<path style="mix-blend-mode:multiply" opacity="0.24" d="M18.1509 16.3633L13.5021 12.0574L13.1209 12.7121L16.1234 15.7014L18.1509 16.3633Z" fill="url(#paint7_linear_430_12812)"/>
<path style="mix-blend-mode:overlay" opacity="0.21" d="M16.1245 15.7767L12.4088 11.981L8.2176 16.4876L10.643 21.3861L16.1245 15.7767Z" fill="url(#paint8_linear_430_12812)"/>
<path style="mix-blend-mode:multiply" opacity="0.24" d="M10.6431 21.386L7.90707 15.3453L6.2368 16.6166L8.54268 21.4816L10.6431 21.386Z" fill="url(#paint9_linear_430_12812)"/>
<path style="mix-blend-mode:overlay" opacity="0.21" d="M8.07324 20.4911L5.95254 15.9451L3.25478 18.5078L3.89995 22.993L8.07324 20.4911Z" fill="url(#paint10_linear_430_12812)"/>
<path style="mix-blend-mode:multiply" opacity="0.24" d="M3.63468 21.3227L3.06358 17.3657C3.06358 17.3657 4.56898 11.7921 4.53911 11.7838C4.50924 11.7754 -0.932883 9.81958 -0.932883 9.81958L-0.876729 19.6059L3.63468 21.3239V21.3227Z" fill="url(#paint11_linear_430_12812)"/>
<path style="mix-blend-mode:overlay" opacity="0.21" d="M4.64945 11.8136L-1.11406 9.72756L5.46547 5.99036L9.04736 8.75622L4.64945 11.8136Z" fill="url(#paint12_linear_430_12812)"/>
<path style="mix-blend-mode:multiply" opacity="0.24" d="M5.38788 5.95812L9.80371 9.40141L9.59463 7.40019L5.31381 3.77649L5.38788 5.95812Z" fill="url(#paint13_linear_430_12812)"/>
<path style="mix-blend-mode:overlay" opacity="0.21" d="M9.67407 7.38941L4.9022 3.41803L13.6454 1.8075L15.79 5.09547L9.67407 7.38941Z" fill="url(#paint14_linear_430_12812)"/>
<path style="mix-blend-mode:multiply" opacity="0.24" d="M13.6447 1.80753L14.849 0.324829L17.1489 4.05487L15.7893 5.0955L13.6447 1.80753Z" fill="url(#paint15_linear_430_12812)"/>
<path style="mix-blend-mode:overlay" opacity="0.21" d="M16.8349 3.50893L14.5302 -0.178101L22.6987 0.744254L21.5972 3.07881L16.8349 3.50893Z" fill="url(#paint16_linear_430_12812)"/>
<path style="mix-blend-mode:overlay" opacity="0.67" d="M20.4664 7.68933C20.5417 7.73115 27.2861 10.675 27.2861 10.675C27.2861 10.675 22.1726 14.5891 22.0925 14.5676C22.0113 14.5461 17.1653 10.9331 17.1653 10.9331L20.4664 7.68933Z" fill="url(#paint17_linear_430_12812)"/>
<path style="mix-blend-mode:overlay" opacity="0.67" d="M19.2285 14.9235L14.8079 11.295L14.5427 12.8889L18.1508 16.3644C18.1508 16.3644 19.1831 14.9331 19.2285 14.9247V14.9235Z" fill="url(#paint18_linear_430_12812)"/>
<path style="mix-blend-mode:overlay" opacity="0.67" d="M16.1245 15.7767L12.4088 11.981L8.2176 16.4876L10.643 21.3861L16.1245 15.7767Z" fill="url(#paint19_linear_430_12812)"/>
<path style="mix-blend-mode:overlay" opacity="0.67" d="M8.07324 20.4911L5.95254 15.9451L3.25478 18.5078L3.89995 22.993L8.07324 20.4911Z" fill="url(#paint20_linear_430_12812)"/>
<path style="mix-blend-mode:overlay" opacity="0.67" d="M4.64945 11.8136L-1.11406 9.72756L5.46547 5.99036L9.04736 8.75622L4.64945 11.8136Z" fill="url(#paint21_linear_430_12812)"/>
<path style="mix-blend-mode:overlay" opacity="0.67" d="M9.67407 7.38941L4.9022 3.41803L13.6454 1.8075L15.79 5.09547L9.67407 7.38941Z" fill="url(#paint22_linear_430_12812)"/>
<path style="mix-blend-mode:overlay" opacity="0.67" d="M16.8349 3.50893L14.5302 -0.178101L22.6987 0.744254L21.5972 3.07881L16.8349 3.50893Z" fill="url(#paint23_linear_430_12812)"/>
</g>
<path d="M8.78119 8.46128L9.51597 7.2498L11.2711 6.47798L13.0166 5.73484L13.2066 5.6536L13.3965 5.57236L13.5865 5.49111L13.7765 5.40987L13.9664 5.32863L14.1564 5.24738L14.3464 5.16614L14.5363 5.08489L14.7263 5.00365L14.9163 4.92241L15.1062 4.84116L15.2962 4.75992L15.4862 4.67868L15.663 4.60341L15.675 4.59146L15.8625 4.40747L16.0501 4.22347L16.2377 4.03948L16.4253 3.85549L16.6128 3.6715L16.8004 3.4875L16.8852 3.40387L16.9892 3.39192L17.1803 3.36922L17.3715 3.34652L17.5627 3.32382L17.7538 3.30112L17.945 3.27842L18.1362 3.25572L18.3273 3.23302L18.5185 3.21032L18.7096 3.18762L18.9008 3.16492L19.092 3.14222L19.2831 3.11952L19.4743 3.09682L19.6654 3.07412L19.8566 3.05141L20.0478 3.02871L20.2389 3.00601L20.4301 2.98331L20.6213 2.96061L20.8124 2.93791L21.0036 2.91521L21.1947 2.89251L21.3859 2.86981L21.5771 2.84711L21.7682 2.82441L21.7885 2.82202C21.8471 2.83158 21.9044 2.84353 21.9606 2.85547C22.0275 2.87101 22.092 2.88773 22.1541 2.90685C22.221 2.92716 22.2856 2.94986 22.3477 2.97376C22.4158 3.00004 22.4803 3.02752 22.5412 3.05858C22.6105 3.09323 22.675 3.12907 22.736 3.1685C22.8053 3.21271 22.871 3.25811 22.9319 3.30709C23.0036 3.36444 23.0693 3.42418 23.1291 3.48631C23.2031 3.56397 23.27 3.64402 23.3274 3.72645C23.4086 3.84235 23.4755 3.96063 23.5281 4.07652C23.736 4.52933 23.7467 4.93913 23.7432 4.99529C23.7312 5.17331 23.6655 5.35849 23.5675 5.54129C23.5138 5.64046 23.4516 5.73843 23.3835 5.83401C23.325 5.91525 23.2629 5.9953 23.1984 6.07296C23.1374 6.14584 23.0753 6.21514 23.012 6.28204C22.9486 6.34895 22.8865 6.41347 22.8256 6.47321C22.7599 6.53653 22.6977 6.59626 22.638 6.65003C22.5687 6.71335 22.5054 6.76831 22.4504 6.81491C22.3369 6.91168 22.2629 6.96664 22.2629 6.96664L22.0741 7.07775L21.8853 7.18887L21.6965 7.29998L21.5078 7.41109L21.319 7.5222L21.1302 7.63332L20.9415 7.74443L20.7945 7.83165L20.7539 7.88422L20.5687 8.12078L20.3835 8.35734L20.1983 8.5939L20.0131 8.83046L19.8279 9.06703L19.6427 9.30359L19.4576 9.54015L19.2724 9.77671L19.0872 10.0133L18.902 10.2498L18.7168 10.4864L18.5316 10.723L18.3464 10.9595L18.1612 11.1961L17.9761 11.4326L17.9522 11.4637L17.7861 11.5103L17.5961 11.5641L17.4062 11.6178L17.2162 11.6716L17.0262 11.7254L16.8363 11.7791L16.6463 11.8329L16.4563 11.8867L16.2664 11.9404L16.0764 11.9942L15.8864 12.048L15.8745 12.0515L15.6988 12.1889L15.5113 12.3359L15.3237 12.4828L15.1361 12.6298L14.9485 12.7768L14.761 12.9237L14.651 13.0097L14.571 13.0002L14.3786 12.9763L14.1863 12.9524L13.9939 12.9285L13.8016 12.9046L13.6092 12.8807L13.4372 12.8592L13.4169 12.8747L13.2293 13.0157L8.45144 16.5809L6.69036 17.1066L3.34265 18.6813C3.34265 18.6813 2.27812 18.1102 2.32949 16.9739C2.38087 15.8377 3.7644 13.2343 4.25784 12.0587C4.75127 10.8831 8.8027 8.45889 8.8027 8.45889L8.78119 8.46128Z" fill="url(#paint24_linear_430_12812)"/>
<path d="M8.78699 8.4648L9.52177 7.25331L11.2757 6.4803L13.02 5.73716L13.21 5.65592L13.4 5.57468L13.5899 5.49343L13.7799 5.41219L13.9699 5.33094L14.1598 5.2497L14.3498 5.16846L14.5398 5.08721L14.7297 5.00597L14.9197 4.92473L15.1097 4.84348L15.2996 4.76224L15.4896 4.681L15.6664 4.60573L15.6784 4.59378L15.8647 4.40979L16.0511 4.22579L16.2375 4.0418L16.4239 3.85781L16.6103 3.67381L16.7967 3.48982L16.8815 3.40619L16.9854 3.39424L17.1766 3.37154L17.3677 3.34884L17.5589 3.32614L17.7501 3.30344L17.9412 3.28074L18.1324 3.25804L18.3236 3.23534L18.5147 3.21264L18.7059 3.18994L18.897 3.16724L19.0882 3.14454L19.2794 3.12184L19.4705 3.09914L19.6617 3.07644L19.8528 3.05373L20.044 3.03103L20.2352 3.00833L20.4263 2.98563L20.6175 2.96293L20.8087 2.94023L20.9998 2.91753L21.191 2.89483L21.3821 2.87213L21.5733 2.84943L21.7645 2.82673L21.7848 2.82434C21.8433 2.8339 21.9007 2.84585 21.9568 2.85779C22.0237 2.87333 22.0882 2.89005 22.1504 2.90917C22.2173 2.92948 22.2818 2.95218 22.3439 2.97608C22.412 3.00236 22.4765 3.02984 22.5375 3.0609C22.6068 3.09555 22.6713 3.13139 22.7322 3.17082C22.8015 3.21503 22.8672 3.26043 22.9282 3.30941C22.9998 3.36676 23.0656 3.4265 23.1241 3.48863C23.1982 3.56629 23.2651 3.64634 23.3224 3.72877C23.4037 3.84467 23.4706 3.96295 23.5231 4.07884C23.731 4.53165 23.7418 4.94145 23.737 4.99761C23.7251 5.17563 23.6593 5.36081 23.5614 5.54361C23.5076 5.64278 23.4455 5.74075 23.3774 5.83633C23.3188 5.91757 23.2567 5.99762 23.1922 6.07528C23.1313 6.14816 23.0691 6.21746 23.0058 6.28436C22.9425 6.35127 22.8804 6.41579 22.8194 6.47552C22.7537 6.53885 22.6916 6.59858 22.6319 6.65235C22.5626 6.71567 22.4992 6.77063 22.4443 6.81723C22.3308 6.914 22.2567 6.96896 22.2567 6.96896L22.0679 7.08127L21.8792 7.19238L21.6904 7.30349L21.5016 7.41461L21.3128 7.52572L21.1241 7.63683L20.9353 7.74794L20.7883 7.83516L20.7477 7.88773L20.5625 8.12429L20.3773 8.36085L20.1922 8.59742L20.007 8.83398L19.8218 9.07054L19.6366 9.3071L19.4514 9.54367L19.2662 9.78023L19.081 10.0168L18.8958 10.2534L18.7107 10.4899L18.5255 10.7265L18.3403 10.963L18.1551 11.1996L17.9699 11.4362L17.946 11.4672L17.7799 11.5138L17.59 11.5676L17.4 11.6214L17.21 11.6751L17.0201 11.7289L16.8301 11.7826L16.6401 11.8364L16.4502 11.8902L16.2602 11.9439L16.0702 11.9977L15.8803 12.0515L15.8683 12.055L15.6927 12.1924L15.5051 12.3394L15.3175 12.4864L15.13 12.6333L14.9424 12.7803L14.7548 12.9272L14.6449 13.0132L14.5648 13.0037L14.3725 12.9798L14.1801 12.9559L13.9878 12.932L13.7954 12.9081L13.6031 12.8842L13.431 12.8627L13.4107 12.8782L13.2231 13.0192L8.44648 16.5856L6.68541 17.1113L3.33889 18.6872C3.33889 18.6872 2.27555 18.1161 2.32693 16.9798C2.3783 15.8424 3.76183 13.2391 4.25527 12.0634C4.7487 10.8878 8.79894 8.46241 8.79894 8.46241L8.78699 8.4648Z" stroke="url(#paint25_linear_430_12812)" stroke-width="0.35" stroke-miterlimit="10"/>
<g opacity="0.59">
<path d="M25.9635 22.6383C25.4283 21.5809 25.0997 20.3909 25.2311 19.2165C25.3912 17.7851 26.2037 16.5211 26.7449 15.1842C27.7927 12.6011 27.8154 9.62494 26.807 7.02515" stroke="#72391E" stroke-width="0.68" stroke-miterlimit="10"/>
<path d="M24.747 25.1044C25.1329 24.4915 24.8306 23.7041 24.6394 23.0064C24.2643 21.6408 24.3622 20.1903 24.6012 18.7948C24.8401 17.3994 25.2165 16.029 25.3945 14.6251C25.5212 13.6287 25.5474 12.6144 25.7983 11.6406" stroke="#72391E" stroke-width="0.68" stroke-miterlimit="10"/>
<path d="M23.7387 26.2274C23.4448 25.5273 23.5117 24.9693 23.5165 24.2119C23.5344 21.299 24.4245 18.4531 24.5643 15.5439C24.6456 13.8653 24.4747 12.1735 24.0589 10.5438" stroke="#72391E" stroke-width="0.68" stroke-miterlimit="10"/>
<path d="M24.3262 25.1055C22.3548 21.9871 22.092 17.8748 23.6511 14.5366" stroke="#72391E" stroke-width="0.68" stroke-miterlimit="10"/>
<path d="M24.1172 25.6466C22.6978 24.5116 21.7205 22.8461 21.4266 21.0611C21.337 20.5163 21.3083 19.9631 21.3035 19.4112C21.2856 17.4553 21.2641 17.5497 21.5317 15.6118" stroke="#72391E" stroke-width="0.68" stroke-miterlimit="10"/>
<path d="M29.6194 12.4244C29.8404 14.428 29.1403 14.3742 28.9754 15.3432C28.8057 16.3432 28.8117 17.4137 28.2872 18.2835C28.0399 18.6933 27.6886 19.0302 27.3983 19.4113C26.8762 20.0971 26.556 20.931 26.4855 21.7865C26.5238 21.3851 26.5847 21.1055 26.7842 20.7363C27.1259 20.1031 27.9252 19.8462 28.1845 19.0851C28.2741 18.8223 28.2956 18.5427 28.3159 18.2655C28.4951 15.8844 28.6731 13.5032 28.8523 11.1221" stroke="#72391E" stroke-width="0.68" stroke-miterlimit="10"/>
<path d="M28.1899 11.1459C28.0322 12.6907 27.8674 14.2666 27.2329 15.686C26.8673 16.5056 26.344 17.2786 26.221 18.1663C26.1505 18.6788 26.2174 19.2045 26.1278 19.7147C26.037 20.2248 25.7252 20.7529 25.215 20.8628" stroke="#72391E" stroke-width="0.68" stroke-miterlimit="10"/>
<path d="M20.353 27.925C20.2742 27.0504 19.8058 26.2177 19.0961 25.6908C18.4092 25.1818 17.5226 24.9548 16.9109 24.3575C16.4055 23.864 16.1475 23.1651 16.0626 22.4685C15.9539 21.5749 16.126 20.6824 16.0937 19.7887" stroke="#72391E" stroke-width="0.68" stroke-miterlimit="10"/>
<path d="M18.7037 28.4184C18.2568 27.293 18.3727 26.0206 18.6881 24.8509C19.0023 23.6824 19.5041 22.5701 19.8255 21.4028C20.2461 19.8759 20.3488 18.2642 20.1278 16.6967" stroke="#72391E" stroke-width="0.68" stroke-miterlimit="10"/>
<path d="M19.9917 28.1402C18.3692 25.0637 18.4803 21.8856 17.5293 18.5451C17.4361 18.2177 17.2222 17.8174 16.8841 17.8748" stroke="#72391E" stroke-width="0.68" stroke-miterlimit="10"/>
<path d="M19.4194 28.2835C18.7169 27.6981 18.4194 27.1437 17.644 26.5977C16.607 25.8677 15.3011 25.5021 14.4373 24.5762C14.1135 24.2297 13.8674 23.8187 13.6511 23.3982C13.3309 22.7769 13.0717 22.0194 13.3978 21.4017" stroke="#72391E" stroke-width="0.68" stroke-miterlimit="10"/>
<path d="M18.5869 28.6539C17.6634 27.845 16.5283 27.3134 15.5427 26.5798C13.2774 24.8916 11.9584 22.2679 10.7182 19.741" stroke="#72391E" stroke-width="0.68" stroke-miterlimit="10"/>
<path d="M10.1114 21.0002C10.0887 21.9059 10.5893 22.7398 11.1305 23.471C12.8151 25.7482 15.0756 27.6025 17.6455 28.8187C16.3576 28.1951 14.6992 28.2034 13.3719 27.6658C10.9919 26.6992 9.05758 24.7088 8.17107 22.3169" stroke="#72391E" stroke-width="0.68" stroke-miterlimit="10"/>
<path d="M14.9438 28.7255C13.5281 28.6287 11.8781 28.3575 10.6355 27.6789C8.63672 26.5857 6.57695 25.3814 5.36546 23.4638C5.13727 23.103 4.94371 22.6275 5.17669 22.269" stroke="#72391E" stroke-width="0.68" stroke-miterlimit="10"/>
<path d="M16.6621 28.8559C15.6478 28.8822 14.8114 28.8415 13.9596 28.7507C12.993 28.6468 12.2439 28.4604 11.3024 28.2191C10.1841 27.9323 9.1423 27.4568 8.34898 27.0351C7.62734 26.6515 7.16736 26.311 6.55325 25.9287C5.81848 25.4711 5.23065 24.8952 4.56995 24.3361C4.34295 24.1437 4.07413 23.8008 3.89969 23.5619" stroke="#72391E" stroke-width="0.68" stroke-miterlimit="10"/>
<path d="M16.6362 28.869C14.3315 27.4138 12.3578 25.538 11.1272 23.1198C10.347 21.5881 10.5023 21.9919 9.52741 20.575" stroke="#72391E" stroke-width="0.68" stroke-miterlimit="10"/>
<path d="M17.9634 28.7125C16.3636 27.3074 15.1963 25.5464 14.538 23.4842C13.9872 21.7602 13.6766 19.9441 12.8474 18.3324" stroke="#72391E" stroke-width="0.68" stroke-miterlimit="10"/>
<path d="M18.1055 27.8033C17.2452 26.6013 16.8068 25.1091 16.8785 23.6383C16.9239 22.71 17.1652 21.7721 16.9681 20.8629C16.8438 20.2894 16.5511 19.7673 16.2631 19.2548" stroke="#72391E" stroke-width="0.68" stroke-miterlimit="10"/>
<path d="M20.7568 27.6862C20.0029 27.0124 19.6935 25.9873 19.4784 25.0052C18.9468 22.5786 18.7891 20.072 19.0113 17.5989" stroke="#72391E" stroke-width="0.68" stroke-miterlimit="10"/>
<path d="M22.0376 27.219C20.9982 25.4424 20.678 23.2643 21.1642 21.2679C21.3912 20.3324 21.7903 19.3885 21.6135 18.4435C21.488 17.7744 21.0866 17.1926 20.6947 16.6334" stroke="#72391E" stroke-width="0.68" stroke-miterlimit="10"/>
<path d="M23.4664 26.4496C23.0924 24.403 23.096 22.8522 23.3039 20.7829C23.4819 19.0051 23.8762 17.2273 23.7006 15.4495" stroke="#72391E" stroke-width="0.68" stroke-miterlimit="10"/>
<path d="M25.1188 25.1736C24.6684 23.7172 25.2132 22.3862 25.6325 20.9203C26.0519 19.4555 26.5549 17.9632 26.4187 16.4459C26.3338 15.502 26.0041 14.5904 25.9456 13.6454" stroke="#72391E" stroke-width="0.68" stroke-miterlimit="10"/>
<path d="M26.3493 24.0744C26.7627 20.1472 26.5739 16.1388 27.5011 12.3C27.6504 11.6824 27.832 11.0623 28.1689 10.5234" stroke="#72391E" stroke-width="0.68" stroke-miterlimit="10"/>
<path d="M27.3934 20.6825C28.0243 18.8808 28.3027 16.9596 28.2071 15.054C28.1629 14.1615 28.0362 13.269 28.0948 12.3765C28.1521 11.4841 28.4162 10.5677 29.041 9.92371" stroke="#72391E" stroke-width="0.68" stroke-miterlimit="10"/>
<path d="M28.2788 8.828C28.8332 9.76111 28.8655 11.11 28.979 12.1614C29.114 13.4254 29.1331 14.7146 28.8463 15.9607C28.5632 17.1925 27.9945 18.3371 27.5644 19.5259C27.1343 20.7147 26.7507 21.8234 27.0434 23.0528C26.9658 21.1794 26.7209 20.0826 27.0291 18.4303C27.3386 16.7791 27.7985 15.1531 27.9981 13.4852C28.0518 13.0347 28.0853 12.5748 27.9837 12.1327C27.881 11.6906 27.6229 11.2653 27.2179 11.0562" stroke="#492112" stroke-width="0.68" stroke-miterlimit="10"/>
<path d="M26.2132 23.8139C25.5871 22.968 25.5465 21.8246 25.7221 20.7912C25.8978 19.7565 26.2622 18.7553 26.3613 17.7111C26.5167 16.0683 26.0053 14.4434 25.4999 12.8711" stroke="#492112" stroke-width="0.68" stroke-miterlimit="10"/>
<path d="M25.1927 24.6383C24.6276 23.9812 24.3468 23.1162 24.2978 22.2535C24.2489 21.3921 24.4197 20.5307 24.6742 19.7051C24.8498 19.1376 25.0661 18.5773 25.1509 17.9894C25.3946 16.2857 24.5022 14.5844 24.667 12.8711" stroke="#492112" stroke-width="0.68" stroke-miterlimit="10"/>
<path d="M23.9024 25.1401C23.3851 22.1651 24.0422 19.1233 24.777 16.1949C24.9156 15.6417 24.9992 14.9297 24.5177 14.619" stroke="#492112" stroke-width="0.68" stroke-miterlimit="10"/>
<path d="M23.2286 25.2728C22.6634 23.9801 22.4938 22.5201 22.7483 21.1341C23.0075 19.7243 23.6921 18.3934 23.7555 16.962C23.777 16.4794 23.6563 15.8963 23.2011 15.7255" stroke="#492112" stroke-width="0.68" stroke-miterlimit="10"/>
<path d="M22.9298 26.8688C21.9883 23.5104 22.078 19.8759 23.1831 16.5676" stroke="#492112" stroke-width="0.68" stroke-miterlimit="10"/>
<path d="M19.4078 17.6801C19.8403 18.2488 19.9358 18.9943 20.0135 19.7028C20.1951 21.3575 20.3636 23.0135 20.5189 24.6718C20.624 25.7984 20.7232 26.9394 20.5559 28.0589" stroke="#492112" stroke-width="0.68" stroke-miterlimit="10"/>
<path d="M13.5186 18.5452C13.251 18.9944 13.2749 19.5691 13.4565 20.0589C13.6369 20.5488 13.9583 20.9741 14.2749 21.3911C16.1686 23.8845 18.1829 26.4712 21.042 27.7783C19.0814 25.4951 17.6477 22.2274 17.0252 19.2943" stroke="#492112" stroke-width="0.68" stroke-miterlimit="10"/>
<path d="M27.5744 22.348C28.8194 19.4818 29.492 16.373 29.541 13.2523C29.5553 12.3622 29.5028 11.4196 29.0069 10.6776" stroke="#492112" stroke-width="0.68" stroke-miterlimit="10"/>
<path d="M27.0335 21.2392C27.6667 18.3168 28.3023 15.3048 27.7683 12.3633C27.6428 11.6716 27.4039 10.9237 26.7969 10.5616" stroke="#492112" stroke-width="0.68" stroke-miterlimit="10"/>
<path d="M25.9694 22.759C26.1104 18.7602 26.1271 14.7565 26.022 10.7565" stroke="#492112" stroke-width="0.68" stroke-miterlimit="10"/>
<path d="M22.761 25.6372C22.7873 22.0099 22.8053 18.3288 21.8411 14.8306" stroke="#492112" stroke-width="0.68" stroke-miterlimit="10"/>
<path d="M21.6465 26.5811C21.4697 24.4126 21.2928 22.2429 20.975 20.09C20.7898 18.8367 20.5437 17.5523 19.8496 16.4878" stroke="#492112" stroke-width="0.68" stroke-miterlimit="10"/>
<path d="M20.8628 27.7304C20.3407 26.0733 20.0133 24.3624 19.5211 22.6957C19.0288 21.0302 18.355 19.3826 17.2355 18.0469" stroke="#492112" stroke-width="0.68" stroke-miterlimit="10"/>
<path d="M20.0957 28.0756C18.7922 24.293 17.1064 21.0253 14.8603 17.7063" stroke="#492112" stroke-width="0.68" stroke-miterlimit="10"/>
<path d="M19.52 27.6694C16.0588 26.0947 12.723 23.8605 10.8807 20.5558" stroke="#492112" stroke-width="0.68" stroke-miterlimit="10"/>
<path d="M20.3418 27.7233C20.7349 27.8464 21.1435 27.6218 21.49 27.3995C24.1472 25.697 26.6681 23.5405 27.8999 20.6503C28.8438 18.4353 28.9561 15.9478 28.6753 13.5594" stroke="#492112" stroke-width="0.68" stroke-miterlimit="10"/>
<path d="M26.7767 22.2727C27.4996 20.6944 28.2236 19.1102 28.7385 17.453C29.2523 15.7959 29.5533 14.0539 29.4076 12.3263C29.3263 11.3705 29.0623 10.3478 28.3024 9.75281" stroke="#492112" stroke-width="0.68" stroke-miterlimit="10"/>
<path d="M24.9109 24.1521C25.5346 21.624 26.0113 19.0613 26.3387 16.4782C26.4283 15.7745 26.5059 15.0588 26.3912 14.3587C26.2777 13.6586 25.948 12.9644 25.3661 12.551" stroke="#492112" stroke-width="0.68" stroke-miterlimit="10"/>
<path d="M21.5308 25.8963C21.8414 23.9142 22.1521 21.9333 22.4627 19.9512C22.6348 18.8508 22.808 17.7397 22.7363 16.6286C22.6646 15.5175 23.2297 15.2785 22.4914 14.4386" stroke="#492112" stroke-width="0.68" stroke-miterlimit="10"/>
<path d="M19.5248 26.6002C19.8282 23.1139 19.9883 19.6157 20.0015 16.1162" stroke="#492112" stroke-width="0.68" stroke-miterlimit="10"/>
<path d="M17.9404 27.4471C17.0981 23.6514 16.6895 20.8855 16.8544 17.0026" stroke="#492112" stroke-width="0.68" stroke-miterlimit="10"/>
<path d="M14.8257 27.955C13.5784 25.3193 12.6441 22.538 12.0503 19.6873" stroke="#492112" stroke-width="0.68" stroke-miterlimit="10"/>
<path d="M14.793 28.513C12.83 27.2967 10.8395 26.0589 9.2911 24.354C8.91117 23.9359 8.54677 23.4627 8.46194 22.9048" stroke="#492112" stroke-width="0.68" stroke-miterlimit="10"/>
<path d="M16.3574 27.6371C13.4315 28.6311 10.3096 28.1544 7.60701 26.6574C6.76112 26.1891 5.63446 25.4841 5.17448 24.7709" stroke="#492112" stroke-width="0.68" stroke-miterlimit="10"/>
<path d="M22.6121 26.6635C22.5774 26.6337 22.5691 26.734 22.6157 26.7257C22.6623 26.7173 22.6742 26.66 22.6766 26.6134C22.8534 23.219 22.5034 19.7996 21.6419 16.5093" stroke="#492112" stroke-width="0.68" stroke-miterlimit="10"/>
<path style="mix-blend-mode:multiply" opacity="0.32" d="M24.1008 25.9191C24.102 22.6646 24.2143 19.4101 24.4365 16.1627L24.1008 25.9191Z" fill="url(#paint26_linear_430_12812)"/>
<path d="M26.9527 23.158C27.7592 20.0612 28.3852 17.5379 28.4712 14.3909C28.5131 12.8592 28.4677 11.3001 28.0017 9.83887" stroke="#916436" stroke-width="0.68" stroke-miterlimit="10"/>
<path d="M26.2598 24.109C26.9361 20.287 27.6123 16.3479 26.7724 12.5569" stroke="#916436" stroke-width="0.68" stroke-miterlimit="10"/>
<path d="M25.1654 24.808C25.819 21.7147 26.4725 18.5044 25.758 15.4255" stroke="#916436" stroke-width="0.68" stroke-miterlimit="10"/>
<path d="M24.4307 25.195C24.3076 21.6657 24.1857 18.1352 24.0627 14.6058" stroke="#916436" stroke-width="0.68" stroke-miterlimit="10"/>
<path d="M22.1994 16.7517C21.8732 19.6825 22.4813 22.71 23.915 25.2954C22.4276 23.8665 20.8146 22.8533 19.817 21.0528C19.2746 20.0755 18.8935 18.8963 19.2949 17.8557" stroke="#916436" stroke-width="0.68" stroke-miterlimit="10"/>
<path d="M23.6499 25.5464C22.4408 25.2967 21.2006 25.035 20.1588 24.3779C19.7753 24.1365 19.4264 23.845 19.0919 23.5416C17.2066 21.8366 15.6737 19.5953 15.4156 17.0791" stroke="#916436" stroke-width="0.68" stroke-miterlimit="10"/>
<path d="M24.1689 25.955C22.2597 25.5225 20.6325 25.2597 18.8332 24.4914C17.0338 23.7244 15.3421 22.6252 14.1366 21.0947" stroke="#916436" stroke-width="0.68" stroke-miterlimit="10"/>
<path d="M22.9224 26.182C20.6069 26.6623 18.1529 27.1354 15.9199 26.3612C14.7407 25.9526 13.6857 25.2011 12.9175 24.225" stroke="#916436" stroke-width="0.68" stroke-miterlimit="10"/>
<path d="M22.7002 26.9885C19.7456 27.0422 16.7395 27.0912 13.8948 26.2943C13.031 26.053 12.1636 25.7185 11.5161 25.1031" stroke="#916436" stroke-width="0.68" stroke-miterlimit="10"/>
<path d="M21.9941 26.1582C20.7528 26.6755 19.4756 27.1092 18.1745 27.4545C17.38 27.666 16.5652 27.8452 15.742 27.8201C15.0562 27.7998 14.3835 27.6373 13.7204 27.4653C12.6774 27.1953 11.6045 26.8786 10.7885 26.1773" stroke="#916436" stroke-width="0.68" stroke-miterlimit="10"/>
<path d="M23.4697 26.2035C21.3932 26.1796 19.3251 26.5058 17.2498 26.4735C15.1745 26.4412 13.0048 26.0028 11.423 24.6682" stroke="#916436" stroke-width="0.68" stroke-miterlimit="10"/>
<path d="M23.0693 25.4699C21.1482 26.0494 19.086 26.1199 17.1051 25.7865C15.5435 25.5237 13.9342 24.9514 12.9605 23.7136" stroke="#916436" stroke-width="0.68" stroke-miterlimit="10"/>
<path d="M23.8257 25.4436C21.1506 23.8271 18.7599 21.7494 16.7909 19.3336" stroke="#916436" stroke-width="0.68" stroke-miterlimit="10"/>
<path d="M24.8716 25.3827C23.4701 23.5559 22.2419 21.79 21.0627 19.8139C20.6445 19.1138 20.2264 18.3133 20.4199 17.5236" stroke="#916436" stroke-width="0.68" stroke-miterlimit="10"/>
<path d="M25.353 24.9143C23.6839 21.698 22.5346 18.5462 21.6564 15.036" stroke="#916436" stroke-width="0.68" stroke-miterlimit="10"/>
<path d="M25.6338 24.5332C24.9755 21.4854 24.715 18.3527 24.8632 15.2404" stroke="#916436" stroke-width="0.68" stroke-miterlimit="10"/>
<path d="M26.1603 23.5762C26.508 20.109 26.8509 16.5665 26.0433 13.1758" stroke="#916436" stroke-width="0.68" stroke-miterlimit="10"/>
<path d="M26.913 23.029C27.5654 20.7506 28.1341 18.4483 28.6168 16.1293C28.8222 15.1448 28.9704 13.9966 28.2954 13.2463" stroke="#916436" stroke-width="0.68" stroke-miterlimit="10"/>
<path d="M27.7936 21.1019C28.6371 18.6168 29.3862 15.9656 28.8318 13.4016C28.6335 12.4841 28.2369 11.5581 27.4782 10.9966" stroke="#916436" stroke-width="0.68" stroke-miterlimit="10"/>
<path d="M24.9478 22.9346C24.5415 19.7231 24.2691 16.4961 24.1293 13.2631" stroke="#916436" stroke-width="0.68" stroke-miterlimit="10"/>
<path d="M23.0913 24.4006C22.8093 22.9311 22.525 21.4531 22.0065 20.0493C21.4867 18.6443 20.7173 17.3026 19.5931 16.3049" stroke="#916436" stroke-width="0.68" stroke-miterlimit="10"/>
<path d="M23.3975 25.9503C20.7331 25.4342 18.5671 23.5751 16.5383 21.7842" stroke="#916436" stroke-width="0.68" stroke-miterlimit="10"/>
<path d="M26.4575 23.4233C25.3141 24.8021 23.6785 25.7006 21.9927 26.3278C20.3069 26.955 18.4084 27.3374 16.7214 26.7101" stroke="#916436" stroke-width="0.68" stroke-miterlimit="10"/>
<path d="M24.8335 25.1915C23.1955 26.5404 21.1501 27.3971 19.0317 27.6205C16.9134 27.8439 14.7318 27.4329 12.8429 26.4556" stroke="#916436" stroke-width="0.68" stroke-miterlimit="10"/>
<path d="M22.998 26.7615C21.372 27.8798 19.7889 28.286 18.0601 28.6599C16.3313 29.0339 14.4842 29.0674 12.8283 28.4461" stroke="#916436" stroke-width="0.68" stroke-miterlimit="10"/>
<path d="M20.0317 28.0887C18.3268 28.6096 16.5191 29.1544 14.8023 28.8808C13.0854 28.6072 11.4223 27.925 10.0806 26.8282" stroke="#916436" stroke-width="0.68" stroke-miterlimit="10"/>
<path d="M22.3259 27.0243C23.0045 26.8642 23.5194 26.3302 23.9842 25.8152C24.8707 24.8307 25.7262 23.8188 26.5494 22.7817C26.9042 22.3349 27.4227 21.8426 27.6151 21.3014C27.7764 20.8486 27.8588 20.3229 27.9902 19.8534C28.4825 18.0947 28.8839 16.3109 29.1934 14.5116" stroke="#916436" stroke-width="0.68" stroke-miterlimit="10"/>
<path d="M26.1885 24.0219C24.5015 26.1868 22.204 27.4138 19.9005 28.1545" stroke="#916436" stroke-width="0.68" stroke-miterlimit="10"/>
<path d="M25.2227 25.0183C23.3552 26.1306 21.6133 27.329 19.6121 28.182C18.9478 28.4652 18.2453 28.7388 17.5248 28.6767" stroke="#916436" stroke-width="0.68" stroke-miterlimit="10"/>
<path d="M12.8859 22.7853C14.0807 24.133 15.8131 24.9227 17.5825 25.2979C18.7127 25.538 19.8693 25.6229 21.0222 25.6539C21.5359 25.6671 22.168 25.765 22.671 25.6611C23.027 25.5882 23.3591 25.3529 23.6973 25.2167C21.2994 23.6921 19.199 21.7566 17.2575 19.6897" stroke="#916436" stroke-width="0.68" stroke-miterlimit="10"/>
<path d="M24.2402 24.2393C22.6428 21.9466 21.1912 19.5534 19.8973 17.0791" stroke="#916436" stroke-width="0.68" stroke-miterlimit="10"/>
<path d="M24.0049 23.0684C23.7683 21.6192 23.5174 20.1711 23.2546 18.7267C23.1877 18.3611 23.1184 17.9883 22.938 17.6633" stroke="#916436" stroke-width="0.68" stroke-miterlimit="10"/>
<path d="M24.2615 24.544C24.5184 21.6288 24.7597 18.5953 23.7096 15.8605" stroke="#916436" stroke-width="0.68" stroke-miterlimit="10"/>
<path d="M25.3066 23.0218C25.8419 20.8915 26.2505 18.7314 26.5312 16.5533" stroke="#916436" stroke-width="0.68" stroke-miterlimit="10"/>
<path d="M26.1799 23.0911C26.4212 20.8784 26.6637 18.6657 26.9051 16.4542C27.0043 15.5462 27.0974 14.5915 26.7426 13.748" stroke="#916436" stroke-width="0.68" stroke-miterlimit="10"/>
<path d="M26.2204 23.8606C27.2874 20.2703 28.365 16.5331 27.7712 12.8353" stroke="#916436" stroke-width="0.68" stroke-miterlimit="10"/>
<path d="M25.5773 24.581C26.2082 21.0445 26.5654 17.4603 26.6443 13.87C26.6813 12.2057 26.6538 10.5139 26.1783 8.91772" stroke="#916436" stroke-width="0.68" stroke-miterlimit="10"/>
<path d="M24.415 24.6658C23.0554 20.7745 22.8224 16.5044 23.7484 12.4924" stroke="#916436" stroke-width="0.68" stroke-miterlimit="10"/>
<path d="M24.521 25.157C21.6488 23.4688 19.1434 21.1701 17.2234 18.4615" stroke="#916436" stroke-width="0.68" stroke-miterlimit="10"/>
<path d="M24.5078 25.6574C22.6261 25.348 20.718 25.0302 18.9844 24.2428C18.1445 23.8617 17.3572 23.3742 16.5901 22.8629C14.6773 21.5869 13.3476 20.7374 11.9557 18.9154" stroke="#916436" stroke-width="0.68" stroke-miterlimit="10"/>
<path d="M23.7515 26.2667C18.9892 25.833 14.2603 25.2607 10.3009 22.6" stroke="#916436" stroke-width="0.68" stroke-miterlimit="10"/>
<path d="M21.7861 27.299C17.5842 28.109 13.0644 27.1508 9.56375 24.7075" stroke="#916436" stroke-width="0.68" stroke-miterlimit="10"/>
<path d="M20.0444 28.1402C18.3789 28.5309 16.6633 29.022 15.0229 28.9993C14.5653 28.9933 14.1053 28.9813 13.6537 28.9061C13.0396 28.8033 12.4517 28.5859 11.8771 28.3493C10.0646 27.6014 8.27606 26.5978 7.14343 25.0076" stroke="#916436" stroke-width="0.68" stroke-miterlimit="10"/>
<path d="M26.5253 23.7184C28.9794 20.3993 30.0093 16.0791 29.3163 12.0193" stroke="#916436" stroke-width="0.68" stroke-miterlimit="10"/>
<path d="M28.618 10.7517C28.7793 15.2906 27.6288 20.0457 25.9633 24.2764C26.8964 23.452 27.5941 22.2967 28.1365 21.1796C28.9251 19.5547 29.4305 17.9609 29.6455 16.1711C29.8606 14.3814 29.7041 12.2153 28.943 10.5773" stroke="#916436" stroke-width="0.68" stroke-miterlimit="10"/>
<path d="M27.0793 11.4803C27.1785 15.981 26.5429 20.4972 25.2059 24.7995C25.0255 25.3778 24.2214 25.8641 23.5966 26.3455" stroke="#916436" stroke-width="0.68" stroke-miterlimit="10"/>
<path d="M24.7146 13.8951C24.8473 15.9537 24.9799 18.0194 24.8258 20.0756C24.6704 22.1318 24.2176 24.1928 23.2391 26.0124C23.128 26.2179 23.0049 26.427 22.8138 26.562" stroke="#916436" stroke-width="0.68" stroke-miterlimit="10"/>
<path d="M23.8916 17.165C23.6789 19.7624 23.2655 22.3395 22.7745 24.8987C22.6586 25.5057 22.5356 26.1174 22.2775 26.6789C22.0194 27.2404 21.2942 27.6084 20.735 27.8796" stroke="#916436" stroke-width="0.68" stroke-miterlimit="10"/>
<path d="M24.27 25.5128C22.4623 22.7756 20.5902 20.0803 18.6558 17.4303" stroke="#916436" stroke-width="0.68" stroke-miterlimit="10"/>
<path d="M23.1724 25.1044C20.0361 24.0255 17.2416 21.9884 15.2678 19.342" stroke="#916436" stroke-width="0.68" stroke-miterlimit="10"/>
<path d="M22.085 25.7281C21.6823 25.5955 21.3239 25.384 20.9141 25.298C20.3657 25.1821 19.7898 25.1462 19.2355 25.059C18.1219 24.8846 17.012 24.6719 15.9284 24.3601C14.1589 23.8499 12.4433 23.0578 11.0741 21.8344" stroke="#916436" stroke-width="0.68" stroke-miterlimit="10"/>
<path d="M21.6289 27.3121C20.6576 24.7279 21.7257 21.8055 21.1737 19.103C20.9682 18.0934 20.5357 17.122 20.5082 16.0922" stroke="#492112" stroke-width="0.68" stroke-miterlimit="10"/>
<path d="M16.5416 17.1113C16.0697 17.6693 16.0434 18.4698 16.1139 19.195C16.274 20.8485 16.8379 22.4555 17.7137 23.8701C18.1653 24.6001 18.7005 25.2787 19.3075 25.8868C19.6014 26.1819 19.9132 26.4603 20.2394 26.7196C20.4688 26.9024 20.912 27.1055 21.0327 27.3564C20.5082 27.6013 19.4891 27.6145 18.9144 27.6455C17.863 27.7029 16.8009 27.5177 15.82 27.1425C14.3218 26.5702 13.0111 25.5762 11.9322 24.3958C11.3743 23.7853 10.8581 23.0899 10.7028 22.2799" stroke="#492112" stroke-width="0.68" stroke-miterlimit="10"/>
<path d="M6.94435 24.8031C7.25618 25.4758 7.87865 25.9549 8.51784 26.3384C10.2144 27.3563 12.175 27.8892 14.1475 28.0994C16.1189 28.3109 18.1118 28.2129 20.0879 28.0445C18.463 27.4172 16.5861 26.066 15.3507 24.8449C14.1153 23.6251 13.0663 22.232 12.0615 20.8198C11.7604 20.3956 11.4498 19.9309 11.4617 19.4124" stroke="#492112" stroke-width="0.68" stroke-miterlimit="10"/>
<path d="M24.2031 24.5797C24.6069 21.0444 24.7192 17.4207 23.8398 13.9715C23.6547 13.2474 23.479 12.7098 23.0238 11.9941" stroke="#492112" stroke-width="0.68" stroke-miterlimit="10"/>
<path d="M18.269 28.6002C15.6955 28.1617 13.0563 27.7005 10.8078 26.3827C9.90215 25.8522 9.07537 25.1891 8.3633 24.4221C7.59507 23.5941 6.93317 22.5607 6.97379 21.4364" stroke="#492112" stroke-width="0.68" stroke-miterlimit="10"/>
<path d="M25.8727 22.4507C26.3422 20.3599 26.8129 18.2679 27.2825 16.177C27.4748 15.3204 27.6684 14.4518 27.6373 13.5736C27.6063 12.6955 27.3255 11.7935 26.6911 11.1805" stroke="#492112" stroke-width="0.68" stroke-miterlimit="10"/>
<path d="M23.673 24.5822C24.0254 22.8892 24.3779 21.1974 24.7303 19.5044C24.9717 18.3431 25.2154 17.1711 25.2011 15.9847C25.1867 14.7983 24.894 13.582 24.1616 12.6429" stroke="#492112" stroke-width="0.68" stroke-miterlimit="10"/>
<path d="M15.9224 27.0924C14.687 23.8331 14.0812 21.0326 14.0251 17.5522" stroke="#492112" stroke-width="0.68" stroke-miterlimit="10"/>
<path d="M15.9487 26.3768C12.2474 25.9968 8.41816 25.4234 5.32135 23.3779" stroke="#492112" stroke-width="0.68" stroke-miterlimit="10"/>
</g>
<path style="mix-blend-mode:multiply" opacity="0.71" d="M26.0578 3.75869C26.4103 4.20075 26.7436 4.66431 27.0578 5.14938C31.8488 12.5641 30.1463 22.2153 23.2537 26.7064C16.3623 31.1975 6.89148 28.8271 2.0993 21.4112C1.61662 20.6645 1.20084 19.8963 0.849585 19.1113L7.48289 20.4734C7.93092 20.5654 8.39568 20.5176 8.81504 20.3372L15.0397 17.6298C16.9764 17.3132 20.6563 16.6442 21.7698 15.0277L24.0602 11.5581C25.2979 10.6369 24.9061 8.85792 25.2454 7.35252L26.0578 3.75391V3.75869Z" fill="url(#paint27_linear_430_12812)"/>
<defs>
<linearGradient id="paint0_linear_430_12812" x1="18.7983" y1="28.6162" x2="13.0733" y2="7.23525" gradientUnits="userSpaceOnUse">
<stop offset="0.14" stop-color="#683C11"/>
<stop offset="1" stop-color="#936037"/>
</linearGradient>
<linearGradient id="paint1_linear_430_12812" x1="18.7983" y1="28.6162" x2="13.0733" y2="7.23525" gradientUnits="userSpaceOnUse">
<stop offset="0.14" stop-color="#683C11"/>
<stop offset="0.99" stop-color="#936037" stop-opacity="0"/>
</linearGradient>
<linearGradient id="paint2_linear_430_12812" x1="23.147" y1="3.62052" x2="1.68332" y2="16.6963" gradientUnits="userSpaceOnUse">
<stop stop-color="#B2B2B2"/>
<stop offset="0.51" stop-color="#F6F6F6"/>
</linearGradient>
<linearGradient id="paint3_linear_430_12812" x1="23.1654" y1="3.60933" x2="1.66496" y2="16.7075" gradientUnits="userSpaceOnUse">
<stop offset="0.49" stop-color="white"/>
<stop offset="1" stop-color="white"/>
</linearGradient>
<linearGradient id="paint4_linear_430_12812" x1="26.769" y1="12.6008" x2="17.3916" y2="10.0864" gradientUnits="userSpaceOnUse">
<stop offset="0.49" stop-color="#F6F6F6"/>
<stop offset="1" stop-color="#B2B2B2"/>
</linearGradient>
<linearGradient id="paint5_linear_430_12812" x1="22.2243" y1="14.0727" x2="15.1861" y2="12.1855" gradientUnits="userSpaceOnUse">
<stop offset="0.05" stop-color="#F6F6F6"/>
<stop offset="0.7" stop-color="#9D9D9C"/>
</linearGradient>
<linearGradient id="paint6_linear_430_12812" x1="19.3181" y1="14.5909" x2="14.2867" y2="13.2418" gradientUnits="userSpaceOnUse">
<stop offset="0.49" stop-color="#F6F6F6"/>
<stop offset="1" stop-color="#B2B2B2"/>
</linearGradient>
<linearGradient id="paint7_linear_430_12812" x1="16.2604" y1="16.8697" x2="14.8733" y2="11.6909" gradientUnits="userSpaceOnUse">
<stop offset="0.05" stop-color="#F6F6F6"/>
<stop offset="0.7" stop-color="#9D9D9C"/>
</linearGradient>
<linearGradient id="paint8_linear_430_12812" x1="13.3817" y1="20.6536" x2="11.15" y2="12.318" gradientUnits="userSpaceOnUse">
<stop offset="0.49" stop-color="#F6F6F6"/>
<stop offset="1" stop-color="#B2B2B2"/>
</linearGradient>
<linearGradient id="paint9_linear_430_12812" x1="9.18414" y1="21.7768" x2="7.49181" y2="15.4573" gradientUnits="userSpaceOnUse">
<stop offset="0.05" stop-color="#F6F6F6"/>
<stop offset="0.7" stop-color="#9D9D9C"/>
</linearGradient>
<linearGradient id="paint10_linear_430_12812" x1="6.16036" y1="22.3885" x2="4.53672" y2="16.3249" gradientUnits="userSpaceOnUse">
<stop offset="0.49" stop-color="#F6F6F6"/>
<stop offset="1" stop-color="#B2B2B2"/>
</linearGradient>
<linearGradient id="paint11_linear_430_12812" x1="3.35876" y1="21.3961" x2="0.179615" y2="9.5223" gradientUnits="userSpaceOnUse">
<stop offset="0.05" stop-color="#F6F6F6"/>
<stop offset="0.7" stop-color="#9D9D9C"/>
</linearGradient>
<linearGradient id="paint12_linear_430_12812" x1="4.65493" y1="11.8122" x2="3.25417" y2="6.58281" gradientUnits="userSpaceOnUse">
<stop offset="0.49" stop-color="#F6F6F6"/>
<stop offset="1" stop-color="#B2B2B2"/>
</linearGradient>
<linearGradient id="paint13_linear_430_12812" x1="8.32581" y1="9.79815" x2="6.61985" y2="3.42803" gradientUnits="userSpaceOnUse">
<stop offset="0.05" stop-color="#F6F6F6"/>
<stop offset="0.7" stop-color="#9D9D9C"/>
</linearGradient>
<linearGradient id="paint14_linear_430_12812" x1="11.0835" y1="7.01205" x2="9.77187" y2="2.11452" gradientUnits="userSpaceOnUse">
<stop offset="0.49" stop-color="#F6F6F6"/>
<stop offset="1" stop-color="#B2B2B2"/>
</linearGradient>
<linearGradient id="paint15_linear_430_12812" x1="17.3625" y1="3.25821" x2="13.5312" y2="2.23091" gradientUnits="userSpaceOnUse">
<stop offset="0.05" stop-color="#F6F6F6"/>
<stop offset="0.7" stop-color="#9D9D9C"/>
</linearGradient>
<linearGradient id="paint16_linear_430_12812" x1="22.1564" y1="2.76737" x2="14.3057" y2="0.662337" gradientUnits="userSpaceOnUse">
<stop offset="0.49" stop-color="#F6F6F6"/>
<stop offset="1" stop-color="#B2B2B2"/>
</linearGradient>
<linearGradient id="paint17_linear_430_12812" x1="27.2861" y1="11.1278" x2="17.1653" y2="11.1278" gradientUnits="userSpaceOnUse">
<stop offset="0.24" stop-color="#F6F6F6"/>
<stop offset="0.6" stop-color="white" stop-opacity="0"/>
</linearGradient>
<linearGradient id="paint18_linear_430_12812" x1="19.2285" y1="13.8291" x2="14.5439" y2="13.8291" gradientUnits="userSpaceOnUse">
<stop offset="0.49" stop-color="#F6F6F6"/>
<stop offset="1" stop-color="white" stop-opacity="0"/>
</linearGradient>
<linearGradient id="paint19_linear_430_12812" x1="14.5821" y1="18.4482" x2="8.95954" y2="15.202" gradientUnits="userSpaceOnUse">
<stop offset="0.05" stop-color="#F6F6F6"/>
<stop offset="0.57" stop-color="white" stop-opacity="0"/>
</linearGradient>
<linearGradient id="paint20_linear_430_12812" x1="8.07324" y1="19.4696" x2="3.25478" y2="19.4696" gradientUnits="userSpaceOnUse">
<stop offset="0.49" stop-color="#F6F6F6"/>
<stop offset="1" stop-color="white" stop-opacity="0"/>
</linearGradient>
<linearGradient id="paint21_linear_430_12812" x1="9.04736" y1="8.90198" x2="-1.11406" y2="8.90198" gradientUnits="userSpaceOnUse">
<stop offset="0.49" stop-color="#F6F6F6"/>
<stop offset="1" stop-color="white" stop-opacity="0"/>
</linearGradient>
<linearGradient id="paint22_linear_430_12812" x1="12.0708" y1="7.24245" x2="8.62268" y2="1.26985" gradientUnits="userSpaceOnUse">
<stop stop-color="white" stop-opacity="0"/>
<stop offset="0.39" stop-color="#F6F6F6"/>
</linearGradient>
<linearGradient id="paint23_linear_430_12812" x1="22.6987" y1="1.66541" x2="14.5302" y2="1.66541" gradientUnits="userSpaceOnUse">
<stop offset="0.28" stop-color="white" stop-opacity="0"/>
<stop offset="0.51" stop-color="#F6F6F6"/>
</linearGradient>
<linearGradient id="paint24_linear_430_12812" x1="23.2328" y1="3.5711" x2="1.76815" y2="16.6475" gradientUnits="userSpaceOnUse">
<stop stop-color="#9D9D9C"/>
<stop offset="0.7" stop-color="#F6F6F6"/>
</linearGradient>
<linearGradient id="paint25_linear_430_12812" x1="21.5877" y1="13.1736" x2="4.48781" y2="8.58852" gradientUnits="userSpaceOnUse">
<stop offset="0.49" stop-color="white"/>
<stop offset="1" stop-color="white"/>
</linearGradient>
<linearGradient id="paint26_linear_430_12812" x1="24.2867" y1="21.2591" x2="24.1744" y2="21.2558" gradientUnits="userSpaceOnUse">
<stop offset="0.14" stop-color="#683C11"/>
<stop offset="0.99" stop-color="#936037" stop-opacity="0"/>
</linearGradient>
<linearGradient id="paint27_linear_430_12812" x1="18.7983" y1="28.6162" x2="13.0733" y2="7.23527" gradientUnits="userSpaceOnUse">
<stop offset="0.06" stop-color="#6B3E13" stop-opacity="0.83"/>
<stop offset="0.5" stop-color="#936037" stop-opacity="0"/>
</linearGradient>
</defs>
</svg>
