<svg width="23" height="22" viewBox="0 0 23 22" fill="none" xmlns="http://www.w3.org/2000/svg">
<path d="M19.2307 2.54785C19.493 2.87689 19.7412 3.22194 19.975 3.583C23.5411 9.102 22.2739 16.2858 17.1435 19.6287C12.014 22.9715 4.96453 21.2072 1.39755 15.6873C1.03827 15.1315 0.728792 14.5596 0.467337 13.9754L19.2307 2.54785Z" fill="url(#paint0_linear_458_13901)"/>
<path style="mix-blend-mode:multiply" opacity="0.32" d="M19.2307 2.54785C19.493 2.87689 19.7412 3.22194 19.975 3.583C23.5411 9.102 22.2739 16.2858 17.1435 19.6287C12.014 22.9715 4.96453 21.2072 1.39755 15.6873C1.03827 15.1315 0.728792 14.5596 0.467337 13.9754L19.2307 2.54785Z" fill="url(#paint1_linear_458_13901)"/>
<mask id="mask0_458_13901" style="mask-type:luminance" maskUnits="userSpaceOnUse" x="-1" y="0" width="22" height="17">
<path d="M3.96662 4.27398L4.61136 3.1917L6.14362 2.50516L10.0565 1.18544L11.0152 0L16.6596 0.337045C19.058 1.24146 19.9278 3.48606 19.9749 3.63902C20.32 4.7711 19.139 5.79646 19.139 5.79646L17.805 6.53458L16.1251 10.484L13.9375 10.7036L12.9325 11.6178L11.4296 11.1136L7.26592 14.6228L5.42863 14.846L2.20491 16.0127C2.20491 16.0127 0.683317 15.0034 0.216434 13.5521C-0.250448 12.1007 0.176414 9.10288 0.214655 7.71557C0.252895 6.32826 3.9675 4.27487 3.9675 4.27487L3.96662 4.27398ZM1.5326 12.3808C1.49436 13.2266 2.28673 13.6517 2.28673 13.6517L4.77855 12.4796L6.08938 12.0883L9.64569 9.43459L9.78531 9.32965L9.80043 9.31809L9.92849 9.3341L10.0717 9.35189L10.2148 9.36967L10.358 9.38746L10.5012 9.40524L10.6444 9.42303L10.704 9.43014L10.7858 9.36611L10.9254 9.25673L11.065 9.14735L11.2046 9.03796L11.3443 8.92858L11.4839 8.81919L11.6146 8.71693L11.6235 8.71426L11.7649 8.67424L11.9063 8.63422L12.0477 8.5942L12.1891 8.55418L12.3305 8.51416L12.4719 8.47415L12.6133 8.43413L12.7547 8.39411L12.8961 8.35409L13.0375 8.31407L13.1611 8.27939L13.1789 8.25627L13.3167 8.08019L13.4546 7.9041L13.5924 7.72802L13.7302 7.55194L13.8681 7.37586L14.0059 7.19978L14.1438 7.0237L14.2816 6.84761L14.4195 6.67153L14.5573 6.49545L14.6951 6.31937L14.833 6.14329L14.9708 5.96721L15.1087 5.79113L15.2465 5.61504L15.2767 5.57591L15.3861 5.511L15.5266 5.42829L15.6671 5.34559L15.8077 5.26288L15.9482 5.18018L16.0887 5.09747L16.2292 5.01477L16.3697 4.93206C16.3697 4.93206 16.4248 4.89026 16.5093 4.81823C16.5502 4.78355 16.5974 4.74264 16.6489 4.69551C16.6925 4.65549 16.7396 4.61191 16.7886 4.56389C16.8339 4.51943 16.881 4.47229 16.9273 4.4216C16.9744 4.3718 17.0207 4.31933 17.066 4.26597C17.114 4.20817 17.1612 4.14948 17.2039 4.08812C17.2545 4.01697 17.3017 3.94316 17.3408 3.87024C17.4137 3.73417 17.4635 3.59633 17.4715 3.46383C17.4742 3.42203 17.4662 3.117 17.3115 2.77995C17.2723 2.69369 17.2225 2.60565 17.1621 2.51939C17.1194 2.45892 17.0705 2.39844 17.0144 2.34064C16.97 2.2944 16.9211 2.24993 16.8677 2.20724C16.8223 2.17078 16.7743 2.13699 16.7219 2.10409C16.6765 2.07563 16.6285 2.04806 16.5769 2.02227C16.5315 2.00004 16.4826 1.97869 16.4328 1.95913C16.3866 1.94134 16.3386 1.92445 16.2888 1.90933C16.2425 1.8951 16.1945 1.88265 16.1447 1.87109C16.1038 1.86131 16.0611 1.8533 16.0166 1.84619L16.0015 1.84797L15.8592 1.86486L15.7169 1.88176L15.5747 1.89866L15.4324 1.91555L15.2901 1.93245L15.1478 1.94935L15.0055 1.96624L14.8632 1.98314L14.7209 2.00004L14.5786 2.01693L14.4364 2.03383L14.2941 2.05073L14.1518 2.06762L14.0095 2.08452L13.8672 2.10142L13.7249 2.11831L13.5826 2.13521L13.4403 2.15211L13.298 2.169L13.1558 2.1859L13.0135 2.2028L12.8712 2.21969L12.7289 2.23659L12.5866 2.25349L12.4443 2.27038L12.3669 2.27928L12.3038 2.34153L12.1642 2.47848L12.0246 2.61543L11.8849 2.75239L11.7453 2.88934L11.6057 3.02629L11.4661 3.16324L11.4572 3.17214L11.3256 3.22816L11.1842 3.28863L11.0428 3.34911L10.9014 3.40958L10.76 3.47005L10.6186 3.53052L10.4772 3.591L10.3358 3.65147L10.1944 3.71194L10.053 3.77241L9.91159 3.83289L9.77019 3.89336L9.62879 3.95383L9.48739 4.0143L8.18813 4.56745L6.88174 5.14194L6.33482 6.04369C6.33482 6.04369 3.3192 7.84808 2.95192 8.72226C2.58464 9.59733 1.55394 11.5351 1.51659 12.3808H1.5326Z" fill="white"/>
</mask>
<g mask="url(#mask0_458_13901)">
<path d="M19.99 3.68884C19.9428 3.53499 19.074 1.2904 16.6747 0.386866L10.8746 -0.0168762L10.0245 1.18457L6.15867 2.55498L4.59706 3.19261L3.9283 4.29801C3.9283 4.29801 0.267056 6.3772 0.228815 7.7645C0.191465 9.15181 -0.236288 12.1488 0.230595 13.601C0.697477 15.0523 2.21907 16.0617 2.21907 16.0617L5.44279 14.8949L7.28008 14.6717L11.4438 11.1625L12.9467 11.6668L13.9516 10.7526L16.1393 10.5329L17.8192 6.58351L19.1531 5.84539C19.1531 5.84539 20.3341 4.82003 19.9891 3.68795L19.99 3.68884Z" fill="#783E16"/>
<mask id="mask1_458_13901" style="mask-type:luminance" maskUnits="userSpaceOnUse" x="0" y="-1" width="21" height="18">
<path d="M19.99 3.68884C19.9428 3.53499 19.074 1.2904 16.6747 0.386866L10.8746 -0.0168762L10.0245 1.18457L6.15867 2.55498L4.59706 3.19261L3.9283 4.29801C3.9283 4.29801 0.267056 6.3772 0.228815 7.7645C0.191465 9.15181 -0.236288 12.1488 0.230595 13.601C0.697477 15.0523 2.21907 16.0617 2.21907 16.0617L5.44279 14.8949L7.28008 14.6717L11.4438 11.1625L12.9467 11.6668L13.9516 10.7526L16.1393 10.5329L17.8192 6.58351L19.1531 5.84539C19.1531 5.84539 20.3341 4.82003 19.9891 3.68795L19.99 3.68884Z" fill="white"/>
</mask>
<g mask="url(#mask1_458_13901)">
<path d="M19.0759 1.29306L20.706 5.55815L21.9395 4.21352L19.0759 1.29306Z" fill="#783E16"/>
<path d="M18.9283 1.14278L18.7896 1.08853L20.5593 5.71823L20.7061 5.55816L19.076 1.29307L18.9283 1.14278Z" fill="#783E16"/>
<path d="M18.7894 1.08854L18.5448 0.991608L20.4123 5.87831L20.5591 5.71824L18.7894 1.08854Z" fill="#783E16"/>
<path d="M18.5451 0.991618L18.3005 0.894684L20.2659 6.03751L20.4126 5.87832L18.5451 0.991618Z" fill="#783E16"/>
<path d="M18.3003 0.894663L18.0557 0.797729L20.1189 6.19756L20.2656 6.03749L18.3003 0.894663Z" fill="#783E16"/>
<path d="M18.056 0.797739L17.8114 0.700806L19.9724 6.35765L20.1191 6.19757L18.056 0.797739Z" fill="#783E16"/>
<path d="M17.8112 0.700816L17.5657 0.603882L19.8254 6.51773L19.9722 6.35766L17.8112 0.700816Z" fill="#783E16"/>
<path d="M17.5655 0.603861L17.3209 0.506927L19.6785 6.6769L19.8252 6.51771L17.5655 0.603861Z" fill="#783E16"/>
<path d="M17.3212 0.506937L17.0766 0.410004L19.532 6.83698L19.6787 6.67691L17.3212 0.506937Z" fill="#783E16"/>
<path d="M17.0769 0.410014L16.8323 0.31308L19.3855 6.99706L19.5322 6.83699L17.0769 0.410014Z" fill="#783E16"/>
<path d="M16.8321 0.313059L16.5866 0.216125L19.2394 7.15712L19.3853 6.99704L16.8321 0.313059Z" fill="#783E16"/>
<path d="M16.587 0.216135L16.3424 0.119202L19.093 7.31631L19.2397 7.15713L16.587 0.216135Z" fill="#783E16"/>
<path d="M16.3422 0.119207L16.0976 0.0231628L18.946 7.47639L19.0928 7.31632L16.3422 0.119207Z" fill="#783E16"/>
<path d="M16.0974 0.023173L15.8528 -0.073761L18.7991 7.63648L18.9458 7.4764L16.0974 0.023173Z" fill="#783E16"/>
<path d="M15.8531 -0.0737815L15.6085 -0.170715L18.6526 7.79564L18.7993 7.63646L15.8531 -0.0737815Z" fill="#783E16"/>
<path d="M15.6088 -0.170705L15.3633 -0.267639L18.5061 7.95572L18.6528 7.79565L15.6088 -0.170705Z" fill="#783E16"/>
<path d="M15.3631 -0.267629L15.1185 -0.364563L18.3591 8.11581L18.5059 7.95573L15.3631 -0.267629Z" fill="#783E16"/>
<path d="M15.1183 -0.364584L14.8737 -0.461517L18.2122 8.27586L18.3589 8.11579L15.1183 -0.364584Z" fill="#783E16"/>
<path d="M14.874 -0.461507L14.6294 -0.558441L18.0657 8.43506L18.2124 8.27587L14.874 -0.461507Z" fill="#783E16"/>
<path d="M14.6292 -0.558431L14.3846 -0.655365L17.9187 8.59514L18.0654 8.43507L14.6292 -0.558431Z" fill="#783E16"/>
<path d="M14.3849 -0.655386L14.1394 -0.752319L17.7722 8.75519L17.9189 8.59512L14.3849 -0.655386Z" fill="#783E16"/>
<path d="M14.1397 -0.75234L13.8951 -0.849274L17.6257 8.91525L17.7725 8.75517L14.1397 -0.75234Z" fill="#783E16"/>
<path d="M13.8949 -0.849233L13.6503 -0.946167L17.4796 9.07447L17.6255 8.91529L13.8949 -0.849233Z" fill="#783E16"/>
<path d="M13.6502 -0.946188L13.4056 -1.04312L17.3328 9.23453L17.4795 9.07445L13.6502 -0.946188Z" fill="#783E16"/>
<path d="M13.4059 -1.04314L13.1604 -1.14008L17.1863 9.39458L17.333 9.2345L13.4059 -1.04314Z" fill="#783E16"/>
<path d="M13.1602 -1.14004L12.9156 -1.23608L17.0393 9.5538L17.186 9.39462L13.1602 -1.14004Z" fill="#783E16"/>
<path d="M12.9154 -1.2361L12.6708 -1.33304L16.8923 9.71385L17.0391 9.55378L12.9154 -1.2361Z" fill="#783E16"/>
<path d="M12.6711 -1.33303L12.4265 -1.42996L16.7458 9.87394L16.8926 9.71386L12.6711 -1.33303Z" fill="#783E16"/>
<path d="M12.4268 -1.42998L12.1822 -1.52692L16.5994 10.034L16.7461 9.87392L12.4268 -1.42998Z" fill="#783E16"/>
<path d="M12.182 -1.52688L11.9365 -1.62381L16.4524 10.1932L16.5991 10.034L12.182 -1.52688Z" fill="#783E16"/>
<path d="M11.9368 -1.62383L11.6922 -1.72076L16.3059 10.3533L16.4526 10.1932L11.9368 -1.62383Z" fill="#783E16"/>
<path d="M11.692 -1.72078L11.4474 -1.81772L16.1589 10.5133L16.3057 10.3532L11.692 -1.72078Z" fill="#783E16"/>
<path d="M11.4472 -1.81768L11.2026 -1.91461L16.012 10.6734L16.1587 10.5134L11.4472 -1.81768Z" fill="#783E16"/>
<path d="M11.2029 -1.91463L10.9583 -2.01157L15.8655 10.8326L16.0122 10.6734L11.2029 -1.91463Z" fill="#783E16"/>
<path d="M10.9586 -2.01159L10.7131 -2.10852L15.719 10.9927L15.8657 10.8326L10.9586 -2.01159Z" fill="#783E16"/>
<path d="M10.7129 -2.10848L10.4683 -2.20541L15.5729 11.1528L15.7188 10.9927L10.7129 -2.10848Z" fill="#783E16"/>
<path d="M10.4583 -2.21166L10.2129 -2.30859L15.4153 11.3057L15.562 11.1456L10.4583 -2.21166Z" fill="#783E16"/>
<path d="M10.2239 -2.30239L9.9793 -2.39932L15.2795 11.472L15.4263 11.3119L10.2239 -2.30239Z" fill="#783E16"/>
<path d="M9.97906 -2.39928L9.73362 -2.49622L15.1326 11.6321L15.2793 11.472L9.97906 -2.39928Z" fill="#783E16"/>
<path d="M9.73387 -2.49624L9.48931 -2.59229L14.9861 11.7922L15.1328 11.6321L9.73387 -2.49624Z" fill="#783E16"/>
<path d="M9.48956 -2.59228L9.245 -2.68921L14.8396 11.9513L14.9863 11.7922L9.48956 -2.59228Z" fill="#783E16"/>
<path d="M9.24477 -2.68923L9.00021 -2.78616L14.6926 12.1114L14.8394 11.9513L9.24477 -2.68923Z" fill="#783E16"/>
<path d="M8.99997 -2.78614L8.76253 -2.8804L8.75808 -2.87596L14.5456 12.2715L14.6924 12.1114L8.99997 -2.78614Z" fill="#783E16"/>
<path d="M8.61159 -2.7159L14.3992 12.4307L14.5459 12.2715L8.75833 -2.87598L8.61159 -2.7159Z" fill="#783E16"/>
<path d="M8.46462 -2.55581L14.2522 12.5908L14.3989 12.4307L8.61136 -2.71588L8.46462 -2.55581Z" fill="#783E16"/>
<path d="M8.31814 -2.39663L14.1057 12.7508L14.2524 12.5908L8.46487 -2.55582L8.31814 -2.39663Z" fill="#783E16"/>
<path d="M8.17116 -2.23653L13.9587 12.9109L14.1055 12.7509L8.3179 -2.39661L8.17116 -2.23653Z" fill="#783E16"/>
<path d="M8.02468 -2.07647L13.8131 13.0701L13.959 12.9109L8.17142 -2.23654L8.02468 -2.07647Z" fill="#783E16"/>
<path d="M7.87779 -1.9164L13.6663 13.2302L13.813 13.0701L8.02453 -2.07648L7.87779 -1.9164Z" fill="#783E16"/>
<path d="M7.73131 -1.75723L13.5198 13.3902L13.6665 13.2302L7.87805 -1.91641L7.73131 -1.75723Z" fill="#783E16"/>
<path d="M7.58434 -1.59716L13.3728 13.5503L13.5195 13.3902L7.73107 -1.75723L7.58434 -1.59716Z" fill="#783E16"/>
<path d="M7.43825 -1.43709L13.2258 13.7095L13.3726 13.5503L7.5841 -1.59717L7.43825 -1.43709Z" fill="#783E16"/>
<path d="M7.29177 -1.27703L13.0793 13.8695L13.2261 13.7095L7.43851 -1.4371L7.29177 -1.27703Z" fill="#783E16"/>
<path d="M7.14529 -1.11782L12.9329 14.0296L13.0796 13.8696L7.29202 -1.27701L7.14529 -1.11782Z" fill="#783E16"/>
<path d="M6.99831 -0.957754L12.7859 14.1888L12.9326 14.0296L7.14505 -1.11783L6.99831 -0.957754Z" fill="#783E16"/>
<path d="M6.85134 -0.797659L12.6389 14.3489L12.7856 14.1888L6.99808 -0.957733L6.85134 -0.797659Z" fill="#783E16"/>
<path d="M6.70486 -0.638484L12.4924 14.509L12.6392 14.3489L6.85159 -0.797668L6.70486 -0.638484Z" fill="#783E16"/>
<path d="M6.55788 -0.478384L12.3455 14.6691L12.4922 14.509L6.70462 -0.638458L6.55788 -0.478384Z" fill="#783E16"/>
<path d="M1.49623 15.8661L8.64977 18.6967L12.3457 14.6691L6.55813 -0.478394L-3.63681 10.6316L1.49623 15.8661Z" fill="#783E16"/>
</g>
<mask id="mask2_458_13901" style="mask-type:luminance" maskUnits="userSpaceOnUse" x="0" y="0" width="20" height="16">
<path d="M19.4707 3.84536C19.4272 3.70218 18.617 1.6061 16.3475 0.775496L11.1104 0.329956L10.2656 1.49049L6.37224 2.88403L4.896 3.49765L4.23436 4.51767C4.23436 4.51767 0.748299 6.48659 0.703835 7.78585C0.659369 9.08423 0.235172 11.8926 0.669151 13.2488C1.10313 14.6041 2.54024 15.5397 2.54024 15.5397L5.60477 14.4271L7.06055 14.252L11.3194 10.8957L12.7423 11.3582L13.701 10.4964L15.7775 10.2768L17.396 6.57018L18.6659 5.8703C18.6659 5.8703 19.7927 4.90274 19.4725 3.84625L19.4707 3.84536Z" fill="white"/>
</mask>
<g mask="url(#mask2_458_13901)">
<path d="M18.6187 1.60785L20.1367 5.59014L21.3159 4.32377L18.6187 1.60785Z" fill="#C6C6C6"/>
<path d="M18.48 1.4682L18.3483 1.41751L19.9971 5.7404L20.1367 5.59011L18.6187 1.60782L18.48 1.4682Z" fill="#C6C6C6"/>
<path d="M18.3483 1.41751L18.1171 1.32858L19.8566 5.8907L19.9971 5.7404L18.3483 1.41751Z" fill="#C7C7C7"/>
<path d="M18.117 1.32862L17.8849 1.23969L19.7168 6.04191L19.8564 5.89073L18.117 1.32862Z" fill="#C8C8C8"/>
<path d="M17.8848 1.23966L17.6536 1.15073L19.5763 6.19217L19.7168 6.04188L17.8848 1.23966Z" fill="#C9C9C9"/>
<path d="M17.6535 1.15073L17.4223 1.0618L19.4366 6.34247L19.5762 6.19217L17.6535 1.15073Z" fill="#CACACA"/>
<path d="M17.4227 1.0618L17.1906 0.971985L19.2965 6.49276L19.437 6.34247L17.4227 1.0618Z" fill="#CBCBCB"/>
<path d="M17.1905 0.971987L16.9593 0.883057L19.1568 6.64395L19.2964 6.49276" fill="#CCCCCC"/>
<path d="M16.9593 0.883028L16.7281 0.794098L19.0162 6.79421L19.1567 6.64392L16.9593 0.883028Z" fill="#CDCDCD"/>
<path d="M16.7284 0.7941L16.4963 0.70517L18.877 6.9445L19.0166 6.79421L16.7284 0.7941Z" fill="#CECECE"/>
<path d="M16.4963 0.705176L16.2651 0.615356L18.7364 7.09569L18.877 6.94451L16.4963 0.705176Z" fill="#CFCFCF"/>
<path d="M16.265 0.615358L16.0337 0.526428L18.5958 7.24598L18.7363 7.09569L16.265 0.615358Z" fill="#D0D0D0"/>
<path d="M16.0336 0.526461L15.8015 0.437531L18.4561 7.39631L18.5957 7.24602L16.0336 0.526461Z" fill="#D1D1D1"/>
<path d="M15.8015 0.437532L15.5703 0.348602L18.3155 7.5466L18.4561 7.39631L15.8015 0.437532Z" fill="#D2D2D2"/>
<path d="M15.5702 0.348574L15.3389 0.259644L18.1758 7.69775L18.3154 7.54657L15.5702 0.348574Z" fill="#D3D3D3"/>
<path d="M15.3389 0.25965L15.1068 0.16983L18.0353 7.84805L18.1758 7.69776L15.3389 0.25965Z" fill="#D4D4D4"/>
<path d="M15.1067 0.169832L14.8755 0.0809021L17.8955 7.99835L18.0352 7.84805L15.1067 0.169832Z" fill="#D5D5D5"/>
<path d="M14.8759 0.080904L14.6447 -0.00802612L17.7555 8.14864L17.896 7.99835L14.8759 0.080904Z" fill="#D6D6D6"/>
<path d="M14.6446 -0.00805479L14.4125 -0.0969849L17.6158 8.29979L17.7554 8.14861L14.6446 -0.00805479Z" fill="#D7D7D7"/>
<path d="M14.4125 -0.0969525L14.1812 -0.185883L17.4752 8.45012L17.6157 8.29982L14.4125 -0.0969525Z" fill="#D8D8D8"/>
<path d="M14.1811 -0.185907L13.9499 -0.275726L17.3355 8.60038L17.4751 8.45009L14.1811 -0.185907Z" fill="#D9D9D9"/>
<path d="M13.9499 -0.275694L13.7178 -0.364624L17.1949 8.75071L17.3354 8.60042L13.9499 -0.275694Z" fill="#DADADA"/>
<path d="M13.7177 -0.364622L13.4864 -0.453552L17.0543 8.90189L17.1948 8.75071L13.7177 -0.364622Z" fill="#DBDBDB"/>
<path d="M13.4863 -0.453581L13.2551 -0.542511L16.9146 9.05215L17.0542 8.90186L13.4863 -0.453581Z" fill="#DCDCDC"/>
<path d="M13.2551 -0.542474L13.023 -0.632294L16.774 9.20248L16.9146 9.05219L13.2551 -0.542474Z" fill="#DDDDDD"/>
<path d="M13.0233 -0.632322L12.7921 -0.721252L16.6348 9.35364L16.7744 9.20245L13.0233 -0.632322Z" fill="#DEDEDE"/>
<path d="M12.7921 -0.721251L12.5609 -0.810181L16.4943 9.50393L16.6348 9.35364L12.7921 -0.721251Z" fill="#DFDFDF"/>
<path d="M12.5608 -0.810179L12.3287 -0.899109L16.3545 9.65422L16.4941 9.50393L12.5608 -0.810179Z" fill="#E0E0E0"/>
<path d="M12.3286 -0.899077L12.0974 -0.988007L16.214 9.80455L16.3545 9.65425L12.3286 -0.899077Z" fill="#E1E1E1"/>
<path d="M12.0978 -0.988061L11.8666 -1.07788L16.0747 9.95567L16.2144 9.80449L12.0978 -0.988061Z" fill="#E3E3E3"/>
<path d="M11.866 -1.07785L11.6339 -1.16678L15.9337 10.106L16.0742 9.9557L11.866 -1.07785Z" fill="#E4E4E4"/>
<path d="M11.6343 -1.16678L11.4031 -1.25571L15.7936 10.2563L15.9341 10.106L11.6343 -1.16678Z" fill="#E5E5E5"/>
<path d="M11.403 -1.2557L11.1718 -1.34464L15.6538 10.4066L15.7935 10.2563L11.403 -1.2557Z" fill="#E6E6E6"/>
<path d="M11.1717 -1.34463L10.9396 -1.43445L15.5133 10.5578L15.6538 10.4066L11.1717 -1.34463Z" fill="#E7E7E7"/>
<path d="M10.9395 -1.43448L10.7083 -1.52341L15.3736 10.708L15.5132 10.5577L10.9395 -1.43448Z" fill="#E8E8E8"/>
<path d="M10.7083 -1.52341L10.477 -1.61234L15.233 10.8583L15.3735 10.708L10.7083 -1.52341Z" fill="#E9E9E9"/>
<path d="M10.4774 -1.61233L10.2453 -1.70126L15.0938 11.0095L15.2334 10.8583L10.4774 -1.61233Z" fill="#EAEAEA"/>
<path d="M10.2453 -1.70123L10.0141 -1.79016L14.9532 11.1598L15.0938 11.0095L10.2453 -1.70123Z" fill="#EBEBEB"/>
<path d="M10.0139 -1.79019L9.78184 -1.88L14.8135 11.3101L14.9531 11.1598L10.0139 -1.79019Z" fill="#ECECEC"/>
<path d="M9.78181 -1.88003L9.55059 -1.96896L14.673 11.4604L14.8135 11.3101L9.78181 -1.88003Z" fill="#EDEDED"/>
<path d="M9.55048 -1.96893L9.31926 -2.05786L14.5332 11.6116L14.6729 11.4604L9.55048 -1.96893Z" fill="#EEEEEE"/>
<path d="M9.31923 -2.05786L9.08713 -2.14679L14.3927 11.7619L14.5332 11.6116L9.31923 -2.05786Z" fill="#EFEFEF"/>
<path d="M9.08701 -2.1468L8.86291 -2.23395L8.85846 -2.2295L14.2521 11.9122L14.3926 11.7619L9.08701 -2.1468Z" fill="#F0F0F0"/>
<path d="M8.71872 -2.07831L14.1123 12.0625L14.252 11.9122L8.85834 -2.22949L8.71872 -2.07831Z" fill="#F1F1F1"/>
<path d="M8.57868 -1.92802L13.9723 12.2136L14.1128 12.0625L8.71918 -2.07831L8.57868 -1.92802Z" fill="#F2F2F2"/>
<path d="M8.43894 -1.77775L13.8325 12.3639L13.9722 12.2136L8.57856 -1.92804L8.43894 -1.77775Z" fill="#F3F3F3"/>
<path d="M8.2984 -1.62742L13.692 12.5142L13.8325 12.3639L8.43891 -1.77771L8.2984 -1.62742Z" fill="#F4F4F4"/>
<path d="M8.15827 -1.47626L13.5528 12.6645L13.6924 12.5142L8.29877 -1.62744L8.15827 -1.47626Z" fill="#F5F5F5"/>
<path d="M8.01813 -1.32597L13.4117 12.8157L13.5522 12.6645L8.15775 -1.47626L8.01813 -1.32597Z" fill="#F6F6F6"/>
<path d="M7.87799 -1.17567L13.2725 12.966L13.4121 12.8157L8.0185 -1.32596L7.87799 -1.17567Z" fill="#F7F7F7"/>
<path d="M7.73785 -1.02451L13.1315 13.1163L13.272 12.966L7.87747 -1.17569L7.73785 -1.02451Z" fill="#F8F8F8"/>
<path d="M7.59772 -0.874214L12.9913 13.2674L13.1318 13.1163L7.73823 -1.02451L7.59772 -0.874214Z" fill="#F9F9F9"/>
<path d="M7.45798 -0.723915L12.8516 13.4177L12.9912 13.2675L7.5976 -0.874207L7.45798 -0.723915Z" fill="#FAFAFA"/>
<path d="M7.31744 -0.573616L12.7111 13.568L12.8516 13.4178L7.45795 -0.723907L7.31744 -0.573616Z" fill="#FBFBFB"/>
<path d="M7.17771 -0.422458L12.5713 13.7183L12.7109 13.568L7.31733 -0.573639L7.17771 -0.422458Z" fill="#FCFCFC"/>
<path d="M7.03766 -0.272132L12.4313 13.8695L12.5718 13.7183L7.17817 -0.422424L7.03766 -0.272132Z" fill="#FDFDFD"/>
<path d="M6.89703 -0.121864L12.2915 14.0198L12.4312 13.8695L7.03754 -0.272156L6.89703 -0.121864Z" fill="#FEFEFE"/>
<path d="M6.75739 0.0284045L12.151 14.1701L12.2915 14.0198L6.89701 -0.121887L6.75739 0.0284045Z" fill="white"/>
<path d="M1.85278 15.3591L8.61947 17.9639L12.1509 14.1701L6.75727 0.0284424L-2.98235 10.4928L1.85278 15.3591Z" fill="white"/>
</g>
<path d="M1.48903 12.4227C1.52727 11.5769 2.55708 9.63915 2.92436 8.76407C3.29164 7.889 6.30726 6.0855 6.30726 6.0855L6.85418 5.18375L8.16056 4.60926L9.45983 4.05612L9.60123 3.99564L9.74263 3.93517L9.88402 3.8747L10.0254 3.81423L10.1668 3.75375L10.3082 3.69328L10.4496 3.63281L10.591 3.57234L10.7324 3.51186L10.8738 3.45139L11.0152 3.39092L11.1566 3.33045L11.298 3.26997L11.4296 3.21395L11.4385 3.20505L11.5781 3.0681L11.7178 2.93115L11.8574 2.7942L11.997 2.65725L12.1366 2.52029L12.2762 2.38334L12.3394 2.32109L12.4168 2.3122L12.559 2.2953L12.7013 2.2784L12.8436 2.26151L12.9859 2.24461L13.1282 2.22771L13.2705 2.21082L13.4128 2.19392L13.5551 2.17702L13.6973 2.16013L13.8396 2.14323L13.9819 2.12633L14.1242 2.10944L14.2665 2.09254L14.4088 2.07564L14.5511 2.05875L14.6934 2.04185L14.8357 2.02495L14.9779 2.00806L15.1202 1.99116L15.2625 1.97426L15.4048 1.95737L15.5471 1.94047L15.6894 1.92357L15.8317 1.90668L15.974 1.88978L15.9891 1.888C16.0326 1.89511 16.0753 1.90401 16.1171 1.9129C16.1669 1.92446 16.215 1.93691 16.2612 1.95114C16.311 1.96626 16.359 1.98316 16.4053 2.00094C16.456 2.02051 16.504 2.04096 16.5493 2.06408C16.6009 2.08987 16.6489 2.11655 16.6943 2.1459C16.7459 2.1788 16.7948 2.2126 16.8401 2.24906C16.8935 2.29174 16.9424 2.33621 16.9869 2.38245C17.042 2.44026 17.0918 2.49984 17.1345 2.5612C17.195 2.64746 17.2448 2.7355 17.2839 2.82177C17.4386 3.15881 17.4466 3.46384 17.444 3.50564C17.4351 3.63814 17.3862 3.77599 17.3132 3.91205C17.2732 3.98586 17.227 4.05878 17.1763 4.12993C17.1327 4.1904 17.0865 4.24998 17.0384 4.30779C16.9931 4.36204 16.9469 4.41361 16.8997 4.46342C16.8526 4.51322 16.8063 4.56035 16.761 4.6057C16.7121 4.65284 16.6658 4.6973 16.6214 4.73732C16.5698 4.78445 16.5227 4.82536 16.4817 4.86004C16.3973 4.93208 16.3421 4.97298 16.3421 4.97298L16.2016 5.05569L16.0611 5.13839L15.9206 5.2211L15.7801 5.3038L15.6396 5.38651L15.4991 5.46921L15.3586 5.55192L15.2492 5.61684L15.2189 5.65597L15.0811 5.83205L14.9433 6.00813L14.8054 6.18421L14.6676 6.36029L14.5297 6.53638L14.3919 6.71246L14.254 6.88854L14.1162 7.06462L13.9784 7.2407L13.8405 7.41678L13.7027 7.59286L13.5648 7.76895L13.427 7.94503L13.2892 8.12111L13.1513 8.29719L13.1335 8.32031L13.0099 8.355L12.8685 8.39501L12.7271 8.43503L12.5857 8.47505L12.4443 8.51507L12.3029 8.55509L12.1615 8.59511L12.0201 8.63513L11.8787 8.67514L11.7373 8.71516L11.5959 8.75518L11.587 8.75785L11.4563 8.86012L11.3167 8.9695L11.1771 9.07889L11.0374 9.18827L10.8978 9.29765L10.7582 9.40704L10.6764 9.47107L10.6168 9.46395L10.4736 9.44617L10.3305 9.42838L10.1873 9.4106L10.0441 9.39281L9.90092 9.37502L9.77286 9.35902L9.75774 9.37058L9.61812 9.47551L6.06181 12.1292L4.75098 12.5205L2.25916 13.6926C2.25916 13.6926 1.46679 13.2675 1.50503 12.4218L1.48903 12.4227Z" fill="url(#paint2_linear_458_13901)"/>
<path d="M1.48903 12.4227C1.52727 11.5769 2.55708 9.63915 2.92436 8.76407C3.29164 7.889 6.30726 6.0855 6.30726 6.0855L6.85418 5.18375L8.16056 4.60926L9.45983 4.05612L9.60123 3.99564L9.74263 3.93517L9.88402 3.8747L10.0254 3.81423L10.1668 3.75375L10.3082 3.69328L10.4496 3.63281L10.591 3.57234L10.7324 3.51186L10.8738 3.45139L11.0152 3.39092L11.1566 3.33045L11.298 3.26997L11.4296 3.21395L11.4385 3.20505L11.5781 3.0681L11.7178 2.93115L11.8574 2.7942L11.997 2.65725L12.1366 2.52029L12.2762 2.38334L12.3394 2.32109L12.4168 2.3122L12.559 2.2953L12.7013 2.2784L12.8436 2.26151L12.9859 2.24461L13.1282 2.22771L13.2705 2.21082L13.4128 2.19392L13.5551 2.17702L13.6973 2.16013L13.8396 2.14323L13.9819 2.12633L14.1242 2.10944L14.2665 2.09254L14.4088 2.07564L14.5511 2.05875L14.6934 2.04185L14.8357 2.02495L14.9779 2.00806L15.1202 1.99116L15.2625 1.97426L15.4048 1.95737L15.5471 1.94047L15.6894 1.92357L15.8317 1.90668L15.974 1.88978L15.9891 1.888C16.0326 1.89511 16.0753 1.90401 16.1171 1.9129C16.1669 1.92446 16.215 1.93691 16.2612 1.95114C16.311 1.96626 16.359 1.98316 16.4053 2.00094C16.456 2.02051 16.504 2.04096 16.5493 2.06408C16.6009 2.08987 16.6489 2.11655 16.6943 2.1459C16.7459 2.1788 16.7948 2.2126 16.8401 2.24906C16.8935 2.29174 16.9424 2.33621 16.9869 2.38245C17.042 2.44026 17.0918 2.49984 17.1345 2.5612C17.195 2.64746 17.2448 2.7355 17.2839 2.82177C17.4386 3.15881 17.4466 3.46384 17.444 3.50564C17.4351 3.63814 17.3862 3.77599 17.3132 3.91205C17.2732 3.98586 17.227 4.05878 17.1763 4.12993C17.1327 4.1904 17.0865 4.24998 17.0384 4.30779C16.9931 4.36204 16.9469 4.41361 16.8997 4.46342C16.8526 4.51322 16.8063 4.56035 16.761 4.6057C16.7121 4.65284 16.6658 4.6973 16.6214 4.73732C16.5698 4.78445 16.5227 4.82536 16.4817 4.86004C16.3973 4.93208 16.3421 4.97298 16.3421 4.97298L16.2016 5.05569L16.0611 5.13839L15.9206 5.2211L15.7801 5.3038L15.6396 5.38651L15.4991 5.46921L15.3586 5.55192L15.2492 5.61684L15.2189 5.65597L15.0811 5.83205L14.9433 6.00813L14.8054 6.18421L14.6676 6.36029L14.5297 6.53638L14.3919 6.71246L14.254 6.88854L14.1162 7.06462L13.9784 7.2407L13.8405 7.41678L13.7027 7.59286L13.5648 7.76895L13.427 7.94503L13.2892 8.12111L13.1513 8.29719L13.1335 8.32031L13.0099 8.355L12.8685 8.39501L12.7271 8.43503L12.5857 8.47505L12.4443 8.51507L12.3029 8.55509L12.1615 8.59511L12.0201 8.63513L11.8787 8.67514L11.7373 8.71516L11.5959 8.75518L11.587 8.75785L11.4563 8.86012L11.3167 8.9695L11.1771 9.07889L11.0374 9.18827L10.8978 9.29765L10.7582 9.40704L10.6764 9.47107L10.6168 9.46395L10.4736 9.44617L10.3305 9.42838L10.1873 9.4106L10.0441 9.39281L9.90092 9.37502L9.77286 9.35902L9.75774 9.37058L9.61812 9.47551L6.06181 12.1292L4.75098 12.5205L2.25916 13.6926C2.25916 13.6926 1.46679 13.2675 1.50503 12.4218L1.48903 12.4227Z" stroke="url(#paint3_linear_458_13901)" stroke-width="0.35" stroke-miterlimit="10"/>
<path style="mix-blend-mode:overlay" opacity="0.21" d="M15.0689 5.47363C15.1249 5.50476 20.145 7.696 20.145 7.696C20.145 7.696 16.3388 10.6093 16.2792 10.5933C16.2188 10.5773 12.6118 7.88808 12.6118 7.88808L15.0689 5.47363Z" fill="url(#paint4_linear_458_13901)"/>
<path style="mix-blend-mode:multiply" opacity="0.24" d="M16.2783 10.5925C16.2525 10.5693 12.6108 7.88721 12.6108 7.88721L11.2306 8.47415L14.3032 10.9953L16.2774 10.5916L16.2783 10.5925Z" fill="url(#paint5_linear_458_13901)"/>
<path style="mix-blend-mode:overlay" opacity="0.21" d="M14.1475 10.8584L10.857 8.15759L10.6596 9.34392L13.3453 11.9309C13.3453 11.9309 14.1137 10.8655 14.1475 10.8593V10.8584Z" fill="url(#paint6_linear_458_13901)"/>
<path style="mix-blend-mode:multiply" opacity="0.24" d="M13.3452 11.93L9.88495 8.72491L9.60126 9.21225L11.8361 11.4373L13.3452 11.93Z" fill="url(#paint7_linear_458_13901)"/>
<path style="mix-blend-mode:overlay" opacity="0.21" d="M11.8369 11.4933L9.07119 8.66803L5.95152 12.0225L7.7568 15.6686L11.8369 11.4933Z" fill="url(#paint8_linear_458_13901)"/>
<path style="mix-blend-mode:multiply" opacity="0.24" d="M7.75684 15.6686L5.72034 11.1723L4.4771 12.1185L6.19345 15.7398L7.75684 15.6686Z" fill="url(#paint9_linear_458_13901)"/>
<path style="mix-blend-mode:overlay" opacity="0.21" d="M5.84424 15.0025L4.26573 11.6187L2.25769 13.5263L2.73791 16.8647L5.84424 15.0025Z" fill="url(#paint10_linear_458_13901)"/>
<path style="mix-blend-mode:multiply" opacity="0.24" d="M2.54034 15.6215L2.11525 12.6761C2.11525 12.6761 3.23577 8.5275 3.21354 8.52128C3.19131 8.51505 -0.859456 7.05927 -0.859456 7.05927L-0.817658 14.3435L2.54034 15.6223V15.6215Z" fill="url(#paint11_linear_458_13901)"/>
<path style="mix-blend-mode:overlay" opacity="0.21" d="M3.29582 8.54353L-0.994166 6.99081L3.90321 4.20908L6.56934 6.26781L3.29582 8.54353Z" fill="url(#paint12_linear_458_13901)"/>
<path style="mix-blend-mode:multiply" opacity="0.24" d="M3.84547 4.18508L7.13232 6.74805L6.9767 5.25847L3.79033 2.56122L3.84547 4.18508Z" fill="url(#paint13_linear_458_13901)"/>
<path style="mix-blend-mode:overlay" opacity="0.21" d="M7.03556 5.25042L3.48369 2.29439L9.9916 1.09561L11.5879 3.54297L7.03556 5.25042Z" fill="url(#paint14_linear_458_13901)"/>
<path style="mix-blend-mode:multiply" opacity="0.24" d="M9.99129 1.09563L10.8877 -0.00799561L12.5996 2.7684L11.5876 3.54298L9.99129 1.09563Z" fill="url(#paint15_linear_458_13901)"/>
<path style="mix-blend-mode:overlay" opacity="0.21" d="M12.3658 2.362L10.6503 -0.382385L16.7305 0.304155L15.9105 2.04185L12.3658 2.362Z" fill="url(#paint16_linear_458_13901)"/>
<path style="mix-blend-mode:overlay" opacity="0.67" d="M15.0689 5.47363C15.1249 5.50476 20.145 7.696 20.145 7.696C20.145 7.696 16.3388 10.6093 16.2792 10.5933C16.2188 10.5773 12.6118 7.88808 12.6118 7.88808L15.0689 5.47363Z" fill="url(#paint17_linear_458_13901)"/>
<path style="mix-blend-mode:overlay" opacity="0.67" d="M14.1475 10.8584L10.857 8.15759L10.6596 9.34392L13.3453 11.9309C13.3453 11.9309 14.1137 10.8655 14.1475 10.8593V10.8584Z" fill="url(#paint18_linear_458_13901)"/>
<path style="mix-blend-mode:overlay" opacity="0.67" d="M11.8369 11.4933L9.07119 8.66803L5.95152 12.0225L7.7568 15.6686L11.8369 11.4933Z" fill="url(#paint19_linear_458_13901)"/>
<path style="mix-blend-mode:overlay" opacity="0.67" d="M5.84424 15.0025L4.26573 11.6187L2.25769 13.5263L2.73791 16.8647L5.84424 15.0025Z" fill="url(#paint20_linear_458_13901)"/>
<path style="mix-blend-mode:overlay" opacity="0.67" d="M3.29582 8.54353L-0.994166 6.99081L3.90321 4.20908L6.56934 6.26781L3.29582 8.54353Z" fill="url(#paint21_linear_458_13901)"/>
<path style="mix-blend-mode:overlay" opacity="0.67" d="M7.03556 5.25042L3.48369 2.29439L9.9916 1.09561L11.5879 3.54297L7.03556 5.25042Z" fill="url(#paint22_linear_458_13901)"/>
<path style="mix-blend-mode:overlay" opacity="0.67" d="M12.3658 2.362L10.6503 -0.382385L16.7305 0.304155L15.9105 2.04185L12.3658 2.362Z" fill="url(#paint23_linear_458_13901)"/>
</g>
<path d="M6.37122 6.04815L6.91814 5.1464L8.22453 4.57191L9.52379 4.01876L9.66519 3.95829L9.80659 3.89782L9.94799 3.83734L10.0894 3.77687L10.2308 3.7164L10.3722 3.65593L10.5136 3.59545L10.655 3.53498L10.7964 3.47451L10.9378 3.41404L11.0792 3.35356L11.2206 3.29309L11.362 3.23262L11.4936 3.17659L11.5025 3.1677L11.6421 3.03075L11.7817 2.8938L11.9213 2.75684L12.061 2.61989L12.2006 2.48294L12.3402 2.34599L12.4033 2.28374L12.4807 2.27484L12.623 2.25795L12.7653 2.24105L12.9076 2.22415L13.0499 2.20726L13.1922 2.19036L13.3344 2.17346L13.4767 2.15657L13.619 2.13967L13.7613 2.12277L13.9036 2.10588L14.0459 2.08898L14.1882 2.07208L14.3305 2.05519L14.4728 2.03829L14.615 2.02139L14.7573 2.0045L14.8996 1.9876L15.0419 1.9707L15.1842 1.95381L15.3265 1.93691L15.4688 1.92001L15.6111 1.90312L15.7533 1.88622L15.8956 1.86932L16.0379 1.85243L16.053 1.85065C16.0966 1.85776 16.1393 1.86665 16.1811 1.87555C16.2309 1.88711 16.2789 1.89956 16.3252 1.91379C16.375 1.92891 16.423 1.9458 16.4692 1.96359C16.5199 1.98315 16.5679 2.00361 16.6133 2.02673C16.6649 2.05252 16.7129 2.0792 16.7583 2.10854C16.8098 2.14145 16.8587 2.17524 16.9041 2.2117C16.9575 2.25439 17.0064 2.29885 17.0508 2.3451C17.106 2.4029 17.1558 2.46249 17.1985 2.52385C17.2589 2.61011 17.3087 2.69815 17.3479 2.78441C17.5026 3.12146 17.5106 3.42649 17.5079 3.46828C17.499 3.60079 17.4501 3.73863 17.3772 3.8747C17.3372 3.94851 17.2909 4.02143 17.2403 4.09257C17.1967 4.15305 17.1504 4.21263 17.1024 4.27043C17.0571 4.32468 17.0108 4.37626 16.9637 4.42606C16.9165 4.47586 16.8703 4.52389 16.825 4.56835C16.776 4.61548 16.7298 4.65995 16.6853 4.69997C16.6338 4.7471 16.5866 4.78801 16.5457 4.82269C16.4612 4.89472 16.4061 4.93563 16.4061 4.93563L16.2656 5.01834L16.1251 5.10104L15.9846 5.18375L15.8441 5.26645L15.7035 5.34916L15.563 5.43186L15.4225 5.51457L15.3131 5.57948L15.2829 5.61861L15.1451 5.7947L15.0072 5.97078L14.8694 6.14686L14.7315 6.32294L14.5937 6.49902L14.4559 6.6751L14.318 6.85118L14.1802 7.02727L14.0423 7.20335L13.9045 7.37943L13.7666 7.55551L13.6288 7.73159L13.491 7.90767L13.3531 8.08376L13.2153 8.25984L13.1975 8.28296L13.0739 8.31764L12.9325 8.35766L12.7911 8.39768L12.6497 8.4377L12.5083 8.47772L12.3669 8.51773L12.2255 8.55775L12.0841 8.59777L11.9427 8.63779L11.8013 8.67781L11.6599 8.71783L11.651 8.72049L11.5203 8.82277L11.3807 8.93215L11.241 9.04153L11.1014 9.15092L10.9618 9.2603L10.8222 9.36968L10.7404 9.43371L10.6808 9.4266L10.5376 9.40881L10.3944 9.39103L10.2512 9.37324L10.1081 9.35546L9.96489 9.33767L9.83683 9.32166L9.82171 9.33322L9.68209 9.43816L6.12578 12.0918L4.81495 12.4831L2.32313 13.6552C2.32313 13.6552 1.53076 13.2301 1.569 12.3844C1.60724 11.5387 2.63705 9.6009 3.00433 8.72583C3.37161 7.85076 6.38723 6.04637 6.38723 6.04637L6.37122 6.04815Z" fill="url(#paint24_linear_458_13901)"/>
<path d="M6.3755 6.05084L6.92242 5.14909L8.22791 4.57371L9.52629 4.02056L9.66769 3.96009L9.80909 3.89962L9.95049 3.83914L10.0919 3.77867L10.2333 3.7182L10.3747 3.65773L10.5161 3.59726L10.6575 3.53678L10.7989 3.47631L10.9403 3.41584L11.0817 3.35537L11.2231 3.29489L11.3645 3.23442L11.4961 3.17839L11.505 3.1695L11.6437 3.03255L11.7824 2.8956L11.9212 2.75864L12.0599 2.62169L12.1986 2.48474L12.3374 2.34779L12.4005 2.28554L12.4779 2.27664L12.6202 2.25975L12.7625 2.24285L12.9047 2.22595L13.047 2.20906L13.1893 2.19216L13.3316 2.17526L13.4739 2.15837L13.6162 2.14147L13.7585 2.12457L13.9008 2.10768L14.0431 2.09078L14.1853 2.07388L14.3276 2.05699L14.4699 2.04009L14.6122 2.02319L14.7545 2.0063L14.8968 1.9894L15.0391 1.9725L15.1814 1.95561L15.3236 1.93871L15.4659 1.92181L15.6082 1.90492L15.7505 1.88802L15.8928 1.87112L16.0351 1.85423L16.0502 1.85245C16.0938 1.85956 16.1365 1.86845 16.1783 1.87735C16.2281 1.88891 16.2761 1.90136 16.3223 1.91559C16.3721 1.93071 16.4202 1.9476 16.4664 1.96539C16.5171 1.98495 16.5651 2.00541 16.6105 2.02853C16.662 2.05432 16.7101 2.081 16.7554 2.11034C16.807 2.14325 16.8559 2.17704 16.9013 2.2135C16.9546 2.25619 17.0035 2.30065 17.0471 2.3469C17.1022 2.4047 17.152 2.46429 17.1947 2.52565C17.2552 2.61191 17.305 2.69995 17.3441 2.78621C17.4989 3.12326 17.5069 3.42829 17.5033 3.47009C17.4944 3.60259 17.4455 3.74043 17.3726 3.8765C17.3326 3.95031 17.2863 4.02323 17.2356 4.09437C17.1921 4.15485 17.1458 4.21443 17.0978 4.27223C17.0524 4.32648 17.0062 4.37806 16.9591 4.42786C16.9119 4.47766 16.8657 4.52569 16.8203 4.57015C16.7714 4.61728 16.7252 4.66175 16.6807 4.70177C16.6291 4.7489 16.582 4.78981 16.5411 4.82449C16.4566 4.89652 16.4015 4.93743 16.4015 4.93743L16.261 5.02103L16.1205 5.10373L15.9799 5.18644L15.8394 5.26914L15.6989 5.35185L15.5584 5.43455L15.4179 5.51726L15.3085 5.58217L15.2783 5.6213L15.1404 5.79739L15.0026 5.97347L14.8648 6.14955L14.7269 6.32563L14.5891 6.50171L14.4512 6.67779L14.3134 6.85387L14.1756 7.02996L14.0377 7.20604L13.8999 7.38212L13.762 7.5582L13.6242 7.73428L13.4863 7.91036L13.3485 8.08645L13.2107 8.26253L13.1929 8.28565L13.0693 8.32033L12.9279 8.36035L12.7865 8.40037L12.6451 8.44039L12.5037 8.48041L12.3623 8.52042L12.2209 8.56044L12.0795 8.60046L11.9381 8.64048L11.7967 8.6805L11.6553 8.72052L11.6464 8.72318L11.5157 8.82545L11.376 8.93484L11.2364 9.04422L11.0968 9.15361L10.9572 9.26299L10.8176 9.37237L10.7357 9.4364L10.6762 9.42929L10.533 9.4115L10.3898 9.39372L10.2466 9.37593L10.1034 9.35814L9.96027 9.34036L9.83221 9.32435L9.81709 9.33591L9.67748 9.44085L6.12205 12.0954L4.81122 12.4867L2.32029 13.6597C2.32029 13.6597 1.52881 13.2346 1.56705 12.3889C1.60529 11.5423 2.6351 9.60448 3.00238 8.72941C3.36967 7.85434 6.38439 6.04906 6.38439 6.04906L6.3755 6.05084Z" stroke="url(#paint25_linear_458_13901)" stroke-width="0.35" stroke-miterlimit="10"/>
<g opacity="0.59">
<path d="M19.1605 16.6006C18.762 15.8135 18.5175 14.9278 18.6153 14.0536C18.7345 12.9882 19.3392 12.0473 19.7421 11.0522C20.522 9.12955 20.5389 6.91431 19.7883 4.97919" stroke="#72391E" stroke-width="0.68" stroke-miterlimit="10"/>
<path d="M18.255 18.4361C18.5423 17.9799 18.3173 17.3939 18.175 16.8745C17.8957 15.8581 17.9687 14.7784 18.1465 13.7397C18.3244 12.701 18.6045 11.681 18.737 10.6361C18.8313 9.89441 18.8508 9.13939 19.0376 8.41461" stroke="#72391E" stroke-width="0.68" stroke-miterlimit="10"/>
<path d="M17.5046 19.2721C17.2859 18.7509 17.3357 18.3356 17.3392 17.7718C17.3526 15.6037 18.0151 13.4854 18.1192 11.3199C18.1796 10.0705 18.0525 8.81121 17.743 7.59821" stroke="#72391E" stroke-width="0.68" stroke-miterlimit="10"/>
<path d="M17.9419 18.437C16.4745 16.1159 16.2789 13.055 17.4394 10.5703" stroke="#72391E" stroke-width="0.68" stroke-miterlimit="10"/>
<path d="M17.7861 18.8398C16.7296 17.995 16.0022 16.7553 15.7834 15.4267C15.7167 15.0212 15.6954 14.6094 15.6918 14.1986C15.6785 12.7428 15.6625 12.8131 15.8617 11.3706" stroke="#72391E" stroke-width="0.68" stroke-miterlimit="10"/>
<path d="M21.8818 8.99796C22.0463 10.4893 21.5252 10.4493 21.4024 11.1705C21.2761 11.9149 21.2806 12.7117 20.8902 13.3591C20.7061 13.6641 20.4447 13.9149 20.2286 14.1986C19.8399 14.7091 19.6016 15.3298 19.5491 15.9665C19.5776 15.6677 19.6229 15.4596 19.7715 15.1848C20.0258 14.7135 20.6207 14.5223 20.8137 13.9558C20.8804 13.7602 20.8964 13.5521 20.9115 13.3458C21.0449 11.5734 21.1774 9.801 21.3108 8.02863" stroke="#72391E" stroke-width="0.68" stroke-miterlimit="10"/>
<path d="M20.8179 8.04639C20.7005 9.19625 20.5778 10.3692 20.1055 11.4257C19.8334 12.0358 19.4439 12.6112 19.3523 13.2719C19.2998 13.6534 19.3496 14.0447 19.2829 14.4245C19.2154 14.8042 18.9832 15.1973 18.6035 15.2791" stroke="#72391E" stroke-width="0.68" stroke-miterlimit="10"/>
<path d="M14.9844 20.5358C14.9257 19.8848 14.5771 19.2649 14.0488 18.8728C13.5375 18.4939 12.8776 18.3249 12.4223 17.8803C12.0461 17.513 11.854 16.9928 11.7909 16.4743C11.71 15.8091 11.838 15.1448 11.814 14.4796" stroke="#72391E" stroke-width="0.68" stroke-miterlimit="10"/>
<path d="M13.7569 20.903C13.4243 20.0653 13.5106 19.1182 13.7453 18.2476C13.9792 17.3778 14.3527 16.5499 14.592 15.6811C14.905 14.5445 14.9815 13.3449 14.817 12.1781" stroke="#72391E" stroke-width="0.68" stroke-miterlimit="10"/>
<path d="M14.7153 20.6958C13.5077 18.4058 13.5904 16.0403 12.8825 13.5538C12.8131 13.3101 12.6539 13.0122 12.4023 13.0549" stroke="#72391E" stroke-width="0.68" stroke-miterlimit="10"/>
<path d="M14.2896 20.8025C13.7666 20.3668 13.5452 19.9542 12.968 19.5477C12.1961 19.0044 11.2241 18.7323 10.5812 18.043C10.3402 17.7851 10.157 17.4792 9.99601 17.1662C9.75767 16.7038 9.5647 16.1399 9.80747 15.6802" stroke="#72391E" stroke-width="0.68" stroke-miterlimit="10"/>
<path d="M13.6699 21.0782C12.9825 20.4762 12.1377 20.0804 11.404 19.5344C9.71787 18.2778 8.73608 16.3249 7.81299 14.444" stroke="#72391E" stroke-width="0.68" stroke-miterlimit="10"/>
<path d="M7.36131 15.3813C7.34441 16.0554 7.71703 16.6762 8.11988 17.2204C9.3738 18.9154 11.0564 20.2956 12.9692 21.2009C12.0106 20.7367 10.7762 20.7429 9.78821 20.3428C8.01672 19.6233 6.57694 18.1417 5.91708 16.3614" stroke="#72391E" stroke-width="0.68" stroke-miterlimit="10"/>
<path d="M10.958 21.1316C9.90419 21.0596 8.67606 20.8577 7.75119 20.3526C6.26339 19.5388 4.73024 18.6424 3.82848 17.2151C3.65863 16.9465 3.51456 16.5926 3.68798 16.3258" stroke="#72391E" stroke-width="0.68" stroke-miterlimit="10"/>
<path d="M12.2373 21.2285C11.4823 21.2481 10.8598 21.2178 10.2257 21.1503C9.50626 21.0729 8.94867 20.9342 8.2479 20.7545C7.41552 20.5411 6.64005 20.1871 6.04955 19.8732C5.51241 19.5878 5.17003 19.3343 4.71293 19.0497C4.16601 18.7091 3.72847 18.2805 3.23669 17.8643C3.06772 17.7211 2.86763 17.4659 2.73779 17.288" stroke="#72391E" stroke-width="0.68" stroke-miterlimit="10"/>
<path d="M12.2178 21.2383C10.5023 20.1551 9.03319 18.7589 8.11721 16.959C7.53649 15.8189 7.6521 16.1195 6.92643 15.0648" stroke="#72391E" stroke-width="0.68" stroke-miterlimit="10"/>
<path d="M13.2056 21.1218C12.0148 20.076 11.1459 18.7652 10.6559 17.2302C10.246 15.947 10.0148 14.5952 9.39758 13.3956" stroke="#72391E" stroke-width="0.68" stroke-miterlimit="10"/>
<path d="M13.3115 20.445C12.6712 19.5504 12.3449 18.4397 12.3982 17.3449C12.432 16.6539 12.6116 15.9558 12.4649 15.2791C12.3724 14.8522 12.1545 14.4636 11.9402 14.0821" stroke="#72391E" stroke-width="0.68" stroke-miterlimit="10"/>
<path d="M15.2852 20.3579C14.724 19.8563 14.4937 19.0933 14.3336 18.3623C13.9379 16.5561 13.8205 14.6903 13.9859 12.8495" stroke="#72391E" stroke-width="0.68" stroke-miterlimit="10"/>
<path d="M16.2383 20.0102C15.4646 18.6878 15.2263 17.0666 15.5882 15.5806C15.7572 14.8843 16.0542 14.1817 15.9226 13.4783C15.8292 12.9803 15.5304 12.5472 15.2387 12.131" stroke="#72391E" stroke-width="0.68" stroke-miterlimit="10"/>
<path d="M17.3017 19.4374C17.0233 17.9141 17.026 16.7597 17.1807 15.2195C17.3133 13.8962 17.6067 12.5729 17.476 11.2496" stroke="#72391E" stroke-width="0.68" stroke-miterlimit="10"/>
<path d="M18.5316 18.4877C18.1964 17.4036 18.6019 16.4129 18.914 15.3218C19.2262 14.2315 19.6006 13.1207 19.4992 11.9913C19.4361 11.2888 19.1906 10.6102 19.147 9.9068" stroke="#72391E" stroke-width="0.68" stroke-miterlimit="10"/>
<path d="M19.4478 17.6695C19.7555 14.7464 19.615 11.7628 20.3051 8.90546C20.4163 8.44569 20.5515 7.98414 20.8022 7.58307" stroke="#72391E" stroke-width="0.68" stroke-miterlimit="10"/>
<path d="M20.2248 15.1448C20.6944 13.8037 20.9016 12.3737 20.8304 10.9553C20.7975 10.291 20.7033 9.6267 20.7468 8.96239C20.7895 8.29808 20.9861 7.61599 21.4512 7.13666" stroke="#72391E" stroke-width="0.68" stroke-miterlimit="10"/>
<path d="M20.8839 6.32114C21.2965 7.01568 21.3206 8.0197 21.405 8.80228C21.5055 9.74317 21.5198 10.7027 21.3063 11.6303C21.0956 12.5471 20.6723 13.3991 20.3521 14.2839C20.032 15.1688 19.7465 15.9941 19.9644 16.9092C19.9066 15.5147 19.7243 14.6983 19.9537 13.4684C20.184 12.2394 20.5264 11.0291 20.6749 9.78763C20.7149 9.45236 20.7398 9.10998 20.6643 8.78094C20.5878 8.4519 20.3957 8.13531 20.0942 7.97968" stroke="#492112" stroke-width="0.68" stroke-miterlimit="10"/>
<path d="M19.3462 17.4756C18.8802 16.846 18.85 15.9949 18.9807 15.2257C19.1114 14.4555 19.3827 13.7103 19.4565 12.9331C19.5721 11.7103 19.1915 10.5008 18.8153 9.33051" stroke="#492112" stroke-width="0.68" stroke-miterlimit="10"/>
<path d="M18.5869 18.0892C18.1663 17.6001 17.9573 16.9563 17.9208 16.3142C17.8844 15.673 18.0115 15.0318 18.201 14.4173C18.3317 13.9949 18.4927 13.5778 18.5558 13.1403C18.7372 11.8721 18.0729 10.6058 18.1956 9.33051" stroke="#492112" stroke-width="0.68" stroke-miterlimit="10"/>
<path d="M17.6262 18.4628C17.2412 16.2484 17.7303 13.9843 18.2772 11.8046C18.3804 11.3928 18.4426 10.8628 18.0842 10.6316" stroke="#492112" stroke-width="0.68" stroke-miterlimit="10"/>
<path d="M17.1246 18.5615C16.704 17.5993 16.5777 16.5125 16.7671 15.4809C16.9601 14.4316 17.4697 13.4409 17.5168 12.3755C17.5328 12.0162 17.443 11.5822 17.1042 11.4551" stroke="#492112" stroke-width="0.68" stroke-miterlimit="10"/>
<path d="M16.9023 19.7496C16.2015 17.2498 16.2682 14.5445 17.0908 12.082" stroke="#492112" stroke-width="0.68" stroke-miterlimit="10"/>
<path d="M14.2809 12.91C14.6028 13.3333 14.6739 13.8882 14.7317 14.4156C14.8669 15.6472 14.9923 16.8798 15.1079 18.1142C15.1862 18.9528 15.26 19.8021 15.1355 20.6353" stroke="#492112" stroke-width="0.68" stroke-miterlimit="10"/>
<path d="M9.89714 13.5538C9.69794 13.8882 9.71573 14.316 9.8509 14.6806C9.98518 15.0452 10.2244 15.3618 10.4601 15.6721C11.8696 17.5281 13.369 19.4535 15.4971 20.4263C14.0377 18.7269 12.9706 16.2947 12.5072 14.1114" stroke="#492112" stroke-width="0.68" stroke-miterlimit="10"/>
<path d="M20.3594 16.3845C21.2861 14.2511 21.7868 11.9371 21.8232 9.61426C21.8339 8.95173 21.7948 8.25007 21.4257 7.69781" stroke="#492112" stroke-width="0.68" stroke-miterlimit="10"/>
<path d="M19.9571 15.5592C20.4284 13.384 20.9015 11.142 20.504 8.95258C20.4106 8.43767 20.2327 7.88097 19.781 7.61151" stroke="#492112" stroke-width="0.68" stroke-miterlimit="10"/>
<path d="M19.1648 16.6904C19.2697 13.7139 19.2822 10.7339 19.2039 7.7565" stroke="#492112" stroke-width="0.68" stroke-miterlimit="10"/>
<path d="M16.7768 18.8327C16.7963 16.1328 16.8097 13.3929 16.092 10.789" stroke="#492112" stroke-width="0.68" stroke-miterlimit="10"/>
<path d="M15.9473 19.5353C15.8156 17.9212 15.684 16.3062 15.4475 14.7037C15.3096 13.7708 15.1264 12.8148 14.6098 12.0225" stroke="#492112" stroke-width="0.68" stroke-miterlimit="10"/>
<path d="M15.3638 20.3908C14.9751 19.1573 14.7315 17.8838 14.3651 16.6433C13.9987 15.4036 13.4971 14.1772 12.6639 13.183" stroke="#492112" stroke-width="0.68" stroke-miterlimit="10"/>
<path d="M14.793 20.6477C13.8227 17.8322 12.5679 15.4 10.8961 12.9295" stroke="#492112" stroke-width="0.68" stroke-miterlimit="10"/>
<path d="M14.3643 20.3454C11.788 19.1733 9.30503 17.5103 7.93372 15.0505" stroke="#492112" stroke-width="0.68" stroke-miterlimit="10"/>
<path d="M14.9761 20.3854C15.2687 20.477 15.5728 20.3098 15.8307 20.1444C17.8085 18.8772 19.685 17.272 20.6018 15.1208C21.3044 13.472 21.388 11.6205 21.179 9.84277" stroke="#492112" stroke-width="0.68" stroke-miterlimit="10"/>
<path d="M19.7659 16.3284C20.3039 15.1537 20.8428 13.9745 21.2261 12.741C21.6085 11.5075 21.8326 10.2109 21.7241 8.92501C21.6636 8.21357 21.4671 7.45233 20.9015 7.00946" stroke="#492112" stroke-width="0.68" stroke-miterlimit="10"/>
<path d="M18.3768 17.7273C18.8411 15.8456 19.1959 13.938 19.4396 12.0154C19.5063 11.4916 19.5641 10.9589 19.4787 10.4377C19.3942 9.9166 19.1488 9.39992 18.7157 9.09222" stroke="#492112" stroke-width="0.68" stroke-miterlimit="10"/>
<path d="M15.861 19.0257C16.0923 17.5504 16.3235 16.0759 16.5547 14.6005C16.6828 13.7815 16.8117 12.9545 16.7583 12.1274C16.705 11.3004 17.1256 11.1225 16.576 10.4973" stroke="#492112" stroke-width="0.68" stroke-miterlimit="10"/>
<path d="M14.3678 19.5495C14.5937 16.9545 14.7129 14.3507 14.7227 11.7459" stroke="#492112" stroke-width="0.68" stroke-miterlimit="10"/>
<path d="M13.1885 20.18C12.5615 17.3547 12.2574 15.296 12.3801 12.4058" stroke="#492112" stroke-width="0.68" stroke-miterlimit="10"/>
<path d="M10.8701 20.558C9.94169 18.5962 9.24625 16.5259 8.80427 14.404" stroke="#492112" stroke-width="0.68" stroke-miterlimit="10"/>
<path d="M10.8457 20.9733C9.38458 20.068 7.90301 19.1466 6.75047 17.8776C6.46768 17.5664 6.19644 17.2142 6.1333 16.7989" stroke="#492112" stroke-width="0.68" stroke-miterlimit="10"/>
<path d="M12.0103 20.3214C9.83236 21.0613 7.50861 20.7065 5.49702 19.5922C4.86739 19.2436 4.02878 18.7189 3.6864 18.188" stroke="#492112" stroke-width="0.68" stroke-miterlimit="10"/>
<path d="M16.6659 19.5967C16.6401 19.5744 16.6339 19.6491 16.6685 19.6429C16.7032 19.6367 16.7121 19.594 16.7139 19.5593C16.8455 17.0328 16.5849 14.4876 15.9438 12.0385" stroke="#492112" stroke-width="0.68" stroke-miterlimit="10"/>
<path style="mix-blend-mode:multiply" opacity="0.32" d="M17.774 19.0426C17.7749 16.6202 17.8585 14.1977 18.0239 11.7806L17.774 19.0426Z" fill="url(#paint26_linear_458_13901)"/>
<path d="M19.8968 16.9874C20.4971 14.6823 20.9631 12.8041 21.0271 10.4617C21.0582 9.32164 21.0244 8.1611 20.6776 7.07349" stroke="#916436" stroke-width="0.68" stroke-miterlimit="10"/>
<path d="M19.3809 17.6953C19.8843 14.8505 20.3876 11.9184 19.7624 9.09668" stroke="#916436" stroke-width="0.68" stroke-miterlimit="10"/>
<path d="M18.5663 18.2156C19.0528 15.9132 19.5392 13.5236 19.0074 11.2319" stroke="#916436" stroke-width="0.68" stroke-miterlimit="10"/>
<path d="M18.0195 18.5037C17.9279 15.8767 17.8372 13.2488 17.7456 10.6218" stroke="#916436" stroke-width="0.68" stroke-miterlimit="10"/>
<path d="M16.3587 12.219C16.1159 14.4004 16.5686 16.6539 17.6357 18.5784C16.5286 17.5148 15.328 16.7607 14.5854 15.4205C14.1817 14.693 13.898 13.8153 14.1968 13.0407" stroke="#916436" stroke-width="0.68" stroke-miterlimit="10"/>
<path d="M17.4385 18.7651C16.5385 18.5793 15.6154 18.3845 14.8399 17.8954C14.5545 17.7157 14.2948 17.4988 14.0458 17.2729C12.6425 16.0038 11.5015 14.3355 11.3094 12.4626" stroke="#916436" stroke-width="0.68" stroke-miterlimit="10"/>
<path d="M17.8247 19.0693C16.4036 18.7473 15.1924 18.5517 13.8531 17.9799C12.5138 17.409 11.2546 16.5908 10.3572 15.4516" stroke="#916436" stroke-width="0.68" stroke-miterlimit="10"/>
<path d="M16.897 19.2382C15.1735 19.5957 13.3469 19.9479 11.6848 19.3716C10.807 19.0675 10.0218 18.5081 9.44997 17.7816" stroke="#916436" stroke-width="0.68" stroke-miterlimit="10"/>
<path d="M16.7314 19.8385C14.5322 19.8785 12.2947 19.915 10.1773 19.3218C9.53434 19.1422 8.8887 18.8932 8.4067 18.4352" stroke="#916436" stroke-width="0.68" stroke-miterlimit="10"/>
<path d="M16.2061 19.2205C15.2821 19.6055 14.3314 19.9283 13.363 20.1853C12.7716 20.3428 12.1651 20.4762 11.5523 20.4575C11.0419 20.4424 10.5412 20.3214 10.0476 20.1934C9.27129 19.9924 8.4727 19.7567 7.8653 19.2347" stroke="#916436" stroke-width="0.68" stroke-miterlimit="10"/>
<path d="M17.3042 19.2543C15.7586 19.2365 14.2192 19.4793 12.6745 19.4552C11.1298 19.4312 9.51481 19.1049 8.33738 18.1115" stroke="#916436" stroke-width="0.68" stroke-miterlimit="10"/>
<path d="M17.0063 18.7082C15.5764 19.1395 14.0414 19.192 12.567 18.9439C11.4046 18.7482 10.2068 18.3223 9.48198 17.4009" stroke="#916436" stroke-width="0.68" stroke-miterlimit="10"/>
<path d="M17.5693 18.6886C15.5782 17.4854 13.7987 15.9389 12.3331 14.1407" stroke="#916436" stroke-width="0.68" stroke-miterlimit="10"/>
<path d="M18.3477 18.6433C17.3045 17.2835 16.3903 15.9691 15.5126 14.4982C15.2013 13.9771 14.8901 13.3813 15.0341 12.7935" stroke="#916436" stroke-width="0.68" stroke-miterlimit="10"/>
<path d="M18.7061 18.2947C17.4637 15.9007 16.6082 13.5547 15.9546 10.942" stroke="#916436" stroke-width="0.68" stroke-miterlimit="10"/>
<path d="M18.915 18.011C18.425 15.7424 18.2312 13.4107 18.3414 11.0941" stroke="#916436" stroke-width="0.68" stroke-miterlimit="10"/>
<path d="M19.307 17.2987C19.5658 14.7179 19.821 12.0811 19.2198 9.55731" stroke="#916436" stroke-width="0.68" stroke-miterlimit="10"/>
<path d="M19.8674 16.8914C20.353 15.1955 20.7763 13.4818 21.1355 11.7557C21.2885 11.0229 21.3988 10.1683 20.8963 9.6098" stroke="#916436" stroke-width="0.68" stroke-miterlimit="10"/>
<path d="M20.5228 15.4569C21.1507 13.6072 21.7083 11.6338 21.2956 9.7254C21.148 9.04242 20.8527 8.35321 20.288 7.93524" stroke="#916436" stroke-width="0.68" stroke-miterlimit="10"/>
<path d="M18.4043 16.8211C18.1019 14.4307 17.8992 12.0287 17.7951 9.62225" stroke="#916436" stroke-width="0.68" stroke-miterlimit="10"/>
<path d="M17.0225 17.9123C16.8126 16.8184 16.6009 15.7183 16.215 14.6734C15.8281 13.6276 15.2554 12.6289 14.4186 11.8864" stroke="#916436" stroke-width="0.68" stroke-miterlimit="10"/>
<path d="M17.2505 19.0657C15.2673 18.6815 13.655 17.2978 12.145 15.9647" stroke="#916436" stroke-width="0.68" stroke-miterlimit="10"/>
<path d="M19.5283 17.1848C18.6773 18.2111 17.4598 18.8798 16.205 19.3467C14.9502 19.8136 13.5371 20.0982 12.2814 19.6313" stroke="#916436" stroke-width="0.68" stroke-miterlimit="10"/>
<path d="M18.3193 18.501C17.1001 19.5051 15.5776 20.1427 14.0009 20.309C12.4242 20.4753 10.8003 20.1694 9.39431 19.4419" stroke="#916436" stroke-width="0.68" stroke-miterlimit="10"/>
<path d="M16.9531 19.6696C15.7428 20.5019 14.5645 20.8043 13.2776 21.0827C11.9908 21.361 10.616 21.3859 9.3834 20.9235" stroke="#916436" stroke-width="0.68" stroke-miterlimit="10"/>
<path d="M14.7451 20.6576C13.4761 21.0453 12.1306 21.4508 10.8526 21.2472C9.57472 21.0435 8.33682 20.5357 7.33813 19.7194" stroke="#916436" stroke-width="0.68" stroke-miterlimit="10"/>
<path d="M16.4528 19.8652C16.9579 19.7461 17.3412 19.3485 17.6871 18.9652C18.347 18.2325 18.9837 17.4792 19.5964 16.7073C19.8606 16.3747 20.2465 16.0083 20.3897 15.6055C20.5097 15.2684 20.5711 14.8771 20.6689 14.5276C21.0353 13.2186 21.3341 11.8909 21.5645 10.5516" stroke="#916436" stroke-width="0.68" stroke-miterlimit="10"/>
<path d="M19.3281 17.6304C18.0724 19.2418 16.3623 20.1552 14.6477 20.7065" stroke="#916436" stroke-width="0.68" stroke-miterlimit="10"/>
<path d="M18.6089 18.3721C17.2189 19.2 15.9223 20.092 14.4327 20.7269C13.9383 20.9377 13.4154 21.1414 12.8791 21.0951" stroke="#916436" stroke-width="0.68" stroke-miterlimit="10"/>
<path d="M9.42635 16.7099C10.3157 17.7131 11.6051 18.3009 12.9222 18.5801C13.7635 18.7589 14.6243 18.822 15.4825 18.8452C15.8649 18.8549 16.3353 18.9279 16.7097 18.8505C16.9747 18.7962 17.222 18.621 17.4736 18.5197C15.6888 17.3849 14.1254 15.9443 12.6803 14.4058" stroke="#916436" stroke-width="0.68" stroke-miterlimit="10"/>
<path d="M17.8779 17.7922C16.6889 16.0857 15.6084 14.3044 14.6453 12.4626" stroke="#916436" stroke-width="0.68" stroke-miterlimit="10"/>
<path d="M17.7026 16.9207C17.5266 15.842 17.3398 14.7642 17.1442 13.689C17.0944 13.4169 17.0428 13.1394 16.9085 12.8975" stroke="#916436" stroke-width="0.68" stroke-miterlimit="10"/>
<path d="M17.8938 18.019C18.085 15.8491 18.2647 13.5912 17.483 11.5555" stroke="#916436" stroke-width="0.68" stroke-miterlimit="10"/>
<path d="M18.6715 16.886C19.0699 15.3004 19.374 13.6925 19.583 12.0714" stroke="#916436" stroke-width="0.68" stroke-miterlimit="10"/>
<path d="M19.3214 16.9376C19.501 15.2906 19.6816 13.6436 19.8612 11.9975C19.935 11.3217 20.0044 10.6111 19.7403 9.98328" stroke="#916436" stroke-width="0.68" stroke-miterlimit="10"/>
<path d="M19.3516 17.5103C20.1457 14.838 20.9479 12.0562 20.5059 9.30383" stroke="#916436" stroke-width="0.68" stroke-miterlimit="10"/>
<path d="M18.8731 18.0466C19.3426 15.4143 19.6085 12.7463 19.6672 10.074C19.6948 8.8352 19.6743 7.57595 19.3204 6.38785" stroke="#916436" stroke-width="0.68" stroke-miterlimit="10"/>
<path d="M18.0078 18.1097C16.9958 15.2133 16.8224 12.0349 17.5116 9.04865" stroke="#916436" stroke-width="0.68" stroke-miterlimit="10"/>
<path d="M18.0869 18.4752C15.949 17.2186 14.0842 15.5076 12.6551 13.4916" stroke="#916436" stroke-width="0.68" stroke-miterlimit="10"/>
<path d="M18.0771 18.8479C16.6765 18.6175 15.2563 18.381 13.9659 17.7949C13.3407 17.5112 12.7547 17.1484 12.1838 16.7678C10.76 15.818 9.77019 15.1857 8.73416 13.8295" stroke="#916436" stroke-width="0.68" stroke-miterlimit="10"/>
<path d="M17.5142 19.3013C13.9694 18.9785 10.4496 18.5526 7.50241 16.5721" stroke="#916436" stroke-width="0.68" stroke-miterlimit="10"/>
<path d="M16.0513 20.0697C12.9236 20.6726 9.55937 19.9594 6.95372 18.1408" stroke="#916436" stroke-width="0.68" stroke-miterlimit="10"/>
<path d="M14.7549 20.6958C13.5152 20.9866 12.2382 21.3521 11.0172 21.3352C10.6765 21.3308 10.3342 21.3219 9.99801 21.2659C9.54091 21.1894 9.10338 21.0275 8.67562 20.8514C7.32655 20.2947 5.99527 19.5477 5.15221 18.3641" stroke="#916436" stroke-width="0.68" stroke-miterlimit="10"/>
<path d="M19.5786 17.4045C21.4052 14.934 22.1718 11.7183 21.656 8.69647" stroke="#916436" stroke-width="0.68" stroke-miterlimit="10"/>
<path d="M21.1362 7.75295C21.2563 11.1314 20.3999 14.6708 19.1602 17.8198C19.8547 17.2062 20.3741 16.3463 20.7778 15.5148C21.3648 14.3053 21.741 13.119 21.901 11.7868C22.0611 10.4546 21.9446 8.84234 21.3781 7.62311" stroke="#916436" stroke-width="0.68" stroke-miterlimit="10"/>
<path d="M19.9911 8.29541C20.0649 11.6454 19.5918 15.007 18.5966 18.2093C18.4623 18.6398 17.8638 19.0017 17.3987 19.3601" stroke="#916436" stroke-width="0.68" stroke-miterlimit="10"/>
<path d="M18.231 10.0927C18.3297 11.6249 18.4284 13.1625 18.3137 14.693C18.1981 16.2235 17.861 17.7575 17.1327 19.1119C17.05 19.2649 16.9584 19.4205 16.8161 19.521" stroke="#916436" stroke-width="0.68" stroke-miterlimit="10"/>
<path d="M17.6182 12.5267C17.4599 14.46 17.1522 16.3782 16.7867 18.2831C16.7004 18.7349 16.6088 19.1902 16.4167 19.6082C16.2246 20.0261 15.6848 20.3 15.2686 20.5019" stroke="#916436" stroke-width="0.68" stroke-miterlimit="10"/>
<path d="M17.8999 18.7402C16.5544 16.7029 15.1609 14.6966 13.7211 12.7241" stroke="#916436" stroke-width="0.68" stroke-miterlimit="10"/>
<path d="M17.083 18.4361C14.7486 17.633 12.6685 16.1168 11.1994 14.147" stroke="#916436" stroke-width="0.68" stroke-miterlimit="10"/>
<path d="M16.2734 18.9003C15.9737 18.8016 15.707 18.6442 15.4019 18.5802C14.9937 18.4939 14.5651 18.4672 14.1525 18.4023C13.3236 18.2725 12.4975 18.1142 11.6909 17.8821C10.3738 17.5023 9.09678 16.9127 8.07764 16.0021" stroke="#916436" stroke-width="0.68" stroke-miterlimit="10"/>
<path d="M15.9341 20.0795C15.2111 18.156 16.0061 15.9807 15.5953 13.9691C15.4423 13.2177 15.1204 12.4947 15.0999 11.7281" stroke="#492112" stroke-width="0.68" stroke-miterlimit="10"/>
<path d="M12.1474 12.4867C11.7961 12.902 11.7765 13.4978 11.829 14.0376C11.9481 15.2684 12.3679 16.4645 13.0198 17.5175C13.3559 18.0608 13.7543 18.566 14.2061 19.0186C14.4249 19.2383 14.657 19.4455 14.8997 19.6385C15.0705 19.7745 15.4004 19.9257 15.4902 20.1124C15.0998 20.2948 14.3413 20.3045 13.9135 20.3277C13.1309 20.3703 12.3403 20.2325 11.6102 19.9533C10.495 19.5273 9.51947 18.7874 8.71643 17.9088C8.30113 17.4543 7.91695 16.9368 7.80134 16.3338" stroke="#492112" stroke-width="0.68" stroke-miterlimit="10"/>
<path d="M5.00391 18.212C5.23602 18.7127 5.69935 19.0693 6.17512 19.3547C7.43793 20.1124 8.89727 20.5091 10.3655 20.6656C11.8329 20.823 13.3162 20.7501 14.7871 20.6247C13.5777 20.1578 12.1806 19.152 11.261 18.2431C10.3415 17.3351 9.56069 16.2982 8.81279 15.2471C8.58868 14.9314 8.35747 14.5854 8.36636 14.1995" stroke="#492112" stroke-width="0.68" stroke-miterlimit="10"/>
<path d="M17.8502 18.0457C18.1508 15.4142 18.2344 12.717 17.5798 10.1496C17.442 9.61067 17.3113 9.21049 16.9724 8.6778" stroke="#492112" stroke-width="0.68" stroke-miterlimit="10"/>
<path d="M13.4331 21.0382C11.5176 20.7118 9.55309 20.3685 7.87942 19.3876C7.20533 18.9928 6.58994 18.4992 6.05991 17.9283C5.48809 17.312 4.99542 16.5428 5.02566 15.7059" stroke="#492112" stroke-width="0.68" stroke-miterlimit="10"/>
<path d="M19.0927 16.461C19.4422 14.9047 19.7926 13.3475 20.1421 11.7913C20.2853 11.1536 20.4294 10.5071 20.4062 9.85347C20.3831 9.19984 20.1741 8.52842 19.7019 8.0722" stroke="#492112" stroke-width="0.68" stroke-miterlimit="10"/>
<path d="M17.4554 18.0475C17.7177 16.7873 17.9801 15.5281 18.2424 14.268C18.4221 13.4036 18.6035 12.5312 18.5928 11.6481C18.5821 10.765 18.3643 9.8597 17.8191 9.16071" stroke="#492112" stroke-width="0.68" stroke-miterlimit="10"/>
<path d="M11.6865 19.9159C10.767 17.4899 10.3161 15.4054 10.2743 12.8148" stroke="#492112" stroke-width="0.68" stroke-miterlimit="10"/>
<path d="M11.7061 19.3832C8.951 19.1004 6.10079 18.6735 3.79573 17.1511" stroke="#492112" stroke-width="0.68" stroke-miterlimit="10"/>
</g>
<path style="mix-blend-mode:multiply" opacity="0.71" d="M19.2307 2.54784C19.493 2.87688 19.7412 3.22193 19.975 3.58298C23.5411 9.10198 22.2739 16.2858 17.1435 19.6286C12.014 22.9715 4.96453 21.2071 1.39755 15.6873C1.03827 15.1314 0.728792 14.5596 0.467337 13.9754L5.40474 14.9892C5.73822 15.0576 6.08416 15.0221 6.39631 14.8878L11.0296 12.8726C12.4711 12.637 15.2102 12.1389 16.039 10.9357L17.7438 8.35319C18.6651 7.66754 18.3734 6.34337 18.626 5.22285L19.2307 2.54428V2.54784Z" fill="url(#paint27_linear_458_13901)"/>
<defs>
<linearGradient id="paint0_linear_458_13901" x1="13.8272" y1="21.0502" x2="9.56591" y2="5.13559" gradientUnits="userSpaceOnUse">
<stop offset="0.14" stop-color="#683C11"/>
<stop offset="1" stop-color="#936037"/>
</linearGradient>
<linearGradient id="paint1_linear_458_13901" x1="13.8272" y1="21.0502" x2="9.56591" y2="5.13559" gradientUnits="userSpaceOnUse">
<stop offset="0.14" stop-color="#683C11"/>
<stop offset="0.99" stop-color="#936037" stop-opacity="0"/>
</linearGradient>
<linearGradient id="paint2_linear_458_13901" x1="17.0642" y1="2.4451" x2="1.08803" y2="12.1779" gradientUnits="userSpaceOnUse">
<stop stop-color="#B2B2B2"/>
<stop offset="0.51" stop-color="#F6F6F6"/>
</linearGradient>
<linearGradient id="paint3_linear_458_13901" x1="17.0779" y1="2.43677" x2="1.07436" y2="12.1862" gradientUnits="userSpaceOnUse">
<stop offset="0.49" stop-color="white"/>
<stop offset="1" stop-color="white"/>
</linearGradient>
<linearGradient id="paint4_linear_458_13901" x1="19.7601" y1="9.12943" x2="12.7802" y2="7.25787" gradientUnits="userSpaceOnUse">
<stop offset="0.49" stop-color="#F6F6F6"/>
<stop offset="1" stop-color="#B2B2B2"/>
</linearGradient>
<linearGradient id="paint5_linear_458_13901" x1="16.3773" y1="10.225" x2="11.1385" y2="8.82025" gradientUnits="userSpaceOnUse">
<stop offset="0.05" stop-color="#F6F6F6"/>
<stop offset="0.7" stop-color="#9D9D9C"/>
</linearGradient>
<linearGradient id="paint6_linear_458_13901" x1="14.2141" y1="10.6108" x2="10.4691" y2="9.60664" gradientUnits="userSpaceOnUse">
<stop offset="0.49" stop-color="#F6F6F6"/>
<stop offset="1" stop-color="#B2B2B2"/>
</linearGradient>
<linearGradient id="paint7_linear_458_13901" x1="11.9381" y1="12.3069" x2="10.9056" y2="8.45215" gradientUnits="userSpaceOnUse">
<stop offset="0.05" stop-color="#F6F6F6"/>
<stop offset="0.7" stop-color="#9D9D9C"/>
</linearGradient>
<linearGradient id="paint8_linear_458_13901" x1="9.79531" y1="15.1234" x2="8.13425" y2="8.91892" gradientUnits="userSpaceOnUse">
<stop offset="0.49" stop-color="#F6F6F6"/>
<stop offset="1" stop-color="#B2B2B2"/>
</linearGradient>
<linearGradient id="paint9_linear_458_13901" x1="6.67091" y1="15.9595" x2="5.41124" y2="11.2557" gradientUnits="userSpaceOnUse">
<stop offset="0.05" stop-color="#F6F6F6"/>
<stop offset="0.7" stop-color="#9D9D9C"/>
</linearGradient>
<linearGradient id="paint10_linear_458_13901" x1="4.42042" y1="16.4148" x2="3.21188" y2="11.9014" gradientUnits="userSpaceOnUse">
<stop offset="0.49" stop-color="#F6F6F6"/>
<stop offset="1" stop-color="#B2B2B2"/>
</linearGradient>
<linearGradient id="paint11_linear_458_13901" x1="2.33497" y1="15.6761" x2="-0.0313844" y2="6.83799" gradientUnits="userSpaceOnUse">
<stop offset="0.05" stop-color="#F6F6F6"/>
<stop offset="0.7" stop-color="#9D9D9C"/>
</linearGradient>
<linearGradient id="paint12_linear_458_13901" x1="3.29989" y1="8.54251" x2="2.25726" y2="4.65006" gradientUnits="userSpaceOnUse">
<stop offset="0.49" stop-color="#F6F6F6"/>
<stop offset="1" stop-color="#B2B2B2"/>
</linearGradient>
<linearGradient id="paint13_linear_458_13901" x1="6.03227" y1="7.04335" x2="4.76246" y2="2.30185" gradientUnits="userSpaceOnUse">
<stop offset="0.05" stop-color="#F6F6F6"/>
<stop offset="0.7" stop-color="#9D9D9C"/>
</linearGradient>
<linearGradient id="paint14_linear_458_13901" x1="8.08465" y1="4.96954" x2="7.10836" y2="1.32414" gradientUnits="userSpaceOnUse">
<stop offset="0.49" stop-color="#F6F6F6"/>
<stop offset="1" stop-color="#B2B2B2"/>
</linearGradient>
<linearGradient id="paint15_linear_458_13901" x1="12.7586" y1="2.17542" x2="9.90682" y2="1.41077" gradientUnits="userSpaceOnUse">
<stop offset="0.05" stop-color="#F6F6F6"/>
<stop offset="0.7" stop-color="#9D9D9C"/>
</linearGradient>
<linearGradient id="paint16_linear_458_13901" x1="16.3268" y1="1.81003" x2="10.4833" y2="0.243181" gradientUnits="userSpaceOnUse">
<stop offset="0.49" stop-color="#F6F6F6"/>
<stop offset="1" stop-color="#B2B2B2"/>
</linearGradient>
<linearGradient id="paint17_linear_458_13901" x1="20.145" y1="8.03304" x2="12.6118" y2="8.03304" gradientUnits="userSpaceOnUse">
<stop offset="0.24" stop-color="#F6F6F6"/>
<stop offset="0.6" stop-color="white" stop-opacity="0"/>
</linearGradient>
<linearGradient id="paint18_linear_458_13901" x1="14.1475" y1="10.0438" x2="10.6605" y2="10.0438" gradientUnits="userSpaceOnUse">
<stop offset="0.49" stop-color="#F6F6F6"/>
<stop offset="1" stop-color="white" stop-opacity="0"/>
</linearGradient>
<linearGradient id="paint19_linear_458_13901" x1="10.6888" y1="13.4818" x2="6.50378" y2="11.0656" gradientUnits="userSpaceOnUse">
<stop offset="0.05" stop-color="#F6F6F6"/>
<stop offset="0.57" stop-color="white" stop-opacity="0"/>
</linearGradient>
<linearGradient id="paint20_linear_458_13901" x1="5.84424" y1="14.2422" x2="2.25769" y2="14.2422" gradientUnits="userSpaceOnUse">
<stop offset="0.49" stop-color="#F6F6F6"/>
<stop offset="1" stop-color="white" stop-opacity="0"/>
</linearGradient>
<linearGradient id="paint21_linear_458_13901" x1="6.56934" y1="6.3763" x2="-0.994166" y2="6.3763" gradientUnits="userSpaceOnUse">
<stop offset="0.49" stop-color="#F6F6F6"/>
<stop offset="1" stop-color="white" stop-opacity="0"/>
</linearGradient>
<linearGradient id="paint22_linear_458_13901" x1="8.8195" y1="5.14104" x2="6.25298" y2="0.695426" gradientUnits="userSpaceOnUse">
<stop stop-color="white" stop-opacity="0"/>
<stop offset="0.39" stop-color="#F6F6F6"/>
</linearGradient>
<linearGradient id="paint23_linear_458_13901" x1="16.7305" y1="0.989806" x2="10.6503" y2="0.989806" gradientUnits="userSpaceOnUse">
<stop offset="0.28" stop-color="white" stop-opacity="0"/>
<stop offset="0.51" stop-color="#F6F6F6"/>
</linearGradient>
<linearGradient id="paint24_linear_458_13901" x1="17.1281" y1="2.40821" x2="1.15117" y2="12.1414" gradientUnits="userSpaceOnUse">
<stop stop-color="#9D9D9C"/>
<stop offset="0.7" stop-color="#F6F6F6"/>
</linearGradient>
<linearGradient id="paint25_linear_458_13901" x1="15.9035" y1="9.55577" x2="3.17547" y2="6.14292" gradientUnits="userSpaceOnUse">
<stop offset="0.49" stop-color="white"/>
<stop offset="1" stop-color="white"/>
</linearGradient>
<linearGradient id="paint26_linear_458_13901" x1="17.9124" y1="15.574" x2="17.8288" y2="15.5715" gradientUnits="userSpaceOnUse">
<stop offset="0.14" stop-color="#683C11"/>
<stop offset="0.99" stop-color="#936037" stop-opacity="0"/>
</linearGradient>
<linearGradient id="paint27_linear_458_13901" x1="13.8272" y1="21.0501" x2="9.56591" y2="5.13558" gradientUnits="userSpaceOnUse">
<stop offset="0.06" stop-color="#6B3E13" stop-opacity="0.83"/>
<stop offset="0.5" stop-color="#936037" stop-opacity="0"/>
</linearGradient>
</defs>
</svg>
