<svg width="26" height="25" viewBox="0 0 26 25" fill="none" xmlns="http://www.w3.org/2000/svg">
<path d="M21.7262 2.866C22.0213 3.23613 22.3004 3.62426 22.5635 4.0304C26.5749 10.2386 25.1494 18.3194 19.3784 22.0797C13.6084 25.84 5.6786 23.8553 1.6662 17.6462C1.26206 17.0209 0.913939 16.3777 0.619835 15.7205L21.7262 2.866Z" fill="url(#paint0_linear_490_3110)"/>
<path style="mix-blend-mode:multiply" opacity="0.32" d="M21.7262 2.866C22.0213 3.23613 22.3004 3.62426 22.5635 4.0304C26.5749 10.2386 25.1494 18.3194 19.3784 22.0797C13.6084 25.84 5.6786 23.8553 1.6662 17.6462C1.26206 17.0209 0.913939 16.3777 0.619835 15.7205L21.7262 2.866Z" fill="url(#paint1_linear_490_3110)"/>
<mask id="mask0_490_3110" style="mask-type:luminance" maskUnits="userSpaceOnUse" x="0" y="0" width="23" height="19">
<path d="M4.55594 4.80768L5.28119 3.59025L7.0048 2.81798L11.4063 1.33347L12.4847 0L18.8339 0.379132C21.5319 1.39649 22.5102 3.92137 22.5632 4.09343C22.9514 5.36687 21.6229 6.52027 21.6229 6.52027L20.1224 7.35056L18.2327 11.7931L15.7719 12.0402L14.6415 13.0686L12.9509 12.5014L8.26724 16.4487L6.20052 16.6998L2.57425 18.0123C2.57425 18.0123 0.862654 16.8769 0.337471 15.2443C-0.187712 13.6117 0.292456 10.2396 0.33547 8.67903C0.378485 7.11848 4.55694 4.80868 4.55694 4.80868L4.55594 4.80768ZM1.81799 13.9269C1.77497 14.8782 2.66628 15.3564 2.66628 15.3564L5.46926 14.0379L6.94377 13.5977L10.9442 10.6127L11.1012 10.4947L11.1182 10.4817L11.2623 10.4997L11.4233 10.5197L11.5844 10.5397L11.7454 10.5597L11.9065 10.5797L12.0676 10.5997L12.1346 10.6077L12.2266 10.5357L12.3837 10.4126L12.5407 10.2896L12.6978 10.1665L12.8548 10.0435L13.0119 9.92046L13.1589 9.80542L13.1689 9.80242L13.328 9.7574L13.4871 9.71239L13.6461 9.66737L13.8052 9.62236L13.9642 9.57734L14.1233 9.53232L14.2823 9.48731L14.4414 9.44229L14.6004 9.39728L14.7595 9.35226L14.8985 9.31325L14.9186 9.28724L15.0736 9.08917L15.2287 8.8911L15.3837 8.69303L15.5388 8.49496L15.6938 8.29689L15.8489 8.09882L16.0039 7.90075L16.159 7.70269L16.314 7.50462L16.4691 7.30655L16.6242 7.10848L16.7792 6.91041L16.9343 6.71234L17.0893 6.51427L17.2444 6.3162L17.2784 6.27219L17.4014 6.19916L17.5595 6.10613L17.7175 6.0131L17.8756 5.92006L18.0336 5.82703L18.1917 5.734L18.3498 5.64097L18.5078 5.54793C18.5078 5.54793 18.5698 5.50092 18.6649 5.41989C18.7109 5.38088 18.7639 5.33486 18.8219 5.28184C18.8709 5.23683 18.924 5.18781 18.979 5.13379C19.03 5.08377 19.083 5.03075 19.135 4.97373C19.188 4.91771 19.2401 4.85869 19.2911 4.79867C19.3451 4.73365 19.3981 4.66763 19.4461 4.5986C19.5032 4.51858 19.5562 4.43555 19.6002 4.35352C19.6822 4.20046 19.7382 4.04541 19.7472 3.89636C19.7502 3.84934 19.7412 3.50622 19.5672 3.12709C19.5232 3.03006 19.4671 2.93102 19.3991 2.83399C19.3511 2.76596 19.2961 2.69794 19.2331 2.63292C19.183 2.5809 19.128 2.53088 19.068 2.48287C19.017 2.44185 18.963 2.40384 18.9039 2.36683C18.8529 2.33481 18.7989 2.3038 18.7409 2.27479C18.6899 2.24978 18.6349 2.22578 18.5788 2.20377C18.5268 2.18376 18.4728 2.16475 18.4168 2.14775C18.3648 2.13174 18.3107 2.11774 18.2547 2.10473C18.2087 2.09373 18.1607 2.08473 18.1107 2.07672L18.0937 2.07872L17.9336 2.09773L17.7736 2.11674L17.6135 2.13574L17.4534 2.15475L17.2934 2.17376L17.1333 2.19276L16.9733 2.21177L16.8132 2.23078L16.6532 2.24978L16.4931 2.26879L16.333 2.2878L16.173 2.3068L16.0129 2.32581L15.8529 2.34482L15.6928 2.36382L15.5328 2.38283L15.3727 2.40184L15.2127 2.42084L15.0526 2.43985L14.8925 2.45886L14.7325 2.47786L14.5724 2.49687L14.4124 2.51588L14.2523 2.53488L14.0923 2.55389L14.0052 2.56389L13.9342 2.63392L13.7772 2.78797L13.6201 2.94203L13.463 3.09608L13.306 3.25013L13.1489 3.40419L12.9919 3.55824L12.9819 3.56824L12.8338 3.63127L12.6748 3.69929L12.5157 3.76731L12.3567 3.83534L12.1976 3.90336L12.0386 3.97138L11.8795 4.03941L11.7204 4.10743L11.5614 4.17546L11.4023 4.24348L11.2433 4.3115L11.0842 4.37953L10.9252 4.44755L10.7661 4.51557L9.3046 5.13779L7.83508 5.78402L7.21987 6.79837C7.21987 6.79837 3.82769 8.82808 3.41454 9.81142C3.0014 10.7958 1.842 12.9755 1.79998 13.9269H1.81799Z" fill="white"/>
</mask>
<g mask="url(#mask0_490_3110)">
<path d="M22.5798 4.14944C22.5268 3.97638 21.5495 1.4515 18.8505 0.435146L12.3263 -0.0190125L11.3699 1.33246L7.02142 2.874L5.26481 3.59125L4.51255 4.83468C4.51255 4.83468 0.394114 7.1735 0.351099 8.73404C0.309084 10.2946 -0.172083 13.6658 0.3531 15.2993C0.878283 16.9319 2.58988 18.0673 2.58988 18.0673L6.21614 16.7548L8.28286 16.5037L12.9665 12.5564L14.6571 13.1236L15.7875 12.0952L18.2483 11.8481L20.138 7.40558L21.6385 6.57529C21.6385 6.57529 22.967 5.42188 22.5788 4.14844L22.5798 4.14944Z" fill="#783E16"/>
<mask id="mask1_490_3110" style="mask-type:luminance" maskUnits="userSpaceOnUse" x="0" y="-1" width="23" height="20">
<path d="M22.5798 4.14944C22.5268 3.97638 21.5495 1.4515 18.8505 0.435146L12.3263 -0.0190125L11.3699 1.33246L7.02142 2.874L5.26481 3.59125L4.51255 4.83468C4.51255 4.83468 0.394114 7.1735 0.351099 8.73404C0.309084 10.2946 -0.172083 13.6658 0.3531 15.2993C0.878283 16.9319 2.58988 18.0673 2.58988 18.0673L6.21614 16.7548L8.28286 16.5037L12.9665 12.5564L14.6571 13.1236L15.7875 12.0952L18.2483 11.8481L20.138 7.40558L21.6385 6.57529C21.6385 6.57529 22.967 5.42188 22.5788 4.14844L22.5798 4.14944Z" fill="white"/>
</mask>
<g mask="url(#mask1_490_3110)">
<path d="M21.5518 1.45448L23.3855 6.25216L24.7729 4.73963L21.5518 1.45448Z" fill="#783E16"/>
<path d="M21.386 1.28543L21.23 1.22441L23.2207 6.43223L23.3857 6.25216L21.5521 1.45449L21.386 1.28543Z" fill="#783E16"/>
<path d="M21.2295 1.22439L20.9544 1.11536L23.0552 6.61227L23.2202 6.43221L21.2295 1.22439Z" fill="#783E16"/>
<path d="M20.9544 1.11537L20.6793 1.00633L22.8901 6.79135L23.0552 6.61229L20.9544 1.11537Z" fill="#783E16"/>
<path d="M20.6794 1.00633L20.4043 0.897293L22.7251 6.97141L22.8901 6.79135L20.6794 1.00633Z" fill="#783E16"/>
<path d="M20.4043 0.897292L20.1292 0.788254L22.56 7.15147L22.7251 6.97141L20.4043 0.897292Z" fill="#783E16"/>
<path d="M20.1292 0.788237L19.8531 0.679199L22.395 7.33152L22.5601 7.15146L20.1292 0.788237Z" fill="#783E16"/>
<path d="M19.8526 0.679228L19.5775 0.57019L22.2295 7.51061L22.3945 7.33155L19.8526 0.679228Z" fill="#783E16"/>
<path d="M19.5781 0.570174L19.303 0.461136L22.0649 7.69066L22.23 7.51059L19.5781 0.570174Z" fill="#783E16"/>
<path d="M19.303 0.461135L19.0279 0.352097L21.8999 7.87072L22.0649 7.69065L19.303 0.461135Z" fill="#783E16"/>
<path d="M19.0279 0.352095L18.7518 0.243057L21.7358 8.05078L21.8999 7.87072L19.0279 0.352095Z" fill="#783E16"/>
<path d="M18.7518 0.243071L18.4767 0.134033L21.5708 8.22986L21.7358 8.05079L18.7518 0.243071Z" fill="#783E16"/>
<path d="M18.4762 0.134038L18.2011 0.026001L21.4053 8.40992L21.5703 8.22986L18.4762 0.134038Z" fill="#783E16"/>
<path d="M18.2016 0.0259846L17.9265 -0.0830536L21.2407 8.58997L21.4058 8.40991L18.2016 0.0259846Z" fill="#783E16"/>
<path d="M17.9266 -0.0830549L17.6515 -0.192093L21.0757 8.76903L21.2407 8.58997L17.9266 -0.0830549Z" fill="#783E16"/>
<path d="M17.6515 -0.192094L17.3754 -0.301132L20.9106 8.94909L21.0757 8.76903L17.6515 -0.192094Z" fill="#783E16"/>
<path d="M17.3754 -0.301118L17.1003 -0.410156L20.7456 9.12917L20.9106 8.94911L17.3754 -0.301118Z" fill="#783E16"/>
<path d="M17.1003 -0.410158L16.8252 -0.519196L20.5805 9.30923L20.7456 9.12917L17.1003 -0.410158Z" fill="#783E16"/>
<path d="M16.8248 -0.519197L16.5497 -0.628235L20.415 9.48829L20.5801 9.30923L16.8248 -0.519197Z" fill="#783E16"/>
<path d="M16.5502 -0.628251L16.2751 -0.737289L20.2505 9.66834L20.4155 9.48828L16.5502 -0.628251Z" fill="#783E16"/>
<path d="M16.2746 -0.737275L15.9985 -0.846313L20.0849 9.84841L20.25 9.66835L16.2746 -0.737275Z" fill="#783E16"/>
<path d="M15.999 -0.846315L15.7239 -0.955353L19.9204 10.0285L20.0854 9.84841L15.999 -0.846315Z" fill="#783E16"/>
<path d="M15.7235 -0.955354L15.4484 -1.06439L19.7559 10.2075L19.9199 10.0285L15.7235 -0.955354Z" fill="#783E16"/>
<path d="M15.4484 -1.06439L15.1733 -1.17343L19.5908 10.3876L19.7559 10.2075L15.4484 -1.06439Z" fill="#783E16"/>
<path d="M15.1738 -1.17343L14.8977 -1.28247L19.4263 10.5677L19.5913 10.3876L15.1738 -1.17343Z" fill="#783E16"/>
<path d="M14.8972 -1.28247L14.6221 -1.3905L19.2607 10.7467L19.4258 10.5677L14.8972 -1.28247Z" fill="#783E16"/>
<path d="M14.6226 -1.3905L14.3475 -1.49954L19.0962 10.9268L19.2612 10.7467L14.6226 -1.3905Z" fill="#783E16"/>
<path d="M14.347 -1.49954L14.072 -1.60858L18.9306 11.1069L19.0957 10.9268L14.347 -1.49954Z" fill="#783E16"/>
<path d="M14.0725 -1.60858L13.7974 -1.71762L18.7661 11.2869L18.9312 11.1069L14.0725 -1.60858Z" fill="#783E16"/>
<path d="M13.7969 -1.71762L13.5208 -1.82666L18.6006 11.466L18.7656 11.2869L13.7969 -1.71762Z" fill="#783E16"/>
<path d="M13.5213 -1.82666L13.2462 -1.9357L18.436 11.646L18.6011 11.466L13.5213 -1.82666Z" fill="#783E16"/>
<path d="M13.2457 -1.9357L12.9706 -2.04474L18.2705 11.8261L18.4355 11.646L13.2457 -1.9357Z" fill="#783E16"/>
<path d="M12.9707 -2.04474L12.6956 -2.15378L18.1055 12.0062L18.2705 11.8261L12.9707 -2.04474Z" fill="#783E16"/>
<path d="M12.6956 -2.15378L12.4205 -2.26282L17.9404 12.1852L18.1055 12.0062L12.6956 -2.15378Z" fill="#783E16"/>
<path d="M12.421 -2.2628L12.1449 -2.37184L17.7759 12.3653L17.9409 12.1852L12.421 -2.2628Z" fill="#783E16"/>
<path d="M12.1444 -2.37186L11.8693 -2.4809L17.6113 12.5453L17.7754 12.3653L12.1444 -2.37186Z" fill="#783E16"/>
<path d="M11.8581 -2.48789L11.582 -2.59692L17.4341 12.7174L17.5991 12.5374L11.8581 -2.48789Z" fill="#783E16"/>
<path d="M11.5947 -2.58994L11.3196 -2.69897L17.2817 12.9045L17.4468 12.7244L11.5947 -2.58994Z" fill="#783E16"/>
<path d="M11.3192 -2.69895L11.0431 -2.80798L17.1162 13.0846L17.2812 12.9045L11.3192 -2.69895Z" fill="#783E16"/>
<path d="M11.0436 -2.80799L10.7685 -2.91603L16.9516 13.2646L17.1167 13.0845L11.0436 -2.80799Z" fill="#783E16"/>
<path d="M10.768 -2.91605L10.4929 -3.02509L16.7861 13.4437L16.9512 13.2646L10.768 -2.91605Z" fill="#783E16"/>
<path d="M10.4929 -3.02507L10.2178 -3.13411L16.6211 13.6237L16.7861 13.4437L10.4929 -3.02507Z" fill="#783E16"/>
<path d="M10.2174 -3.13412L9.95028 -3.24016L9.94528 -3.23516L16.4555 13.8038L16.6206 13.6237L10.2174 -3.13412Z" fill="#783E16"/>
<path d="M9.78122 -3.05509L16.2915 13.9828L16.4565 13.8038L9.94627 -3.23515L9.78122 -3.05509Z" fill="#783E16"/>
<path d="M9.61569 -2.87502L16.126 14.1629L16.291 13.9829L9.78075 -3.05508L9.61569 -2.87502Z" fill="#783E16"/>
<path d="M9.45114 -2.69595L15.9614 14.343L16.1265 14.1629L9.6162 -2.87502L9.45114 -2.69595Z" fill="#783E16"/>
<path d="M9.28512 -2.51591L15.7954 14.523L15.9604 14.343L9.45018 -2.69597L9.28512 -2.51591Z" fill="#783E16"/>
<path d="M9.12057 -2.33582L15.6318 14.7021L15.7959 14.5231L9.28563 -2.51588L9.12057 -2.33582Z" fill="#783E16"/>
<path d="M8.95551 -2.15577L15.4668 14.8822L15.6318 14.7021L9.12057 -2.33583L8.95551 -2.15577Z" fill="#783E16"/>
<path d="M8.78998 -1.9767L15.3013 15.0622L15.4663 14.8822L8.95504 -2.15576L8.78998 -1.9767Z" fill="#783E16"/>
<path d="M8.62494 -1.79665L15.1362 15.2423L15.3013 15.0622L8.79 -1.97672L8.62494 -1.79665Z" fill="#783E16"/>
<path d="M8.4609 -1.61658L14.9712 15.4214L15.1362 15.2423L8.62496 -1.79665L8.4609 -1.61658Z" fill="#783E16"/>
<path d="M8.29635 -1.43651L14.8066 15.6014L14.9717 15.4214L8.46141 -1.61658L8.29635 -1.43651Z" fill="#783E16"/>
<path d="M8.13083 -1.25746L14.6411 15.7815L14.8062 15.6014L8.29588 -1.43652L8.13083 -1.25746Z" fill="#783E16"/>
<path d="M7.96627 -1.0774L14.4765 15.9605L14.6416 15.7815L8.13133 -1.25746L7.96627 -1.0774Z" fill="#783E16"/>
<path d="M7.80075 -0.89733L14.311 16.1406L14.4761 15.9605L7.9658 -1.07739L7.80075 -0.89733Z" fill="#783E16"/>
<path d="M7.63571 -0.718277L14.146 16.3207L14.311 16.1406L7.80077 -0.897339L7.63571 -0.718277Z" fill="#783E16"/>
<path d="M7.47067 -0.538199L13.9809 16.5007L14.146 16.3207L7.63573 -0.718262L7.47067 -0.538199Z" fill="#783E16"/>
<path d="M1.77719 17.8472L9.824 21.0313L13.9814 16.5007L7.47118 -0.538208L-3.99682 11.9592L1.77719 17.8472Z" fill="#783E16"/>
</g>
<mask id="mask2_490_3110" style="mask-type:luminance" maskUnits="userSpaceOnUse" x="0" y="0" width="23" height="18">
<path d="M21.9956 4.3255C21.9466 4.16445 21.0353 1.80663 18.4824 0.872299L12.5913 0.371124L11.641 1.67658L7.26146 3.24413L5.60089 3.93437L4.85662 5.08177C4.85662 5.08177 0.935259 7.29654 0.885241 8.75805C0.835222 10.2186 0.358057 13.3777 0.846228 14.9032C1.3344 16.4277 2.95096 17.4801 2.95096 17.4801L6.39816 16.2287L8.03573 16.0316L12.8264 12.2563L14.427 12.7765L15.5053 11.8071L17.8412 11.56L19.6618 7.39057L21.0903 6.6033C21.0903 6.6033 22.3577 5.51492 21.9976 4.3265L21.9956 4.3255Z" fill="white"/>
</mask>
<g mask="url(#mask2_490_3110)">
<path d="M21.0377 1.80864L22.7453 6.2882L24.0718 4.8637L21.0377 1.80864Z" fill="#C6C6C6"/>
<path d="M20.8815 1.65158L20.7334 1.59456L22.5881 6.45725L22.7451 6.28819L21.0375 1.80863L20.8815 1.65158Z" fill="#C6C6C6"/>
<path d="M20.7332 1.59456L20.4732 1.49452L22.4298 6.62631L22.5879 6.45725L20.7332 1.59456Z" fill="#C7C7C7"/>
<path d="M20.473 1.49454L20.2119 1.3945L22.2726 6.79638L22.4297 6.62632L20.473 1.49454Z" fill="#C8C8C8"/>
<path d="M20.2122 1.3945L19.9521 1.29446L22.1149 6.96544L22.2729 6.79638L20.2122 1.3945Z" fill="#C9C9C9"/>
<path d="M19.952 1.29446L19.6919 1.19443L21.9577 7.1345L22.1147 6.96544L19.952 1.29446Z" fill="#CACACA"/>
<path d="M19.6927 1.19443L19.4316 1.0934L21.8004 7.30356L21.9585 7.1345L19.6927 1.19443Z" fill="#CBCBCB"/>
<path d="M19.4315 1.0934L19.1714 0.993362L21.6432 7.47362L21.8003 7.30356" fill="#CCCCCC"/>
<path d="M19.1707 0.993361L18.9106 0.893326L21.4845 7.64268L21.6426 7.47362L19.1707 0.993361Z" fill="#CDCDCD"/>
<path d="M18.911 0.893324L18.6499 0.793289L21.3278 7.81174L21.4849 7.64268L18.911 0.893324Z" fill="#CECECE"/>
<path d="M18.6497 0.793296L18.3896 0.692261L21.1696 7.9818L21.3276 7.81174L18.6497 0.793296Z" fill="#CFCFCF"/>
<path d="M18.3895 0.692259L18.1294 0.592224L21.0114 8.15086L21.1694 7.9818L18.3895 0.692259Z" fill="#D0D0D0"/>
<path d="M18.1292 0.592207L17.8681 0.492172L20.8542 8.3199L21.0112 8.15084L18.1292 0.592207Z" fill="#D1D1D1"/>
<path d="M17.8685 0.492186L17.6084 0.392151L20.6964 8.48897L20.8545 8.31991L17.8685 0.492186Z" fill="#D2D2D2"/>
<path d="M17.6087 0.392149L17.3486 0.292114L20.5397 8.65903L20.6968 8.48897L17.6087 0.392149Z" fill="#D3D3D3"/>
<path d="M17.3479 0.292106L17.0869 0.191071L20.381 8.82808L20.5391 8.65902L17.3479 0.292106Z" fill="#D4D4D4"/>
<path d="M17.0867 0.191069L16.8266 0.0910339L20.2238 8.99714L20.3809 8.82808L17.0867 0.191069Z" fill="#D5D5D5"/>
<path d="M16.8269 0.0910475L16.5668 -0.00898743L20.0661 9.16621L20.2241 8.99715L16.8269 0.0910475Z" fill="#D6D6D6"/>
<path d="M16.5667 -0.00898918L16.3056 -0.109024L19.9089 9.33627L20.0659 9.16621L16.5667 -0.00898918Z" fill="#D7D7D7"/>
<path d="M16.3064 -0.109026L16.0463 -0.209061L19.7516 9.50533L19.9097 9.33627L16.3064 -0.109026Z" fill="#D8D8D8"/>
<path d="M16.0462 -0.209069L15.7861 -0.310104L19.5944 9.67438L19.7515 9.50532L16.0462 -0.209069Z" fill="#D9D9D9"/>
<path d="M15.7864 -0.310106L15.5253 -0.410141L19.4367 9.84343L19.5947 9.67437L15.7864 -0.310106Z" fill="#DADADA"/>
<path d="M15.5252 -0.410143L15.2651 -0.510178L19.2785 10.0135L19.4365 9.84343L15.5252 -0.410143Z" fill="#DBDBDB"/>
<path d="M15.2649 -0.510179L15.0048 -0.610214L19.1213 10.1825L19.2783 10.0135L15.2649 -0.510179Z" fill="#DCDCDC"/>
<path d="M15.0042 -0.610207L14.7431 -0.711243L18.9626 10.3516L19.1206 10.1826L15.0042 -0.610207Z" fill="#DDDDDD"/>
<path d="M14.7434 -0.711229L14.4833 -0.811264L18.8058 10.5217L18.9629 10.3516L14.7434 -0.711229Z" fill="#DEDEDE"/>
<path d="M14.4836 -0.811266L14.2236 -0.911301L18.6481 10.6907L18.8062 10.5217L14.4836 -0.811266Z" fill="#DFDFDF"/>
<path d="M14.2234 -0.911302L13.9623 -1.01134L18.4909 10.8598L18.6479 10.6907L14.2234 -0.911302Z" fill="#E0E0E0"/>
<path d="M13.9621 -1.01134L13.7021 -1.11137L18.3327 11.0289L18.4907 10.8598L13.9621 -1.01134Z" fill="#E1E1E1"/>
<path d="M13.7024 -1.11138L13.4423 -1.21242L18.176 11.1989L18.333 11.0288L13.7024 -1.11138Z" fill="#E3E3E3"/>
<path d="M13.4416 -1.21242L13.1806 -1.31245L18.0172 11.368L18.1753 11.1989L13.4416 -1.21242Z" fill="#E4E4E4"/>
<path d="M13.1804 -1.31244L12.9203 -1.41248L17.859 11.537L18.0171 11.368L13.1804 -1.31244Z" fill="#E5E5E5"/>
<path d="M12.9207 -1.41248L12.6606 -1.51251L17.7023 11.7061L17.8594 11.537L12.9207 -1.41248Z" fill="#E6E6E6"/>
<path d="M12.6609 -1.51252L12.3998 -1.61356L17.5446 11.8761L17.7026 11.7061L12.6609 -1.51252Z" fill="#E7E7E7"/>
<path d="M12.3996 -1.61356L12.1396 -1.71359L17.3874 12.0452L17.5444 11.8761L12.3996 -1.61356Z" fill="#E8E8E8"/>
<path d="M12.1394 -1.71358L11.8793 -1.81361L17.2292 12.2143L17.3872 12.0452L12.1394 -1.71358Z" fill="#E9E9E9"/>
<path d="M11.8796 -1.81363L11.6185 -1.91367L17.0724 12.3843L17.2295 12.2143L11.8796 -1.81363Z" fill="#EAEAEA"/>
<path d="M11.6179 -1.91367L11.3578 -2.0137L16.9137 12.5534L17.0718 12.3843L11.6179 -1.91367Z" fill="#EBEBEB"/>
<path d="M11.3576 -2.0137L11.0965 -2.11473L16.7565 12.7224L16.9136 12.5534L11.3576 -2.0137Z" fill="#ECECEC"/>
<path d="M11.0974 -2.11473L10.8373 -2.21477L16.5993 12.8915L16.7573 12.7224L11.0974 -2.11473Z" fill="#EDEDED"/>
<path d="M10.8371 -2.21477L10.577 -2.3148L16.4421 13.0616L16.5991 12.8915L10.8371 -2.21477Z" fill="#EEEEEE"/>
<path d="M10.5773 -2.31479L10.3162 -2.41483L16.2843 13.2306L16.4424 13.0616L10.5773 -2.31479Z" fill="#EFEFEF"/>
<path d="M10.3161 -2.41483L10.064 -2.51286L10.059 -2.50786L16.1261 13.3997L16.2842 13.2306L10.3161 -2.41483Z" fill="#F0F0F0"/>
<path d="M9.90181 -2.33781L15.9689 13.5687L16.126 13.3997L10.0589 -2.50787L9.90181 -2.33781Z" fill="#F1F1F1"/>
<path d="M9.74358 -2.16876L15.8107 13.7388L15.9688 13.5687L9.90164 -2.33781L9.74358 -2.16876Z" fill="#F2F2F2"/>
<path d="M9.58638 -1.99969L15.6535 13.9079L15.8105 13.7388L9.74343 -2.16875L9.58638 -1.99969Z" fill="#F3F3F3"/>
<path d="M9.42864 -1.83062L15.4958 14.0769L15.6538 13.9079L9.58669 -1.99968L9.42864 -1.83062Z" fill="#F4F4F4"/>
<path d="M9.27044 -1.66057L15.3386 14.246L15.4956 14.0769L9.42849 -1.83063L9.27044 -1.66057Z" fill="#F5F5F5"/>
<path d="M9.1137 -1.49151L15.1808 14.416L15.3389 14.246L9.27075 -1.66057L9.1137 -1.49151Z" fill="#F6F6F6"/>
<path d="M8.95549 -1.32244L15.0236 14.5851L15.1807 14.416L9.11355 -1.4915L8.95549 -1.32244Z" fill="#F7F7F7"/>
<path d="M8.79827 -1.15239L14.8654 14.7542L15.0234 14.5851L8.95532 -1.32245L8.79827 -1.15239Z" fill="#F8F8F8"/>
<path d="M8.64007 -0.983331L14.7072 14.9242L14.8652 14.7542L8.79812 -1.15239L8.64007 -0.983331Z" fill="#F9F9F9"/>
<path d="M8.48286 -0.814278L14.55 15.0933L14.707 14.9242L8.63992 -0.983337L8.48286 -0.814278Z" fill="#FAFAFA"/>
<path d="M8.32512 -0.645211L14.3922 15.2623L14.5503 15.0933L8.48318 -0.81427L8.32512 -0.645211Z" fill="#FBFBFB"/>
<path d="M8.16792 -0.475159L14.235 15.4314L14.3921 15.2623L8.32497 -0.645218L8.16792 -0.475159Z" fill="#FCFCFC"/>
<path d="M8.01067 -0.306084L14.0778 15.6015L14.2358 15.4314L8.16873 -0.475143L8.01067 -0.306084Z" fill="#FDFDFD"/>
<path d="M7.85247 -0.137048L13.9206 15.7705L14.0776 15.6014L8.01052 -0.306107L7.85247 -0.137048Z" fill="#FEFEFE"/>
<path d="M7.69475 0.0320196L13.7619 15.9396L13.9199 15.7705L7.85181 -0.137039L7.69475 0.0320196Z" fill="white"/>
<path d="M2.17768 17.277L9.78933 20.207L13.7617 15.9396L7.6946 0.0320129L-3.26122 11.8031L2.17768 17.277Z" fill="white"/>
</g>
<path d="M1.76864 13.9739C1.81166 13.0225 2.97006 10.8428 3.38321 9.85843C3.79635 8.87409 7.18853 6.84538 7.18853 6.84538L7.80375 5.83103L9.27326 5.1848L10.7348 4.56258L10.8938 4.49456L11.0529 4.42654L11.2119 4.35851L11.371 4.29049L11.53 4.22247L11.6891 4.15444L11.8482 4.08642L12.0072 4.01839L12.1663 3.95037L12.3253 3.88235L12.4844 3.81432L12.6434 3.7463L12.8025 3.67828L12.9505 3.61525L12.9605 3.60525L13.1176 3.4512L13.2747 3.29714L13.4317 3.14309L13.5888 2.98904L13.7458 2.83498L13.9029 2.68093L13.9739 2.6109L14.0609 2.6009L14.221 2.58189L14.381 2.56289L14.5411 2.54388L14.7011 2.52487L14.8612 2.50587L15.0213 2.48686L15.1813 2.46785L15.3414 2.44885L15.5014 2.42984L15.6615 2.41083L15.8215 2.39183L15.9816 2.37282L16.1417 2.35381L16.3017 2.33481L16.4618 2.3158L16.6218 2.29679L16.7819 2.27779L16.9419 2.25878L17.102 2.23977L17.262 2.22077L17.4221 2.20176L17.5822 2.18275L17.7422 2.16375L17.9023 2.14474L18.0623 2.12573L18.0793 2.12373C18.1283 2.13174 18.1764 2.14174 18.2234 2.15174C18.2794 2.16475 18.3334 2.17875 18.3854 2.19476C18.4415 2.21176 18.4955 2.23077 18.5475 2.25078C18.6045 2.27279 18.6585 2.29579 18.7095 2.3218C18.7676 2.35081 18.8216 2.38082 18.8726 2.41383C18.9306 2.45085 18.9856 2.48886 19.0367 2.52988C19.0967 2.57789 19.1517 2.62791 19.2017 2.67993C19.2637 2.74495 19.3198 2.81197 19.3678 2.881C19.4358 2.97803 19.4918 3.07707 19.5358 3.1741C19.7099 3.55323 19.7189 3.89635 19.7159 3.94337C19.7059 4.09242 19.6509 4.24747 19.5688 4.40053C19.5238 4.48356 19.4718 4.56559 19.4148 4.64561C19.3658 4.71364 19.3138 4.78066 19.2597 4.84568C19.2087 4.9067 19.1567 4.96472 19.1037 5.02074C19.0507 5.07676 18.9986 5.12978 18.9476 5.1808C18.8926 5.23382 18.8406 5.28384 18.7906 5.32885C18.7326 5.38187 18.6795 5.42789 18.6335 5.4669C18.5385 5.54793 18.4765 5.59394 18.4765 5.59394L18.3184 5.68698L18.1604 5.78001L18.0023 5.87304L17.8442 5.96607L17.6862 6.05911L17.5281 6.15214L17.3701 6.24517L17.247 6.3182L17.213 6.36221L17.058 6.56028L16.9029 6.75835L16.7479 6.95642L16.5928 7.15449L16.4378 7.35256L16.2827 7.55063L16.1276 7.74869L15.9726 7.94676L15.8175 8.14483L15.6625 8.3429L15.5074 8.54097L15.3524 8.73904L15.1973 8.93711L15.0423 9.13518L14.8872 9.33325L14.8672 9.35926L14.7282 9.39827L14.5691 9.44329L14.41 9.4883L14.251 9.53332L14.0919 9.57833L13.9329 9.62335L13.7738 9.66836L13.6148 9.71338L13.4557 9.7584L13.2967 9.80341L13.1376 9.84843L13.1276 9.85143L12.9805 9.96647L12.8235 10.0895L12.6664 10.2126L12.5094 10.3356L12.3523 10.4586L12.1953 10.5817L12.1032 10.6537L12.0362 10.6457L11.8752 10.6257L11.7141 10.6057L11.5531 10.5857L11.392 10.5657L11.2309 10.5457L11.0869 10.5277L11.0699 10.5407L10.9128 10.6587L6.91243 13.6438L5.43792 14.0839L2.63494 15.4024C2.63494 15.4024 1.74363 14.9242 1.78665 13.9729L1.76864 13.9739Z" fill="url(#paint2_linear_490_3110)"/>
<path d="M1.76864 13.9739C1.81166 13.0225 2.97006 10.8428 3.38321 9.85843C3.79635 8.87409 7.18853 6.84538 7.18853 6.84538L7.80375 5.83103L9.27326 5.1848L10.7348 4.56258L10.8938 4.49456L11.0529 4.42654L11.2119 4.35851L11.371 4.29049L11.53 4.22247L11.6891 4.15444L11.8482 4.08642L12.0072 4.01839L12.1663 3.95037L12.3253 3.88235L12.4844 3.81432L12.6434 3.7463L12.8025 3.67828L12.9505 3.61525L12.9605 3.60525L13.1176 3.4512L13.2747 3.29714L13.4317 3.14309L13.5888 2.98904L13.7458 2.83498L13.9029 2.68093L13.9739 2.6109L14.0609 2.6009L14.221 2.58189L14.381 2.56289L14.5411 2.54388L14.7011 2.52487L14.8612 2.50587L15.0213 2.48686L15.1813 2.46785L15.3414 2.44885L15.5014 2.42984L15.6615 2.41083L15.8215 2.39183L15.9816 2.37282L16.1417 2.35381L16.3017 2.33481L16.4618 2.3158L16.6218 2.29679L16.7819 2.27779L16.9419 2.25878L17.102 2.23977L17.262 2.22077L17.4221 2.20176L17.5822 2.18275L17.7422 2.16375L17.9023 2.14474L18.0623 2.12573L18.0793 2.12373C18.1283 2.13174 18.1764 2.14174 18.2234 2.15174C18.2794 2.16475 18.3334 2.17875 18.3854 2.19476C18.4415 2.21176 18.4955 2.23077 18.5475 2.25078C18.6045 2.27279 18.6585 2.29579 18.7095 2.3218C18.7676 2.35081 18.8216 2.38082 18.8726 2.41383C18.9306 2.45085 18.9856 2.48886 19.0367 2.52988C19.0967 2.57789 19.1517 2.62791 19.2017 2.67993C19.2637 2.74495 19.3198 2.81197 19.3678 2.881C19.4358 2.97803 19.4918 3.07707 19.5358 3.1741C19.7099 3.55323 19.7189 3.89635 19.7159 3.94337C19.7059 4.09242 19.6509 4.24747 19.5688 4.40053C19.5238 4.48356 19.4718 4.56559 19.4148 4.64561C19.3658 4.71364 19.3138 4.78066 19.2597 4.84568C19.2087 4.9067 19.1567 4.96472 19.1037 5.02074C19.0507 5.07676 18.9986 5.12978 18.9476 5.1808C18.8926 5.23382 18.8406 5.28384 18.7906 5.32885C18.7326 5.38187 18.6795 5.42789 18.6335 5.4669C18.5385 5.54793 18.4765 5.59394 18.4765 5.59394L18.3184 5.68698L18.1604 5.78001L18.0023 5.87304L17.8442 5.96607L17.6862 6.05911L17.5281 6.15214L17.3701 6.24517L17.247 6.3182L17.213 6.36221L17.058 6.56028L16.9029 6.75835L16.7479 6.95642L16.5928 7.15449L16.4378 7.35256L16.2827 7.55063L16.1276 7.74869L15.9726 7.94676L15.8175 8.14483L15.6625 8.3429L15.5074 8.54097L15.3524 8.73904L15.1973 8.93711L15.0423 9.13518L14.8872 9.33325L14.8672 9.35926L14.7282 9.39827L14.5691 9.44329L14.41 9.4883L14.251 9.53332L14.0919 9.57833L13.9329 9.62335L13.7738 9.66836L13.6148 9.71338L13.4557 9.7584L13.2967 9.80341L13.1376 9.84843L13.1276 9.85143L12.9805 9.96647L12.8235 10.0895L12.6664 10.2126L12.5094 10.3356L12.3523 10.4586L12.1953 10.5817L12.1032 10.6537L12.0362 10.6457L11.8752 10.6257L11.7141 10.6057L11.5531 10.5857L11.392 10.5657L11.2309 10.5457L11.0869 10.5277L11.0699 10.5407L10.9128 10.6587L6.91243 13.6438L5.43792 14.0839L2.63495 15.4024C2.63495 15.4024 1.74363 14.9242 1.78665 13.9729L1.76864 13.9739Z" stroke="url(#paint3_linear_490_3110)" stroke-width="0.35" stroke-miterlimit="10"/>
<path style="mix-blend-mode:overlay" opacity="0.21" d="M17.0439 6.15715C17.1069 6.19216 22.7539 8.65702 22.7539 8.65702C22.7539 8.65702 18.4724 11.9342 18.4054 11.9162C18.3374 11.8981 14.28 8.8731 14.28 8.8731L17.0439 6.15715Z" fill="url(#paint4_linear_490_3110)"/>
<path style="mix-blend-mode:multiply" opacity="0.24" d="M18.4053 11.9151C18.3763 11.8891 14.2798 8.87209 14.2798 8.87209L12.7273 9.53232L16.1835 12.3683L18.4043 11.9141L18.4053 11.9151Z" fill="url(#paint5_linear_490_3110)"/>
<path style="mix-blend-mode:overlay" opacity="0.21" d="M16.0078 12.2143L12.3065 9.17621L12.0844 10.5107L15.1055 13.4207C15.1055 13.4207 15.9698 12.2223 16.0078 12.2153V12.2143Z" fill="url(#paint6_linear_490_3110)"/>
<path style="mix-blend-mode:multiply" opacity="0.24" d="M15.105 13.4197L11.2126 9.81442L10.8935 10.3626L13.4074 12.8655L15.105 13.4197Z" fill="url(#paint7_linear_490_3110)"/>
<path style="mix-blend-mode:overlay" opacity="0.21" d="M13.4092 12.9285L10.2981 9.7504L6.78887 13.5237L8.81958 17.6251L13.4092 12.9285Z" fill="url(#paint8_linear_490_3110)"/>
<path style="mix-blend-mode:multiply" opacity="0.24" d="M8.81982 17.6251L6.52903 12.5674L5.13054 13.6318L7.06121 17.7052L8.81982 17.6251Z" fill="url(#paint9_linear_490_3110)"/>
<path style="mix-blend-mode:overlay" opacity="0.21" d="M6.66748 16.8759L4.89186 13.0696L2.63307 15.2153L3.17326 18.9706L6.66748 16.8759Z" fill="url(#paint10_linear_490_3110)"/>
<path style="mix-blend-mode:multiply" opacity="0.24" d="M2.95086 17.5721L2.4727 14.259C2.4727 14.259 3.73314 9.59234 3.70813 9.58534C3.68312 9.57834 -0.873467 7.94077 -0.873467 7.94077L-0.826451 16.1346L2.95086 17.5731V17.5721Z" fill="url(#paint11_linear_490_3110)"/>
<path style="mix-blend-mode:overlay" opacity="0.21" d="M3.8016 9.61037L-1.02408 7.86376L4.48484 4.73466L7.48389 7.05047L3.8016 9.61037Z" fill="url(#paint12_linear_490_3110)"/>
<path style="mix-blend-mode:multiply" opacity="0.24" d="M4.41941 4.70763L8.1167 7.59064L7.94164 5.91505L4.35739 2.881L4.41941 4.70763Z" fill="url(#paint13_linear_490_3110)"/>
<path style="mix-blend-mode:overlay" opacity="0.21" d="M8.00763 5.90607L4.01224 2.58091L11.3328 1.23244L13.1284 3.9854L8.00763 5.90607Z" fill="url(#paint14_linear_490_3110)"/>
<path style="mix-blend-mode:multiply" opacity="0.24" d="M11.3331 1.23243L12.3414 -0.00900269L14.2671 3.11409L13.1287 3.98539L11.3331 1.23243Z" fill="url(#paint15_linear_490_3110)"/>
<path style="mix-blend-mode:overlay" opacity="0.21" d="M14.0039 2.65693L12.0742 -0.430145L18.9136 0.342124L17.9913 2.29681L14.0039 2.65693Z" fill="url(#paint16_linear_490_3110)"/>
<path style="mix-blend-mode:overlay" opacity="0.67" d="M17.0439 6.15715C17.1069 6.19216 22.7539 8.65702 22.7539 8.65702C22.7539 8.65702 18.4724 11.9342 18.4054 11.9162C18.3374 11.8981 14.28 8.8731 14.28 8.8731L17.0439 6.15715Z" fill="url(#paint17_linear_490_3110)"/>
<path style="mix-blend-mode:overlay" opacity="0.67" d="M16.0078 12.2143L12.3065 9.17621L12.0844 10.5107L15.1055 13.4207C15.1055 13.4207 15.9698 12.2223 16.0078 12.2153V12.2143Z" fill="url(#paint18_linear_490_3110)"/>
<path style="mix-blend-mode:overlay" opacity="0.67" d="M13.4092 12.9285L10.2981 9.7504L6.78887 13.5237L8.81958 17.6251L13.4092 12.9285Z" fill="url(#paint19_linear_490_3110)"/>
<path style="mix-blend-mode:overlay" opacity="0.67" d="M6.66748 16.8759L4.89186 13.0696L2.63307 15.2153L3.17326 18.9706L6.66748 16.8759Z" fill="url(#paint20_linear_490_3110)"/>
<path style="mix-blend-mode:overlay" opacity="0.67" d="M3.8016 9.61037L-1.02408 7.86376L4.48484 4.73466L7.48389 7.05047L3.8016 9.61037Z" fill="url(#paint21_linear_490_3110)"/>
<path style="mix-blend-mode:overlay" opacity="0.67" d="M8.00763 5.90607L4.01224 2.58091L11.3328 1.23244L13.1284 3.9854L8.00763 5.90607Z" fill="url(#paint22_linear_490_3110)"/>
<path style="mix-blend-mode:overlay" opacity="0.67" d="M14.0039 2.65693L12.0742 -0.430145L18.9136 0.342124L17.9913 2.29681L14.0039 2.65693Z" fill="url(#paint23_linear_490_3110)"/>
</g>
<path d="M7.26079 6.80337L7.87601 5.78902L9.34552 5.14279L10.807 4.52058L10.9661 4.45255L11.1251 4.38453L11.2842 4.31651L11.4433 4.24848L11.6023 4.18046L11.7614 4.11243L11.9204 4.04441L12.0795 3.97639L12.2385 3.90836L12.3976 3.84034L12.5566 3.77232L12.7157 3.70429L12.8748 3.63627L13.0228 3.57325L13.0328 3.56324L13.1899 3.40919L13.3469 3.25514L13.504 3.10108L13.661 2.94703L13.8181 2.79297L13.9751 2.63892L14.0462 2.5689L14.1332 2.55889L14.2932 2.53989L14.4533 2.52088L14.6134 2.50187L14.7734 2.48287L14.9335 2.46386L15.0935 2.44485L15.2536 2.42585L15.4136 2.40684L15.5737 2.38783L15.7337 2.36883L15.8938 2.34982L16.0539 2.33081L16.2139 2.31181L16.374 2.2928L16.534 2.27379L16.6941 2.25479L16.8541 2.23578L17.0142 2.21677L17.1743 2.19777L17.3343 2.17876L17.4944 2.15975L17.6544 2.14075L17.8145 2.12174L17.9745 2.10273L18.1346 2.08373L18.1516 2.08173C18.2006 2.08973 18.2486 2.09973 18.2956 2.10974C18.3517 2.12274 18.4057 2.13675 18.4577 2.15275C18.5137 2.16976 18.5677 2.18876 18.6198 2.20877C18.6768 2.23078 18.7308 2.25379 18.7818 2.2798C18.8398 2.30881 18.8939 2.33882 18.9449 2.37183C19.0029 2.40884 19.0579 2.44685 19.1089 2.48787C19.1689 2.53588 19.224 2.5859 19.274 2.63792C19.336 2.70294 19.392 2.76997 19.44 2.83899C19.5081 2.93602 19.5641 3.03506 19.6081 3.13209C19.7822 3.51122 19.7912 3.85434 19.7882 3.90136C19.7782 4.05041 19.7231 4.20547 19.6411 4.35852C19.5961 4.44155 19.5441 4.52358 19.4871 4.60361C19.438 4.67163 19.386 4.73865 19.332 4.80368C19.281 4.8647 19.229 4.92272 19.1759 4.97874C19.1229 5.03476 19.0709 5.08877 19.0199 5.13879C18.9649 5.19181 18.9129 5.24183 18.8628 5.28684C18.8048 5.33986 18.7518 5.38588 18.7058 5.42489C18.6108 5.50592 18.5487 5.55194 18.5487 5.55194L18.3907 5.64497L18.2326 5.738L18.0746 5.83103L17.9165 5.92407L17.7585 6.0171L17.6004 6.11013L17.4423 6.20316L17.3193 6.27619L17.2853 6.3202L17.1302 6.51827L16.9752 6.71634L16.8201 6.91441L16.6651 7.11248L16.51 7.31055L16.355 7.50862L16.1999 7.70669L16.0449 7.90476L15.8898 8.10283L15.7347 8.30089L15.5797 8.49896L15.4246 8.69703L15.2696 8.8951L15.1145 9.09317L14.9595 9.29124L14.9395 9.31725L14.8004 9.35626L14.6414 9.40128L14.4823 9.44629L14.3233 9.49131L14.1642 9.53633L14.0051 9.58134L13.8461 9.62636L13.687 9.67137L13.528 9.71639L13.3689 9.7614L13.2099 9.80642L13.1999 9.80942L13.0528 9.92446L12.8958 10.0475L12.7387 10.1705L12.5816 10.2936L12.4246 10.4166L12.2675 10.5397L12.1755 10.6117L12.1085 10.6037L11.9474 10.5837L11.7864 10.5637L11.6253 10.5437L11.4643 10.5237L11.3032 10.5037L11.1592 10.4857L11.1421 10.4987L10.9851 10.6167L6.9847 13.6017L5.51019 14.0419L2.70721 15.3604C2.70721 15.3604 1.8159 14.8822 1.85891 13.9309C1.90193 12.9795 3.06033 10.7998 3.47348 9.81542C3.88662 8.83108 7.2788 6.80137 7.2788 6.80137L7.26079 6.80337Z" fill="url(#paint24_linear_490_3110)"/>
<path d="M7.26567 6.80637L7.88088 5.79202L9.3494 5.14479L10.8099 4.52258L10.969 4.45455L11.128 4.38653L11.2871 4.3185L11.4461 4.25048L11.6052 4.18246L11.7642 4.11443L11.9233 4.04641L12.0823 3.97839L12.2414 3.91036L12.4005 3.84234L12.5595 3.77431L12.7186 3.70629L12.8776 3.63827L13.0257 3.57524L13.0357 3.56524L13.1917 3.41119L13.3478 3.25713L13.5038 3.10308L13.6599 2.94903L13.816 2.79497L13.972 2.64092L14.043 2.57089L14.1301 2.56089L14.2901 2.54188L14.4502 2.52288L14.6102 2.50387L14.7703 2.48486L14.9303 2.46586L15.0904 2.44685L15.2505 2.42784L15.4105 2.40884L15.5706 2.38983L15.7306 2.37082L15.8907 2.35182L16.0507 2.33281L16.2108 2.31381L16.3708 2.2948L16.5309 2.27579L16.691 2.25679L16.851 2.23778L17.0111 2.21877L17.1711 2.19977L17.3312 2.18076L17.4912 2.16175L17.6513 2.14275L17.8113 2.12374L17.9714 2.10473L18.1315 2.08573L18.1485 2.08372C18.1975 2.09173 18.2455 2.10173 18.2925 2.11173C18.3485 2.12474 18.4026 2.13874 18.4546 2.15475C18.5106 2.17176 18.5646 2.19076 18.6166 2.21077C18.6736 2.23278 18.7277 2.25578 18.7787 2.28179C18.8367 2.3108 18.8907 2.34081 18.9417 2.37383C18.9998 2.41084 19.0548 2.44885 19.1058 2.48987C19.1658 2.53788 19.2208 2.5879 19.2699 2.63992C19.3319 2.70494 19.3879 2.77196 19.4359 2.84099C19.5039 2.93802 19.56 3.03706 19.604 3.13409C19.778 3.51322 19.787 3.85634 19.783 3.90336C19.773 4.05241 19.718 4.20747 19.636 4.36052C19.591 4.44355 19.5389 4.52558 19.4819 4.6056C19.4329 4.67363 19.3809 4.74065 19.3269 4.80567C19.2759 4.8667 19.2238 4.92472 19.1708 4.98073C19.1178 5.03675 19.0658 5.09077 19.0148 5.14079C18.9597 5.19381 18.9077 5.24383 18.8577 5.28884C18.7997 5.34186 18.7467 5.38788 18.7007 5.42689C18.6056 5.50792 18.5436 5.55394 18.5436 5.55394L18.3855 5.64797L18.2275 5.741L18.0694 5.83403L17.9114 5.92706L17.7533 6.0201L17.5953 6.11313L17.4372 6.20616L17.3142 6.27919L17.2802 6.3232L17.1251 6.52127L16.9701 6.71934L16.815 6.91741L16.6599 7.11548L16.5049 7.31355L16.3498 7.51162L16.1948 7.70969L16.0397 7.90776L15.8847 8.10582L15.7296 8.30389L15.5746 8.50196L15.4195 8.70003L15.2645 8.8981L15.1094 9.09617L14.9543 9.29424L14.9343 9.32025L14.7953 9.35926L14.6362 9.40428L14.4772 9.44929L14.3181 9.49431L14.1591 9.53932L14 9.58434L13.841 9.62936L13.6819 9.67437L13.5229 9.71939L13.3638 9.7644L13.2047 9.80942L13.1947 9.81242L13.0477 9.92746L12.8906 10.0505L12.7336 10.1735L12.5765 10.2966L12.4195 10.4196L12.2624 10.5427L12.1704 10.6147L12.1034 10.6067L11.9423 10.5867L11.7812 10.5667L11.6202 10.5467L11.4591 10.5267L11.2981 10.5067L11.154 10.4887L11.137 10.5017L10.98 10.6197L6.98057 13.6057L5.50606 14.0459L2.70408 15.3654C2.70408 15.3654 1.81377 14.8872 1.85678 13.9359C1.8998 12.9835 3.0582 10.8038 3.47135 9.81942C3.88449 8.83508 7.27567 6.80437 7.27567 6.80437L7.26567 6.80637Z" stroke="url(#paint25_linear_490_3110)" stroke-width="0.35" stroke-miterlimit="10"/>
<g opacity="0.59">
<path d="M21.6465 18.6735C21.1984 17.7882 20.9233 16.7919 21.0333 15.8085C21.1674 14.6101 21.8476 13.5517 22.3008 12.4323C23.1781 10.2696 23.1971 7.77773 22.3528 5.60097" stroke="#72391E" stroke-width="0.68" stroke-miterlimit="10"/>
<path d="M20.629 20.7382C20.9521 20.2251 20.699 19.5658 20.5389 18.9816C20.2248 17.8382 20.3069 16.6238 20.5069 15.4554C20.707 14.287 21.0221 13.1396 21.1712 11.9642C21.2772 11.1299 21.2992 10.2806 21.5093 9.46532" stroke="#72391E" stroke-width="0.68" stroke-miterlimit="10"/>
<path d="M19.784 21.6786C19.5379 21.0924 19.5939 20.6252 19.5979 19.991C19.6129 17.5521 20.3582 15.1693 20.4752 12.7335C20.5433 11.328 20.4002 9.91147 20.0521 8.547" stroke="#72391E" stroke-width="0.68" stroke-miterlimit="10"/>
<path d="M20.2769 20.7393C18.6263 18.1283 18.4062 14.6851 19.7117 11.8902" stroke="#72391E" stroke-width="0.68" stroke-miterlimit="10"/>
<path d="M20.1011 21.1924C18.9127 20.2421 18.0944 18.8476 17.8483 17.3531C17.7733 16.8969 17.7493 16.4337 17.7453 15.9716C17.7302 14.334 17.7122 14.413 17.9363 12.7905" stroke="#72391E" stroke-width="0.68" stroke-miterlimit="10"/>
<path d="M24.7079 10.1215C24.8929 11.7991 24.3067 11.7541 24.1687 12.5654C24.0266 13.4027 24.0316 14.299 23.5925 15.0272C23.3854 15.3704 23.0913 15.6525 22.8482 15.9716C22.4111 16.5458 22.143 17.244 22.084 17.9603C22.116 17.6242 22.167 17.3901 22.334 17.081C22.6201 16.5508 23.2894 16.3357 23.5065 15.6985C23.5815 15.4784 23.5995 15.2443 23.6165 15.0122C23.7665 13.0185 23.9156 11.0249 24.0656 9.03116" stroke="#72391E" stroke-width="0.68" stroke-miterlimit="10"/>
<path d="M23.5112 9.05118C23.3792 10.3446 23.2411 11.6641 22.71 12.8525C22.4038 13.5387 21.9657 14.186 21.8627 14.9292C21.8036 15.3584 21.8597 15.7985 21.7846 16.2257C21.7086 16.6528 21.4475 17.095 21.0204 17.187" stroke="#72391E" stroke-width="0.68" stroke-miterlimit="10"/>
<path d="M16.9487 23.1001C16.8827 22.3678 16.4906 21.6706 15.8964 21.2294C15.3212 20.8033 14.5789 20.6132 14.0667 20.113C13.6436 19.6999 13.4275 19.1147 13.3565 18.5315C13.2654 17.7832 13.4095 17.036 13.3825 16.2877" stroke="#72391E" stroke-width="0.68" stroke-miterlimit="10"/>
<path d="M15.5686 23.5132C15.1945 22.5709 15.2915 21.5055 15.5556 20.5262C15.8187 19.5478 16.2388 18.6165 16.5079 17.6392C16.86 16.3607 16.9461 15.0112 16.761 13.6988" stroke="#72391E" stroke-width="0.68" stroke-miterlimit="10"/>
<path d="M16.6475 23.2801C15.289 20.7042 15.382 18.0433 14.5857 15.2463C14.5077 14.9722 14.3287 14.6371 14.0456 14.6851" stroke="#72391E" stroke-width="0.68" stroke-miterlimit="10"/>
<path d="M16.168 23.4002C15.5798 22.91 15.3307 22.4458 14.6815 21.9887C13.8131 21.3775 12.7198 21.0714 11.9965 20.2961C11.7254 20.006 11.5193 19.6619 11.3383 19.3098C11.0702 18.7896 10.8531 18.1553 11.1262 17.6382" stroke="#72391E" stroke-width="0.68" stroke-miterlimit="10"/>
<path d="M15.4702 23.7103C14.6969 23.033 13.7466 22.5879 12.9213 21.9737C11.0247 20.5602 9.92028 18.3634 8.88192 16.2477" stroke="#72391E" stroke-width="0.68" stroke-miterlimit="10"/>
<path d="M8.37442 17.302C8.35541 18.0603 8.77456 18.7585 9.22772 19.3708C10.6382 21.2774 12.5309 22.83 14.6826 23.8483C13.6042 23.3261 12.2158 23.3331 11.1044 22.883C9.11168 22.0737 7.49211 20.4071 6.74985 18.4044" stroke="#72391E" stroke-width="0.68" stroke-miterlimit="10"/>
<path d="M12.4204 23.7703C11.235 23.6893 9.85352 23.4622 8.81315 22.894C7.13957 21.9787 5.41497 20.9703 4.40061 19.3648C4.20955 19.0627 4.04749 18.6645 4.24256 18.3644" stroke="#72391E" stroke-width="0.68" stroke-miterlimit="10"/>
<path d="M13.8589 23.8793C13.0096 23.9013 12.3093 23.8673 11.5961 23.7913C10.7868 23.7043 10.1596 23.5482 9.37132 23.3462C8.435 23.1061 7.56269 22.7079 6.89846 22.3548C6.29425 22.0337 5.90912 21.7486 5.39494 21.4285C4.77972 21.0454 4.28755 20.5632 3.73436 20.095C3.54429 19.934 3.31921 19.6469 3.17316 19.4468" stroke="#72391E" stroke-width="0.68" stroke-miterlimit="10"/>
<path d="M13.8374 23.8903C11.9077 22.6719 10.2552 21.1014 9.22479 19.0767C8.57157 17.7942 8.70161 18.1323 7.88533 16.9459" stroke="#72391E" stroke-width="0.68" stroke-miterlimit="10"/>
<path d="M14.9487 23.7593C13.6093 22.5829 12.6319 21.1084 12.0807 19.3818C11.6196 17.9383 11.3595 16.4177 10.6652 15.0683" stroke="#72391E" stroke-width="0.68" stroke-miterlimit="10"/>
<path d="M15.0679 22.998C14.3476 21.9917 13.9805 20.7423 14.0405 19.5108C14.0785 18.7336 14.2806 17.9483 14.1155 17.187C14.0115 16.7068 13.7664 16.2697 13.5253 15.8405" stroke="#72391E" stroke-width="0.68" stroke-miterlimit="10"/>
<path d="M17.2871 22.9C16.6559 22.3358 16.3968 21.4775 16.2167 20.6552C15.7716 18.6235 15.6395 16.5248 15.8256 14.4541" stroke="#72391E" stroke-width="0.68" stroke-miterlimit="10"/>
<path d="M18.3594 22.5089C17.4891 21.0213 17.221 19.1977 17.6281 17.5261C17.8182 16.7428 18.1523 15.9526 18.0043 15.1613C17.8992 14.6011 17.5631 14.1139 17.235 13.6458" stroke="#72391E" stroke-width="0.68" stroke-miterlimit="10"/>
<path d="M19.5556 21.8646C19.2425 20.151 19.2455 18.8526 19.4196 17.12C19.5686 15.6315 19.8987 14.143 19.7517 12.6544" stroke="#72391E" stroke-width="0.68" stroke-miterlimit="10"/>
<path d="M20.939 20.7963C20.5618 19.5768 21.018 18.4625 21.3691 17.235C21.7202 16.0086 22.1414 14.7592 22.0274 13.4887C21.9563 12.6984 21.6802 11.9352 21.6312 11.1439" stroke="#72391E" stroke-width="0.68" stroke-miterlimit="10"/>
<path d="M21.9701 19.8759C22.3162 16.5878 22.1582 13.2316 22.9345 10.0175C23.0595 9.50032 23.2116 8.98114 23.4937 8.52998" stroke="#72391E" stroke-width="0.68" stroke-miterlimit="10"/>
<path d="M22.8446 17.0359C23.3728 15.5274 23.6059 13.9189 23.5259 12.3233C23.4889 11.576 23.3828 10.8288 23.4318 10.0815C23.4799 9.33426 23.7009 8.56699 24.2241 8.0278" stroke="#72391E" stroke-width="0.68" stroke-miterlimit="10"/>
<path d="M23.5859 7.11049C24.0501 7.89176 24.0771 9.02115 24.1721 9.90146C24.2852 10.9598 24.3012 12.0392 24.0611 13.0826C23.824 14.1139 23.3478 15.0723 22.9877 16.0676C22.6276 17.063 22.3065 17.9913 22.5515 19.0206C22.4865 17.4521 22.2815 16.5338 22.5395 15.1503C22.7986 13.7678 23.1838 12.4063 23.3508 11.0098C23.3958 10.6327 23.4239 10.2476 23.3388 9.87745C23.2528 9.50732 23.0367 9.1512 22.6976 8.97614" stroke="#492112" stroke-width="0.68" stroke-miterlimit="10"/>
<path d="M21.8557 19.6579C21.3315 18.9496 21.2975 17.9923 21.4445 17.127C21.5916 16.2607 21.8967 15.4224 21.9797 14.5481C22.1098 13.1726 21.6816 11.8121 21.2585 10.4957" stroke="#492112" stroke-width="0.68" stroke-miterlimit="10"/>
<path d="M21.0014 20.3481C20.5283 19.7979 20.2932 19.0737 20.2522 18.3514C20.2111 17.6302 20.3542 16.9089 20.5673 16.2177C20.7143 15.7425 20.8954 15.2733 20.9664 14.7812C21.1705 13.3547 20.4232 11.9302 20.5613 10.4957" stroke="#492112" stroke-width="0.68" stroke-miterlimit="10"/>
<path d="M19.9212 20.7683C19.488 18.2774 20.0382 15.7305 20.6534 13.2786C20.7695 12.8155 20.8395 12.2193 20.4364 11.9592" stroke="#492112" stroke-width="0.68" stroke-miterlimit="10"/>
<path d="M19.3572 20.8793C18.884 19.7969 18.7419 18.5745 18.955 17.4141C19.1721 16.2337 19.7453 15.1193 19.7983 13.9209C19.8163 13.5167 19.7153 13.0286 19.3342 12.8855" stroke="#492112" stroke-width="0.68" stroke-miterlimit="10"/>
<path d="M19.1073 22.2158C18.319 19.4038 18.394 16.3607 19.3193 13.5907" stroke="#492112" stroke-width="0.68" stroke-miterlimit="10"/>
<path d="M16.158 14.5221C16.5201 14.9982 16.6001 15.6225 16.6652 16.2157C16.8172 17.6012 16.9583 18.9876 17.0883 20.3761C17.1763 21.3194 17.2594 22.2748 17.1193 23.2121" stroke="#492112" stroke-width="0.68" stroke-miterlimit="10"/>
<path d="M11.2272 15.2463C11.0031 15.6225 11.0231 16.1036 11.1752 16.5138C11.3262 16.9239 11.5953 17.28 11.8604 17.6292C13.4459 19.7169 15.1325 21.8826 17.5264 22.977C15.8848 21.0653 14.6844 18.3294 14.1632 15.8735" stroke="#492112" stroke-width="0.68" stroke-miterlimit="10"/>
<path d="M22.9958 18.4304C24.0382 16.0306 24.6014 13.4277 24.6424 10.8148C24.6544 10.0695 24.6104 9.28024 24.1952 8.65903" stroke="#492112" stroke-width="0.68" stroke-miterlimit="10"/>
<path d="M22.543 17.5021C23.0732 15.0553 23.6054 12.5334 23.1582 10.0705C23.0532 9.49132 22.8531 8.8651 22.345 8.562" stroke="#492112" stroke-width="0.68" stroke-miterlimit="10"/>
<path d="M21.6521 18.7746C21.7702 15.4264 21.7842 12.0742 21.6961 8.72507" stroke="#492112" stroke-width="0.68" stroke-miterlimit="10"/>
<path d="M18.9655 21.1844C18.9875 18.1473 19.0025 15.0653 18.1952 12.1362" stroke="#492112" stroke-width="0.68" stroke-miterlimit="10"/>
<path d="M18.0327 21.9747C17.8847 20.159 17.7366 18.3424 17.4705 16.5398C17.3155 15.4904 17.1094 14.415 16.5282 13.5237" stroke="#492112" stroke-width="0.68" stroke-miterlimit="10"/>
<path d="M17.3765 22.937C16.9393 21.5495 16.6652 20.117 16.2531 18.7215C15.8409 17.327 15.2767 15.9476 14.3394 14.8292" stroke="#492112" stroke-width="0.68" stroke-miterlimit="10"/>
<path d="M16.7339 23.2261C15.6425 20.059 14.231 17.3231 12.3504 14.5441" stroke="#492112" stroke-width="0.68" stroke-miterlimit="10"/>
<path d="M16.252 22.886C13.3539 21.5675 10.561 19.6969 9.01843 16.9299" stroke="#492112" stroke-width="0.68" stroke-miterlimit="10"/>
<path d="M16.9405 22.931C17.2696 23.034 17.6117 22.846 17.9018 22.6599C20.1266 21.2344 22.2373 19.4288 23.2687 17.0089C24.059 15.1543 24.153 13.0716 23.9179 11.0719" stroke="#492112" stroke-width="0.68" stroke-miterlimit="10"/>
<path d="M22.3285 18.3674C22.9337 17.046 23.5399 15.7195 23.971 14.332C24.4012 12.9445 24.6533 11.486 24.5312 10.0395C24.4632 9.23924 24.2421 8.38294 23.6059 7.88477" stroke="#492112" stroke-width="0.68" stroke-miterlimit="10"/>
<path d="M20.7652 19.941C21.2873 17.8242 21.6865 15.6785 21.9606 13.5157C22.0356 12.9265 22.1006 12.3273 22.0046 11.7411C21.9096 11.1549 21.6335 10.5737 21.1463 10.2276" stroke="#492112" stroke-width="0.68" stroke-miterlimit="10"/>
<path d="M17.9357 21.4015C18.1958 19.7419 18.4559 18.0833 18.716 16.4237C18.86 15.5024 19.0051 14.5721 18.9451 13.6418C18.8851 12.7115 19.3582 12.5114 18.74 11.8081" stroke="#492112" stroke-width="0.68" stroke-miterlimit="10"/>
<path d="M16.2561 21.9907C16.5102 19.0717 16.6443 16.1426 16.6553 13.2126" stroke="#492112" stroke-width="0.68" stroke-miterlimit="10"/>
<path d="M14.9292 22.6999C14.224 19.5218 13.8818 17.206 14.0199 13.9549" stroke="#492112" stroke-width="0.68" stroke-miterlimit="10"/>
<path d="M12.3218 23.1251C11.2774 20.9183 10.4951 18.5895 9.99797 16.2027" stroke="#492112" stroke-width="0.68" stroke-miterlimit="10"/>
<path d="M12.2939 23.5922C10.6504 22.5739 8.98379 21.5375 7.68734 20.11C7.36923 19.7599 7.06412 19.3638 6.9931 18.8966" stroke="#492112" stroke-width="0.68" stroke-miterlimit="10"/>
<path d="M13.604 22.859C11.1541 23.6913 8.54024 23.2921 6.27745 22.0387C5.5692 21.6466 4.62587 21.0563 4.24074 20.4591" stroke="#492112" stroke-width="0.68" stroke-miterlimit="10"/>
<path d="M18.8413 22.0437C18.8123 22.0187 18.8053 22.1027 18.8443 22.0957C18.8833 22.0887 18.8933 22.0407 18.8953 22.0017C19.0433 19.1597 18.7502 16.2967 18.029 13.5417" stroke="#492112" stroke-width="0.68" stroke-miterlimit="10"/>
<path style="mix-blend-mode:multiply" opacity="0.32" d="M20.0876 21.4205C20.0886 18.6955 20.1826 15.9706 20.3687 13.2516L20.0876 21.4205Z" fill="url(#paint26_linear_490_3110)"/>
<path d="M22.4757 19.1087C23.1509 16.5158 23.6751 14.403 23.7471 11.7681C23.7822 10.4857 23.7441 9.1802 23.354 7.95677" stroke="#916436" stroke-width="0.68" stroke-miterlimit="10"/>
<path d="M21.8951 19.905C22.4613 16.7048 23.0275 13.4067 22.3242 10.2326" stroke="#916436" stroke-width="0.68" stroke-miterlimit="10"/>
<path d="M20.9784 20.4902C21.5256 17.9003 22.0728 15.2123 21.4746 12.6344" stroke="#916436" stroke-width="0.68" stroke-miterlimit="10"/>
<path d="M20.3633 20.8143C20.2602 17.8592 20.1582 14.9032 20.0552 11.9482" stroke="#916436" stroke-width="0.68" stroke-miterlimit="10"/>
<path d="M18.4956 13.7448C18.2225 16.1987 18.7317 18.7336 19.9321 20.8983C18.6867 19.7019 17.3362 18.8536 16.5009 17.3461C16.0468 16.5278 15.7277 15.5404 16.0638 14.6691" stroke="#916436" stroke-width="0.68" stroke-miterlimit="10"/>
<path d="M19.7104 21.1084C18.6981 20.8993 17.6597 20.6802 16.7874 20.13C16.4663 19.928 16.1742 19.6839 15.8941 19.4298C14.3156 18.0023 13.0321 16.1256 12.816 14.0189" stroke="#916436" stroke-width="0.68" stroke-miterlimit="10"/>
<path d="M20.144 21.4505C18.5455 21.0884 17.183 20.8683 15.6765 20.2251C14.17 19.5828 12.7535 18.6625 11.7441 17.3811" stroke="#916436" stroke-width="0.68" stroke-miterlimit="10"/>
<path d="M19.1011 21.6406C17.1624 22.0427 15.1077 22.4388 13.238 21.7906C12.2507 21.4485 11.3674 20.8193 10.7242 20.002" stroke="#916436" stroke-width="0.68" stroke-miterlimit="10"/>
<path d="M18.915 22.3158C16.4412 22.3608 13.9243 22.4018 11.5425 21.7346C10.8192 21.5325 10.093 21.2524 9.55077 20.7372" stroke="#916436" stroke-width="0.68" stroke-miterlimit="10"/>
<path d="M18.3237 21.6206C17.2844 22.0537 16.215 22.4168 15.1256 22.7059C14.4604 22.883 13.7781 23.0331 13.0889 23.012C12.5147 22.995 11.9515 22.859 11.3963 22.7149C10.523 22.4889 9.6247 22.2238 8.94146 21.6366" stroke="#916436" stroke-width="0.68" stroke-miterlimit="10"/>
<path d="M19.5586 21.6586C17.82 21.6386 16.0884 21.9117 14.3508 21.8847C12.6132 21.8576 10.7965 21.4905 9.47208 20.3731" stroke="#916436" stroke-width="0.68" stroke-miterlimit="10"/>
<path d="M19.2241 21.0443C17.6156 21.5295 15.889 21.5885 14.2304 21.3094C12.9229 21.0894 11.5755 20.6102 10.7602 19.5738" stroke="#916436" stroke-width="0.68" stroke-miterlimit="10"/>
<path d="M19.8569 21.0223C17.6172 19.6689 15.6155 17.9293 13.9669 15.9066" stroke="#916436" stroke-width="0.68" stroke-miterlimit="10"/>
<path d="M20.7324 20.9713C19.559 19.4418 18.5307 17.9633 17.5433 16.3087C17.1932 15.7225 16.8431 15.0523 17.0051 14.391" stroke="#916436" stroke-width="0.68" stroke-miterlimit="10"/>
<path d="M21.1362 20.5792C19.7387 17.8862 18.7764 15.2473 18.0412 12.3083" stroke="#916436" stroke-width="0.68" stroke-miterlimit="10"/>
<path d="M21.3706 20.2601C20.8194 17.7082 20.6013 15.0853 20.7254 12.4794" stroke="#916436" stroke-width="0.68" stroke-miterlimit="10"/>
<path d="M21.8113 19.4588C22.1024 16.5558 22.3895 13.5898 21.7133 10.7508" stroke="#916436" stroke-width="0.68" stroke-miterlimit="10"/>
<path d="M22.442 19.0006C22.9882 17.093 23.4644 15.1653 23.8685 13.2236C24.0406 12.3993 24.1646 11.438 23.5994 10.8098" stroke="#916436" stroke-width="0.68" stroke-miterlimit="10"/>
<path d="M23.1796 17.3871C23.8858 15.3063 24.5131 13.0866 24.0489 10.9398C23.8828 10.1716 23.5507 9.39628 22.9155 8.92612" stroke="#916436" stroke-width="0.68" stroke-miterlimit="10"/>
<path d="M20.7964 18.9216C20.4563 16.2327 20.2282 13.5307 20.1111 10.8238" stroke="#916436" stroke-width="0.68" stroke-miterlimit="10"/>
<path d="M19.2417 20.149C19.0056 18.9186 18.7675 17.6812 18.3334 16.5058C17.8982 15.3294 17.254 14.206 16.3127 13.3707" stroke="#916436" stroke-width="0.68" stroke-miterlimit="10"/>
<path d="M19.498 21.4465C17.2673 21.0143 15.4536 19.4578 13.755 17.9583" stroke="#916436" stroke-width="0.68" stroke-miterlimit="10"/>
<path d="M22.0605 19.3308C21.1032 20.4852 19.7337 21.2374 18.3222 21.7626C16.9108 22.2878 15.3212 22.6079 13.9087 22.0827" stroke="#916436" stroke-width="0.68" stroke-miterlimit="10"/>
<path d="M20.7007 20.8112C19.3292 21.9406 17.6166 22.6579 15.843 22.845C14.0694 23.032 12.2427 22.6879 10.6612 21.8696" stroke="#916436" stroke-width="0.68" stroke-miterlimit="10"/>
<path d="M19.1636 22.1257C17.8021 23.0621 16.4766 23.4022 15.0291 23.7153C13.5816 24.0284 12.0351 24.0564 10.6486 23.5362" stroke="#916436" stroke-width="0.68" stroke-miterlimit="10"/>
<path d="M16.6802 23.2371C15.2527 23.6733 13.7392 24.1294 12.3016 23.9003C10.8641 23.6713 9.47166 23.1001 8.34827 22.1817" stroke="#916436" stroke-width="0.68" stroke-miterlimit="10"/>
<path d="M18.6011 22.3458C19.1693 22.2118 19.6004 21.7646 19.9896 21.3335C20.7318 20.5092 21.4481 19.6619 22.1373 18.7936C22.4344 18.4194 22.8686 18.0073 23.0296 17.5541C23.1647 17.175 23.2337 16.7349 23.3437 16.3417C23.7559 14.8692 24.092 13.3757 24.3511 11.8692" stroke="#916436" stroke-width="0.68" stroke-miterlimit="10"/>
<path d="M21.8354 19.8319C20.423 21.6446 18.4993 22.6719 16.5706 23.2921" stroke="#916436" stroke-width="0.68" stroke-miterlimit="10"/>
<path d="M21.0269 20.6662C19.4633 21.5975 18.0048 22.6009 16.3292 23.3151C15.773 23.5522 15.1848 23.7813 14.5816 23.7293" stroke="#916436" stroke-width="0.68" stroke-miterlimit="10"/>
<path d="M10.6974 18.7966C11.6977 19.925 13.1482 20.5862 14.6297 20.9003C15.5761 21.1014 16.5444 21.1724 17.5097 21.1984C17.9399 21.2094 18.4691 21.2914 18.8902 21.2044C19.1883 21.1434 19.4664 20.9463 19.7495 20.8323C17.7418 19.5558 15.9832 17.9353 14.3576 16.2047" stroke="#916436" stroke-width="0.68" stroke-miterlimit="10"/>
<path d="M20.2046 20.014C18.8671 18.0943 17.6517 16.0906 16.5683 14.0189" stroke="#916436" stroke-width="0.68" stroke-miterlimit="10"/>
<path d="M20.0073 19.0337C19.8093 17.8202 19.5992 16.6078 19.3791 15.3984C19.3231 15.0923 19.2651 14.7802 19.114 14.5081" stroke="#916436" stroke-width="0.68" stroke-miterlimit="10"/>
<path d="M20.2224 20.2691C20.4374 17.8282 20.6395 15.2883 19.7602 12.9986" stroke="#916436" stroke-width="0.68" stroke-miterlimit="10"/>
<path d="M21.0967 18.9946C21.5449 17.211 21.887 15.4024 22.1221 13.5788" stroke="#916436" stroke-width="0.68" stroke-miterlimit="10"/>
<path d="M21.8282 19.0527C22.0302 17.2 22.2333 15.3474 22.4354 13.4957C22.5184 12.7355 22.5964 11.9362 22.2993 11.2299" stroke="#916436" stroke-width="0.68" stroke-miterlimit="10"/>
<path d="M21.8621 19.6969C22.7554 16.6908 23.6578 13.5617 23.1606 10.4657" stroke="#916436" stroke-width="0.68" stroke-miterlimit="10"/>
<path d="M21.3236 20.3001C21.8518 17.3391 22.1509 14.338 22.2169 11.332C22.2479 9.93848 22.2249 8.52198 21.8268 7.18552" stroke="#916436" stroke-width="0.68" stroke-miterlimit="10"/>
<path d="M20.3506 20.3711C19.2122 17.113 19.0171 13.5377 19.7924 10.1786" stroke="#916436" stroke-width="0.68" stroke-miterlimit="10"/>
<path d="M20.439 20.7823C18.0341 19.3688 15.9364 17.4441 14.3288 15.1763" stroke="#916436" stroke-width="0.68" stroke-miterlimit="10"/>
<path d="M20.4282 21.2014C18.8527 20.9423 17.2551 20.6762 15.8036 20.017C15.1004 19.6979 14.4411 19.2897 13.7989 18.8616C12.1974 17.7932 11.084 17.082 9.91856 15.5564" stroke="#916436" stroke-width="0.68" stroke-miterlimit="10"/>
<path d="M19.7949 21.7116C15.8075 21.3485 11.8482 20.8693 8.533 18.6415" stroke="#916436" stroke-width="0.68" stroke-miterlimit="10"/>
<path d="M18.1499 22.5759C14.6317 23.2541 10.8474 22.4518 7.91633 20.4061" stroke="#916436" stroke-width="0.68" stroke-miterlimit="10"/>
<path d="M16.6909 23.2801C15.2964 23.6072 13.8599 24.0184 12.4865 23.9994C12.1033 23.9944 11.7182 23.9844 11.3401 23.9213C10.8259 23.8353 10.3337 23.6533 9.85253 23.4552C8.335 22.829 6.83748 21.9887 5.88915 20.6572" stroke="#916436" stroke-width="0.68" stroke-miterlimit="10"/>
<path d="M22.1169 19.5778C24.1716 16.7989 25.0339 13.1816 24.4537 9.78242" stroke="#916436" stroke-width="0.68" stroke-miterlimit="10"/>
<path d="M23.8699 8.72106C24.005 12.5214 23.0416 16.5028 21.6471 20.045C22.4284 19.3548 23.0126 18.3874 23.4668 17.4521C24.127 16.0916 24.5502 14.7572 24.7302 13.2586C24.9103 11.7601 24.7792 9.94649 24.142 8.57501" stroke="#916436" stroke-width="0.68" stroke-miterlimit="10"/>
<path d="M22.5809 9.33127C22.664 13.0996 22.1318 16.8809 21.0124 20.4832C20.8613 20.9673 20.1881 21.3745 19.6649 21.7776" stroke="#916436" stroke-width="0.68" stroke-miterlimit="10"/>
<path d="M20.6019 11.353C20.7129 13.0766 20.824 14.8062 20.6949 16.5278C20.5649 18.2494 20.1858 19.975 19.3665 21.4985C19.2734 21.6706 19.1704 21.8456 19.0103 21.9587" stroke="#916436" stroke-width="0.68" stroke-miterlimit="10"/>
<path d="M19.9121 14.0909C19.734 16.2657 19.3879 18.4234 18.9768 20.5662C18.8797 21.0744 18.7767 21.5865 18.5606 22.0567C18.3446 22.5269 17.7374 22.835 17.2692 23.0621" stroke="#916436" stroke-width="0.68" stroke-miterlimit="10"/>
<path d="M20.2295 21.0804C18.716 18.7886 17.1484 16.5318 15.5289 14.313" stroke="#916436" stroke-width="0.68" stroke-miterlimit="10"/>
<path d="M19.3101 20.7382C16.6841 19.8349 14.3443 18.1293 12.6918 15.9136" stroke="#916436" stroke-width="0.68" stroke-miterlimit="10"/>
<path d="M18.3999 21.2604C18.0628 21.1494 17.7627 20.9723 17.4196 20.9003C16.9604 20.8033 16.4782 20.7733 16.0141 20.7002C15.0817 20.5542 14.1524 20.3761 13.2451 20.115C11.7636 19.6879 10.3271 19.0246 9.18069 18.0003" stroke="#916436" stroke-width="0.68" stroke-miterlimit="10"/>
<path d="M18.0171 22.5869C17.2038 20.4231 18.0981 17.9763 17.636 15.7135C17.4639 14.8682 17.1018 14.0549 17.0788 13.1926" stroke="#492112" stroke-width="0.68" stroke-miterlimit="10"/>
<path d="M13.7582 14.0459C13.3631 14.5131 13.3411 15.1833 13.4001 15.7905C13.5342 17.175 14.0063 18.5205 14.7396 19.7049C15.1177 20.3161 15.5659 20.8843 16.0741 21.3935C16.3201 21.6406 16.5812 21.8736 16.8543 22.0907C17.0464 22.2438 17.4175 22.4138 17.5186 22.6239C17.0794 22.829 16.2261 22.84 15.7449 22.866C14.8646 22.914 13.9753 22.759 13.154 22.4448C11.8996 21.9657 10.8022 21.1334 9.8989 20.145C9.43174 19.6339 8.99958 19.0517 8.86954 18.3734" stroke="#492112" stroke-width="0.68" stroke-miterlimit="10"/>
<path d="M5.7227 20.4862C5.98379 21.0493 6.50498 21.4505 7.04016 21.7716C8.46066 22.6239 10.1022 23.0701 11.7538 23.2461C13.4044 23.4232 15.073 23.3411 16.7275 23.2001C15.3671 22.6749 13.7955 21.5435 12.7612 20.5212C11.7268 19.4998 10.8485 18.3334 10.0072 17.151C9.75511 16.7959 9.49502 16.4067 9.50502 15.9726" stroke="#492112" stroke-width="0.68" stroke-miterlimit="10"/>
<path d="M20.173 20.2991C20.5111 17.3391 20.6051 14.305 19.8689 11.417C19.7138 10.8108 19.5668 10.3606 19.1856 9.76141" stroke="#492112" stroke-width="0.68" stroke-miterlimit="10"/>
<path d="M15.2046 23.6653C13.0498 23.2981 10.8401 22.912 8.95741 21.8086C8.19915 21.3645 7.50691 20.8093 6.9107 20.167C6.26747 19.4738 5.71328 18.6085 5.74729 17.6672" stroke="#492112" stroke-width="0.68" stroke-miterlimit="10"/>
<path d="M21.5705 18.5165C21.9636 16.7658 22.3578 15.0142 22.7509 13.2636C22.912 12.5464 23.074 11.8191 23.048 11.0839C23.022 10.3486 22.7869 9.59335 22.2557 9.08017" stroke="#492112" stroke-width="0.68" stroke-miterlimit="10"/>
<path d="M19.7293 20.3011C20.0244 18.8836 20.3195 17.4671 20.6146 16.0496C20.8167 15.0773 21.0208 14.0959 21.0088 13.1026C20.9968 12.1092 20.7517 11.0909 20.1385 10.3046" stroke="#492112" stroke-width="0.68" stroke-miterlimit="10"/>
<path d="M13.2397 22.4028C12.2054 19.6739 11.6982 17.3291 11.6512 14.415" stroke="#492112" stroke-width="0.68" stroke-miterlimit="10"/>
<path d="M13.2617 21.8036C10.1626 21.4855 6.95652 21.0053 4.36362 19.2927" stroke="#492112" stroke-width="0.68" stroke-miterlimit="10"/>
</g>
<path style="mix-blend-mode:multiply" opacity="0.71" d="M21.7262 2.866C22.0213 3.23613 22.3004 3.62427 22.5635 4.03041C26.5749 10.2386 25.1494 18.3194 19.3784 22.0797C13.6084 25.84 5.6786 23.8553 1.6662 17.6462C1.26206 17.0209 0.913939 16.3777 0.619835 15.7205L6.17377 16.8609C6.5489 16.9379 6.93804 16.8979 7.28916 16.7468L12.501 14.48C14.1225 14.215 17.2036 13.6548 18.1359 12.3013L20.0536 9.39628C21.09 8.62501 20.7619 7.13549 21.046 5.87505L21.7262 2.862V2.866Z" fill="url(#paint27_linear_490_3110)"/>
<defs>
<linearGradient id="paint0_linear_490_3110" x1="15.648" y1="23.6787" x2="10.8546" y2="5.77688" gradientUnits="userSpaceOnUse">
<stop offset="0.14" stop-color="#683C11"/>
<stop offset="1" stop-color="#936037"/>
</linearGradient>
<linearGradient id="paint1_linear_490_3110" x1="15.648" y1="23.6787" x2="10.8546" y2="5.77688" gradientUnits="userSpaceOnUse">
<stop offset="0.14" stop-color="#683C11"/>
<stop offset="0.99" stop-color="#936037" stop-opacity="0"/>
</linearGradient>
<linearGradient id="paint2_linear_490_3110" x1="19.2887" y1="2.75039" x2="1.31757" y2="13.6985" gradientUnits="userSpaceOnUse">
<stop stop-color="#B2B2B2"/>
<stop offset="0.51" stop-color="#F6F6F6"/>
</linearGradient>
<linearGradient id="paint3_linear_490_3110" x1="19.3041" y1="2.74103" x2="1.3022" y2="13.7079" gradientUnits="userSpaceOnUse">
<stop offset="0.49" stop-color="white"/>
<stop offset="1" stop-color="white"/>
</linearGradient>
<linearGradient id="paint4_linear_490_3110" x1="22.3209" y1="10.2695" x2="14.4694" y2="8.16418" gradientUnits="userSpaceOnUse">
<stop offset="0.49" stop-color="#F6F6F6"/>
<stop offset="1" stop-color="#B2B2B2"/>
</linearGradient>
<linearGradient id="paint5_linear_490_3110" x1="18.5166" y1="11.5018" x2="12.6237" y2="9.92164" gradientUnits="userSpaceOnUse">
<stop offset="0.05" stop-color="#F6F6F6"/>
<stop offset="0.7" stop-color="#9D9D9C"/>
</linearGradient>
<linearGradient id="paint6_linear_490_3110" x1="16.0828" y1="11.9358" x2="11.8701" y2="10.8062" gradientUnits="userSpaceOnUse">
<stop offset="0.49" stop-color="#F6F6F6"/>
<stop offset="1" stop-color="#B2B2B2"/>
</linearGradient>
<linearGradient id="paint7_linear_490_3110" x1="13.5221" y1="13.8437" x2="12.3607" y2="9.5076" gradientUnits="userSpaceOnUse">
<stop offset="0.05" stop-color="#F6F6F6"/>
<stop offset="0.7" stop-color="#9D9D9C"/>
</linearGradient>
<linearGradient id="paint8_linear_490_3110" x1="11.1126" y1="17.0118" x2="9.24416" y2="10.0326" gradientUnits="userSpaceOnUse">
<stop offset="0.49" stop-color="#F6F6F6"/>
<stop offset="1" stop-color="#B2B2B2"/>
</linearGradient>
<linearGradient id="paint9_linear_490_3110" x1="7.59829" y1="17.9523" x2="6.18134" y2="12.6612" gradientUnits="userSpaceOnUse">
<stop offset="0.05" stop-color="#F6F6F6"/>
<stop offset="0.7" stop-color="#9D9D9C"/>
</linearGradient>
<linearGradient id="paint10_linear_490_3110" x1="5.06586" y1="18.4645" x2="3.70641" y2="13.3876" gradientUnits="userSpaceOnUse">
<stop offset="0.49" stop-color="#F6F6F6"/>
<stop offset="1" stop-color="#B2B2B2"/>
</linearGradient>
<linearGradient id="paint11_linear_490_3110" x1="2.71984" y1="17.6336" x2="0.058006" y2="7.69186" gradientUnits="userSpaceOnUse">
<stop offset="0.05" stop-color="#F6F6F6"/>
<stop offset="0.7" stop-color="#9D9D9C"/>
</linearGradient>
<linearGradient id="paint12_linear_490_3110" x1="3.80619" y1="9.60922" x2="2.63336" y2="5.23071" gradientUnits="userSpaceOnUse">
<stop offset="0.49" stop-color="#F6F6F6"/>
<stop offset="1" stop-color="#B2B2B2"/>
</linearGradient>
<linearGradient id="paint13_linear_490_3110" x1="6.87928" y1="7.92282" x2="5.45091" y2="2.58924" gradientUnits="userSpaceOnUse">
<stop offset="0.05" stop-color="#F6F6F6"/>
<stop offset="0.7" stop-color="#9D9D9C"/>
</linearGradient>
<linearGradient id="paint14_linear_490_3110" x1="9.18772" y1="5.59011" x2="8.08952" y2="1.4895" gradientUnits="userSpaceOnUse">
<stop offset="0.49" stop-color="#F6F6F6"/>
<stop offset="1" stop-color="#B2B2B2"/>
</linearGradient>
<linearGradient id="paint15_linear_490_3110" x1="14.4459" y1="2.44706" x2="11.238" y2="1.58692" gradientUnits="userSpaceOnUse">
<stop offset="0.05" stop-color="#F6F6F6"/>
<stop offset="0.7" stop-color="#9D9D9C"/>
</linearGradient>
<linearGradient id="paint16_linear_490_3110" x1="18.4595" y1="2.03604" x2="11.8863" y2="0.273536" gradientUnits="userSpaceOnUse">
<stop offset="0.49" stop-color="#F6F6F6"/>
<stop offset="1" stop-color="#B2B2B2"/>
</linearGradient>
<linearGradient id="paint17_linear_490_3110" x1="22.7539" y1="9.03615" x2="14.28" y2="9.03615" gradientUnits="userSpaceOnUse">
<stop offset="0.24" stop-color="#F6F6F6"/>
<stop offset="0.6" stop-color="white" stop-opacity="0"/>
</linearGradient>
<linearGradient id="paint18_linear_490_3110" x1="16.0078" y1="11.2979" x2="12.0854" y2="11.2979" gradientUnits="userSpaceOnUse">
<stop offset="0.49" stop-color="#F6F6F6"/>
<stop offset="1" stop-color="white" stop-opacity="0"/>
</linearGradient>
<linearGradient id="paint19_linear_490_3110" x1="12.1177" y1="15.1653" x2="7.41009" y2="12.4473" gradientUnits="userSpaceOnUse">
<stop offset="0.05" stop-color="#F6F6F6"/>
<stop offset="0.57" stop-color="white" stop-opacity="0"/>
</linearGradient>
<linearGradient id="paint20_linear_490_3110" x1="6.66748" y1="16.0206" x2="2.63307" y2="16.0206" gradientUnits="userSpaceOnUse">
<stop offset="0.49" stop-color="#F6F6F6"/>
<stop offset="1" stop-color="white" stop-opacity="0"/>
</linearGradient>
<linearGradient id="paint21_linear_490_3110" x1="7.48389" y1="7.17252" x2="-1.02408" y2="7.17252" gradientUnits="userSpaceOnUse">
<stop offset="0.49" stop-color="#F6F6F6"/>
<stop offset="1" stop-color="white" stop-opacity="0"/>
</linearGradient>
<linearGradient id="paint22_linear_490_3110" x1="10.0143" y1="5.78302" x2="7.12733" y2="0.78228" gradientUnits="userSpaceOnUse">
<stop stop-color="white" stop-opacity="0"/>
<stop offset="0.39" stop-color="#F6F6F6"/>
</linearGradient>
<linearGradient id="paint23_linear_490_3110" x1="18.9136" y1="1.11339" x2="12.0742" y2="1.11339" gradientUnits="userSpaceOnUse">
<stop offset="0.28" stop-color="white" stop-opacity="0"/>
<stop offset="0.51" stop-color="#F6F6F6"/>
</linearGradient>
<linearGradient id="paint24_linear_490_3110" x1="19.3609" y1="2.70891" x2="1.38891" y2="13.6575" gradientUnits="userSpaceOnUse">
<stop stop-color="#9D9D9C"/>
<stop offset="0.7" stop-color="#F6F6F6"/>
</linearGradient>
<linearGradient id="paint25_linear_490_3110" x1="17.9835" y1="10.749" x2="3.66605" y2="6.90996" gradientUnits="userSpaceOnUse">
<stop offset="0.49" stop-color="white"/>
<stop offset="1" stop-color="white"/>
</linearGradient>
<linearGradient id="paint26_linear_490_3110" x1="20.2432" y1="17.5187" x2="20.1492" y2="17.516" gradientUnits="userSpaceOnUse">
<stop offset="0.14" stop-color="#683C11"/>
<stop offset="0.99" stop-color="#936037" stop-opacity="0"/>
</linearGradient>
<linearGradient id="paint27_linear_490_3110" x1="15.648" y1="23.6787" x2="10.8546" y2="5.77688" gradientUnits="userSpaceOnUse">
<stop offset="0.06" stop-color="#6B3E13" stop-opacity="0.83"/>
<stop offset="0.5" stop-color="#936037" stop-opacity="0"/>
</linearGradient>
</defs>
</svg>
