<svg width="28" height="24" viewBox="0 0 28 24" fill="none" xmlns="http://www.w3.org/2000/svg">
<path d="M19.611 22.2287V19.8699C19.611 18.6188 19.1321 17.4189 18.2797 16.5342C17.4273 15.6495 16.2712 15.1525 15.0657 15.1525H5.97501C4.76952 15.1525 3.6134 15.6495 2.76098 16.5342C1.90857 17.4189 1.42969 18.6188 1.42969 19.8699V22.2287" stroke="#FF6154" stroke-width="2" stroke-linecap="round" stroke-linejoin="round"/>
<path d="M10.5199 10.435C13.0302 10.435 15.0653 8.32294 15.0653 5.71754C15.0653 3.11215 13.0302 1.00006 10.5199 1.00006C8.00962 1.00006 5.97461 3.11215 5.97461 5.71754C5.97461 8.32294 8.00962 10.435 10.5199 10.435Z" stroke="#FF6154" stroke-width="2" stroke-linecap="round" stroke-linejoin="round"/>
<path d="M26.4285 22.2288V19.87C26.4278 18.8248 26.0926 17.8094 25.4756 16.9833C24.8585 16.1572 23.9947 15.5672 23.0195 15.3058" stroke="#FF6154" stroke-width="2" stroke-linecap="round" stroke-linejoin="round"/>
<path d="M18.4746 1.15338C19.4523 1.4132 20.3189 2.00336 20.9378 2.83081C21.5566 3.65827 21.8925 4.67596 21.8925 5.72344C21.8925 6.77093 21.5566 7.78862 20.9378 8.61607C20.3189 9.44353 19.4523 10.0337 18.4746 10.2935" stroke="#FF6154" stroke-width="2" stroke-linecap="round" stroke-linejoin="round"/>
</svg>
