<svg width="27" height="25" viewBox="0 0 27 25" fill="none" xmlns="http://www.w3.org/2000/svg">
<path fill-rule="evenodd" clip-rule="evenodd" d="M24.9385 15.7248C24.9385 9.40271 20.6781 4.65222 15.4062 3.6364C15.5681 3.28891 15.654 2.90886 15.6582 2.52282C15.6667 1.85695 15.4179 1.21504 14.9672 0.740952C14.5163 0.26685 13.9015 -6.10352e-05 13.2596 -6.10352e-05C12.6178 -6.10352e-05 12.003 0.266828 11.5521 0.740952C11.1014 1.21505 10.8526 1.85695 10.861 2.52282C10.8506 2.9106 10.9379 3.29444 11.1142 3.6364C8.40287 4.1574 5.95615 5.65632 4.20639 7.86826C2.45663 10.0802 1.51612 12.8629 1.55153 15.7248C1.20718 15.7119 0.872375 15.8433 0.622635 16.0897C0.373123 16.3361 0.229487 16.6766 0.224609 17.034V18.6069C0.228004 19.2401 0.471998 19.8466 0.903546 20.2943C1.33531 20.7422 1.91962 20.9952 2.52979 20.9985H2.78163L3.03475 22.6034C3.10795 23.0345 3.325 23.4254 3.64813 23.7068C3.97126 23.9884 4.3797 24.1428 4.80167 24.1428H21.7197C22.14 24.1373 22.5454 23.9809 22.8675 23.7002C23.1894 23.4196 23.4079 23.0321 23.4858 22.6034L23.7389 20.9985H23.992C24.6018 20.9945 25.1857 20.7413 25.6166 20.2936C26.0477 19.8459 26.2913 19.2397 26.2947 18.6068V17.034C26.2877 16.6717 26.1396 16.3278 25.8837 16.0811C25.628 15.8343 25.2871 15.7057 24.9385 15.7248ZM23.9922 19.3921L2.52964 19.3919C2.11337 19.3873 1.77668 19.0389 1.7707 18.6069V17.3299H24.7486V18.6069C24.7431 19.038 24.4076 19.3864 23.9922 19.3921ZM21.9717 22.3411C21.9359 22.4549 21.8353 22.5335 21.7199 22.5375H4.80187C4.68603 22.5342 4.58482 22.4554 4.54918 22.3411L4.32726 20.9985H22.1925L21.9717 22.3411ZM13.2596 5.0134C18.6255 5.0134 23.4225 9.43332 23.4225 15.7247H3.09675C3.09675 9.46793 7.86245 5.0134 13.2596 5.0134ZM12.3766 2.52265C12.3679 2.27756 12.4542 2.03886 12.6161 1.86005C12.7782 1.68146 13.0025 1.57753 13.2388 1.57158C13.4752 1.56564 13.7039 1.65813 13.874 1.82856C14.0442 1.99878 14.1416 2.23286 14.1443 2.47814C14.1471 2.72367 14.0552 2.95995 13.8889 3.13437C13.7228 3.30877 13.496 3.40698 13.2596 3.40676C13.0307 3.40698 12.8107 3.31493 12.6458 3.15C12.4811 2.98507 12.3846 2.76025 12.3766 2.52265Z" fill="#BDBDBD"/>
</svg>
