<svg width="63" height="61" viewBox="0 0 63 61" fill="none" xmlns="http://www.w3.org/2000/svg">
<path d="M54.0814 7.16501C54.8191 8.09033 55.5169 9.06067 56.1746 10.076C66.2031 25.5964 62.6393 45.7985 48.2118 55.1993C33.7868 64.6 13.9624 59.6383 3.93137 44.1154C2.92102 42.5523 2.05071 40.9443 1.31546 39.3012L54.0814 7.16501Z" fill="url(#paint0_linear_346_9928)"/>
<path style="mix-blend-mode:multiply" opacity="0.32" d="M54.0814 7.16501C54.8191 8.09033 55.5169 9.06067 56.1746 10.076C66.2031 25.5964 62.6393 45.7985 48.2118 55.1993C33.7868 64.6 13.9624 59.6383 3.93137 44.1154C2.92102 42.5523 2.05071 40.9443 1.31546 39.3012L54.0814 7.16501Z" fill="url(#paint1_linear_346_9928)"/>
<mask id="mask0_346_9928" style="mask-type:luminance" maskUnits="userSpaceOnUse" x="0" y="0" width="57" height="46">
<path d="M11.1557 12.0192L12.9689 8.97563L17.2779 7.04496L28.2817 3.33366L30.9776 0L46.8507 0.947831C53.5955 3.49122 56.0414 9.80342 56.1739 10.2336C57.1443 13.4172 53.8231 16.3007 53.8231 16.3007L50.0718 18.3764L45.3476 29.4828L39.1955 30.1005L36.3695 32.6714L32.143 31.2534L20.434 41.1218L15.2672 41.7496L6.2015 45.0307C6.2015 45.0307 1.9225 42.1922 0.609547 38.1108C-0.703411 34.0294 0.497005 25.5989 0.604542 21.6976C0.712082 17.7962 11.1582 12.0217 11.1582 12.0217L11.1557 12.0192ZM4.31084 34.8171C4.2033 37.1955 6.43158 38.3909 6.43158 38.3909L13.439 35.0947L17.1253 33.9944L27.1263 26.5317L27.5189 26.2366L27.5614 26.2041L27.9216 26.2492L28.3242 26.2992L28.7268 26.3492L29.1295 26.3992L29.5321 26.4492L29.9348 26.4992L30.1023 26.5192L30.3324 26.3392L30.725 26.0316L31.1177 25.724L31.5103 25.4164L31.903 25.1088L32.2956 24.8011L32.6632 24.5135L32.6882 24.506L33.0859 24.3935L33.4835 24.281L33.8811 24.1684L34.2788 24.0559L34.6764 23.9433L35.0741 23.8308L35.4717 23.7183L35.8693 23.6057L36.267 23.4932L36.6646 23.3806L37.0122 23.2831L37.0623 23.2181L37.4499 22.7229L37.8375 22.2277L38.2252 21.7326L38.6128 21.2374L39.0004 20.7422L39.3881 20.2471L39.7757 19.7519L40.1633 19.2567L40.551 18.7615L40.9386 18.2664L41.3262 17.7712L41.7139 17.276L42.1015 16.7808L42.4892 16.2857L42.8768 15.7905L42.9618 15.6805L43.2694 15.4979L43.6646 15.2653L44.0597 15.0327L44.4548 14.8002L44.85 14.5676L45.2451 14.335L45.6402 14.1024L46.0354 13.8698C46.0354 13.8698 46.1904 13.7523 46.428 13.5497C46.5431 13.4522 46.6756 13.3371 46.8207 13.2046C46.9432 13.0921 47.0757 12.9695 47.2133 12.8345C47.3408 12.7094 47.4734 12.5769 47.6034 12.4343C47.736 12.2943 47.866 12.1467 47.9936 11.9967C48.1286 11.8341 48.2612 11.6691 48.3812 11.4965C48.5238 11.2964 48.6563 11.0889 48.7663 10.8838C48.9714 10.5012 49.1115 10.1135 49.134 9.74089C49.1415 9.62335 49.119 8.76556 48.6838 7.81773C48.5738 7.57514 48.4337 7.32755 48.2637 7.08497C48.1436 6.91491 48.0061 6.74485 47.8485 6.58229C47.7235 6.45225 47.5859 6.32721 47.4359 6.20716C47.3083 6.10463 47.1733 6.00959 47.0257 5.91706C46.8982 5.83703 46.7631 5.75951 46.6181 5.68698C46.4905 5.62446 46.353 5.56444 46.2129 5.50942C46.0829 5.4594 45.9479 5.41189 45.8078 5.36937C45.6778 5.32936 45.5427 5.29435 45.4027 5.26183C45.2876 5.23432 45.1676 5.21182 45.0425 5.19181L45 5.19681L44.5999 5.24433L44.1997 5.29184L43.7996 5.33936L43.3995 5.38688L42.9993 5.43439L42.5992 5.48191L42.199 5.52943L41.7989 5.57694L41.3988 5.62446L40.9986 5.67198L40.5985 5.71949L40.1983 5.76701L39.7982 5.81453L39.3981 5.86204L38.9979 5.90956L38.5978 5.95708L38.1977 6.00459L37.7975 6.05211L37.3974 6.09963L36.9972 6.14714L36.5971 6.19466L36.197 6.24218L35.7968 6.28969L35.3967 6.33721L34.9965 6.38473L34.779 6.40973L34.6014 6.5848L34.2088 6.96993L33.8161 7.35506L33.4235 7.7402L33.0309 8.12533L32.6382 8.51047L32.2456 8.8956L32.2206 8.92061L31.8504 9.07817L31.4528 9.24822L31.0552 9.41828L30.6575 9.58834L30.2599 9.7584L29.8622 9.92846L29.4646 10.0985L29.067 10.2686L28.6693 10.4386L28.2717 10.6087L27.8741 10.7788L27.4764 10.9488L27.0788 11.1189L26.6811 11.2889L23.0274 12.8445L19.3536 14.46L17.8155 16.9959C17.8155 16.9959 9.33509 22.0702 8.30223 24.5286C7.26937 26.9894 4.37086 32.4388 4.26582 34.8171H4.31084Z" fill="white"/>
</mask>
<g mask="url(#mask0_346_9928)">
<path d="M56.2174 10.3736C56.0849 9.94094 53.6415 3.62874 46.8942 1.08786L30.5835 -0.0475388L28.1927 3.33114L17.3214 7.18498L12.9298 8.97811L11.0492 12.0867C11.0492 12.0867 0.753098 17.9337 0.645557 21.8351C0.540524 25.7364 -0.662395 34.1644 0.650562 38.2483C1.96352 42.3297 6.24251 45.1682 6.24251 45.1682L15.3082 41.8871L20.475 41.2594L32.1841 31.3909L36.4105 32.8089L39.2365 30.238L45.3887 29.6203L50.1128 18.5139L53.8641 16.4382C53.8641 16.4382 57.1853 13.5547 56.2149 10.3711L56.2174 10.3736Z" fill="#783E16"/>
<mask id="mask1_346_9928" style="mask-type:luminance" maskUnits="userSpaceOnUse" x="0" y="-1" width="57" height="47">
<path d="M56.2174 10.3736C56.0849 9.94094 53.6415 3.62874 46.8942 1.08786L30.5835 -0.0475388L28.1927 3.33114L17.3214 7.18498L12.9298 8.97811L11.0492 12.0867C11.0492 12.0867 0.753098 17.9337 0.645557 21.8351C0.540524 25.7364 -0.662395 34.1644 0.650562 38.2483C1.96352 42.3297 6.24251 45.1682 6.24251 45.1682L15.3082 41.8871L20.475 41.2594L32.1841 31.3909L36.4105 32.8089L39.2365 30.238L45.3887 29.6203L50.1128 18.5139L53.8641 16.4382C53.8641 16.4382 57.1853 13.5547 56.2149 10.3711L56.2174 10.3736Z" fill="white"/>
</mask>
<g mask="url(#mask1_346_9928)">
<path d="M53.6474 3.63622L58.2315 15.6304L61.7002 11.8491L53.6474 3.63622Z" fill="#783E16"/>
<path d="M53.2322 3.21356L52.8421 3.061L57.8188 16.0805L58.2314 15.6304L53.6473 3.6362L53.2322 3.21356Z" fill="#783E16"/>
<path d="M52.8416 3.06102L52.1539 2.78842L57.4057 16.5307L57.8184 16.0806L52.8416 3.06102Z" fill="#783E16"/>
<path d="M52.1544 2.78841L51.4667 2.51582L56.9936 16.9784L57.4062 16.5307L52.1544 2.78841Z" fill="#783E16"/>
<path d="M51.4662 2.51584L50.7785 2.24324L56.5805 17.4285L56.9932 16.9784L51.4662 2.51584Z" fill="#783E16"/>
<path d="M50.779 2.24323L50.0913 1.97063L56.1684 17.8787L56.5811 17.4285L50.779 2.24323Z" fill="#783E16"/>
<path d="M50.0908 1.97062L49.4006 1.69803L55.7553 18.3288L56.168 17.8787L50.0908 1.97062Z" fill="#783E16"/>
<path d="M49.4002 1.69804L48.7124 1.42545L55.3422 18.7765L55.7549 18.3288L49.4002 1.69804Z" fill="#783E16"/>
<path d="M48.713 1.42544L48.0252 1.15285L54.9301 19.2266L55.3428 18.7765L48.713 1.42544Z" fill="#783E16"/>
<path d="M48.0258 1.15284L47.338 0.880241L54.518 19.6768L54.9307 19.2266L48.0258 1.15284Z" fill="#783E16"/>
<path d="M47.3376 0.880253L46.6473 0.607658L54.1074 20.127L54.5176 19.6768L47.3376 0.880253Z" fill="#783E16"/>
<path d="M46.6483 0.607648L45.9606 0.335052L53.6958 20.5746L54.1084 20.1269L46.6483 0.607648Z" fill="#783E16"/>
<path d="M45.9591 0.335073L45.2714 0.0649796L53.2817 21.0248L53.6943 20.5746L45.9591 0.335073Z" fill="#783E16"/>
<path d="M45.2719 0.0649692L44.5842 -0.207626L52.8696 21.4749L53.2822 21.0248L45.2719 0.0649692Z" fill="#783E16"/>
<path d="M44.5847 -0.20763L43.897 -0.480225L52.4575 21.9226L52.8701 21.4749L44.5847 -0.20763Z" fill="#783E16"/>
<path d="M43.8965 -0.48022L43.2063 -0.752815L52.0444 22.3727L52.457 21.9226L43.8965 -0.48022Z" fill="#783E16"/>
<path d="M43.2068 -0.752819L42.5191 -1.02541L51.6323 22.8229L52.0449 22.3727L43.2068 -0.752819Z" fill="#783E16"/>
<path d="M42.5177 -1.02539L41.8299 -1.29799L51.2182 23.2731L51.6309 22.8229L42.5177 -1.02539Z" fill="#783E16"/>
<path d="M41.8305 -1.298L41.1427 -1.57059L50.8061 23.7207L51.2188 23.2731L41.8305 -1.298Z" fill="#783E16"/>
<path d="M41.1433 -1.57061L40.4555 -1.84321L50.394 24.1709L50.8066 23.7207L41.1433 -1.57061Z" fill="#783E16"/>
<path d="M40.4551 -1.84319L39.7648 -2.11578L49.9809 24.621L50.3936 24.1709L40.4551 -1.84319Z" fill="#783E16"/>
<path d="M39.7654 -2.11579L39.0776 -2.38839L49.5688 25.0712L49.9814 24.621L39.7654 -2.11579Z" fill="#783E16"/>
<path d="M39.0762 -2.38838L38.3885 -2.66097L49.1572 25.5188L49.5674 25.0712L39.0762 -2.38838Z" fill="#783E16"/>
<path d="M38.3895 -2.66098L37.7017 -2.93358L48.7456 25.969L49.1582 25.5188L38.3895 -2.66098Z" fill="#783E16"/>
<path d="M37.7013 -2.93358L37.011 -3.20618L48.3325 26.4191L48.7451 25.969L37.7013 -2.93358Z" fill="#783E16"/>
<path d="M37.0116 -3.20619L36.3238 -3.47628L47.9204 26.8668L48.333 26.4191L37.0116 -3.20619Z" fill="#783E16"/>
<path d="M36.3234 -3.47626L35.6356 -3.74886L47.5073 27.317L47.9199 26.8668L36.3234 -3.47626Z" fill="#783E16"/>
<path d="M35.6362 -3.74887L34.9484 -4.02146L47.0952 27.7671L47.5078 27.317L35.6362 -3.74887Z" fill="#783E16"/>
<path d="M34.948 -4.02145L34.2603 -4.29404L46.6821 28.2173L47.0947 27.7671L34.948 -4.02145Z" fill="#783E16"/>
<path d="M34.2608 -4.29406L33.5705 -4.56665L46.27 28.6649L46.6826 28.2173L34.2608 -4.29406Z" fill="#783E16"/>
<path d="M33.5701 -4.56665L32.8824 -4.83925L45.8569 29.1151L46.2695 28.6649L33.5701 -4.56665Z" fill="#783E16"/>
<path d="M32.8829 -4.83923L32.1952 -5.11182L45.4448 29.5653L45.8574 29.1151L32.8829 -4.83923Z" fill="#783E16"/>
<path d="M32.1947 -5.11184L31.507 -5.38444L45.0317 30.0154L45.4443 29.5652L32.1947 -5.11184Z" fill="#783E16"/>
<path d="M31.5075 -5.38442L30.8198 -5.65701L44.6196 30.4631L45.0322 30.0154L31.5075 -5.38442Z" fill="#783E16"/>
<path d="M30.8193 -5.65702L30.1291 -5.92962L44.2065 30.9132L44.6191 30.4631L30.8193 -5.65702Z" fill="#783E16"/>
<path d="M30.1286 -5.92964L29.4409 -6.20223L43.7959 31.3634L44.2061 30.9132L30.1286 -5.92964Z" fill="#783E16"/>
<path d="M29.4141 -6.21972L28.7239 -6.49232L43.354 31.7935L43.7666 31.3434L29.4141 -6.21972Z" fill="#783E16"/>
<path d="M28.7537 -6.47482L28.0659 -6.74741L42.9711 32.2612L43.3838 31.811L28.7537 -6.47482Z" fill="#783E16"/>
<path d="M28.0665 -6.74739L27.3762 -7.01999L42.559 32.7114L42.9717 32.2612L28.0665 -6.74739Z" fill="#783E16"/>
<path d="M27.3758 -7.01999L26.6881 -7.29008L42.1459 33.1615L42.5586 32.7114L27.3758 -7.01999Z" fill="#783E16"/>
<path d="M26.6886 -7.2901L26.0009 -7.56269L41.7338 33.6092L42.1465 33.1615L26.6886 -7.2901Z" fill="#783E16"/>
<path d="M25.9994 -7.56268L25.3117 -7.83527L41.3198 34.0593L41.7324 33.6092L25.9994 -7.56268Z" fill="#783E16"/>
<path d="M25.3122 -7.83529L24.6445 -8.10038L24.632 -8.08788L40.9077 34.5095L41.3203 34.0593L25.3122 -7.83529Z" fill="#783E16"/>
<path d="M24.2199 -7.6377L40.4956 34.9571L40.9082 34.5095L24.6325 -8.08786L24.2199 -7.6377Z" fill="#783E16"/>
<path d="M23.8078 -7.18755L40.0834 35.4073L40.4961 34.9571L24.2204 -7.63771L23.8078 -7.18755Z" fill="#783E16"/>
<path d="M23.3947 -6.7399L39.6704 35.8575L40.083 35.4073L23.8073 -7.18755L23.3947 -6.7399Z" fill="#783E16"/>
<path d="M22.9816 -6.28976L39.2573 36.3076L39.6699 35.8574L23.3942 -6.73991L22.9816 -6.28976Z" fill="#783E16"/>
<path d="M22.5685 -5.83958L38.8467 36.7553L39.2568 36.3076L22.9812 -6.28973L22.5685 -5.83958Z" fill="#783E16"/>
<path d="M22.1559 -5.38942L38.434 37.2054L38.8467 36.7553L22.5685 -5.83958L22.1559 -5.38942Z" fill="#783E16"/>
<path d="M21.7438 -4.94177L38.0219 37.6556L38.4346 37.2054L22.1564 -5.38943L21.7438 -4.94177Z" fill="#783E16"/>
<path d="M21.3307 -4.49163L37.6088 38.1057L38.0215 37.6556L21.7433 -4.94179L21.3307 -4.49163Z" fill="#783E16"/>
<path d="M20.9201 -4.04147L37.1958 38.5534L37.6084 38.1057L21.3302 -4.49163L20.9201 -4.04147Z" fill="#783E16"/>
<path d="M20.508 -3.59129L36.7836 39.0036L37.1963 38.5534L20.9206 -4.04145L20.508 -3.59129Z" fill="#783E16"/>
<path d="M20.0959 -3.14365L36.3715 39.4537L36.7842 39.0035L20.5085 -3.5913L20.0959 -3.14365Z" fill="#783E16"/>
<path d="M19.6828 -2.6935L35.9584 39.9013L36.3711 39.4537L20.0954 -3.14365L19.6828 -2.6935Z" fill="#783E16"/>
<path d="M19.2697 -2.24335L35.5454 40.3515L35.958 39.9013L19.6823 -2.6935L19.2697 -2.24335Z" fill="#783E16"/>
<path d="M18.8576 -1.79569L35.1333 40.8017L35.5459 40.3515L19.2702 -2.24335L18.8576 -1.79569Z" fill="#783E16"/>
<path d="M18.4445 -1.34551L34.7202 41.2518L35.1328 40.8017L18.8571 -1.79567L18.4445 -1.34551Z" fill="#783E16"/>
<path d="M4.21006 44.618L24.3271 52.5783L34.7207 41.2518L18.445 -1.34552L-10.225 29.8979L4.21006 44.618Z" fill="#783E16"/>
</g>
<mask id="mask2_346_9928" style="mask-type:luminance" maskUnits="userSpaceOnUse" x="1" y="0" width="54" height="44">
<path d="M54.7558 10.8138C54.6333 10.4111 52.355 4.51656 45.9728 2.18075L31.2452 0.927811L28.8693 4.19145L17.9205 8.11032L13.7691 9.83592L11.9084 12.7044C11.9084 12.7044 2.105 18.2413 1.97995 21.8951C1.85491 25.5464 0.661991 33.4441 1.88242 37.258C3.10284 41.0693 7.14425 43.7002 7.14425 43.7002L15.7623 40.5716L19.8562 40.079L31.8329 30.6407L35.8343 31.9411L38.5302 29.5178L44.3697 28.9001L48.9213 18.4764L52.4926 16.5082C52.4926 16.5082 55.6612 13.7873 54.7608 10.8163L54.7558 10.8138Z" fill="white"/>
</mask>
<g mask="url(#mask2_346_9928)">
<path d="M52.3611 4.52155L56.6301 15.7205L59.9463 12.1592L52.3611 4.52155Z" fill="#C6C6C6"/>
<path d="M51.9698 4.12892L51.5997 3.98637L56.2363 16.1431L56.6289 15.7205L52.3599 4.52156L51.9698 4.12892Z" fill="#C6C6C6"/>
<path d="M51.6007 3.98638L50.9505 3.73629L55.8422 16.5658L56.2373 16.1431L51.6007 3.98638Z" fill="#C7C7C7"/>
<path d="M50.9501 3.73629L50.2974 3.48621L55.4492 16.9909L55.8418 16.5658L50.9501 3.73629Z" fill="#C8C8C8"/>
<path d="M50.2974 3.48621L49.6472 3.23612L55.0541 17.4136L55.4492 16.9909L50.2974 3.48621Z" fill="#C9C9C9"/>
<path d="M49.6468 3.2361L48.9966 2.98602L54.6611 17.8362L55.0537 17.4135L49.6468 3.2361Z" fill="#CACACA"/>
<path d="M48.9976 2.98601L48.3449 2.73342L54.267 18.2588L54.6621 17.8362L48.9976 2.98601Z" fill="#CBCBCB"/>
<path d="M48.3445 2.73342L47.6943 2.48334L53.874 18.684L54.2666 18.2588" fill="#CCCCCC"/>
<path d="M47.6934 2.48335L47.0432 2.23326L53.4779 19.1066L53.873 18.684L47.6934 2.48335Z" fill="#CDCDCD"/>
<path d="M47.0447 2.23326L46.392 1.98318L53.0869 19.5293L53.4795 19.1066L47.0447 2.23326Z" fill="#CECECE"/>
<path d="M46.3911 1.98317L45.7409 1.73058L52.6908 19.9544L53.0859 19.5293L46.3911 1.98317Z" fill="#CFCFCF"/>
<path d="M45.7415 1.73059L45.0913 1.4805L52.2963 20.3771L52.6914 19.9544L45.7415 1.73059Z" fill="#D0D0D0"/>
<path d="M45.0909 1.48048L44.4382 1.23039L51.9033 20.7997L52.2959 20.3771L45.0909 1.48048Z" fill="#D1D1D1"/>
<path d="M44.4372 1.2304L43.787 0.980309L51.5072 21.2224L51.9023 20.7997L44.4372 1.2304Z" fill="#D2D2D2"/>
<path d="M43.7886 0.980312L43.1384 0.730225L51.1162 21.6475L51.5088 21.2224L43.7886 0.980312Z" fill="#D3D3D3"/>
<path d="M43.1375 0.730234L42.4847 0.477646L50.7201 22.0702L51.1152 21.6475L43.1375 0.730234Z" fill="#D4D4D4"/>
<path d="M42.4844 0.477649L41.8341 0.227562L50.3271 22.4928L50.7197 22.0702L42.4844 0.477649Z" fill="#D5D5D5"/>
<path d="M41.8352 0.227565L41.1849 -0.022522L49.933 22.9155L50.3281 22.4928L41.8352 0.227565Z" fill="#D6D6D6"/>
<path d="M41.1846 -0.0225187L40.5318 -0.272606L49.54 23.3406L49.9326 22.9155L41.1846 -0.0225187Z" fill="#D7D7D7"/>
<path d="M40.5319 -0.272595L39.8817 -0.522682L49.1449 23.7633L49.54 23.3406L40.5319 -0.272595Z" fill="#D8D8D8"/>
<path d="M39.8813 -0.522689L39.2311 -0.775276L48.7519 24.1859L49.1445 23.7633L39.8813 -0.522689Z" fill="#D9D9D9"/>
<path d="M39.2321 -0.775303L38.5794 -1.02539L48.3578 24.6085L48.7529 24.1859L39.2321 -0.775303Z" fill="#DADADA"/>
<path d="M38.579 -1.02538L37.9288 -1.27547L47.9623 25.0337L48.3574 24.6086L38.579 -1.02538Z" fill="#DBDBDB"/>
<path d="M37.9284 -1.27546L37.2782 -1.52555L47.5693 25.4564L47.9619 25.0337L37.9284 -1.27546Z" fill="#DCDCDC"/>
<path d="M37.2773 -1.52556L36.6245 -1.77814L47.1732 25.879L47.5684 25.4563L37.2773 -1.52556Z" fill="#DDDDDD"/>
<path d="M36.6261 -1.77814L35.9759 -2.02823L46.7822 26.3042L47.1748 25.879L36.6261 -1.77814Z" fill="#DEDEDE"/>
<path d="M35.975 -2.02823L35.3248 -2.27831L46.3861 26.7268L46.7812 26.3042L35.975 -2.02823Z" fill="#DFDFDF"/>
<path d="M35.3244 -2.27832L34.6717 -2.52841L45.9931 27.1494L46.3857 26.7268L35.3244 -2.27832Z" fill="#E0E0E0"/>
<path d="M34.6717 -2.52842L34.0215 -2.7785L45.598 27.5721L45.9932 27.1494L34.6717 -2.52842Z" fill="#E1E1E1"/>
<path d="M34.0221 -2.77849L33.3719 -3.03108L45.206 27.9972L45.5986 27.5721L34.0221 -2.77849Z" fill="#E3E3E3"/>
<path d="M33.3719 -3.03108L32.7192 -3.28117L44.8109 28.4199L45.2061 27.9972L33.3719 -3.03108Z" fill="#E4E4E4"/>
<path d="M32.7188 -3.28116L32.0686 -3.53125L44.4154 28.8425L44.8105 28.4199L32.7188 -3.28116Z" fill="#E5E5E5"/>
<path d="M32.0692 -3.53125L31.419 -3.78133L44.0234 29.2652L44.416 28.8425L32.0692 -3.53125Z" fill="#E6E6E6"/>
<path d="M31.419 -3.78134L30.7663 -4.03393L43.6283 29.6903L44.0234 29.2652L31.419 -3.78134Z" fill="#E7E7E7"/>
<path d="M30.7659 -4.03392L30.1157 -4.284L43.2353 30.113L43.6279 29.6903L30.7659 -4.03392Z" fill="#E8E8E8"/>
<path d="M30.1148 -4.284L29.4646 -4.53409L42.8392 30.5356L43.2344 30.113L30.1148 -4.284Z" fill="#E9E9E9"/>
<path d="M29.4662 -4.53412L28.8134 -4.7842L42.4482 30.9608L42.8408 30.5356L29.4662 -4.53412Z" fill="#EAEAEA"/>
<path d="M28.8125 -4.78419L28.1623 -5.03428L42.0521 31.3834L42.4473 30.9608L28.8125 -4.78419Z" fill="#EBEBEB"/>
<path d="M28.1619 -5.03428L27.5092 -5.28687L41.6591 31.8061L42.0518 31.3834L28.1619 -5.03428Z" fill="#ECECEC"/>
<path d="M27.5092 -5.28686L26.859 -5.53695L41.264 32.2287L41.6592 31.8061L27.5092 -5.28686Z" fill="#EDEDED"/>
<path d="M26.8596 -5.53695L26.2094 -5.78703L40.872 32.6539L41.2646 32.2287L26.8596 -5.53695Z" fill="#EEEEEE"/>
<path d="M26.2095 -5.78702L25.5567 -6.03711L40.4769 33.0765L40.8721 32.6539L26.2095 -5.78702Z" fill="#EFEFEF"/>
<path d="M25.5564 -6.03712L24.9261 -6.2822L24.9136 -6.2697L40.0814 33.4992L40.4766 33.0765L25.5564 -6.03712Z" fill="#F0F0F0"/>
<path d="M24.5206 -5.84457L39.6884 33.9218L40.0811 33.4991L24.9133 -6.26972L24.5206 -5.84457Z" fill="#F1F1F1"/>
<path d="M24.1265 -5.42193L39.2943 34.3469L39.6895 33.9218L24.5217 -5.84457L24.1265 -5.42193Z" fill="#F2F2F2"/>
<path d="M23.7335 -4.99926L38.9013 34.7696L39.2939 34.347L24.1262 -5.42191L23.7335 -4.99926Z" fill="#F3F3F3"/>
<path d="M23.3375 -4.57662L38.5053 35.1922L38.9004 34.7696L23.7326 -4.99927L23.3375 -4.57662Z" fill="#F4F4F4"/>
<path d="M22.9439 -4.15148L38.1142 35.6149L38.5068 35.1922L23.339 -4.57663L22.9439 -4.15148Z" fill="#F5F5F5"/>
<path d="M22.5504 -3.72883L37.7181 36.04L38.1133 35.6149L22.943 -4.15148L22.5504 -3.72883Z" fill="#F6F6F6"/>
<path d="M22.1548 -3.30617L37.3251 36.4627L37.7178 36.04L22.55 -3.72882L22.1548 -3.30617Z" fill="#F7F7F7"/>
<path d="M21.7623 -2.88103L36.9301 36.8853L37.3252 36.4627L22.1549 -3.30618L21.7623 -2.88103Z" fill="#F8F8F8"/>
<path d="M21.3677 -2.45838L36.5355 37.3105L36.9307 36.8853L21.7629 -2.88103L21.3677 -2.45838Z" fill="#F9F9F9"/>
<path d="M20.9747 -2.03574L36.1425 37.7331L36.5352 37.3105L21.3674 -2.45839L20.9747 -2.03574Z" fill="#FAFAFA"/>
<path d="M20.5797 -1.61308L35.7474 38.1558L36.1426 37.7331L20.9748 -2.03573L20.5797 -1.61308Z" fill="#FBFBFB"/>
<path d="M20.1866 -1.18793L35.3544 38.5784L35.7471 38.1558L20.5793 -1.61308L20.1866 -1.18793Z" fill="#FCFCFC"/>
<path d="M19.7925 -0.765287L34.9603 39.0036L35.3555 38.5784L20.1877 -1.18793L19.7925 -0.765287Z" fill="#FDFDFD"/>
<path d="M19.397 -0.342649L34.5673 39.4262L34.96 39.0036L19.7922 -0.765297L19.397 -0.342649Z" fill="#FEFEFE"/>
<path d="M19.0035 0.0800109L34.1713 39.8489L34.5664 39.4262L19.3961 -0.342636L19.0035 0.0800109Z" fill="white"/>
<path d="M5.2108 43.1925L24.2399 50.5176L34.1709 39.8489L19.0031 0.0800018L-8.38644 29.5078L5.2108 43.1925Z" fill="white"/>
</g>
<path d="M4.18943 34.9347C4.29696 32.5563 7.19297 27.1069 8.22583 24.6461C9.25869 22.1852 17.7391 17.1135 17.7391 17.1135L19.2772 14.5776L22.951 12.962L26.6047 11.4065L27.0024 11.2364L27.4 11.0663L27.7977 10.8963L28.1953 10.7262L28.5929 10.5562L28.9906 10.3861L29.3882 10.216L29.7858 10.046L30.1835 9.87593L30.5811 9.70587L30.9788 9.53581L31.3764 9.36575L31.774 9.19569L32.1442 9.03813L32.1692 9.01313L32.5618 8.62799L32.9545 8.24286L33.3471 7.85772L33.7397 7.47259L34.1324 7.08745L34.525 6.70232L34.7026 6.52726L34.9201 6.50225L35.3203 6.45473L35.7204 6.40722L36.1206 6.3597L36.5207 6.31218L36.9208 6.26467L37.321 6.21715L37.7211 6.16963L38.1213 6.12212L38.5214 6.0746L38.9215 6.02708L39.3217 5.97957L39.7218 5.93205L40.122 5.88453L40.5221 5.83702L40.9222 5.7895L41.3224 5.74198L41.7225 5.69447L42.1226 5.64695L42.5228 5.59943L42.9229 5.55192L43.3231 5.5044L43.7232 5.45689L44.1233 5.40937L44.5235 5.36185L44.9236 5.31434L44.9661 5.30933C45.0887 5.32934 45.2087 5.35435 45.3263 5.37936C45.4663 5.41187 45.6014 5.44688 45.7314 5.4869C45.8715 5.52941 46.0065 5.57693 46.1365 5.62694C46.2791 5.68196 46.4141 5.73948 46.5417 5.80451C46.6867 5.87703 46.8218 5.95206 46.9493 6.03459C47.0944 6.12712 47.2319 6.22215 47.3595 6.32469C47.5095 6.44473 47.6471 6.56977 47.7721 6.69982C47.9272 6.86238 48.0672 7.02993 48.1873 7.20249C48.3573 7.44508 48.4974 7.69267 48.6074 7.93525C49.0426 8.88308 49.0651 9.74088 49.0576 9.85842C49.0326 10.231 48.895 10.6187 48.6899 11.0013C48.5774 11.2089 48.4474 11.414 48.3048 11.614C48.1823 11.7841 48.0522 11.9517 47.9172 12.1142C47.7896 12.2668 47.6596 12.4118 47.527 12.5519C47.3945 12.6919 47.2644 12.8245 47.1369 12.952C46.9993 13.0845 46.8693 13.2096 46.7443 13.3221C46.5992 13.4547 46.4667 13.5697 46.3516 13.6672C46.114 13.8698 45.959 13.9849 45.959 13.9849L45.5638 14.2174L45.1687 14.45L44.7736 14.6826L44.3784 14.9152L43.9833 15.1478L43.5882 15.3803L43.193 15.6129L42.8854 15.7955L42.8004 15.9055L42.4127 16.4007L42.0251 16.8959L41.6375 17.391L41.2498 17.8862L40.8622 18.3814L40.4746 18.8766L40.0869 19.3717L39.6993 19.8669L39.3117 20.3621L38.924 20.8573L38.5364 21.3524L38.1488 21.8476L37.7611 22.3428L37.3735 22.8379L36.9859 23.3331L36.9358 23.3981L36.5882 23.4957L36.1906 23.6082L35.7929 23.7208L35.3953 23.8333L34.9977 23.9458L34.6 24.0584L34.2024 24.1709L33.8047 24.2835L33.4071 24.396L33.0095 24.5085L32.6118 24.6211L32.5868 24.6286L32.2192 24.9162L31.8266 25.2238L31.4339 25.5314L31.0413 25.839L30.6486 26.1466L30.256 26.4542L30.0259 26.6343L29.8584 26.6143L29.4557 26.5642L29.0531 26.5142L28.6504 26.4642L28.2478 26.4142L27.8452 26.3642L27.485 26.3192L27.4425 26.3517L27.0499 26.6468L17.0489 34.1094L13.3626 35.2098L6.35518 38.5059C6.35518 38.5059 4.1269 37.3105 4.23444 34.9322L4.18943 34.9347Z" fill="url(#paint2_linear_346_9928)"/>
<path d="M4.18943 34.9347C4.29696 32.5563 7.19297 27.1069 8.22583 24.6461C9.25869 22.1852 17.7391 17.1134 17.7391 17.1134L19.2772 14.5776L22.951 12.962L26.6047 11.4065L27.0024 11.2364L27.4 11.0663L27.7977 10.8963L28.1953 10.7262L28.5929 10.5562L28.9906 10.3861L29.3882 10.216L29.7858 10.046L30.1835 9.87593L30.5811 9.70587L30.9788 9.53581L31.3764 9.36575L31.774 9.19569L32.1442 9.03813L32.1692 9.01313L32.5618 8.62799L32.9545 8.24286L33.3471 7.85772L33.7397 7.47259L34.1324 7.08745L34.525 6.70232L34.7026 6.52726L34.9201 6.50225L35.3203 6.45473L35.7204 6.40722L36.1206 6.3597L36.5207 6.31218L36.9208 6.26467L37.321 6.21715L37.7211 6.16963L38.1213 6.12212L38.5214 6.0746L38.9215 6.02708L39.3217 5.97957L39.7218 5.93205L40.1219 5.88453L40.5221 5.83702L40.9222 5.7895L41.3224 5.74198L41.7225 5.69447L42.1226 5.64695L42.5228 5.59943L42.9229 5.55192L43.3231 5.5044L43.7232 5.45689L44.1233 5.40937L44.5235 5.36185L44.9236 5.31434L44.9661 5.30933C45.0887 5.32934 45.2087 5.35435 45.3263 5.37936C45.4663 5.41187 45.6014 5.44688 45.7314 5.4869C45.8715 5.52941 46.0065 5.57693 46.1365 5.62694C46.2791 5.68196 46.4141 5.73948 46.5417 5.80451C46.6867 5.87703 46.8218 5.95206 46.9493 6.03459C47.0944 6.12712 47.2319 6.22215 47.3595 6.32469C47.5095 6.44473 47.6471 6.56977 47.7721 6.69982C47.9272 6.86238 48.0672 7.02993 48.1873 7.20249C48.3573 7.44508 48.4974 7.69267 48.6074 7.93525C49.0426 8.88308 49.0651 9.74088 49.0576 9.85842C49.0326 10.231 48.895 10.6187 48.6899 11.0013C48.5774 11.2089 48.4474 11.414 48.3048 11.614C48.1823 11.7841 48.0522 11.9517 47.9172 12.1142C47.7896 12.2668 47.6596 12.4118 47.527 12.5519C47.3945 12.6919 47.2644 12.8245 47.1369 12.952C46.9993 13.0845 46.8693 13.2096 46.7443 13.3221C46.5992 13.4547 46.4667 13.5697 46.3516 13.6672C46.114 13.8698 45.959 13.9849 45.959 13.9849L45.5638 14.2174L45.1687 14.45L44.7736 14.6826L44.3784 14.9152L43.9833 15.1478L43.5882 15.3803L43.193 15.6129L42.8854 15.7955L42.8004 15.9055L42.4127 16.4007L42.0251 16.8959L41.6375 17.391L41.2498 17.8862L40.8622 18.3814L40.4746 18.8766L40.0869 19.3717L39.6993 19.8669L39.3117 20.3621L38.924 20.8573L38.5364 21.3524L38.1488 21.8476L37.7611 22.3428L37.3735 22.8379L36.9859 23.3331L36.9358 23.3981L36.5882 23.4957L36.1906 23.6082L35.7929 23.7208L35.3953 23.8333L34.9977 23.9458L34.6 24.0584L34.2024 24.1709L33.8047 24.2835L33.4071 24.396L33.0095 24.5085L32.6118 24.6211L32.5868 24.6286L32.2192 24.9162L31.8266 25.2238L31.4339 25.5314L31.0413 25.839L30.6486 26.1466L30.256 26.4542L30.0259 26.6343L29.8584 26.6143L29.4557 26.5642L29.0531 26.5142L28.6505 26.4642L28.2478 26.4142L27.8452 26.3642L27.485 26.3192L27.4425 26.3517L27.0499 26.6468L17.0489 34.1094L13.3626 35.2098L6.35518 38.5059C6.35518 38.5059 4.1269 37.3105 4.23444 34.9322L4.18943 34.9347Z" stroke="url(#paint3_linear_346_9928)" stroke-width="0.35" stroke-miterlimit="10"/>
<path style="mix-blend-mode:overlay" opacity="0.21" d="M42.3774 15.3929C42.5349 15.4804 56.6523 21.6425 56.6523 21.6425C56.6523 21.6425 45.9486 29.8354 45.7811 29.7904C45.611 29.7454 35.4675 22.1827 35.4675 22.1827L42.3774 15.3929Z" fill="url(#paint4_linear_346_9928)"/>
<path style="mix-blend-mode:multiply" opacity="0.24" d="M45.7793 29.7879C45.7068 29.7229 35.4657 22.1802 35.4657 22.1802L31.5843 23.8308L40.2249 30.9208L45.7768 29.7854L45.7793 29.7879Z" fill="url(#paint5_linear_346_9928)"/>
<path style="mix-blend-mode:overlay" opacity="0.21" d="M39.7861 30.5357L30.5329 22.9405L29.9777 26.2767L37.5303 33.5517C37.5303 33.5517 39.6911 30.5557 39.7861 30.5382V30.5357Z" fill="url(#paint6_linear_346_9928)"/>
<path style="mix-blend-mode:multiply" opacity="0.24" d="M37.5303 33.5492L27.7994 24.536L27.0016 25.9065L33.2863 32.1637L37.5303 33.5492Z" fill="url(#paint7_linear_346_9928)"/>
<path style="mix-blend-mode:overlay" opacity="0.21" d="M33.29 32.3213L25.5123 24.376L16.7393 33.8093L21.816 44.0629L33.29 32.3213Z" fill="url(#paint8_linear_346_9928)"/>
<path style="mix-blend-mode:multiply" opacity="0.24" d="M21.8154 44.0629L16.0884 31.4185L12.5922 34.0794L17.4189 44.2629L21.8154 44.0629Z" fill="url(#paint9_linear_346_9928)"/>
<path style="mix-blend-mode:overlay" opacity="0.21" d="M16.4365 42.1897L11.9975 32.6739L6.35051 38.0382L7.70098 47.4265L16.4365 42.1897Z" fill="url(#paint10_linear_346_9928)"/>
<path style="mix-blend-mode:multiply" opacity="0.24" d="M7.14498 43.9303L5.94957 35.6474C5.94957 35.6474 9.10067 23.9809 9.03814 23.9633C8.97562 23.9458 -2.41585 19.8519 -2.41585 19.8519L-2.2983 40.3366L7.14498 43.9328V43.9303Z" fill="url(#paint11_linear_346_9928)"/>
<path style="mix-blend-mode:overlay" opacity="0.21" d="M9.27085 24.0259L-2.79335 19.6594L10.9789 11.8366L18.4766 17.6262L9.27085 24.0259Z" fill="url(#paint12_linear_346_9928)"/>
<path style="mix-blend-mode:multiply" opacity="0.24" d="M10.8163 11.7691L20.0596 18.9766L19.6219 14.7876L10.6613 7.2025L10.8163 11.7691Z" fill="url(#paint13_linear_346_9928)"/>
<path style="mix-blend-mode:overlay" opacity="0.21" d="M19.7869 14.7651L9.79842 6.45224L28.0998 3.08106L32.5889 9.96346L19.7869 14.7651Z" fill="url(#paint14_linear_346_9928)"/>
<path style="mix-blend-mode:multiply" opacity="0.24" d="M28.0995 3.08107L30.6204 -0.0225067L35.4346 7.78521L32.5886 9.96348L28.0995 3.08107Z" fill="url(#paint15_linear_346_9928)"/>
<path style="mix-blend-mode:overlay" opacity="0.21" d="M34.7765 6.64231L29.9523 -1.07538L47.0508 0.855295L44.745 5.742L34.7765 6.64231Z" fill="url(#paint16_linear_346_9928)"/>
<path style="mix-blend-mode:overlay" opacity="0.67" d="M42.3774 15.3929C42.5349 15.4804 56.6523 21.6425 56.6523 21.6425C56.6523 21.6425 45.9486 29.8354 45.7811 29.7904C45.611 29.7454 35.4675 22.1827 35.4675 22.1827L42.3774 15.3929Z" fill="url(#paint17_linear_346_9928)"/>
<path style="mix-blend-mode:overlay" opacity="0.67" d="M39.7861 30.5357L30.5329 22.9405L29.9777 26.2767L37.5303 33.5517C37.5303 33.5517 39.6911 30.5557 39.7861 30.5382V30.5357Z" fill="url(#paint18_linear_346_9928)"/>
<path style="mix-blend-mode:overlay" opacity="0.67" d="M33.29 32.3213L25.5123 24.376L16.7393 33.8093L21.816 44.0629L33.29 32.3213Z" fill="url(#paint19_linear_346_9928)"/>
<path style="mix-blend-mode:overlay" opacity="0.67" d="M16.4365 42.1897L11.9975 32.6739L6.35051 38.0382L7.70098 47.4265L16.4365 42.1897Z" fill="url(#paint20_linear_346_9928)"/>
<path style="mix-blend-mode:overlay" opacity="0.67" d="M9.27085 24.0259L-2.79335 19.6594L10.9789 11.8366L18.4766 17.6262L9.27085 24.0259Z" fill="url(#paint21_linear_346_9928)"/>
<path style="mix-blend-mode:overlay" opacity="0.67" d="M19.7869 14.7651L9.79842 6.45224L28.0998 3.08106L32.5889 9.96346L19.7869 14.7651Z" fill="url(#paint22_linear_346_9928)"/>
<path style="mix-blend-mode:overlay" opacity="0.67" d="M34.7765 6.64231L29.9523 -1.07538L47.0508 0.855295L44.745 5.742L34.7765 6.64231Z" fill="url(#paint23_linear_346_9928)"/>
</g>
<path d="M17.9188 17.0084L19.4569 14.4725L23.1306 12.857L26.7844 11.3014L27.1821 11.1314L27.5797 10.9613L27.9773 10.7913L28.375 10.6212L28.7726 10.4511L29.1703 10.2811L29.5679 10.111L29.9655 9.94096L30.3632 9.7709L30.7608 9.60084L31.1584 9.43078L31.5561 9.26072L31.9537 9.09066L32.3239 8.93311L32.3489 8.9081L32.7415 8.52296L33.1341 8.13783L33.5268 7.7527L33.9194 7.36756L34.312 6.98243L34.7047 6.59729L34.8822 6.42223L35.0998 6.39722L35.5 6.34971L35.9001 6.30219L36.3002 6.25467L36.7004 6.20716L37.1005 6.15964L37.5007 6.11212L37.9008 6.06461L38.3009 6.01709L38.7011 5.96957L39.1012 5.92206L39.5014 5.87454L39.9015 5.82702L40.3016 5.77951L40.7018 5.73199L41.1019 5.68447L41.5021 5.63696L41.9022 5.58944L42.3023 5.54192L42.7025 5.49441L43.1026 5.44689L43.5028 5.39938L43.9029 5.35186L44.303 5.30434L44.7032 5.25683L45.1033 5.20931L45.1458 5.20431C45.2684 5.22431 45.3884 5.24932 45.506 5.27433C45.646 5.30684 45.781 5.34186 45.9111 5.38187C46.0511 5.42438 46.1862 5.4719 46.3162 5.52192C46.4588 5.57694 46.5938 5.63446 46.7214 5.69948C46.8664 5.77201 47.0015 5.84703 47.129 5.92956C47.2741 6.02209 47.4116 6.11713 47.5392 6.21966C47.6892 6.3397 47.8268 6.46475 47.9518 6.59479C48.1069 6.75735 48.2469 6.92491 48.3669 7.09747C48.537 7.34005 48.6771 7.58764 48.7871 7.83022C49.2222 8.77805 49.2448 9.63585 49.2373 9.75339C49.2122 10.126 49.0747 10.5137 48.8696 10.8963C48.7571 11.1039 48.627 11.3089 48.4845 11.509C48.3619 11.6791 48.2319 11.8466 48.0969 12.0092C47.9693 12.1617 47.8393 12.3068 47.7067 12.4468C47.5742 12.5869 47.4441 12.7219 47.3166 12.847C47.179 12.9795 47.049 13.1046 46.9239 13.2171C46.7789 13.3496 46.6463 13.4647 46.5313 13.5622C46.2937 13.7648 46.1387 13.8798 46.1387 13.8798L45.7435 14.1124L45.3484 14.345L44.9533 14.5776L44.5581 14.8102L44.163 15.0427L43.7678 15.2753L43.3727 15.5079L43.0651 15.6905L42.9801 15.8005L42.5924 16.2957L42.2048 16.7908L41.8172 17.286L41.4295 17.7812L41.0419 18.2764L40.6543 18.7715L40.2666 19.2667L39.879 19.7619L39.4914 20.2571L39.1037 20.7522L38.7161 21.2474L38.3284 21.7426L37.9408 22.2377L37.5532 22.7329L37.1655 23.2281L37.1155 23.2931L36.7679 23.3906L36.3703 23.5032L35.9726 23.6157L35.575 23.7283L35.1773 23.8408L34.7797 23.9533L34.3821 24.0659L33.9844 24.1784L33.5868 24.291L33.1892 24.4035L32.7915 24.516L32.7665 24.5235L32.3989 24.8111L32.0062 25.1188L31.6136 25.4264L31.221 25.734L30.8283 26.0416L30.4357 26.3492L30.2056 26.5292L30.0381 26.5092L29.6354 26.4592L29.2328 26.4092L28.8301 26.3592L28.4275 26.3092L28.0249 26.2591L27.6647 26.2141L27.6222 26.2466L27.2296 26.5417L17.2286 34.0044L13.5423 35.1047L6.53487 38.4009C6.53487 38.4009 4.30659 37.2055 4.41412 34.8271C4.52166 32.4488 7.41767 26.9994 8.45053 24.5385C9.48339 22.0777 17.9638 17.0034 17.9638 17.0034L17.9188 17.0084Z" fill="url(#paint24_linear_346_9928)"/>
<path d="M17.9305 17.0159L19.4686 14.4801L23.1398 12.862L26.7911 11.3064L27.1888 11.1364L27.5864 10.9663L27.984 10.7963L28.3817 10.6262L28.7793 10.4561L29.177 10.2861L29.5746 10.116L29.9722 9.94597L30.3699 9.77591L30.7675 9.60585L31.1651 9.43579L31.5628 9.26573L31.9604 9.09568L32.3305 8.93812L32.3556 8.91311L32.7457 8.52798L33.1358 8.14284L33.526 7.75771L33.9161 7.37257L34.3062 6.98744L34.6964 6.60231L34.8739 6.42724L35.0915 6.40224L35.4917 6.35472L35.8918 6.3072L36.2919 6.25969L36.6921 6.21217L37.0922 6.16465L37.4923 6.11714L37.8925 6.06962L38.2926 6.0221L38.6928 5.97459L39.0929 5.92707L39.493 5.87955L39.8932 5.83204L40.2933 5.78452L40.6935 5.737L41.0936 5.68949L41.4937 5.64197L41.8939 5.59445L42.294 5.54694L42.6942 5.49942L43.0943 5.4519L43.4944 5.40439L43.8946 5.35687L44.2947 5.30935L44.6949 5.26184L45.095 5.21432L45.1375 5.20932C45.2601 5.22933 45.3801 5.25434 45.4976 5.27934C45.6377 5.31186 45.7727 5.34687 45.9028 5.38688C46.0428 5.4294 46.1779 5.47691 46.3079 5.52693C46.4505 5.58195 46.5855 5.63947 46.7131 5.70449C46.8581 5.77702 46.9932 5.85204 47.1207 5.93457C47.2658 6.0271 47.4033 6.12214 47.5308 6.22467C47.6809 6.34472 47.8185 6.46976 47.941 6.5998C48.096 6.76236 48.2361 6.92992 48.3561 7.10248C48.5262 7.34506 48.6662 7.59265 48.7763 7.83524C49.2114 8.78307 49.2339 9.64087 49.2239 9.75841C49.1989 10.131 49.0614 10.5187 48.8563 10.9013C48.7438 11.1089 48.6137 11.3139 48.4712 11.514C48.3486 11.6841 48.2186 11.8516 48.0835 12.0142C47.956 12.1667 47.826 12.3118 47.6934 12.4518C47.5609 12.5919 47.4308 12.7269 47.3033 12.852C47.1657 12.9845 47.0357 13.1096 46.9106 13.2221C46.7656 13.3547 46.633 13.4697 46.518 13.5672C46.2804 13.7698 46.1254 13.8848 46.1254 13.8848L45.7302 14.1199L45.3351 14.3525L44.9399 14.5851L44.5448 14.8177L44.1497 15.0503L43.7545 15.2828L43.3594 15.5154L43.0518 15.698L42.9668 15.808L42.5791 16.3032L42.1915 16.7984L41.8039 17.2935L41.4162 17.7887L41.0286 18.2839L40.6409 18.7791L40.2533 19.2742L39.8657 19.7694L39.478 20.2646L39.0904 20.7597L38.7028 21.2549L38.3151 21.7501L37.9275 22.2453L37.5399 22.7404L37.1522 23.2356L37.1022 23.3006L36.7546 23.3982L36.357 23.5107L35.9593 23.6232L35.5617 23.7358L35.164 23.8483L34.7664 23.9609L34.3688 24.0734L33.9711 24.1859L33.5735 24.2985L33.1758 24.411L32.7782 24.5236L32.7532 24.5311L32.3856 24.8187L31.9929 25.1263L31.6003 25.4339L31.2077 25.7415L30.815 26.0491L30.4224 26.3567L30.1923 26.5368L30.0247 26.5167L29.6221 26.4667L29.2195 26.4167L28.8168 26.3667L28.4142 26.3167L28.0115 26.2667L27.6514 26.2216L27.6089 26.2542L27.2163 26.5493L17.2178 34.0144L13.5315 35.1147L6.52655 38.4134C6.52655 38.4134 4.30078 37.218 4.40832 34.8397C4.51585 32.4588 7.41186 27.0094 8.44472 24.5486C9.47758 22.0877 17.9555 17.0109 17.9555 17.0109L17.9305 17.0159Z" stroke="url(#paint25_linear_346_9928)" stroke-width="0.35" stroke-miterlimit="10"/>
<g opacity="0.59">
<path d="M53.883 46.6838C52.7626 44.4705 52.0748 41.9797 52.3499 39.5213C52.685 36.5253 54.3856 33.8793 55.5185 31.0809C57.7118 25.674 57.7593 19.4443 55.6486 14.0024" stroke="#72391E" stroke-width="0.68" stroke-miterlimit="10"/>
<path d="M51.3373 51.8456C52.1451 50.5627 51.5124 48.9146 51.1122 47.4541C50.327 44.5956 50.532 41.5595 51.0322 38.6385C51.5324 35.7175 52.3202 32.849 52.6928 29.9105C52.9579 27.8247 53.0129 25.7015 53.5381 23.6633" stroke="#72391E" stroke-width="0.68" stroke-miterlimit="10"/>
<path d="M49.2258 54.1964C48.6106 52.7309 48.7507 51.563 48.7607 49.9775C48.7982 43.8803 50.6613 37.9233 50.9539 31.8336C51.124 28.3199 50.7664 24.7787 49.8961 21.3675" stroke="#72391E" stroke-width="0.68" stroke-miterlimit="10"/>
<path d="M50.457 51.8481C46.3306 45.3208 45.7804 36.7128 49.044 29.7254" stroke="#72391E" stroke-width="0.68" stroke-miterlimit="10"/>
<path d="M50.0186 52.981C47.0475 50.6052 45.0018 47.1189 44.3866 43.3826C44.199 42.2422 44.139 41.0843 44.129 39.9289C44.0915 35.835 44.0465 36.0326 44.6067 31.9762" stroke="#72391E" stroke-width="0.68" stroke-miterlimit="10"/>
<path d="M61.5355 25.3039C61.9982 29.4978 60.5327 29.3853 60.1876 31.4135C59.8324 33.5067 59.845 35.7475 58.7471 37.5681C58.2294 38.4259 57.4941 39.1312 56.8864 39.929C55.7935 41.3645 55.1233 43.1101 54.9758 44.9007C55.0558 44.0604 55.1833 43.4752 55.601 42.7024C56.3162 41.377 57.9893 40.8393 58.532 39.2462C58.7196 38.696 58.7646 38.1108 58.8071 37.5306C59.1822 32.5464 59.5549 27.5621 59.93 22.5779" stroke="#72391E" stroke-width="0.68" stroke-miterlimit="10"/>
<path d="M58.5449 22.6279C58.2148 25.8615 57.8697 29.1602 56.5417 32.1312C55.7765 33.8468 54.6811 35.4649 54.4235 37.323C54.2759 38.3959 54.416 39.4963 54.2284 40.5642C54.0384 41.632 53.3856 42.7374 52.3178 42.9675" stroke="#72391E" stroke-width="0.68" stroke-miterlimit="10"/>
<path d="M42.1387 57.7502C41.9736 55.9195 40.9933 54.1764 39.5078 53.0735C38.0698 52.0082 36.2141 51.533 34.9337 50.2826C33.8758 49.2497 33.3356 47.7867 33.158 46.3287C32.9305 44.458 33.2906 42.5899 33.2231 40.7192" stroke="#72391E" stroke-width="0.68" stroke-miterlimit="10"/>
<path d="M38.6878 58.783C37.7525 56.4272 37.9951 53.7638 38.6553 51.3154C39.313 48.8696 40.3634 46.5413 41.0361 44.0979C41.9165 40.9018 42.1315 37.5281 41.6689 34.247" stroke="#72391E" stroke-width="0.68" stroke-miterlimit="10"/>
<path d="M41.3838 58.2003C37.9876 51.7606 38.2202 45.1082 36.2295 38.1158C36.0344 37.4306 35.5868 36.5928 34.879 36.7128" stroke="#72391E" stroke-width="0.68" stroke-miterlimit="10"/>
<path d="M40.1865 58.5004C38.716 57.275 38.0933 56.1146 36.4702 54.9717C34.2995 53.4437 31.566 52.6784 29.7579 50.7402C29.0802 50.015 28.565 49.1547 28.1123 48.2744C27.4421 46.9739 26.8994 45.3884 27.5821 44.0954" stroke="#72391E" stroke-width="0.68" stroke-miterlimit="10"/>
<path d="M38.4424 59.2757C36.5092 57.5826 34.1334 56.4697 32.0702 54.9342C27.3285 51.4005 24.5675 45.9085 21.9716 40.6192" stroke="#72391E" stroke-width="0.68" stroke-miterlimit="10"/>
<path d="M20.7012 43.2551C20.6537 45.1508 21.7015 46.8964 22.8344 48.4269C26.3607 53.1936 31.0923 57.0749 36.4717 59.6208C33.7757 58.3154 30.3045 58.3329 27.5261 57.2075C22.5443 55.1843 18.4954 51.0178 16.6398 46.0111" stroke="#72391E" stroke-width="0.68" stroke-miterlimit="10"/>
<path d="M30.8174 59.4258C27.8538 59.2232 24.4001 58.6555 21.7992 57.235C17.6153 54.9467 13.3038 52.4258 10.7679 48.4119C10.2902 47.6566 9.88509 46.6613 10.3728 45.911" stroke="#72391E" stroke-width="0.68" stroke-miterlimit="10"/>
<path d="M34.4141 59.6983C32.2908 59.7533 30.5402 59.6683 28.7571 59.4782C26.7339 59.2607 25.1658 58.8705 23.1952 58.3654C20.8543 57.7651 18.6736 56.7698 17.013 55.887C15.5025 55.0842 14.5396 54.3715 13.2542 53.5712C11.7162 52.6134 10.4857 51.4079 9.10274 50.2375C8.62757 49.8349 8.06488 49.1171 7.69975 48.617" stroke="#72391E" stroke-width="0.68" stroke-miterlimit="10"/>
<path d="M34.3584 59.7259C29.5342 56.6798 25.4028 52.7534 22.8269 47.6917C21.1938 44.4855 21.5189 45.3308 19.4782 42.3648" stroke="#72391E" stroke-width="0.68" stroke-miterlimit="10"/>
<path d="M37.1377 59.3983C33.789 56.4572 31.3457 52.7709 29.9677 48.4544C28.8148 44.8457 28.1646 41.0444 26.429 37.6707" stroke="#72391E" stroke-width="0.68" stroke-miterlimit="10"/>
<path d="M37.4346 57.4951C35.6339 54.9792 34.7161 51.8556 34.8662 48.777C34.9612 46.8339 35.4664 44.8707 35.0537 42.9675C34.7936 41.7671 34.1809 40.6742 33.5782 39.6013" stroke="#72391E" stroke-width="0.68" stroke-miterlimit="10"/>
<path d="M42.9844 57.25C41.4063 55.8395 40.7586 53.6937 40.3084 51.638C39.1956 46.5587 38.8654 41.3119 39.3306 36.1351" stroke="#72391E" stroke-width="0.68" stroke-miterlimit="10"/>
<path d="M45.665 56.2721C43.4893 52.5534 42.819 47.9943 43.8369 43.8153C44.3121 41.8571 45.1474 39.8814 44.7772 37.9032C44.5146 36.5028 43.6743 35.2848 42.8541 34.1144" stroke="#72391E" stroke-width="0.68" stroke-miterlimit="10"/>
<path d="M48.6559 54.6616C47.8731 50.3776 47.8806 47.1315 48.3158 42.8C48.6884 39.0787 49.5137 35.3574 49.1461 31.6361" stroke="#72391E" stroke-width="0.68" stroke-miterlimit="10"/>
<path d="M52.1143 51.9907C51.1715 48.9421 52.3119 46.1561 53.1897 43.0876C54.0675 40.0215 55.1203 36.8979 54.8352 33.7218C54.6577 31.7461 53.9674 29.8379 53.8449 27.8598" stroke="#72391E" stroke-width="0.68" stroke-miterlimit="10"/>
<path d="M54.6902 49.6898C55.5555 41.4695 55.1604 33.0791 57.101 25.0438C57.4136 23.7508 57.7938 22.4529 58.499 21.325" stroke="#72391E" stroke-width="0.68" stroke-miterlimit="10"/>
<path d="M56.8765 42.5899C58.197 38.8186 58.7797 34.7972 58.5796 30.8083C58.4871 28.9401 58.222 27.072 58.3445 25.2038C58.4645 23.3357 59.0172 21.4175 60.3252 20.0695" stroke="#72391E" stroke-width="0.68" stroke-miterlimit="10"/>
<path d="M58.7297 17.7762C59.8901 19.7294 59.9576 22.5529 60.1952 24.7537C60.4778 27.3996 60.5178 30.098 59.9176 32.7064C59.3249 35.2848 58.1345 37.6807 57.2341 40.169C56.3338 42.6574 55.5311 44.9782 56.1438 47.5516C55.9812 43.6302 55.4685 41.3344 56.1138 37.8757C56.7615 34.4195 57.7243 31.0158 58.142 27.5246C58.2545 26.5818 58.3245 25.619 58.112 24.6936C57.8969 23.7683 57.3567 22.878 56.5089 22.4403" stroke="#492112" stroke-width="0.68" stroke-miterlimit="10"/>
<path d="M54.406 49.1447C53.0956 47.374 53.0105 44.9807 53.3782 42.8174C53.7458 40.6517 54.5086 38.556 54.7161 36.3702C55.0412 32.9315 53.9709 29.5303 52.913 26.2392" stroke="#492112" stroke-width="0.68" stroke-miterlimit="10"/>
<path d="M52.2701 50.8703C51.0872 49.4948 50.4995 47.6841 50.397 45.8785C50.2945 44.0754 50.6521 42.2723 51.1848 40.5442C51.5524 39.3562 52.0051 38.1833 52.1826 36.9529C52.6928 33.3867 50.8246 29.8254 51.1698 26.2392" stroke="#492112" stroke-width="0.68" stroke-miterlimit="10"/>
<path d="M49.5688 51.9206C48.4859 45.6935 49.8614 39.3263 51.3994 33.1966C51.6895 32.0387 51.8646 30.5482 50.8567 29.898" stroke="#492112" stroke-width="0.68" stroke-miterlimit="10"/>
<path d="M48.1588 52.1982C46.9759 49.4923 46.6207 46.4362 47.1534 43.5352C47.6961 40.5842 49.1291 37.7982 49.2617 34.8022C49.3067 33.7918 49.0541 32.5714 48.1013 32.2138" stroke="#492112" stroke-width="0.68" stroke-miterlimit="10"/>
<path d="M47.5333 55.5394C45.5626 48.5094 45.7502 40.9018 48.0635 33.9769" stroke="#492112" stroke-width="0.68" stroke-miterlimit="10"/>
<path d="M40.1611 36.3052C41.0664 37.4956 41.2665 39.0562 41.429 40.5392C41.8092 44.0029 42.1618 47.4691 42.4869 50.9403C42.707 53.2986 42.9146 55.687 42.5644 58.0303" stroke="#492112" stroke-width="0.68" stroke-miterlimit="10"/>
<path d="M27.8331 38.1158C27.2729 39.0561 27.3229 40.2591 27.703 41.2844C28.0807 42.3098 28.7534 43.2001 29.4161 44.0729C33.38 49.2922 37.5965 54.7066 43.5811 57.4425C39.4771 52.6634 36.4761 45.8235 35.1731 39.6839" stroke="#492112" stroke-width="0.68" stroke-miterlimit="10"/>
<path d="M57.2544 46.0761C59.8603 40.0765 61.2683 33.5692 61.3709 27.037C61.4009 25.1738 61.2908 23.2006 60.253 21.6476" stroke="#492112" stroke-width="0.68" stroke-miterlimit="10"/>
<path d="M56.1234 43.7553C57.4489 37.6382 58.7794 31.3335 57.6615 25.1763C57.3989 23.7283 56.8987 22.1628 55.6283 21.405" stroke="#492112" stroke-width="0.68" stroke-miterlimit="10"/>
<path d="M53.8954 46.9364C54.1905 38.566 54.2255 30.1856 54.0055 21.8126" stroke="#492112" stroke-width="0.68" stroke-miterlimit="10"/>
<path d="M47.1805 52.961C47.2356 45.3684 47.2731 37.6632 45.2549 30.3406" stroke="#492112" stroke-width="0.68" stroke-miterlimit="10"/>
<path d="M44.8467 54.9367C44.4766 50.3976 44.1064 45.856 43.4412 41.3494C43.0536 38.726 42.5384 36.0376 41.0854 33.8093" stroke="#492112" stroke-width="0.68" stroke-miterlimit="10"/>
<path d="M43.2061 57.3425C42.1132 53.8738 41.4279 50.2926 40.3976 46.8038C39.3672 43.3176 37.9567 39.8689 35.6134 37.073" stroke="#492112" stroke-width="0.68" stroke-miterlimit="10"/>
<path d="M41.6006 58.0653C38.8721 50.1475 35.3434 43.3076 30.6418 36.3602" stroke="#492112" stroke-width="0.68" stroke-miterlimit="10"/>
<path d="M40.3955 57.215C33.1505 53.9188 26.168 49.2422 22.3117 42.3248" stroke="#492112" stroke-width="0.68" stroke-miterlimit="10"/>
<path d="M42.1161 57.3275C42.9389 57.5851 43.7942 57.115 44.5195 56.6498C50.0814 53.086 55.3582 48.572 57.9366 42.5224C59.9123 37.8857 60.1474 32.6789 59.5597 27.6797" stroke="#492112" stroke-width="0.68" stroke-miterlimit="10"/>
<path d="M55.5861 45.9185C57.0991 42.6149 58.6146 39.2987 59.6925 35.83C60.7679 32.3613 61.3981 28.715 61.093 25.0988C60.9229 23.0981 60.3702 20.9573 58.7797 19.7119" stroke="#492112" stroke-width="0.68" stroke-miterlimit="10"/>
<path d="M51.6795 49.8524C52.9849 44.5606 53.9828 39.1962 54.668 33.7893C54.8556 32.3163 55.0182 30.8183 54.7781 29.3528C54.5405 27.8873 53.8502 26.4343 52.6323 25.569" stroke="#492112" stroke-width="0.68" stroke-miterlimit="10"/>
<path d="M44.6042 53.5037C45.2544 49.3547 45.9046 45.2083 46.5549 41.0593C46.915 38.756 47.2776 36.4302 47.1276 34.1044C46.9775 31.7786 48.1604 31.2784 46.6149 29.5203" stroke="#492112" stroke-width="0.68" stroke-miterlimit="10"/>
<path d="M40.4064 54.9767C41.0417 47.6791 41.3768 40.3566 41.4043 33.0315" stroke="#492112" stroke-width="0.68" stroke-miterlimit="10"/>
<path d="M37.0898 56.7498C35.3267 48.8045 34.4714 43.015 34.8166 34.8872" stroke="#492112" stroke-width="0.68" stroke-miterlimit="10"/>
<path d="M30.5693 57.8127C27.9584 52.2958 26.0027 46.4737 24.7598 40.5067" stroke="#492112" stroke-width="0.68" stroke-miterlimit="10"/>
<path d="M30.5 58.9806C26.3911 56.4347 22.2246 53.8438 18.9835 50.2751C18.1882 49.3998 17.4254 48.4094 17.2479 47.2415" stroke="#492112" stroke-width="0.68" stroke-miterlimit="10"/>
<path d="M33.7764 57.1474C27.6517 59.2282 21.117 58.2303 15.46 55.0967C13.6894 54.1164 11.331 52.6409 10.3682 51.1479" stroke="#492112" stroke-width="0.68" stroke-miterlimit="10"/>
<path d="M46.8683 55.1093C46.7958 55.0467 46.7783 55.2568 46.8758 55.2393C46.9734 55.2218 46.9984 55.1018 47.0034 55.0042C47.3735 47.8992 46.6407 40.7417 44.8376 33.8543" stroke="#492112" stroke-width="0.68" stroke-miterlimit="10"/>
<path style="mix-blend-mode:multiply" opacity="0.32" d="M49.9838 53.5512C49.9863 46.7388 50.2214 39.9265 50.6865 33.1291L49.9838 53.5512Z" fill="url(#paint26_linear_346_9928)"/>
<path d="M55.9541 47.7717C57.6422 41.2894 58.9527 36.0076 59.1327 29.4203C59.2203 26.2141 59.1252 22.9505 58.1499 19.8919" stroke="#916436" stroke-width="0.68" stroke-miterlimit="10"/>
<path d="M54.5029 49.7624C55.9184 41.7621 57.3339 33.5167 55.5758 25.5815" stroke="#916436" stroke-width="0.68" stroke-miterlimit="10"/>
<path d="M52.2125 51.2254C53.5805 44.7506 54.9484 38.0308 53.4529 31.586" stroke="#916436" stroke-width="0.68" stroke-miterlimit="10"/>
<path d="M50.6748 52.0357C50.4172 44.6481 50.1621 37.258 49.9045 29.8704" stroke="#916436" stroke-width="0.68" stroke-miterlimit="10"/>
<path d="M46.0045 34.362C45.3217 40.4967 46.5947 46.8339 49.5957 52.2458C46.4821 49.2547 43.1059 47.134 41.0177 43.3652C39.8823 41.3194 39.0845 38.8511 39.9248 36.6728" stroke="#916436" stroke-width="0.68" stroke-miterlimit="10"/>
<path d="M49.041 52.7709C46.5101 52.2483 43.9142 51.7006 41.7335 50.3251C40.9307 49.8199 40.2004 49.2097 39.5002 48.5745C35.5538 45.0057 32.3452 40.3141 31.805 35.0473" stroke="#916436" stroke-width="0.68" stroke-miterlimit="10"/>
<path d="M50.126 53.6262C46.1296 52.7209 42.7234 52.1707 38.9571 50.5627C35.1908 48.9571 31.6495 46.6563 29.1262 43.4527" stroke="#916436" stroke-width="0.68" stroke-miterlimit="10"/>
<path d="M47.5186 54.1014C42.6719 55.1067 37.5351 56.0971 32.8609 54.4765C30.3926 53.6212 28.1843 52.0482 26.5763 50.0049" stroke="#916436" stroke-width="0.68" stroke-miterlimit="10"/>
<path d="M47.0527 55.7895C40.8681 55.902 34.5759 56.0046 28.6213 54.3365C26.8132 53.8313 24.9975 53.1311 23.6421 51.8431" stroke="#916436" stroke-width="0.68" stroke-miterlimit="10"/>
<path d="M45.5752 54.0514C42.9768 55.1343 40.3034 56.0421 37.5799 56.7648C35.9168 57.2075 34.2112 57.5826 32.4881 57.5301C31.0526 57.4876 29.6446 57.1475 28.2567 56.7873C26.0734 56.2221 23.8276 55.5594 22.1195 54.0914" stroke="#916436" stroke-width="0.68" stroke-miterlimit="10"/>
<path d="M48.6631 54.1464C44.3166 54.0964 39.9876 54.7791 35.6435 54.7116C31.2995 54.6441 26.758 53.7263 23.4468 50.9328" stroke="#916436" stroke-width="0.68" stroke-miterlimit="10"/>
<path d="M47.8262 52.6109C43.8048 53.8238 39.4883 53.9713 35.3418 53.2736C32.0732 52.7234 28.7045 51.5255 26.6663 48.9346" stroke="#916436" stroke-width="0.68" stroke-miterlimit="10"/>
<path d="M49.4092 52.5558C43.8097 49.1722 38.8055 44.8232 34.684 39.7664" stroke="#916436" stroke-width="0.68" stroke-miterlimit="10"/>
<path d="M51.5977 52.4283C48.6641 48.6045 46.0932 44.9082 43.6249 40.7717C42.7496 39.3062 41.8743 37.6306 42.2794 35.9776" stroke="#916436" stroke-width="0.68" stroke-miterlimit="10"/>
<path d="M52.6055 51.448C49.1118 44.7156 46.7059 38.1183 44.8678 30.7708" stroke="#916436" stroke-width="0.68" stroke-miterlimit="10"/>
<path d="M53.1924 50.6502C51.8144 44.2705 51.2692 37.7132 51.5793 31.1984" stroke="#916436" stroke-width="0.68" stroke-miterlimit="10"/>
<path d="M54.2952 48.647C55.0229 41.3895 55.7407 33.9744 54.0501 26.8769" stroke="#916436" stroke-width="0.68" stroke-miterlimit="10"/>
<path d="M55.8709 47.5016C57.2364 42.7324 58.4268 37.9133 59.4371 33.0591C59.8673 30.9983 60.1774 28.595 58.7644 27.0245" stroke="#916436" stroke-width="0.68" stroke-miterlimit="10"/>
<path d="M57.7148 43.4677C59.4805 38.2659 61.0485 32.7164 59.8881 27.3496C59.473 25.4289 58.6427 23.4907 57.0546 22.3153" stroke="#916436" stroke-width="0.68" stroke-miterlimit="10"/>
<path d="M51.7568 47.304C50.9065 40.5817 50.3363 33.8268 50.0437 27.0595" stroke="#916436" stroke-width="0.68" stroke-miterlimit="10"/>
<path d="M47.8711 50.3726C47.2809 47.2965 46.6857 44.2029 45.6003 41.2644C44.5124 38.3234 42.9019 35.5149 40.5485 33.4267" stroke="#916436" stroke-width="0.68" stroke-miterlimit="10"/>
<path d="M48.5107 53.6162C42.9338 52.5358 38.3997 48.6445 34.1532 44.8957" stroke="#916436" stroke-width="0.68" stroke-miterlimit="10"/>
<path d="M54.918 48.3269C52.5246 51.2129 49.1009 53.0936 45.5722 54.4065C42.0435 55.7195 38.0696 56.5197 34.5384 55.2068" stroke="#916436" stroke-width="0.68" stroke-miterlimit="10"/>
<path d="M51.5176 52.0282C48.0889 54.8516 43.8074 56.6448 39.3733 57.1124C34.9393 57.5801 30.3727 56.7198 26.4188 54.6741" stroke="#916436" stroke-width="0.68" stroke-miterlimit="10"/>
<path d="M47.6758 55.3143C44.2721 57.6551 40.9584 58.5054 37.3397 59.2882C33.7209 60.071 29.8546 60.141 26.3884 58.8405" stroke="#916436" stroke-width="0.68" stroke-miterlimit="10"/>
<path d="M41.4658 58.0928C37.8971 59.1832 34.1133 60.3236 30.5195 59.7509C26.9258 59.1782 23.4445 57.7502 20.6361 55.4544" stroke="#916436" stroke-width="0.68" stroke-miterlimit="10"/>
<path d="M46.2685 55.8645C47.689 55.5294 48.7669 54.4115 49.7398 53.3336C51.5954 51.2729 53.386 49.1547 55.1091 46.9839C55.8519 46.0486 56.9373 45.0182 57.3399 43.8854C57.6775 42.9375 57.8501 41.8371 58.1252 40.8543C59.1555 37.173 59.9958 33.4392 60.6436 29.6729" stroke="#916436" stroke-width="0.68" stroke-miterlimit="10"/>
<path d="M54.3555 49.5798C50.8242 54.1114 46.0151 56.6798 41.1934 58.2304" stroke="#916436" stroke-width="0.68" stroke-miterlimit="10"/>
<path d="M52.332 51.6655C48.4232 53.9939 44.7769 56.5022 40.5879 58.2878C39.1975 58.8806 37.7269 59.4533 36.2189 59.3232" stroke="#916436" stroke-width="0.68" stroke-miterlimit="10"/>
<path d="M26.5083 46.9914C29.0092 49.8124 32.6354 51.4655 36.3392 52.2508C38.705 52.7534 41.1259 52.931 43.5392 52.996C44.6146 53.0235 45.9376 53.2286 46.9904 53.011C47.7357 52.8585 48.4309 52.3658 49.1387 52.0807C44.1194 48.8896 39.7229 44.8382 35.659 40.5117" stroke="#916436" stroke-width="0.68" stroke-miterlimit="10"/>
<path d="M50.2773 50.035C46.9337 45.2358 43.8951 40.2266 41.1867 35.0473" stroke="#916436" stroke-width="0.68" stroke-miterlimit="10"/>
<path d="M49.7832 47.5841C49.288 44.5506 48.7628 41.5195 48.2127 38.496C48.0726 37.7307 47.9276 36.9504 47.5499 36.2702" stroke="#916436" stroke-width="0.68" stroke-miterlimit="10"/>
<path d="M50.3218 50.6727C50.8595 44.5706 51.3646 38.2209 49.1664 32.4964" stroke="#916436" stroke-width="0.68" stroke-miterlimit="10"/>
<path d="M52.5079 47.4866C53.6283 43.0275 54.4836 38.506 55.0713 33.9469" stroke="#916436" stroke-width="0.68" stroke-miterlimit="10"/>
<path d="M54.3355 47.6316C54.8407 43 55.3484 38.3684 55.8535 33.7393C56.0611 31.8386 56.2562 29.8404 55.5134 28.0748" stroke="#916436" stroke-width="0.68" stroke-miterlimit="10"/>
<path d="M54.4202 49.2422C56.6535 41.7271 58.9093 33.9044 57.6664 26.1642" stroke="#916436" stroke-width="0.68" stroke-miterlimit="10"/>
<path d="M53.0747 50.7502C54.3951 43.3477 55.1429 35.845 55.308 28.3299C55.3855 24.8462 55.328 21.305 54.3326 17.9638" stroke="#916436" stroke-width="0.68" stroke-miterlimit="10"/>
<path d="M50.6416 50.9278C47.7956 42.7825 47.3079 33.8444 49.2461 25.4464" stroke="#916436" stroke-width="0.68" stroke-miterlimit="10"/>
<path d="M50.8643 51.9556C44.8522 48.4219 39.6078 43.6102 35.5889 37.9408" stroke="#916436" stroke-width="0.68" stroke-miterlimit="10"/>
<path d="M50.8369 53.0035C46.898 52.3558 42.9042 51.6905 39.2754 50.0425C37.5173 49.2447 35.8692 48.2243 34.2636 47.154C30.2597 44.483 27.4763 42.7049 24.5628 38.8911" stroke="#916436" stroke-width="0.68" stroke-miterlimit="10"/>
<path d="M49.2539 54.2789C39.2854 53.3711 29.387 52.1732 21.0991 46.6038" stroke="#916436" stroke-width="0.68" stroke-miterlimit="10"/>
<path d="M45.1396 56.4397C36.3441 58.1353 26.8833 56.1296 19.5557 51.0153" stroke="#916436" stroke-width="0.68" stroke-miterlimit="10"/>
<path d="M41.4932 58.2003C38.0069 59.0181 34.4157 60.046 30.982 59.9984C30.0242 59.9859 29.0613 59.9609 28.116 59.8034C26.8306 59.5883 25.6001 59.1331 24.3972 58.638C20.6034 57.0724 16.8596 54.9717 14.4887 51.643" stroke="#916436" stroke-width="0.68" stroke-miterlimit="10"/>
<path d="M55.0579 48.9446C60.1947 41.9972 62.3505 32.954 60.9 24.4561" stroke="#916436" stroke-width="0.68" stroke-miterlimit="10"/>
<path d="M59.4397 21.8026C59.7773 31.3035 57.369 41.2569 53.8828 50.1125C55.8359 48.3869 57.2964 45.9686 58.4318 43.6303C60.0824 40.2291 61.1403 36.8929 61.5904 33.1466C62.0406 29.4003 61.713 24.8662 60.1199 21.4375" stroke="#916436" stroke-width="0.68" stroke-miterlimit="10"/>
<path d="M56.2192 23.3282C56.4268 32.749 55.0963 42.2023 52.2978 51.2079C51.9202 52.4183 50.2371 53.4362 48.9292 54.444" stroke="#916436" stroke-width="0.68" stroke-miterlimit="10"/>
<path d="M51.2699 28.3824C51.5475 32.6914 51.8251 37.0154 51.5025 41.3194C51.1774 45.6234 50.2295 49.9374 48.1813 53.7463C47.9487 54.1764 47.6911 54.6141 47.291 54.8967" stroke="#916436" stroke-width="0.68" stroke-miterlimit="10"/>
<path d="M49.5469 35.2273C49.1017 40.6642 48.2364 46.0586 47.2086 51.4155C46.966 52.6859 46.7084 53.9663 46.1682 55.1418C45.628 56.3172 44.11 57.0874 42.9396 57.6551" stroke="#916436" stroke-width="0.68" stroke-miterlimit="10"/>
<path d="M50.3389 52.7009C46.555 46.9714 42.6362 41.3294 38.5873 35.7825" stroke="#916436" stroke-width="0.68" stroke-miterlimit="10"/>
<path d="M48.041 51.8456C41.4762 49.5873 35.6267 45.3233 31.4952 39.7839" stroke="#916436" stroke-width="0.68" stroke-miterlimit="10"/>
<path d="M45.7656 53.1511C44.9228 52.8735 44.1726 52.4308 43.3148 52.2507C42.1669 52.0082 40.9615 51.9331 39.801 51.7506C37.4702 51.3854 35.1469 50.9403 32.8786 50.2876C29.1748 49.2197 25.5836 47.5616 22.7176 45.0007" stroke="#916436" stroke-width="0.68" stroke-miterlimit="10"/>
<path d="M44.8096 56.4672C42.7764 51.0578 45.0121 44.9407 43.8567 39.2837C43.4266 37.1705 42.5213 35.1373 42.4638 32.9815" stroke="#492112" stroke-width="0.68" stroke-miterlimit="10"/>
<path d="M34.1607 35.1148C33.1729 36.2827 33.1179 37.9583 33.2654 39.4763C33.6005 42.9375 34.781 46.3012 36.6141 49.2622C37.5594 50.7903 38.6798 52.2108 39.9503 53.4837C40.5655 54.1014 41.2182 54.6841 41.9009 55.2268C42.3811 55.6094 43.3089 56.0346 43.5615 56.5598C42.4636 57.0724 40.3304 57.1 39.1275 57.165C36.9267 57.285 34.7034 56.8974 32.6502 56.1121C29.5141 54.9142 26.7707 52.8335 24.5124 50.3626C23.3445 49.0847 22.2641 47.6292 21.939 45.9336" stroke="#492112" stroke-width="0.68" stroke-miterlimit="10"/>
<path d="M14.0719 51.2154C14.7246 52.6234 16.0276 53.6262 17.3655 54.429C20.9168 56.5598 25.0207 57.6751 29.1496 58.1153C33.2761 58.5579 37.4475 58.3529 41.584 58.0003C38.1828 56.6873 34.2539 53.8588 31.668 51.3029C29.0821 48.7495 26.8864 45.8335 24.7831 42.8775C24.1529 41.9897 23.5027 41.0168 23.5277 39.9315" stroke="#492112" stroke-width="0.68" stroke-miterlimit="10"/>
<path d="M50.199 50.7477C51.0443 43.3476 51.2794 35.7625 49.4388 28.5425C49.0511 27.027 48.6835 25.9016 47.7307 24.4035" stroke="#492112" stroke-width="0.68" stroke-miterlimit="10"/>
<path d="M37.7773 59.1632C32.3905 58.2453 26.866 57.28 22.1594 54.5215C20.2637 53.4112 18.5331 52.0232 17.0426 50.4176C15.4346 48.6845 14.0491 46.5213 14.1341 44.1679" stroke="#492112" stroke-width="0.68" stroke-miterlimit="10"/>
<path d="M53.6929 46.2912C54.6757 41.9146 55.661 37.5356 56.6439 33.1591C57.0465 31.366 57.4517 29.5478 57.3866 27.7097C57.3216 25.8715 56.7339 23.9834 55.406 22.7004" stroke="#492112" stroke-width="0.68" stroke-miterlimit="10"/>
<path d="M49.0882 50.7527C49.826 47.209 50.5637 43.6677 51.3015 40.124C51.8067 37.6932 52.3168 35.2398 52.2868 32.7564C52.2568 30.2731 51.6441 27.7272 50.1111 25.7615" stroke="#492112" stroke-width="0.68" stroke-miterlimit="10"/>
<path d="M32.8662 56.0071C30.2803 49.1847 29.0124 43.3226 28.8948 36.0376" stroke="#492112" stroke-width="0.68" stroke-miterlimit="10"/>
<path d="M32.9209 54.509C25.1732 53.7138 17.1579 52.5133 10.6756 48.2319" stroke="#492112" stroke-width="0.68" stroke-miterlimit="10"/>
</g>
<path style="mix-blend-mode:multiply" opacity="0.71" d="M54.0814 7.165C54.8191 8.09033 55.5169 9.06066 56.1746 10.076C66.2031 25.5964 62.6393 45.7985 48.2118 55.1992C33.7868 64.6 13.9624 59.6383 3.93137 44.1154C2.92102 42.5523 2.05071 40.9443 1.31546 39.3012L15.2003 42.1522C16.1381 42.3448 17.111 42.2447 17.9888 41.8671L31.0183 36.2001C35.0722 35.5374 42.7749 34.1369 45.1057 30.7532L49.8999 23.4907C52.4908 21.5625 51.6705 17.8387 52.3808 14.6876L54.0814 7.155V7.165Z" fill="url(#paint27_linear_346_9928)"/>
<defs>
<linearGradient id="paint0_linear_346_9928" x1="38.8858" y1="59.1968" x2="26.9023" y2="14.4422" gradientUnits="userSpaceOnUse">
<stop offset="0.14" stop-color="#683C11"/>
<stop offset="1" stop-color="#936037"/>
</linearGradient>
<linearGradient id="paint1_linear_346_9928" x1="38.8858" y1="59.1968" x2="26.9023" y2="14.4422" gradientUnits="userSpaceOnUse">
<stop offset="0.14" stop-color="#683C11"/>
<stop offset="0.99" stop-color="#936037" stop-opacity="0"/>
</linearGradient>
<linearGradient id="paint2_linear_346_9928" x1="47.9895" y1="6.87598" x2="3.06176" y2="34.2462" gradientUnits="userSpaceOnUse">
<stop stop-color="#B2B2B2"/>
<stop offset="0.51" stop-color="#F6F6F6"/>
</linearGradient>
<linearGradient id="paint3_linear_346_9928" x1="48.028" y1="6.85256" x2="3.02331" y2="34.2697" gradientUnits="userSpaceOnUse">
<stop offset="0.49" stop-color="white"/>
<stop offset="1" stop-color="white"/>
</linearGradient>
<linearGradient id="paint4_linear_346_9928" x1="55.5698" y1="25.6736" x2="35.9411" y2="20.4104" gradientUnits="userSpaceOnUse">
<stop offset="0.49" stop-color="#F6F6F6"/>
<stop offset="1" stop-color="#B2B2B2"/>
</linearGradient>
<linearGradient id="paint5_linear_346_9928" x1="46.0577" y1="28.7544" x2="31.3253" y2="24.8041" gradientUnits="userSpaceOnUse">
<stop offset="0.05" stop-color="#F6F6F6"/>
<stop offset="0.7" stop-color="#9D9D9C"/>
</linearGradient>
<linearGradient id="paint6_linear_346_9928" x1="39.9736" y1="29.8394" x2="29.4418" y2="27.0155" gradientUnits="userSpaceOnUse">
<stop offset="0.49" stop-color="#F6F6F6"/>
<stop offset="1" stop-color="#B2B2B2"/>
</linearGradient>
<linearGradient id="paint7_linear_346_9928" x1="33.5731" y1="34.6092" x2="30.6696" y2="23.769" gradientUnits="userSpaceOnUse">
<stop offset="0.05" stop-color="#F6F6F6"/>
<stop offset="0.7" stop-color="#9D9D9C"/>
</linearGradient>
<linearGradient id="paint8_linear_346_9928" x1="27.5487" y1="42.5296" x2="22.8775" y2="25.0815" gradientUnits="userSpaceOnUse">
<stop offset="0.49" stop-color="#F6F6F6"/>
<stop offset="1" stop-color="#B2B2B2"/>
</linearGradient>
<linearGradient id="paint9_linear_346_9928" x1="18.7616" y1="44.8808" x2="15.2192" y2="31.6529" gradientUnits="userSpaceOnUse">
<stop offset="0.05" stop-color="#F6F6F6"/>
<stop offset="0.7" stop-color="#9D9D9C"/>
</linearGradient>
<linearGradient id="paint10_linear_346_9928" x1="12.4325" y1="46.1612" x2="9.03386" y2="33.469" gradientUnits="userSpaceOnUse">
<stop offset="0.49" stop-color="#F6F6F6"/>
<stop offset="1" stop-color="#B2B2B2"/>
</linearGradient>
<linearGradient id="paint11_linear_346_9928" x1="6.56743" y1="44.0839" x2="-0.0871631" y2="19.2297" gradientUnits="userSpaceOnUse">
<stop offset="0.05" stop-color="#F6F6F6"/>
<stop offset="0.7" stop-color="#9D9D9C"/>
</linearGradient>
<linearGradient id="paint12_linear_346_9928" x1="9.28231" y1="24.023" x2="6.35024" y2="13.0768" gradientUnits="userSpaceOnUse">
<stop offset="0.49" stop-color="#F6F6F6"/>
<stop offset="1" stop-color="#B2B2B2"/>
</linearGradient>
<linearGradient id="paint13_linear_346_9928" x1="16.966" y1="19.807" x2="13.3951" y2="6.47311" gradientUnits="userSpaceOnUse">
<stop offset="0.05" stop-color="#F6F6F6"/>
<stop offset="0.7" stop-color="#9D9D9C"/>
</linearGradient>
<linearGradient id="paint14_linear_346_9928" x1="22.7371" y1="13.9753" x2="19.9916" y2="3.72372" gradientUnits="userSpaceOnUse">
<stop offset="0.49" stop-color="#F6F6F6"/>
<stop offset="1" stop-color="#B2B2B2"/>
</linearGradient>
<linearGradient id="paint15_linear_346_9928" x1="35.8816" y1="6.11766" x2="27.862" y2="3.96731" gradientUnits="userSpaceOnUse">
<stop offset="0.05" stop-color="#F6F6F6"/>
<stop offset="0.7" stop-color="#9D9D9C"/>
</linearGradient>
<linearGradient id="paint16_linear_346_9928" x1="45.9155" y1="5.09009" x2="29.4826" y2="0.683826" gradientUnits="userSpaceOnUse">
<stop offset="0.49" stop-color="#F6F6F6"/>
<stop offset="1" stop-color="#B2B2B2"/>
</linearGradient>
<linearGradient id="paint17_linear_346_9928" x1="56.6523" y1="22.5904" x2="35.4675" y2="22.5904" gradientUnits="userSpaceOnUse">
<stop offset="0.24" stop-color="#F6F6F6"/>
<stop offset="0.6" stop-color="white" stop-opacity="0"/>
</linearGradient>
<linearGradient id="paint18_linear_346_9928" x1="39.7861" y1="28.2449" x2="29.9802" y2="28.2449" gradientUnits="userSpaceOnUse">
<stop offset="0.49" stop-color="#F6F6F6"/>
<stop offset="1" stop-color="white" stop-opacity="0"/>
</linearGradient>
<linearGradient id="paint19_linear_346_9928" x1="30.0614" y1="37.9132" x2="18.2923" y2="31.1183" gradientUnits="userSpaceOnUse">
<stop offset="0.05" stop-color="#F6F6F6"/>
<stop offset="0.57" stop-color="white" stop-opacity="0"/>
</linearGradient>
<linearGradient id="paint20_linear_346_9928" x1="16.4365" y1="40.0514" x2="6.35051" y2="40.0514" gradientUnits="userSpaceOnUse">
<stop offset="0.49" stop-color="#F6F6F6"/>
<stop offset="1" stop-color="white" stop-opacity="0"/>
</linearGradient>
<linearGradient id="paint21_linear_346_9928" x1="18.4766" y1="17.9313" x2="-2.79335" y2="17.9313" gradientUnits="userSpaceOnUse">
<stop offset="0.49" stop-color="#F6F6F6"/>
<stop offset="1" stop-color="white" stop-opacity="0"/>
</linearGradient>
<linearGradient id="paint22_linear_346_9928" x1="24.8037" y1="14.4575" x2="17.5861" y2="1.95567" gradientUnits="userSpaceOnUse">
<stop stop-color="white" stop-opacity="0"/>
<stop offset="0.39" stop-color="#F6F6F6"/>
</linearGradient>
<linearGradient id="paint23_linear_346_9928" x1="47.0508" y1="2.78347" x2="29.9523" y2="2.78347" gradientUnits="userSpaceOnUse">
<stop offset="0.28" stop-color="white" stop-opacity="0"/>
<stop offset="0.51" stop-color="#F6F6F6"/>
</linearGradient>
<linearGradient id="paint24_linear_346_9928" x1="48.169" y1="6.77227" x2="3.23911" y2="34.1438" gradientUnits="userSpaceOnUse">
<stop stop-color="#9D9D9C"/>
<stop offset="0.7" stop-color="#F6F6F6"/>
</linearGradient>
<linearGradient id="paint25_linear_346_9928" x1="44.725" y1="26.8724" x2="8.93148" y2="17.2749" gradientUnits="userSpaceOnUse">
<stop offset="0.49" stop-color="white"/>
<stop offset="1" stop-color="white"/>
</linearGradient>
<linearGradient id="paint26_linear_346_9928" x1="50.3728" y1="43.7968" x2="50.1378" y2="43.79" gradientUnits="userSpaceOnUse">
<stop offset="0.14" stop-color="#683C11"/>
<stop offset="0.99" stop-color="#936037" stop-opacity="0"/>
</linearGradient>
<linearGradient id="paint27_linear_346_9928" x1="38.8858" y1="59.1968" x2="26.9023" y2="14.4422" gradientUnits="userSpaceOnUse">
<stop offset="0.06" stop-color="#6B3E13" stop-opacity="0.83"/>
<stop offset="0.5" stop-color="#936037" stop-opacity="0"/>
</linearGradient>
</defs>
</svg>
