<svg width="28" height="30" viewBox="0 0 28 30" fill="none" xmlns="http://www.w3.org/2000/svg">
<path fill-rule="evenodd" clip-rule="evenodd" d="M24.1555 9.42953L23.4362 8.13406C22.8277 7.0379 21.4791 6.65975 20.4215 7.28872V7.28872C19.918 7.59652 19.3173 7.68384 18.7518 7.53144C18.1862 7.37904 17.7023 6.99942 17.4068 6.4763C17.2166 6.1438 17.1145 5.76509 17.1106 5.37845V5.37845C17.1278 4.75858 16.9024 4.15789 16.486 3.71323C16.0695 3.26857 15.4973 3.01781 14.8998 3.01807H13.4507C12.8653 3.01806 12.304 3.26015 11.8911 3.69078C11.4782 4.1214 11.2476 4.70505 11.2505 5.31258V5.31258C11.2331 6.56692 10.2484 7.57429 9.03968 7.57416C8.66715 7.57014 8.30225 7.4641 7.98189 7.26676V7.26676C6.92428 6.6378 5.57572 7.01595 4.96719 8.11211L4.195 9.42953C3.58721 10.5243 3.94661 11.9231 4.99892 12.5584V12.5584C5.68295 12.9683 6.10433 13.7258 6.10433 14.5455C6.10433 15.3653 5.68295 16.1228 4.99892 16.5326V16.5326C3.94794 17.1637 3.58816 18.5591 4.195 19.6505V19.6505L4.92488 20.957C5.21 21.4909 5.68838 21.885 6.25417 22.0519C6.81995 22.2188 7.4265 22.1448 7.93958 21.8463V21.8463C8.44396 21.5408 9.04502 21.4571 9.60914 21.6138C10.1733 21.7705 10.6537 22.1545 10.9437 22.6806C11.1338 23.0131 11.236 23.3918 11.2399 23.7785V23.7785C11.2399 25.0457 12.2297 26.073 13.4507 26.073H14.8998C16.1167 26.073 17.1048 25.0524 17.1106 23.7895V23.7895C17.1078 23.18 17.3398 22.5947 17.755 22.1637C18.1702 21.7328 18.7342 21.492 19.3214 21.4949C19.693 21.5053 20.0564 21.6109 20.3792 21.8023V21.8023C21.434 22.4331 22.7817 22.0601 23.3939 20.968V20.968L24.1555 19.6505C24.4503 19.1254 24.5312 18.4999 24.3803 17.9126C24.2294 17.3254 23.8592 16.8248 23.3516 16.5217V16.5217C22.8439 16.2186 22.4737 15.718 22.3228 15.1307C22.1719 14.5434 22.2528 13.9179 22.5476 13.3928C22.7393 13.0454 23.0169 12.7574 23.3516 12.5584V12.5584C24.3976 11.9234 24.7561 10.5328 24.1555 9.44051V9.44051V9.42953Z" stroke="#BDBDBD" stroke-width="2" stroke-linecap="round" stroke-linejoin="round"/>
<ellipse cx="14.1802" cy="14.5455" rx="3.04643" ry="3.16182" stroke="#BDBDBD" stroke-width="2" stroke-linecap="round" stroke-linejoin="round"/>
</svg>
