<svg width="38" height="37" viewBox="0 0 38 37" fill="none" xmlns="http://www.w3.org/2000/svg">
<path d="M32.4484 4.29901C32.8911 4.8542 33.3097 5.43641 33.7044 6.04562C39.7215 15.3579 37.5832 27.4791 28.9267 33.1196C20.2717 38.76 8.37703 35.783 2.35843 26.4692C1.75222 25.5314 1.23004 24.5666 0.788883 23.5807L32.4484 4.29901Z" fill="url(#paint0_linear_346_10231)"/>
<path style="mix-blend-mode:multiply" opacity="0.32" d="M32.4484 4.29901C32.8911 4.8542 33.3097 5.43641 33.7044 6.04562C39.7215 15.3579 37.5832 27.4791 28.9267 33.1196C20.2717 38.76 8.37703 35.783 2.35843 26.4692C1.75222 25.5314 1.23004 24.5666 0.788883 23.5807L32.4484 4.29901Z" fill="url(#paint1_linear_346_10231)"/>
<mask id="mask0_346_10231" style="mask-type:luminance" maskUnits="userSpaceOnUse" x="0" y="0" width="34" height="28">
<path d="M6.69304 7.21151L7.78092 5.38538L10.3663 4.22697L16.9686 2.0002L18.5862 0L28.11 0.568698C32.1569 2.09473 33.6244 5.88205 33.704 6.14014C34.2862 8.05031 32.2935 9.78041 32.2935 9.78041L30.0427 11.0258L27.2082 17.6897L23.5169 18.0603L21.8213 19.6028L19.2854 18.752L12.26 24.6731L9.15991 25.0497L3.72051 27.0184C3.72051 27.0184 1.15311 25.3153 0.365341 22.8665C-0.422436 20.4176 0.297817 15.3594 0.362339 13.0185C0.426861 10.6777 6.69455 7.21301 6.69455 7.21301L6.69304 7.21151ZM2.58611 20.8903C2.52159 22.3173 3.85856 23.0345 3.85856 23.0345L8.06302 21.0568L10.2748 20.3966L16.2754 15.919L16.511 15.742L16.5365 15.7225L16.7526 15.7495L16.9941 15.7795L17.2357 15.8095L17.4773 15.8395L17.7189 15.8695L17.9605 15.8995L18.061 15.9115L18.1991 15.8035L18.4346 15.6189L18.6702 15.4344L18.9058 15.2498L19.1414 15.0653L19.377 14.8807L19.5975 14.7081L19.6125 14.7036L19.8511 14.6361L20.0897 14.5686L20.3283 14.5011L20.5669 14.4335L20.8055 14.366L21.044 14.2985L21.2826 14.231L21.5212 14.1634L21.7598 14.0959L21.9984 14.0284L22.207 13.9699L22.237 13.9309L22.4695 13.6338L22.7021 13.3366L22.9347 13.0395L23.1673 12.7424L23.3999 12.4453L23.6325 12.1482L23.865 11.8511L24.0976 11.554L24.3302 11.2569L24.5628 10.9598L24.7954 10.6627L25.0279 10.3656L25.2605 10.0685L25.4931 9.77141L25.7257 9.4743L25.7767 9.40828L25.9613 9.29874L26.1983 9.15919L26.4354 9.01964L26.6725 8.8801L26.9096 8.74055L27.1467 8.601L27.3838 8.46145L27.6208 8.3219C27.6208 8.3219 27.7139 8.25138 27.8564 8.12983C27.9254 8.07131 28.005 8.00229 28.092 7.92276C28.1655 7.85524 28.2451 7.78171 28.3276 7.70068C28.4041 7.62566 28.4836 7.54613 28.5617 7.4606C28.6412 7.37657 28.7192 7.28804 28.7958 7.19801C28.8768 7.10048 28.9563 7.00144 29.0283 6.8979C29.1139 6.77786 29.1934 6.65332 29.2594 6.53028C29.3825 6.3007 29.4665 6.06811 29.48 5.84454C29.4845 5.77401 29.471 5.25933 29.2099 4.69064C29.1439 4.54508 29.0598 4.39653 28.9578 4.25098C28.8858 4.14895 28.8033 4.04691 28.7087 3.94938C28.6337 3.87135 28.5512 3.79632 28.4611 3.7243C28.3846 3.66278 28.3036 3.60576 28.215 3.55024C28.1385 3.50222 28.0575 3.4557 27.9705 3.41219C27.8939 3.37468 27.8114 3.33866 27.7274 3.30565C27.6494 3.27564 27.5683 3.24713 27.4843 3.22162C27.4063 3.19761 27.3252 3.17661 27.2412 3.1571C27.1722 3.14059 27.1002 3.12709 27.0251 3.11509L26.9996 3.11809L26.7595 3.1466L26.5195 3.17511L26.2794 3.20362L26.0393 3.23213L25.7992 3.26064L25.5591 3.28915L25.319 3.31766L25.079 3.34617L24.8389 3.37468L24.5988 3.40319L24.3587 3.4317L24.1186 3.46021L23.8785 3.48872L23.6385 3.51723L23.3984 3.54574L23.1583 3.57425L22.9182 3.60276L22.6781 3.63127L22.438 3.65978L22.198 3.68829L21.9579 3.7168L21.7178 3.74531L21.4777 3.77382L21.2376 3.80233L20.9975 3.83084L20.867 3.84584L20.7604 3.95088L20.5249 4.18196L20.2893 4.41304L20.0537 4.64412L19.8181 4.8752L19.5825 5.10628L19.347 5.33736L19.332 5.35237L19.1099 5.4469L18.8713 5.54893L18.6327 5.65097L18.3941 5.75301L18.1555 5.85504L17.917 5.95708L17.6784 6.05911L17.4398 6.16115L17.2012 6.26318L16.9626 6.36522L16.724 6.46725L16.4855 6.56929L16.2469 6.67133L16.0083 6.77336L13.816 7.70669L11.6118 8.67602L10.6889 10.1976C10.6889 10.1976 5.60066 13.2421 4.98095 14.7171C4.36123 16.1936 2.62213 19.4633 2.5591 20.8903H2.58611Z" fill="white"/>
</mask>
<g mask="url(#mask0_346_10231)">
<path d="M33.7299 6.22415C33.6503 5.96456 32.1843 2.17724 28.1359 0.652704L18.3495 -0.0285339L16.915 1.99867L10.3922 4.31098L7.75732 5.38685L6.62893 7.252C6.62893 7.252 0.451275 10.7602 0.386753 13.101C0.32373 15.4419 -0.398022 20.4986 0.389755 22.949C1.17753 25.3978 3.74492 27.1009 3.74492 27.1009L9.18432 25.1322L12.2844 24.7556L19.3098 18.8345L21.8457 19.6853L23.5413 18.1428L27.2326 17.7722L30.0671 11.1083L32.3179 9.86291C32.3179 9.86291 34.3106 8.13281 33.7284 6.22265L33.7299 6.22415Z" fill="#783E16"/>
<mask id="mask1_346_10231" style="mask-type:luminance" maskUnits="userSpaceOnUse" x="0" y="-1" width="34" height="29">
<path d="M33.7299 6.22415C33.6503 5.96456 32.1843 2.17724 28.1359 0.652704L18.3495 -0.0285339L16.915 1.99867L10.3922 4.31098L7.75732 5.38685L6.62893 7.252C6.62893 7.252 0.451275 10.7602 0.386753 13.101C0.32373 15.4419 -0.398022 20.4986 0.389755 22.949C1.17753 25.3978 3.74492 27.1009 3.74492 27.1009L9.18432 25.1322L12.2844 24.7556L19.3098 18.8345L21.8457 19.6853L23.5413 18.1428L27.2326 17.7722L30.0671 11.1083L32.3179 9.86291C32.3179 9.86291 34.3106 8.13281 33.7284 6.22265L33.7299 6.22415Z" fill="white"/>
</mask>
<g mask="url(#mask1_346_10231)">
<path d="M32.1878 2.18173L34.9383 9.37824L37.0195 7.10945L32.1878 2.18173Z" fill="#783E16"/>
<path d="M31.9389 1.92814L31.7048 1.83661L34.6909 9.64833L34.9385 9.37824L32.188 2.18173L31.9389 1.92814Z" fill="#783E16"/>
<path d="M31.7044 1.83659L31.2917 1.67303L34.4428 9.91841L34.6904 9.64832L31.7044 1.83659Z" fill="#783E16"/>
<path d="M31.2923 1.67305L30.8796 1.50949L34.1958 10.187L34.4434 9.91842L31.2923 1.67305Z" fill="#783E16"/>
<path d="M30.8792 1.5095L30.4665 1.34595L33.9477 10.4571L34.1953 10.187L30.8792 1.5095Z" fill="#783E16"/>
<path d="M30.467 1.34593L30.0544 1.18237L33.7007 10.7272L33.9482 10.4571L30.467 1.34593Z" fill="#783E16"/>
<path d="M30.0539 1.18236L29.6398 1.0188L33.4526 10.9973L33.7002 10.7272L30.0539 1.18236Z" fill="#783E16"/>
<path d="M29.6393 1.01881L29.2267 0.855255L33.2046 11.2659L33.4521 10.9973L29.6393 1.01881Z" fill="#783E16"/>
<path d="M29.2272 0.855268L28.8145 0.691711L32.9575 11.536L33.2051 11.2659L29.2272 0.855268Z" fill="#783E16"/>
<path d="M28.8151 0.691694L28.4024 0.528137L32.7104 11.8061L32.958 11.536L28.8151 0.691694Z" fill="#783E16"/>
<path d="M28.402 0.528151L27.9878 0.364594L32.4639 12.0762L32.71 11.8061L28.402 0.528151Z" fill="#783E16"/>
<path d="M27.9878 0.364576L27.5752 0.201019L32.2163 12.3448L32.4639 12.0762L27.9878 0.364576Z" fill="#783E16"/>
<path d="M27.5747 0.201027L27.1621 0.0389709L31.9682 12.6149L32.2158 12.3448L27.5747 0.201027Z" fill="#783E16"/>
<path d="M27.1626 0.0389846L26.7499 -0.124573L31.7212 12.885L31.9688 12.6149L27.1626 0.0389846Z" fill="#783E16"/>
<path d="M26.7504 -0.12459L26.3378 -0.288147L31.4741 13.1535L31.7217 12.8849L26.7504 -0.12459Z" fill="#783E16"/>
<path d="M26.3373 -0.288134L25.9232 -0.451691L31.226 13.4236L31.4736 13.1536L26.3373 -0.288134Z" fill="#783E16"/>
<path d="M25.9237 -0.451708L25.5111 -0.615265L30.979 13.6937L31.2266 13.4236L25.9237 -0.451708Z" fill="#783E16"/>
<path d="M25.5106 -0.615252L25.098 -0.778809L30.7309 13.9638L30.9785 13.6937L25.5106 -0.615252Z" fill="#783E16"/>
<path d="M25.0975 -0.778826L24.6849 -0.942383L30.4829 14.2324L30.7305 13.9638L25.0975 -0.778826Z" fill="#783E16"/>
<path d="M24.6854 -0.942369L24.2727 -1.10593L30.2358 14.5025L30.4834 14.2324L24.6854 -0.942369Z" fill="#783E16"/>
<path d="M24.2723 -1.10591L23.8581 -1.26947L29.9878 14.7726L30.2354 14.5025L24.2723 -1.10591Z" fill="#783E16"/>
<path d="M23.8586 -1.26949L23.446 -1.43304L29.7407 15.0427L29.9883 14.7726L23.8586 -1.26949Z" fill="#783E16"/>
<path d="M23.4455 -1.43303L23.0329 -1.59659L29.4941 15.3113L29.7402 15.0427L23.4455 -1.43303Z" fill="#783E16"/>
<path d="M23.0329 -1.59661L22.6202 -1.76016L29.2466 15.5814L29.4941 15.3113L23.0329 -1.59661Z" fill="#783E16"/>
<path d="M22.6208 -1.76018L22.2066 -1.92374L28.9995 15.8515L29.2471 15.5814L22.6208 -1.76018Z" fill="#783E16"/>
<path d="M22.2062 -1.92373L21.7935 -2.08578L28.7514 16.1201L28.999 15.8515L22.2062 -1.92373Z" fill="#783E16"/>
<path d="M21.7931 -2.08577L21.3804 -2.24933L28.5034 16.3902L28.751 16.1201L21.7931 -2.08577Z" fill="#783E16"/>
<path d="M21.3809 -2.24935L20.9683 -2.4129L28.2563 16.6602L28.5039 16.3902L21.3809 -2.24935Z" fill="#783E16"/>
<path d="M20.9688 -2.41289L20.5562 -2.57645L28.0093 16.9304L28.2568 16.6603L20.9688 -2.41289Z" fill="#783E16"/>
<path d="M20.5557 -2.57643L20.1415 -2.73999L27.7612 17.199L28.0088 16.9304L20.5557 -2.57643Z" fill="#783E16"/>
<path d="M20.1421 -2.74001L19.7294 -2.90356L27.5141 17.469L27.7617 17.1989L20.1421 -2.74001Z" fill="#783E16"/>
<path d="M19.729 -2.90355L19.3163 -3.06711L27.2661 17.7391L27.5137 17.4691L19.729 -2.90355Z" fill="#783E16"/>
<path d="M19.3159 -3.06713L18.9032 -3.23068L27.018 18.0092L27.2656 17.7391L19.3159 -3.06713Z" fill="#783E16"/>
<path d="M18.9037 -3.23067L18.4911 -3.39423L26.771 18.2778L27.0186 18.0092L18.9037 -3.23067Z" fill="#783E16"/>
<path d="M18.4916 -3.39421L18.0775 -3.55777L26.5239 18.5479L26.7715 18.2778L18.4916 -3.39421Z" fill="#783E16"/>
<path d="M18.077 -3.55779L17.6643 -3.72134L26.2774 18.818L26.5234 18.5479L18.077 -3.55779Z" fill="#783E16"/>
<path d="M17.6473 -3.73186L17.2331 -3.89542L26.0112 19.0761L26.2588 18.806L17.6473 -3.73186Z" fill="#783E16"/>
<path d="M17.2512 -3.8849L16.8386 -4.04846L25.7817 19.3567L26.0293 19.0866L17.2512 -3.8849Z" fill="#783E16"/>
<path d="M16.8391 -4.04845L16.425 -4.21201L25.5346 19.6268L25.7822 19.3567L16.8391 -4.04845Z" fill="#783E16"/>
<path d="M16.4245 -4.212L16.0119 -4.37405L25.2866 19.8969L25.5342 19.6268L16.4245 -4.212Z" fill="#783E16"/>
<path d="M16.0124 -4.37407L15.5997 -4.53763L25.0395 20.1655L25.2871 19.8969L16.0124 -4.37407Z" fill="#783E16"/>
<path d="M15.5993 -4.53761L15.1866 -4.70117L24.7915 20.4356L25.0391 20.1655L15.5993 -4.53761Z" fill="#783E16"/>
<path d="M15.1871 -4.70117L14.7865 -4.86023L14.779 -4.85273L24.5444 20.7057L24.792 20.4356L15.1871 -4.70117Z" fill="#783E16"/>
<path d="M14.531 -4.58263L24.2964 20.9743L24.5439 20.7057L14.7785 -4.85272L14.531 -4.58263Z" fill="#783E16"/>
<path d="M14.2839 -4.31255L24.0493 21.2444L24.2969 20.9743L14.5315 -4.58264L14.2839 -4.31255Z" fill="#783E16"/>
<path d="M14.0358 -4.04394L23.8012 21.5145L24.0488 21.2444L14.2834 -4.31253L14.0358 -4.04394Z" fill="#783E16"/>
<path d="M13.7888 -3.77385L23.5542 21.7846L23.8018 21.5145L14.0364 -4.04395L13.7888 -3.77385Z" fill="#783E16"/>
<path d="M13.5407 -3.50374L23.3076 22.0532L23.5537 21.7846L13.7883 -3.77383L13.5407 -3.50374Z" fill="#783E16"/>
<path d="M13.2931 -3.23366L23.06 22.3233L23.3076 22.0532L13.5407 -3.50375L13.2931 -3.23366Z" fill="#783E16"/>
<path d="M13.0461 -2.96508L22.813 22.5933L23.0605 22.3232L13.2936 -3.23367L13.0461 -2.96508Z" fill="#783E16"/>
<path d="M12.798 -2.69499L22.5649 22.8634L22.8125 22.5933L13.0456 -2.96509L12.798 -2.69499Z" fill="#783E16"/>
<path d="M12.5515 -2.42488L22.3169 23.132L22.5645 22.8634L12.7975 -2.69498L12.5515 -2.42488Z" fill="#783E16"/>
<path d="M12.3044 -2.1548L22.0698 23.4021L22.3174 23.132L12.552 -2.4249L12.3044 -2.1548Z" fill="#783E16"/>
<path d="M12.0573 -1.88619L21.8227 23.6722L22.0703 23.4021L12.3049 -2.15479L12.0573 -1.88619Z" fill="#783E16"/>
<path d="M11.8093 -1.61611L21.5747 23.9408L21.8223 23.6722L12.0569 -1.8862L11.8093 -1.61611Z" fill="#783E16"/>
<path d="M11.5612 -1.34603L21.3266 24.2109L21.5742 23.9408L11.8088 -1.61612L11.5612 -1.34603Z" fill="#783E16"/>
<path d="M11.3142 -1.07745L21.0796 24.481L21.3271 24.2109L11.5617 -1.34604L11.3142 -1.07745Z" fill="#783E16"/>
<path d="M11.0661 -0.807329L20.8315 24.7511L21.0791 24.481L11.3137 -1.07742L11.0661 -0.807329Z" fill="#783E16"/>
<path d="M2.52565 26.7708L14.5959 31.547L20.832 24.7511L11.0666 -0.807312L-6.13537 17.9387L2.52565 26.7708Z" fill="#783E16"/>
</g>
<mask id="mask2_346_10231" style="mask-type:luminance" maskUnits="userSpaceOnUse" x="0" y="0" width="33" height="27">
<path d="M32.8535 6.48824C32.78 6.24665 31.413 2.70992 27.5837 1.30843L18.7471 0.556671L17.3216 2.51485L10.7523 4.86617L8.26144 5.90154L7.14505 7.62264C7.14505 7.62264 1.263 10.9448 1.18797 13.1371C1.11294 15.3278 0.397194 20.0665 1.12945 22.3548C1.8617 24.6416 4.28655 26.2201 4.28655 26.2201L9.45735 24.343L11.9137 24.0474L19.0997 18.3844L21.5006 19.1647L23.1181 17.7107L26.6218 17.34L29.3528 11.0858L31.4955 9.90493C31.4955 9.90493 33.3967 8.27236 32.8565 6.48974L32.8535 6.48824Z" fill="white"/>
</mask>
<g mask="url(#mask2_346_10231)">
<path d="M31.4167 2.71292L33.9781 9.43226L35.9678 7.29552L31.4167 2.71292Z" fill="#C6C6C6"/>
<path d="M31.1821 2.47734L30.96 2.39182L33.742 9.68586L33.9775 9.43227L31.4161 2.71293L31.1821 2.47734Z" fill="#C6C6C6"/>
<path d="M30.9602 2.39181L30.5701 2.24176L33.5051 9.93944L33.7422 9.68586L30.9602 2.39181Z" fill="#C7C7C7"/>
<path d="M30.5699 2.24179L30.1782 2.09174L33.2693 10.1946L33.5049 9.93947L30.5699 2.24179Z" fill="#C8C8C8"/>
<path d="M30.1785 2.09173L29.7883 1.94168L33.0324 10.4481L33.2695 10.1946L30.1785 2.09173Z" fill="#C9C9C9"/>
<path d="M29.7881 1.94168L29.398 1.79163L32.7966 10.7017L33.0322 10.4481L29.7881 1.94168Z" fill="#CACACA"/>
<path d="M29.3982 1.7916L29.0066 1.64005L32.5598 10.9553L32.7969 10.7017L29.3982 1.7916Z" fill="#CBCBCB"/>
<path d="M29.0063 1.64004L28.6162 1.48999L32.324 11.2104L32.5596 10.9553" fill="#CCCCCC"/>
<path d="M28.6164 1.48999L28.2263 1.33994L32.0871 11.464L32.3242 11.2104L28.6164 1.48999Z" fill="#CDCDCD"/>
<path d="M28.227 1.33993L27.8354 1.18988L31.8523 11.7176L32.0879 11.464L28.227 1.33993Z" fill="#CECECE"/>
<path d="M27.8347 1.18991L27.4445 1.03836L31.6145 11.9727L31.8516 11.7176L27.8347 1.18991Z" fill="#CFCFCF"/>
<path d="M27.4453 1.03836L27.0551 0.888306L31.3782 12.2263L31.6152 11.9727L27.4453 1.03836Z" fill="#D0D0D0"/>
<path d="M27.0549 0.888273L26.6633 0.73822L31.1423 12.4798L31.3779 12.2262L27.0549 0.888273Z" fill="#D1D1D1"/>
<path d="M26.6625 0.738248L26.2724 0.588196L30.9045 12.7334L31.1416 12.4798L26.6625 0.738248Z" fill="#D2D2D2"/>
<path d="M26.2732 0.588193L25.883 0.438141L30.6697 12.9885L30.9053 12.7334L26.2732 0.588193Z" fill="#D3D3D3"/>
<path d="M25.8823 0.438144L25.4906 0.286591L30.4319 13.2421L30.6689 12.9885L25.8823 0.438144Z" fill="#D4D4D4"/>
<path d="M25.4904 0.286588L25.1003 0.136536L30.1961 13.4957L30.4316 13.2421L25.4904 0.286588Z" fill="#D5D5D5"/>
<path d="M25.1015 0.136533L24.7114 -0.0135193L29.9602 13.7493L30.1973 13.4957L25.1015 0.136533Z" fill="#D6D6D6"/>
<path d="M24.7111 -0.0135219L24.3195 -0.163574L29.7244 14.0044L29.96 13.7493L24.7111 -0.0135219Z" fill="#D7D7D7"/>
<path d="M24.3187 -0.163577L23.9286 -0.313629L29.4865 14.258L29.7236 14.0044L24.3187 -0.163577Z" fill="#D8D8D8"/>
<path d="M23.9284 -0.313627L23.5383 -0.465179L29.2507 14.5115L29.4863 14.258L23.9284 -0.313627Z" fill="#D9D9D9"/>
<path d="M23.5395 -0.465182L23.1478 -0.615234L29.0149 14.7651L29.252 14.5115L23.5395 -0.465182Z" fill="#DADADA"/>
<path d="M23.1476 -0.615237L22.7575 -0.765289L28.7776 15.0202L29.0146 14.7651L23.1476 -0.615237Z" fill="#DBDBDB"/>
<path d="M22.7572 -0.765292L22.3671 -0.915344L28.5418 15.2738L28.7773 15.0202L22.7572 -0.765292Z" fill="#DCDCDC"/>
<path d="M22.3664 -0.915342L21.9747 -1.06689L28.3039 15.5274L28.541 15.2738L22.3664 -0.915342Z" fill="#DDDDDD"/>
<path d="M21.9755 -1.0669L21.5853 -1.21695L28.0691 15.7825L28.3047 15.5274L21.9755 -1.0669Z" fill="#DEDEDE"/>
<path d="M21.5846 -1.21695L21.1945 -1.367L27.8313 16.0361L28.0684 15.7825L21.5846 -1.21695Z" fill="#DFDFDF"/>
<path d="M21.1942 -1.36701L20.8026 -1.51706L27.5955 16.2896L27.8311 16.0361L21.1942 -1.36701Z" fill="#E0E0E0"/>
<path d="M20.8038 -1.51706L20.4137 -1.66711L27.3596 16.5432L27.5967 16.2896L20.8038 -1.51706Z" fill="#E1E1E1"/>
<path d="M20.4135 -1.66711L20.0233 -1.81866L27.1238 16.7983L27.3594 16.5432L20.4135 -1.66711Z" fill="#E3E3E3"/>
<path d="M20.0235 -1.81867L19.6319 -1.96872L26.8869 17.0519L27.124 16.7983L20.0235 -1.81867Z" fill="#E4E4E4"/>
<path d="M19.6317 -1.96869L19.2416 -2.11874L26.6496 17.3055L26.8867 17.0519L19.6317 -1.96869Z" fill="#E5E5E5"/>
<path d="M19.2413 -2.11875L18.8512 -2.2688L26.4138 17.5591L26.6494 17.3055L19.2413 -2.11875Z" fill="#E6E6E6"/>
<path d="M18.8514 -2.2688L18.4598 -2.42035L26.177 17.8142L26.4141 17.5591L18.8514 -2.2688Z" fill="#E7E7E7"/>
<path d="M18.4596 -2.42035L18.0694 -2.5704L25.9412 18.0678L26.1768 17.8142L18.4596 -2.42035Z" fill="#E8E8E8"/>
<path d="M18.0697 -2.57041L17.6795 -2.72046L25.7043 18.3214L25.9414 18.0678L18.0697 -2.57041Z" fill="#E9E9E9"/>
<path d="M17.6793 -2.72046L17.2877 -2.87051L25.4685 18.5765L25.7041 18.3214L17.6793 -2.72046Z" fill="#EAEAEA"/>
<path d="M17.2879 -2.87052L16.8978 -3.02057L25.2317 18.83L25.4688 18.5765L17.2879 -2.87052Z" fill="#EBEBEB"/>
<path d="M16.8975 -3.02057L16.5059 -3.17212L24.9959 19.0836L25.2314 18.83L16.8975 -3.02057Z" fill="#ECECEC"/>
<path d="M16.5061 -3.17212L16.116 -3.32217L24.759 19.3372L24.9961 19.0836L16.5061 -3.17212Z" fill="#EDEDED"/>
<path d="M16.1158 -3.32218L15.7256 -3.47223L24.5232 19.5923L24.7588 19.3372L16.1158 -3.32218Z" fill="#EEEEEE"/>
<path d="M15.7259 -3.4722L15.3342 -3.62225L24.2864 19.8459L24.5234 19.5923L15.7259 -3.4722Z" fill="#EFEFEF"/>
<path d="M15.334 -3.6223L14.9559 -3.76935L14.9484 -3.76185L24.049 20.0995L24.2861 19.8459L15.334 -3.6223Z" fill="#F0F0F0"/>
<path d="M14.7126 -3.50675L23.8132 20.3531L24.0488 20.0995L14.9482 -3.76184L14.7126 -3.50675Z" fill="#F1F1F1"/>
<path d="M14.4757 -3.25316L23.5764 20.6082L23.8135 20.3531L14.7128 -3.50674L14.4757 -3.25316Z" fill="#F2F2F2"/>
<path d="M14.2399 -2.99955L23.3406 20.8618L23.5762 20.6082L14.4755 -3.25314L14.2399 -2.99955Z" fill="#F3F3F3"/>
<path d="M14.0031 -2.74598L23.1037 21.1153L23.3408 20.8617L14.2401 -2.99957L14.0031 -2.74598Z" fill="#F4F4F4"/>
<path d="M13.7658 -2.49088L22.8679 21.3689L23.1035 21.1153L14.0028 -2.74597L13.7658 -2.49088Z" fill="#F5F5F5"/>
<path d="M13.5304 -2.23732L22.6311 21.624L22.8682 21.3689L13.766 -2.49091L13.5304 -2.23732Z" fill="#F6F6F6"/>
<path d="M13.2931 -1.98372L22.3953 21.8776L22.6309 21.624L13.5302 -2.2373L13.2931 -1.98372Z" fill="#F7F7F7"/>
<path d="M13.0578 -1.72861L22.1584 22.1312L22.3955 21.8776L13.2933 -1.9837L13.0578 -1.72861Z" fill="#F8F8F8"/>
<path d="M12.8204 -1.47505L21.9211 22.3863L22.1582 22.1312L13.0575 -1.72864L12.8204 -1.47505Z" fill="#F9F9F9"/>
<path d="M12.5846 -1.22145L21.6853 22.6399L21.9209 22.3863L12.8202 -1.47504L12.5846 -1.22145Z" fill="#FAFAFA"/>
<path d="M12.3478 -0.967847L21.4485 22.8935L21.6855 22.6399L12.5849 -1.22144L12.3478 -0.967847Z" fill="#FBFBFB"/>
<path d="M12.112 -0.712776L21.2127 23.147L21.4482 22.8935L12.3476 -0.967865L12.112 -0.712776Z" fill="#FCFCFC"/>
<path d="M11.8751 -0.45918L20.9758 23.4021L21.2129 23.147L12.1122 -0.712769L11.8751 -0.45918Z" fill="#FDFDFD"/>
<path d="M11.6378 -0.20561L20.74 23.6557L20.9756 23.4021L11.8749 -0.459198L11.6378 -0.20561Z" fill="#FEFEFE"/>
<path d="M11.4025 0.0479913L20.5032 23.9093L20.7402 23.6557L11.6381 -0.205597L11.4025 0.0479913Z" fill="white"/>
<path d="M3.12687 25.9155L14.5444 30.3106L20.5029 23.9093L11.4023 0.0480042L-5.03147 17.7047L3.12687 25.9155Z" fill="white"/>
</g>
<path d="M2.51405 20.9608C2.57857 19.5338 4.31617 16.2642 4.93589 14.7877C5.5556 13.3111 10.6439 10.2681 10.6439 10.2681L11.5667 8.74655L13.771 7.77721L15.9632 6.84388L16.2018 6.74185L16.4404 6.63981L16.679 6.53778L16.9176 6.43574L17.1561 6.33371L17.3947 6.23167L17.6333 6.12963L17.8719 6.0276L18.1105 5.92556L18.3491 5.82353L18.5876 5.72149L18.8262 5.61946L19.0648 5.51742L19.2869 5.42289L19.3019 5.40788L19.5375 5.1768L19.7731 4.94572L20.0086 4.71464L20.2442 4.48356L20.4798 4.25248L20.7154 4.0214L20.8219 3.91636L20.9525 3.90136L21.1926 3.87285L21.4326 3.84434L21.6727 3.81583L21.9128 3.78732L22.1529 3.75881L22.393 3.7303L22.6331 3.70179L22.8731 3.67328L23.1132 3.64477L23.3533 3.61626L23.5934 3.58775L23.8335 3.55924L24.0736 3.53073L24.3136 3.50222L24.5537 3.47371L24.7938 3.4452L25.0339 3.41669L25.274 3.38818L25.5141 3.35967L25.7541 3.33116L25.9942 3.30265L26.2343 3.27414L26.4744 3.24563L26.7145 3.21712L26.9546 3.18861L26.9801 3.18561C27.0536 3.19761 27.1256 3.21262 27.1961 3.22762C27.2802 3.24713 27.3612 3.26814 27.4392 3.29215C27.5233 3.31765 27.6043 3.34616 27.6823 3.37617C27.7678 3.40919 27.8489 3.4437 27.9254 3.48271C28.0124 3.52623 28.0935 3.57124 28.17 3.62076C28.257 3.67628 28.3395 3.7333 28.4161 3.79482C28.5061 3.86685 28.5886 3.94187 28.6637 4.0199C28.7567 4.11743 28.8407 4.21797 28.9127 4.3215C29.0148 4.46705 29.0988 4.61561 29.1648 4.76116C29.4259 5.32986 29.4394 5.84453 29.4349 5.91506C29.4199 6.13864 29.3374 6.37122 29.2144 6.6008C29.1468 6.72534 29.0688 6.84839 28.9833 6.96843C28.9097 7.07046 28.8317 7.171 28.7507 7.26853C28.6742 7.36006 28.5961 7.44709 28.5166 7.53112C28.4371 7.61515 28.3591 7.69468 28.2825 7.77121C28.2 7.85073 28.122 7.92576 28.0469 7.99329C27.9599 8.07281 27.8804 8.14184 27.8114 8.20036C27.6688 8.3219 27.5758 8.39092 27.5758 8.39092L27.3387 8.53047L27.1016 8.67002L26.8645 8.80957L26.6275 8.94912L26.3904 9.08867L26.1533 9.22822L25.9162 9.36776L25.7316 9.4773L25.6806 9.54332L25.448 9.84043L25.2155 10.1375L24.9829 10.4346L24.7503 10.7317L24.5177 11.0288L24.2851 11.3259L24.0526 11.623L23.82 11.9202L23.5874 12.2173L23.3548 12.5144L23.1222 12.8115L22.8896 13.1086L22.6571 13.4057L22.4245 13.7028L22.1919 13.9999L22.1619 14.0389L21.9533 14.0974L21.7147 14.1649L21.4762 14.2325L21.2376 14.3L20.999 14.3675L20.7604 14.435L20.5218 14.5026L20.2832 14.5701L20.0447 14.6376L19.8061 14.7051L19.5675 14.7726L19.5525 14.7772L19.3319 14.9497L19.0963 15.1343L18.8607 15.3188L18.6252 15.5034L18.3896 15.688L18.154 15.8725L18.0159 15.9806L17.9154 15.9686L17.6738 15.9386L17.4322 15.9085L17.1907 15.8785L16.9491 15.8485L16.7075 15.8185L16.4914 15.7915L16.4659 15.811L16.2303 15.9881L10.2297 20.4656L8.01796 21.1259L3.8135 23.1036C3.8135 23.1036 2.47653 22.3863 2.54105 20.9593L2.51405 20.9608Z" fill="url(#paint2_linear_346_10231)"/>
<path d="M2.51405 20.9608C2.57857 19.5338 4.31617 16.2642 4.93589 14.7877C5.55561 13.3111 10.6439 10.2681 10.6439 10.2681L11.5667 8.74655L13.771 7.77721L15.9632 6.84388L16.2018 6.74185L16.4404 6.63981L16.679 6.53778L16.9176 6.43574L17.1561 6.33371L17.3947 6.23167L17.6333 6.12963L17.8719 6.0276L18.1105 5.92556L18.3491 5.82353L18.5876 5.72149L18.8262 5.61946L19.0648 5.51742L19.2869 5.42289L19.3019 5.40788L19.5375 5.1768L19.7731 4.94572L20.0086 4.71464L20.2442 4.48356L20.4798 4.25248L20.7154 4.0214L20.8219 3.91636L20.9525 3.90136L21.1926 3.87285L21.4326 3.84434L21.6727 3.81583L21.9128 3.78732L22.1529 3.75881L22.393 3.7303L22.6331 3.70179L22.8731 3.67328L23.1132 3.64477L23.3533 3.61626L23.5934 3.58775L23.8335 3.55924L24.0736 3.53073L24.3136 3.50222L24.5537 3.47371L24.7938 3.4452L25.0339 3.41669L25.274 3.38818L25.5141 3.35967L25.7541 3.33116L25.9942 3.30265L26.2343 3.27414L26.4744 3.24563L26.7145 3.21712L26.9546 3.18861L26.9801 3.18561C27.0536 3.19761 27.1256 3.21262 27.1961 3.22762C27.2802 3.24713 27.3612 3.26814 27.4392 3.29215C27.5233 3.31765 27.6043 3.34616 27.6823 3.37617C27.7678 3.40919 27.8489 3.4437 27.9254 3.48271C28.0124 3.52623 28.0935 3.57124 28.17 3.62076C28.257 3.67628 28.3395 3.7333 28.4161 3.79482C28.5061 3.86685 28.5886 3.94187 28.6637 4.0199C28.7567 4.11743 28.8407 4.21797 28.9127 4.3215C29.0148 4.46705 29.0988 4.61561 29.1648 4.76116C29.4259 5.32986 29.4394 5.84453 29.4349 5.91506C29.4199 6.13864 29.3374 6.37122 29.2144 6.6008C29.1468 6.72534 29.0688 6.84839 28.9833 6.96843C28.9097 7.07046 28.8317 7.171 28.7507 7.26853C28.6742 7.36006 28.5961 7.44709 28.5166 7.53112C28.4371 7.61515 28.3591 7.69468 28.2825 7.77121C28.2 7.85073 28.122 7.92576 28.0469 7.99329C27.9599 8.07281 27.8804 8.14184 27.8114 8.20036C27.6688 8.3219 27.5758 8.39092 27.5758 8.39092L27.3387 8.53047L27.1016 8.67002L26.8645 8.80957L26.6275 8.94912L26.3904 9.08867L26.1533 9.22822L25.9162 9.36776L25.7316 9.4773L25.6806 9.54332L25.448 9.84043L25.2155 10.1375L24.9829 10.4346L24.7503 10.7317L24.5177 11.0288L24.2851 11.3259L24.0526 11.6231L23.82 11.9202L23.5874 12.2173L23.3548 12.5144L23.1222 12.8115L22.8896 13.1086L22.6571 13.4057L22.4245 13.7028L22.1919 13.9999L22.1619 14.0389L21.9533 14.0974L21.7147 14.1649L21.4762 14.2325L21.2376 14.3L20.999 14.3675L20.7604 14.435L20.5218 14.5026L20.2832 14.5701L20.0447 14.6376L19.8061 14.7051L19.5675 14.7726L19.5525 14.7771L19.3319 14.9497L19.0963 15.1343L18.8607 15.3188L18.6252 15.5034L18.3896 15.688L18.154 15.8725L18.0159 15.9806L17.9154 15.9686L17.6738 15.9386L17.4322 15.9085L17.1907 15.8785L16.9491 15.8485L16.7075 15.8185L16.4914 15.7915L16.4659 15.811L16.2303 15.9881L10.2297 20.4656L8.01796 21.1259L3.8135 23.1036C3.8135 23.1036 2.47653 22.3863 2.54105 20.9593L2.51405 20.9608Z" stroke="url(#paint3_linear_346_10231)" stroke-width="0.35" stroke-miterlimit="10"/>
<path style="mix-blend-mode:overlay" opacity="0.21" d="M25.4262 9.23572C25.5208 9.28824 33.9912 12.9855 33.9912 12.9855C33.9912 12.9855 27.569 17.9012 27.4684 17.8742C27.3664 17.8472 21.2803 13.3096 21.2803 13.3096L25.4262 9.23572Z" fill="url(#paint4_linear_346_10231)"/>
<path style="mix-blend-mode:multiply" opacity="0.24" d="M27.4678 17.8727C27.4243 17.8337 21.2796 13.3081 21.2796 13.3081L18.9508 14.2985L24.1351 18.5525L27.4663 17.8712L27.4678 17.8727Z" fill="url(#paint5_linear_346_10231)"/>
<path style="mix-blend-mode:overlay" opacity="0.21" d="M23.8721 18.3214L18.3201 13.7643L17.987 15.766L22.5186 20.131C22.5186 20.131 23.8151 18.3334 23.8721 18.3229V18.3214Z" fill="url(#paint6_linear_346_10231)"/>
<path style="mix-blend-mode:multiply" opacity="0.24" d="M22.5186 20.1295L16.68 14.7216L16.2014 15.5439L19.9722 19.2982L22.5186 20.1295Z" fill="url(#paint7_linear_346_10231)"/>
<path style="mix-blend-mode:overlay" opacity="0.21" d="M19.9736 19.3927L15.307 14.6256L10.0432 20.2856L13.0892 26.4377L19.9736 19.3927Z" fill="url(#paint8_linear_346_10231)"/>
<path style="mix-blend-mode:multiply" opacity="0.24" d="M13.0889 26.4377L9.65267 18.8511L7.55494 20.4476L10.4509 26.5578L13.0889 26.4377Z" fill="url(#paint9_linear_346_10231)"/>
<path style="mix-blend-mode:overlay" opacity="0.21" d="M9.8623 25.3138L7.19888 19.6043L3.81069 22.8229L4.62098 28.4559L9.8623 25.3138Z" fill="url(#paint10_linear_346_10231)"/>
<path style="mix-blend-mode:multiply" opacity="0.24" d="M4.28738 26.3582L3.57013 21.3884C3.57013 21.3884 5.46079 14.3885 5.42328 14.378C5.38576 14.3675 -1.44912 11.9111 -1.44912 11.9111L-1.37859 24.2019L4.28738 26.3597V26.3582Z" fill="url(#paint11_linear_346_10231)"/>
<path style="mix-blend-mode:overlay" opacity="0.21" d="M5.56251 14.4155L-1.67601 11.7956L6.58737 7.10199L11.0859 10.5757L5.56251 14.4155Z" fill="url(#paint12_linear_346_10231)"/>
<path style="mix-blend-mode:multiply" opacity="0.24" d="M6.4902 7.06146L12.0361 11.386L11.7735 8.87259L6.39717 4.3215L6.4902 7.06146Z" fill="url(#paint13_linear_346_10231)"/>
<path style="mix-blend-mode:overlay" opacity="0.21" d="M11.8725 8.85908L5.87944 3.87134L16.8603 1.84863L19.5537 5.97807L11.8725 8.85908Z" fill="url(#paint14_linear_346_10231)"/>
<path style="mix-blend-mode:multiply" opacity="0.24" d="M16.8597 1.84863L18.3722 -0.0135193L21.2607 4.67111L19.5531 5.97807L16.8597 1.84863Z" fill="url(#paint15_linear_346_10231)"/>
<path style="mix-blend-mode:overlay" opacity="0.21" d="M20.8659 3.98538L17.9714 -0.645233L28.2305 0.513171L26.847 3.44519L20.8659 3.98538Z" fill="url(#paint16_linear_346_10231)"/>
<path style="mix-blend-mode:overlay" opacity="0.67" d="M25.4262 9.23572C25.5208 9.28824 33.9912 12.9855 33.9912 12.9855C33.9912 12.9855 27.569 17.9012 27.4684 17.8742C27.3664 17.8472 21.2803 13.3096 21.2803 13.3096L25.4262 9.23572Z" fill="url(#paint17_linear_346_10231)"/>
<path style="mix-blend-mode:overlay" opacity="0.67" d="M23.8721 18.3214L18.3201 13.7643L17.987 15.766L22.5186 20.131C22.5186 20.131 23.8151 18.3334 23.8721 18.3229V18.3214Z" fill="url(#paint18_linear_346_10231)"/>
<path style="mix-blend-mode:overlay" opacity="0.67" d="M19.9736 19.3927L15.307 14.6256L10.0432 20.2856L13.0892 26.4377L19.9736 19.3927Z" fill="url(#paint19_linear_346_10231)"/>
<path style="mix-blend-mode:overlay" opacity="0.67" d="M9.8623 25.3138L7.19888 19.6043L3.81069 22.8229L4.62098 28.4559L9.8623 25.3138Z" fill="url(#paint20_linear_346_10231)"/>
<path style="mix-blend-mode:overlay" opacity="0.67" d="M5.56251 14.4155L-1.67601 11.7956L6.58737 7.10199L11.0859 10.5757L5.56251 14.4155Z" fill="url(#paint21_linear_346_10231)"/>
<path style="mix-blend-mode:overlay" opacity="0.67" d="M11.8725 8.85908L5.87944 3.87134L16.8603 1.84863L19.5537 5.97807L11.8725 8.85908Z" fill="url(#paint22_linear_346_10231)"/>
<path style="mix-blend-mode:overlay" opacity="0.67" d="M20.8659 3.98538L17.9714 -0.645233L28.2305 0.513171L26.847 3.44519L20.8659 3.98538Z" fill="url(#paint23_linear_346_10231)"/>
</g>
<path d="M10.7513 10.2051L11.6741 8.68353L13.8784 7.71419L16.0707 6.78086L16.3092 6.67883L16.5478 6.57679L16.7864 6.47476L17.025 6.37272L17.2636 6.27069L17.5022 6.16865L17.7407 6.06662L17.9793 5.96458L18.2179 5.86254L18.4565 5.76051L18.6951 5.65847L18.9337 5.55644L19.1722 5.4544L19.3943 5.35987L19.4093 5.34486L19.6449 5.11378L19.8805 4.8827L20.1161 4.65162L20.3516 4.42054L20.5872 4.18946L20.8228 3.95838L20.9293 3.85334L21.0599 3.83834L21.3 3.80983L21.5401 3.78132L21.7801 3.75281L22.0202 3.7243L22.2603 3.69579L22.5004 3.66728L22.7405 3.63877L22.9806 3.61026L23.2206 3.58175L23.4607 3.55324L23.7008 3.52473L23.9409 3.49622L24.181 3.46771L24.4211 3.4392L24.6611 3.41069L24.9012 3.38218L25.1413 3.35367L25.3814 3.32516L25.6215 3.29665L25.8616 3.26814L26.1017 3.23963L26.3417 3.21112L26.5818 3.18261L26.8219 3.1541L27.062 3.12559L27.0875 3.12259C27.161 3.13459 27.233 3.1496 27.3036 3.1646C27.3876 3.18411 27.4686 3.20512 27.5467 3.22913C27.6307 3.25464 27.7117 3.28315 27.7897 3.31316C27.8753 3.34617 27.9563 3.38068 28.0328 3.41969C28.1199 3.46321 28.2009 3.50822 28.2774 3.55774C28.3644 3.61326 28.447 3.67028 28.5235 3.7318C28.6135 3.80383 28.6961 3.87885 28.7711 3.95688C28.8641 4.05441 28.9481 4.15495 29.0202 4.25849C29.1222 4.40404 29.2062 4.55259 29.2723 4.69814C29.5333 5.26684 29.5469 5.78152 29.5424 5.85204C29.5273 6.07562 29.4448 6.3082 29.3218 6.53778C29.2543 6.66232 29.1762 6.78537 29.0907 6.90541C29.0172 7.00744 28.9391 7.10798 28.8581 7.20551C28.7816 7.29705 28.7036 7.38408 28.624 7.4681C28.5445 7.55213 28.4665 7.63316 28.3899 7.70819C28.3074 7.78772 28.2294 7.86274 28.1544 7.93026C28.0673 8.00979 27.9878 8.07882 27.9188 8.13734C27.7762 8.25888 27.6832 8.3279 27.6832 8.3279L27.4461 8.46745L27.209 8.607L26.972 8.74655L26.7349 8.8861L26.4978 9.02565L26.2607 9.1652L26.0236 9.30475L25.8391 9.41428L25.788 9.48031L25.5555 9.77741L25.3229 10.0745L25.0903 10.3716L24.8577 10.6687L24.6251 10.9658L24.3926 11.2629L24.16 11.56L23.9274 11.8571L23.6948 12.1542L23.4622 12.4513L23.2296 12.7484L22.9971 13.0456L22.7645 13.3427L22.5319 13.6398L22.2993 13.9369L22.2693 13.9759L22.0607 14.0344L21.8222 14.1019L21.5836 14.1694L21.345 14.237L21.1064 14.3045L20.8678 14.372L20.6292 14.4395L20.3907 14.5071L20.1521 14.5746L19.9135 14.6421L19.6749 14.7096L19.6599 14.7141L19.4393 14.8867L19.2037 15.0713L18.9682 15.2558L18.7326 15.4404L18.497 15.6249L18.2614 15.8095L18.1234 15.9176L18.0228 15.9055L17.7812 15.8755L17.5397 15.8455L17.2981 15.8155L17.0565 15.7855L16.8149 15.7555L16.5988 15.7285L16.5733 15.748L16.3377 15.9251L10.3372 20.4026L8.12538 21.0628L3.92092 23.0405C3.92092 23.0405 2.58395 22.3233 2.64847 20.8963C2.713 19.4693 4.4506 16.1996 5.07032 14.7231C5.69003 13.2466 10.7783 10.2021 10.7783 10.2021L10.7513 10.2051Z" fill="url(#paint24_linear_346_10231)"/>
<path d="M10.7581 10.2095L11.6809 8.68802L13.8837 7.71718L16.0745 6.78386L16.3131 6.68182L16.5516 6.57978L16.7902 6.47775L17.0288 6.37571L17.2674 6.27368L17.506 6.17164L17.7446 6.06961L17.9831 5.96757L18.2217 5.86554L18.4603 5.7635L18.6989 5.66146L18.9375 5.55943L19.1761 5.45739L19.3981 5.36286L19.4131 5.34785L19.6472 5.11677L19.8813 4.88569L20.1154 4.65461L20.3495 4.42353L20.5835 4.19245L20.8176 3.96137L20.9242 3.85633L21.0547 3.84133L21.2948 3.81282L21.5349 3.78431L21.775 3.7558L22.015 3.72729L22.2551 3.69878L22.4952 3.67027L22.7353 3.64176L22.9754 3.61325L23.2155 3.58474L23.4555 3.55623L23.6956 3.52772L23.9357 3.49921L24.1758 3.4707L24.4159 3.44219L24.656 3.41368L24.8961 3.38517L25.1361 3.35666L25.3762 3.32815L25.6163 3.29964L25.8564 3.27113L26.0965 3.24262L26.3366 3.21411L26.5766 3.1856L26.8167 3.15709L27.0568 3.12858L27.0823 3.12558C27.1558 3.13758 27.2279 3.15259 27.2984 3.16759C27.3824 3.1871 27.4634 3.20811 27.5415 3.23212C27.6255 3.25763 27.7065 3.28614 27.7846 3.31615C27.8701 3.34916 27.9511 3.38367 28.0276 3.42268C28.1147 3.4662 28.1957 3.51121 28.2722 3.56073C28.3593 3.61625 28.4418 3.67327 28.5183 3.73479C28.6083 3.80682 28.6909 3.88184 28.7644 3.95987C28.8574 4.0574 28.9415 4.15794 29.0135 4.26148C29.1155 4.40703 29.1996 4.55558 29.2656 4.70113C29.5267 5.26983 29.5402 5.78451 29.5342 5.85503C29.5192 6.07861 29.4366 6.31119 29.3136 6.54077C29.2461 6.66531 29.168 6.78836 29.0825 6.9084C29.009 7.01043 28.931 7.11097 28.8499 7.2085C28.7734 7.30004 28.6954 7.38707 28.6158 7.47109C28.5363 7.55512 28.4583 7.63615 28.3818 7.71118C28.2992 7.79071 28.2212 7.86573 28.1462 7.93326C28.0592 8.01278 27.9796 8.08181 27.9106 8.14033C27.7681 8.26187 27.675 8.3309 27.675 8.3309L27.4379 8.47194L27.2009 8.61149L26.9638 8.75104L26.7267 8.89059L26.4896 9.03014L26.2525 9.16969L26.0154 9.30924L25.8309 9.41877L25.7799 9.4848L25.5473 9.7819L25.3147 10.079L25.0821 10.3761L24.8495 10.6732L24.617 10.9703L24.3844 11.2674L24.1518 11.5645L23.9192 11.8616L23.6866 12.1587L23.454 12.4558L23.2215 12.7529L22.9889 13.05L22.7563 13.3471L22.5237 13.6442L22.2911 13.9414L22.2611 13.9804L22.0526 14.0389L21.814 14.1064L21.5754 14.1739L21.3368 14.2415L21.0982 14.309L20.8596 14.3765L20.6211 14.444L20.3825 14.5116L20.1439 14.5791L19.9053 14.6466L19.6667 14.7141L19.6517 14.7186L19.4311 14.8912L19.1956 15.0757L18.96 15.2603L18.7244 15.4449L18.4888 15.6294L18.2532 15.814L18.1152 15.922L18.0147 15.91L17.7731 15.88L17.5315 15.85L17.2899 15.82L17.0483 15.79L16.8067 15.76L16.5907 15.733L16.5651 15.7525L16.3296 15.9295L10.3305 20.4086L8.1187 21.0688L3.91574 23.048C3.91574 23.048 2.58027 22.3308 2.64479 20.9038C2.70932 19.4753 4.44692 16.2056 5.06664 14.7291C5.68635 13.2526 10.7731 10.2065 10.7731 10.2065L10.7581 10.2095Z" stroke="url(#paint25_linear_346_10231)" stroke-width="0.35" stroke-miterlimit="10"/>
<g opacity="0.59">
<path d="M32.3302 28.0103C31.6579 26.6823 31.2453 25.1878 31.4103 23.7128C31.6114 21.9152 32.6318 20.3276 33.3115 18.6485C34.6275 15.4044 34.656 11.6666 33.3895 8.40146" stroke="#72391E" stroke-width="0.68" stroke-miterlimit="10"/>
<path d="M30.8026 31.1074C31.2873 30.3376 30.9076 29.3487 30.6675 28.4724C30.1964 26.7573 30.3194 24.9357 30.6195 23.1831C30.9196 21.4305 31.3923 19.7094 31.6159 17.9463C31.7749 16.6948 31.8079 15.4209 32.123 14.198" stroke="#72391E" stroke-width="0.68" stroke-miterlimit="10"/>
<path d="M29.5361 32.5179C29.167 31.6386 29.251 30.9378 29.257 29.9865C29.2795 26.3282 30.3974 22.754 30.573 19.1002C30.675 16.9919 30.4604 14.8672 29.9382 12.8205" stroke="#72391E" stroke-width="0.68" stroke-miterlimit="10"/>
<path d="M30.2744 31.1089C27.7986 27.1925 27.4684 22.0277 29.4266 17.8352" stroke="#72391E" stroke-width="0.68" stroke-miterlimit="10"/>
<path d="M30.0117 31.7886C28.2291 30.3631 27.0017 28.2714 26.6325 26.0296C26.52 25.3453 26.484 24.6506 26.478 23.9574C26.4555 21.501 26.4285 21.6195 26.7646 19.1857" stroke="#72391E" stroke-width="0.68" stroke-miterlimit="10"/>
<path d="M36.9219 15.1823C37.1995 17.6987 36.3202 17.6312 36.1131 18.8481C35.9001 20.104 35.9076 21.4485 35.2488 22.5409C34.9382 23.0556 34.4971 23.4787 34.1324 23.9574C33.4767 24.8187 33.0746 25.866 32.986 26.9404C33.0341 26.4362 33.1106 26.0851 33.3612 25.6215C33.7903 24.8262 34.7942 24.5036 35.1198 23.5477C35.2323 23.2176 35.2593 22.8665 35.2848 22.5184C35.5099 19.5278 35.7335 16.5373 35.9586 13.5468" stroke="#72391E" stroke-width="0.68" stroke-miterlimit="10"/>
<path d="M35.127 13.5768C34.9289 15.5169 34.7218 17.4961 33.925 19.2787C33.4659 20.3081 32.8086 21.2789 32.6541 22.3938C32.5656 23.0376 32.6496 23.6978 32.5371 24.3385C32.423 24.9792 32.0314 25.6425 31.3907 25.7805" stroke="#72391E" stroke-width="0.68" stroke-miterlimit="10"/>
<path d="M25.2832 34.6501C25.1842 33.5517 24.596 32.5058 23.7047 31.8441C22.8419 31.2049 21.7285 30.9198 20.9602 30.1695C20.3255 29.5498 20.0014 28.672 19.8948 27.7972C19.7583 26.6748 19.9744 25.5539 19.9338 24.4315" stroke="#72391E" stroke-width="0.68" stroke-miterlimit="10"/>
<path d="M23.2125 35.2698C22.6513 33.8563 22.7969 32.2583 23.193 30.7893C23.5876 29.3217 24.2179 27.9248 24.6215 26.4587C25.1497 24.5411 25.2787 22.5169 25.0011 20.5482" stroke="#72391E" stroke-width="0.68" stroke-miterlimit="10"/>
<path d="M24.8301 34.9202C22.7924 31.0563 22.9319 27.065 21.7375 22.8695C21.6205 22.4583 21.3519 21.9557 20.9272 22.0277" stroke="#72391E" stroke-width="0.68" stroke-miterlimit="10"/>
<path d="M24.1113 35.1003C23.229 34.365 22.8554 33.6688 21.8816 32.983C20.5791 32.0662 18.939 31.607 17.8541 30.4441C17.4475 30.009 17.1384 29.4928 16.8668 28.9646C16.4647 28.1843 16.139 27.233 16.5487 26.4572" stroke="#72391E" stroke-width="0.68" stroke-miterlimit="10"/>
<path d="M23.0654 35.5654C21.9055 34.5496 20.48 33.8818 19.2421 32.9605C16.3971 30.8403 14.7405 27.5451 13.183 24.3715" stroke="#72391E" stroke-width="0.68" stroke-miterlimit="10"/>
<path d="M12.4205 25.9531C12.392 27.0905 13.0207 28.1378 13.7005 29.0561C15.8162 31.9161 18.6552 34.245 21.8828 35.7725C20.2652 34.9892 18.1825 34.9997 16.5154 34.3245C13.5264 33.1106 11.0971 30.6107 9.98366 27.6066" stroke="#72391E" stroke-width="0.68" stroke-miterlimit="10"/>
<path d="M18.4902 35.6555C16.7121 35.5339 14.6399 35.1933 13.0793 34.341C10.569 32.968 7.98207 31.4555 6.46054 29.0472C6.17394 28.594 5.93086 27.9968 6.22346 27.5466" stroke="#72391E" stroke-width="0.68" stroke-miterlimit="10"/>
<path d="M20.6484 35.819C19.3745 35.852 18.3241 35.801 17.2543 35.687C16.0403 35.5564 15.0995 35.3223 13.9171 35.0192C12.5126 34.6591 11.2041 34.0619 10.2078 33.5322C9.30148 33.0506 8.72378 32.6229 7.95251 32.1427C7.02969 31.568 6.29143 30.8448 5.46164 30.1425C5.17654 29.901 4.83893 29.4703 4.61985 29.1702" stroke="#72391E" stroke-width="0.68" stroke-miterlimit="10"/>
<path d="M20.6152 35.8355C17.7207 34.0079 15.2419 31.6521 13.6963 28.615C12.7165 26.6913 12.9115 27.1985 11.6871 25.4189" stroke="#72391E" stroke-width="0.68" stroke-miterlimit="10"/>
<path d="M22.2832 35.639C20.274 33.8743 18.808 31.6626 17.9812 29.0727C17.2895 26.9074 16.8993 24.6266 15.858 22.6024" stroke="#72391E" stroke-width="0.68" stroke-miterlimit="10"/>
<path d="M22.4609 34.497C21.3806 32.9875 20.8299 31.1134 20.9199 29.2662C20.9769 28.1003 21.28 26.9224 21.0324 25.7805C20.8764 25.0603 20.5088 24.4045 20.1471 23.7608" stroke="#72391E" stroke-width="0.68" stroke-miterlimit="10"/>
<path d="M25.791 34.35C24.8442 33.5037 24.4556 32.2163 24.1855 30.9828C23.5177 27.9353 23.3197 24.7872 23.5988 21.6811" stroke="#72391E" stroke-width="0.68" stroke-miterlimit="10"/>
<path d="M27.3994 33.7633C26.094 31.532 25.6918 28.7966 26.3025 26.2892C26.5876 25.1143 27.0888 23.9289 26.8667 22.7419C26.7092 21.9017 26.205 21.1709 25.7128 20.4687" stroke="#72391E" stroke-width="0.68" stroke-miterlimit="10"/>
<path d="M29.1935 32.797C28.7239 30.2266 28.7284 28.2789 28.9895 25.68C29.213 23.4472 29.7082 21.2144 29.4876 18.9817" stroke="#72391E" stroke-width="0.68" stroke-miterlimit="10"/>
<path d="M31.2686 31.1944C30.7029 29.3653 31.3871 27.6937 31.9138 25.8525C32.4405 24.0129 33.0722 22.1387 32.9011 20.2331C32.7946 19.0477 32.3805 17.9028 32.3069 16.7159" stroke="#72391E" stroke-width="0.68" stroke-miterlimit="10"/>
<path d="M32.8143 29.8139C33.3335 24.8817 33.0964 19.8474 34.2608 15.0263C34.4484 14.2505 34.6765 13.4717 35.0996 12.795" stroke="#72391E" stroke-width="0.68" stroke-miterlimit="10"/>
<path d="M34.1261 25.5539C34.9184 23.2911 35.268 20.8783 35.1479 18.485C35.0924 17.3641 34.9334 16.2432 35.0069 15.1223C35.0789 14.0014 35.4105 12.8505 36.1953 12.0417" stroke="#72391E" stroke-width="0.68" stroke-miterlimit="10"/>
<path d="M35.238 10.6657C35.9342 11.8376 35.9748 13.5317 36.1173 14.8522C36.2869 16.4398 36.3109 18.0588 35.9507 19.6239C35.5951 21.1709 34.8809 22.6084 34.3407 24.1014C33.8005 25.5944 33.3188 26.9869 33.6865 28.531C33.5889 26.1781 33.2813 24.8007 33.6684 22.7254C34.0571 20.6517 34.6348 18.6095 34.8854 16.5148C34.9529 15.9491 34.9949 15.3714 34.8674 14.8162C34.7383 14.261 34.4142 13.7268 33.9055 13.4642" stroke="#492112" stroke-width="0.68" stroke-miterlimit="10"/>
<path d="M32.6436 29.4868C31.8573 28.4244 31.8063 26.9884 32.0269 25.6905C32.2475 24.391 32.7051 23.1336 32.8297 21.8221C33.0247 19.7589 32.3825 17.7182 31.7478 15.7435" stroke="#492112" stroke-width="0.68" stroke-miterlimit="10"/>
<path d="M31.3625 30.5222C30.6527 29.6969 30.3001 28.6105 30.2386 27.5271C30.1771 26.4452 30.3916 25.3634 30.7113 24.3265C30.9318 23.6137 31.2034 22.91 31.31 22.1717C31.6161 20.032 30.4952 17.8952 30.7022 15.7435" stroke="#492112" stroke-width="0.68" stroke-miterlimit="10"/>
<path d="M29.7419 31.1524C29.0921 27.4161 29.9174 23.5958 30.8402 19.918C31.0143 19.2232 31.1193 18.3289 30.5146 17.9388" stroke="#492112" stroke-width="0.68" stroke-miterlimit="10"/>
<path d="M28.8958 31.319C28.1861 29.6954 27.973 27.8618 28.2926 26.1211C28.6183 24.3505 29.4781 22.6789 29.5576 20.8813C29.5846 20.2751 29.433 19.5429 28.8613 19.3283" stroke="#492112" stroke-width="0.68" stroke-miterlimit="10"/>
<path d="M28.5198 33.3236C27.3374 29.1056 27.4499 24.5411 28.8379 20.3861" stroke="#492112" stroke-width="0.68" stroke-miterlimit="10"/>
<path d="M24.0969 21.7831C24.64 22.4974 24.7601 23.4337 24.8576 24.3235C25.0857 26.4017 25.2973 28.4814 25.4923 30.5642C25.6244 31.9792 25.7489 33.4122 25.5389 34.8182" stroke="#492112" stroke-width="0.68" stroke-miterlimit="10"/>
<path d="M16.7006 22.8695C16.3645 23.4337 16.3945 24.1554 16.6226 24.7706C16.8492 25.3859 17.2528 25.92 17.6505 26.4437C20.0288 29.5753 22.5587 32.8239 26.1494 34.4655C23.6871 31.598 21.8864 27.4941 21.1047 23.8103" stroke="#492112" stroke-width="0.68" stroke-miterlimit="10"/>
<path d="M34.3529 27.6457C35.9164 24.0459 36.7612 20.1416 36.8227 16.2222C36.8407 15.1043 36.7747 13.9204 36.152 12.9886" stroke="#492112" stroke-width="0.68" stroke-miterlimit="10"/>
<path d="M33.6747 26.2532C34.4699 22.5829 35.2682 18.8001 34.5975 15.1058C34.4399 14.237 34.1398 13.2976 33.3776 12.843" stroke="#492112" stroke-width="0.68" stroke-miterlimit="10"/>
<path d="M32.338 28.1618C32.5151 23.1396 32.5361 18.1113 32.4041 13.0876" stroke="#492112" stroke-width="0.68" stroke-miterlimit="10"/>
<path d="M28.3083 31.7766C28.3413 27.221 28.3638 22.5979 27.1529 18.2044" stroke="#492112" stroke-width="0.68" stroke-miterlimit="10"/>
<path d="M26.9082 32.962C26.6861 30.2386 26.464 27.5136 26.0649 24.8097C25.8323 23.2356 25.5232 21.6225 24.6514 20.2856" stroke="#492112" stroke-width="0.68" stroke-miterlimit="10"/>
<path d="M25.9238 34.4055C25.2681 32.3243 24.857 30.1755 24.2387 28.0823C23.6205 25.9906 22.7742 23.9214 21.3682 22.2438" stroke="#492112" stroke-width="0.68" stroke-miterlimit="10"/>
<path d="M24.9609 34.8392C23.3239 30.0885 21.2066 25.9846 18.3856 21.8161" stroke="#492112" stroke-width="0.68" stroke-miterlimit="10"/>
<path d="M24.2373 34.329C19.8903 32.3513 15.7008 29.5453 13.387 25.3949" stroke="#492112" stroke-width="0.68" stroke-miterlimit="10"/>
<path d="M25.2699 34.3965C25.7635 34.5511 26.2767 34.269 26.7119 33.9899C30.049 31.8516 33.2151 29.1432 34.7622 25.5134C35.9476 22.7315 36.0886 19.6074 35.736 16.6078" stroke="#492112" stroke-width="0.68" stroke-miterlimit="10"/>
<path d="M33.3518 27.5511C34.2597 25.5689 35.169 23.5792 35.8157 21.498C36.4609 19.4168 36.8391 17.229 36.656 15.0593C36.554 13.8589 36.2223 12.5744 35.268 11.8271" stroke="#492112" stroke-width="0.68" stroke-miterlimit="10"/>
<path d="M31.0081 29.9114C31.7914 26.7363 32.3901 23.5177 32.8012 20.2736C32.9138 19.3898 33.0113 18.491 32.8672 17.6117C32.7247 16.7324 32.3105 15.8606 31.5798 15.3414" stroke="#492112" stroke-width="0.68" stroke-miterlimit="10"/>
<path d="M26.7627 32.1022C27.1528 29.6128 27.543 27.125 27.9331 24.6356C28.1492 23.2536 28.3668 21.8581 28.2767 20.4626C28.1867 19.0672 28.8965 18.7671 27.9691 17.7122" stroke="#492112" stroke-width="0.68" stroke-miterlimit="10"/>
<path d="M24.2441 32.986C24.6252 28.6075 24.8263 24.214 24.8428 19.8189" stroke="#492112" stroke-width="0.68" stroke-miterlimit="10"/>
<path d="M22.2539 34.0499C21.196 29.2827 20.6829 25.809 20.8899 20.9323" stroke="#492112" stroke-width="0.68" stroke-miterlimit="10"/>
<path d="M18.3418 34.6876C16.7753 31.3775 15.6018 27.8842 14.8561 24.304" stroke="#492112" stroke-width="0.68" stroke-miterlimit="10"/>
<path d="M18.3008 35.3883C15.8354 33.8608 13.3356 32.3063 11.3909 30.165C10.9137 29.6398 10.456 29.0456 10.3495 28.3449" stroke="#492112" stroke-width="0.68" stroke-miterlimit="10"/>
<path d="M20.2656 34.2885C16.5908 35.5369 12.67 34.9382 9.27579 33.058C8.21342 32.4698 6.79843 31.5845 6.22073 30.6887" stroke="#492112" stroke-width="0.68" stroke-miterlimit="10"/>
<path d="M28.1208 33.0655C28.0773 33.028 28.0668 33.1541 28.1253 33.1436C28.1838 33.1331 28.1988 33.061 28.2018 33.0025C28.4239 28.7395 27.9842 24.445 26.9024 20.3126" stroke="#492112" stroke-width="0.68" stroke-miterlimit="10"/>
<path style="mix-blend-mode:multiply" opacity="0.32" d="M29.9905 32.1307C29.992 28.0433 30.133 23.9559 30.4121 19.8774L29.9905 32.1307Z" fill="url(#paint26_linear_346_10231)"/>
<path d="M33.5727 28.663C34.5855 24.7736 35.3718 21.6045 35.4798 17.6521C35.5324 15.7285 35.4753 13.7703 34.8901 11.9352" stroke="#916436" stroke-width="0.68" stroke-miterlimit="10"/>
<path d="M32.7015 29.8574C33.5508 25.0573 34.4001 20.11 33.3453 15.3489" stroke="#916436" stroke-width="0.68" stroke-miterlimit="10"/>
<path d="M31.3273 30.7352C32.1481 26.8504 32.9689 22.8185 32.0716 18.9516" stroke="#916436" stroke-width="0.68" stroke-miterlimit="10"/>
<path d="M30.4053 31.2214C30.2507 26.7889 30.0977 22.3548 29.9431 17.9223" stroke="#916436" stroke-width="0.68" stroke-miterlimit="10"/>
<path d="M27.6031 20.6172C27.1934 24.298 27.9572 28.1003 29.7578 31.3475C27.8897 29.5528 25.864 28.2804 24.611 26.0191C23.9298 24.7917 23.4511 23.3107 23.9553 22.0037" stroke="#916436" stroke-width="0.68" stroke-miterlimit="10"/>
<path d="M29.4248 31.6626C27.9063 31.3489 26.3487 31.0203 25.0403 30.195C24.5586 29.8919 24.1205 29.5258 23.7003 29.1447C21.3325 27.0034 19.4073 24.1885 19.0832 21.0284" stroke="#916436" stroke-width="0.68" stroke-miterlimit="10"/>
<path d="M30.0762 32.1758C27.6783 31.6326 25.6346 31.3024 23.3748 30.3376C21.115 29.3743 18.9903 27.9938 17.4763 26.0716" stroke="#916436" stroke-width="0.68" stroke-miterlimit="10"/>
<path d="M28.5107 32.4608C25.6027 33.064 22.5207 33.6582 19.7162 32.6859C18.2352 32.1727 16.9102 31.2289 15.9454 30.003" stroke="#916436" stroke-width="0.68" stroke-miterlimit="10"/>
<path d="M28.2314 33.4737C24.5207 33.5412 20.7453 33.6027 17.1726 32.6019C16.0877 32.2988 14.9983 31.8786 14.185 31.1059" stroke="#916436" stroke-width="0.68" stroke-miterlimit="10"/>
<path d="M27.3447 32.4308C25.7857 33.0806 24.1816 33.6253 22.5476 34.0589C21.5497 34.3245 20.5263 34.5496 19.4925 34.5181C18.6312 34.4926 17.7864 34.2885 16.9536 34.0724C15.6436 33.7333 14.2962 33.3357 13.2713 32.4549" stroke="#916436" stroke-width="0.68" stroke-miterlimit="10"/>
<path d="M29.1982 32.4879C26.5903 32.4579 23.9929 32.8675 21.3865 32.827C18.7801 32.7865 16.0552 32.2358 14.0685 30.5597" stroke="#916436" stroke-width="0.68" stroke-miterlimit="10"/>
<path d="M28.6953 31.5665C26.2825 32.2943 23.6926 32.3828 21.2047 31.9642C19.2435 31.634 17.2223 30.9153 15.9994 29.3607" stroke="#916436" stroke-width="0.68" stroke-miterlimit="10"/>
<path d="M29.6455 31.5335C26.2858 29.5033 23.2833 26.8939 20.8104 23.8598" stroke="#916436" stroke-width="0.68" stroke-miterlimit="10"/>
<path d="M30.958 31.457C29.1979 29.1627 27.6554 26.9449 26.1743 24.4631C25.6492 23.5837 25.124 22.5784 25.3671 21.5865" stroke="#916436" stroke-width="0.68" stroke-miterlimit="10"/>
<path d="M31.5635 30.8688C29.4672 26.8294 28.0237 22.871 26.9209 18.4625" stroke="#916436" stroke-width="0.68" stroke-miterlimit="10"/>
<path d="M31.916 30.3901C31.0892 26.5623 30.7621 22.6279 30.9482 18.719" stroke="#916436" stroke-width="0.68" stroke-miterlimit="10"/>
<path d="M32.5771 29.1882C33.0137 24.8337 33.4444 20.3846 32.43 16.1261" stroke="#916436" stroke-width="0.68" stroke-miterlimit="10"/>
<path d="M33.5231 28.501C34.3424 25.6395 35.0566 22.748 35.6629 19.8355C35.921 18.599 36.107 17.157 35.2592 16.2147" stroke="#916436" stroke-width="0.68" stroke-miterlimit="10"/>
<path d="M34.6285 26.0806C35.6879 22.9595 36.6287 19.6299 35.9325 16.4097C35.6834 15.2573 35.1852 14.0944 34.2324 13.3892" stroke="#916436" stroke-width="0.68" stroke-miterlimit="10"/>
<path d="M31.0547 28.3824C30.5445 24.349 30.2024 20.2961 30.0268 16.2357" stroke="#916436" stroke-width="0.68" stroke-miterlimit="10"/>
<path d="M28.7227 30.2236C28.3685 28.3779 28.0114 26.5218 27.3602 24.7587C26.7075 22.9941 25.7411 21.309 24.3291 20.056" stroke="#916436" stroke-width="0.68" stroke-miterlimit="10"/>
<path d="M29.1064 32.1697C25.7603 31.5215 23.0398 29.1867 20.4919 26.9374" stroke="#916436" stroke-width="0.68" stroke-miterlimit="10"/>
<path d="M32.9512 28.9962C31.5152 30.7278 29.461 31.8562 27.3437 32.6439C25.2265 33.4317 22.8421 33.9119 20.7234 33.1241" stroke="#916436" stroke-width="0.68" stroke-miterlimit="10"/>
<path d="M30.9111 31.2169C28.8539 32.911 26.285 33.9869 23.6246 34.2675C20.9642 34.5481 18.2242 34.0319 15.8519 32.8044" stroke="#916436" stroke-width="0.68" stroke-miterlimit="10"/>
<path d="M28.6055 33.1886C26.5633 34.5931 24.5751 35.1033 22.4038 35.5729C20.2325 36.0426 17.9127 36.0846 15.833 35.3043" stroke="#916436" stroke-width="0.68" stroke-miterlimit="10"/>
<path d="M24.8799 34.8557C22.7386 35.5099 20.4683 36.1941 18.3121 35.8505C16.1558 35.5069 14.0671 34.6501 12.382 33.2726" stroke="#916436" stroke-width="0.68" stroke-miterlimit="10"/>
<path d="M27.7607 33.5187C28.613 33.3177 29.2598 32.6469 29.8435 32.0002C30.9568 30.7638 32.0312 29.4928 33.0651 28.1904C33.5107 27.6292 34.162 27.011 34.4036 26.3312C34.6061 25.7625 34.7097 25.1023 34.8747 24.5126C35.4929 22.3038 35.9971 20.0635 36.3857 17.8037" stroke="#916436" stroke-width="0.68" stroke-miterlimit="10"/>
<path d="M32.6133 29.7479C30.4945 32.4668 27.609 34.0079 24.716 34.9382" stroke="#916436" stroke-width="0.68" stroke-miterlimit="10"/>
<path d="M31.3994 30.9993C29.0541 32.3963 26.8663 33.9013 24.353 34.9727C23.5187 35.3283 22.6364 35.672 21.7315 35.5939" stroke="#916436" stroke-width="0.68" stroke-miterlimit="10"/>
<path d="M15.9052 28.1949C17.4057 29.8875 19.5814 30.8793 21.8037 31.3505C23.2232 31.6521 24.6757 31.7586 26.1237 31.7976C26.769 31.8141 27.5627 31.9372 28.1944 31.8066C28.6416 31.7151 29.0588 31.4195 29.4834 31.2484C26.4718 29.3338 23.8339 26.9029 21.3956 24.307" stroke="#916436" stroke-width="0.68" stroke-miterlimit="10"/>
<path d="M30.166 30.021C28.1598 27.1415 26.3367 24.1359 24.7116 21.0284" stroke="#916436" stroke-width="0.68" stroke-miterlimit="10"/>
<path d="M29.8701 28.5505C29.573 26.7303 29.2579 24.9117 28.9278 23.0976C28.8438 22.6384 28.7567 22.1703 28.5302 21.7621" stroke="#916436" stroke-width="0.68" stroke-miterlimit="10"/>
<path d="M30.1927 30.4036C30.5153 26.7424 30.8184 22.9325 29.4994 19.4978" stroke="#916436" stroke-width="0.68" stroke-miterlimit="10"/>
<path d="M31.5049 28.492C32.1772 25.8165 32.6903 23.1036 33.043 20.3681" stroke="#916436" stroke-width="0.68" stroke-miterlimit="10"/>
<path d="M32.6011 28.579C32.9042 25.8 33.2088 23.0211 33.5119 20.2436C33.6365 19.1032 33.7535 17.9043 33.3079 16.8449" stroke="#916436" stroke-width="0.68" stroke-miterlimit="10"/>
<path d="M32.6523 29.5453C33.9923 25.0362 35.3458 20.3426 34.6 15.6985" stroke="#916436" stroke-width="0.68" stroke-miterlimit="10"/>
<path d="M31.8448 30.4501C32.6371 26.0086 33.0857 21.507 33.1848 16.998C33.2313 14.9077 33.1968 12.783 32.5996 10.7783" stroke="#916436" stroke-width="0.68" stroke-miterlimit="10"/>
<path d="M30.3857 30.5567C28.6781 25.6695 28.3855 20.3066 29.5485 15.2679" stroke="#916436" stroke-width="0.68" stroke-miterlimit="10"/>
<path d="M30.5186 31.1734C26.9113 29.0532 23.7647 26.1662 21.3534 22.7645" stroke="#916436" stroke-width="0.68" stroke-miterlimit="10"/>
<path d="M30.502 31.8021C28.1386 31.4135 25.7423 31.0143 23.565 30.0255C22.5102 29.5468 21.5213 28.9346 20.558 28.2924C18.1556 26.6898 16.4856 25.623 14.7375 23.3347" stroke="#916436" stroke-width="0.68" stroke-miterlimit="10"/>
<path d="M29.5527 32.5674C23.5716 32.0227 17.6326 31.3039 12.6598 27.9622" stroke="#916436" stroke-width="0.68" stroke-miterlimit="10"/>
<path d="M27.084 33.8638C21.8066 34.8812 16.1302 33.6778 11.7336 30.6092" stroke="#916436" stroke-width="0.68" stroke-miterlimit="10"/>
<path d="M24.8965 34.9202C22.8048 35.4109 20.65 36.0276 18.5898 35.9991C18.0151 35.9916 17.4374 35.9765 16.8702 35.882C16.0989 35.753 15.3607 35.4799 14.6389 35.1828C12.3626 34.2434 10.1163 32.983 8.69384 30.9858" stroke="#916436" stroke-width="0.68" stroke-miterlimit="10"/>
<path d="M33.0348 29.3668C36.1168 25.1983 37.4103 19.7724 36.54 14.6736" stroke="#916436" stroke-width="0.68" stroke-miterlimit="10"/>
<path d="M35.664 13.0816C35.8666 18.7821 34.4216 24.7542 32.3298 30.0675C33.5018 29.0322 34.3781 27.5812 35.0593 26.1782C36.0496 24.1375 36.6844 22.1358 36.9545 19.888C37.2246 17.6402 37.028 14.9197 36.0721 12.8625" stroke="#916436" stroke-width="0.68" stroke-miterlimit="10"/>
<path d="M33.7315 13.9969C33.8561 19.6494 33.0578 25.3214 31.3787 30.7247C31.1521 31.451 30.1423 32.0617 29.3575 32.6664" stroke="#916436" stroke-width="0.68" stroke-miterlimit="10"/>
<path d="M30.7617 17.0294C30.9283 19.6149 31.0949 22.2093 30.9013 24.7917C30.7062 27.3741 30.1375 29.9625 28.9086 32.2478C28.769 32.5058 28.6145 32.7684 28.3744 32.938" stroke="#916436" stroke-width="0.68" stroke-miterlimit="10"/>
<path d="M29.7285 21.1364C29.4614 24.3985 28.9422 27.6351 28.3255 30.8493C28.18 31.6115 28.0254 32.3798 27.7013 33.0851C27.3772 33.7903 26.4664 34.2525 25.7641 34.5931" stroke="#916436" stroke-width="0.68" stroke-miterlimit="10"/>
<path d="M30.2041 31.6205C27.9338 28.1829 25.5825 24.7977 23.1531 21.4695" stroke="#916436" stroke-width="0.68" stroke-miterlimit="10"/>
<path d="M28.8252 31.1074C24.8863 29.7524 21.3766 27.194 18.8977 23.8703" stroke="#916436" stroke-width="0.68" stroke-miterlimit="10"/>
<path d="M27.459 31.8906C26.9533 31.7241 26.5032 31.4585 25.9885 31.3504C25.2997 31.2049 24.5765 31.1599 23.8802 31.0503C22.4817 30.8313 21.0878 30.5642 19.7268 30.1725C17.5045 29.5318 15.3498 28.537 13.6302 27.0004" stroke="#916436" stroke-width="0.68" stroke-miterlimit="10"/>
<path d="M26.8857 33.8803C25.6658 30.6347 27.0073 26.9644 26.314 23.5702C26.056 22.3023 25.5128 21.0824 25.4783 19.7889" stroke="#492112" stroke-width="0.68" stroke-miterlimit="10"/>
<path d="M20.4963 21.0689C19.9035 21.7696 19.8705 22.775 19.9591 23.6858C20.1601 25.7625 20.8684 27.7807 21.9683 29.5573C22.5355 30.4742 23.2077 31.3265 23.97 32.0902C24.3391 32.4609 24.7307 32.8105 25.1404 33.1361C25.4285 33.3657 25.9852 33.6208 26.1367 33.9359C25.478 34.2435 24.198 34.26 23.4763 34.299C22.1558 34.371 20.8219 34.1384 19.5899 33.6673C17.7083 32.9485 16.0622 31.7001 14.7072 30.2176C14.0065 29.4508 13.3583 28.5775 13.1632 27.5601" stroke="#492112" stroke-width="0.68" stroke-miterlimit="10"/>
<path d="M8.44294 30.7292C8.83458 31.574 9.61635 32.1757 10.4191 32.6574C12.5499 33.9358 15.0122 34.6051 17.4896 34.8692C19.9655 35.1348 22.4683 35.0117 24.9502 34.8001C22.9095 34.0124 20.5522 32.3153 19.0006 30.7817C17.4491 29.2497 16.1316 27.5001 14.8697 25.7265C14.4916 25.1938 14.1014 24.6101 14.1164 23.9589" stroke="#492112" stroke-width="0.68" stroke-miterlimit="10"/>
<path d="M30.1198 30.4486C30.627 26.0086 30.768 21.4575 29.6637 17.1255C29.4311 16.2162 29.2105 15.5409 28.6388 14.6421" stroke="#492112" stroke-width="0.68" stroke-miterlimit="10"/>
<path d="M22.666 35.4979C19.4339 34.9472 16.1192 34.368 13.2952 32.7129C12.1579 32.0467 11.1195 31.2139 10.2252 30.2506C9.26034 29.2107 8.42905 27.9128 8.48007 26.5008" stroke="#492112" stroke-width="0.68" stroke-miterlimit="10"/>
<path d="M32.2161 27.7747C32.8058 25.1488 33.397 22.5214 33.9867 19.8955C34.2283 18.8196 34.4714 17.7287 34.4324 16.6258C34.3934 15.5229 34.0407 14.39 33.244 13.6203" stroke="#492112" stroke-width="0.68" stroke-miterlimit="10"/>
<path d="M29.4531 30.4516C29.8958 28.3254 30.3384 26.2007 30.7811 24.0744C31.0842 22.6159 31.3903 21.1439 31.3723 19.6539C31.3543 18.1639 30.9867 16.6363 30.0668 15.4569" stroke="#492112" stroke-width="0.68" stroke-miterlimit="10"/>
<path d="M19.7197 33.6042C18.1682 29.5108 17.4074 25.9936 17.3369 21.6226" stroke="#492112" stroke-width="0.68" stroke-miterlimit="10"/>
<path d="M19.752 32.7054C15.1033 32.2283 10.2942 31.508 6.4048 28.9391" stroke="#492112" stroke-width="0.68" stroke-miterlimit="10"/>
</g>
<path style="mix-blend-mode:multiply" opacity="0.71" d="M32.4484 4.299C32.8911 4.85419 33.3097 5.4364 33.7044 6.04561C39.7215 15.3579 37.5832 27.4791 28.9267 33.1195C20.2717 38.76 8.37703 35.783 2.35843 26.4692C1.75222 25.5314 1.23004 24.5666 0.788883 23.5807L9.11979 25.2913C9.68248 25.4069 10.2662 25.3468 10.7929 25.1203L18.6106 21.7201C21.0429 21.3224 25.6646 20.4821 27.063 18.4519L29.9395 14.0944C31.4941 12.9375 31.0019 10.7032 31.4281 8.81257L32.4484 4.293V4.299Z" fill="url(#paint27_linear_346_10231)"/>
<defs>
<linearGradient id="paint0_linear_346_10231" x1="23.3311" y1="35.5181" x2="16.141" y2="8.66533" gradientUnits="userSpaceOnUse">
<stop offset="0.14" stop-color="#683C11"/>
<stop offset="1" stop-color="#936037"/>
</linearGradient>
<linearGradient id="paint1_linear_346_10231" x1="23.3311" y1="35.5181" x2="16.141" y2="8.66533" gradientUnits="userSpaceOnUse">
<stop offset="0.14" stop-color="#683C11"/>
<stop offset="0.99" stop-color="#936037" stop-opacity="0"/>
</linearGradient>
<linearGradient id="paint2_linear_346_10231" x1="28.7941" y1="4.1256" x2="1.83744" y2="20.5477" gradientUnits="userSpaceOnUse">
<stop stop-color="#B2B2B2"/>
<stop offset="0.51" stop-color="#F6F6F6"/>
</linearGradient>
<linearGradient id="paint3_linear_346_10231" x1="28.8172" y1="4.11155" x2="1.81438" y2="20.5618" gradientUnits="userSpaceOnUse">
<stop offset="0.49" stop-color="white"/>
<stop offset="1" stop-color="white"/>
</linearGradient>
<linearGradient id="paint4_linear_346_10231" x1="33.3417" y1="15.4042" x2="21.5645" y2="12.2463" gradientUnits="userSpaceOnUse">
<stop offset="0.49" stop-color="#F6F6F6"/>
<stop offset="1" stop-color="#B2B2B2"/>
</linearGradient>
<linearGradient id="paint5_linear_346_10231" x1="27.6348" y1="17.2526" x2="18.7954" y2="14.8825" gradientUnits="userSpaceOnUse">
<stop offset="0.05" stop-color="#F6F6F6"/>
<stop offset="0.7" stop-color="#9D9D9C"/>
</linearGradient>
<linearGradient id="paint6_linear_346_10231" x1="23.9846" y1="17.9036" x2="17.6655" y2="16.2093" gradientUnits="userSpaceOnUse">
<stop offset="0.49" stop-color="#F6F6F6"/>
<stop offset="1" stop-color="#B2B2B2"/>
</linearGradient>
<linearGradient id="paint7_linear_346_10231" x1="20.1443" y1="20.7655" x2="18.4021" y2="14.2614" gradientUnits="userSpaceOnUse">
<stop offset="0.05" stop-color="#F6F6F6"/>
<stop offset="0.7" stop-color="#9D9D9C"/>
</linearGradient>
<linearGradient id="paint8_linear_346_10231" x1="16.5288" y1="25.5177" x2="13.7261" y2="15.0489" gradientUnits="userSpaceOnUse">
<stop offset="0.49" stop-color="#F6F6F6"/>
<stop offset="1" stop-color="#B2B2B2"/>
</linearGradient>
<linearGradient id="paint9_linear_346_10231" x1="11.2566" y1="26.9285" x2="9.13113" y2="18.9917" gradientUnits="userSpaceOnUse">
<stop offset="0.05" stop-color="#F6F6F6"/>
<stop offset="0.7" stop-color="#9D9D9C"/>
</linearGradient>
<linearGradient id="paint10_linear_346_10231" x1="7.45988" y1="27.6967" x2="5.42071" y2="20.0814" gradientUnits="userSpaceOnUse">
<stop offset="0.49" stop-color="#F6F6F6"/>
<stop offset="1" stop-color="#B2B2B2"/>
</linearGradient>
<linearGradient id="paint11_linear_346_10231" x1="3.94085" y1="26.4503" x2="-0.0519074" y2="11.5378" gradientUnits="userSpaceOnUse">
<stop offset="0.05" stop-color="#F6F6F6"/>
<stop offset="0.7" stop-color="#9D9D9C"/>
</linearGradient>
<linearGradient id="paint12_linear_346_10231" x1="5.56939" y1="14.4138" x2="3.81014" y2="7.84606" gradientUnits="userSpaceOnUse">
<stop offset="0.49" stop-color="#F6F6F6"/>
<stop offset="1" stop-color="#B2B2B2"/>
</linearGradient>
<linearGradient id="paint13_linear_346_10231" x1="10.18" y1="11.8842" x2="8.03745" y2="3.88387" gradientUnits="userSpaceOnUse">
<stop offset="0.05" stop-color="#F6F6F6"/>
<stop offset="0.7" stop-color="#9D9D9C"/>
</linearGradient>
<linearGradient id="paint14_linear_346_10231" x1="13.6427" y1="8.38515" x2="11.9954" y2="2.23423" gradientUnits="userSpaceOnUse">
<stop offset="0.49" stop-color="#F6F6F6"/>
<stop offset="1" stop-color="#B2B2B2"/>
</linearGradient>
<linearGradient id="paint15_linear_346_10231" x1="21.5289" y1="3.67058" x2="16.7172" y2="2.38037" gradientUnits="userSpaceOnUse">
<stop offset="0.05" stop-color="#F6F6F6"/>
<stop offset="0.7" stop-color="#9D9D9C"/>
</linearGradient>
<linearGradient id="paint16_linear_346_10231" x1="27.5493" y1="3.05405" x2="17.6895" y2="0.410289" gradientUnits="userSpaceOnUse">
<stop offset="0.49" stop-color="#F6F6F6"/>
<stop offset="1" stop-color="#B2B2B2"/>
</linearGradient>
<linearGradient id="paint17_linear_346_10231" x1="33.9912" y1="13.5542" x2="21.2803" y2="13.5542" gradientUnits="userSpaceOnUse">
<stop offset="0.24" stop-color="#F6F6F6"/>
<stop offset="0.6" stop-color="white" stop-opacity="0"/>
</linearGradient>
<linearGradient id="paint18_linear_346_10231" x1="23.8721" y1="16.9469" x2="17.9885" y2="16.9469" gradientUnits="userSpaceOnUse">
<stop offset="0.49" stop-color="#F6F6F6"/>
<stop offset="1" stop-color="white" stop-opacity="0"/>
</linearGradient>
<linearGradient id="paint19_linear_346_10231" x1="18.0365" y1="22.7479" x2="10.975" y2="18.671" gradientUnits="userSpaceOnUse">
<stop offset="0.05" stop-color="#F6F6F6"/>
<stop offset="0.57" stop-color="white" stop-opacity="0"/>
</linearGradient>
<linearGradient id="paint20_linear_346_10231" x1="9.8623" y1="24.0309" x2="3.81069" y2="24.0309" gradientUnits="userSpaceOnUse">
<stop offset="0.49" stop-color="#F6F6F6"/>
<stop offset="1" stop-color="white" stop-opacity="0"/>
</linearGradient>
<linearGradient id="paint21_linear_346_10231" x1="11.0859" y1="10.7588" x2="-1.67601" y2="10.7588" gradientUnits="userSpaceOnUse">
<stop offset="0.49" stop-color="#F6F6F6"/>
<stop offset="1" stop-color="white" stop-opacity="0"/>
</linearGradient>
<linearGradient id="paint22_linear_346_10231" x1="14.8826" y1="8.67451" x2="10.5521" y2="1.1734" gradientUnits="userSpaceOnUse">
<stop stop-color="white" stop-opacity="0"/>
<stop offset="0.39" stop-color="#F6F6F6"/>
</linearGradient>
<linearGradient id="paint23_linear_346_10231" x1="28.2305" y1="1.67007" x2="17.9714" y2="1.67007" gradientUnits="userSpaceOnUse">
<stop offset="0.28" stop-color="white" stop-opacity="0"/>
<stop offset="0.51" stop-color="#F6F6F6"/>
</linearGradient>
<linearGradient id="paint24_linear_346_10231" x1="28.9014" y1="4.06337" x2="1.94347" y2="20.4863" gradientUnits="userSpaceOnUse">
<stop stop-color="#9D9D9C"/>
<stop offset="0.7" stop-color="#F6F6F6"/>
</linearGradient>
<linearGradient id="paint25_linear_346_10231" x1="26.8348" y1="16.1235" x2="5.35869" y2="10.3649" gradientUnits="userSpaceOnUse">
<stop offset="0.49" stop-color="white"/>
<stop offset="1" stop-color="white"/>
</linearGradient>
<linearGradient id="paint26_linear_346_10231" x1="30.2239" y1="26.278" x2="30.0829" y2="26.274" gradientUnits="userSpaceOnUse">
<stop offset="0.14" stop-color="#683C11"/>
<stop offset="0.99" stop-color="#936037" stop-opacity="0"/>
</linearGradient>
<linearGradient id="paint27_linear_346_10231" x1="23.3311" y1="35.5181" x2="16.141" y2="8.66532" gradientUnits="userSpaceOnUse">
<stop offset="0.06" stop-color="#6B3E13" stop-opacity="0.83"/>
<stop offset="0.5" stop-color="#936037" stop-opacity="0"/>
</linearGradient>
</defs>
</svg>
