<svg width="16" height="18" viewBox="0 0 16 18" fill="none" xmlns="http://www.w3.org/2000/svg">
<path d="M1.7998 8.2V11.4C1.7998 14.0399 1.7998 15.3598 2.61991 16.1799C3.44001 17 4.75994 17 7.3998 17H8.9998C11.6397 17 12.9596 17 13.7797 16.1799C14.5998 15.3598 14.5998 14.0399 14.5998 11.4V8.2" stroke="#FF6154" stroke-linecap="round" stroke-linejoin="round"/>
<path d="M1 6.6C1 6.00185 1 5.70277 1.16077 5.48C1.26609 5.33406 1.41758 5.21287 1.6 5.12862C1.87846 5 2.25231 5 3 5H13.4C14.1477 5 14.5215 5 14.8 5.12862C14.9824 5.21287 15.1339 5.33406 15.2392 5.48C15.4 5.70277 15.4 6.00185 15.4 6.6C15.4 7.19815 15.4 7.49723 15.2392 7.72C15.1339 7.86594 14.9824 7.98713 14.8 8.07138C14.5215 8.2 14.1477 8.2 13.4 8.2H3C2.25231 8.2 1.87846 8.2 1.6 8.07138C1.41758 7.98713 1.26609 7.86594 1.16077 7.72C1 7.49723 1 7.19815 1 6.6Z" stroke="#FF6154" stroke-linejoin="round"/>
<path d="M3.40039 2.42857C3.40039 1.63959 4.03998 1 4.82896 1H5.11468C6.81887 1 8.20039 2.38152 8.20039 4.08571V5H5.97182C4.55166 5 3.40039 3.84873 3.40039 2.42857Z" stroke="#FF6154" stroke-linejoin="round"/>
<path d="M13.0002 2.42857C13.0002 1.63959 12.3606 1 11.5716 1H11.2859C9.58172 1 8.2002 2.38152 8.2002 4.08571V5H10.4288C11.8489 5 13.0002 3.84873 13.0002 2.42857Z" stroke="#FF6154" stroke-linejoin="round"/>
<path d="M8.2002 8.2L8.2002 17" stroke="#FF6154" stroke-linecap="round" stroke-linejoin="round"/>
</svg>
