<svg width="73" height="73" viewBox="0 0 73 73" fill="none" xmlns="http://www.w3.org/2000/svg">
<g filter="url(#filter0_d_280_6343)">
<circle cx="36.5" cy="36.5" r="26.5" fill="#353535"/>
</g>
<path d="M25.7337 39.6838C25.4953 41.2007 26.5612 42.2535 27.8661 42.7782C32.8691 44.7897 39.8313 44.7897 44.8343 42.7782C46.1392 42.2535 47.2051 41.2007 46.9666 39.6838C46.8201 38.7517 46.0957 37.9755 45.559 37.2175C44.8559 36.2125 44.7861 35.1163 44.786 33.9501C44.786 29.4431 41.0091 25.7895 36.3502 25.7895C31.6912 25.7895 27.9144 29.4431 27.9144 33.9501C27.9143 35.1163 27.8445 36.2125 27.1414 37.2175C26.6047 37.9755 25.8803 38.7517 25.7337 39.6838Z" stroke="#BDBDBD" stroke-width="2.5" stroke-linecap="round" stroke-linejoin="round"/>
<path d="M32.9873 47.0895C33.8798 47.7866 35.0584 48.2105 36.3505 48.2105C37.6425 48.2105 38.8211 47.7866 39.7136 47.0895" stroke="#BDBDBD" stroke-width="2.5" stroke-linecap="round" stroke-linejoin="round"/>
<defs>
<filter id="filter0_d_280_6343" x="0" y="0" width="73" height="73" filterUnits="userSpaceOnUse" color-interpolation-filters="sRGB">
<feFlood flood-opacity="0" result="BackgroundImageFix"/>
<feColorMatrix in="SourceAlpha" type="matrix" values="0 0 0 0 0 0 0 0 0 0 0 0 0 0 0 0 0 0 127 0" result="hardAlpha"/>
<feOffset/>
<feGaussianBlur stdDeviation="5"/>
<feComposite in2="hardAlpha" operator="out"/>
<feColorMatrix type="matrix" values="0 0 0 0 0 0 0 0 0 0 0 0 0 0 0 0 0 0 0.05 0"/>
<feBlend mode="normal" in2="BackgroundImageFix" result="effect1_dropShadow_280_6343"/>
<feBlend mode="normal" in="SourceGraphic" in2="effect1_dropShadow_280_6343" result="shape"/>
</filter>
</defs>
</svg>
