<svg width="20" height="28" viewBox="0 0 20 28" fill="none" xmlns="http://www.w3.org/2000/svg">
<path d="M6.98999 27C5.17551 27 2.52214 25.1918 1.39975 22.2704C0.485503 19.8889 0.438197 17.0926 1.27114 14.5983C1.88403 12.7558 3.1126 11.2034 4.30052 9.7019C4.74415 9.14158 5.20285 8.56234 5.6188 7.97994L5.87425 7.61761C7.09862 5.88654 8.36468 4.09695 7.69783 1.72426C7.64107 1.52207 7.69994 1.30551 7.85097 1.16008C8.00165 1.01396 8.22136 0.963149 8.4204 1.02728C11.8296 2.11918 13.2432 5.7737 13.9213 8.20491C14.3554 7.43679 14.9435 6.76644 15.4123 6.45597C15.591 6.33648 15.8216 6.32912 16.0087 6.4353C16.1952 6.54147 16.3066 6.74331 16.2964 6.95812C16.2001 8.98039 16.7404 11.3702 17.7416 13.3519C17.8915 13.6497 18.0454 13.9364 18.1971 14.2188C18.8629 15.4617 19.4926 16.6353 19.5865 18.2234C19.7687 21.2987 18.2921 25.2255 14.6172 26.5809C14.3236 26.6878 13.6466 26.8378 13.0533 26.8378C11.6923 26.8378 11.5861 26.0206 11.5861 25.77C11.5882 25.1158 12.2014 24.7069 12.568 24.4623L12.699 24.3733C13.9363 23.4674 14.6193 21.6302 14.3173 20.0098C14.202 19.3938 13.9377 18.7729 13.6571 18.1155C13.3589 17.4157 13.055 16.7029 12.9156 15.9583C12.8718 16.042 12.8308 16.1296 12.7922 16.2218C12.5112 16.9125 12.3426 17.5485 12.2932 18.1078C12.2557 18.5297 12.3374 19.3735 12.459 19.5897C12.6815 19.7744 12.7323 20.102 12.5673 20.3469C12.391 20.6087 12.0374 20.677 11.7764 20.5011C11.7764 20.5008 11.7764 20.5008 11.7757 20.5004C11.7753 20.5004 11.775 20.5001 11.7746 20.5001C10.5573 19.6804 9.80841 18.6215 9.60797 17.4374C9.49794 16.7881 9.49198 16.1773 9.48637 15.5875C9.48462 15.4067 9.48252 15.2242 9.47831 15.0381C9.47271 14.8331 9.47201 14.6176 9.47095 14.3972C9.4678 13.4672 9.43872 12.6773 9.22601 12.0953C9.08339 12.8199 8.7554 13.5309 8.53989 13.9448C8.22662 14.5422 7.88215 14.9862 7.54855 15.4158C7.32183 15.7081 7.08705 16.0105 6.86138 16.3637C6.13216 17.497 4.61484 20.416 6.25376 23.0669C6.7906 23.9363 7.3758 24.3712 7.80296 24.6886C8.21645 24.9952 8.68426 25.3432 8.53744 25.9386C8.3815 26.6012 7.80226 27 6.98999 27ZM8.99859 2.51375C9.20884 4.87768 7.89091 6.74051 6.80461 8.27675L6.54916 8.63873C6.11359 9.24811 5.64648 9.83892 5.19409 10.4105C4.01528 11.8997 2.90164 13.307 2.35219 14.9592C1.6128 17.1742 1.6545 19.7547 2.46362 21.8621C3.4525 24.4363 5.76772 25.8601 6.98963 25.8601C7.19078 25.8601 7.29835 25.8236 7.35687 25.7805C7.28854 25.7255 7.20059 25.6603 7.12385 25.6032C6.65043 25.2518 5.93558 24.7205 5.2845 23.6654C3.89053 21.4105 4.1155 18.5244 5.90228 15.7473C6.15494 15.3521 6.40619 15.0286 6.64903 14.7161C6.96546 14.3082 7.26471 13.9224 7.53033 13.4167C8.10467 12.3122 8.32649 11.2522 8.03353 11.0055C7.82609 10.8306 7.77072 10.5338 7.90108 10.2962C8.03108 10.0579 8.31002 9.94509 8.56968 10.0253C10.5983 10.6526 10.6063 12.814 10.6116 14.3926C10.6123 14.6046 10.613 14.8114 10.6186 15.0087C10.6231 15.2014 10.6252 15.3899 10.627 15.5767C10.6326 16.1475 10.6379 16.6865 10.7325 17.2475C10.7994 17.6438 10.9508 17.9967 11.1477 18.3068C11.1498 18.1267 11.1582 18.0117 11.1586 18.0072C11.2178 17.3351 11.413 16.5883 11.7389 15.788C12.0472 15.0472 12.4716 14.564 12.9208 14.0524L13.1185 13.826C13.2944 13.622 13.5894 13.5702 13.8256 13.7002C14.0614 13.8309 14.1736 14.1088 14.0944 14.3663C13.7608 15.4505 14.2198 16.5277 14.7066 17.6683C14.9985 18.3534 15.3005 19.062 15.4382 19.8006C15.823 21.8622 14.9715 24.1231 13.3673 25.2977L13.2008 25.4108C13.1118 25.4704 12.9408 25.5843 12.8276 25.6849C12.8847 25.6922 12.9587 25.6978 13.054 25.6978C13.5229 25.6978 14.0741 25.5657 14.2247 25.5107C17.3526 24.3571 18.6074 20.9595 18.4487 18.291C18.3695 16.9531 17.8242 15.9355 17.1924 14.7574C17.0365 14.4666 16.8785 14.1715 16.7243 13.8659C15.8672 12.1692 15.3216 10.1897 15.1817 8.34333C14.6992 9.04557 14.3162 9.91671 14.4802 10.3502C14.4827 10.3568 14.4848 10.3624 14.4872 10.3691C14.4872 10.3698 14.4879 10.3698 14.4879 10.3709C14.4883 10.3712 14.4883 10.3723 14.4886 10.3726C14.4886 10.3733 14.489 10.374 14.489 10.3744C14.489 10.3744 14.489 10.3751 14.4897 10.3758C14.4897 10.3765 14.4897 10.3768 14.4897 10.3775C14.4897 10.3779 14.4897 10.3786 14.4904 10.3793C14.4904 10.3796 14.4911 10.38 14.4907 10.381C14.4911 10.3817 14.4918 10.3831 14.4914 10.3824C14.4914 10.3831 14.4918 10.3835 14.4918 10.3842C14.5594 10.6042 14.4893 10.8422 14.3243 10.989C14.3236 10.9893 14.3232 10.99 14.3229 10.9904C14.3225 10.9907 14.3222 10.9911 14.3215 10.9914C14.3211 10.9918 14.3211 10.9921 14.3204 10.9925C14.3204 10.9925 14.3201 10.9921 14.319 10.9939L14.3183 10.9946C14.318 10.995 14.3183 10.996 14.3169 10.9957C14.3166 10.996 14.3166 10.996 14.3162 10.9964L14.3155 10.9974C14.3152 10.9981 14.3144 10.9985 14.3141 10.9985C14.3134 10.9992 14.3127 10.9988 14.3127 10.9999C14.312 10.9999 14.312 11.0002 14.3113 11.0009C14.3102 11.0013 14.3095 11.002 14.3095 11.002C14.3088 11.0027 14.3078 11.003 14.3081 11.003C14.3078 11.0034 14.3074 11.0037 14.3071 11.0041C14.2633 11.0398 14.2132 11.0696 14.1578 11.091C13.8968 11.1933 13.6073 11.0948 13.4671 10.8642C13.4671 10.8639 13.4671 10.8635 13.4668 10.8632C13.4668 10.8632 13.4671 10.8632 13.4661 10.8621C13.4661 10.8618 13.4654 10.8607 13.4654 10.8607C13.4654 10.86 13.4647 10.8597 13.4647 10.8597C13.4647 10.8593 13.464 10.859 13.464 10.8586C13.464 10.8583 13.4636 10.8579 13.4633 10.8576C13.4633 10.8576 13.4636 10.8569 13.4626 10.8569C13.4626 10.8565 13.4626 10.8558 13.4619 10.8555C13.4619 10.8551 13.4615 10.8548 13.4612 10.8544C13.4612 10.8541 13.4608 10.8537 13.4608 10.8534C13.4608 10.853 13.4601 10.8527 13.4601 10.8523C13.4598 10.8516 13.4594 10.8502 13.4587 10.8499C13.451 10.8359 13.4437 10.8208 13.4367 10.8061C13.4363 10.805 13.4363 10.8043 13.4359 10.8036C13.4359 10.8036 13.4363 10.8036 13.4352 10.8026C13.4342 10.8012 13.4345 10.8005 13.4345 10.8005C13.4338 10.8001 13.4338 10.7994 13.4338 10.7987C13.4335 10.7984 13.4335 10.798 13.4331 10.7977C13.431 10.7928 13.4286 10.7875 13.4265 10.7822C13.4265 10.7819 13.4261 10.7815 13.4261 10.7812C13.4254 10.7791 13.4247 10.7773 13.424 10.7756C13.3322 10.5334 13.2548 10.2111 13.1472 9.76743C12.6794 7.84573 11.7592 4.04438 8.99859 2.51375Z" fill="#BDBDBD" stroke="#BDBDBD" stroke-width="0.3"/>
</svg>
