<svg width="73" height="73" viewBox="0 0 73 73" fill="none" xmlns="http://www.w3.org/2000/svg">
<g filter="url(#filter0_d_419_6024)">
<circle cx="36.5" cy="36.5" r="26.5" fill="#353535"/>
</g>
<path d="M25.7336 39.6838C25.4952 41.2006 26.561 42.2534 27.8659 42.7781C32.8689 44.7897 39.8311 44.7897 44.8341 42.7781C46.139 42.2534 47.2049 41.2006 46.9665 39.6838C46.82 38.7516 46.0955 37.9754 45.5588 37.2174C44.8558 36.2124 44.7859 35.1163 44.7858 33.95C44.7858 29.4431 41.009 25.7894 36.35 25.7894C31.6911 25.7894 27.9142 29.4431 27.9142 33.95C27.9141 35.1163 27.8443 36.2124 27.1412 37.2174C26.6045 37.9754 25.8801 38.7516 25.7336 39.6838Z" stroke="#BDBDBD" stroke-width="2.5" stroke-linecap="round" stroke-linejoin="round"/>
<path d="M32.9869 47.0895C33.8794 47.7866 35.058 48.2105 36.35 48.2105C37.6421 48.2105 38.8207 47.7866 39.7132 47.0895" stroke="#BDBDBD" stroke-width="2.5" stroke-linecap="round" stroke-linejoin="round"/>
<circle cx="43" cy="30" r="5" fill="#FF6154"/>
<defs>
<filter id="filter0_d_419_6024" x="0" y="0" width="73" height="73" filterUnits="userSpaceOnUse" color-interpolation-filters="sRGB">
<feFlood flood-opacity="0" result="BackgroundImageFix"/>
<feColorMatrix in="SourceAlpha" type="matrix" values="0 0 0 0 0 0 0 0 0 0 0 0 0 0 0 0 0 0 127 0" result="hardAlpha"/>
<feOffset/>
<feGaussianBlur stdDeviation="5"/>
<feComposite in2="hardAlpha" operator="out"/>
<feColorMatrix type="matrix" values="0 0 0 0 0 0 0 0 0 0 0 0 0 0 0 0 0 0 0.05 0"/>
<feBlend mode="normal" in2="BackgroundImageFix" result="effect1_dropShadow_419_6024"/>
<feBlend mode="normal" in="SourceGraphic" in2="effect1_dropShadow_419_6024" result="shape"/>
</filter>
</defs>
</svg>
