<svg width="73" height="73" viewBox="0 0 73 73" fill="none" xmlns="http://www.w3.org/2000/svg">
<g filter="url(#filter0_d_419_6025)">
<circle cx="36.5" cy="36.5" r="26.5" fill="#353535"/>
</g>
<path fill-rule="evenodd" clip-rule="evenodd" d="M48.7139 37.7249C48.7139 31.4028 44.4535 26.6523 39.1816 25.6365C39.3435 25.289 39.4294 24.9089 39.4336 24.5229C39.4421 23.857 39.1933 23.2151 38.7426 22.741C38.2917 22.2669 37.6769 22 37.035 22C36.3932 22 35.7784 22.2669 35.3275 22.741C34.8768 23.2151 34.628 23.857 34.6364 24.5229C34.626 24.9107 34.7132 25.2945 34.8896 25.6365C32.1783 26.1575 29.7315 27.6564 27.9818 29.8683C26.232 32.0802 25.2915 34.863 25.3269 37.7249C24.9826 37.7119 24.6478 37.8434 24.398 38.0898C24.1485 38.3362 24.0049 38.6766 24 39.034V40.6069C24.0034 41.2402 24.2474 41.8467 24.6789 42.2944C25.1107 42.7423 25.695 42.9953 26.3052 42.9986H26.557L26.8101 44.6034C26.8833 45.0346 27.1004 45.4254 27.4235 45.7069C27.7467 45.9885 28.1551 46.1429 28.5771 46.1429H45.4951C45.9154 46.1374 46.3208 45.981 46.6429 45.7002C46.9648 45.4197 47.1833 45.0321 47.2612 44.6034L47.5143 42.9986H47.7674C48.3772 42.9946 48.9611 42.7414 49.392 42.2937C49.8231 41.846 50.0667 41.2398 50.07 40.6069V39.034C50.063 38.6718 49.915 38.3278 49.6591 38.0812C49.4034 37.8344 49.0625 37.7057 48.7139 37.7249ZM47.7676 41.3922L26.305 41.392C25.8888 41.3874 25.5521 41.039 25.5461 40.6069V39.33H48.524V40.6069C48.5185 41.0381 48.183 41.3864 47.7676 41.3922ZM45.7471 44.3411C45.7113 44.455 45.6107 44.5336 45.4953 44.5376H28.5773C28.4614 44.5343 28.3602 44.4554 28.3246 44.3411L28.1026 42.9986H45.9679L45.7471 44.3411ZM37.035 27.0135C42.4009 27.0135 47.1979 31.4334 47.1979 37.7247H26.8721C26.8721 31.468 31.6378 27.0135 37.035 27.0135ZM36.152 24.5227C36.1433 24.2776 36.2296 24.0389 36.3915 23.8601C36.5536 23.6815 36.7779 23.5776 37.0142 23.5716C37.2506 23.5657 37.4793 23.6582 37.6494 23.8286C37.8196 23.9988 37.917 24.2329 37.9197 24.4782C37.9225 24.7237 37.8306 24.96 37.6643 25.1344C37.4982 25.3088 37.2713 25.407 37.035 25.4068C36.8061 25.407 36.586 25.315 36.4212 25.1501C36.2565 24.9851 36.16 24.7603 36.152 24.5227Z" fill="#BDBDBD"/>
<defs>
<filter id="filter0_d_419_6025" x="0" y="0" width="73" height="73" filterUnits="userSpaceOnUse" color-interpolation-filters="sRGB">
<feFlood flood-opacity="0" result="BackgroundImageFix"/>
<feColorMatrix in="SourceAlpha" type="matrix" values="0 0 0 0 0 0 0 0 0 0 0 0 0 0 0 0 0 0 127 0" result="hardAlpha"/>
<feOffset/>
<feGaussianBlur stdDeviation="5"/>
<feComposite in2="hardAlpha" operator="out"/>
<feColorMatrix type="matrix" values="0 0 0 0 0 0 0 0 0 0 0 0 0 0 0 0 0 0 0.05 0"/>
<feBlend mode="normal" in2="BackgroundImageFix" result="effect1_dropShadow_419_6025"/>
<feBlend mode="normal" in="SourceGraphic" in2="effect1_dropShadow_419_6025" result="shape"/>
</filter>
</defs>
</svg>
