<svg width="20" height="24" viewBox="0 0 20 24" fill="none" xmlns="http://www.w3.org/2000/svg">
<path d="M14.2 3.19995H16.4C16.9835 3.19995 17.5431 3.43174 17.9556 3.84432C18.3682 4.2569 18.6 4.81647 18.6 5.39995V20.7999C18.6 21.3834 18.3682 21.943 17.9556 22.3556C17.5431 22.7682 16.9835 22.9999 16.4 22.9999H3.2C2.61652 22.9999 2.05695 22.7682 1.64436 22.3556C1.23178 21.943 1 21.3834 1 20.7999V5.39995C1 4.81647 1.23178 4.2569 1.64436 3.84432C2.05695 3.43174 2.61652 3.19995 3.2 3.19995H5.4" stroke="#BDBDBD" stroke-width="2" stroke-linecap="round" stroke-linejoin="round"/>
<path d="M13.1 1H6.49999C5.89248 1 5.39999 1.49249 5.39999 2.1V4.3C5.39999 4.90751 5.89248 5.4 6.49999 5.4H13.1C13.7075 5.4 14.2 4.90751 14.2 4.3V2.1C14.2 1.49249 13.7075 1 13.1 1Z" stroke="#BDBDBD" stroke-width="2" stroke-linecap="round" stroke-linejoin="round"/>
</svg>
