<svg width="26" height="36" viewBox="0 0 26 36" fill="none" xmlns="http://www.w3.org/2000/svg">
<path d="M10.323 9.54444C10.4875 11.4561 10.417 13.3435 10.2291 15.1826C10.0412 17.0216 9.78278 18.8606 9.40694 20.6755V20.7239C9.28949 21.2078 8.93712 21.5466 8.49081 21.6192C8.20893 21.6676 7.83309 21.7644 7.52772 21.8612C7.19886 21.9822 6.89349 22.079 6.61161 22.2C6.02436 22.4661 5.64852 22.7807 5.57805 23.0711C5.46059 23.3856 5.6955 24.1116 6.11832 24.7165C6.51766 25.3457 7.03444 25.9506 7.55122 26.604C6.77605 26.362 6.04785 25.999 5.36664 25.4909C5.01429 25.2489 4.70891 24.9343 4.40354 24.523C4.12166 24.1358 3.86328 23.6034 3.86328 22.9743C3.86328 22.3209 4.12166 21.6918 4.47401 21.2562C4.82636 20.8207 5.2257 20.5303 5.62504 20.2641C6.02437 20.0221 6.42368 19.8044 6.82302 19.6592C7.24584 19.514 7.62168 19.3688 8.09148 19.272L7.17537 20.2157C7.48074 18.4009 7.90357 16.586 8.39686 14.7954C8.91364 13.0047 9.50089 11.2383 10.37 9.52025L10.323 9.54444Z" fill="#070000"/>
<path d="M18.192 28.8544C18.192 28.8544 18.5913 29.5803 18.5209 30.766C18.5209 31.3709 18.3564 32.0485 18.0276 32.7744C17.8162 33.1132 17.6752 33.5004 17.3699 33.7907C17.1115 34.1295 16.7826 34.3957 16.4302 34.6619C16.0779 34.928 15.6786 35.049 15.3027 35.2184C14.9034 35.3394 14.5041 35.3878 14.1282 35.4362C13.3765 35.4846 12.6953 35.3636 12.1551 35.17C11.6148 35.0248 11.2154 34.7103 10.9336 34.5409C10.6517 34.3473 10.5107 34.2263 10.5107 34.2263C10.5107 34.2263 10.6987 34.1537 11.004 34.0811C11.3094 33.9843 11.7557 33.9359 12.2255 33.7907C12.4604 33.7181 12.7188 33.6456 12.9772 33.5972C13.2356 33.5004 13.4705 33.4036 13.7289 33.3552C14.2222 33.1374 14.7155 32.968 15.1148 32.6292C15.5611 32.3873 15.9135 31.9759 16.2893 31.6129C16.6182 31.2016 16.9705 30.766 17.2289 30.3546C17.7927 29.4593 18.192 28.8544 18.192 28.8544Z" fill="#070000"/>
<path d="M7.24597 3.90634L0.316406 2.69644C0.316406 2.69644 3.48756 -2.28833 7.24597 3.90634Z" fill="#070000"/>
<path d="M0.504418 7.82639C0.269517 9.27826 0.833281 10.5608 1.77288 10.7301C2.71249 10.8995 3.65208 9.85901 3.91047 8.40714C4.14537 6.95527 3.58161 5.67278 2.642 5.50339C1.7024 5.33401 0.762809 6.37451 0.504418 7.82639Z" fill="#070000"/>
<path d="M18.5684 5.89056L25.4979 7.10045C25.4979 7.10045 24.0885 1.31716 18.5684 5.89056Z" fill="#070000"/>
<path d="M23.6888 11.8916C23.4539 13.3435 22.4908 14.3598 21.5512 14.2146C20.6116 14.0453 20.0478 12.7386 20.2827 11.3109C20.5176 9.85903 21.4807 8.84271 22.4203 8.9879C23.3599 9.15729 23.9237 10.464 23.6888 11.8916Z" fill="#070000"/>
</svg>
