<svg width="65" height="42" viewBox="0 0 65 42" fill="none" xmlns="http://www.w3.org/2000/svg">
<path d="M59.186 8.67581C59.4209 8.55482 59.6323 8.40963 59.8202 8.31284C60.9007 7.6111 61.8873 6.71578 62.545 5.57848C63.0148 4.77995 62.2397 4.07821 61.488 4.175C60.0786 4.36858 58.5752 4.90094 57.3302 5.77206C57.3537 4.10241 56.1087 1.92459 55.3806 0.908281C54.7933 0.0855524 53.4544 0.545315 53.7128 1.63422C53.9712 2.77152 54.2296 3.93302 54.5114 5.07032C48.2161 1.51323 39.5013 0.690501 29.659 3.59425C11.8065 8.89359 0.0849609 9.45014 0.0849609 9.45014C2.55142 18.6211 13.028 18.2824 13.028 18.2824C8.18904 20.9442 3.74942 24.2835 3.74942 24.2835C22.9643 35.4145 47.8637 22.8558 47.8637 22.8558C55.4041 29.0504 59.5148 41.343 59.5148 41.343C59.5148 41.343 64.7531 36.6486 64.6826 22.8558C64.6826 17.1209 62.639 12.2813 59.186 8.7V8.67581Z" fill="#070000"/>
</svg>
