<svg width="84" height="167" viewBox="0 0 84 167" fill="none" xmlns="http://www.w3.org/2000/svg">
<path d="M6.22881 106.768C13.7926 91.2331 25.7491 79.1826 30.0243 61.7601C33.8296 46.2734 33.5008 29.3349 40.9471 14.9855C45.8096 5.59674 56.8029 -3.62266 66.011 3.24954C76.9339 11.38 73.5513 29.9156 72.6822 42.5227C72.3768 47.0477 72.0714 51.5728 71.7661 56.0978C71.4842 60.1146 70.4506 65.1962 71.5312 69.0678C72.6587 73.1331 76.2762 73.8348 78.5547 76.7386C80.5983 79.3036 81.397 82.8848 82.0547 86.2C85.0379 101.009 83.5346 116.931 78.2023 131.256C75.4775 138.564 71.7661 145.509 67.115 151.534C66.3868 152.502 65.1889 154.123 63.8264 155.648C56.9673 164.093 45.927 166.174 36.3196 164.19C24.8564 161.843 12.1248 155.309 5.24224 144.59C-2.06317 133.192 0.356301 118.795 6.22881 106.72V106.768Z" fill="#97BA36"/>
<path d="M33.4775 97.3552C38.246 101.082 41.7226 106.913 43.4138 112.89C43.7192 110.858 44.0011 108.825 44.3065 106.768C45.9273 96.0243 47.736 85.3288 49.6857 74.6576C47.2662 70.5439 44.3769 66.5271 42.4038 62.2198C42.1219 61.6391 42.8971 61.2035 43.3434 61.6391C46.1857 64.6154 48.3233 68.6081 50.1085 72.4313C51.8937 62.728 53.7964 53.0246 55.8401 43.3455C55.981 42.6437 57.132 42.7405 56.9911 43.4665C55.9575 48.9836 54.9944 54.5249 54.0313 60.0662C56.028 57.4044 58.7059 54.8153 61.3837 53.2908C61.7831 53.073 62.1824 53.6296 61.924 53.9441C60.679 55.517 59.1757 56.7995 57.7428 58.2272C56.3334 59.6549 55.0179 61.1793 53.5615 62.5586C52.1521 70.5923 50.8132 78.6502 49.5213 86.7081C50.6488 85.1595 51.9172 83.7076 53.2327 82.3283C55.2763 80.1747 57.3904 77.9485 60.0213 76.5208C60.3502 76.3514 60.7025 76.787 60.4911 77.0773C58.5649 79.4729 56.122 81.4088 54.0079 83.6108C52.3636 85.3288 50.8602 87.1921 49.1924 88.8617C48.2528 94.887 47.3132 100.912 46.4441 106.938C45.528 113.156 44.6823 119.399 43.8602 125.618C48.9105 119.496 54.9005 113.374 61.924 109.769C62.5582 109.454 63.0515 110.349 62.5582 110.761C55.8871 116.617 49.1924 121.722 43.6252 128.74C43.5783 128.812 43.5078 128.861 43.4373 128.909C43.038 132.055 42.6152 135.225 42.2158 138.371C40.8769 149.09 38.7628 155.624 36.7662 166.222C36.5547 167.311 34.9809 167.166 35.0279 166.053C35.2628 155.6 38.5514 149.477 39.8434 139.121C40.7595 131.813 41.7695 124.505 42.8031 117.197C40.6655 109.938 37.2829 104.3 32.5614 98.2505C32.1151 97.6698 32.8433 96.7986 33.4775 97.2826V97.3552Z" fill="#7D9624"/>
</svg>
