<svg width="275" height="224" viewBox="0 0 275 224" fill="none" xmlns="http://www.w3.org/2000/svg">
<path d="M34.5842 224C26.1512 221.774 18.2821 219.088 12.0102 212.893C3.29541 204.255 -2.36569 190.776 2.07393 179.186C4.37596 173.16 9.02699 168.466 13.2317 163.626C24.8123 150.269 34.0439 132.508 30.2855 115.013C28.8056 108.141 25.4465 101.873 23.3559 95.1947C19.2217 81.9584 20.3257 67.3671 24.6479 54.1792C28.97 40.9914 36.3694 29.086 44.7319 18.1485C47.997 13.8897 51.4735 9.67927 55.9601 6.84811C60.4467 4.01696 66.1078 2.71027 71.0407 4.62191C76.7018 6.79972 80.1784 12.5588 83.7019 17.6162C87.2254 22.6977 92.0408 27.8519 98.1013 27.7793C100.591 27.7551 102.987 26.8114 105.195 25.6499C112.407 21.8024 117.974 15.39 124.575 10.502C133.242 4.06536 143.789 0.387273 154.454 0.0243048C163.028 -0.26607 171.837 1.66976 178.86 6.70293C186.776 12.3894 191.803 21.5846 194.457 31.167C197.088 40.7252 197.582 50.7673 198.051 60.7127C198.498 70.053 209.444 77.9174 217.971 81.0873C226.146 84.112 235.448 83.5313 243.105 87.7175C249.025 90.9358 253.277 96.6949 256.518 102.72C259.478 108.213 261.803 114.335 261.451 120.602C261.122 126.41 258.538 131.782 256.612 137.226C254.874 142.187 253.652 147.341 252.995 152.568C252.83 153.899 252.713 155.278 253.159 156.536C253.746 158.158 255.203 159.222 256.589 160.166C262.485 164.135 269.179 167.764 272.304 174.249C275.122 180.105 274.371 187.026 273.384 193.487C272.444 199.73 271.34 206.069 268.569 211.732C265.797 217.394 261.146 222.355 255.203 223.976H34.5842V224Z" fill="#353535"/>
</svg>
