<svg width="27" height="34" viewBox="0 0 27 34" fill="none" xmlns="http://www.w3.org/2000/svg">
<path d="M15.5046 8.06892C16.0683 9.90796 16.3737 11.747 16.5851 13.6102C16.7965 15.4493 16.914 17.3125 16.914 19.1516L16.1623 18.0627C16.6086 18.2562 16.961 18.4498 17.3603 18.6676C17.7361 18.8854 18.112 19.1758 18.4408 19.4903C18.7932 19.8049 19.122 20.1679 19.4039 20.6518C19.6623 21.1358 19.8502 21.8133 19.7328 22.4425C19.6153 23.0716 19.2865 23.5556 18.9341 23.8944C18.5818 24.2331 18.2294 24.4751 17.8301 24.6687C17.0784 25.0559 16.2798 25.2736 15.4811 25.3946C16.0918 24.8381 16.7026 24.3299 17.1959 23.7734C17.7126 23.2652 18.065 22.5877 17.9945 22.2489C17.9475 21.9585 17.6422 21.5956 17.1019 21.2084C16.8435 21.039 16.5381 20.8696 16.2563 20.7002C15.9744 20.555 15.622 20.3857 15.3401 20.2889C14.8938 20.1195 14.612 19.7081 14.5885 19.2484V19.2C14.518 17.3609 14.5415 15.4977 14.6589 13.6344C14.7999 11.7712 15.0113 9.93216 15.4811 8.06892H15.5046Z" fill="#070000"/>
<path d="M4.62867 25.7576C4.62867 25.7576 4.91056 26.4109 5.33338 27.403C5.54479 27.8628 5.80317 28.3468 6.06156 28.8065C6.39042 29.2421 6.64882 29.7018 7.04815 30.0164C7.4005 30.4036 7.84681 30.6698 8.29312 30.9601C8.55151 31.0569 8.76292 31.2021 8.99782 31.3473C9.23272 31.4441 9.49111 31.5409 9.70252 31.6619C10.1488 31.9038 10.5717 32.0006 10.8535 32.17C11.1354 32.3152 11.3233 32.412 11.3233 32.412C11.3233 32.412 11.1589 32.5088 10.8535 32.654C10.5482 32.775 10.1019 33.017 9.53809 33.0654C8.97433 33.1863 8.29312 33.1621 7.56492 32.9928C7.21257 32.8718 6.81325 32.7508 6.4609 32.5814C6.13204 32.3394 5.7327 32.1458 5.42733 31.8313C5.12196 31.5167 4.84008 31.1779 4.62867 30.8149C4.37028 30.4762 4.27632 30.0648 4.13538 29.7018C3.92397 28.9517 3.87699 28.2258 3.97095 27.645C4.11189 26.4593 4.60518 25.806 4.60518 25.806L4.62867 25.7576Z" fill="#070000"/>
<path d="M19.4746 3.05996H26.5216C26.5216 3.05996 24.1961 -2.40877 19.4746 3.05996Z" fill="#070000"/>
<path d="M25.4872 8.06892C25.4872 9.5208 24.712 10.7065 23.7724 10.7065C22.8328 10.7065 22.0576 9.5208 22.0576 8.06892C22.0576 6.61705 22.8328 5.43135 23.7724 5.43135C24.712 5.43135 25.4872 6.61705 25.4872 8.06892Z" fill="#070000"/>
<path d="M7.96401 3.05996H0.916992C0.916992 3.05996 3.24251 -2.40877 7.96401 3.05996Z" fill="#070000"/>
<path d="M1.97363 8.06892C1.97363 9.5208 2.7488 10.7065 3.68841 10.7065C4.62801 10.7065 5.40318 9.5208 5.40318 8.06892C5.40318 6.61705 4.62801 5.43135 3.68841 5.43135C2.7488 5.43135 1.97363 6.61705 1.97363 8.06892Z" fill="#070000"/>
</svg>
