<svg width="86" height="49" viewBox="0 0 86 49" fill="none" xmlns="http://www.w3.org/2000/svg">
<path d="M42.3159 3.31435C42.3159 3.31435 51.6884 2.41902 53.4266 6.91983C55.1649 11.4206 48.3293 12.7031 48.3293 12.7031C48.3293 12.7031 43.0206 8.75887 42.1044 6.46006C41.8695 5.87932 42.3159 3.31435 42.3159 3.31435Z" fill="#9E5C38"/>
<path d="M48.799 36.6349L63.1984 48.9274L85.1616 49L65.8058 30.416L56.5977 7.96036C56.5977 7.96036 54.695 0.870377 52.1111 0.870377C49.5272 0.870377 40.8359 0.942963 41.2822 3.77412C41.8225 7.13763 47.7655 6.3875 50.1379 7.549C50.6077 7.79098 50.9366 9.55742 50.9366 9.55742L48.8225 36.6349H48.799Z" fill="#FAC79C"/>
<path d="M0.503906 49L35.6215 18.4138C35.6215 18.4138 47.2021 10.9851 51.6183 9.26704C54.9539 7.96035 65.8532 5.83094 66.1586 9.26704C66.4875 12.7515 63.7861 13.2355 63.7861 13.2355C63.7861 13.2355 67.0512 12.4612 67.709 14.639C68.2962 16.5506 67.521 18.6074 66.4875 19.285C66.4875 19.285 70.2929 21.487 66.8163 24.9473C66.8163 24.9473 70.5747 27.1735 65.6888 30.1498C65.6888 30.1498 53.1921 35.5218 48.823 36.6349C46.5679 37.2156 39.6384 37.7964 39.6384 37.7964L25.8027 48.9758H0.527401L0.503906 49Z" fill="#B67349"/>
<path d="M45.1816 6.48429C45.1816 6.48429 47.2488 6.04873 48.6347 7.33121L45.581 7.4038L45.1816 6.48429Z" fill="#E0AD86"/>
<path d="M40.8125 6.75047C43.5843 6.09712 49.3159 6.41169 50.5374 8.97667C50.8427 9.63001 50.7488 10.6221 48.3528 10.8399C46.3327 11.0335 38.5105 12.7757 37.1245 10.5979C35.7386 8.42011 39.2387 7.11343 40.8125 6.75047Z" fill="#FAC79C"/>
<path d="M36.9837 9.36383C37.43 8.90407 41.0475 8.5169 45.3696 8.97666C47.2019 9.17024 48.3999 10.6221 48.071 10.8641C47.0139 11.6384 35.2689 11.1545 36.9602 9.36383H36.9837Z" fill="#E0AD86"/>
<path d="M37.2187 9.31543C39.9906 8.66209 47.7893 8.83147 48.306 11.3723C48.494 12.2676 47.8127 13.2113 45.3933 13.4291C43.3731 13.6227 34.9167 15.3407 33.5308 13.1629C32.1449 10.9851 35.6449 9.6784 37.2187 9.31543Z" fill="#FAC79C"/>
<path d="M33.8368 13.1387C34.2831 12.6548 38.8871 10.6947 44.1724 11.3723C45.3939 11.5174 46.0751 13.0661 45.3704 13.4533C44.2429 14.0824 32.122 14.9536 33.8368 13.1387Z" fill="#E0AD86"/>
<path d="M33.8363 13.1387C36.6081 12.2918 45.3699 9.99298 45.3699 13.4533C45.3699 15.7037 41.1417 17.0588 41.1417 17.0588L31.1349 19.2124C31.1349 19.2124 27.7054 15.002 33.8363 13.1387Z" fill="#FAC79C"/>
<path d="M30.9937 18.3413C31.2051 17.5911 34.8931 14.6148 40.7421 15.0987C41.6347 15.1713 42.1985 16.2602 41.1414 17.0346C40.0844 17.8089 30.336 20.7611 30.9937 18.3171V18.3413Z" fill="#E0AD86"/>
<path d="M28.5742 22.6485C28.5742 19.8899 30.5474 17.4943 37.0541 15.8973C43.5609 14.3002 41.2823 18.1719 38.2286 20.5917C35.1749 23.0114 28.5742 26.5201 28.5742 22.6485Z" fill="#FAC79C"/>
<path d="M56.5273 14.4938L63.7858 13.2597C63.7858 13.2597 59.9334 12.5096 56.5273 14.4938Z" fill="#9E5C38"/>
<path d="M59.9336 20.2287L66.4873 19.285C66.4873 19.285 63.0813 18.438 59.9336 20.2287Z" fill="#9E5C38"/>
<path d="M61.7656 25.4554L66.722 24.8747C66.722 24.8747 64.5375 24.1971 61.7656 25.4554Z" fill="#9E5C38"/>
</svg>
