<svg width="95" height="189" viewBox="0 0 95 189" fill="none" xmlns="http://www.w3.org/2000/svg">
<path d="M16.238 134.062C15.0635 114.776 19.6206 96.5792 14.5232 77.1725C9.98966 59.9436 1.01646 43.4648 0.335248 25.4374C-0.111063 13.6288 5.03326 -1.30129 16.8488 0.537755C30.8488 2.69137 37.3086 22.6788 43.0167 35.5279C45.0603 40.1255 47.1274 44.7473 49.1711 49.3449C50.9798 53.4344 52.6476 58.9757 55.6074 62.194C58.708 65.5817 62.3255 64.3476 65.8725 65.9689C69.0202 67.3966 71.5806 70.4939 73.8826 73.3735C84.1713 86.2951 90.9834 102.774 93.5438 119.664C94.8358 128.278 95.0706 137.087 93.9901 145.483C93.8257 146.814 93.5908 149.04 93.1445 151.291C91.3122 163.244 82.4565 171.181 72.7786 174.376C61.2685 178.175 46.4697 178.586 34.7717 171.738C22.3454 164.454 17.1306 149.04 16.2145 134.038L16.238 134.062Z" fill="#ACC941"/>
<path d="M44.1439 136.022C50.2748 136.917 56.2883 140.377 60.7279 144.902C59.9997 142.894 59.2715 140.91 58.5433 138.926C54.7614 128.375 51.1674 117.752 47.6909 107.105C43.5097 104.637 38.9291 102.508 35.0298 99.6282C34.4895 99.241 34.9828 98.4425 35.5935 98.6361C39.6338 99.846 43.5097 102.363 46.9862 104.903C43.862 95.2 40.8318 85.4482 37.966 75.6481C37.7546 74.9221 38.8352 74.4382 39.0701 75.1641C40.8318 80.6812 42.664 86.1983 44.4963 91.7155C44.9896 88.2794 46.1641 84.5529 47.8319 81.7943C48.0668 81.383 48.7245 81.6733 48.654 82.1089C48.3017 84.1899 47.5735 86.1258 46.9627 88.1584C46.3755 90.1668 45.9527 92.2478 45.3184 94.232C47.9963 102.242 50.6976 110.203 53.4695 118.164C53.7279 116.18 54.1742 114.22 54.691 112.284C55.4896 109.259 56.3118 106.186 58.003 103.5C58.2145 103.161 58.7547 103.403 58.6843 103.766C58.1205 106.912 56.8286 109.936 56.0064 113.058C55.3722 115.454 54.9024 117.922 54.2211 120.317C56.3118 126.246 58.4024 132.174 60.5635 138.103C62.7715 144.201 65.0501 150.274 67.3521 156.324C68.9259 148.169 71.3689 139.531 75.926 132.61C76.3253 132.005 77.2179 132.537 76.983 133.191C73.8119 141.95 70.2649 150.032 68.644 159.252C68.644 159.349 68.5971 159.421 68.5501 159.494C69.7246 162.567 70.8756 165.64 72.0736 168.689C76.1139 179.07 76.3018 176.311 79.6609 186.934C80.0132 188.023 78.5099 188.725 77.9931 187.684C73.1072 178.102 74.1877 180.667 70.2883 170.625C67.54 163.535 64.8856 156.421 62.2548 149.258C56.7581 143.814 50.956 140.474 43.7446 137.425C43.0399 137.135 43.2983 135.949 44.0969 136.07L44.1439 136.022Z" fill="#7D9624"/>
</svg>
