<svg width="76" height="136" viewBox="0 0 76 136" fill="none" xmlns="http://www.w3.org/2000/svg">
<path d="M67.4869 81.4095C59.1949 69.48 47.6848 61.0591 41.8592 47.0969C36.6914 34.7076 34.7887 20.5276 26.7551 9.56595C21.4934 2.40337 11.1577 -3.81549 4.34562 3.17771C-3.71147 11.4534 1.47983 26.4319 3.80535 36.837C4.65099 40.5635 5.47314 44.3141 6.31878 48.0406C7.04697 51.3557 8.57383 55.4452 8.1745 58.8329C7.75168 62.39 4.83891 63.4547 3.28857 66.1891C1.92614 68.6088 1.71473 71.7062 1.57379 74.5615C0.96305 87.3138 4.27515 100.405 10.5705 111.633C13.7651 117.343 17.7584 122.643 22.4095 127.047C23.1377 127.749 24.3357 128.934 25.6981 130.047C32.5102 136.169 41.9767 136.387 49.7519 133.435C59.007 129.902 68.8023 122.74 73.1715 112.867C77.799 102.365 73.9466 90.6773 67.5104 81.4095H67.4869Z" fill="#97BA36"/>
<path d="M43.5506 77.2717C40.0506 81.0466 37.8895 86.3701 37.2552 91.5969C36.7385 89.9272 36.2452 88.2817 35.7284 86.6121C32.9801 77.8766 30.1143 69.1896 27.131 60.5509C28.6109 56.8003 30.5136 53.0496 31.6176 49.1779C31.7586 48.6456 31.0774 48.4036 30.772 48.815C28.7753 51.6945 27.5069 55.3 26.5203 58.7361C23.772 50.8718 20.9532 43.0558 18.0169 35.2641C17.8055 34.7076 16.8659 34.9254 17.0773 35.5061C18.6511 39.9827 20.1545 44.4593 21.6813 48.9359C19.6847 46.9759 17.1008 45.2095 14.6813 44.2899C14.329 44.169 14.0471 44.6771 14.3055 44.9191C15.5504 46.0564 16.9598 46.9275 18.3458 47.9196C19.7082 48.9117 21.0001 50.0248 22.386 50.9686C24.5941 57.4778 26.7552 64.0112 28.8458 70.5689C27.7183 69.4316 26.4498 68.3911 25.1814 67.4231C23.2082 65.8987 21.1646 64.3258 18.7686 63.5031C18.4632 63.4063 18.2283 63.8177 18.4632 64.0354C20.3659 65.7777 22.6679 67.036 24.7116 68.6088C26.2854 69.8187 27.7888 71.1738 29.4096 72.3353C30.9834 77.2233 32.5103 82.1355 34.0371 87.0476C35.5875 92.105 37.0908 97.1866 38.5942 102.292C33.6143 97.8883 27.8122 93.5811 21.4934 91.5243C20.9297 91.3307 20.6243 92.1534 21.0941 92.4438C27.4129 96.4122 33.6378 99.7757 39.1814 104.857C39.2284 104.906 39.2989 104.93 39.3694 104.954C40.121 107.519 40.8727 110.108 41.6009 112.697C44.0909 121.457 46.6983 126.635 49.7285 135.201C50.0338 136.073 51.3258 135.758 51.1614 134.814C49.611 126.127 46.0875 121.481 43.6915 113.012C42.0002 107.035 40.215 101.082 38.4063 95.1297C39.2754 88.7899 41.366 83.6357 44.5137 77.9492C44.8191 77.3927 44.0909 76.7635 43.6211 77.2717H43.5506Z" fill="#7D9624"/>
</svg>
