<svg width="56" height="38" viewBox="0 0 56 38" fill="none" xmlns="http://www.w3.org/2000/svg">
<path d="M30.1914 0.63476C21.0303 1.09452 14.8759 4.21605 10.9296 8.52328C10.8356 8.08772 10.7652 7.62795 10.6947 7.21659C10.4128 5.66792 9.91952 4.31284 8.93294 3.10294C8.34569 2.37701 7.05373 2.95775 7.10071 3.87727C7.21816 5.69212 7.50004 7.45857 8.04031 9.17662C5.52688 9.22502 3.08391 8.59587 0.781886 10.1445C-0.0402656 10.7011 0.0536965 12.0804 1.06377 12.3707C2.96646 12.8789 5.45641 13.3387 7.71145 13.1451C3.38928 21.3724 4.44634 31.6081 7.1242 37.101C7.1242 37.101 27.8894 37.101 32.2586 14.113C32.2586 14.113 36.9801 20.1141 44.8727 16.9441C44.8727 16.9441 45.2721 25.5102 55.3728 27.5912C55.3728 27.5912 59.1547 -0.841311 30.1914 0.658959V0.63476Z" fill="#070000"/>
</svg>
