<svg width="24" height="23" viewBox="0 0 24 23" fill="none" xmlns="http://www.w3.org/2000/svg">
<path d="M6.92432 17.0264L6.92432 12.6053" stroke="#BDBDBD" stroke-width="2" stroke-linecap="round"/>
<path d="M12.4507 17.0264L12.4507 5.97375" stroke="#BDBDBD" stroke-width="2" stroke-linecap="round"/>
<path d="M17.9771 17.0262L17.9771 10.3947" stroke="#BDBDBD" stroke-width="2" stroke-linecap="round"/>
<path d="M1.95068 11.5C1.95068 6.55025 1.95068 4.07538 3.48837 2.53769C5.02606 1 7.50094 1 12.4507 1C17.4004 1 19.8753 1 21.413 2.53769C22.9507 4.07538 22.9507 6.55025 22.9507 11.5C22.9507 16.4497 22.9507 18.9246 21.413 20.4623C19.8753 22 17.4004 22 12.4507 22C7.50094 22 5.02606 22 3.48837 20.4623C1.95068 18.9246 1.95068 16.4497 1.95068 11.5Z" stroke="#BDBDBD" stroke-width="2" stroke-linejoin="round"/>
</svg>
