<svg width="25" height="26" viewBox="0 0 25 26" fill="none" xmlns="http://www.w3.org/2000/svg">
<path d="M3.91442 9.95008L5.16442 9.95019V9.95008H3.91442ZM20.786 9.95008L19.536 9.95008L19.536 9.95019L20.786 9.95008ZM20.8343 18.7782L21.3006 19.9379L21.3006 19.9379L20.8343 18.7782ZM3.86613 18.7782L4.33244 17.6184L4.33244 17.6184L3.86613 18.7782ZM21.559 13.2175L20.5347 13.934L20.5388 13.9399L21.559 13.2175ZM22.9667 15.6839L21.7318 15.8779L21.7318 15.8779L22.9667 15.6839ZM3.14143 13.2175L4.16158 13.9399L4.1657 13.934L3.14143 13.2175ZM1.73374 15.6838L0.498899 15.4898L0.498898 15.4898L1.73374 15.6838ZM9.75652 22.1044C9.21246 21.6794 8.42692 21.776 8.00195 22.32C7.57698 22.8641 7.67353 23.6496 8.21758 24.0746L9.75652 22.1044ZM16.4828 24.0746C17.0269 23.6496 17.1234 22.8641 16.6985 22.32C16.2735 21.776 15.488 21.6794 14.9439 22.1044L16.4828 24.0746ZM20.368 17.6184C15.6642 19.5097 9.03619 19.5097 4.33244 17.6184L3.39982 19.9379C8.70203 22.0698 15.9984 22.0698 21.3006 19.9379L20.368 17.6184ZM22.036 9.95008C22.036 4.71399 17.6601 0.539474 12.3502 0.539474V3.03947C16.3582 3.03947 19.536 6.17221 19.536 9.95008H22.036ZM5.16442 9.95008C5.16442 6.17221 8.3422 3.03947 12.3502 3.03947V0.539474C7.04029 0.539474 2.66442 4.71399 2.66442 9.95008H5.16442ZM4.33244 17.6184C3.82442 17.4141 3.43889 17.1352 3.21102 16.8397C3.00501 16.5726 2.90663 16.2721 2.96858 15.8779L0.498898 15.4898C0.127849 17.8506 1.85613 19.3172 3.39982 19.9379L4.33244 17.6184ZM21.3006 19.9379C22.8443 19.3172 24.5725 17.8506 24.2015 15.4898L21.7318 15.8779C21.7938 16.2721 21.6954 16.5726 21.4894 16.8397C21.2615 17.1352 20.876 17.4141 20.368 17.6184L21.3006 19.9379ZM22.5832 12.501C22.1207 11.8398 22.0361 11.0957 22.036 9.94997L19.536 9.95019C19.5361 11.1369 19.5912 12.5852 20.5347 13.934L22.5832 12.501ZM4.1657 13.934C5.10921 12.5852 5.16431 11.1369 5.16442 9.95019L2.66442 9.94997C2.66431 11.0957 2.57971 11.8398 2.11716 12.501L4.1657 13.934ZM2.12129 12.4951C2.00048 12.6657 1.87157 12.834 1.71624 13.0407C1.56825 13.2377 1.4029 13.4612 1.24682 13.6986C0.938716 14.1671 0.6122 14.7689 0.498899 15.4898L2.96858 15.8779C3.00179 15.6666 3.11076 15.4142 3.33569 15.0721C3.44612 14.9042 3.57168 14.7332 3.71505 14.5423C3.8511 14.3612 4.01401 14.1482 4.16157 13.9399L2.12129 12.4951ZM20.5388 13.9399C20.6864 14.1482 20.8493 14.3612 20.9853 14.5423C21.1287 14.7332 21.2543 14.9042 21.3647 15.0721C21.5896 15.4142 21.6986 15.6666 21.7318 15.8779L24.2015 15.4898C24.0882 14.7689 23.7617 14.1671 23.4536 13.6986C23.2975 13.4612 23.1321 13.2377 22.9841 13.0407C22.8288 12.834 22.6999 12.6657 22.5791 12.4951L20.5388 13.9399ZM12.3502 22.9605C11.3305 22.9605 10.4242 22.6259 9.75652 22.1044L8.21758 24.0746C9.33492 24.9473 10.7858 25.4605 12.3502 25.4605V22.9605ZM14.9439 22.1044C14.2762 22.6259 13.3699 22.9605 12.3502 22.9605V25.4605C13.9146 25.4605 15.3655 24.9473 16.4828 24.0746L14.9439 22.1044Z" fill="#BDBDBD"/>
</svg>
