<svg width="24" height="23" viewBox="0 0 24 23" fill="none" xmlns="http://www.w3.org/2000/svg">
<path d="M6.92456 17.0264L6.92456 12.6053" stroke="#BDBDBD" stroke-width="2" stroke-linecap="round"/>
<path d="M12.4508 17.0264L12.4508 5.97375" stroke="#BDBDBD" stroke-width="2" stroke-linecap="round"/>
<path d="M17.9771 17.0262L17.9771 10.3947" stroke="#BDBDBD" stroke-width="2" stroke-linecap="round"/>
<path d="M1.95081 11.5C1.95081 6.55025 1.95081 4.07538 3.48849 2.53769C5.02618 1 7.50106 1 12.4508 1C17.4006 1 19.8754 1 21.4131 2.53769C22.9508 4.07538 22.9508 6.55025 22.9508 11.5C22.9508 16.4497 22.9508 18.9246 21.4131 20.4623C19.8754 22 17.4006 22 12.4508 22C7.50106 22 5.02618 22 3.48849 20.4623C1.95081 18.9246 1.95081 16.4497 1.95081 11.5Z" stroke="#BDBDBD" stroke-width="2" stroke-linejoin="round"/>
</svg>
