<svg width="25" height="27" viewBox="0 0 25 27" fill="none" xmlns="http://www.w3.org/2000/svg">
<path d="M14.2722 25.2087C13.7301 25.7163 13.0055 26 12.2514 26C11.4973 26 10.7727 25.7163 10.2306 25.2087C5.26628 20.5325 -1.38655 15.3086 1.85784 7.72458C3.61204 3.62394 7.82293 1 12.2514 1C16.6799 1 20.8908 3.62395 22.645 7.72458C25.8852 15.2991 19.2488 20.5486 14.2722 25.2087Z" stroke="#FF6154" stroke-width="2"/>
<path d="M16.625 12.25C16.625 14.6662 14.6662 16.625 12.25 16.625C9.83375 16.625 7.875 14.6662 7.875 12.25C7.875 9.83375 9.83375 7.875 12.25 7.875C14.6662 7.875 16.625 9.83375 16.625 12.25Z" stroke="#FF6154" stroke-width="2"/>
</svg>
