<svg width="37" height="46" viewBox="0 0 37 46" fill="none" xmlns="http://www.w3.org/2000/svg">
<path d="M34.9513 8.73099C33.494 5.13195 31.1767 3.22978 28.2496 3.22978C23.8495 3.23029 19.914 7.16123 17.9453 9.61624C17.7329 7.83867 17.341 5.81544 17.3334 5.78164C16.7675 3.20809 15.5397 1.06935 15.4877 0.979563C15.4135 0.85144 15.3033 0.747922 15.1707 0.681839C15.0382 0.615757 14.8892 0.590016 14.7422 0.607806L6.69015 1.58638C6.68309 1.58739 6.67754 1.59092 6.67098 1.59193C6.5972 1.60215 6.52542 1.62359 6.45812 1.65549L6.4445 1.66053L6.43996 1.66204C6.3305 1.71753 3.75493 3.05122 3.42756 5.76853C3.22932 7.4432 3.30347 9.06794 3.37308 9.9537C0.0121325 13.1522 0.0534947 17.5124 0.0842643 20.5455L0.0862818 20.7362C0.0862818 20.8598 0.0862817 20.8598 1.09008 23.9539C1.1429 24.1163 1.24912 24.2561 1.39147 24.3505C1.53382 24.4449 1.70392 24.4883 1.8741 24.4738C2.04428 24.4592 2.20453 24.3875 2.32878 24.2703C2.45303 24.1531 2.53398 23.9973 2.55844 23.8283C2.66538 23.4696 4.57259 17.4963 9.22688 14.724C9.93358 14.2715 10.6718 13.8701 11.4357 13.523C11.2986 13.9051 11.2282 14.3079 11.2274 14.7139C11.2274 16.6832 12.8299 18.2857 14.7992 18.2857C15.3556 18.2853 15.904 18.154 16.4002 17.9024C17.0832 23.799 16.5763 31.1197 14.9238 39.265C9.45689 39.772 4.96301 41.881 3.11886 44.8424C3.01263 45.0127 2.97841 45.2182 3.02373 45.4138C3.06904 45.6093 3.19017 45.7788 3.36047 45.8851C3.53078 45.9913 3.7363 46.0255 3.93183 45.9802C4.12736 45.9349 4.29689 45.8137 4.40311 45.6434C5.92797 43.1945 9.86699 41.3483 14.5959 40.8161C14.5631 40.9675 14.5329 41.1168 14.4991 41.2686C14.4961 41.2832 14.496 41.2974 14.494 41.312C14.4676 41.4593 14.4881 41.6112 14.5525 41.7463C14.5626 41.7685 14.5732 41.7902 14.5853 41.8114C14.6349 41.8947 14.6992 41.9683 14.775 42.0288C14.7967 42.0459 14.8199 42.0605 14.8431 42.0752C14.8552 42.0827 14.8653 42.0918 14.8779 42.0989L14.9228 42.1211L14.9309 42.1251C15.8106 42.5861 16.9803 42.8414 18.2373 42.8414C19.0827 42.8414 19.9206 42.7208 20.6616 42.4923C20.6696 42.4898 20.6767 42.4853 20.6848 42.4822C20.6979 42.4777 20.7095 42.4716 20.7221 42.4666C20.7958 42.4368 20.8644 42.399 20.9229 42.3506C20.9837 42.2983 21.0368 42.2357 21.0782 42.167C21.0838 42.1579 21.0903 42.1498 21.0959 42.1402C21.1352 42.0706 21.1615 41.9945 21.1776 41.9158C21.1791 41.9092 21.1831 41.9037 21.1847 41.8971C21.2381 41.5849 21.285 41.2711 21.334 40.9579C25.6286 41.6267 29.1061 43.3902 30.5063 45.6444C30.6128 45.8143 30.7822 45.9351 30.9775 45.9804C31.1728 46.0257 31.3781 45.9918 31.5485 45.8861C31.9036 45.6656 32.0125 45.199 31.7916 44.8444C30.1386 42.1831 26.3418 40.1992 21.5529 39.4592C22.593 31.7815 22.3988 23.8374 20.9789 16.2877C22.2202 15.8721 23.1181 14.7003 23.1181 13.3212C23.1174 12.7503 22.9607 12.1904 22.665 11.702C22.3692 11.2137 21.9456 10.8155 21.4399 10.5504C22.5552 10.2412 23.9322 10.0117 25.5908 10.0117L25.8697 10.0137L25.9555 10.0132C30.7182 10.0132 34.465 15.6809 34.9594 16.6958C34.9899 16.8094 35.0465 16.9142 35.1249 17.002C35.2032 17.0898 35.3009 17.158 35.4103 17.2012L35.4123 17.2017C35.5481 17.2554 35.6964 17.2688 35.8396 17.2403C35.9828 17.2118 36.1147 17.1425 36.2194 17.0408L36.226 17.0342C36.3082 16.953 36.3722 16.8527 36.4106 16.7387C36.4474 16.6302 36.4817 16.5278 36.4343 16.3376C36.573 14.7063 35.8219 10.8803 34.9513 8.73099ZM11.7384 6.07118C11.9023 6.20889 12.0627 6.34962 12.2176 6.4954C12.7619 7.00789 13.4569 7.7277 14.2368 8.675C12.9525 8.05153 11.4721 7.54207 9.98452 7.40537C10.4698 6.39754 11.3121 6.13625 11.7384 6.07118ZM14.4103 2.17252C14.776 2.89081 15.4837 4.41416 15.856 6.10699C16.0693 7.07851 16.2262 8.05052 16.3392 8.90501C15.1336 7.28532 14.0466 6.13877 13.2557 5.39374C13.0225 5.17837 12.7816 4.97158 12.5333 4.77381C12.4955 4.7332 12.4532 4.69699 12.4072 4.66586C11.4423 3.89864 10.3997 3.25904 9.49069 2.77025L14.4103 2.17252ZM4.92972 5.9486C5.10627 4.48427 6.29771 3.54252 6.84601 3.18085C7.46595 3.44214 8.8642 4.07468 10.2756 4.99475C9.5028 5.4119 8.74364 6.15996 8.36079 7.41596C7.26973 7.53551 6.26038 7.88205 5.36352 8.45356C5.17689 8.56453 4.99883 8.67903 4.8248 8.79505C4.79908 7.98747 4.80765 6.97863 4.92972 5.9486ZM8.43292 13.4367C5.1325 15.4019 2.93979 18.9853 1.85781 21.4177L1.59752 20.6146L1.59702 20.5304C1.56272 17.1442 1.5153 12.5071 6.15698 9.74235C7.05585 9.16983 8.08386 8.87979 9.21326 8.87979C11.4393 8.87979 13.6516 9.98397 15.1014 10.9182C13.5341 11.0942 11.1815 11.6859 8.43292 13.4367ZM12.7402 14.7149C12.7402 13.58 13.6638 12.6564 14.7987 12.6564C15.9336 12.6564 16.8572 13.58 16.8572 14.7149C16.8572 15.8499 15.9336 16.7735 14.7987 16.7735C13.6638 16.7735 12.7402 15.8504 12.7402 14.7149ZM16.1082 40.9887C16.6577 38.4598 17.1111 35.9109 17.4676 33.3477L18.5319 33.387L18.5879 31.8748L17.6618 31.8405C18.2545 26.9204 18.4648 21.5992 17.7657 16.7008C17.9383 16.4426 18.0762 16.1627 18.1758 15.8685C18.5516 16.1364 18.9879 16.3225 19.4611 16.4032C20.0978 19.7585 20.4894 23.1557 20.6328 26.5678L19.6522 26.4553L19.4797 27.9585L20.6812 28.0962C20.7455 31.0107 20.6328 33.9264 20.3438 36.8272H19.175V38.3404H20.1748C20.1078 38.8913 20.0342 39.4413 19.9539 39.9904L19.9498 40.0076L19.9493 40.0217C19.8933 40.4025 19.8308 40.7823 19.7688 41.1617C19.2865 41.2696 18.766 41.3261 18.2378 41.3261C17.456 41.3271 16.711 41.205 16.1082 40.9887ZM19.9877 14.9379C19.5589 14.9373 19.1479 14.7668 18.8447 14.4636C18.5416 14.1605 18.371 13.7494 18.3705 13.3207C18.3705 12.4289 19.0959 11.7035 19.9877 11.7035C20.8795 11.7035 21.6048 12.4289 21.6048 13.3207C21.6043 13.7494 21.4338 14.1605 21.1306 14.4636C20.8274 14.7668 20.4164 14.9373 19.9877 14.9379ZM25.956 8.49946L25.8702 8.49996L25.5913 8.49794C23.3799 8.49794 21.5721 8.87424 20.1783 9.35294C22.1405 7.25556 25.1776 4.74304 28.2501 4.74304C29.6397 4.74304 30.8045 5.28025 31.8108 6.38594C33.5298 8.27398 34.3399 11.3958 34.6986 13.6516C33.0759 11.6344 29.9172 8.49946 25.956 8.49946Z" fill="#FF6154"/>
</svg>
