<svg width="23" height="22" viewBox="0 0 23 22" fill="none" xmlns="http://www.w3.org/2000/svg">
<path d="M19.2307 2.54785C19.493 2.87689 19.7412 3.22194 19.975 3.583C23.5411 9.102 22.2739 16.2858 17.1435 19.6287C12.014 22.9715 4.96453 21.2072 1.39755 15.6873C1.03827 15.1315 0.728792 14.5596 0.467337 13.9754L19.2307 2.54785Z" fill="url(#paint0_linear_430_11025)"/>
<path style="mix-blend-mode:multiply" opacity="0.32" d="M19.2307 2.54785C19.493 2.87689 19.7412 3.22194 19.975 3.583C23.5411 9.102 22.2739 16.2858 17.1435 19.6287C12.014 22.9715 4.96453 21.2072 1.39755 15.6873C1.03827 15.1315 0.728792 14.5596 0.467337 13.9754L19.2307 2.54785Z" fill="url(#paint1_linear_430_11025)"/>
<mask id="mask0_430_11025" style="mask-type:luminance" maskUnits="userSpaceOnUse" x="-1" y="0" width="22" height="17">
<path d="M3.96662 4.27398L4.61136 3.1917L6.14362 2.50516L10.0565 1.18544L11.0152 0L16.6596 0.337045C19.058 1.24146 19.9278 3.48606 19.9749 3.63902C20.32 4.7711 19.139 5.79646 19.139 5.79646L17.805 6.53458L16.1251 10.484L13.9375 10.7036L12.9325 11.6178L11.4296 11.1136L7.26592 14.6228L5.42863 14.846L2.20491 16.0127C2.20491 16.0127 0.683317 15.0034 0.216434 13.5521C-0.250448 12.1007 0.176414 9.10288 0.214655 7.71557C0.252895 6.32826 3.9675 4.27487 3.9675 4.27487L3.96662 4.27398ZM1.5326 12.3808C1.49436 13.2266 2.28673 13.6517 2.28673 13.6517L4.77855 12.4796L6.08938 12.0883L9.64569 9.43459L9.78531 9.32965L9.80043 9.31809L9.92849 9.3341L10.0717 9.35189L10.2148 9.36967L10.358 9.38746L10.5012 9.40524L10.6444 9.42303L10.704 9.43014L10.7858 9.36611L10.9254 9.25673L11.065 9.14735L11.2046 9.03796L11.3443 8.92858L11.4839 8.81919L11.6146 8.71693L11.6235 8.71426L11.7649 8.67424L11.9063 8.63422L12.0477 8.5942L12.1891 8.55418L12.3305 8.51416L12.4719 8.47415L12.6133 8.43413L12.7547 8.39411L12.8961 8.35409L13.0375 8.31407L13.1611 8.27939L13.1789 8.25627L13.3167 8.08019L13.4546 7.9041L13.5924 7.72802L13.7302 7.55194L13.8681 7.37586L14.0059 7.19978L14.1438 7.0237L14.2816 6.84761L14.4195 6.67153L14.5573 6.49545L14.6951 6.31937L14.833 6.14329L14.9708 5.96721L15.1087 5.79113L15.2465 5.61504L15.2767 5.57591L15.3861 5.511L15.5266 5.42829L15.6671 5.34559L15.8077 5.26288L15.9482 5.18018L16.0887 5.09747L16.2292 5.01477L16.3697 4.93206C16.3697 4.93206 16.4248 4.89026 16.5093 4.81823C16.5502 4.78355 16.5974 4.74264 16.6489 4.69551C16.6925 4.65549 16.7396 4.61191 16.7886 4.56389C16.8339 4.51943 16.881 4.47229 16.9273 4.4216C16.9744 4.3718 17.0207 4.31933 17.066 4.26597C17.114 4.20817 17.1612 4.14948 17.2039 4.08812C17.2545 4.01697 17.3017 3.94316 17.3408 3.87024C17.4137 3.73417 17.4635 3.59633 17.4715 3.46383C17.4742 3.42203 17.4662 3.117 17.3115 2.77995C17.2723 2.69369 17.2225 2.60565 17.1621 2.51939C17.1194 2.45892 17.0705 2.39844 17.0144 2.34064C16.97 2.2944 16.9211 2.24993 16.8677 2.20724C16.8223 2.17078 16.7743 2.13699 16.7219 2.10409C16.6765 2.07563 16.6285 2.04806 16.5769 2.02227C16.5315 2.00004 16.4826 1.97869 16.4328 1.95913C16.3866 1.94134 16.3386 1.92445 16.2888 1.90933C16.2425 1.8951 16.1945 1.88265 16.1447 1.87109C16.1038 1.86131 16.0611 1.8533 16.0166 1.84619L16.0015 1.84797L15.8592 1.86486L15.7169 1.88176L15.5747 1.89866L15.4324 1.91555L15.2901 1.93245L15.1478 1.94935L15.0055 1.96624L14.8632 1.98314L14.7209 2.00004L14.5786 2.01693L14.4364 2.03383L14.2941 2.05073L14.1518 2.06762L14.0095 2.08452L13.8672 2.10142L13.7249 2.11831L13.5826 2.13521L13.4403 2.15211L13.298 2.169L13.1558 2.1859L13.0135 2.2028L12.8712 2.21969L12.7289 2.23659L12.5866 2.25349L12.4443 2.27038L12.3669 2.27928L12.3038 2.34153L12.1642 2.47848L12.0246 2.61543L11.8849 2.75239L11.7453 2.88934L11.6057 3.02629L11.4661 3.16324L11.4572 3.17214L11.3256 3.22816L11.1842 3.28863L11.0428 3.34911L10.9014 3.40958L10.76 3.47005L10.6186 3.53052L10.4772 3.591L10.3358 3.65147L10.1944 3.71194L10.053 3.77241L9.91159 3.83289L9.77019 3.89336L9.62879 3.95383L9.48739 4.0143L8.18813 4.56745L6.88174 5.14194L6.33482 6.04369C6.33482 6.04369 3.3192 7.84808 2.95192 8.72226C2.58464 9.59733 1.55394 11.5351 1.51659 12.3808H1.5326Z" fill="white"/>
</mask>
<g mask="url(#mask0_430_11025)">
<path d="M19.99 3.68875C19.9428 3.5349 19.074 1.2903 16.6747 0.386775L10.8746 -0.0169678L10.0245 1.18448L6.15867 2.55489L4.59706 3.19252L3.9283 4.29792C3.9283 4.29792 0.267056 6.3771 0.228815 7.76441C0.191465 9.15172 -0.236288 12.1487 0.230595 13.6009C0.697477 15.0522 2.21907 16.0616 2.21907 16.0616L5.44279 14.8948L7.28008 14.6716L11.4438 11.1624L12.9467 11.6667L13.9516 10.7525L16.1393 10.5328L17.8192 6.58342L19.1531 5.8453C19.1531 5.8453 20.3341 4.81994 19.9891 3.68786L19.99 3.68875Z" fill="#783E16"/>
<mask id="mask1_430_11025" style="mask-type:luminance" maskUnits="userSpaceOnUse" x="0" y="-1" width="21" height="18">
<path d="M19.99 3.68875C19.9428 3.5349 19.074 1.2903 16.6747 0.386775L10.8746 -0.0169678L10.0245 1.18448L6.15867 2.55489L4.59706 3.19252L3.9283 4.29792C3.9283 4.29792 0.267056 6.3771 0.228815 7.76441C0.191465 9.15172 -0.236288 12.1487 0.230595 13.6009C0.697477 15.0522 2.21907 16.0616 2.21907 16.0616L5.44279 14.8948L7.28008 14.6716L11.4438 11.1624L12.9467 11.6667L13.9516 10.7525L16.1393 10.5328L17.8192 6.58342L19.1531 5.8453C19.1531 5.8453 20.3341 4.81994 19.9891 3.68786L19.99 3.68875Z" fill="white"/>
</mask>
<g mask="url(#mask1_430_11025)">
<path d="M19.0759 1.29297L20.706 5.55805L21.9395 4.21343L19.0759 1.29297Z" fill="#783E16"/>
<path d="M18.9283 1.14275L18.7896 1.0885L20.5593 5.7182L20.7061 5.55813L19.076 1.29304L18.9283 1.14275Z" fill="#783E16"/>
<path d="M18.7894 1.08839L18.5448 0.991455L20.4123 5.87816L20.5591 5.71809L18.7894 1.08839Z" fill="#783E16"/>
<path d="M18.5451 0.991587L18.3005 0.894653L20.2659 6.03748L20.4126 5.87829L18.5451 0.991587Z" fill="#783E16"/>
<path d="M18.3003 0.894541L18.0557 0.797607L20.1189 6.19744L20.2656 6.03737L18.3003 0.894541Z" fill="#783E16"/>
<path d="M18.056 0.797617L17.8114 0.700684L19.9724 6.35752L20.1191 6.19745L18.056 0.797617Z" fill="#783E16"/>
<path d="M17.8112 0.700694L17.5657 0.60376L19.8254 6.51761L19.9722 6.35753L17.8112 0.700694Z" fill="#783E16"/>
<path d="M17.5655 0.60377L17.3209 0.506836L19.6785 6.67681L19.8252 6.51762L17.5655 0.60377Z" fill="#783E16"/>
<path d="M17.3212 0.506846L17.0766 0.409912L19.532 6.83689L19.6787 6.67681L17.3212 0.506846Z" fill="#783E16"/>
<path d="M17.0769 0.409922L16.8323 0.312988L19.3855 6.99697L19.5322 6.8369L17.0769 0.409922Z" fill="#783E16"/>
<path d="M16.8321 0.312998L16.5866 0.216064L19.2394 7.15706L19.3853 6.99698L16.8321 0.312998Z" fill="#783E16"/>
<path d="M16.587 0.216074L16.3424 0.119141L19.093 7.31625L19.2397 7.15707L16.587 0.216074Z" fill="#783E16"/>
<path d="M16.3422 0.119116L16.0976 0.0230713L18.946 7.4763L19.0928 7.31623L16.3422 0.119116Z" fill="#783E16"/>
<path d="M16.0974 0.0230814L15.8528 -0.0738525L18.7991 7.63638L18.9458 7.47631L16.0974 0.0230814Z" fill="#783E16"/>
<path d="M15.8531 -0.0738426L15.6085 -0.170776L18.6526 7.79558L18.7993 7.63639L15.8531 -0.0738426Z" fill="#783E16"/>
<path d="M15.6088 -0.170766L15.3633 -0.2677L18.5061 7.95566L18.6528 7.79559L15.6088 -0.170766Z" fill="#783E16"/>
<path d="M15.3631 -0.26769L15.1185 -0.364624L18.3591 8.11575L18.5059 7.95567L15.3631 -0.26769Z" fill="#783E16"/>
<path d="M15.1183 -0.364614L14.8737 -0.461548L18.2122 8.27583L18.3589 8.11576L15.1183 -0.364614Z" fill="#783E16"/>
<path d="M14.874 -0.46166L14.6294 -0.558594L18.0657 8.4349L18.2124 8.27572L14.874 -0.46166Z" fill="#783E16"/>
<path d="M14.6292 -0.558462L14.3846 -0.655396L17.9187 8.59511L18.0654 8.43504L14.6292 -0.558462Z" fill="#783E16"/>
<path d="M14.3849 -0.655508L14.1394 -0.752441L17.7722 8.75507L17.9189 8.595L14.3849 -0.655508Z" fill="#783E16"/>
<path d="M14.1397 -0.752431L13.8951 -0.849365L17.6257 8.91516L17.7725 8.75508L14.1397 -0.752431Z" fill="#783E16"/>
<path d="M13.8949 -0.849355L13.6503 -0.946289L17.4796 9.07435L17.6255 8.91517L13.8949 -0.849355Z" fill="#783E16"/>
<path d="M13.6502 -0.946279L13.4056 -1.04321L17.3328 9.23444L17.4795 9.07436L13.6502 -0.946279Z" fill="#783E16"/>
<path d="M13.4059 -1.0432L13.1604 -1.14014L17.1863 9.39452L17.333 9.23444L13.4059 -1.0432Z" fill="#783E16"/>
<path d="M13.1602 -1.14016L12.9156 -1.23621L17.0393 9.55368L17.186 9.3945L13.1602 -1.14016Z" fill="#783E16"/>
<path d="M12.9154 -1.2362L12.6708 -1.33313L16.8923 9.71376L17.0391 9.55369L12.9154 -1.2362Z" fill="#783E16"/>
<path d="M12.6711 -1.33312L12.4265 -1.43005L16.7458 9.87385L16.8926 9.71377L12.6711 -1.33312Z" fill="#783E16"/>
<path d="M12.4268 -1.43004L12.1822 -1.52698L16.5994 10.0339L16.7461 9.87386L12.4268 -1.43004Z" fill="#783E16"/>
<path d="M12.182 -1.52697L11.9365 -1.6239L16.4524 10.1931L16.5991 10.0339L12.182 -1.52697Z" fill="#783E16"/>
<path d="M11.9368 -1.62389L11.6922 -1.72083L16.3059 10.3532L16.4526 10.1931L11.9368 -1.62389Z" fill="#783E16"/>
<path d="M11.692 -1.72082L11.4474 -1.81775L16.1589 10.5133L16.3057 10.3532L11.692 -1.72082Z" fill="#783E16"/>
<path d="M11.4472 -1.81774L11.2026 -1.91467L16.012 10.6734L16.1587 10.5133L11.4472 -1.81774Z" fill="#783E16"/>
<path d="M11.2029 -1.91466L10.9583 -2.0116L15.8655 10.8326L16.0122 10.6734L11.2029 -1.91466Z" fill="#783E16"/>
<path d="M10.9586 -2.01171L10.7131 -2.10864L15.719 10.9925L15.8657 10.8325L10.9586 -2.01171Z" fill="#783E16"/>
<path d="M10.7129 -2.10863L10.4683 -2.20557L15.5729 11.1526L15.7188 10.9925L10.7129 -2.10863Z" fill="#783E16"/>
<path d="M10.4583 -2.21178L10.2129 -2.30872L15.4153 11.3056L15.562 11.1455L10.4583 -2.21178Z" fill="#783E16"/>
<path d="M10.2239 -2.30248L9.9793 -2.39941L15.2795 11.4719L15.4263 11.3118L10.2239 -2.30248Z" fill="#783E16"/>
<path d="M9.97906 -2.3994L9.73362 -2.49634L15.1326 11.632L15.2793 11.4719L9.97906 -2.3994Z" fill="#783E16"/>
<path d="M9.73387 -2.49636L9.48931 -2.59241L14.9861 11.792L15.1328 11.632L9.73387 -2.49636Z" fill="#783E16"/>
<path d="M9.48956 -2.5924L9.245 -2.68933L14.8396 11.9512L14.9863 11.792L9.48956 -2.5924Z" fill="#783E16"/>
<path d="M9.24477 -2.68932L9.00021 -2.78625L14.6926 12.1113L14.8394 11.9512L9.24477 -2.68932Z" fill="#783E16"/>
<path d="M8.99997 -2.78623L8.76253 -2.88049L8.75808 -2.87605L14.5456 12.2714L14.6924 12.1113L8.99997 -2.78623Z" fill="#783E16"/>
<path d="M8.61159 -2.71602L14.3992 12.4305L14.5459 12.2714L8.75833 -2.8761L8.61159 -2.71602Z" fill="#783E16"/>
<path d="M8.46462 -2.55587L14.2522 12.5907L14.3989 12.4306L8.61136 -2.71594L8.46462 -2.55587Z" fill="#783E16"/>
<path d="M8.31814 -2.39672L14.1057 12.7507L14.2524 12.5907L8.46487 -2.55591L8.31814 -2.39672Z" fill="#783E16"/>
<path d="M8.17116 -2.23665L13.9587 12.9108L14.1055 12.7507L8.3179 -2.39673L8.17116 -2.23665Z" fill="#783E16"/>
<path d="M8.02468 -2.07662L13.8131 13.0699L13.959 12.9108L8.17142 -2.23669L8.02468 -2.07662Z" fill="#783E16"/>
<path d="M7.87779 -1.91646L13.6663 13.2301L13.813 13.07L8.02453 -2.07654L7.87779 -1.91646Z" fill="#783E16"/>
<path d="M7.73131 -1.75732L13.5198 13.3901L13.6665 13.2301L7.87805 -1.9165L7.73131 -1.75732Z" fill="#783E16"/>
<path d="M7.58434 -1.59725L13.3728 13.5502L13.5195 13.3901L7.73107 -1.75732L7.58434 -1.59725Z" fill="#783E16"/>
<path d="M7.43825 -1.43722L13.2258 13.7094L13.3726 13.5502L7.5841 -1.59729L7.43825 -1.43722Z" fill="#783E16"/>
<path d="M7.29177 -1.27706L13.0793 13.8695L13.2261 13.7094L7.43851 -1.43713L7.29177 -1.27706Z" fill="#783E16"/>
<path d="M7.14529 -1.11791L12.9329 14.0295L13.0796 13.8695L7.29202 -1.2771L7.14529 -1.11791Z" fill="#783E16"/>
<path d="M6.99831 -0.957846L12.7859 14.1887L12.9326 14.0295L7.14505 -1.11792L6.99831 -0.957846Z" fill="#783E16"/>
<path d="M6.85134 -0.797812L12.6389 14.3488L12.7856 14.1887L6.99808 -0.957886L6.85134 -0.797812Z" fill="#783E16"/>
<path d="M6.70486 -0.638545L12.4924 14.5089L12.6392 14.3488L6.85159 -0.797729L6.70486 -0.638545Z" fill="#783E16"/>
<path d="M6.55788 -0.478476L12.3455 14.669L12.4922 14.5089L6.70462 -0.63855L6.55788 -0.478476Z" fill="#783E16"/>
<path d="M1.49623 15.8659L8.64977 18.6966L12.3457 14.6689L6.55813 -0.478516L-3.63681 10.6315L1.49623 15.8659Z" fill="#783E16"/>
</g>
<mask id="mask2_430_11025" style="mask-type:luminance" maskUnits="userSpaceOnUse" x="0" y="0" width="20" height="16">
<path d="M19.4707 3.84524C19.4272 3.70206 18.617 1.60598 16.3475 0.775374L11.1104 0.329834L10.2656 1.49037L6.37224 2.88391L4.896 3.49752L4.23436 4.51755C4.23436 4.51755 0.748299 6.48646 0.703835 7.78573C0.659369 9.08411 0.235172 11.8925 0.669151 13.2487C1.10313 14.604 2.54024 15.5395 2.54024 15.5395L5.60477 14.427L7.06055 14.2518L11.3194 10.8956L12.7423 11.3581L13.701 10.4963L15.7775 10.2767L17.396 6.57006L18.6659 5.87018C18.6659 5.87018 19.7927 4.90262 19.4725 3.84613L19.4707 3.84524Z" fill="white"/>
</mask>
<g mask="url(#mask2_430_11025)">
<path d="M18.6187 1.60779L20.1367 5.59008L21.3159 4.32371L18.6187 1.60779Z" fill="#C6C6C6"/>
<path d="M18.48 1.46805L18.3483 1.41736L19.9971 5.74025L20.1367 5.58996L18.6187 1.60767L18.48 1.46805Z" fill="#C6C6C6"/>
<path d="M18.3483 1.41742L18.1171 1.32849L19.8566 5.8906L19.9971 5.74031L18.3483 1.41742Z" fill="#C7C7C7"/>
<path d="M18.117 1.32855L17.8849 1.23962L19.7168 6.04185L19.8564 5.89067L18.117 1.32855Z" fill="#C8C8C8"/>
<path d="M17.8848 1.23956L17.6536 1.15063L19.5763 6.19208L19.7168 6.04179L17.8848 1.23956Z" fill="#C9C9C9"/>
<path d="M17.6535 1.15058L17.4223 1.06165L19.4366 6.34231L19.5762 6.19202L17.6535 1.15058Z" fill="#CACACA"/>
<path d="M17.4227 1.06174L17.1906 0.971924L19.2965 6.4927L19.437 6.34241L17.4227 1.06174Z" fill="#CBCBCB"/>
<path d="M17.1905 0.971865L16.9593 0.882935L19.1568 6.64382L19.2964 6.49264" fill="#CCCCCC"/>
<path d="M16.9593 0.882997L16.7281 0.794067L19.0162 6.79418L19.1567 6.64389L16.9593 0.882997Z" fill="#CDCDCD"/>
<path d="M16.7284 0.794008L16.4963 0.705078L18.877 6.94441L19.0166 6.79412L16.7284 0.794008Z" fill="#CECECE"/>
<path d="M16.4963 0.705054L16.2651 0.615234L18.7364 7.09557L18.877 6.94439L16.4963 0.705054Z" fill="#CFCFCF"/>
<path d="M16.265 0.615297L16.0337 0.526367L18.5958 7.24592L18.7363 7.09563L16.265 0.615297Z" fill="#D0D0D0"/>
<path d="M16.0336 0.526308L15.8015 0.437378L18.4561 7.39616L18.5957 7.24586L16.0336 0.526308Z" fill="#D1D1D1"/>
<path d="M15.8015 0.437441L15.5703 0.348511L18.3155 7.54651L18.4561 7.39622L15.8015 0.437441Z" fill="#D2D2D2"/>
<path d="M15.5702 0.348452L15.3389 0.259521L18.1758 7.69763L18.3154 7.54645L15.5702 0.348452Z" fill="#D3D3D3"/>
<path d="M15.3389 0.259619L15.1068 0.1698L18.0353 7.84802L18.1758 7.69773L15.3389 0.259619Z" fill="#D4D4D4"/>
<path d="M15.1067 0.169741L14.8755 0.0808105L17.8955 7.99825L18.0352 7.84796L15.1067 0.169741Z" fill="#D5D5D5"/>
<path d="M14.8759 0.0807514L14.6447 -0.00817871L17.7555 8.14849L17.896 7.9982L14.8759 0.0807514Z" fill="#D6D6D6"/>
<path d="M14.6446 -0.00811583L14.4125 -0.0970459L17.6158 8.29973L17.7554 8.14855L14.6446 -0.00811583Z" fill="#D7D7D7"/>
<path d="M14.4125 -0.096983L14.1812 -0.185913L17.4752 8.45009L17.6157 8.29979L14.4125 -0.096983Z" fill="#D8D8D8"/>
<path d="M14.1811 -0.185938L13.9499 -0.275757L17.3355 8.60035L17.4751 8.45006L14.1811 -0.185938Z" fill="#D9D9D9"/>
<path d="M13.9499 -0.275816L13.7178 -0.364746L17.1949 8.75059L17.3354 8.6003L13.9499 -0.275816Z" fill="#DADADA"/>
<path d="M13.7177 -0.364683L13.4864 -0.453613L17.0543 8.90183L17.1948 8.75065L13.7177 -0.364683Z" fill="#DBDBDB"/>
<path d="M13.4863 -0.453672L13.2551 -0.542603L16.9146 9.05206L17.0542 8.90177L13.4863 -0.453672Z" fill="#DCDCDC"/>
<path d="M13.2551 -0.542627L13.023 -0.632446L16.774 9.20233L16.9146 9.05204L13.2551 -0.542627Z" fill="#DDDDDD"/>
<path d="M13.0233 -0.632383L12.7921 -0.721313L16.6348 9.35358L16.7744 9.20239L13.0233 -0.632383Z" fill="#DEDEDE"/>
<path d="M12.7921 -0.721373L12.5609 -0.810303L16.4943 9.50381L16.6348 9.35352L12.7921 -0.721373Z" fill="#DFDFDF"/>
<path d="M12.5608 -0.81024L12.3287 -0.89917L16.3545 9.65416L16.4941 9.50387L12.5608 -0.81024Z" fill="#E0E0E0"/>
<path d="M12.3286 -0.899229L12.0974 -0.988159L16.214 9.80439L16.3545 9.6541L12.3286 -0.899229Z" fill="#E1E1E1"/>
<path d="M12.0978 -0.988184L11.8666 -1.078L16.0747 9.95555L16.2144 9.80437L12.0978 -0.988184Z" fill="#E3E3E3"/>
<path d="M11.866 -1.07794L11.6339 -1.16687L15.9337 10.1059L16.0742 9.95561L11.866 -1.07794Z" fill="#E4E4E4"/>
<path d="M11.6343 -1.16693L11.4031 -1.25586L15.7936 10.2561L15.9341 10.1058L11.6343 -1.16693Z" fill="#E5E5E5"/>
<path d="M11.403 -1.2558L11.1718 -1.34473L15.6538 10.4065L15.7935 10.2562L11.403 -1.2558Z" fill="#E6E6E6"/>
<path d="M11.1717 -1.34475L10.9396 -1.43457L15.5133 10.5577L15.6538 10.4065L11.1717 -1.34475Z" fill="#E7E7E7"/>
<path d="M10.9395 -1.43451L10.7083 -1.52344L15.3736 10.708L15.5132 10.5577L10.9395 -1.43451Z" fill="#E8E8E8"/>
<path d="M10.7083 -1.5235L10.477 -1.61243L15.233 10.8582L15.3735 10.7079L10.7083 -1.5235Z" fill="#E9E9E9"/>
<path d="M10.4774 -1.61249L10.2453 -1.70142L15.0938 11.0094L15.2334 10.8582L10.4774 -1.61249Z" fill="#EAEAEA"/>
<path d="M10.2453 -1.70135L10.0141 -1.79028L14.9532 11.1597L15.0938 11.0094L10.2453 -1.70135Z" fill="#EBEBEB"/>
<path d="M10.0139 -1.79031L9.78184 -1.88013L14.8135 11.31L14.9531 11.1597L10.0139 -1.79031Z" fill="#ECECEC"/>
<path d="M9.78181 -1.88006L9.55059 -1.96899L14.673 11.4603L14.8135 11.31L9.78181 -1.88006Z" fill="#EDEDED"/>
<path d="M9.55048 -1.96905L9.31926 -2.05798L14.5332 11.6115L14.6729 11.4603L9.55048 -1.96905Z" fill="#EEEEEE"/>
<path d="M9.31923 -2.05792L9.08713 -2.14685L14.3927 11.7618L14.5332 11.6115L9.31923 -2.05792Z" fill="#EFEFEF"/>
<path d="M9.08701 -2.14686L8.86291 -2.23401L8.85846 -2.22956L14.2521 11.9121L14.3926 11.7618L9.08701 -2.14686Z" fill="#F0F0F0"/>
<path d="M8.71872 -2.07843L14.1123 12.0623L14.252 11.912L8.85834 -2.22961L8.71872 -2.07843Z" fill="#F1F1F1"/>
<path d="M8.57868 -1.92808L13.9723 12.2136L14.1128 12.0624L8.71918 -2.07837L8.57868 -1.92808Z" fill="#F2F2F2"/>
<path d="M8.43894 -1.77781L13.8325 12.3638L13.9722 12.2136L8.57856 -1.9281L8.43894 -1.77781Z" fill="#F3F3F3"/>
<path d="M8.2984 -1.62754L13.692 12.5141L13.8325 12.3638L8.43891 -1.77783L8.2984 -1.62754Z" fill="#F4F4F4"/>
<path d="M8.15827 -1.47638L13.5528 12.6644L13.6924 12.5141L8.29877 -1.62756L8.15827 -1.47638Z" fill="#F5F5F5"/>
<path d="M8.01813 -1.32603L13.4117 12.8156L13.5522 12.6645L8.15775 -1.47632L8.01813 -1.32603Z" fill="#F6F6F6"/>
<path d="M7.87799 -1.17576L13.2725 12.9659L13.4121 12.8156L8.0185 -1.32605L7.87799 -1.17576Z" fill="#F7F7F7"/>
<path d="M7.73785 -1.0246L13.1315 13.1162L13.272 12.9659L7.87747 -1.17578L7.73785 -1.0246Z" fill="#F8F8F8"/>
<path d="M7.59772 -0.874244L12.9913 13.2674L13.1318 13.1162L7.73823 -1.02454L7.59772 -0.874244Z" fill="#F9F9F9"/>
<path d="M7.45798 -0.723976L12.8516 13.4177L12.9912 13.2674L7.5976 -0.874268L7.45798 -0.723976Z" fill="#FAFAFA"/>
<path d="M7.31744 -0.573707L12.7111 13.568L12.8516 13.4177L7.45795 -0.723999L7.31744 -0.573707Z" fill="#FBFBFB"/>
<path d="M7.17771 -0.422549L12.5713 13.7182L12.7109 13.5679L7.31733 -0.57373L7.17771 -0.422549Z" fill="#FCFCFC"/>
<path d="M7.03766 -0.272193L12.4313 13.8695L12.5718 13.7183L7.17817 -0.422485L7.03766 -0.272193Z" fill="#FDFDFD"/>
<path d="M6.89703 -0.121925L12.2915 14.0197L12.4312 13.8694L7.03754 -0.272217L6.89703 -0.121925Z" fill="#FEFEFE"/>
<path d="M6.75739 0.0283434L12.151 14.17L12.2915 14.0197L6.89701 -0.121948L6.75739 0.0283434Z" fill="white"/>
<path d="M1.85278 15.359L8.61947 17.9637L12.1509 14.17L6.75727 0.0283203L-2.98235 10.4927L1.85278 15.359Z" fill="white"/>
</g>
<path d="M1.48903 12.4226C1.52727 11.5769 2.55708 9.63908 2.92436 8.76401C3.29164 7.88894 6.30726 6.08544 6.30726 6.08544L6.85418 5.18369L8.16056 4.6092L9.45983 4.05605L9.60123 3.99558L9.74263 3.93511L9.88402 3.87464L10.0254 3.81416L10.1668 3.75369L10.3082 3.69322L10.4496 3.63275L10.591 3.57227L10.7324 3.5118L10.8738 3.45133L11.0152 3.39086L11.1566 3.33038L11.298 3.26991L11.4296 3.21389L11.4385 3.20499L11.5781 3.06804L11.7178 2.93109L11.8574 2.79414L11.997 2.65718L12.1366 2.52023L12.2762 2.38328L12.3394 2.32103L12.4168 2.31214L12.559 2.29524L12.7013 2.27834L12.8436 2.26145L12.9859 2.24455L13.1282 2.22765L13.2705 2.21076L13.4128 2.19386L13.5551 2.17696L13.6973 2.16007L13.8396 2.14317L13.9819 2.12627L14.1242 2.10938L14.2665 2.09248L14.4088 2.07558L14.5511 2.05869L14.6934 2.04179L14.8357 2.02489L14.9779 2.008L15.1202 1.9911L15.2625 1.9742L15.4048 1.95731L15.5471 1.94041L15.6894 1.92351L15.8317 1.90662L15.974 1.88972L15.9891 1.88794C16.0326 1.89505 16.0753 1.90395 16.1171 1.91284C16.1669 1.9244 16.215 1.93685 16.2612 1.95108C16.311 1.9662 16.359 1.98309 16.4053 2.00088C16.456 2.02045 16.504 2.0409 16.5493 2.06402C16.6009 2.08981 16.6489 2.11649 16.6943 2.14584C16.7459 2.17874 16.7948 2.21253 16.8401 2.249C16.8935 2.29168 16.9424 2.33615 16.9869 2.38239C17.042 2.4402 17.0918 2.49978 17.1345 2.56114C17.195 2.6474 17.2448 2.73544 17.2839 2.82171C17.4386 3.15875 17.4466 3.46378 17.444 3.50558C17.4351 3.63808 17.3862 3.77592 17.3132 3.91199C17.2732 3.9858 17.227 4.05872 17.1763 4.12987C17.1327 4.19034 17.0865 4.24992 17.0384 4.30773C16.9931 4.36197 16.9469 4.41355 16.8997 4.46335C16.8526 4.51316 16.8063 4.56029 16.761 4.60564C16.7121 4.65278 16.6658 4.69724 16.6214 4.73726C16.5698 4.78439 16.5227 4.8253 16.4817 4.85998C16.3973 4.93202 16.3421 4.97292 16.3421 4.97292L16.2016 5.05563L16.0611 5.13833L15.9206 5.22104L15.7801 5.30374L15.6396 5.38645L15.4991 5.46915L15.3586 5.55186L15.2492 5.61678L15.2189 5.65591L15.0811 5.83199L14.9433 6.00807L14.8054 6.18415L14.6676 6.36023L14.5297 6.53631L14.3919 6.7124L14.254 6.88848L14.1162 7.06456L13.9784 7.24064L13.8405 7.41672L13.7027 7.5928L13.5648 7.76889L13.427 7.94497L13.2892 8.12105L13.1513 8.29713L13.1335 8.32025L13.0099 8.35493L12.8685 8.39495L12.7271 8.43497L12.5857 8.47499L12.4443 8.51501L12.3029 8.55503L12.1615 8.59505L12.0201 8.63506L11.8787 8.67508L11.7373 8.7151L11.5959 8.75512L11.587 8.75779L11.4563 8.86006L11.3167 8.96944L11.1771 9.07882L11.0374 9.18821L10.8978 9.29759L10.7582 9.40698L10.6764 9.47101L10.6168 9.46389L10.4736 9.44611L10.3305 9.42832L10.1873 9.41054L10.0441 9.39275L9.90092 9.37496L9.77286 9.35896L9.75774 9.37052L9.61812 9.47545L6.06181 12.1291L4.75098 12.5204L2.25916 13.6925C2.25916 13.6925 1.46679 13.2674 1.50503 12.4217L1.48903 12.4226Z" fill="url(#paint2_linear_430_11025)"/>
<path d="M1.48903 12.4226C1.52727 11.5769 2.55708 9.63909 2.92436 8.76401C3.29164 7.88894 6.30726 6.08544 6.30726 6.08544L6.85418 5.18369L8.16056 4.6092L9.45983 4.05605L9.60123 3.99558L9.74263 3.93511L9.88402 3.87464L10.0254 3.81416L10.1668 3.75369L10.3082 3.69322L10.4496 3.63275L10.591 3.57227L10.7324 3.5118L10.8738 3.45133L11.0152 3.39086L11.1566 3.33038L11.298 3.26991L11.4296 3.21389L11.4385 3.20499L11.5781 3.06804L11.7178 2.93109L11.8574 2.79414L11.997 2.65718L12.1366 2.52023L12.2762 2.38328L12.3394 2.32103L12.4168 2.31214L12.559 2.29524L12.7013 2.27834L12.8436 2.26145L12.9859 2.24455L13.1282 2.22765L13.2705 2.21076L13.4128 2.19386L13.5551 2.17696L13.6973 2.16007L13.8396 2.14317L13.9819 2.12627L14.1242 2.10938L14.2665 2.09248L14.4088 2.07558L14.5511 2.05869L14.6934 2.04179L14.8357 2.02489L14.9779 2.008L15.1202 1.9911L15.2625 1.9742L15.4048 1.95731L15.5471 1.94041L15.6894 1.92351L15.8317 1.90662L15.974 1.88972L15.9891 1.88794C16.0326 1.89505 16.0753 1.90395 16.1171 1.91284C16.1669 1.9244 16.215 1.93685 16.2612 1.95108C16.311 1.9662 16.359 1.98309 16.4053 2.00088C16.456 2.02045 16.504 2.0409 16.5493 2.06402C16.6009 2.08981 16.6489 2.11649 16.6943 2.14584C16.7459 2.17874 16.7948 2.21253 16.8401 2.249C16.8935 2.29168 16.9424 2.33615 16.9869 2.38239C17.042 2.4402 17.0918 2.49978 17.1345 2.56114C17.195 2.6474 17.2448 2.73544 17.2839 2.82171C17.4386 3.15875 17.4466 3.46378 17.444 3.50558C17.4351 3.63808 17.3862 3.77592 17.3132 3.91199C17.2732 3.9858 17.227 4.05872 17.1763 4.12987C17.1327 4.19034 17.0865 4.24992 17.0384 4.30773C16.9931 4.36197 16.9469 4.41355 16.8997 4.46335C16.8526 4.51316 16.8063 4.56029 16.761 4.60564C16.7121 4.65278 16.6658 4.69724 16.6214 4.73726C16.5698 4.78439 16.5227 4.8253 16.4817 4.85998C16.3973 4.93202 16.3421 4.97292 16.3421 4.97292L16.2016 5.05563L16.0611 5.13833L15.9206 5.22104L15.7801 5.30374L15.6396 5.38645L15.4991 5.46915L15.3586 5.55186L15.2492 5.61678L15.2189 5.65591L15.0811 5.83199L14.9433 6.00807L14.8054 6.18415L14.6676 6.36023L14.5297 6.53631L14.3919 6.7124L14.254 6.88848L14.1162 7.06456L13.9784 7.24064L13.8405 7.41672L13.7027 7.5928L13.5648 7.76889L13.427 7.94497L13.2892 8.12105L13.1513 8.29713L13.1335 8.32025L13.0099 8.35493L12.8685 8.39495L12.7271 8.43497L12.5857 8.47499L12.4443 8.51501L12.3029 8.55503L12.1615 8.59505L12.0201 8.63506L11.8787 8.67508L11.7373 8.7151L11.5959 8.75512L11.587 8.75779L11.4563 8.86006L11.3167 8.96944L11.1771 9.07882L11.0374 9.18821L10.8978 9.29759L10.7582 9.40698L10.6764 9.47101L10.6168 9.46389L10.4736 9.44611L10.3305 9.42832L10.1873 9.41054L10.0441 9.39275L9.90092 9.37496L9.77286 9.35896L9.75774 9.37052L9.61812 9.47545L6.06181 12.1291L4.75098 12.5204L2.25916 13.6925C2.25916 13.6925 1.46679 13.2674 1.50503 12.4217L1.48903 12.4226Z" stroke="url(#paint3_linear_430_11025)" stroke-width="0.35" stroke-miterlimit="10"/>
<path style="mix-blend-mode:overlay" opacity="0.21" d="M15.0689 5.47363C15.1249 5.50476 20.145 7.696 20.145 7.696C20.145 7.696 16.3388 10.6093 16.2792 10.5933C16.2188 10.5773 12.6118 7.88808 12.6118 7.88808L15.0689 5.47363Z" fill="url(#paint4_linear_430_11025)"/>
<path style="mix-blend-mode:multiply" opacity="0.24" d="M16.2783 10.5925C16.2525 10.5693 12.6108 7.88721 12.6108 7.88721L11.2306 8.47415L14.3032 10.9953L16.2774 10.5916L16.2783 10.5925Z" fill="url(#paint5_linear_430_11025)"/>
<path style="mix-blend-mode:overlay" opacity="0.21" d="M14.1475 10.8583L10.857 8.15747L10.6596 9.3438L13.3453 11.9308C13.3453 11.9308 14.1137 10.8654 14.1475 10.8592V10.8583Z" fill="url(#paint6_linear_430_11025)"/>
<path style="mix-blend-mode:multiply" opacity="0.24" d="M13.3452 11.9299L9.88495 8.72485L9.60126 9.21219L11.8361 11.4372L13.3452 11.9299Z" fill="url(#paint7_linear_430_11025)"/>
<path style="mix-blend-mode:overlay" opacity="0.21" d="M11.8369 11.4933L9.07119 8.66797L5.95152 12.0224L7.7568 15.6685L11.8369 11.4933Z" fill="url(#paint8_linear_430_11025)"/>
<path style="mix-blend-mode:multiply" opacity="0.24" d="M7.75684 15.6685L5.72034 11.1722L4.4771 12.1185L6.19345 15.7397L7.75684 15.6685Z" fill="url(#paint9_linear_430_11025)"/>
<path style="mix-blend-mode:overlay" opacity="0.21" d="M5.84424 15.0024L4.26573 11.6187L2.25769 13.5262L2.73791 16.8646L5.84424 15.0024Z" fill="url(#paint10_linear_430_11025)"/>
<path style="mix-blend-mode:multiply" opacity="0.24" d="M2.54034 15.6214L2.11525 12.676C2.11525 12.676 3.23577 8.52744 3.21354 8.52122C3.19131 8.51499 -0.859456 7.0592 -0.859456 7.0592L-0.817658 14.3435L2.54034 15.6223V15.6214Z" fill="url(#paint11_linear_430_11025)"/>
<path style="mix-blend-mode:overlay" opacity="0.21" d="M3.29582 8.54344L-0.994166 6.99072L3.90321 4.20898L6.56934 6.26772L3.29582 8.54344Z" fill="url(#paint12_linear_430_11025)"/>
<path style="mix-blend-mode:multiply" opacity="0.24" d="M3.84547 4.18502L7.13232 6.74798L6.9767 5.25841L3.79033 2.56116L3.84547 4.18502Z" fill="url(#paint13_linear_430_11025)"/>
<path style="mix-blend-mode:overlay" opacity="0.21" d="M7.03556 5.25039L3.48369 2.29436L9.9916 1.09558L11.5879 3.54294L7.03556 5.25039Z" fill="url(#paint14_linear_430_11025)"/>
<path style="mix-blend-mode:multiply" opacity="0.24" d="M9.99129 1.09557L10.8877 -0.00805664L12.5996 2.76834L11.5876 3.54292L9.99129 1.09557Z" fill="url(#paint15_linear_430_11025)"/>
<path style="mix-blend-mode:overlay" opacity="0.21" d="M12.3658 2.36194L10.6503 -0.382446L16.7305 0.304094L15.9105 2.04179L12.3658 2.36194Z" fill="url(#paint16_linear_430_11025)"/>
<path style="mix-blend-mode:overlay" opacity="0.67" d="M15.0689 5.47363C15.1249 5.50476 20.145 7.696 20.145 7.696C20.145 7.696 16.3388 10.6093 16.2792 10.5933C16.2188 10.5773 12.6118 7.88808 12.6118 7.88808L15.0689 5.47363Z" fill="url(#paint17_linear_430_11025)"/>
<path style="mix-blend-mode:overlay" opacity="0.67" d="M14.1475 10.8583L10.857 8.15747L10.6596 9.3438L13.3453 11.9308C13.3453 11.9308 14.1137 10.8654 14.1475 10.8592V10.8583Z" fill="url(#paint18_linear_430_11025)"/>
<path style="mix-blend-mode:overlay" opacity="0.67" d="M11.8369 11.4933L9.07119 8.66797L5.95152 12.0224L7.7568 15.6685L11.8369 11.4933Z" fill="url(#paint19_linear_430_11025)"/>
<path style="mix-blend-mode:overlay" opacity="0.67" d="M5.84424 15.0024L4.26573 11.6187L2.25769 13.5262L2.73791 16.8646L5.84424 15.0024Z" fill="url(#paint20_linear_430_11025)"/>
<path style="mix-blend-mode:overlay" opacity="0.67" d="M3.29582 8.54344L-0.994166 6.99072L3.90321 4.20898L6.56934 6.26772L3.29582 8.54344Z" fill="url(#paint21_linear_430_11025)"/>
<path style="mix-blend-mode:overlay" opacity="0.67" d="M7.03556 5.25039L3.48369 2.29436L9.9916 1.09558L11.5879 3.54294L7.03556 5.25039Z" fill="url(#paint22_linear_430_11025)"/>
<path style="mix-blend-mode:overlay" opacity="0.67" d="M12.3658 2.36194L10.6503 -0.382446L16.7305 0.304094L15.9105 2.04179L12.3658 2.36194Z" fill="url(#paint23_linear_430_11025)"/>
</g>
<path d="M6.37122 6.04821L6.91814 5.14646L8.22453 4.57197L9.52379 4.01882L9.66519 3.95835L9.80659 3.89788L9.94799 3.83741L10.0894 3.77693L10.2308 3.71646L10.3722 3.65599L10.5136 3.59552L10.655 3.53504L10.7964 3.47457L10.9378 3.4141L11.0792 3.35363L11.2206 3.29315L11.362 3.23268L11.4936 3.17666L11.5025 3.16776L11.6421 3.03081L11.7817 2.89386L11.9213 2.75691L12.061 2.61995L12.2006 2.483L12.3402 2.34605L12.4033 2.2838L12.4807 2.2749L12.623 2.25801L12.7653 2.24111L12.9076 2.22421L13.0499 2.20732L13.1922 2.19042L13.3344 2.17352L13.4767 2.15663L13.619 2.13973L13.7613 2.12283L13.9036 2.10594L14.0459 2.08904L14.1882 2.07214L14.3305 2.05525L14.4728 2.03835L14.615 2.02145L14.7573 2.00456L14.8996 1.98766L15.0419 1.97076L15.1842 1.95387L15.3265 1.93697L15.4688 1.92007L15.6111 1.90318L15.7533 1.88628L15.8956 1.86938L16.0379 1.85249L16.053 1.85071C16.0966 1.85782 16.1393 1.86672 16.1811 1.87561C16.2309 1.88717 16.2789 1.89962 16.3252 1.91385C16.375 1.92897 16.423 1.94586 16.4692 1.96365C16.5199 1.98321 16.5679 2.00367 16.6133 2.02679C16.6649 2.05258 16.7129 2.07926 16.7583 2.1086C16.8098 2.14151 16.8587 2.1753 16.9041 2.21176C16.9575 2.25445 17.0064 2.29892 17.0508 2.34516C17.106 2.40296 17.1558 2.46255 17.1985 2.52391C17.2589 2.61017 17.3087 2.69821 17.3479 2.78447C17.5026 3.12152 17.5106 3.42655 17.5079 3.46835C17.499 3.60085 17.4501 3.73869 17.3772 3.87476C17.3372 3.94857 17.2909 4.02149 17.2403 4.09264C17.1967 4.15311 17.1504 4.21269 17.1024 4.2705C17.0571 4.32474 17.0108 4.37632 16.9637 4.42612C16.9165 4.47592 16.8703 4.52395 16.825 4.56841C16.776 4.61554 16.7298 4.66001 16.6853 4.70003C16.6338 4.74716 16.5866 4.78807 16.5457 4.82275C16.4612 4.89478 16.4061 4.93569 16.4061 4.93569L16.2656 5.0184L16.1251 5.1011L15.9846 5.18381L15.8441 5.26651L15.7035 5.34922L15.563 5.43192L15.4225 5.51463L15.3131 5.57955L15.2829 5.61867L15.1451 5.79476L15.0072 5.97084L14.8694 6.14692L14.7315 6.323L14.5937 6.49908L14.4559 6.67516L14.318 6.85125L14.1802 7.02733L14.0423 7.20341L13.9045 7.37949L13.7666 7.55557L13.6288 7.73165L13.491 7.90774L13.3531 8.08382L13.2153 8.2599L13.1975 8.28302L13.0739 8.3177L12.9325 8.35772L12.7911 8.39774L12.6497 8.43776L12.5083 8.47778L12.3669 8.5178L12.2255 8.55781L12.0841 8.59783L11.9427 8.63785L11.8013 8.67787L11.6599 8.71789L11.651 8.72056L11.5203 8.82283L11.3807 8.93221L11.241 9.04159L11.1014 9.15098L10.9618 9.26036L10.8222 9.36975L10.7404 9.43378L10.6808 9.42666L10.5376 9.40887L10.3944 9.39109L10.2512 9.3733L10.1081 9.35552L9.96489 9.33773L9.83683 9.32172L9.82171 9.33328L9.68209 9.43822L6.12578 12.0919L4.81495 12.4832L2.32313 13.6553C2.32313 13.6553 1.53076 13.2302 1.569 12.3845C1.60724 11.5387 2.63705 9.60096 3.00433 8.72589C3.37161 7.85082 6.38723 6.04643 6.38723 6.04643L6.37122 6.04821Z" fill="url(#paint24_linear_430_11025)"/>
<path d="M6.3755 6.05081L6.92242 5.14905L8.22791 4.57368L9.52629 4.02053L9.66769 3.96006L9.80909 3.89959L9.95049 3.83911L10.0919 3.77864L10.2333 3.71817L10.3747 3.6577L10.5161 3.59722L10.6575 3.53675L10.7989 3.47628L10.9403 3.41581L11.0817 3.35534L11.2231 3.29486L11.3645 3.23439L11.4961 3.17836L11.505 3.16947L11.6437 3.03252L11.7824 2.89557L11.9212 2.75861L12.0599 2.62166L12.1986 2.48471L12.3374 2.34776L12.4005 2.28551L12.4779 2.27661L12.6202 2.25972L12.7625 2.24282L12.9047 2.22592L13.047 2.20903L13.1893 2.19213L13.3316 2.17523L13.4739 2.15834L13.6162 2.14144L13.7585 2.12454L13.9008 2.10765L14.0431 2.09075L14.1853 2.07385L14.3276 2.05696L14.4699 2.04006L14.6122 2.02316L14.7545 2.00627L14.8968 1.98937L15.0391 1.97247L15.1814 1.95558L15.3236 1.93868L15.4659 1.92178L15.6082 1.90489L15.7505 1.88799L15.8928 1.87109L16.0351 1.8542L16.0502 1.85242C16.0938 1.85953 16.1365 1.86842 16.1783 1.87732C16.2281 1.88888 16.2761 1.90133 16.3223 1.91556C16.3721 1.93068 16.4202 1.94757 16.4664 1.96536C16.5171 1.98492 16.5651 2.00538 16.6105 2.0285C16.662 2.05429 16.7101 2.08097 16.7554 2.11031C16.807 2.14322 16.8559 2.17701 16.9013 2.21347C16.9546 2.25616 17.0035 2.30062 17.0471 2.34687C17.1022 2.40467 17.152 2.46426 17.1947 2.52562C17.2552 2.61188 17.305 2.69992 17.3441 2.78618C17.4989 3.12323 17.5069 3.42826 17.5033 3.47006C17.4944 3.60256 17.4455 3.7404 17.3726 3.87647C17.3326 3.95028 17.2863 4.0232 17.2356 4.09434C17.1921 4.15482 17.1458 4.2144 17.0978 4.2722C17.0524 4.32645 17.0062 4.37803 16.9591 4.42783C16.9119 4.47763 16.8657 4.52565 16.8203 4.57012C16.7714 4.61725 16.7252 4.66172 16.6807 4.70174C16.6291 4.74887 16.582 4.78978 16.5411 4.82446C16.4566 4.89649 16.4015 4.9374 16.4015 4.9374L16.261 5.021L16.1205 5.1037L15.9799 5.18641L15.8394 5.26911L15.6989 5.35182L15.5584 5.43452L15.4179 5.51723L15.3085 5.58214L15.2783 5.62127L15.1404 5.79735L15.0026 5.97344L14.8648 6.14952L14.7269 6.3256L14.5891 6.50168L14.4512 6.67776L14.3134 6.85384L14.1756 7.02993L14.0377 7.20601L13.8999 7.38209L13.762 7.55817L13.6242 7.73425L13.4863 7.91033L13.3485 8.08641L13.2107 8.2625L13.1929 8.28562L13.0693 8.3203L12.9279 8.36032L12.7865 8.40034L12.6451 8.44036L12.5037 8.48038L12.3623 8.52039L12.2209 8.56041L12.0795 8.60043L11.9381 8.64045L11.7967 8.68047L11.6553 8.72049L11.6464 8.72315L11.5157 8.82542L11.376 8.93481L11.2364 9.04419L11.0968 9.15358L10.9572 9.26296L10.8176 9.37234L10.7357 9.43637L10.6762 9.42926L10.533 9.41147L10.3898 9.39369L10.2466 9.3759L10.1034 9.35811L9.96027 9.34033L9.83221 9.32432L9.81709 9.33588L9.67748 9.44082L6.12205 12.0954L4.81122 12.4867L2.32029 13.6597C2.32029 13.6597 1.52881 13.2346 1.56705 12.3889C1.60529 11.5422 2.6351 9.60445 3.00238 8.72938C3.36967 7.85431 6.38439 6.04903 6.38439 6.04903L6.3755 6.05081Z" stroke="url(#paint25_linear_430_11025)" stroke-width="0.35" stroke-miterlimit="10"/>
<g opacity="0.59">
<path d="M19.1605 16.6006C18.762 15.8136 18.5175 14.9279 18.6153 14.0537C18.7345 12.9883 19.3392 12.0474 19.7421 11.0523C20.522 9.12961 20.5389 6.91437 19.7883 4.97925" stroke="#72391E" stroke-width="0.68" stroke-miterlimit="10"/>
<path d="M18.255 18.4362C18.5423 17.98 18.3173 17.3939 18.175 16.8746C17.8957 15.8581 17.9687 14.7785 18.1465 13.7398C18.3244 12.7011 18.6045 11.6811 18.737 10.6361C18.8313 9.89447 18.8508 9.13945 19.0376 8.41467" stroke="#72391E" stroke-width="0.68" stroke-miterlimit="10"/>
<path d="M17.5046 19.2721C17.2859 18.751 17.3357 18.3357 17.3392 17.7719C17.3526 15.6038 18.0151 13.4854 18.1192 11.32C18.1796 10.0705 18.0525 8.81127 17.743 7.59827" stroke="#72391E" stroke-width="0.68" stroke-miterlimit="10"/>
<path d="M17.9419 18.4371C16.4745 16.116 16.2789 13.055 17.4394 10.5703" stroke="#72391E" stroke-width="0.68" stroke-miterlimit="10"/>
<path d="M17.7861 18.8398C16.7296 17.995 16.0022 16.7553 15.7834 15.4267C15.7167 15.0212 15.6954 14.6094 15.6918 14.1986C15.6785 12.7428 15.6625 12.8131 15.8617 11.3706" stroke="#72391E" stroke-width="0.68" stroke-miterlimit="10"/>
<path d="M21.8818 8.99803C22.0463 10.4894 21.5252 10.4494 21.4024 11.1706C21.2761 11.9149 21.2806 12.7117 20.8902 13.3592C20.7061 13.6642 20.4447 13.915 20.2286 14.1987C19.8399 14.7091 19.6016 15.3298 19.5491 15.9666C19.5776 15.6678 19.6229 15.4597 19.7715 15.1849C20.0258 14.7136 20.6207 14.5224 20.8137 13.9559C20.8804 13.7602 20.8964 13.5521 20.9115 13.3458C21.0449 11.5734 21.1774 9.80106 21.3108 8.02869" stroke="#72391E" stroke-width="0.68" stroke-miterlimit="10"/>
<path d="M20.8179 8.04639C20.7005 9.19625 20.5778 10.3692 20.1055 11.4257C19.8334 12.0358 19.4439 12.6112 19.3523 13.2719C19.2998 13.6534 19.3496 14.0447 19.2829 14.4245C19.2154 14.8042 18.9832 15.1973 18.6035 15.2791" stroke="#72391E" stroke-width="0.68" stroke-miterlimit="10"/>
<path d="M14.9844 20.5358C14.9257 19.8848 14.5771 19.2649 14.0488 18.8728C13.5375 18.4939 12.8776 18.3249 12.4223 17.8803C12.0461 17.513 11.854 16.9928 11.7909 16.4743C11.71 15.8091 11.838 15.1448 11.814 14.4796" stroke="#72391E" stroke-width="0.68" stroke-miterlimit="10"/>
<path d="M13.7569 20.903C13.4243 20.0653 13.5106 19.1182 13.7453 18.2476C13.9792 17.3778 14.3527 16.5499 14.592 15.6811C14.905 14.5445 14.9815 13.3449 14.817 12.1781" stroke="#72391E" stroke-width="0.68" stroke-miterlimit="10"/>
<path d="M14.7153 20.6959C13.5077 18.4059 13.5904 16.0404 12.8825 13.5539C12.8131 13.3102 12.6539 13.0123 12.4023 13.055" stroke="#72391E" stroke-width="0.68" stroke-miterlimit="10"/>
<path d="M14.2896 20.8025C13.7666 20.3668 13.5452 19.9542 12.968 19.5477C12.1961 19.0044 11.2241 18.7323 10.5812 18.043C10.3402 17.7851 10.157 17.4792 9.99601 17.1662C9.75767 16.7038 9.5647 16.1399 9.80747 15.6802" stroke="#72391E" stroke-width="0.68" stroke-miterlimit="10"/>
<path d="M13.6699 21.0783C12.9825 20.4762 12.1377 20.0805 11.404 19.5344C9.71787 18.2779 8.73608 16.325 7.81299 14.4441" stroke="#72391E" stroke-width="0.68" stroke-miterlimit="10"/>
<path d="M7.36131 15.3813C7.34441 16.0554 7.71703 16.6762 8.11988 17.2204C9.3738 18.9154 11.0564 20.2956 12.9692 21.2009C12.0106 20.7367 10.7762 20.7429 9.78821 20.3428C8.01672 19.6233 6.57694 18.1417 5.91708 16.3614" stroke="#72391E" stroke-width="0.68" stroke-miterlimit="10"/>
<path d="M10.958 21.1316C9.90419 21.0596 8.67606 20.8577 7.75119 20.3526C6.26339 19.5388 4.73024 18.6424 3.82848 17.2151C3.65863 16.9465 3.51456 16.5926 3.68798 16.3258" stroke="#72391E" stroke-width="0.68" stroke-miterlimit="10"/>
<path d="M12.2373 21.2286C11.4823 21.2481 10.8598 21.2179 10.2257 21.1503C9.50626 21.073 8.94867 20.9342 8.2479 20.7546C7.41552 20.5411 6.64005 20.1872 6.04955 19.8733C5.51241 19.5878 5.17003 19.3344 4.71293 19.0498C4.16601 18.7092 3.72847 18.2805 3.23669 17.8644C3.06772 17.7212 2.86763 17.4659 2.73779 17.2881" stroke="#72391E" stroke-width="0.68" stroke-miterlimit="10"/>
<path d="M12.2178 21.2383C10.5023 20.1552 9.03319 18.759 8.11721 16.959C7.53649 15.8189 7.6521 16.1195 6.92643 15.0648" stroke="#72391E" stroke-width="0.68" stroke-miterlimit="10"/>
<path d="M13.2056 21.1219C12.0148 20.0761 11.1459 18.7652 10.6559 17.2303C10.246 15.947 10.0148 14.5953 9.39758 13.3956" stroke="#72391E" stroke-width="0.68" stroke-miterlimit="10"/>
<path d="M13.3115 20.4451C12.6712 19.5505 12.3449 18.4397 12.3982 17.345C12.432 16.654 12.6116 15.9559 12.4649 15.2792C12.3724 14.8523 12.1545 14.4637 11.9402 14.0822" stroke="#72391E" stroke-width="0.68" stroke-miterlimit="10"/>
<path d="M15.2852 20.358C14.724 19.8564 14.4937 19.0934 14.3336 18.3624C13.9379 16.5562 13.8205 14.6905 13.9859 12.8496" stroke="#72391E" stroke-width="0.68" stroke-miterlimit="10"/>
<path d="M16.2383 20.0102C15.4646 18.6878 15.2263 17.0666 15.5882 15.5806C15.7572 14.8843 16.0542 14.1817 15.9226 13.4783C15.8292 12.9803 15.5304 12.5472 15.2387 12.131" stroke="#72391E" stroke-width="0.68" stroke-miterlimit="10"/>
<path d="M17.3017 19.4375C17.0233 17.9142 17.026 16.7599 17.1807 15.2196C17.3133 13.8963 17.6067 12.573 17.476 11.2498" stroke="#72391E" stroke-width="0.68" stroke-miterlimit="10"/>
<path d="M18.5316 18.4877C18.1964 17.4037 18.6019 16.413 18.914 15.3218C19.2262 14.2315 19.6006 13.1208 19.4992 11.9914C19.4361 11.2888 19.1906 10.6103 19.147 9.90686" stroke="#72391E" stroke-width="0.68" stroke-miterlimit="10"/>
<path d="M19.4478 17.6696C19.7555 14.7464 19.615 11.7628 20.3051 8.90552C20.4163 8.44575 20.5515 7.9842 20.8022 7.58313" stroke="#72391E" stroke-width="0.68" stroke-miterlimit="10"/>
<path d="M20.2248 15.1449C20.6944 13.8038 20.9016 12.3738 20.8304 10.9554C20.7975 10.2911 20.7033 9.62676 20.7468 8.96245C20.7895 8.29815 20.9861 7.61605 21.4512 7.13672" stroke="#72391E" stroke-width="0.68" stroke-miterlimit="10"/>
<path d="M20.8839 6.32117C21.2965 7.01571 21.3206 8.01973 21.405 8.80232C21.5055 9.7432 21.5198 10.7028 21.3063 11.6303C21.0956 12.5472 20.6723 13.3991 20.3521 14.284C20.032 15.1688 19.7465 15.9941 19.9644 16.9092C19.9066 15.5148 19.7243 14.6984 19.9537 13.4685C20.184 12.2395 20.5264 11.0291 20.6749 9.78766C20.7149 9.45239 20.7398 9.11001 20.6643 8.78097C20.5878 8.45193 20.3957 8.13534 20.0942 7.97971" stroke="#492112" stroke-width="0.68" stroke-miterlimit="10"/>
<path d="M19.3462 17.4757C18.8802 16.846 18.85 15.995 18.9807 15.2257C19.1114 14.4556 19.3827 13.7104 19.4565 12.9331C19.5721 11.7103 19.1915 10.5009 18.8153 9.33057" stroke="#492112" stroke-width="0.68" stroke-miterlimit="10"/>
<path d="M18.5869 18.0893C18.1663 17.6002 17.9573 16.9563 17.9208 16.3142C17.8844 15.6731 18.0115 15.0319 18.201 14.4174C18.3317 13.9949 18.4927 13.5779 18.5558 13.1403C18.7372 11.8722 18.0729 10.6058 18.1956 9.33057" stroke="#492112" stroke-width="0.68" stroke-miterlimit="10"/>
<path d="M17.6262 18.4628C17.2412 16.2484 17.7303 13.9843 18.2772 11.8046C18.3804 11.3928 18.4426 10.8628 18.0842 10.6316" stroke="#492112" stroke-width="0.68" stroke-miterlimit="10"/>
<path d="M17.1246 18.5616C16.704 17.5994 16.5777 16.5127 16.7671 15.4811C16.9601 14.4317 17.4697 13.441 17.5168 12.3756C17.5328 12.0163 17.443 11.5824 17.1042 11.4552" stroke="#492112" stroke-width="0.68" stroke-miterlimit="10"/>
<path d="M16.9023 19.7496C16.2015 17.2498 16.2682 14.5445 17.0908 12.082" stroke="#492112" stroke-width="0.68" stroke-miterlimit="10"/>
<path d="M14.2809 12.91C14.6028 13.3333 14.6739 13.8883 14.7317 14.4156C14.8669 15.6473 14.9923 16.8799 15.1079 18.1142C15.1862 18.9528 15.26 19.8021 15.1355 20.6354" stroke="#492112" stroke-width="0.68" stroke-miterlimit="10"/>
<path d="M9.89714 13.554C9.69794 13.8883 9.71573 14.3161 9.8509 14.6807C9.98518 15.0453 10.2244 15.3619 10.4601 15.6723C11.8696 17.5282 13.369 19.4536 15.4971 20.4265C14.0377 18.727 12.9706 16.2948 12.5072 14.1115" stroke="#492112" stroke-width="0.68" stroke-miterlimit="10"/>
<path d="M20.3594 16.3846C21.2861 14.2511 21.7868 11.9372 21.8232 9.61432C21.8339 8.95179 21.7948 8.25013 21.4257 7.69788" stroke="#492112" stroke-width="0.68" stroke-miterlimit="10"/>
<path d="M19.9571 15.5593C20.4284 13.384 20.9015 11.1421 20.504 8.95264C20.4106 8.43773 20.2327 7.88103 19.781 7.61157" stroke="#492112" stroke-width="0.68" stroke-miterlimit="10"/>
<path d="M19.1648 16.6905C19.2697 13.714 19.2822 10.734 19.2039 7.75659" stroke="#492112" stroke-width="0.68" stroke-miterlimit="10"/>
<path d="M16.7768 18.8328C16.7963 16.1329 16.8097 13.3929 16.092 10.7891" stroke="#492112" stroke-width="0.68" stroke-miterlimit="10"/>
<path d="M15.9473 19.5354C15.8156 17.9213 15.684 16.3063 15.4475 14.7038C15.3096 13.7709 15.1264 12.8149 14.6098 12.0226" stroke="#492112" stroke-width="0.68" stroke-miterlimit="10"/>
<path d="M15.3638 20.3909C14.9751 19.1574 14.7315 17.8839 14.3651 16.6434C13.9987 15.4037 13.4971 14.1773 12.6639 13.1831" stroke="#492112" stroke-width="0.68" stroke-miterlimit="10"/>
<path d="M14.793 20.6478C13.8227 17.8323 12.5679 15.4 10.8961 12.9296" stroke="#492112" stroke-width="0.68" stroke-miterlimit="10"/>
<path d="M14.3643 20.3454C11.788 19.1733 9.30503 17.5103 7.93372 15.0505" stroke="#492112" stroke-width="0.68" stroke-miterlimit="10"/>
<path d="M14.9761 20.3856C15.2687 20.4772 15.5728 20.31 15.8307 20.1446C17.8085 18.8773 19.685 17.2721 20.6018 15.1209C21.3044 13.4721 21.388 11.6206 21.179 9.8429" stroke="#492112" stroke-width="0.68" stroke-miterlimit="10"/>
<path d="M19.7659 16.3285C20.3039 15.1537 20.8428 13.9745 21.2261 12.7411C21.6085 11.5076 21.8326 10.211 21.7241 8.92508C21.6636 8.21363 21.4671 7.45239 20.9015 7.00952" stroke="#492112" stroke-width="0.68" stroke-miterlimit="10"/>
<path d="M18.3768 17.7274C18.8411 15.8456 19.1959 13.9381 19.4396 12.0154C19.5063 11.4916 19.5641 10.9589 19.4787 10.4378C19.3942 9.91667 19.1488 9.39998 18.7157 9.09229" stroke="#492112" stroke-width="0.68" stroke-miterlimit="10"/>
<path d="M15.861 19.0257C16.0923 17.5504 16.3235 16.0759 16.5547 14.6005C16.6828 13.7815 16.8117 12.9545 16.7583 12.1274C16.705 11.3004 17.1256 11.1225 16.576 10.4973" stroke="#492112" stroke-width="0.68" stroke-miterlimit="10"/>
<path d="M14.3678 19.5496C14.5937 16.9546 14.7129 14.3507 14.7227 11.746" stroke="#492112" stroke-width="0.68" stroke-miterlimit="10"/>
<path d="M13.1885 20.18C12.5615 17.3547 12.2574 15.296 12.3801 12.4058" stroke="#492112" stroke-width="0.68" stroke-miterlimit="10"/>
<path d="M10.8701 20.558C9.94169 18.5962 9.24625 16.5259 8.80427 14.4041" stroke="#492112" stroke-width="0.68" stroke-miterlimit="10"/>
<path d="M10.8457 20.9733C9.38458 20.068 7.90301 19.1467 6.75047 17.8777C6.46768 17.5664 6.19644 17.2143 6.1333 16.799" stroke="#492112" stroke-width="0.68" stroke-miterlimit="10"/>
<path d="M12.0103 20.3214C9.83236 21.0613 7.50861 20.7065 5.49702 19.5922C4.86739 19.2436 4.02878 18.7189 3.6864 18.188" stroke="#492112" stroke-width="0.68" stroke-miterlimit="10"/>
<path d="M16.6659 19.5967C16.6401 19.5745 16.6339 19.6492 16.6685 19.643C16.7032 19.6368 16.7121 19.5941 16.7139 19.5594C16.8455 17.0329 16.5849 14.4877 15.9438 12.0386" stroke="#492112" stroke-width="0.68" stroke-miterlimit="10"/>
<path style="mix-blend-mode:multiply" opacity="0.32" d="M17.774 19.0427C17.7749 16.6202 17.8585 14.1978 18.0239 11.7806L17.774 19.0427Z" fill="url(#paint26_linear_430_11025)"/>
<path d="M19.8968 16.9875C20.4971 14.6825 20.9631 12.8043 21.0271 10.4618C21.0582 9.32176 21.0244 8.16122 20.6776 7.07361" stroke="#916436" stroke-width="0.68" stroke-miterlimit="10"/>
<path d="M19.3809 17.6953C19.8843 14.8505 20.3876 11.9184 19.7624 9.09668" stroke="#916436" stroke-width="0.68" stroke-miterlimit="10"/>
<path d="M18.5663 18.2156C19.0528 15.9132 19.5392 13.5237 19.0074 11.2319" stroke="#916436" stroke-width="0.68" stroke-miterlimit="10"/>
<path d="M18.0195 18.5037C17.9279 15.8767 17.8372 13.2488 17.7456 10.6218" stroke="#916436" stroke-width="0.68" stroke-miterlimit="10"/>
<path d="M16.3587 12.219C16.1159 14.4004 16.5686 16.6539 17.6357 18.5784C16.5286 17.5148 15.328 16.7607 14.5854 15.4205C14.1817 14.693 13.898 13.8153 14.1968 13.0407" stroke="#916436" stroke-width="0.68" stroke-miterlimit="10"/>
<path d="M17.4385 18.7652C16.5385 18.5794 15.6154 18.3846 14.8399 17.8955C14.5545 17.7159 14.2948 17.4989 14.0458 17.273C12.6425 16.004 11.5015 14.3356 11.3094 12.4628" stroke="#916436" stroke-width="0.68" stroke-miterlimit="10"/>
<path d="M17.8247 19.0693C16.4036 18.7474 15.1924 18.5518 13.8531 17.9799C12.5138 17.409 11.2546 16.5909 10.3572 15.4517" stroke="#916436" stroke-width="0.68" stroke-miterlimit="10"/>
<path d="M16.897 19.2383C15.1735 19.5958 13.3469 19.948 11.6848 19.3717C10.807 19.0675 10.0218 18.5082 9.44997 17.7816" stroke="#916436" stroke-width="0.68" stroke-miterlimit="10"/>
<path d="M16.7314 19.8386C14.5322 19.8786 12.2947 19.9151 10.1773 19.3219C9.53434 19.1423 8.8887 18.8933 8.4067 18.4353" stroke="#916436" stroke-width="0.68" stroke-miterlimit="10"/>
<path d="M16.2061 19.2206C15.2821 19.6056 14.3314 19.9285 13.363 20.1855C12.7716 20.3429 12.1651 20.4763 11.5523 20.4576C11.0419 20.4425 10.5412 20.3215 10.0476 20.1935C9.27129 19.9925 8.4727 19.7568 7.8653 19.2348" stroke="#916436" stroke-width="0.68" stroke-miterlimit="10"/>
<path d="M17.3042 19.2543C15.7586 19.2365 14.2192 19.4793 12.6745 19.4553C11.1298 19.4313 9.51481 19.1049 8.33738 18.1116" stroke="#916436" stroke-width="0.68" stroke-miterlimit="10"/>
<path d="M17.0063 18.7083C15.5764 19.1396 14.0414 19.1921 12.567 18.9439C11.4046 18.7483 10.2068 18.3223 9.48198 17.401" stroke="#916436" stroke-width="0.68" stroke-miterlimit="10"/>
<path d="M17.5693 18.6888C15.5782 17.4855 13.7987 15.939 12.3331 14.1409" stroke="#916436" stroke-width="0.68" stroke-miterlimit="10"/>
<path d="M18.3477 18.6434C17.3045 17.2837 16.3903 15.9693 15.5126 14.4984C15.2013 13.9772 14.8901 13.3814 15.0341 12.7936" stroke="#916436" stroke-width="0.68" stroke-miterlimit="10"/>
<path d="M18.7061 18.2948C17.4637 15.9008 16.6082 13.5548 15.9546 10.942" stroke="#916436" stroke-width="0.68" stroke-miterlimit="10"/>
<path d="M18.915 18.0111C18.425 15.7425 18.2312 13.4107 18.3414 11.0941" stroke="#916436" stroke-width="0.68" stroke-miterlimit="10"/>
<path d="M19.307 17.2987C19.5658 14.718 19.821 12.0812 19.2198 9.55737" stroke="#916436" stroke-width="0.68" stroke-miterlimit="10"/>
<path d="M19.8674 16.8915C20.353 15.1956 20.7763 13.4819 21.1355 11.7557C21.2885 11.023 21.3988 10.1683 20.8963 9.60986" stroke="#916436" stroke-width="0.68" stroke-miterlimit="10"/>
<path d="M20.5228 15.457C21.1507 13.6073 21.7083 11.6339 21.2956 9.72546C21.148 9.04248 20.8527 8.35327 20.288 7.9353" stroke="#916436" stroke-width="0.68" stroke-miterlimit="10"/>
<path d="M18.4043 16.8212C18.1019 14.4308 17.8992 12.0288 17.7951 9.62231" stroke="#916436" stroke-width="0.68" stroke-miterlimit="10"/>
<path d="M17.0225 17.9124C16.8126 16.8185 16.6009 15.7185 16.215 14.6735C15.8281 13.6277 15.2554 12.629 14.4186 11.8865" stroke="#916436" stroke-width="0.68" stroke-miterlimit="10"/>
<path d="M17.2505 19.0658C15.2673 18.6817 13.655 17.2979 12.145 15.9648" stroke="#916436" stroke-width="0.68" stroke-miterlimit="10"/>
<path d="M19.5283 17.1849C18.6773 18.2112 17.4598 18.8799 16.205 19.3468C14.9502 19.8137 13.5371 20.0983 12.2814 19.6314" stroke="#916436" stroke-width="0.68" stroke-miterlimit="10"/>
<path d="M18.3193 18.5011C17.1001 19.5051 15.5776 20.1427 14.0009 20.309C12.4242 20.4753 10.8003 20.1694 9.39431 19.442" stroke="#916436" stroke-width="0.68" stroke-miterlimit="10"/>
<path d="M16.9531 19.6697C15.7428 20.5021 14.5645 20.8044 13.2776 21.0828C11.9908 21.3611 10.616 21.386 9.3834 20.9236" stroke="#916436" stroke-width="0.68" stroke-miterlimit="10"/>
<path d="M14.7451 20.6576C13.4761 21.0453 12.1306 21.4508 10.8526 21.2472C9.57472 21.0435 8.33682 20.5357 7.33813 19.7194" stroke="#916436" stroke-width="0.68" stroke-miterlimit="10"/>
<path d="M16.4528 19.8653C16.9579 19.7461 17.3412 19.3486 17.6871 18.9653C18.347 18.2325 18.9837 17.4793 19.5964 16.7074C19.8606 16.3748 20.2465 16.0084 20.3897 15.6055C20.5097 15.2685 20.5711 14.8772 20.6689 14.5277C21.0353 13.2186 21.3341 11.8909 21.5645 10.5516" stroke="#916436" stroke-width="0.68" stroke-miterlimit="10"/>
<path d="M19.3281 17.6305C18.0724 19.2419 16.3623 20.1552 14.6477 20.7066" stroke="#916436" stroke-width="0.68" stroke-miterlimit="10"/>
<path d="M18.6089 18.3722C17.2189 19.2001 15.9223 20.0921 14.4327 20.7271C13.9383 20.9378 13.4154 21.1415 12.8791 21.0952" stroke="#916436" stroke-width="0.68" stroke-miterlimit="10"/>
<path d="M9.42635 16.7101C10.3157 17.7132 11.6051 18.301 12.9222 18.5803C13.7635 18.759 14.6243 18.8222 15.4825 18.8453C15.8649 18.8551 16.3353 18.928 16.7097 18.8506C16.9747 18.7964 17.222 18.6212 17.4736 18.5198C15.6888 17.385 14.1254 15.9444 12.6803 14.4059" stroke="#916436" stroke-width="0.68" stroke-miterlimit="10"/>
<path d="M17.8779 17.7923C16.6889 16.0858 15.6084 14.3045 14.6453 12.4628" stroke="#916436" stroke-width="0.68" stroke-miterlimit="10"/>
<path d="M17.7026 16.9208C17.5266 15.8421 17.3398 14.7642 17.1442 13.6891C17.0944 13.4169 17.0428 13.1395 16.9085 12.8976" stroke="#916436" stroke-width="0.68" stroke-miterlimit="10"/>
<path d="M17.8938 18.0191C18.085 15.8492 18.2647 13.5913 17.483 11.5557" stroke="#916436" stroke-width="0.68" stroke-miterlimit="10"/>
<path d="M18.6715 16.8861C19.0699 15.3005 19.374 13.6926 19.583 12.0714" stroke="#916436" stroke-width="0.68" stroke-miterlimit="10"/>
<path d="M19.3214 16.9376C19.501 15.2906 19.6816 13.6436 19.8612 11.9975C19.935 11.3217 20.0044 10.6111 19.7403 9.98328" stroke="#916436" stroke-width="0.68" stroke-miterlimit="10"/>
<path d="M19.3516 17.5104C20.1457 14.8381 20.9479 12.0563 20.5059 9.30396" stroke="#916436" stroke-width="0.68" stroke-miterlimit="10"/>
<path d="M18.8731 18.0467C19.3426 15.4143 19.6085 12.7464 19.6672 10.0741C19.6948 8.83529 19.6743 7.57605 19.3204 6.38794" stroke="#916436" stroke-width="0.68" stroke-miterlimit="10"/>
<path d="M18.0078 18.1098C16.9958 15.2133 16.8224 12.035 17.5116 9.04871" stroke="#916436" stroke-width="0.68" stroke-miterlimit="10"/>
<path d="M18.0869 18.4753C15.949 17.2188 14.0842 15.5077 12.6551 13.4917" stroke="#916436" stroke-width="0.68" stroke-miterlimit="10"/>
<path d="M18.0771 18.8479C16.6765 18.6176 15.2563 18.381 13.9659 17.795C13.3407 17.5113 12.7547 17.1485 12.1838 16.7678C10.76 15.8181 9.77019 15.1858 8.73416 13.8296" stroke="#916436" stroke-width="0.68" stroke-miterlimit="10"/>
<path d="M17.5142 19.3014C13.9694 18.9786 10.4496 18.5526 7.50241 16.5721" stroke="#916436" stroke-width="0.68" stroke-miterlimit="10"/>
<path d="M16.0513 20.0698C12.9236 20.6727 9.55937 19.9595 6.95372 18.1409" stroke="#916436" stroke-width="0.68" stroke-miterlimit="10"/>
<path d="M14.7549 20.6959C13.5152 20.9867 12.2382 21.3522 11.0172 21.3353C10.6765 21.3308 10.3342 21.3219 9.99801 21.2659C9.54091 21.1894 9.10338 21.0276 8.67562 20.8515C7.32655 20.2948 5.99527 19.5478 5.15221 18.3641" stroke="#916436" stroke-width="0.68" stroke-miterlimit="10"/>
<path d="M19.5786 17.4046C21.4052 14.9341 22.1718 11.7184 21.656 8.69653" stroke="#916436" stroke-width="0.68" stroke-miterlimit="10"/>
<path d="M21.1362 7.75301C21.2563 11.1315 20.3999 14.6709 19.1602 17.8199C19.8547 17.2063 20.3741 16.3463 20.7778 15.5148C21.3648 14.3054 21.741 13.119 21.901 11.7869C22.0611 10.4547 21.9446 8.8424 21.3781 7.62317" stroke="#916436" stroke-width="0.68" stroke-miterlimit="10"/>
<path d="M19.9911 8.29541C20.0649 11.6454 19.5918 15.007 18.5966 18.2093C18.4623 18.6398 17.8638 19.0017 17.3987 19.3601" stroke="#916436" stroke-width="0.68" stroke-miterlimit="10"/>
<path d="M18.231 10.0928C18.3297 11.625 18.4284 13.1626 18.3137 14.6931C18.1981 16.2236 17.861 17.7577 17.1327 19.1121C17.05 19.265 16.9584 19.4206 16.8161 19.5211" stroke="#916436" stroke-width="0.68" stroke-miterlimit="10"/>
<path d="M17.6182 12.5267C17.4599 14.4601 17.1522 16.3783 16.7867 18.2832C16.7004 18.7349 16.6088 19.1903 16.4167 19.6082C16.2246 20.0262 15.6848 20.3001 15.2686 20.502" stroke="#916436" stroke-width="0.68" stroke-miterlimit="10"/>
<path d="M17.8999 18.7402C16.5544 16.7029 15.1609 14.6966 13.7211 12.7241" stroke="#916436" stroke-width="0.68" stroke-miterlimit="10"/>
<path d="M17.083 18.4362C14.7486 17.6332 12.6685 16.1169 11.1994 14.1471" stroke="#916436" stroke-width="0.68" stroke-miterlimit="10"/>
<path d="M16.2734 18.9004C15.9737 18.8017 15.707 18.6443 15.4019 18.5803C14.9937 18.494 14.5651 18.4673 14.1525 18.4024C13.3236 18.2726 12.4975 18.1143 11.6909 17.8822C10.3738 17.5024 9.09678 16.9128 8.07764 16.0022" stroke="#916436" stroke-width="0.68" stroke-miterlimit="10"/>
<path d="M15.9341 20.0796C15.2111 18.156 16.0061 15.9808 15.5953 13.9692C15.4423 13.2177 15.1204 12.4947 15.0999 11.7281" stroke="#492112" stroke-width="0.68" stroke-miterlimit="10"/>
<path d="M12.1474 12.4867C11.7961 12.902 11.7765 13.4978 11.829 14.0376C11.9481 15.2684 12.3679 16.4645 13.0198 17.5175C13.3559 18.0608 13.7543 18.566 14.2061 19.0186C14.4249 19.2383 14.657 19.4455 14.8997 19.6385C15.0705 19.7745 15.4004 19.9257 15.4902 20.1124C15.0998 20.2948 14.3413 20.3045 13.9135 20.3277C13.1309 20.3703 12.3403 20.2325 11.6102 19.9533C10.495 19.5273 9.51947 18.7874 8.71643 17.9088C8.30113 17.4543 7.91695 16.9368 7.80134 16.3338" stroke="#492112" stroke-width="0.68" stroke-miterlimit="10"/>
<path d="M5.00391 18.212C5.23602 18.7127 5.69935 19.0693 6.17512 19.3547C7.43793 20.1124 8.89727 20.5091 10.3655 20.6656C11.8329 20.823 13.3162 20.7501 14.7871 20.6247C13.5777 20.1578 12.1806 19.152 11.261 18.2431C10.3415 17.3351 9.56069 16.2982 8.81279 15.2471C8.58868 14.9314 8.35747 14.5854 8.36636 14.1995" stroke="#492112" stroke-width="0.68" stroke-miterlimit="10"/>
<path d="M17.8502 18.0457C18.1508 15.4143 18.2344 12.7171 17.5798 10.1496C17.442 9.61073 17.3113 9.21055 16.9724 8.67786" stroke="#492112" stroke-width="0.68" stroke-miterlimit="10"/>
<path d="M13.4331 21.0383C11.5176 20.7119 9.55309 20.3687 7.87942 19.3878C7.20533 18.9929 6.58994 18.4993 6.05991 17.9284C5.48809 17.3121 4.99542 16.5429 5.02566 15.7061" stroke="#492112" stroke-width="0.68" stroke-miterlimit="10"/>
<path d="M19.0927 16.461C19.4422 14.9048 19.7926 13.3476 20.1421 11.7913C20.2853 11.1537 20.4294 10.5072 20.4062 9.85353C20.3831 9.1999 20.1741 8.52848 19.7019 8.07227" stroke="#492112" stroke-width="0.68" stroke-miterlimit="10"/>
<path d="M17.4554 18.0475C17.7177 16.7874 17.9801 15.5282 18.2424 14.268C18.4221 13.4036 18.6035 12.5312 18.5928 11.6481C18.5821 10.7651 18.3643 9.85976 17.8191 9.16077" stroke="#492112" stroke-width="0.68" stroke-miterlimit="10"/>
<path d="M11.6865 19.916C10.767 17.49 10.3161 15.4055 10.2743 12.8149" stroke="#492112" stroke-width="0.68" stroke-miterlimit="10"/>
<path d="M11.7061 19.3833C8.951 19.1005 6.10079 18.6736 3.79573 17.1511" stroke="#492112" stroke-width="0.68" stroke-miterlimit="10"/>
</g>
<path style="mix-blend-mode:multiply" opacity="0.71" d="M19.2307 2.54787C19.493 2.87691 19.7412 3.22196 19.975 3.58301C23.5411 9.10202 22.2739 16.2858 17.1435 19.6287C12.014 22.9715 4.96453 21.2072 1.39755 15.6873C1.03827 15.1315 0.728792 14.5597 0.467337 13.9754L5.40474 14.9892C5.73822 15.0577 6.08416 15.0221 6.39631 14.8878L11.0296 12.8727C12.4711 12.637 15.2102 12.139 16.039 10.9358L17.7438 8.35322C18.6651 7.66757 18.3734 6.3434 18.626 5.22289L19.2307 2.54431V2.54787Z" fill="url(#paint27_linear_430_11025)"/>
<defs>
<linearGradient id="paint0_linear_430_11025" x1="13.8272" y1="21.0502" x2="9.56591" y2="5.13559" gradientUnits="userSpaceOnUse">
<stop offset="0.14" stop-color="#683C11"/>
<stop offset="1" stop-color="#936037"/>
</linearGradient>
<linearGradient id="paint1_linear_430_11025" x1="13.8272" y1="21.0502" x2="9.56591" y2="5.13559" gradientUnits="userSpaceOnUse">
<stop offset="0.14" stop-color="#683C11"/>
<stop offset="0.99" stop-color="#936037" stop-opacity="0"/>
</linearGradient>
<linearGradient id="paint2_linear_430_11025" x1="17.0642" y1="2.44503" x2="1.08803" y2="12.1778" gradientUnits="userSpaceOnUse">
<stop stop-color="#B2B2B2"/>
<stop offset="0.51" stop-color="#F6F6F6"/>
</linearGradient>
<linearGradient id="paint3_linear_430_11025" x1="17.0779" y1="2.43671" x2="1.07436" y2="12.1861" gradientUnits="userSpaceOnUse">
<stop offset="0.49" stop-color="white"/>
<stop offset="1" stop-color="white"/>
</linearGradient>
<linearGradient id="paint4_linear_430_11025" x1="19.7601" y1="9.12943" x2="12.7802" y2="7.25787" gradientUnits="userSpaceOnUse">
<stop offset="0.49" stop-color="#F6F6F6"/>
<stop offset="1" stop-color="#B2B2B2"/>
</linearGradient>
<linearGradient id="paint5_linear_430_11025" x1="16.3773" y1="10.225" x2="11.1385" y2="8.82025" gradientUnits="userSpaceOnUse">
<stop offset="0.05" stop-color="#F6F6F6"/>
<stop offset="0.7" stop-color="#9D9D9C"/>
</linearGradient>
<linearGradient id="paint6_linear_430_11025" x1="14.2141" y1="10.6107" x2="10.4691" y2="9.60652" gradientUnits="userSpaceOnUse">
<stop offset="0.49" stop-color="#F6F6F6"/>
<stop offset="1" stop-color="#B2B2B2"/>
</linearGradient>
<linearGradient id="paint7_linear_430_11025" x1="11.9381" y1="12.3068" x2="10.9056" y2="8.45209" gradientUnits="userSpaceOnUse">
<stop offset="0.05" stop-color="#F6F6F6"/>
<stop offset="0.7" stop-color="#9D9D9C"/>
</linearGradient>
<linearGradient id="paint8_linear_430_11025" x1="9.79531" y1="15.1233" x2="8.13425" y2="8.91886" gradientUnits="userSpaceOnUse">
<stop offset="0.49" stop-color="#F6F6F6"/>
<stop offset="1" stop-color="#B2B2B2"/>
</linearGradient>
<linearGradient id="paint9_linear_430_11025" x1="6.67091" y1="15.9594" x2="5.41124" y2="11.2556" gradientUnits="userSpaceOnUse">
<stop offset="0.05" stop-color="#F6F6F6"/>
<stop offset="0.7" stop-color="#9D9D9C"/>
</linearGradient>
<linearGradient id="paint10_linear_430_11025" x1="4.42042" y1="16.4147" x2="3.21188" y2="11.9014" gradientUnits="userSpaceOnUse">
<stop offset="0.49" stop-color="#F6F6F6"/>
<stop offset="1" stop-color="#B2B2B2"/>
</linearGradient>
<linearGradient id="paint11_linear_430_11025" x1="2.33497" y1="15.676" x2="-0.0313844" y2="6.83793" gradientUnits="userSpaceOnUse">
<stop offset="0.05" stop-color="#F6F6F6"/>
<stop offset="0.7" stop-color="#9D9D9C"/>
</linearGradient>
<linearGradient id="paint12_linear_430_11025" x1="3.29989" y1="8.54242" x2="2.25726" y2="4.64997" gradientUnits="userSpaceOnUse">
<stop offset="0.49" stop-color="#F6F6F6"/>
<stop offset="1" stop-color="#B2B2B2"/>
</linearGradient>
<linearGradient id="paint13_linear_430_11025" x1="6.03227" y1="7.04329" x2="4.76246" y2="2.30179" gradientUnits="userSpaceOnUse">
<stop offset="0.05" stop-color="#F6F6F6"/>
<stop offset="0.7" stop-color="#9D9D9C"/>
</linearGradient>
<linearGradient id="paint14_linear_430_11025" x1="8.08465" y1="4.96951" x2="7.10836" y2="1.32411" gradientUnits="userSpaceOnUse">
<stop offset="0.49" stop-color="#F6F6F6"/>
<stop offset="1" stop-color="#B2B2B2"/>
</linearGradient>
<linearGradient id="paint15_linear_430_11025" x1="12.7586" y1="2.17536" x2="9.90682" y2="1.41071" gradientUnits="userSpaceOnUse">
<stop offset="0.05" stop-color="#F6F6F6"/>
<stop offset="0.7" stop-color="#9D9D9C"/>
</linearGradient>
<linearGradient id="paint16_linear_430_11025" x1="16.3268" y1="1.80997" x2="10.4833" y2="0.24312" gradientUnits="userSpaceOnUse">
<stop offset="0.49" stop-color="#F6F6F6"/>
<stop offset="1" stop-color="#B2B2B2"/>
</linearGradient>
<linearGradient id="paint17_linear_430_11025" x1="20.145" y1="8.03304" x2="12.6118" y2="8.03304" gradientUnits="userSpaceOnUse">
<stop offset="0.24" stop-color="#F6F6F6"/>
<stop offset="0.6" stop-color="white" stop-opacity="0"/>
</linearGradient>
<linearGradient id="paint18_linear_430_11025" x1="14.1475" y1="10.0437" x2="10.6605" y2="10.0437" gradientUnits="userSpaceOnUse">
<stop offset="0.49" stop-color="#F6F6F6"/>
<stop offset="1" stop-color="white" stop-opacity="0"/>
</linearGradient>
<linearGradient id="paint19_linear_430_11025" x1="10.6888" y1="13.4818" x2="6.50378" y2="11.0655" gradientUnits="userSpaceOnUse">
<stop offset="0.05" stop-color="#F6F6F6"/>
<stop offset="0.57" stop-color="white" stop-opacity="0"/>
</linearGradient>
<linearGradient id="paint20_linear_430_11025" x1="5.84424" y1="14.2421" x2="2.25769" y2="14.2421" gradientUnits="userSpaceOnUse">
<stop offset="0.49" stop-color="#F6F6F6"/>
<stop offset="1" stop-color="white" stop-opacity="0"/>
</linearGradient>
<linearGradient id="paint21_linear_430_11025" x1="6.56934" y1="6.37621" x2="-0.994166" y2="6.37621" gradientUnits="userSpaceOnUse">
<stop offset="0.49" stop-color="#F6F6F6"/>
<stop offset="1" stop-color="white" stop-opacity="0"/>
</linearGradient>
<linearGradient id="paint22_linear_430_11025" x1="8.8195" y1="5.14101" x2="6.25298" y2="0.695395" gradientUnits="userSpaceOnUse">
<stop stop-color="white" stop-opacity="0"/>
<stop offset="0.39" stop-color="#F6F6F6"/>
</linearGradient>
<linearGradient id="paint23_linear_430_11025" x1="16.7305" y1="0.989745" x2="10.6503" y2="0.989745" gradientUnits="userSpaceOnUse">
<stop offset="0.28" stop-color="white" stop-opacity="0"/>
<stop offset="0.51" stop-color="#F6F6F6"/>
</linearGradient>
<linearGradient id="paint24_linear_430_11025" x1="17.1281" y1="2.40827" x2="1.15117" y2="12.1415" gradientUnits="userSpaceOnUse">
<stop stop-color="#9D9D9C"/>
<stop offset="0.7" stop-color="#F6F6F6"/>
</linearGradient>
<linearGradient id="paint25_linear_430_11025" x1="15.9035" y1="9.55574" x2="3.17547" y2="6.14289" gradientUnits="userSpaceOnUse">
<stop offset="0.49" stop-color="white"/>
<stop offset="1" stop-color="white"/>
</linearGradient>
<linearGradient id="paint26_linear_430_11025" x1="17.9124" y1="15.574" x2="17.8288" y2="15.5716" gradientUnits="userSpaceOnUse">
<stop offset="0.14" stop-color="#683C11"/>
<stop offset="0.99" stop-color="#936037" stop-opacity="0"/>
</linearGradient>
<linearGradient id="paint27_linear_430_11025" x1="13.8272" y1="21.0502" x2="9.56591" y2="5.13561" gradientUnits="userSpaceOnUse">
<stop offset="0.06" stop-color="#6B3E13" stop-opacity="0.83"/>
<stop offset="0.5" stop-color="#936037" stop-opacity="0"/>
</linearGradient>
</defs>
</svg>
