<svg width="21" height="19" viewBox="0 0 21 19" fill="none" xmlns="http://www.w3.org/2000/svg">
<path d="M17.3996 7.74336C17.9345 8.65449 18.3279 10.0659 18.3279 11.3856C18.3279 15.582 14.926 18.9836 10.7299 18.9836C6.53352 18.9836 3.13149 15.582 3.13149 11.3856C3.13149 10.0572 3.3069 9.2961 4.07172 7.72252C3.39833 9.71503 9.13257 10.1338 10.7311 10.1338C12.3297 10.1338 18.1442 9.70203 17.3996 7.74336ZM5.98086 8.30964L5.55801 7.0774C5.24123 7.23857 4.8679 7.4499 4.88131 7.80878C4.92919 9.09035 9.399 9.40465 10.7299 9.3772C11.595 9.35925 16.5184 9.09777 16.5785 7.80878C16.5595 7.29244 15.5161 6.8248 14.3435 6.57695L13.3465 8.79771C13.0002 8.84435 12.6347 8.88191 12.2529 8.90936L13.3747 6.41123C12.5798 6.30309 9.61899 5.93059 6.34985 6.77176L7.0282 8.61053C6.63052 8.52324 6.28072 8.4217 5.98086 8.30964ZM15.6116 3.75213L16.0953 3.61077L16.0047 3.22217L16.4146 3.20153L16.4066 2.79292L16.8075 2.85875L16.8874 2.4621L17.263 2.61337L17.4685 2.15254C17.5451 2.13273 20.8588 1.31715 20.8588 1.31715L20.6291 0.393433L17.5366 1.16196L17.0234 0.813605L16.7696 1.3836C16.7673 1.38422 16.7656 1.38525 16.7638 1.38608L16.181 1.15102L16.0574 1.76374C16.0543 1.7658 16.0512 1.76787 16.0481 1.76993L15.4333 1.66881L15.4455 2.29226C15.4434 2.29432 15.4413 2.29639 15.4395 2.29804L14.8189 2.3292L14.9605 2.93552C14.8478 3.12332 14.7867 3.26344 14.7675 3.30967L13.3747 6.41123C13.7186 6.45808 14.043 6.514 14.3437 6.57757L15.6116 3.75213ZM4.14147 6.05235C3.95739 6.12685 3.38987 6.33116 2.71709 6.326C2.04308 6.32166 1.59278 6.10828 1.44069 6.02428C1.21553 5.99849 0.509743 5.84598 0.231967 4.94166C0.210298 4.87128 0.223299 4.79451 0.266843 4.73467C0.287481 4.7066 0.300275 4.69504 4.07481 1.377C4.12558 1.33263 4.19306 1.31199 4.25993 1.32045C6.13997 1.56315 8.98832 1.92471 9.22709 1.94122C9.24318 1.94101 9.25969 1.94205 9.27558 1.94514C9.36205 1.96062 9.43284 2.02315 9.45843 2.10694C9.65386 2.74297 9.46359 3.19328 9.26939 3.45867C9.19056 3.56702 8.97511 3.81838 8.90391 3.93106C8.35269 4.80339 7.01643 5.18724 6.82368 5.22851C6.69594 5.33273 6.51227 5.60597 5.99386 5.80801L6.34985 6.77176C6.34985 6.77176 5.77614 6.96678 5.55801 7.0774L5.19995 6.03398C4.66111 6.15657 4.30512 6.06762 4.14147 6.05235ZM4.4145 1.53756C4.4145 1.53756 7.30081 3.2556 8.77864 3.4855C8.77864 3.4855 6.11934 1.9146 4.4145 1.53756ZM4.24424 1.57078C4.42544 3.32845 5.63952 5.54921 5.63952 5.54921C5.63952 4.1981 4.24424 1.57078 4.24424 1.57078ZM4.05954 1.60876C2.85185 2.86948 1.55563 5.54901 1.55563 5.54901C2.65683 4.53696 4.05954 1.60876 4.05954 1.60876Z" fill="#FF6154"/>
</svg>
