<svg width="21" height="21" viewBox="0 0 21 21" fill="none" xmlns="http://www.w3.org/2000/svg">
<path d="M18.0271 2.38834C18.273 2.69678 18.5056 3.02022 18.7249 3.35867C22.0677 8.53214 20.8798 15.2662 16.0706 18.3998C11.2623 21.5333 4.65412 19.8794 1.31046 14.7051C0.973673 14.1841 0.683571 13.6481 0.438486 13.1004L18.0271 2.38834Z" fill="url(#paint0_linear_490_6227)"/>
<path style="mix-blend-mode:multiply" opacity="0.32" d="M18.0271 2.38834C18.273 2.69678 18.5056 3.02022 18.7249 3.35867C22.0677 8.53214 20.8798 15.2662 16.0706 18.3998C11.2623 21.5333 4.65412 19.8794 1.31046 14.7051C0.973673 14.1841 0.683571 13.6481 0.438486 13.1004L18.0271 2.38834Z" fill="url(#paint1_linear_490_6227)"/>
<mask id="mask0_490_6227" style="mask-type:luminance" maskUnits="userSpaceOnUse" x="0" y="0" width="19" height="16">
<path d="M3.7189 4.0064L4.32328 2.99188L5.75961 2.34832L9.42756 1.11122L10.3262 0L15.6172 0.315944C17.8655 1.16374 18.6808 3.26781 18.725 3.41119C19.0484 4.47239 17.9414 5.43356 17.9414 5.43356L16.6909 6.12547L15.1162 9.82759L13.0655 10.0335L12.1235 10.8905L10.7147 10.4178L6.81165 13.7073L5.08938 13.9165L2.06749 15.0102C2.06749 15.0102 0.641161 14.0641 0.203508 12.7036C-0.234144 11.3431 0.165997 8.53298 0.201841 7.23252C0.237688 5.93207 3.71973 4.00723 3.71973 4.00723L3.7189 4.0064ZM1.43727 11.6057C1.40143 12.3985 2.14419 12.797 2.14419 12.797L4.48 11.6982L5.70876 11.3315L9.04242 8.84392L9.1733 8.74555L9.18747 8.73471L9.30752 8.74972L9.44173 8.76639L9.57594 8.78306L9.71016 8.79973L9.84437 8.81641L9.97858 8.83308L10.0344 8.83975L10.1111 8.77973L10.242 8.67719L10.3729 8.57466L10.5038 8.47212L10.6346 8.36958L10.7655 8.26705L10.8881 8.17118L10.8964 8.16868L11.0289 8.13117L11.1615 8.09365L11.294 8.05614L11.4266 8.01863L11.5591 7.98112L11.6917 7.9436L11.8242 7.90609L11.9568 7.86858L12.0893 7.83106L12.2219 7.79355L12.3377 7.76104L12.3544 7.73937L12.4836 7.57431L12.6128 7.40925L12.742 7.24419L12.8713 7.07913L13.0005 6.91408L13.1297 6.74902L13.2589 6.58396L13.3881 6.4189L13.5173 6.25385L13.6465 6.08879L13.7757 5.92373L13.905 5.75867L14.0342 5.59362L14.1634 5.42856L14.2926 5.2635L14.3209 5.22682L14.4235 5.16597L14.5552 5.08844L14.6869 5.01091L14.8186 4.93339L14.9503 4.85586L15.082 4.77833L15.2137 4.70081L15.3455 4.62328C15.3455 4.62328 15.3971 4.5841 15.4763 4.51657C15.5147 4.48406 15.5589 4.44572 15.6072 4.40153C15.6481 4.36402 15.6922 4.32317 15.7381 4.27816C15.7806 4.23648 15.8248 4.1923 15.8681 4.14478C15.9123 4.0981 15.9557 4.04891 15.9982 3.99889C16.0432 3.94471 16.0874 3.88969 16.1274 3.83217C16.1749 3.76548 16.2191 3.69629 16.2558 3.62793C16.3241 3.50039 16.3708 3.37117 16.3783 3.24696C16.3808 3.20778 16.3733 2.92185 16.2283 2.60591C16.1916 2.52505 16.1449 2.44252 16.0882 2.36166C16.0482 2.30497 16.0023 2.24828 15.9498 2.1941C15.9082 2.15075 15.8623 2.10907 15.8123 2.06905C15.7698 2.03488 15.7248 2.0032 15.6756 1.97235C15.6331 1.94568 15.588 1.91984 15.5397 1.89566C15.4972 1.87482 15.4513 1.85481 15.4046 1.83647C15.3613 1.8198 15.3163 1.80396 15.2696 1.78979C15.2262 1.77645 15.1812 1.76478 15.1345 1.75394C15.0962 1.74477 15.0562 1.73727 15.0145 1.7306L15.0003 1.73227L14.867 1.74811L14.7336 1.76395L14.6002 1.77979L14.4668 1.79563L14.3334 1.81146L14.2001 1.8273L14.0667 1.84314L13.9333 1.85898L13.7999 1.87482L13.6665 1.89066L13.5332 1.9065L13.3998 1.92234L13.2664 1.93818L13.133 1.95401L12.9996 1.96985L12.8663 1.98569L12.7329 2.00153L12.5995 2.01737L12.4661 2.03321L12.3327 2.04905L12.1994 2.06489L12.066 2.08073L11.9326 2.09656L11.7992 2.1124L11.6658 2.12824L11.5933 2.13658L11.5341 2.19493L11.4032 2.32331L11.2724 2.45169L11.1415 2.58007L11.0106 2.70844L10.8797 2.83682L10.7489 2.9652L10.7405 2.97354L10.6171 3.02606L10.4846 3.08274L10.352 3.13943L10.2195 3.19611L10.087 3.2528L9.95441 3.30949L9.82186 3.36617L9.68932 3.42286L9.55677 3.47955L9.42422 3.53623L9.29168 3.59292L9.15913 3.64961L9.02658 3.70629L8.89404 3.76298L7.67611 4.28149L6.45152 4.82001L5.93884 5.66531C5.93884 5.66531 3.11202 7.35673 2.76774 8.17618C2.42345 8.99647 1.45728 10.8129 1.42227 11.6057H1.43727Z" fill="white"/>
</mask>
<g mask="url(#mask0_490_6227)">
<path d="M18.7385 3.45786C18.6943 3.31365 17.8799 1.20958 15.6307 0.362619L10.1939 -0.0158463L9.39691 1.11038L5.77314 2.39499L4.3093 2.9927L3.68241 4.0289C3.68241 4.0289 0.250385 5.97791 0.214539 7.27836C0.179527 8.57882 -0.221447 11.3881 0.216206 12.7494C0.653858 14.1099 2.08019 15.0561 2.08019 15.0561L5.10208 13.9624L6.82434 13.7531L10.7274 10.4636L12.1362 10.9363L13.0782 10.0793L15.1289 9.87344L16.7036 6.17131L17.9541 5.4794C17.9541 5.4794 19.0611 4.51823 18.7377 3.45703L18.7385 3.45786Z" fill="#783E16"/>
<mask id="mask1_490_6227" style="mask-type:luminance" maskUnits="userSpaceOnUse" x="0" y="-1" width="19" height="17">
<path d="M18.7385 3.45786C18.6943 3.31365 17.8799 1.20958 15.6307 0.362619L10.1939 -0.0158463L9.39691 1.11038L5.77314 2.39499L4.3093 2.9927L3.68241 4.0289C3.68241 4.0289 0.250385 5.97791 0.214539 7.27836C0.179527 8.57882 -0.221447 11.3881 0.216206 12.7494C0.653858 14.1099 2.08019 15.0561 2.08019 15.0561L5.10208 13.9624L6.82434 13.7531L10.7274 10.4636L12.1362 10.9363L13.0782 10.0793L15.1289 9.87344L16.7036 6.17131L17.9541 5.4794C17.9541 5.4794 19.0611 4.51823 18.7377 3.45703L18.7385 3.45786Z" fill="white"/>
</mask>
<g mask="url(#mask1_490_6227)">
<path d="M17.8821 1.21207L19.4102 5.21013L20.5664 3.94969L17.8821 1.21207Z" fill="#783E16"/>
<path d="M17.7437 1.07119L17.6137 1.02034L19.2726 5.36019L19.4102 5.21013L17.8821 1.21207L17.7437 1.07119Z" fill="#783E16"/>
<path d="M17.6135 1.02034L17.3843 0.929474L19.1349 5.51024L19.2725 5.36019L17.6135 1.02034Z" fill="#783E16"/>
<path d="M17.3842 0.929473L17.1549 0.838608L18.9972 5.65945L19.1348 5.51024L17.3842 0.929473Z" fill="#783E16"/>
<path d="M17.1548 0.838614L16.9255 0.747749L18.8595 5.80951L18.9971 5.65946L17.1548 0.838614Z" fill="#783E16"/>
<path d="M16.9259 0.747741L16.6966 0.656876L18.7223 5.95956L18.8599 5.8095L16.9259 0.747741Z" fill="#783E16"/>
<path d="M16.6965 0.656875L16.4664 0.56601L18.5846 6.10961L18.7222 5.95956L16.6965 0.656875Z" fill="#783E16"/>
<path d="M16.4662 0.566031L16.237 0.475166L18.4469 6.25885L18.5845 6.10963L16.4662 0.566031Z" fill="#783E16"/>
<path d="M16.2373 0.47515L16.0081 0.384285L18.3097 6.40889L18.4473 6.25883L16.2373 0.47515Z" fill="#783E16"/>
<path d="M16.0079 0.384276L15.7787 0.293411L18.172 6.55893L18.3096 6.40888L16.0079 0.384276Z" fill="#783E16"/>
<path d="M15.7785 0.293418L15.5485 0.202553L18.0352 6.70899L18.1719 6.55893L15.7785 0.293418Z" fill="#783E16"/>
<path d="M15.5485 0.202567L15.3192 0.111702L17.8976 6.85822L18.0352 6.709L15.5485 0.202567Z" fill="#783E16"/>
<path d="M15.3191 0.111706L15.0898 0.0216751L17.7599 7.00828L17.8975 6.85823L15.3191 0.111706Z" fill="#783E16"/>
<path d="M15.0902 0.0216589L14.8609 -0.0692062L17.6227 7.15831L17.7603 7.00826L15.0902 0.0216589Z" fill="#783E16"/>
<path d="M14.8608 -0.0692149L14.6315 -0.16008L17.485 7.30752L17.6226 7.1583L14.8608 -0.0692149Z" fill="#783E16"/>
<path d="M14.6319 -0.160073L14.4018 -0.250938L17.3478 7.45758L17.4854 7.30753L14.6319 -0.160073Z" fill="#783E16"/>
<path d="M14.4016 -0.250924L14.1724 -0.341789L17.2101 7.60765L17.3477 7.4576L14.4016 -0.250924Z" fill="#783E16"/>
<path d="M14.1722 -0.341783L13.943 -0.432648L17.0724 7.75771L17.21 7.60765L14.1722 -0.341783Z" fill="#783E16"/>
<path d="M13.9428 -0.432656L13.7136 -0.523521L16.9347 7.90692L17.0723 7.7577L13.9428 -0.432656Z" fill="#783E16"/>
<path d="M13.7139 -0.523538L13.4847 -0.614403L16.7975 8.05695L16.9351 7.9069L13.7139 -0.523538Z" fill="#783E16"/>
<path d="M13.4845 -0.614381L13.2545 -0.705246L16.6598 8.20703L16.7974 8.05697L13.4845 -0.614381Z" fill="#783E16"/>
<path d="M13.2548 -0.705247L13.0256 -0.796112L16.5226 8.35708L16.6602 8.20703L13.2548 -0.705247Z" fill="#783E16"/>
<path d="M13.0249 -0.796113L12.7957 -0.886978L16.3853 8.5063L16.522 8.35708L13.0249 -0.796113Z" fill="#783E16"/>
<path d="M12.7957 -0.886979L12.5664 -0.977844L16.2477 8.65635L16.3853 8.50629L12.7957 -0.886979Z" fill="#783E16"/>
<path d="M12.5668 -0.977853L12.3367 -1.06872L16.1105 8.80639L16.248 8.65634L12.5668 -0.977853Z" fill="#783E16"/>
<path d="M12.3365 -1.06871L12.1073 -1.15874L15.9728 8.95562L16.1104 8.8064L12.3365 -1.06871Z" fill="#783E16"/>
<path d="M12.1076 -1.15874L11.8784 -1.2496L15.8356 9.10567L15.9731 8.95562L12.1076 -1.15874Z" fill="#783E16"/>
<path d="M11.8782 -1.24961L11.649 -1.34048L15.6979 9.25572L15.8354 9.10566L11.8782 -1.24961Z" fill="#783E16"/>
<path d="M11.6493 -1.34047L11.4201 -1.43134L15.5607 9.40578L15.6982 9.25572L11.6493 -1.34047Z" fill="#783E16"/>
<path d="M11.4194 -1.43134L11.1894 -1.5222L15.4225 9.55499L15.5601 9.40577L11.4194 -1.43134Z" fill="#783E16"/>
<path d="M11.1897 -1.5222L10.9605 -1.61307L15.2853 9.70505L15.4229 9.55499L11.1897 -1.5222Z" fill="#783E16"/>
<path d="M10.9603 -1.61307L10.7311 -1.70393L15.1476 9.8551L15.2852 9.70504L10.9603 -1.61307Z" fill="#783E16"/>
<path d="M10.7309 -1.70393L10.5017 -1.7948L15.0099 10.0051L15.1475 9.8551L10.7309 -1.70393Z" fill="#783E16"/>
<path d="M10.502 -1.7948L10.2728 -1.88567L14.8727 10.1544L15.0103 10.0051L10.502 -1.7948Z" fill="#783E16"/>
<path d="M10.2731 -1.88567L10.043 -1.97653L14.7355 10.3044L14.873 10.1544L10.2731 -1.88567Z" fill="#783E16"/>
<path d="M10.0424 -1.97653L9.81315 -2.0674L14.5981 10.4545L14.7349 10.3044L10.0424 -1.97653Z" fill="#783E16"/>
<path d="M9.80372 -2.07323L9.57364 -2.16409L14.4503 10.5979L14.5879 10.4478L9.80372 -2.07323Z" fill="#783E16"/>
<path d="M9.58424 -2.15827L9.35499 -2.24913L14.3234 10.7537L14.4609 10.6037L9.58424 -2.15827Z" fill="#783E16"/>
<path d="M9.35484 -2.24912L9.12476 -2.33998L14.1857 10.9038L14.3232 10.7537L9.35484 -2.24912Z" fill="#783E16"/>
<path d="M9.1251 -2.33999L8.89586 -2.43002L14.0485 11.0538L14.186 10.9038L9.1251 -2.33999Z" fill="#783E16"/>
<path d="M8.89571 -2.43002L8.66646 -2.52089L13.9108 11.2031L14.0483 11.0538L8.89571 -2.43002Z" fill="#783E16"/>
<path d="M8.66632 -2.52089L8.43707 -2.61176L13.7731 11.3531L13.9106 11.2031L8.66632 -2.52089Z" fill="#783E16"/>
<path d="M8.43644 -2.61176L8.21386 -2.70013L8.20969 -2.69596L13.6349 11.5032L13.7725 11.3531L8.43644 -2.61176Z" fill="#783E16"/>
<path d="M8.07297 -2.5459L13.4982 11.6524L13.6357 11.5032L8.21052 -2.69595L8.07297 -2.5459Z" fill="#783E16"/>
<path d="M7.93528 -2.39584L13.3605 11.8024L13.498 11.6524L8.07282 -2.54589L7.93528 -2.39584Z" fill="#783E16"/>
<path d="M7.79807 -2.24662L13.2233 11.9525L13.3608 11.8024L7.93562 -2.39584L7.79807 -2.24662Z" fill="#783E16"/>
<path d="M7.65988 -2.09658L13.0851 12.1025L13.2227 11.9525L7.79743 -2.24664L7.65988 -2.09658Z" fill="#783E16"/>
<path d="M7.52268 -1.94652L12.9487 12.2518L13.0854 12.1025L7.66022 -2.09657L7.52268 -1.94652Z" fill="#783E16"/>
<path d="M7.38512 -1.79647L12.8112 12.4018L12.9487 12.2518L7.52267 -1.94653L7.38512 -1.79647Z" fill="#783E16"/>
<path d="M7.24694 -1.64724L12.673 12.5519L12.8105 12.4018L7.38449 -1.79646L7.24694 -1.64724Z" fill="#783E16"/>
<path d="M7.10973 -1.4972L12.5358 12.7019L12.6733 12.5519L7.24728 -1.64725L7.10973 -1.4972Z" fill="#783E16"/>
<path d="M6.97287 -1.34716L12.3981 12.8511L12.5356 12.7019L7.10959 -1.49721L6.97287 -1.34716Z" fill="#783E16"/>
<path d="M6.83567 -1.19709L12.2609 13.0012L12.3984 12.8511L6.97321 -1.34714L6.83567 -1.19709Z" fill="#783E16"/>
<path d="M6.69797 -1.04787L12.1232 13.1512L12.2607 13.0012L6.83552 -1.19709L6.69797 -1.04787Z" fill="#783E16"/>
<path d="M6.56076 -0.89783L11.986 13.3005L12.1235 13.1512L6.69831 -1.04788L6.56076 -0.89783Z" fill="#783E16"/>
<path d="M6.42258 -0.747767L11.8478 13.4505L11.9854 13.3005L6.56013 -0.89782L6.42258 -0.747767Z" fill="#783E16"/>
<path d="M6.28537 -0.598554L11.7106 13.6006L11.8481 13.4505L6.42292 -0.747772L6.28537 -0.598554Z" fill="#783E16"/>
<path d="M6.14768 -0.448489L11.5729 13.7506L11.7104 13.6006L6.28522 -0.598541L6.14768 -0.448489Z" fill="#783E16"/>
<path d="M1.40303 14.8727L8.1087 17.5261L11.5732 13.7506L6.14802 -0.448494L-3.40865 9.96597L1.40303 14.8727Z" fill="#783E16"/>
</g>
<mask id="mask2_490_6227" style="mask-type:luminance" maskUnits="userSpaceOnUse" x="0" y="0" width="19" height="15">
<path d="M18.2518 3.60459C18.2109 3.47038 17.4515 1.50552 15.3241 0.726919L10.4149 0.309273L9.62294 1.39715L5.97334 2.70344L4.58952 3.27864L3.96931 4.23481C3.96931 4.23481 0.701502 6.08045 0.659821 7.29838C0.618139 8.51547 0.220501 11.1481 0.62731 12.4193C1.03412 13.6898 2.38125 14.5667 2.38125 14.5667L5.25392 13.5239L6.61856 13.3597L10.6108 10.2136L11.9446 10.647L12.8432 9.83926L14.7897 9.63336L16.3069 6.15881L17.4974 5.50275C17.4974 5.50275 18.5536 4.59577 18.2535 3.60542L18.2518 3.60459Z" fill="white"/>
</mask>
<g mask="url(#mask2_490_6227)">
<path d="M17.4536 1.5072L18.8765 5.24017L19.9819 4.05309L17.4536 1.5072Z" fill="#C6C6C6"/>
<path d="M17.3234 1.37631L17.2 1.3288L18.7456 5.38104L18.8765 5.24016L17.4535 1.50719L17.3234 1.37631Z" fill="#C6C6C6"/>
<path d="M17.2001 1.3288L16.9833 1.24544L18.6139 5.52193L18.7456 5.38105L17.2001 1.3288Z" fill="#C7C7C7"/>
<path d="M16.9832 1.24545L16.7656 1.16209L18.4829 5.66366L18.6138 5.52194L16.9832 1.24545Z" fill="#C8C8C8"/>
<path d="M16.7656 1.16208L16.5489 1.07872L18.3512 5.80453L18.4829 5.66365L16.7656 1.16208Z" fill="#C9C9C9"/>
<path d="M16.5488 1.07872L16.332 0.995354L18.2202 5.94541L18.3511 5.80453L16.5488 1.07872Z" fill="#CACACA"/>
<path d="M16.3325 0.99536L16.115 0.911163L18.089 6.0863L18.2207 5.94542L16.3325 0.99536Z" fill="#CBCBCB"/>
<path d="M16.1148 0.911167L15.8981 0.827805L17.958 6.22802L18.0889 6.0863" fill="#CCCCCC"/>
<path d="M15.8976 0.827801L15.6809 0.744438L17.8258 6.3689L17.9575 6.22802L15.8976 0.827801Z" fill="#CDCDCD"/>
<path d="M15.6813 0.744434L15.4637 0.661072L17.6953 6.50978L17.8262 6.3689L15.6813 0.744434Z" fill="#CECECE"/>
<path d="M15.4637 0.66107L15.247 0.576874L17.5636 6.65149L17.6953 6.50978L15.4637 0.66107Z" fill="#CFCFCF"/>
<path d="M15.2468 0.576877L15.0301 0.493515L17.4318 6.79238L17.5635 6.65149L15.2468 0.576877Z" fill="#D0D0D0"/>
<path d="M15.03 0.493503L14.8124 0.410141L17.3008 6.93325L17.4316 6.79237L15.03 0.493503Z" fill="#D1D1D1"/>
<path d="M14.8124 0.410145L14.5957 0.326782L17.1691 7.07413L17.3008 6.93325L14.8124 0.410145Z" fill="#D2D2D2"/>
<path d="M14.596 0.326786L14.3793 0.243423L17.0386 7.21585L17.1694 7.07414L14.596 0.326786Z" fill="#D3D3D3"/>
<path d="M14.3788 0.243422L14.1612 0.159225L16.9064 7.35673L17.0381 7.21585L14.3788 0.243422Z" fill="#D4D4D4"/>
<path d="M14.1611 0.159221L13.9444 0.0758591L16.7754 7.49761L16.9062 7.35673L14.1611 0.159221Z" fill="#D5D5D5"/>
<path d="M13.9444 0.0758703L13.7277 -0.00749207L16.6437 7.63851L16.7754 7.49762L13.9444 0.0758703Z" fill="#D6D6D6"/>
<path d="M13.7275 -0.00748844L13.51 -0.0908508L16.5127 7.78023L16.6436 7.63851L13.7275 -0.00748844Z" fill="#D7D7D7"/>
<path d="M13.511 -0.0908548L13.2942 -0.174217L16.382 7.92111L16.5137 7.78022L13.511 -0.0908548Z" fill="#D8D8D8"/>
<path d="M13.2941 -0.174227L13.0774 -0.258423L16.251 8.06198L16.3818 7.92109L13.2941 -0.174227Z" fill="#D9D9D9"/>
<path d="M13.0774 -0.258419L12.8598 -0.341782L16.1193 8.20286L16.251 8.06198L13.0774 -0.258419Z" fill="#DADADA"/>
<path d="M12.8597 -0.341786L12.6429 -0.425148L15.9874 8.34458L16.1191 8.20286L12.8597 -0.341786Z" fill="#DBDBDB"/>
<path d="M12.6428 -0.425152L12.4261 -0.508514L15.8564 8.48545L15.9873 8.34457L12.6428 -0.425152Z" fill="#DCDCDC"/>
<path d="M12.4256 -0.508516L12.208 -0.592712L15.7242 8.62634L15.856 8.48545L12.4256 -0.508516Z" fill="#DDDDDD"/>
<path d="M12.2084 -0.592694L11.9916 -0.676056L15.5937 8.76807L15.7246 8.62635L12.2084 -0.592694Z" fill="#DEDEDE"/>
<path d="M11.9917 -0.676052L11.7749 -0.759415L15.462 8.90896L15.5938 8.76807L11.9917 -0.676052Z" fill="#DFDFDF"/>
<path d="M11.7748 -0.759419L11.5572 -0.842781L15.331 9.04983L15.4619 8.90895L11.7748 -0.759419Z" fill="#E0E0E0"/>
<path d="M11.5572 -0.842785L11.3405 -0.926147L15.1993 9.19071L15.3311 9.04983L11.5572 -0.842785Z" fill="#E1E1E1"/>
<path d="M11.3409 -0.926149L11.1241 -1.01035L15.0688 9.33243L15.1997 9.19071L11.3409 -0.926149Z" fill="#E3E3E3"/>
<path d="M11.1237 -1.01035L10.9061 -1.09371L14.9366 9.4733L15.0684 9.33242L11.1237 -1.01035Z" fill="#E4E4E4"/>
<path d="M10.906 -1.09371L10.6892 -1.17707L14.8048 9.61419L14.9365 9.47331L10.906 -1.09371Z" fill="#E5E5E5"/>
<path d="M10.6896 -1.17707L10.4728 -1.26044L14.6743 9.75507L14.8052 9.61419L10.6896 -1.17707Z" fill="#E6E6E6"/>
<path d="M10.4729 -1.26043L10.2553 -1.34463L14.5426 9.89679L14.6743 9.75508L10.4729 -1.26043Z" fill="#E7E7E7"/>
<path d="M10.2552 -1.34463L10.0384 -1.42799L14.4116 10.0377L14.5425 9.89679L10.2552 -1.34463Z" fill="#E8E8E8"/>
<path d="M10.0384 -1.42798L9.82169 -1.51134L14.2799 10.1786L14.4116 10.0377L10.0384 -1.42798Z" fill="#E9E9E9"/>
<path d="M9.82205 -1.51136L9.60448 -1.59472L14.1494 10.3203L14.2803 10.1786L9.82205 -1.51136Z" fill="#EAEAEA"/>
<path d="M9.60352 -1.59472L9.38678 -1.67809L14.0167 10.4611L14.1484 10.3203L9.60352 -1.59472Z" fill="#EBEBEB"/>
<path d="M9.38665 -1.67808L9.16908 -1.76228L13.8857 10.602L14.0166 10.4612L9.38665 -1.67808Z" fill="#ECECEC"/>
<path d="M9.17007 -1.76228L8.95333 -1.84564L13.755 10.7429L13.8867 10.602L9.17007 -1.76228Z" fill="#EDEDED"/>
<path d="M8.95321 -1.84564L8.73647 -1.929L13.624 10.8846L13.7549 10.7429L8.95321 -1.84564Z" fill="#EEEEEE"/>
<path d="M8.73649 -1.92899L8.51891 -2.01235L13.4923 11.0255L13.624 10.8846L8.73649 -1.92899Z" fill="#EFEFEF"/>
<path d="M8.51879 -2.01236L8.30871 -2.09406L8.30455 -2.08989L13.3605 11.1664L13.4922 11.0255L8.51879 -2.01236Z" fill="#F0F0F0"/>
<path d="M8.17354 -1.94819L13.2295 11.3073L13.3604 11.1664L8.30442 -2.0899L8.17354 -1.94819Z" fill="#F1F1F1"/>
<path d="M8.04185 -1.8073L13.0978 11.449L13.2295 11.3073L8.17356 -1.94818L8.04185 -1.8073Z" fill="#F2F2F2"/>
<path d="M7.91085 -1.66641L12.9668 11.5899L13.0977 11.449L8.04173 -1.80729L7.91085 -1.66641Z" fill="#F3F3F3"/>
<path d="M7.77915 -1.52551L12.8351 11.7308L12.9668 11.5899L7.91087 -1.6664L7.77915 -1.52551Z" fill="#F4F4F4"/>
<path d="M7.64732 -1.38381L12.7041 11.8716L12.835 11.7308L7.77903 -1.52553L7.64732 -1.38381Z" fill="#F5F5F5"/>
<path d="M7.51695 -1.24292L12.5729 12.0134L12.7046 11.8717L7.64783 -1.3838L7.51695 -1.24292Z" fill="#F6F6F6"/>
<path d="M7.38511 -1.10204L12.4419 12.1543L12.5728 12.0134L7.51683 -1.24292L7.38511 -1.10204Z" fill="#F7F7F7"/>
<path d="M7.25425 -0.960335L12.3102 12.2951L12.4419 12.1542L7.38513 -1.10205L7.25425 -0.960335Z" fill="#F8F8F8"/>
<path d="M7.12242 -0.819445L12.1783 12.4368L12.3101 12.2951L7.25413 -0.960327L7.12242 -0.819445Z" fill="#F9F9F9"/>
<path d="M6.99141 -0.678576L12.0473 12.5777L12.1782 12.4368L7.12229 -0.819458L6.99141 -0.678576Z" fill="#FAFAFA"/>
<path d="M6.85972 -0.537683L11.9157 12.7186L12.0474 12.5777L6.99143 -0.678566L6.85972 -0.537683Z" fill="#FBFBFB"/>
<path d="M6.72872 -0.395966L11.7846 12.8595L11.9155 12.7186L6.8596 -0.537682L6.72872 -0.395966Z" fill="#FCFCFC"/>
<path d="M6.59751 -0.255068L11.6534 13.0012L11.7852 12.8595L6.72923 -0.39595L6.59751 -0.255068Z" fill="#FDFDFD"/>
<path d="M6.46568 -0.114206L11.5224 13.1421L11.6533 13.0012L6.59739 -0.255089L6.46568 -0.114206Z" fill="#FEFEFE"/>
<path d="M6.33433 0.0266856L11.3903 13.283L11.522 13.1421L6.46521 -0.114197L6.33433 0.0266856Z" fill="white"/>
<path d="M1.73677 14.3975L8.07982 16.8392L11.3901 13.283L6.33421 0.02668L-2.79564 9.83593L1.73677 14.3975Z" fill="white"/>
</g>
<path d="M1.39615 11.6449C1.432 10.8521 2.39733 9.03564 2.74162 8.21536C3.08591 7.39507 5.91272 5.70448 5.91272 5.70448L6.4254 4.85919L7.65 4.32067L8.86792 3.80215L9.00047 3.74546L9.13301 3.68878L9.26556 3.63209L9.39811 3.57541L9.53065 3.51872L9.6632 3.46203L9.79574 3.40535L9.92829 3.34866L10.0608 3.29197L10.1934 3.23529L10.3259 3.1786L10.4585 3.12191L10.591 3.06523L10.7144 3.01271L10.7227 3.00437L10.8536 2.87599L10.9845 2.74762L11.1154 2.61924L11.2462 2.49086L11.3771 2.36248L11.508 2.2341L11.5672 2.17575L11.6397 2.16741L11.7731 2.15158L11.9065 2.13574L12.0399 2.1199L12.1732 2.10406L12.3066 2.08822L12.44 2.07238L12.5734 2.05654L12.7068 2.0407L12.8401 2.02486L12.9735 2.00903L13.1069 1.99319L13.2403 1.97735L13.3737 1.96151L13.507 1.94567L13.6404 1.92983L13.7738 1.91399L13.9072 1.89815L14.0406 1.88231L14.1739 1.86648L14.3073 1.85064L14.4407 1.8348L14.5741 1.81896L14.7075 1.80312L14.8408 1.78728L14.9742 1.77144L14.9884 1.76978C15.0292 1.77644 15.0692 1.78478 15.1084 1.79312C15.1551 1.80395 15.2001 1.81562 15.2435 1.82896C15.2902 1.84313 15.3352 1.85897 15.3785 1.87565C15.426 1.89399 15.4711 1.91316 15.5136 1.93483C15.5619 1.95901 15.6069 1.98402 15.6495 2.01153C15.6978 2.04237 15.7437 2.07405 15.7862 2.10823C15.8362 2.14824 15.882 2.18992 15.9237 2.23327C15.9754 2.28746 16.0221 2.34331 16.0621 2.40083C16.1188 2.48169 16.1655 2.56422 16.2021 2.64508C16.3472 2.96102 16.3547 3.24696 16.3522 3.28614C16.3439 3.41035 16.298 3.53956 16.2297 3.6671C16.1921 3.73629 16.1488 3.80465 16.1013 3.87134C16.0604 3.92803 16.0171 3.98388 15.9721 4.03807C15.9295 4.08892 15.8862 4.13727 15.842 4.18395C15.7978 4.23063 15.7545 4.27482 15.712 4.31733C15.6661 4.36151 15.6228 4.40319 15.5811 4.44071C15.5327 4.48489 15.4886 4.52324 15.4502 4.55575C15.371 4.62327 15.3193 4.66162 15.3193 4.66162L15.1876 4.73914L15.0559 4.81667L14.9242 4.8942L14.7925 4.97173L14.6608 5.04925L14.5291 5.12678L14.3973 5.20431L14.2948 5.26516L14.2665 5.30184L14.1373 5.4669L14.008 5.63196L13.8788 5.79701L13.7496 5.96207L13.6204 6.12713L13.4912 6.29219L13.362 6.45724L13.2328 6.6223L13.1036 6.78736L12.9744 6.95242L12.8451 7.11747L12.7159 7.28253L12.5867 7.44759L12.4575 7.61265L12.3283 7.7777L12.3116 7.79938L12.1957 7.83189L12.0632 7.8694L11.9307 7.90691L11.7981 7.94443L11.6656 7.98194L11.533 8.01945L11.4005 8.05697L11.2679 8.09448L11.1354 8.13199L11.0028 8.16951L10.8703 8.20702L10.8619 8.20952L10.7394 8.30539L10.6085 8.40792L10.4776 8.51046L10.3468 8.613L10.2159 8.71553L10.085 8.81807L10.0083 8.87809L9.95247 8.87142L9.81825 8.85475L9.68404 8.83807L9.54983 8.8214L9.41561 8.80473L9.2814 8.78806L9.16136 8.77305L9.14718 8.78389L9.01631 8.88226L5.68264 11.3698L4.45388 11.7366L2.11807 12.8353C2.11807 12.8353 1.37531 12.4368 1.41116 11.6441L1.39615 11.6449Z" fill="url(#paint2_linear_490_6227)"/>
<path d="M1.39615 11.6449C1.432 10.8521 2.39733 9.03564 2.74162 8.21536C3.08591 7.39507 5.91272 5.70448 5.91272 5.70448L6.4254 4.85919L7.65 4.32067L8.86792 3.80215L9.00047 3.74546L9.13301 3.68878L9.26556 3.63209L9.39811 3.5754L9.53065 3.51872L9.6632 3.46203L9.79574 3.40535L9.92829 3.34866L10.0608 3.29197L10.1934 3.23529L10.3259 3.1786L10.4585 3.12191L10.591 3.06523L10.7144 3.01271L10.7227 3.00437L10.8536 2.87599L10.9845 2.74762L11.1154 2.61924L11.2462 2.49086L11.3771 2.36248L11.508 2.2341L11.5672 2.17575L11.6397 2.16741L11.7731 2.15158L11.9065 2.13574L12.0399 2.1199L12.1732 2.10406L12.3066 2.08822L12.44 2.07238L12.5734 2.05654L12.7068 2.0407L12.8401 2.02486L12.9735 2.00903L13.1069 1.99319L13.2403 1.97735L13.3737 1.96151L13.507 1.94567L13.6404 1.92983L13.7738 1.91399L13.9072 1.89815L14.0406 1.88231L14.1739 1.86648L14.3073 1.85064L14.4407 1.8348L14.5741 1.81896L14.7075 1.80312L14.8408 1.78728L14.9742 1.77144L14.9884 1.76978C15.0292 1.77644 15.0692 1.78478 15.1084 1.79312C15.1551 1.80395 15.2001 1.81562 15.2435 1.82896C15.2902 1.84313 15.3352 1.85897 15.3785 1.87565C15.426 1.89399 15.4711 1.91316 15.5136 1.93483C15.5619 1.95901 15.6069 1.98402 15.6495 2.01153C15.6978 2.04237 15.7437 2.07405 15.7862 2.10823C15.8362 2.14824 15.882 2.18992 15.9237 2.23327C15.9754 2.28746 16.0221 2.34331 16.0621 2.40083C16.1188 2.48169 16.1655 2.56422 16.2021 2.64508C16.3472 2.96102 16.3547 3.24696 16.3522 3.28614C16.3439 3.41035 16.298 3.53956 16.2297 3.6671C16.1921 3.73629 16.1488 3.80465 16.1013 3.87134C16.0604 3.92803 16.0171 3.98388 15.9721 4.03807C15.9295 4.08892 15.8862 4.13727 15.842 4.18395C15.7978 4.23063 15.7545 4.27482 15.712 4.31733C15.6661 4.36151 15.6228 4.40319 15.5811 4.44071C15.5327 4.48489 15.4886 4.52324 15.4502 4.55575C15.371 4.62327 15.3193 4.66162 15.3193 4.66162L15.1876 4.73914L15.0559 4.81667L14.9242 4.8942L14.7925 4.97173L14.6608 5.04925L14.5291 5.12678L14.3973 5.20431L14.2948 5.26516L14.2665 5.30184L14.1373 5.4669L14.008 5.63196L13.8788 5.79701L13.7496 5.96207L13.6204 6.12713L13.4912 6.29219L13.362 6.45724L13.2328 6.6223L13.1036 6.78736L12.9744 6.95242L12.8451 7.11747L12.7159 7.28253L12.5867 7.44759L12.4575 7.61265L12.3283 7.7777L12.3116 7.79938L12.1957 7.83189L12.0632 7.8694L11.9307 7.90691L11.7981 7.94443L11.6656 7.98194L11.533 8.01945L11.4005 8.05697L11.2679 8.09448L11.1354 8.13199L11.0028 8.16951L10.8703 8.20702L10.8619 8.20952L10.7394 8.30539L10.6085 8.40792L10.4776 8.51046L10.3468 8.613L10.2159 8.71553L10.085 8.81807L10.0083 8.87809L9.95247 8.87142L9.81825 8.85475L9.68404 8.83807L9.54983 8.8214L9.41561 8.80473L9.2814 8.78806L9.16136 8.77305L9.14718 8.78389L9.01631 8.88226L5.68264 11.3698L4.45388 11.7366L2.11807 12.8353C2.11807 12.8353 1.37531 12.4368 1.41116 11.6441L1.39615 11.6449Z" stroke="url(#paint3_linear_490_6227)" stroke-width="0.35" stroke-miterlimit="10"/>
<path style="mix-blend-mode:overlay" opacity="0.21" d="M14.1255 5.13096C14.178 5.16014 18.8838 7.21418 18.8838 7.21418C18.8838 7.21418 15.3159 9.94514 15.26 9.93013C15.2033 9.91513 11.8222 7.39425 11.8222 7.39425L14.1255 5.13096Z" fill="url(#paint4_linear_490_6227)"/>
<path style="mix-blend-mode:multiply" opacity="0.24" d="M15.2598 9.92929C15.2356 9.90761 11.8219 7.3934 11.8219 7.3934L10.5281 7.94359L13.4083 10.3069L15.2589 9.92845L15.2598 9.92929Z" fill="url(#paint5_linear_490_6227)"/>
<path style="mix-blend-mode:overlay" opacity="0.21" d="M13.2622 10.1786L10.1778 7.64684L9.99273 8.75889L12.5103 11.1839C12.5103 11.1839 13.2305 10.1852 13.2622 10.1794V10.1786Z" fill="url(#paint6_linear_490_6227)"/>
<path style="mix-blend-mode:multiply" opacity="0.24" d="M12.5098 11.1831L9.26614 8.17869L9.00021 8.63551L11.0951 10.7212L12.5098 11.1831Z" fill="url(#paint7_linear_490_6227)"/>
<path style="mix-blend-mode:overlay" opacity="0.21" d="M11.0967 10.7738L8.50411 8.12533L5.57976 11.2698L7.27201 14.6876L11.0967 10.7738Z" fill="url(#paint8_linear_490_6227)"/>
<path style="mix-blend-mode:multiply" opacity="0.24" d="M7.27197 14.6876L5.36297 10.4728L4.19757 11.3598L5.80646 14.7543L7.27197 14.6876Z" fill="url(#paint9_linear_490_6227)"/>
<path style="mix-blend-mode:overlay" opacity="0.21" d="M5.47852 14.0632L3.99883 10.8913L2.11651 12.6794L2.56667 15.8088L5.47852 14.0632Z" fill="url(#paint10_linear_490_6227)"/>
<path style="mix-blend-mode:multiply" opacity="0.24" d="M2.38134 14.6434L1.98286 11.8825C1.98286 11.8825 3.03323 7.99362 3.01239 7.98778C2.99155 7.98195 -0.805608 6.6173 -0.805608 6.6173L-0.766427 13.4455L2.38134 14.6443V14.6434Z" fill="url(#paint11_linear_490_6227)"/>
<path style="mix-blend-mode:overlay" opacity="0.21" d="M3.09012 8.00864L-0.931281 6.55313L3.65949 3.94556L6.15869 5.8754L3.09012 8.00864Z" fill="url(#paint12_linear_490_6227)"/>
<path style="mix-blend-mode:multiply" opacity="0.24" d="M3.60496 3.92303L6.68604 6.32553L6.54015 4.92921L3.55328 2.40083L3.60496 3.92303Z" fill="url(#paint13_linear_490_6227)"/>
<path style="mix-blend-mode:overlay" opacity="0.21" d="M6.59498 4.92171L3.26549 2.15075L9.36595 1.02702L10.8623 3.32116L6.59498 4.92171Z" fill="url(#paint14_linear_490_6227)"/>
<path style="mix-blend-mode:multiply" opacity="0.24" d="M9.3665 1.02703L10.2068 -0.00749969L11.8115 2.59507L10.8629 3.32116L9.3665 1.02703Z" fill="url(#paint15_linear_490_6227)"/>
<path style="mix-blend-mode:overlay" opacity="0.21" d="M11.5922 2.21411L9.98411 -0.358452L15.6836 0.285106L14.915 1.91401L11.5922 2.21411Z" fill="url(#paint16_linear_490_6227)"/>
<path style="mix-blend-mode:overlay" opacity="0.67" d="M14.1255 5.13096C14.178 5.16014 18.8838 7.21418 18.8838 7.21418C18.8838 7.21418 15.3159 9.94514 15.26 9.93013C15.2033 9.91513 11.8222 7.39425 11.8222 7.39425L14.1255 5.13096Z" fill="url(#paint17_linear_490_6227)"/>
<path style="mix-blend-mode:overlay" opacity="0.67" d="M13.2622 10.1786L10.1778 7.64684L9.99273 8.75889L12.5103 11.1839C12.5103 11.1839 13.2305 10.1852 13.2622 10.1794V10.1786Z" fill="url(#paint18_linear_490_6227)"/>
<path style="mix-blend-mode:overlay" opacity="0.67" d="M11.0967 10.7738L8.50411 8.12533L5.57976 11.2698L7.27201 14.6876L11.0967 10.7738Z" fill="url(#paint19_linear_490_6227)"/>
<path style="mix-blend-mode:overlay" opacity="0.67" d="M5.47852 14.0632L3.99883 10.8913L2.11651 12.6794L2.56667 15.8088L5.47852 14.0632Z" fill="url(#paint20_linear_490_6227)"/>
<path style="mix-blend-mode:overlay" opacity="0.67" d="M3.09012 8.00864L-0.931281 6.55313L3.65949 3.94556L6.15869 5.8754L3.09012 8.00864Z" fill="url(#paint21_linear_490_6227)"/>
<path style="mix-blend-mode:overlay" opacity="0.67" d="M6.59498 4.92171L3.26549 2.15075L9.36595 1.02702L10.8623 3.32116L6.59498 4.92171Z" fill="url(#paint22_linear_490_6227)"/>
<path style="mix-blend-mode:overlay" opacity="0.67" d="M11.5922 2.21411L9.98411 -0.358452L15.6836 0.285106L14.915 1.91401L11.5922 2.21411Z" fill="url(#paint23_linear_490_6227)"/>
</g>
<path d="M5.97278 5.66948L6.48546 4.82418L7.71005 4.28566L8.92798 3.76715L9.06053 3.71046L9.19307 3.65377L9.32562 3.59709L9.45816 3.5404L9.59071 3.48371L9.72326 3.42703L9.8558 3.37034L9.98835 3.31366L10.1209 3.25697L10.2534 3.20028L10.386 3.1436L10.5185 3.08691L10.6511 3.03022L10.7745 2.97771L10.7828 2.96937L10.9137 2.84099L11.0445 2.71261L11.1754 2.58423L11.3063 2.45586L11.4372 2.32748L11.5681 2.1991L11.6273 2.14075L11.6998 2.13241L11.8332 2.11657L11.9665 2.10073L12.0999 2.08489L12.2333 2.06905L12.3667 2.05322L12.5001 2.03738L12.6334 2.02154L12.7668 2.0057L12.9002 1.98986L13.0336 1.97402L13.167 1.95818L13.3003 1.94234L13.4337 1.92651L13.5671 1.91067L13.7005 1.89483L13.8339 1.87899L13.9672 1.86315L14.1006 1.84731L14.234 1.83147L14.3674 1.81563L14.5008 1.79979L14.6341 1.78396L14.7675 1.76812L14.9009 1.75228L15.0343 1.73644L15.0484 1.73477C15.0893 1.74144 15.1293 1.74978 15.1685 1.75811C15.2152 1.76895 15.2602 1.78062 15.3035 1.79396C15.3502 1.80813 15.3952 1.82397 15.4386 1.84064C15.4861 1.85898 15.5311 1.87816 15.5736 1.89983C15.622 1.924 15.667 1.94901 15.7095 1.97652C15.7579 2.00737 15.8037 2.03904 15.8462 2.07322C15.8962 2.11324 15.9421 2.15492 15.9838 2.19827C16.0355 2.25245 16.0821 2.30831 16.1222 2.36583C16.1788 2.44669 16.2255 2.52922 16.2622 2.61008C16.4073 2.92602 16.4148 3.21195 16.4123 3.25113C16.4039 3.37534 16.3581 3.50456 16.2897 3.6321C16.2522 3.70129 16.2089 3.76965 16.1613 3.83634C16.1205 3.89302 16.0771 3.94888 16.0321 4.00306C15.9896 4.05391 15.9463 4.10226 15.9021 4.14895C15.8579 4.19563 15.8145 4.24065 15.772 4.28233C15.7262 4.32651 15.6828 4.36819 15.6412 4.4057C15.5928 4.44988 15.5486 4.48823 15.5103 4.52074C15.4311 4.58827 15.3794 4.62661 15.3794 4.62661L15.2477 4.70414L15.116 4.78167L14.9843 4.85919L14.8525 4.93672L14.7208 5.01425L14.5891 5.09178L14.4574 5.1693L14.3549 5.23016L14.3265 5.26684L14.1973 5.43189L14.0681 5.59695L13.9389 5.76201L13.8097 5.92707L13.6805 6.09212L13.5513 6.25718L13.422 6.42224L13.2928 6.5873L13.1636 6.75235L13.0344 6.91741L12.9052 7.08247L12.776 7.24753L12.6468 7.41258L12.5176 7.57764L12.3884 7.7427L12.3717 7.76437L12.2558 7.79689L12.1233 7.8344L11.9907 7.87191L11.8582 7.90942L11.7256 7.94694L11.5931 7.98445L11.4605 8.02196L11.328 8.05948L11.1954 8.09699L11.0629 8.1345L10.9303 8.17202L10.922 8.17452L10.7995 8.27038L10.6686 8.37292L10.5377 8.47546L10.4068 8.57799L10.2759 8.68053L10.1451 8.78306L10.0684 8.84308L10.0125 8.83641L9.87831 8.81974L9.7441 8.80307L9.60988 8.7864L9.47567 8.76972L9.34146 8.75305L9.22141 8.73805L9.20724 8.74888L9.07636 8.84725L5.7427 11.3348L4.51394 11.7016L2.17813 12.8003C2.17813 12.8003 1.43537 12.4018 1.47121 11.609C1.50706 10.8163 2.47239 8.9998 2.81668 8.17952C3.16097 7.35923 5.98779 5.66781 5.98779 5.66781L5.97278 5.66948Z" fill="url(#paint24_linear_490_6227)"/>
<path d="M5.97701 5.67197L6.48969 4.82668L7.71344 4.28732L8.93054 3.76881L9.06308 3.71212L9.19563 3.65544L9.32817 3.59875L9.46072 3.54206L9.59327 3.48538L9.72581 3.42869L9.85836 3.372L9.99091 3.31532L10.1235 3.25863L10.256 3.20195L10.3885 3.14526L10.5211 3.08857L10.6536 3.03189L10.777 2.97937L10.7853 2.97103L10.9154 2.84265L11.0454 2.71428L11.1755 2.5859L11.3055 2.45752L11.4356 2.32914L11.5656 2.20076L11.6248 2.14241L11.6973 2.13407L11.8307 2.11823L11.9641 2.1024L12.0975 2.08656L12.2309 2.07072L12.3642 2.05488L12.4976 2.03904L12.631 2.0232L12.7644 2.00736L12.8978 1.99152L13.0311 1.97568L13.1645 1.95985L13.2979 1.94401L13.4313 1.92817L13.5647 1.91233L13.698 1.89649L13.8314 1.88065L13.9648 1.86481L14.0982 1.84897L14.2316 1.83314L14.3649 1.8173L14.4983 1.80146L14.6317 1.78562L14.7651 1.76978L14.8984 1.75394L15.0318 1.7381L15.046 1.73643C15.0868 1.7431 15.1269 1.75144 15.166 1.75978C15.2127 1.77061 15.2577 1.78228 15.3011 1.79562C15.3478 1.80979 15.3928 1.82563 15.4361 1.84231C15.4837 1.86064 15.5287 1.87982 15.5712 1.90149C15.6195 1.92567 15.6645 1.95068 15.7071 1.97819C15.7554 2.00903 15.8013 2.04071 15.8438 2.07489C15.8938 2.1149 15.9396 2.15658 15.9805 2.19993C16.0322 2.25412 16.0789 2.30997 16.1189 2.36749C16.1756 2.44835 16.2222 2.53088 16.2589 2.61174C16.404 2.92768 16.4115 3.21362 16.4081 3.2528C16.3998 3.37701 16.354 3.50622 16.2856 3.63376C16.2481 3.70295 16.2047 3.77131 16.1572 3.838C16.1164 3.89469 16.073 3.95054 16.028 4.00473C15.9855 4.05558 15.9421 4.10393 15.898 4.15061C15.8538 4.19729 15.8104 4.24231 15.7679 4.28399C15.7221 4.32817 15.6787 4.36985 15.637 4.40737C15.5887 4.45155 15.5445 4.48989 15.5062 4.52241C15.427 4.58993 15.3753 4.62828 15.3753 4.62828L15.2436 4.70664L15.1119 4.78416L14.9801 4.86169L14.8484 4.93922L14.7167 5.01675L14.585 5.09427L14.4533 5.1718L14.3508 5.23265L14.3224 5.26933L14.1932 5.43439L14.064 5.59945L13.9348 5.76451L13.8056 5.92956L13.6764 6.09462L13.5471 6.25968L13.4179 6.42474L13.2887 6.58979L13.1595 6.75485L13.0303 6.91991L12.9011 7.08497L12.7719 7.25002L12.6427 7.41508L12.5135 7.58014L12.3842 7.7452L12.3676 7.76687L12.2517 7.79938L12.1191 7.8369L11.9866 7.87441L11.8541 7.91192L11.7215 7.94943L11.589 7.98695L11.4564 8.02446L11.3239 8.06197L11.1913 8.09949L11.0588 8.137L10.9262 8.17451L10.9179 8.17701L10.7954 8.27288L10.6645 8.37542L10.5336 8.47795L10.4027 8.58049L10.2718 8.68302L10.141 8.78556L10.0643 8.84558L10.0084 8.83891L9.8742 8.82224L9.73998 8.80557L9.60577 8.78889L9.47156 8.77222L9.33734 8.75555L9.2173 8.74054L9.20313 8.75138L9.07225 8.84975L5.73942 11.3381L4.51066 11.7049L2.17568 12.8045C2.17568 12.8045 1.43376 12.406 1.4696 11.6132C1.50545 10.8196 2.47078 9.00314 2.81507 8.18285C3.15936 7.36256 5.98534 5.67031 5.98534 5.67031L5.97701 5.67197Z" stroke="url(#paint25_linear_490_6227)" stroke-width="0.35" stroke-miterlimit="10"/>
<g opacity="0.59">
<path d="M17.9608 15.5613C17.5874 14.8235 17.3581 13.9932 17.4498 13.1738C17.5615 12.1751 18.1284 11.2931 18.506 10.3603C19.2371 8.558 19.2529 6.48144 18.5494 4.66747" stroke="#72391E" stroke-width="0.68" stroke-miterlimit="10"/>
<path d="M17.1131 17.2819C17.3824 16.8542 17.1714 16.3049 17.0381 15.818C16.7763 14.8652 16.8447 13.8532 17.0114 12.8795C17.1781 11.9058 17.4407 10.9497 17.5649 9.97016C17.6533 9.27491 17.6716 8.56717 17.8467 7.88776" stroke="#72391E" stroke-width="0.68" stroke-miterlimit="10"/>
<path d="M16.4088 18.0655C16.2037 17.577 16.2504 17.1877 16.2537 16.6592C16.2662 14.6268 16.8873 12.6411 16.9848 10.6112C17.0415 9.43997 16.9223 8.25956 16.6322 7.1225" stroke="#72391E" stroke-width="0.68" stroke-miterlimit="10"/>
<path d="M16.8193 17.2827C15.4439 15.1069 15.2605 12.2376 16.3483 9.90847" stroke="#72391E" stroke-width="0.68" stroke-miterlimit="10"/>
<path d="M16.6729 17.6603C15.6825 16.8684 15.0006 15.7063 14.7955 14.4609C14.733 14.0807 14.713 13.6948 14.7097 13.3096C14.6972 11.945 14.6822 12.0109 14.8689 10.6587" stroke="#72391E" stroke-width="0.68" stroke-miterlimit="10"/>
<path d="M20.5122 8.43462C20.6664 9.83261 20.1779 9.7951 20.0628 10.4712C19.9445 11.1689 19.9486 11.9158 19.5827 12.5227C19.4101 12.8086 19.165 13.0437 18.9625 13.3097C18.5982 13.7882 18.3748 14.37 18.3256 14.9669C18.3523 14.6868 18.3948 14.4917 18.534 14.2341C18.7724 13.7923 19.3301 13.6131 19.511 13.0821C19.5735 12.8987 19.5885 12.7036 19.6027 12.5102C19.7277 10.8488 19.8519 9.18738 19.977 7.52597" stroke="#72391E" stroke-width="0.68" stroke-miterlimit="10"/>
<path d="M19.5146 7.54264C19.4046 8.62052 19.2896 9.72007 18.8469 10.7104C18.5918 11.2823 18.2267 11.8216 18.1408 12.441C18.0917 12.7986 18.1383 13.1654 18.0758 13.5214C18.0125 13.8773 17.7949 14.2458 17.4389 14.3225" stroke="#72391E" stroke-width="0.68" stroke-miterlimit="10"/>
<path d="M14.0459 19.2501C13.9909 18.6398 13.6641 18.0588 13.1689 17.6912C12.6896 17.3361 12.071 17.1777 11.6442 16.7609C11.2916 16.4166 11.1115 15.9289 11.0524 15.4429C10.9765 14.8193 11.0965 14.1966 11.074 13.5731" stroke="#72391E" stroke-width="0.68" stroke-miterlimit="10"/>
<path d="M12.8959 19.5943C12.5842 18.8091 12.665 17.9213 12.8851 17.1051C13.1043 16.2899 13.4545 15.5138 13.6787 14.6993C13.9722 13.6339 14.0438 12.5094 13.8896 11.4157" stroke="#72391E" stroke-width="0.68" stroke-miterlimit="10"/>
<path d="M13.7949 19.4001C12.6629 17.2535 12.7404 15.0361 12.0768 12.7053C12.0118 12.4769 11.8626 12.1976 11.6267 12.2376" stroke="#72391E" stroke-width="0.68" stroke-miterlimit="10"/>
<path d="M13.3955 19.5001C12.9053 19.0917 12.6978 18.7049 12.1567 18.3239C11.4332 17.8146 10.522 17.5595 9.9193 16.9134C9.69338 16.6717 9.52166 16.3849 9.37077 16.0915C9.14736 15.658 8.96646 15.1295 9.19404 14.6985" stroke="#72391E" stroke-width="0.68" stroke-miterlimit="10"/>
<path d="M12.814 19.7586C12.1696 19.1942 11.3776 18.8232 10.6899 18.3114C9.10934 17.1335 8.18902 15.3028 7.32372 13.5397" stroke="#72391E" stroke-width="0.68" stroke-miterlimit="10"/>
<path d="M6.90088 14.4184C6.88504 15.0502 7.23433 15.6321 7.61196 16.1423C8.78737 17.7312 10.3646 19.025 12.1577 19.8736C11.2591 19.4384 10.102 19.4443 9.17584 19.0691C7.51526 18.3947 6.16563 17.0059 5.54708 15.337" stroke="#72391E" stroke-width="0.68" stroke-miterlimit="10"/>
<path d="M10.2725 19.8086C9.28462 19.7411 8.13338 19.5518 7.26641 19.0783C5.87176 18.3156 4.43459 17.4753 3.5893 16.1373C3.43008 15.8855 3.29503 15.5538 3.45759 15.3037" stroke="#72391E" stroke-width="0.68" stroke-miterlimit="10"/>
<path d="M11.4712 19.8994C10.7634 19.9178 10.1799 19.8894 9.58553 19.8261C8.91113 19.7536 8.38845 19.6235 7.73156 19.4551C6.95128 19.2551 6.22436 18.9233 5.67084 18.629C5.16733 18.3614 4.84638 18.1238 4.4179 17.8571C3.90522 17.5378 3.49508 17.136 3.03408 16.7458C2.8757 16.6116 2.68813 16.3724 2.56642 16.2057" stroke="#72391E" stroke-width="0.68" stroke-miterlimit="10"/>
<path d="M11.4531 19.9086C9.84506 18.8933 8.46792 17.5845 7.60929 15.8972C7.06493 14.8285 7.1733 15.1103 6.49306 14.1216" stroke="#72391E" stroke-width="0.68" stroke-miterlimit="10"/>
<path d="M12.3794 19.7994C11.2632 18.8191 10.4487 17.5903 9.98939 16.1515C9.60509 14.9486 9.38835 13.6815 8.80982 12.5569" stroke="#72391E" stroke-width="0.68" stroke-miterlimit="10"/>
<path d="M12.4785 19.165C11.8783 18.3264 11.5724 17.2852 11.6224 16.259C11.6541 15.6113 11.8225 14.9569 11.6849 14.3225C11.5982 13.9224 11.394 13.5581 11.1931 13.2005" stroke="#72391E" stroke-width="0.68" stroke-miterlimit="10"/>
<path d="M14.3281 19.0833C13.8021 18.6132 13.5862 17.8979 13.4361 17.2127C13.0652 15.5196 12.9551 13.7706 13.1102 12.045" stroke="#72391E" stroke-width="0.68" stroke-miterlimit="10"/>
<path d="M15.2217 18.7574C14.4964 17.5178 14.273 15.9981 14.6123 14.6051C14.7707 13.9524 15.0491 13.2938 14.9257 12.6344C14.8382 12.1676 14.5581 11.7616 14.2847 11.3715" stroke="#72391E" stroke-width="0.68" stroke-miterlimit="10"/>
<path d="M16.2185 18.2205C15.9575 16.7925 15.96 15.7105 16.1051 14.2667C16.2293 13.0262 16.5044 11.7858 16.3819 10.5454" stroke="#72391E" stroke-width="0.68" stroke-miterlimit="10"/>
<path d="M17.3711 17.3302C17.0568 16.314 17.437 15.3854 17.7296 14.3625C18.0222 13.3405 18.3731 12.2993 18.2781 11.2406C18.2189 10.582 17.9888 9.94599 17.948 9.28659" stroke="#72391E" stroke-width="0.68" stroke-miterlimit="10"/>
<path d="M18.2304 16.5633C18.5188 13.8232 18.3871 11.0264 19.034 8.34792C19.1382 7.91694 19.2649 7.48429 19.5 7.10832" stroke="#72391E" stroke-width="0.68" stroke-miterlimit="10"/>
<path d="M18.9593 14.1966C19.3995 12.9395 19.5937 11.5991 19.527 10.2694C19.4962 9.64671 19.4078 9.02399 19.4487 8.40127C19.4887 7.77856 19.6729 7.13917 20.1089 6.68984" stroke="#72391E" stroke-width="0.68" stroke-miterlimit="10"/>
<path d="M19.5772 5.92541C19.964 6.57647 19.9865 7.51763 20.0657 8.25122C20.1599 9.13319 20.1732 10.0327 19.9732 10.9021C19.7756 11.7616 19.3788 12.5602 19.0787 13.3897C18.7786 14.2191 18.511 14.9927 18.7152 15.8505C18.6611 14.5434 18.4902 13.7781 18.7052 12.6252C18.9211 11.4732 19.2421 10.3386 19.3813 9.17487C19.4188 8.8606 19.4422 8.53965 19.3713 8.23121C19.2996 7.92277 19.1195 7.626 18.8369 7.48012" stroke="#492112" stroke-width="0.68" stroke-miterlimit="10"/>
<path d="M18.1352 16.3816C17.6984 15.7913 17.67 14.9936 17.7926 14.2725C17.9151 13.5506 18.1694 12.852 18.2385 12.1234C18.3469 10.9772 17.9901 9.84344 17.6375 8.74639" stroke="#492112" stroke-width="0.68" stroke-miterlimit="10"/>
<path d="M17.4234 16.9568C17.0291 16.4983 16.8332 15.8947 16.799 15.2928C16.7648 14.6918 16.884 14.0908 17.0616 13.5147C17.1841 13.1187 17.335 12.7278 17.3942 12.3176C17.5643 11.1289 16.9415 9.94181 17.0566 8.74639" stroke="#492112" stroke-width="0.68" stroke-miterlimit="10"/>
<path d="M16.5231 17.3069C16.1621 15.2312 16.6206 13.1088 17.1333 11.0655C17.23 10.6796 17.2884 10.1827 16.9524 9.96599" stroke="#492112" stroke-width="0.68" stroke-miterlimit="10"/>
<path d="M16.0531 17.3994C15.6588 16.4974 15.5404 15.4787 15.718 14.5117C15.8989 13.5281 16.3765 12.5994 16.4207 11.6007C16.4357 11.2639 16.3515 10.8571 16.0339 10.7379" stroke="#492112" stroke-width="0.68" stroke-miterlimit="10"/>
<path d="M15.8448 18.5131C15.1879 16.1698 15.2504 13.6339 16.0215 11.3256" stroke="#492112" stroke-width="0.68" stroke-miterlimit="10"/>
<path d="M13.3874 12.1017C13.6891 12.4985 13.7558 13.0187 13.81 13.5131C13.9367 14.6676 14.0543 15.823 14.1626 16.9801C14.236 17.7662 14.3052 18.5623 14.1885 19.3434" stroke="#492112" stroke-width="0.68" stroke-miterlimit="10"/>
<path d="M9.27801 12.7053C9.09128 13.0187 9.10795 13.4197 9.23467 13.7615C9.36054 14.1033 9.58479 14.4 9.8057 14.691C11.127 16.4307 12.5325 18.2355 14.5273 19.1475C13.1594 17.5545 12.159 15.2745 11.7247 13.228" stroke="#492112" stroke-width="0.68" stroke-miterlimit="10"/>
<path d="M19.0855 15.3587C19.9541 13.3588 20.4234 11.1898 20.4576 9.01233C20.4676 8.39128 20.4309 7.73355 20.085 7.21587" stroke="#492112" stroke-width="0.68" stroke-miterlimit="10"/>
<path d="M18.7081 14.5851C19.15 12.546 19.5934 10.4445 19.2208 8.3921C19.1333 7.90943 18.9666 7.38758 18.5431 7.13499" stroke="#492112" stroke-width="0.68" stroke-miterlimit="10"/>
<path d="M17.9658 15.6455C18.0642 12.8553 18.0758 10.0619 18.0025 7.27088" stroke="#492112" stroke-width="0.68" stroke-miterlimit="10"/>
<path d="M15.7268 17.6537C15.7452 15.1228 15.7577 12.5544 15.085 10.1135" stroke="#492112" stroke-width="0.68" stroke-miterlimit="10"/>
<path d="M14.9492 18.3122C14.8258 16.7992 14.7025 15.2853 14.4807 13.7832C14.3515 12.9087 14.1798 12.0125 13.6954 11.2698" stroke="#492112" stroke-width="0.68" stroke-miterlimit="10"/>
<path d="M14.4023 19.1142C14.0381 17.9579 13.8096 16.7642 13.4662 15.6013C13.1227 14.4392 12.6526 13.2896 11.8715 12.3577" stroke="#492112" stroke-width="0.68" stroke-miterlimit="10"/>
<path d="M13.8672 19.3551C12.9577 16.7158 11.7815 14.4359 10.2142 12.1201" stroke="#492112" stroke-width="0.68" stroke-miterlimit="10"/>
<path d="M13.4653 19.0717C11.0503 17.9729 8.72285 16.4141 7.4374 14.1083" stroke="#492112" stroke-width="0.68" stroke-miterlimit="10"/>
<path d="M14.0392 19.1092C14.3135 19.195 14.5986 19.0383 14.8403 18.8833C16.6943 17.6953 18.4532 16.1906 19.3127 14.1741C19.9713 12.6286 20.0496 10.893 19.8537 9.22655" stroke="#492112" stroke-width="0.68" stroke-miterlimit="10"/>
<path d="M18.5293 15.3062C19.0337 14.205 19.5389 13.0996 19.8982 11.9433C20.2566 10.7871 20.4667 9.57169 20.365 8.36627C20.3083 7.69937 20.1241 6.98579 19.5939 6.57064" stroke="#492112" stroke-width="0.68" stroke-miterlimit="10"/>
<path d="M17.2263 16.6175C17.6615 14.8535 17.9941 13.0654 18.2225 11.2631C18.285 10.7721 18.3392 10.2728 18.2592 9.78426C18.18 9.29576 17.9499 8.81142 17.5439 8.52299" stroke="#492112" stroke-width="0.68" stroke-miterlimit="10"/>
<path d="M14.8686 17.8346C15.0853 16.4516 15.302 15.0694 15.5188 13.6865C15.6388 12.9187 15.7597 12.1434 15.7097 11.3681C15.6597 10.5929 16.054 10.4261 15.5388 9.84011" stroke="#492112" stroke-width="0.68" stroke-miterlimit="10"/>
<path d="M13.4691 18.3256C13.6809 15.893 13.7926 13.4522 13.8018 11.0105" stroke="#492112" stroke-width="0.68" stroke-miterlimit="10"/>
<path d="M12.3633 18.9166C11.7756 16.2682 11.4905 14.3383 11.6055 11.6291" stroke="#492112" stroke-width="0.68" stroke-miterlimit="10"/>
<path d="M10.1904 19.2709C9.32013 17.4319 8.66823 15.4912 8.25392 13.5022" stroke="#492112" stroke-width="0.68" stroke-miterlimit="10"/>
<path d="M10.167 19.6602C8.79735 18.8116 7.40853 17.9479 6.32815 16.7583C6.06306 16.4666 5.80881 16.1365 5.74962 15.7472" stroke="#492112" stroke-width="0.68" stroke-miterlimit="10"/>
<path d="M11.2588 19.0491C9.21724 19.7427 7.03898 19.4101 5.15333 18.3656C4.56312 18.0388 3.77701 17.547 3.45607 17.0493" stroke="#492112" stroke-width="0.68" stroke-miterlimit="10"/>
<path d="M15.6231 18.3697C15.5989 18.3489 15.5931 18.4189 15.6256 18.4131C15.6581 18.4073 15.6664 18.3672 15.6681 18.3347C15.7915 15.9664 15.5472 13.5806 14.9462 11.2848" stroke="#492112" stroke-width="0.68" stroke-miterlimit="10"/>
<path style="mix-blend-mode:multiply" opacity="0.32" d="M16.6617 17.8504C16.6626 15.5796 16.7409 13.3088 16.896 11.043L16.6617 17.8504Z" fill="url(#paint26_linear_490_6227)"/>
<path d="M18.6517 15.9239C19.2144 13.7631 19.6512 12.0025 19.7112 9.80675C19.7404 8.73805 19.7087 7.65017 19.3836 6.63065" stroke="#916436" stroke-width="0.68" stroke-miterlimit="10"/>
<path d="M18.1681 16.5875C18.6399 13.9207 19.1118 11.1722 18.5257 8.52716" stroke="#916436" stroke-width="0.68" stroke-miterlimit="10"/>
<path d="M17.4043 17.0751C17.8603 14.9169 18.3163 12.6769 17.8178 10.5287" stroke="#916436" stroke-width="0.68" stroke-miterlimit="10"/>
<path d="M16.8916 17.3452C16.8057 14.8827 16.7207 12.4193 16.6348 9.95682" stroke="#916436" stroke-width="0.68" stroke-miterlimit="10"/>
<path d="M15.3351 11.454C15.1076 13.4989 15.5319 15.6113 16.5322 17.4153C15.4944 16.4182 14.369 15.7113 13.6729 14.4551C13.2944 13.7732 13.0285 12.9504 13.3086 12.2243" stroke="#916436" stroke-width="0.68" stroke-miterlimit="10"/>
<path d="M16.3477 17.5903C15.504 17.4161 14.6387 17.2335 13.9118 16.775C13.6442 16.6066 13.4008 16.4032 13.1674 16.1915C11.8519 15.0019 10.7824 13.438 10.6023 11.6824" stroke="#916436" stroke-width="0.68" stroke-miterlimit="10"/>
<path d="M16.709 17.8754C15.3769 17.5736 14.2415 17.3902 12.986 16.8542C11.7306 16.319 10.5502 15.5521 9.70904 14.4842" stroke="#916436" stroke-width="0.68" stroke-miterlimit="10"/>
<path d="M15.8398 18.0338C14.2243 18.3689 12.512 18.699 10.954 18.1588C10.1312 17.8737 9.3951 17.3494 8.85908 16.6683" stroke="#916436" stroke-width="0.68" stroke-miterlimit="10"/>
<path d="M15.6846 18.5965C13.623 18.634 11.5256 18.6682 9.54076 18.1122C8.93805 17.9438 8.33284 17.7104 7.88102 17.281" stroke="#916436" stroke-width="0.68" stroke-miterlimit="10"/>
<path d="M15.1919 18.0171C14.3258 18.3781 13.4346 18.6807 12.5268 18.9216C11.9724 19.0692 11.4039 19.1942 10.8295 19.1767C10.351 19.1625 9.88171 19.0492 9.41905 18.9291C8.6913 18.7407 7.9427 18.5198 7.37334 18.0305" stroke="#916436" stroke-width="0.68" stroke-miterlimit="10"/>
<path d="M16.2212 18.0488C14.7724 18.0321 13.3294 18.2597 11.8813 18.2372C10.4333 18.2147 8.91948 17.9088 7.81576 16.9776" stroke="#916436" stroke-width="0.68" stroke-miterlimit="10"/>
<path d="M15.9424 17.537C14.6019 17.9413 13.1631 17.9905 11.7809 17.7579C10.6914 17.5745 9.5685 17.1752 8.88909 16.3115" stroke="#916436" stroke-width="0.68" stroke-miterlimit="10"/>
<path d="M16.4697 17.5186C14.6032 16.3907 12.9352 14.9411 11.5613 13.2555" stroke="#916436" stroke-width="0.68" stroke-miterlimit="10"/>
<path d="M17.1992 17.4761C16.2214 16.2015 15.3644 14.9694 14.5416 13.5906C14.2499 13.1021 13.9581 12.5435 14.0931 11.9925" stroke="#916436" stroke-width="0.68" stroke-miterlimit="10"/>
<path d="M17.5356 17.1493C16.3711 14.9052 15.5691 12.7061 14.9564 10.2569" stroke="#916436" stroke-width="0.68" stroke-miterlimit="10"/>
<path d="M17.731 16.8834C17.2716 14.7568 17.0899 12.5711 17.1933 10.3995" stroke="#916436" stroke-width="0.68" stroke-miterlimit="10"/>
<path d="M18.0981 16.2157C18.3406 13.7965 18.5799 11.3248 18.0164 8.95897" stroke="#916436" stroke-width="0.68" stroke-miterlimit="10"/>
<path d="M18.6238 15.8339C19.0789 14.2441 19.4758 12.6378 19.8125 11.0197C19.9559 10.3328 20.0593 9.53167 19.5883 9.00816" stroke="#916436" stroke-width="0.68" stroke-miterlimit="10"/>
<path d="M19.2383 14.4892C19.8268 12.7553 20.3495 10.9055 19.9627 9.11652C19.8243 8.4763 19.5476 7.83024 19.0182 7.43844" stroke="#916436" stroke-width="0.68" stroke-miterlimit="10"/>
<path d="M17.2524 15.768C16.969 13.5272 16.7789 11.2756 16.6814 9.01983" stroke="#916436" stroke-width="0.68" stroke-miterlimit="10"/>
<path d="M15.957 16.7909C15.7603 15.7655 15.5619 14.7343 15.2001 13.7548C14.8375 12.7745 14.3006 11.8383 13.5162 11.1422" stroke="#916436" stroke-width="0.68" stroke-miterlimit="10"/>
<path d="M16.1704 17.8721C14.3114 17.512 12.8001 16.2148 11.3846 14.9652" stroke="#916436" stroke-width="0.68" stroke-miterlimit="10"/>
<path d="M18.3062 16.109C17.5084 17.071 16.3671 17.6979 15.1909 18.1355C14.0147 18.5732 12.69 18.8399 11.513 18.4023" stroke="#916436" stroke-width="0.68" stroke-miterlimit="10"/>
<path d="M17.1729 17.3427C16.03 18.2839 14.6028 18.8816 13.1248 19.0375C11.6468 19.1934 10.1246 18.9066 8.8066 18.2247" stroke="#916436" stroke-width="0.68" stroke-miterlimit="10"/>
<path d="M15.8916 18.4381C14.757 19.2184 13.6525 19.5018 12.4462 19.7627C11.24 20.0237 9.9512 20.047 8.7958 19.6135" stroke="#916436" stroke-width="0.68" stroke-miterlimit="10"/>
<path d="M13.8223 19.3643C12.6327 19.7277 11.3714 20.1078 10.1735 19.9169C8.97558 19.726 7.81517 19.25 6.87901 18.4848" stroke="#916436" stroke-width="0.68" stroke-miterlimit="10"/>
<path d="M15.4232 18.6215C15.8967 18.5098 16.256 18.1372 16.5802 17.7779C17.1988 17.091 17.7957 16.3849 18.37 15.6613C18.6176 15.3495 18.9794 15.0061 19.1136 14.6284C19.2262 14.3125 19.2837 13.9457 19.3754 13.6181C19.7188 12.391 19.9989 11.1464 20.2148 9.89096" stroke="#916436" stroke-width="0.68" stroke-miterlimit="10"/>
<path d="M18.1182 16.5266C16.9411 18.0371 15.338 18.8933 13.7308 19.4101" stroke="#916436" stroke-width="0.68" stroke-miterlimit="10"/>
<path d="M17.4443 17.2218C16.1414 17.998 14.926 18.8341 13.5296 19.4293C13.0661 19.6269 12.576 19.8178 12.0733 19.7744" stroke="#916436" stroke-width="0.68" stroke-miterlimit="10"/>
<path d="M8.83642 15.6638C9.67004 16.6041 10.8788 17.1552 12.1134 17.4169C12.902 17.5845 13.709 17.6437 14.5134 17.6653C14.8719 17.6745 15.3128 17.7429 15.6638 17.6703C15.9122 17.6195 16.144 17.4553 16.3799 17.3602C14.7068 16.2965 13.2413 14.9461 11.8866 13.5039" stroke="#916436" stroke-width="0.68" stroke-miterlimit="10"/>
<path d="M16.7593 16.6783C15.6447 15.0786 14.6319 13.4089 13.7291 11.6824" stroke="#916436" stroke-width="0.68" stroke-miterlimit="10"/>
<path d="M16.5947 15.8614C16.4297 14.8502 16.2546 13.8399 16.0712 12.832C16.0245 12.5769 15.9762 12.3168 15.8503 12.0901" stroke="#916436" stroke-width="0.68" stroke-miterlimit="10"/>
<path d="M16.7742 16.8909C16.9535 14.8569 17.1219 12.7403 16.3891 10.8321" stroke="#916436" stroke-width="0.68" stroke-miterlimit="10"/>
<path d="M17.503 15.8289C17.8764 14.3425 18.1615 12.8353 18.3574 11.3156" stroke="#916436" stroke-width="0.68" stroke-miterlimit="10"/>
<path d="M18.1123 15.8772C18.2807 14.3333 18.4499 12.7895 18.6183 11.2464C18.6875 10.6129 18.7526 9.94681 18.505 9.35828" stroke="#916436" stroke-width="0.68" stroke-miterlimit="10"/>
<path d="M18.1407 16.4141C18.8852 13.909 19.6371 11.3015 19.2228 8.72139" stroke="#916436" stroke-width="0.68" stroke-miterlimit="10"/>
<path d="M17.6919 16.9167C18.132 14.4492 18.3813 11.9483 18.4363 9.44331C18.4622 8.28207 18.443 7.10166 18.1112 5.98794" stroke="#916436" stroke-width="0.68" stroke-miterlimit="10"/>
<path d="M16.8809 16.9759C15.9322 14.2608 15.7696 11.2815 16.4157 8.48215" stroke="#916436" stroke-width="0.68" stroke-miterlimit="10"/>
<path d="M16.9546 17.3185C14.9506 16.1406 13.2024 14.5367 11.8628 12.6469" stroke="#916436" stroke-width="0.68" stroke-miterlimit="10"/>
<path d="M16.9458 17.6678C15.6328 17.4519 14.3015 17.2302 13.092 16.6808C12.5059 16.4149 11.9566 16.0748 11.4214 15.718C10.0867 14.8277 9.15892 14.235 8.18775 12.9637" stroke="#916436" stroke-width="0.68" stroke-miterlimit="10"/>
<path d="M16.418 18.093C13.0951 17.7904 9.79566 17.3911 7.03303 15.5346" stroke="#916436" stroke-width="0.68" stroke-miterlimit="10"/>
<path d="M15.0469 18.8132C12.115 19.3784 8.96142 18.7099 6.5189 17.0051" stroke="#916436" stroke-width="0.68" stroke-miterlimit="10"/>
<path d="M13.8311 19.4001C12.669 19.6727 11.4719 20.0153 10.3273 19.9995C10.0081 19.9953 9.68711 19.987 9.372 19.9345C8.94352 19.8628 8.53337 19.711 8.1324 19.546C6.86779 19.0241 5.61986 18.3239 4.82958 17.2143" stroke="#916436" stroke-width="0.68" stroke-miterlimit="10"/>
<path d="M18.3528 16.3149C20.0651 13.9991 20.7837 10.9847 20.3002 8.15202" stroke="#916436" stroke-width="0.68" stroke-miterlimit="10"/>
<path d="M19.8137 7.26755C19.9263 10.4345 19.1235 13.7523 17.9614 16.7042C18.6125 16.129 19.0993 15.3229 19.4778 14.5434C20.028 13.4097 20.3806 12.2976 20.5306 11.0489C20.6807 9.8001 20.5715 8.28874 20.0405 7.14584" stroke="#916436" stroke-width="0.68" stroke-miterlimit="10"/>
<path d="M18.7396 7.77606C18.8088 10.9163 18.3653 14.0674 17.4324 17.0693C17.3066 17.4728 16.7455 17.8121 16.3096 18.148" stroke="#916436" stroke-width="0.68" stroke-miterlimit="10"/>
<path d="M17.0905 9.46081C17.183 10.8971 17.2755 12.3385 17.168 13.7731C17.0596 15.2078 16.7437 16.6458 16.0609 17.9154C15.9834 18.0588 15.8975 18.2047 15.7642 18.2989" stroke="#916436" stroke-width="0.68" stroke-miterlimit="10"/>
<path d="M16.5156 11.7424C16.3672 13.5547 16.0788 15.3529 15.7362 17.1385C15.6553 17.562 15.5695 17.9888 15.3894 18.3806C15.2093 18.7724 14.7033 19.0291 14.3132 19.2184" stroke="#916436" stroke-width="0.68" stroke-miterlimit="10"/>
<path d="M16.7803 17.567C15.519 15.6571 14.2127 13.7765 12.8631 11.9275" stroke="#916436" stroke-width="0.68" stroke-miterlimit="10"/>
<path d="M16.0137 17.2819C13.8254 16.5291 11.8756 15.1078 10.4984 13.2613" stroke="#916436" stroke-width="0.68" stroke-miterlimit="10"/>
<path d="M15.2554 17.717C14.9744 17.6245 14.7244 17.4769 14.4384 17.4169C14.0558 17.3361 13.654 17.3111 13.2672 17.2502C12.4902 17.1285 11.7158 16.9801 10.9597 16.7625C9.72511 16.4066 8.52803 15.8539 7.57269 15.0002" stroke="#916436" stroke-width="0.68" stroke-miterlimit="10"/>
<path d="M14.9365 18.8224C14.2588 17.0193 15.004 14.9802 14.6189 13.0946C14.4755 12.3902 14.1738 11.7124 14.1546 10.9938" stroke="#492112" stroke-width="0.68" stroke-miterlimit="10"/>
<path d="M11.3874 11.7049C11.0581 12.0942 11.0398 12.6528 11.089 13.1588C11.2007 14.3125 11.5941 15.4337 12.2052 16.4207C12.5203 16.9301 12.8938 17.4036 13.3172 17.8279C13.5223 18.0338 13.7399 18.228 13.9675 18.4089C14.1275 18.5365 14.4368 18.6782 14.521 18.8533C14.155 19.0241 13.444 19.0333 13.043 19.055C12.3094 19.095 11.5683 18.9658 10.8839 18.704C9.83853 18.3047 8.92405 17.6112 8.17128 16.7875C7.78198 16.3615 7.42185 15.8764 7.31348 15.3112" stroke="#492112" stroke-width="0.68" stroke-miterlimit="10"/>
<path d="M4.69112 17.0718C4.9087 17.5411 5.34301 17.8754 5.789 18.143C6.97275 18.8533 8.34072 19.225 9.71704 19.3718C11.0925 19.5193 12.483 19.451 13.8618 19.3334C12.7281 18.8958 11.4185 17.9529 10.5565 17.101C9.69453 16.2498 8.96261 15.2778 8.26153 14.2925C8.05146 13.9966 7.83472 13.6723 7.84305 13.3105" stroke="#492112" stroke-width="0.68" stroke-miterlimit="10"/>
<path d="M16.733 16.9159C17.0148 14.4492 17.0931 11.9208 16.4796 9.51416C16.3504 9.00899 16.2278 8.63385 15.9102 8.13451" stroke="#492112" stroke-width="0.68" stroke-miterlimit="10"/>
<path d="M12.5928 19.7211C10.7971 19.4151 8.95567 19.0933 7.38679 18.1739C6.75491 17.8037 6.17804 17.3411 5.6812 16.8059C5.14518 16.2282 4.68335 15.5071 4.71169 14.7226" stroke="#492112" stroke-width="0.68" stroke-miterlimit="10"/>
<path d="M17.8978 15.4304C18.2254 13.9716 18.5538 12.5119 18.8815 11.053C19.0157 10.4553 19.1507 9.84928 19.129 9.23657C19.1074 8.62385 18.9115 7.99447 18.4688 7.56682" stroke="#492112" stroke-width="0.68" stroke-miterlimit="10"/>
<path d="M16.3631 16.9176C16.609 15.7363 16.8549 14.5559 17.1008 13.3747C17.2692 12.5644 17.4393 11.7466 17.4293 10.9188C17.4193 10.091 17.215 9.2424 16.704 8.58717" stroke="#492112" stroke-width="0.68" stroke-miterlimit="10"/>
<path d="M10.9551 18.669C10.0931 16.3949 9.67046 14.4409 9.63128 12.0125" stroke="#492112" stroke-width="0.68" stroke-miterlimit="10"/>
<path d="M10.9736 18.1697C8.39107 17.9046 5.7193 17.5045 3.55855 16.0773" stroke="#492112" stroke-width="0.68" stroke-miterlimit="10"/>
</g>
<path style="mix-blend-mode:multiply" opacity="0.71" d="M18.0271 2.38834C18.273 2.69678 18.5056 3.02022 18.7249 3.35867C22.0677 8.53214 20.8798 15.2662 16.0706 18.3997C11.2623 21.5333 4.65412 19.8794 1.31046 14.7051C0.973673 14.1841 0.683571 13.6481 0.438486 13.1004L5.06677 14.0507C5.37938 14.1149 5.70365 14.0816 5.99626 13.9557L10.3394 12.0667C11.6907 11.8458 14.2583 11.379 15.0352 10.2511L16.6333 7.83023C17.4969 7.18751 17.2235 5.94624 17.4603 4.89588L18.0271 2.385V2.38834Z" fill="url(#paint27_linear_490_6227)"/>
<defs>
<linearGradient id="paint0_linear_490_6227" x1="12.9619" y1="19.7323" x2="8.96742" y2="4.81407" gradientUnits="userSpaceOnUse">
<stop offset="0.14" stop-color="#683C11"/>
<stop offset="1" stop-color="#936037"/>
</linearGradient>
<linearGradient id="paint1_linear_490_6227" x1="12.9619" y1="19.7323" x2="8.96742" y2="4.81407" gradientUnits="userSpaceOnUse">
<stop offset="0.14" stop-color="#683C11"/>
<stop offset="0.99" stop-color="#936037" stop-opacity="0"/>
</linearGradient>
<linearGradient id="paint2_linear_490_6227" x1="15.9962" y1="2.29199" x2="1.02026" y2="11.4154" gradientUnits="userSpaceOnUse">
<stop stop-color="#B2B2B2"/>
<stop offset="0.51" stop-color="#F6F6F6"/>
</linearGradient>
<linearGradient id="paint3_linear_490_6227" x1="16.009" y1="2.28419" x2="1.00745" y2="11.4232" gradientUnits="userSpaceOnUse">
<stop offset="0.49" stop-color="white"/>
<stop offset="1" stop-color="white"/>
</linearGradient>
<linearGradient id="paint4_linear_490_6227" x1="18.523" y1="8.55788" x2="11.98" y2="6.80349" gradientUnits="userSpaceOnUse">
<stop offset="0.49" stop-color="#F6F6F6"/>
<stop offset="1" stop-color="#B2B2B2"/>
</linearGradient>
<linearGradient id="paint5_linear_490_6227" x1="15.3526" y1="9.58479" x2="10.4418" y2="8.26803" gradientUnits="userSpaceOnUse">
<stop offset="0.05" stop-color="#F6F6F6"/>
<stop offset="0.7" stop-color="#9D9D9C"/>
</linearGradient>
<linearGradient id="paint6_linear_490_6227" x1="13.3247" y1="9.94648" x2="9.81411" y2="9.00516" gradientUnits="userSpaceOnUse">
<stop offset="0.49" stop-color="#F6F6F6"/>
<stop offset="1" stop-color="#B2B2B2"/>
</linearGradient>
<linearGradient id="paint7_linear_490_6227" x1="11.1907" y1="11.5364" x2="10.2229" y2="7.923" gradientUnits="userSpaceOnUse">
<stop offset="0.05" stop-color="#F6F6F6"/>
<stop offset="0.7" stop-color="#9D9D9C"/>
</linearGradient>
<linearGradient id="paint8_linear_490_6227" x1="9.18289" y1="14.1765" x2="7.62583" y2="8.36051" gradientUnits="userSpaceOnUse">
<stop offset="0.49" stop-color="#F6F6F6"/>
<stop offset="1" stop-color="#B2B2B2"/>
</linearGradient>
<linearGradient id="paint9_linear_490_6227" x1="6.25403" y1="14.9603" x2="5.07323" y2="10.551" gradientUnits="userSpaceOnUse">
<stop offset="0.05" stop-color="#F6F6F6"/>
<stop offset="0.7" stop-color="#9D9D9C"/>
</linearGradient>
<linearGradient id="paint10_linear_490_6227" x1="4.14383" y1="15.3871" x2="3.01096" y2="11.1563" gradientUnits="userSpaceOnUse">
<stop offset="0.49" stop-color="#F6F6F6"/>
<stop offset="1" stop-color="#B2B2B2"/>
</linearGradient>
<linearGradient id="paint11_linear_490_6227" x1="2.18882" y1="14.6946" x2="-0.0293795" y2="6.40988" gradientUnits="userSpaceOnUse">
<stop offset="0.05" stop-color="#F6F6F6"/>
<stop offset="0.7" stop-color="#9D9D9C"/>
</linearGradient>
<linearGradient id="paint12_linear_490_6227" x1="3.09394" y1="8.00769" x2="2.11658" y2="4.35893" gradientUnits="userSpaceOnUse">
<stop offset="0.49" stop-color="#F6F6F6"/>
<stop offset="1" stop-color="#B2B2B2"/>
</linearGradient>
<linearGradient id="paint13_linear_490_6227" x1="5.65485" y1="6.60235" x2="4.46454" y2="2.1577" gradientUnits="userSpaceOnUse">
<stop offset="0.05" stop-color="#F6F6F6"/>
<stop offset="0.7" stop-color="#9D9D9C"/>
</linearGradient>
<linearGradient id="paint14_linear_490_6227" x1="7.57839" y1="4.65842" x2="6.66323" y2="1.24124" gradientUnits="userSpaceOnUse">
<stop offset="0.49" stop-color="#F6F6F6"/>
<stop offset="1" stop-color="#B2B2B2"/>
</linearGradient>
<linearGradient id="paint15_linear_490_6227" x1="11.9605" y1="2.03922" x2="9.28732" y2="1.32244" gradientUnits="userSpaceOnUse">
<stop offset="0.05" stop-color="#F6F6F6"/>
<stop offset="0.7" stop-color="#9D9D9C"/>
</linearGradient>
<linearGradient id="paint16_linear_490_6227" x1="15.3052" y1="1.69671" x2="9.82752" y2="0.227949" gradientUnits="userSpaceOnUse">
<stop offset="0.49" stop-color="#F6F6F6"/>
<stop offset="1" stop-color="#B2B2B2"/>
</linearGradient>
<linearGradient id="paint17_linear_490_6227" x1="18.8838" y1="7.53013" x2="11.8222" y2="7.53013" gradientUnits="userSpaceOnUse">
<stop offset="0.24" stop-color="#F6F6F6"/>
<stop offset="0.6" stop-color="white" stop-opacity="0"/>
</linearGradient>
<linearGradient id="paint18_linear_490_6227" x1="13.2622" y1="9.41495" x2="9.99357" y2="9.41495" gradientUnits="userSpaceOnUse">
<stop offset="0.49" stop-color="#F6F6F6"/>
<stop offset="1" stop-color="white" stop-opacity="0"/>
</linearGradient>
<linearGradient id="paint19_linear_490_6227" x1="10.0205" y1="12.6377" x2="6.09744" y2="10.3728" gradientUnits="userSpaceOnUse">
<stop offset="0.05" stop-color="#F6F6F6"/>
<stop offset="0.57" stop-color="white" stop-opacity="0"/>
</linearGradient>
<linearGradient id="paint20_linear_490_6227" x1="5.47852" y1="13.3505" x2="2.11651" y2="13.3505" gradientUnits="userSpaceOnUse">
<stop offset="0.49" stop-color="#F6F6F6"/>
<stop offset="1" stop-color="white" stop-opacity="0"/>
</linearGradient>
<linearGradient id="paint21_linear_490_6227" x1="6.15869" y1="5.9771" x2="-0.93128" y2="5.9771" gradientUnits="userSpaceOnUse">
<stop offset="0.49" stop-color="#F6F6F6"/>
<stop offset="1" stop-color="white" stop-opacity="0"/>
</linearGradient>
<linearGradient id="paint22_linear_490_6227" x1="8.26723" y1="4.81918" x2="5.86139" y2="0.651892" gradientUnits="userSpaceOnUse">
<stop stop-color="white" stop-opacity="0"/>
<stop offset="0.39" stop-color="#F6F6F6"/>
</linearGradient>
<linearGradient id="paint23_linear_490_6227" x1="15.6836" y1="0.92783" x2="9.98411" y2="0.92783" gradientUnits="userSpaceOnUse">
<stop offset="0.28" stop-color="white" stop-opacity="0"/>
<stop offset="0.51" stop-color="#F6F6F6"/>
</linearGradient>
<linearGradient id="paint24_linear_490_6227" x1="16.0562" y1="2.25743" x2="1.07954" y2="11.3813" gradientUnits="userSpaceOnUse">
<stop stop-color="#9D9D9C"/>
<stop offset="0.7" stop-color="#F6F6F6"/>
</linearGradient>
<linearGradient id="paint25_linear_490_6227" x1="14.9085" y1="8.95748" x2="2.97732" y2="5.7583" gradientUnits="userSpaceOnUse">
<stop offset="0.49" stop-color="white"/>
<stop offset="1" stop-color="white"/>
</linearGradient>
<linearGradient id="paint26_linear_490_6227" x1="16.7914" y1="14.5989" x2="16.7131" y2="14.5967" gradientUnits="userSpaceOnUse">
<stop offset="0.14" stop-color="#683C11"/>
<stop offset="0.99" stop-color="#936037" stop-opacity="0"/>
</linearGradient>
<linearGradient id="paint27_linear_490_6227" x1="12.9619" y1="19.7323" x2="8.96742" y2="4.81407" gradientUnits="userSpaceOnUse">
<stop offset="0.06" stop-color="#6B3E13" stop-opacity="0.83"/>
<stop offset="0.5" stop-color="#936037" stop-opacity="0"/>
</linearGradient>
</defs>
</svg>
