<svg width="108" height="117" viewBox="0 0 108 117" fill="none" xmlns="http://www.w3.org/2000/svg">
<path d="M54.2344 117L106.601 86.7313V49.521L107.709 48.8847V33.4429L54.2344 64.3193V117Z" fill="#FF4333"/>
<g opacity="0.45">
<path d="M54.2373 117L106.603 86.7312V49.5208L107.712 48.8846V33.4428L54.2373 64.3192V117Z" fill="white"/>
</g>
<path opacity="0.15" d="M54.2344 79.7539L74.2872 68.1797L106.601 49.5209V51.7442L54.2344 81.97V79.7539Z" fill="black"/>
<path d="M54.235 117L2.15479 86.953V49.6854L0.760742 48.8847V33.4429L54.235 64.3193V117Z" fill="#FF4333"/>
<path opacity="0.3" d="M54.235 117L2.15479 86.953V49.6854L0.760742 48.8847V33.4429L54.235 64.3193V117Z" fill="white"/>
<path opacity="0.1" d="M2.14941 49.6854L54.2368 79.7539V81.9701L2.14941 51.9301V49.6854Z" fill="black"/>
<path d="M0.760742 33.4429L54.235 2.57367L107.709 33.4429L54.235 64.3193L0.760742 33.4429Z" fill="#FF4333"/>
<g opacity="0.6">
<path d="M0.760742 33.4429L54.235 2.57367L107.709 33.4429L54.235 64.3193L0.760742 33.4429Z" fill="white"/>
</g>
<path d="M32.5161 104.468V51.78L23.8301 46.7686V99.4565L32.5161 104.468Z" fill="#EBEBEB"/>
<path d="M32.5161 104.468V51.78L23.8301 46.7686V99.4565L32.5161 104.468Z" fill="#FF4333"/>
<path opacity="0.4" d="M32.5161 104.468V51.78L23.8301 46.7686V99.4565L32.5161 104.468Z" fill="black"/>
<path d="M75.9531 104.468V51.78L84.6391 46.7686V99.4565L75.9531 104.468Z" fill="#FF4333"/>
<path opacity="0.15" d="M75.9531 104.468V51.78L84.6391 46.7686V99.4565L75.9531 104.468Z" fill="black"/>
<path d="M23.8301 46.7686L77.3044 15.8922L85.9904 20.9108L32.5161 51.78L23.8301 46.7686Z" fill="#FF4333"/>
<path opacity="0.25" d="M53.5268 39.6554L44.8408 34.6368L53.5268 29.6254L62.2128 34.6368L53.5268 39.6554Z" fill="black"/>
<path d="M75.9547 51.78L22.4805 20.9108L31.1665 15.8922L84.6407 46.7686L75.9547 51.78Z" fill="#FF4333"/>
<path d="M52.1484 38.2042L64.4447 58.4357V93.6873L72.0512 82.9353V54.0749L53.9285 34.4796L52.1484 38.2042Z" fill="#FF4333"/>
<path d="M54.2583 36.0808L89.6815 37.1746L95.7938 28.939L54.1797 32.6851L54.2583 36.0808Z" fill="#FF4333"/>
<path d="M19.9072 20.103C19.9072 20.103 22.0519 28.6817 32.0104 31.9917C41.9689 35.3017 53.5074 36.0881 53.5074 36.0881L30.8809 9.08643L19.9072 20.103Z" fill="#FF4333"/>
<path opacity="0.4" d="M19.9072 20.103C19.9072 20.103 22.0519 28.6817 32.0104 31.9917C41.9689 35.3017 53.5074 36.0881 53.5074 36.0881L30.8809 9.08643L19.9072 20.103Z" fill="black"/>
<path d="M53.5074 36.0881C53.5074 36.0881 53.7504 27.6308 49.3824 21.2397C45.0144 14.8485 30.8809 9.08643 30.8809 9.08643C26.7618 12.2684 23.0731 15.9715 19.9072 20.103C19.9072 20.103 38.6947 19.9529 51.6057 35.795L53.5074 36.0881Z" fill="#FF4333"/>
<path opacity="0.1" d="M53.5074 36.0881C53.5074 36.0881 53.7504 27.6308 49.3824 21.2397C45.0144 14.8485 30.8809 9.08643 30.8809 9.08643C26.7618 12.2684 23.0731 15.9715 19.9072 20.103C19.9072 20.103 38.6947 19.9529 51.6057 35.795L53.5074 36.0881Z" fill="white"/>
<path opacity="0.3" d="M31.6963 22.2762C35.2017 23.4153 38.5499 24.9909 41.662 26.9659L48.5464 20.1673C46.2516 17.4864 42.4555 14.9843 38.9596 13.0183L31.6963 22.2762Z" fill="white"/>
<path d="M53.5064 36.0881C51.413 39.8995 48.1569 42.9427 44.2128 44.7741C37.4213 48.0697 26.0544 47.8982 26.0544 47.8982L24.9678 33.6002C26.273 35.5822 28.051 37.2081 30.1415 38.3313C32.232 39.4546 34.5692 40.0398 36.9423 40.0343C42.0457 40.0699 46.9878 38.248 50.847 34.9085L53.5064 36.0881Z" fill="#FF4333"/>
<path opacity="0.4" d="M53.5064 36.0881C51.413 39.8995 48.1569 42.9427 44.2128 44.7741C37.4213 48.0697 26.0544 47.8982 26.0544 47.8982L24.9678 33.6002C26.273 35.5822 28.051 37.2081 30.1415 38.3313C32.232 39.4546 34.5692 40.0398 36.9423 40.0343C42.0457 40.0699 46.9878 38.248 50.847 34.9085L53.5064 36.0881Z" fill="black"/>
<path d="M53.5058 36.088C46.3926 28.839 39.7369 28.1384 33.6674 29.5539C26.9474 31.1267 24.96 33.5788 24.96 33.5788L26.0466 47.8767C26.0466 47.8767 29.6211 40.885 39.3294 37.7394C49.0377 34.5939 53.5058 36.088 53.5058 36.088Z" fill="#FF4333"/>
<path opacity="0.1" d="M53.5058 36.088C46.3926 28.839 39.7369 28.1384 33.6674 29.5539C26.9474 31.1267 24.96 33.5788 24.96 33.5788L26.0466 47.8767C26.0466 47.8767 29.6211 40.885 39.3294 37.7394C49.0377 34.5939 53.5058 36.088 53.5058 36.088Z" fill="white"/>
<path opacity="0.3" d="M28.292 31.3697C29.9434 33.7431 32.5814 37.625 34.2328 40.0771C35.8433 39.1234 37.5524 38.3468 39.33 37.7608C41.014 37.2175 42.7278 36.7712 44.463 36.424L38.2862 28.9604C36.73 28.9914 35.1816 29.1903 33.668 29.5538C31.8175 29.9698 30.0157 30.5784 28.292 31.3697Z" fill="white"/>
<path d="M53.107 34.4938C53.107 34.4938 63.1156 33.064 70.0286 25.6433C76.9417 18.2227 78.4429 7.86386 78.4429 7.86386L65.8465 0C66.8933 3.2134 67.2341 6.61495 66.8454 9.97216C66.4568 13.3294 65.3479 16.5631 63.5945 19.4523C59.1121 27.1017 52.8711 28.6674 52.8711 28.6674L53.107 34.4938Z" fill="#FF4333"/>
<path opacity="0.4" d="M53.107 34.4938C53.107 34.4938 63.1156 33.064 70.0286 25.6433C76.9417 18.2227 78.4429 7.86386 78.4429 7.86386L65.8465 0C66.8933 3.2134 67.2341 6.61495 66.8454 9.97216C66.4568 13.3294 65.3479 16.5631 63.5945 19.4523C59.1121 27.1017 52.8711 28.6674 52.8711 28.6674L53.107 34.4938Z" fill="black"/>
<path d="M53.1071 34.4938L54.9516 34.1149C56.0073 26.8797 59.4852 20.2163 64.8171 15.213C73.9964 6.80581 78.4431 7.86386 78.4431 7.86386C74.7542 4.1607 70.3933 1.87303 65.8466 0C65.8466 0 58.0399 4.56104 54.587 11.0166C50.4477 18.7446 51.806 30.1972 53.1071 34.4938Z" fill="#FF4333"/>
<path opacity="0.1" d="M53.1071 34.4938L54.9516 34.1149C56.0073 26.8797 59.4852 20.2163 64.8171 15.213C73.9964 6.80581 78.4431 7.86386 78.4431 7.86386C74.7542 4.1607 70.3933 1.87303 65.8466 0C65.8466 0 58.0399 4.56104 54.587 11.0166C50.4477 18.7446 51.806 30.1972 53.1071 34.4938Z" fill="white"/>
<g opacity="0.3">
<path d="M71.6949 10.0086L61.0644 3.46735C60.5568 3.88914 60.0492 4.33237 59.5273 4.8185L69.9076 11.1453C70.5367 10.7235 71.1373 10.3232 71.6949 10.0086Z" fill="white"/>
<path d="M68.3273 12.2677L58.0471 6.29834C57.0664 7.33343 56.1789 8.45301 55.3949 9.64406L55.3234 9.74415C55.0588 10.1516 54.8086 10.5734 54.6085 10.9952C54.4798 11.2454 54.394 11.5314 54.2725 11.7888L62.8512 17.2005C63.4589 16.5285 64.1094 15.8637 64.8172 15.2131C66.0826 14.055 67.2407 13.097 68.3273 12.2677Z" fill="white"/>
</g>
<path d="M53.422 36.0737C53.422 36.0737 56.6534 39.2979 64.2384 40.9421C71.8235 42.5864 81.303 41.1495 85.2564 36.5026L83.9982 23.2198C83.9982 23.2198 77.9359 31.9416 68.778 33.6859C61.8006 35.0085 53.3291 32.4992 53.3291 32.4992L53.422 36.0737Z" fill="#FF4333"/>
<path opacity="0.4" d="M53.422 36.0737C53.422 36.0737 56.6534 39.2979 64.2384 40.9421C71.8235 42.5864 81.303 41.1495 85.2564 36.5026L83.9982 23.2198C83.9982 23.2198 77.9359 31.9416 68.778 33.6859C61.8006 35.0085 53.3291 32.4992 53.3291 32.4992L53.422 36.0737Z" fill="black"/>
<path d="M52.8857 33.0283C52.8857 33.0283 59.9418 25.1644 67.7699 23.7346C78.3718 21.7829 84.0266 23.2199 84.0266 23.2199C86.0569 27.9596 86.4144 32.3777 85.2849 36.5027C85.2849 36.5027 80.5308 31.6985 69.7359 31.6414C61.2 31.5985 53.4505 36.0737 53.4505 36.0737L52.8857 33.0283Z" fill="#FF4333"/>
<path opacity="0.1" d="M52.8857 33.0283C52.8857 33.0283 59.9418 25.1644 67.7699 23.7346C78.3718 21.7829 84.0266 23.2199 84.0266 23.2199C86.0569 27.9596 86.4144 32.3777 85.2849 36.5027C85.2849 36.5027 80.5308 31.6985 69.7359 31.6414C61.2 31.5985 53.4505 36.0737 53.4505 36.0737L52.8857 33.0283Z" fill="white"/>
<path opacity="0.3" d="M82.9822 34.8798C80.6307 33.5722 78.0764 32.6685 75.4258 32.2061L73.7529 22.9124C76.3913 22.6608 79.0466 22.6416 81.6883 22.8552C82.9068 26.7392 83.3465 30.8255 82.9822 34.8798Z" fill="white"/>
<path opacity="0.15" d="M72.0518 54.0748L64.4453 58.4357V93.6872L72.0518 82.9352V54.0748Z" fill="black"/>
</svg>
