<svg width="31" height="27" viewBox="0 0 31 27" fill="none" xmlns="http://www.w3.org/2000/svg">
<path d="M25.8346 10.6749C26.6115 11.9982 27.1828 14.0481 27.1828 15.9648C27.1828 22.0595 22.2421 27 16.1477 27C10.0529 27 5.11189 22.0595 5.11189 15.9648C5.11189 14.0355 5.36666 12.9301 6.47746 10.6446C5.49944 13.5385 13.8277 14.1467 16.1495 14.1467C18.4712 14.1467 26.9161 13.5196 25.8346 10.6749ZM9.25027 11.4974L8.63612 9.70766C8.17604 9.94175 7.63382 10.2487 7.65331 10.7699C7.72284 12.6312 14.2147 13.0877 16.1477 13.0479C17.4041 13.0218 24.5548 12.642 24.642 10.7699C24.6144 10.02 23.099 9.34079 21.3959 8.98082L19.9479 12.2062C19.445 12.274 18.9142 12.3285 18.3597 12.3684L19.989 8.74013C18.8344 8.58307 14.5342 8.04206 9.78619 9.26376L10.7714 11.9344C10.1938 11.8076 9.68578 11.6601 9.25027 11.4974ZM23.2378 4.87811L23.9403 4.67279L23.8088 4.1084L24.404 4.07843L24.3923 3.48496L24.9747 3.58058L25.0907 3.0045L25.6362 3.2242L25.9348 2.5549C26.046 2.52613 30.8587 1.34159 30.8587 1.34159L30.5251 0L26.0337 1.1162L25.2882 0.610251L24.9196 1.43811C24.9163 1.439 24.9139 1.4405 24.9112 1.4417L24.0647 1.10031L23.8852 1.99021C23.8807 1.99321 23.8762 1.9962 23.8717 1.9992L22.9788 1.85233L22.9965 2.75782C22.9935 2.76082 22.9905 2.76381 22.9878 2.76621L22.0865 2.81147L22.2921 3.69208C22.1285 3.96483 22.0398 4.16835 22.0119 4.23549L19.989 8.74013C20.4884 8.80817 20.9595 8.8894 21.3962 8.98172L23.2378 4.87811ZM6.57877 8.2189C6.31141 8.32711 5.48715 8.62384 4.51003 8.61635C3.53112 8.61005 2.8771 8.30013 2.6562 8.17814C2.3292 8.14067 1.30412 7.91917 0.900683 6.60575C0.869211 6.50355 0.888094 6.39205 0.951337 6.30513C0.98131 6.26436 0.999893 6.24758 6.48196 1.42851C6.55569 1.36407 6.65371 1.3341 6.75082 1.34639C9.48136 1.69887 13.6182 2.224 13.965 2.24798C13.9884 2.24768 14.0124 2.24918 14.0355 2.25367C14.161 2.27615 14.2639 2.36697 14.301 2.48866C14.5849 3.41243 14.3085 4.06644 14.0265 4.45189C13.912 4.60925 13.5991 4.97432 13.4956 5.13798C12.6951 6.40494 10.7543 6.96243 10.4744 7.02238C10.2888 7.17374 10.0221 7.57059 9.26915 7.86402L9.78619 9.26376C9.78619 9.26376 8.95294 9.54701 8.63612 9.70766L8.11609 8.19223C7.33349 8.37027 6.81646 8.24108 6.57877 8.2189ZM6.97532 1.6617C6.97532 1.6617 11.1673 4.15696 13.3137 4.49086C13.3137 4.49086 9.45139 2.20931 6.97532 1.6617ZM6.72804 1.70996C6.9912 4.26276 8.75451 7.48816 8.75451 7.48816C8.75451 5.52583 6.72804 1.70996 6.72804 1.70996ZM6.45978 1.76511C4.70576 3.59616 2.82315 7.48786 2.82315 7.48786C4.42251 6.01798 6.45978 1.76511 6.45978 1.76511Z" fill="#FF6154"/>
</svg>
