<svg width="16" height="20" viewBox="0 0 16 20" fill="none" xmlns="http://www.w3.org/2000/svg">
<g opacity="0.4">
<path d="M1.4036 15.8093C1.59659 17.2447 2.78385 18.3692 4.22865 18.4357C5.44439 18.4917 6.67936 18.5209 8.03934 18.5209C9.39932 18.5209 10.6343 18.4917 11.85 18.4357C13.2948 18.3692 14.4821 17.2447 14.6751 15.8093C14.801 14.8726 14.9049 13.9126 14.9049 12.9349C14.9049 11.9573 14.801 10.9973 14.6751 10.0605C14.4821 8.62519 13.2948 7.50067 11.85 7.43416C10.6343 7.37819 9.39932 7.349 8.03934 7.349C6.67936 7.349 5.44439 7.37819 4.22865 7.43416C2.78385 7.50067 1.59659 8.62519 1.4036 10.0605C1.27765 10.9973 1.17377 11.9573 1.17377 12.9349C1.17377 13.9126 1.27765 14.8726 1.4036 15.8093Z" stroke="#BDBDBD" stroke-width="1.5"/>
<path d="M4.17746 7.349V5.20056C4.17746 3.06477 5.90648 1.33337 8.03934 1.33337C10.1722 1.33337 11.9012 3.06477 11.9012 5.20056V7.349" stroke="#BDBDBD" stroke-width="1.5" stroke-linecap="round" stroke-linejoin="round"/>
<path d="M8.036 12.9349H8.0437" stroke="#BDBDBD" stroke-width="2" stroke-linecap="round" stroke-linejoin="round"/>
</g>
</svg>
