<svg width="68" height="12" viewBox="0 0 68 12" fill="none" xmlns="http://www.w3.org/2000/svg">
<path fill-rule="evenodd" clip-rule="evenodd" d="M46.5894 0.159912H61.4106C62.6587 0.159912 63.1113 0.289868 63.5676 0.533898C64.0239 0.777928 64.382 1.13603 64.626 1.59233C64.87 2.04862 65 2.50122 65 3.74935V8.07047C65 9.3186 64.87 9.7712 64.626 10.2275C64.382 10.6838 64.0239 11.0419 63.5676 11.2859C63.1113 11.53 62.6587 11.6599 61.4106 11.6599H46.5894C45.3413 11.6599 44.8887 11.53 44.4324 11.2859C43.9761 11.0419 43.618 10.6838 43.374 10.2275C43.13 9.7712 43 9.3186 43 8.07047V3.74935C43 2.50122 43.13 2.04862 43.374 1.59233C43.618 1.13603 43.9761 0.777928 44.4324 0.533898C44.8887 0.289868 45.3413 0.159912 46.5894 0.159912ZM46.5894 1.15991C45.6025 1.15991 45.2579 1.22645 44.904 1.41571C44.622 1.56654 44.4066 1.7819 44.2558 2.06393C44.0665 2.41782 44 2.76237 44 3.74935V8.07047C44 9.05745 44.0665 9.40201 44.2558 9.7559C44.4066 10.0379 44.622 10.2533 44.904 10.4041C45.2579 10.5934 45.6025 10.6599 46.5894 10.6599H61.4106C62.3975 10.6599 62.7421 10.5934 63.096 10.4041C63.378 10.2533 63.5934 10.0379 63.7442 9.7559C63.9335 9.40201 64 9.05745 64 8.07047V3.74935C64 2.76237 63.9335 2.41782 63.7442 2.06393C63.5934 1.7819 63.378 1.56654 63.096 1.41571C62.7421 1.22645 62.3975 1.15991 61.4106 1.15991H46.5894ZM67.5 5.84991C67.5 7.08649 66 7.84991 66 7.84991V3.84991C66 3.84991 67.5 4.61334 67.5 5.84991Z" fill="#E5E5E5"/>
<rect x="45" y="2.0766" width="18" height="7.66667" rx="1.6" fill="#E5E5E5"/>
<path fill-rule="evenodd" clip-rule="evenodd" d="M14.623 1.56581C14.6 1.68172 14.6 1.82112 14.6 2.09991V9.79991C14.6 10.0787 14.6 10.2181 14.623 10.334C14.7177 10.8101 15.0898 11.1822 15.5659 11.2769C15.6818 11.2999 15.8212 11.2999 16.1 11.2999C16.3788 11.2999 16.5182 11.2999 16.6341 11.2769C17.1101 11.1822 17.4822 10.8101 17.5769 10.334C17.6 10.2181 17.6 10.0787 17.6 9.79992V2.09991C17.6 1.82112 17.6 1.68172 17.5769 1.56581C17.4822 1.08978 17.1101 0.71766 16.6341 0.622972C16.5182 0.599915 16.3788 0.599915 16.1 0.599915C15.8212 0.599915 15.6818 0.599915 15.5659 0.622972C15.0898 0.71766 14.7177 1.08978 14.623 1.56581ZM9.89999 4.49992C9.89999 4.22112 9.89999 4.08173 9.92305 3.96581C10.0177 3.48978 10.3899 3.11766 10.8659 3.02297C10.9818 2.99992 11.1212 2.99992 11.4 2.99992C11.6788 2.99992 11.8182 2.99992 11.9341 3.02297C12.4101 3.11766 12.7822 3.48978 12.8769 3.96581C12.9 4.08173 12.9 4.22112 12.9 4.49992V9.79992C12.9 10.0787 12.9 10.2181 12.8769 10.334C12.7822 10.8101 12.4101 11.1822 11.9341 11.2769C11.8182 11.2999 11.6788 11.2999 11.4 11.2999C11.1212 11.2999 10.9818 11.2999 10.8659 11.2769C10.3899 11.1822 10.0177 10.8101 9.92305 10.334C9.89999 10.2181 9.89999 10.0787 9.89999 9.79992V4.49992ZM5.32305 6.26581C5.29999 6.38173 5.29999 6.52113 5.29999 6.79992V9.79992C5.29999 10.0787 5.29999 10.2181 5.32305 10.334C5.41773 10.8101 5.78985 11.1822 6.26588 11.2769C6.3818 11.2999 6.52119 11.2999 6.79999 11.2999C7.07878 11.2999 7.21818 11.2999 7.3341 11.2769C7.81012 11.1822 8.18224 10.8101 8.27693 10.334C8.29999 10.2181 8.29999 10.0787 8.29999 9.79992V6.79992C8.29999 6.52113 8.29999 6.38173 8.27693 6.26581C8.18224 5.78978 7.81012 5.41766 7.3341 5.32298C7.21818 5.29992 7.07878 5.29992 6.79999 5.29992C6.52119 5.29992 6.3818 5.29992 6.26588 5.32298C5.78985 5.41766 5.41773 5.78978 5.32305 6.26581ZM0.523058 8.26581C0.5 8.38173 0.5 8.52113 0.5 8.79992V9.79992C0.5 10.0787 0.5 10.2181 0.523058 10.334C0.617746 10.8101 0.989863 11.1822 1.46589 11.2769C1.58181 11.2999 1.72121 11.2999 2 11.2999C2.27879 11.2999 2.41819 11.2999 2.53411 11.2769C3.01014 11.1822 3.38225 10.8101 3.47694 10.334C3.5 10.2181 3.5 10.0787 3.5 9.79992V8.79992C3.5 8.52113 3.5 8.38173 3.47694 8.26581C3.38225 7.78978 3.01014 7.41766 2.53411 7.32298C2.41819 7.29992 2.27879 7.29992 2 7.29992C1.72121 7.29992 1.58181 7.29992 1.46589 7.32298C0.989863 7.41766 0.617746 7.78978 0.523058 8.26581Z" fill="#E5E5E5"/>
<path fill-rule="evenodd" clip-rule="evenodd" d="M30.3004 2.69626C32.5348 2.69636 34.6838 3.55491 36.3032 5.09447C36.4251 5.21333 36.62 5.21183 36.7401 5.09111L37.9058 3.91469C37.9666 3.85346 38.0005 3.77053 38 3.68423C37.9995 3.59793 37.9646 3.5154 37.9031 3.45488C33.6528 -0.618425 26.9474 -0.618425 22.6971 3.45488C22.6355 3.51535 22.6006 3.59786 22.6 3.68416C22.5994 3.77046 22.6333 3.85342 22.6941 3.91469L23.8601 5.09111C23.9801 5.21201 24.1751 5.21351 24.297 5.09447C25.9166 3.55481 28.0658 2.69626 30.3004 2.69626ZM30.3004 6.52365C31.5281 6.52357 32.7119 6.97989 33.622 7.80393C33.745 7.92088 33.9389 7.91834 34.0589 7.79821L35.2232 6.6218C35.2845 6.56009 35.3186 6.47638 35.3177 6.38939C35.3168 6.30241 35.2811 6.21941 35.2185 6.15896C32.4474 3.58121 28.1558 3.58121 25.3847 6.15896C25.3221 6.21941 25.2864 6.30245 25.2856 6.38946C25.2847 6.47648 25.3189 6.56018 25.3803 6.6218L26.5443 7.79821C26.6643 7.91834 26.8582 7.92088 26.9813 7.80393C27.8907 6.98043 29.0736 6.52416 30.3004 6.52365ZM32.538 9.33125C32.6002 9.27014 32.6345 9.18604 32.6327 9.09881C32.631 9.01158 32.5933 8.92895 32.5286 8.87043C31.2423 7.78253 29.3585 7.78253 28.0723 8.87043C28.0075 8.9289 27.9698 9.01151 27.9679 9.09874C27.9661 9.18597 28.0003 9.27009 28.0625 9.33125L30.0769 11.3638C30.1359 11.4235 30.2164 11.4571 30.3004 11.4571C30.3844 11.4571 30.4649 11.4235 30.5239 11.3638L32.538 9.33125Z" fill="#E5E5E5"/>
</svg>
