<svg width="54" height="67" viewBox="0 0 54 67" fill="none" xmlns="http://www.w3.org/2000/svg">
<path d="M51.1367 11.9196C48.9998 6.64207 45.6018 3.8528 41.3095 3.8528C34.8575 3.85354 29.0866 9.61773 26.1997 13.2177C25.8883 10.6111 25.3136 7.64431 25.3025 7.59475C24.4726 3.821 22.6723 0.684827 22.5961 0.553167C22.4872 0.365292 22.3256 0.213497 22.1312 0.116596C21.9369 0.0196956 21.7184 -0.0180504 21.5029 0.00803584L9.69562 1.44298C9.68527 1.44446 9.67713 1.44964 9.66752 1.45112C9.55933 1.46611 9.45407 1.49754 9.35538 1.54431L9.33541 1.55171L9.32875 1.55393C9.16824 1.63529 5.39153 3.59096 4.91149 7.57552C4.6208 10.0312 4.72953 12.4137 4.8316 13.7125C-0.096769 18.4027 -0.036117 24.7963 0.00900241 29.2439L0.0119608 29.5235C0.0119608 29.7047 0.0119607 29.7047 1.48389 34.2418C1.56134 34.48 1.71711 34.685 1.92584 34.8234C2.13458 34.9618 2.38401 35.0255 2.63355 35.0042C2.8831 34.9828 3.11808 34.8777 3.30028 34.7058C3.48248 34.534 3.60117 34.3055 3.63705 34.0577C3.79386 33.5318 6.59052 24.7727 13.4154 20.7075C14.4517 20.044 15.5341 19.4554 16.6544 18.9464C16.4533 19.5067 16.35 20.0974 16.3489 20.6927C16.3489 23.5803 18.6988 25.9302 21.5864 25.9302C22.4023 25.9297 23.2065 25.7371 23.9341 25.3681C24.9356 34.0148 24.1923 44.7495 21.7691 56.6936C13.7527 57.4369 7.16302 60.5294 4.45881 64.872C4.30305 65.1217 4.25288 65.4231 4.31932 65.7098C4.38576 65.9965 4.56339 66.2451 4.81311 66.4009C5.06284 66.5566 5.36421 66.6068 5.65093 66.5404C5.93765 66.4739 6.18623 66.2963 6.34199 66.0466C8.57799 62.4555 14.354 59.7484 21.2884 58.968C21.2403 59.1899 21.1959 59.4089 21.1463 59.6315C21.1419 59.6529 21.1419 59.6737 21.1389 59.6951C21.1002 59.9111 21.1302 60.1339 21.2247 60.332C21.2395 60.3645 21.2551 60.3963 21.2728 60.4274C21.3456 60.5495 21.4398 60.6575 21.5509 60.7462C21.5827 60.7713 21.6168 60.7928 21.6508 60.8142C21.6685 60.8253 21.6833 60.8386 21.7018 60.849L21.7677 60.8815L21.7795 60.8874C23.0695 61.5635 24.7847 61.9378 26.628 61.9378C27.8677 61.9378 29.0962 61.761 30.1828 61.4259C30.1946 61.4222 30.205 61.4156 30.2168 61.4111C30.236 61.4045 30.2531 61.3956 30.2716 61.3882C30.3795 61.3446 30.4801 61.2891 30.5659 61.2181C30.6552 61.1415 30.7331 61.0496 30.7938 60.9488C30.8019 60.9355 30.8115 60.9237 30.8196 60.9096C30.8773 60.8076 30.9158 60.6959 30.9395 60.5805C30.9417 60.5709 30.9476 60.5627 30.9498 60.5531C31.0282 60.0953 31.097 59.6352 31.1688 59.1759C37.4663 60.1567 42.5655 62.7425 44.6188 66.0481C44.7749 66.2972 45.0233 66.4743 45.3097 66.5407C45.5961 66.6071 45.8971 66.5574 46.1469 66.4024C46.6677 66.0791 46.8274 65.3949 46.5035 64.875C44.0796 60.9725 38.5121 58.0634 31.4898 56.9783C33.015 45.7199 32.7302 34.071 30.648 23.0004C32.4684 22.391 33.785 20.6727 33.785 18.6505C33.784 17.8133 33.5542 16.9923 33.1205 16.2762C32.6868 15.5601 32.0656 14.9762 31.3241 14.5875C32.9595 14.1341 34.9788 13.7976 37.4108 13.7976L37.8198 13.8005L37.9456 13.7998C44.9295 13.7998 50.4237 22.1106 51.1485 23.5988C51.1933 23.7654 51.2764 23.9192 51.3912 24.0479C51.506 24.1766 51.6494 24.2766 51.8098 24.34L51.8128 24.3407C52.0118 24.4195 52.2293 24.4391 52.4393 24.3973C52.6492 24.3554 52.8426 24.2539 52.9962 24.1048L53.0058 24.0951C53.1264 23.9761 53.2203 23.8289 53.2765 23.6617C53.3305 23.5027 53.3808 23.3525 53.3113 23.0737C53.5147 20.6816 52.4134 15.0713 51.1367 11.9196ZM17.0982 8.01932C17.3386 8.22125 17.5738 8.42761 17.8008 8.64138C18.5989 9.39287 19.6182 10.4484 20.7617 11.8375C18.8785 10.9232 16.7076 10.1762 14.5264 9.97573C15.2379 8.49788 16.4731 8.11474 17.0982 8.01932ZM21.0162 2.30247C21.5524 3.35575 22.5902 5.58953 23.136 8.07184C23.4489 9.49643 23.6789 10.9218 23.8446 12.1747C22.0768 9.79969 20.4829 8.11844 19.3231 7.02595C18.9812 6.71013 18.6279 6.40692 18.2639 6.11691C18.2084 6.05736 18.1463 6.00427 18.079 5.95862C16.664 4.83359 15.1351 3.8957 13.8022 3.17897L21.0162 2.30247ZM7.1142 7.83958C7.37308 5.69234 9.12017 4.31139 9.92418 3.78106C10.8332 4.1642 12.8836 5.09174 14.9531 6.44088C13.82 7.05258 12.7068 8.1495 12.1454 9.99126C10.5455 10.1666 9.06543 10.6747 7.75031 11.5127C7.47663 11.6755 7.21554 11.8434 6.96035 12.0135C6.92263 10.8293 6.9352 9.34997 7.1142 7.83958ZM12.2512 18.8199C7.41155 21.7016 4.19623 26.9562 2.60966 30.5228L2.22799 29.3453L2.22725 29.2217C2.17695 24.2564 2.10742 17.4567 8.9138 13.4026C10.2319 12.5631 11.7393 12.1378 13.3954 12.1378C16.6595 12.1378 19.9037 13.7569 22.0295 15.1267C19.7314 15.3849 16.2816 16.2525 12.2512 18.8199ZM18.5671 20.6942C18.5671 19.0299 19.9215 17.6756 21.5857 17.6756C23.2499 17.6756 24.6043 19.0299 24.6043 20.6942C24.6043 22.3584 23.2499 23.7127 21.5857 23.7127C19.9215 23.7127 18.5671 22.3592 18.5671 20.6942ZM23.5059 59.221C24.3116 55.5127 24.9765 51.7752 25.4993 48.0166L27.0599 48.0743L27.142 45.8568L25.784 45.8065C26.6531 38.5918 26.9616 30.7891 25.9364 23.6062C26.1895 23.2276 26.3917 22.8172 26.5377 22.3858C27.0888 22.7785 27.7286 23.0515 28.4224 23.1698C29.3561 28.0899 29.9303 33.0713 30.1406 38.0748L28.7027 37.9098L28.4498 40.114L30.2116 40.3159C30.3059 44.5896 30.1407 48.8651 29.7168 53.1188H28.003V55.3378H29.469C29.3708 56.1455 29.2628 56.952 29.1451 57.7572L29.1391 57.7823L29.1384 57.8031C29.0563 58.3615 28.9646 58.9185 28.8736 59.4747C28.1665 59.633 27.4031 59.7158 26.6287 59.7158C25.4822 59.7173 24.3898 59.5383 23.5059 59.221ZM29.1946 21.0211C28.5659 21.0203 27.9632 20.7702 27.5187 20.3257C27.0741 19.8811 26.824 19.2784 26.8232 18.6498C26.8232 17.342 27.8869 16.2784 29.1946 16.2784C30.5023 16.2784 31.566 17.342 31.566 18.6498C31.5652 19.2784 31.3151 19.8811 30.8705 20.3257C30.426 20.7702 29.8233 21.0203 29.1946 21.0211ZM37.9463 11.5801L37.8205 11.5808L37.4115 11.5778C34.1688 11.5778 31.5179 12.1296 29.4742 12.8316C32.3515 9.75605 36.805 6.07179 41.3103 6.07179C43.3481 6.07179 45.0559 6.85953 46.5316 8.48087C49.0523 11.2494 50.2402 15.8272 50.7661 19.135C48.3866 16.1771 43.7549 11.5801 37.9463 11.5801Z" fill="#FF6154"/>
</svg>
