<svg width="23" height="23" viewBox="0 0 23 23" fill="none" xmlns="http://www.w3.org/2000/svg">
<path d="M18.3839 16.6161C17.8957 16.128 17.1043 16.128 16.6161 16.6161C16.128 17.1043 16.128 17.8957 16.6161 18.3839L18.3839 16.6161ZM16.6161 18.3839L21.1161 22.8839L22.8839 21.1161L18.3839 16.6161L16.6161 18.3839ZM21.25 11C21.25 5.33908 16.6609 0.75 11 0.75V3.25C15.2802 3.25 18.75 6.71979 18.75 11H21.25ZM11 0.75C5.33908 0.75 0.75 5.33908 0.75 11H3.25C3.25 6.71979 6.71979 3.25 11 3.25V0.75ZM0.75 11C0.75 16.6609 5.33908 21.25 11 21.25V18.75C6.71979 18.75 3.25 15.2802 3.25 11H0.75ZM11 21.25C16.6609 21.25 21.25 16.6609 21.25 11H18.75C18.75 15.2802 15.2802 18.75 11 18.75V21.25Z" fill="#BDBDBD"/>
</svg>
