<svg width="48" height="46" viewBox="0 0 48 46" fill="none" xmlns="http://www.w3.org/2000/svg">
<path d="M41.1592 5.37375C41.7125 6.06774 42.2358 6.7955 42.7291 7.55701C50.2505 19.1973 47.5777 34.3489 36.757 41.3994C25.9382 48.45 11.0699 44.7287 3.54668 33.0865C2.78891 31.9143 2.13618 30.7082 1.58474 29.4759L41.1592 5.37375Z" fill="url(#paint0_linear_346_10809)"/>
<path style="mix-blend-mode:multiply" opacity="0.32" d="M41.1592 5.37375C41.7125 6.06774 42.2358 6.7955 42.7291 7.55701C50.2505 19.1973 47.5777 34.3489 36.757 41.3994C25.9382 48.45 11.0699 44.7287 3.54668 33.0865C2.78891 31.9143 2.13618 30.7082 1.58474 29.4759L41.1592 5.37375Z" fill="url(#paint1_linear_346_10809)"/>
<mask id="mask0_346_10809" style="mask-type:luminance" maskUnits="userSpaceOnUse" x="0" y="0" width="43" height="34">
<path d="M8.96543 9.01439L10.3253 6.73172L13.557 5.28372L21.8099 2.50025L23.8319 0L35.7366 0.710873C40.7953 2.61841 42.6297 7.35256 42.7291 7.67517C43.4568 10.0629 40.966 12.2255 40.966 12.2255L38.1525 13.7823L34.6094 22.1121L29.9953 22.5754L27.8758 24.5035L24.7059 23.44L15.9241 30.8414L12.049 31.3122L5.24976 33.773C5.24976 33.773 2.04052 31.6442 1.0558 28.5831C0.0710793 25.522 0.97139 19.1992 1.05204 16.2732C1.1327 13.3472 8.9673 9.01627 8.9673 9.01627L8.96543 9.01439ZM3.83176 26.1128C3.75111 27.8966 5.42232 28.7932 5.42232 28.7932L10.6779 26.321L13.4426 25.4958L20.9434 19.8988L21.2378 19.6775L21.2697 19.6531L21.5398 19.6869L21.8418 19.7244L22.1438 19.7619L22.4458 19.7994L22.7477 19.8369L23.0497 19.8744L23.1754 19.8894L23.3479 19.7544L23.6424 19.5237L23.9369 19.293L24.2314 19.0623L24.5259 18.8316L24.8203 18.6009L25.0961 18.3852L25.1148 18.3795L25.413 18.2951L25.7113 18.2107L26.0095 18.1263L26.3077 18.0419L26.606 17.9575L26.9042 17.8731L27.2024 17.7887L27.5006 17.7043L27.7989 17.6199L28.0971 17.5355L28.3578 17.4623L28.3953 17.4136L28.6861 17.0422L28.9768 16.6708L29.2675 16.2994L29.5582 15.9281L29.849 15.5567L30.1397 15.1853L30.4304 14.8139L30.7211 14.4425L31.0119 14.0712L31.3026 13.6998L31.5933 13.3284L31.884 12.957L32.1748 12.5856L32.4655 12.2143L32.7562 11.8429L32.82 11.7603L33.0507 11.6234L33.3471 11.449L33.6434 11.2746L33.9398 11.1001L34.2361 10.9257L34.5325 10.7512L34.8288 10.5768L35.1252 10.4024C35.1252 10.4024 35.2415 10.3142 35.4197 10.1623C35.5059 10.0891 35.6053 10.0029 35.7141 9.90345C35.806 9.81905 35.9054 9.72714 36.0086 9.62585C36.1043 9.53207 36.2037 9.43266 36.3012 9.32575C36.4006 9.22071 36.4982 9.11005 36.5938 8.99751C36.6951 8.87559 36.7945 8.7518 36.8845 8.62238C36.9914 8.47233 37.0909 8.31665 37.1734 8.16284C37.3272 7.87587 37.4322 7.58514 37.4491 7.30567C37.4547 7.21751 37.4379 6.57417 37.1115 5.86329C37.029 5.68135 36.9239 5.49567 36.7964 5.31373C36.7063 5.18618 36.6032 5.05864 36.485 4.93672C36.3912 4.83919 36.2881 4.7454 36.1755 4.65537C36.0799 4.57847 35.9786 4.5072 35.8679 4.4378C35.7723 4.37778 35.671 4.31963 35.5622 4.26524C35.4665 4.21835 35.3634 4.17333 35.2583 4.13206C35.1608 4.09455 35.0595 4.05891 34.9545 4.02703C34.857 3.99702 34.7557 3.97076 34.6506 3.94638C34.5644 3.92574 34.4743 3.90886 34.3805 3.89386L34.3487 3.89761L34.0485 3.93325L33.7484 3.96888L33.4483 4.00452L33.1482 4.04016L32.8481 4.0758L32.548 4.11143L32.2479 4.14707L31.9478 4.18271L31.6477 4.21835L31.3476 4.25398L31.0475 4.28962L30.7474 4.32526L30.4473 4.36089L30.1472 4.39653L29.8471 4.43217L29.547 4.46781L29.2469 4.50344L28.9468 4.53908L28.6467 4.57472L28.3466 4.61036L28.0465 4.64599L27.7463 4.68163L27.4462 4.71727L27.1461 4.75291L26.846 4.78854L26.6829 4.8073L26.5497 4.9386L26.2552 5.22745L25.9607 5.5163L25.6663 5.80515L25.3718 6.094L25.0773 6.38285L24.7828 6.6717L24.7641 6.69046L24.4865 6.80862L24.1882 6.93617L23.89 7.06371L23.5918 7.19126L23.2935 7.3188L22.9953 7.44634L22.6971 7.57389L22.3989 7.70143L22.1006 7.82898L21.8024 7.95652L21.5042 8.08407L21.2059 8.21161L20.9077 8.33916L20.6095 8.4667L17.8692 9.63336L15.1138 10.845L13.9603 12.7469C13.9603 12.7469 7.59995 16.5526 6.82531 18.3964C6.05066 20.2421 3.87678 24.3291 3.798 26.1128H3.83176Z" fill="white"/>
</mask>
<g mask="url(#mask0_346_10809)">
<path d="M42.7602 7.7802C42.6608 7.45571 40.8283 2.72156 35.7678 0.815897L23.5348 -0.0356503L21.7417 2.49836L13.5882 5.38874L10.2946 6.73358L8.88406 9.06502C8.88406 9.06502 1.16199 13.4503 1.08134 16.3763C1.00256 19.3023 0.100376 25.6233 1.08509 28.6862C2.06981 31.7473 5.27906 33.8762 5.27906 33.8762L12.0783 31.4153L15.9534 30.9445L24.7352 23.5432L27.9051 24.6067L30.0246 22.6785L34.6387 22.2152L38.1818 13.8855L40.9953 12.3287C40.9953 12.3287 43.4861 10.166 42.7584 7.77832L42.7602 7.7802Z" fill="#783E16"/>
<mask id="mask1_346_10809" style="mask-type:luminance" maskUnits="userSpaceOnUse" x="0" y="-1" width="43" height="35">
<path d="M42.7593 7.7802C42.6599 7.45571 40.8273 2.72156 35.7668 0.815897L23.5338 -0.0356503L21.7407 2.49836L13.5872 5.38874L10.2936 6.73358L8.88308 9.06502C8.88308 9.06502 1.16102 13.4503 1.08036 16.3763C1.00159 19.3023 0.0993996 25.6233 1.08412 28.6862C2.06884 31.7473 5.27808 33.8762 5.27808 33.8762L12.0773 31.4153L15.9524 30.9445L24.7342 23.5432L27.9041 24.6067L30.0236 22.6785L34.6377 22.2152L38.1808 13.8855L40.9943 12.3287C40.9943 12.3287 43.4851 10.166 42.7574 7.77832L42.7593 7.7802Z" fill="white"/>
</mask>
<g mask="url(#mask1_346_10809)">
<path d="M40.8325 2.72717L44.2705 11.7228L46.8721 8.88681L40.8325 2.72717Z" fill="#783E16"/>
<path d="M40.5211 2.41017L40.2285 2.29576L43.961 12.0604L44.2705 11.7228L40.8324 2.72716L40.5211 2.41017Z" fill="#783E16"/>
<path d="M40.2274 2.29577L39.7116 2.09132L43.6505 12.398L43.96 12.0604L40.2274 2.29577Z" fill="#783E16"/>
<path d="M39.7135 2.09131L39.1977 1.88687L43.3429 12.7338L43.6523 12.398L39.7135 2.09131Z" fill="#783E16"/>
<path d="M39.1966 1.88688L38.6808 1.68243L43.0323 13.0714L43.3418 12.7338L39.1966 1.88688Z" fill="#783E16"/>
<path d="M38.6807 1.68243L38.1649 1.47798L42.7227 13.409L43.0322 13.0714L38.6807 1.68243Z" fill="#783E16"/>
<path d="M38.1658 1.47797L37.6481 1.27352L42.4141 13.7466L42.7236 13.409L38.1658 1.47797Z" fill="#783E16"/>
<path d="M37.647 1.27354L37.1312 1.06909L42.1036 14.0824L42.4131 13.7466L37.647 1.27354Z" fill="#783E16"/>
<path d="M37.1321 1.06909L36.6163 0.864639L41.795 14.42L42.1045 14.0824L37.1321 1.06909Z" fill="#783E16"/>
<path d="M36.6162 0.864631L36.1004 0.660185L41.4854 14.7576L41.7949 14.42L36.6162 0.864631Z" fill="#783E16"/>
<path d="M36.0994 0.660196L35.5817 0.45575L41.1768 15.0952L41.4844 14.7576L36.0994 0.660196Z" fill="#783E16"/>
<path d="M35.5827 0.455739L35.0669 0.251293L40.8683 15.431L41.1777 15.0952L35.5827 0.455739Z" fill="#783E16"/>
<path d="M35.0668 0.251311L34.551 0.0487404L40.5587 15.7686L40.8682 15.431L35.0668 0.251311Z" fill="#783E16"/>
<path d="M34.5509 0.0487345L34.0351 -0.155712L40.2491 16.1062L40.5586 15.7686L34.5509 0.0487345Z" fill="#783E16"/>
<path d="M34.035 -0.155722L33.5192 -0.360168L39.9395 16.4419L40.249 16.1062L34.035 -0.155722Z" fill="#783E16"/>
<path d="M33.5201 -0.360158L33.0024 -0.564604L39.6309 16.7796L39.9404 16.442L33.5201 -0.360158Z" fill="#783E16"/>
<path d="M33.0023 -0.564608L32.4865 -0.769054L39.3214 17.1172L39.6309 16.7796L33.0023 -0.564608Z" fill="#783E16"/>
<path d="M32.4854 -0.769045L31.9696 -0.973492L39.0108 17.4548L39.3203 17.1172L32.4854 -0.769045Z" fill="#783E16"/>
<path d="M31.9695 -0.973498L31.4537 -1.17794L38.7013 17.7905L39.0107 17.4548L31.9695 -0.973498Z" fill="#783E16"/>
<path d="M31.4536 -1.17795L30.9378 -1.3824L38.3917 18.1281L38.7012 17.7905L31.4536 -1.17795Z" fill="#783E16"/>
<path d="M30.9387 -1.38239L30.4211 -1.58683L38.0831 18.4658L38.3926 18.1282L30.9387 -1.38239Z" fill="#783E16"/>
<path d="M30.421 -1.58684L29.9052 -1.79129L37.7735 18.8034L38.083 18.4658L30.421 -1.58684Z" fill="#783E16"/>
<path d="M29.9041 -1.79128L29.3883 -1.99573L37.4649 19.1391L37.7725 18.8034L29.9041 -1.79128Z" fill="#783E16"/>
<path d="M29.3883 -1.99573L28.8725 -2.20018L37.1554 19.4768L37.4648 19.1391L29.3883 -1.99573Z" fill="#783E16"/>
<path d="M28.8734 -2.20019L28.3557 -2.40463L36.8468 19.8144L37.1562 19.4767L28.8734 -2.20019Z" fill="#783E16"/>
<path d="M28.3556 -2.40463L27.8398 -2.6072L36.5372 20.1501L36.8467 19.8144L28.3556 -2.40463Z" fill="#783E16"/>
<path d="M27.8397 -2.60719L27.3239 -2.81164L36.2276 20.4877L36.5371 20.1501L27.8397 -2.60719Z" fill="#783E16"/>
<path d="M27.3238 -2.81165L26.808 -3.01609L35.9181 20.8253L36.2275 20.4877L27.3238 -2.81165Z" fill="#783E16"/>
<path d="M26.8079 -3.01608L26.2921 -3.22053L35.6085 21.163L35.918 20.8253L26.8079 -3.01608Z" fill="#783E16"/>
<path d="M26.293 -3.22053L25.7753 -3.42498L35.2999 21.4987L35.6094 21.163L26.293 -3.22053Z" fill="#783E16"/>
<path d="M25.7743 -3.42499L25.2585 -3.62944L34.9893 21.8363L35.2988 21.4987L25.7743 -3.42499Z" fill="#783E16"/>
<path d="M25.2593 -3.62942L24.7435 -3.83387L34.6808 22.174L34.9902 21.8363L25.2593 -3.62942Z" fill="#783E16"/>
<path d="M24.7434 -3.83388L24.2276 -4.03833L34.3712 22.5116L34.6807 22.1739L24.7434 -3.83388Z" fill="#783E16"/>
<path d="M24.2276 -4.03831L23.7118 -4.24276L34.0616 22.8473L34.3711 22.5116L24.2276 -4.03831Z" fill="#783E16"/>
<path d="M23.7117 -4.24276L23.194 -4.44721L33.752 23.1849L34.0615 22.8473L23.7117 -4.24276Z" fill="#783E16"/>
<path d="M23.1929 -4.44722L22.6771 -4.65167L33.4434 23.5225L33.751 23.1849L23.1929 -4.44722Z" fill="#783E16"/>
<path d="M22.6575 -4.66479L22.1398 -4.86923L33.1124 23.8451L33.4219 23.5075L22.6575 -4.66479Z" fill="#783E16"/>
<path d="M22.1622 -4.8561L21.6464 -5.06055L32.8253 24.1959L33.1348 23.8583L22.1622 -4.8561Z" fill="#783E16"/>
<path d="M21.6473 -5.06054L21.1296 -5.26499L32.5167 24.5335L32.8262 24.1959L21.6473 -5.06054Z" fill="#783E16"/>
<path d="M21.1285 -5.26499L20.6127 -5.46756L32.2061 24.8711L32.5156 24.5335L21.1285 -5.26499Z" fill="#783E16"/>
<path d="M20.6136 -5.46757L20.0978 -5.67201L31.8975 25.2069L32.207 24.8711L20.6136 -5.46757Z" fill="#783E16"/>
<path d="M20.0967 -5.67201L19.5809 -5.87646L31.587 25.5445L31.8965 25.2069L20.0967 -5.67201Z" fill="#783E16"/>
<path d="M19.5809 -5.87646L19.0801 -6.07528L19.0707 -6.0659L31.2774 25.8821L31.5869 25.5445L19.5809 -5.87646Z" fill="#783E16"/>
<path d="M18.7621 -5.72827L30.9688 26.2179L31.2783 25.8821L19.0716 -6.06589L18.7621 -5.72827Z" fill="#783E16"/>
<path d="M18.4525 -5.39066L30.6593 26.5555L30.9688 26.2179L18.762 -5.72828L18.4525 -5.39066Z" fill="#783E16"/>
<path d="M18.1429 -5.05492L30.3497 26.8931L30.6592 26.5555L18.4524 -5.39066L18.1429 -5.05492Z" fill="#783E16"/>
<path d="M17.8334 -4.71731L30.0401 27.2307L30.3496 26.8931L18.1429 -5.05493L17.8334 -4.71731Z" fill="#783E16"/>
<path d="M17.5228 -4.37968L29.7315 27.5665L30.0391 27.2307L17.8323 -4.71729L17.5228 -4.37968Z" fill="#783E16"/>
<path d="M17.2133 -4.04206L29.422 27.9041L29.7314 27.5665L17.5228 -4.37968L17.2133 -4.04206Z" fill="#783E16"/>
<path d="M16.9047 -3.70632L29.1134 28.2417L29.4229 27.9041L17.2142 -4.04206L16.9047 -3.70632Z" fill="#783E16"/>
<path d="M16.5952 -3.36872L28.8038 28.5793L29.1133 28.2417L16.9047 -3.70633L16.5952 -3.36872Z" fill="#783E16"/>
<path d="M16.2875 -3.0311L28.4942 28.915L28.8037 28.5793L16.5951 -3.36872L16.2875 -3.0311Z" fill="#783E16"/>
<path d="M15.9779 -2.69347L28.1847 29.2527L28.4941 28.9151L16.2874 -3.03108L15.9779 -2.69347Z" fill="#783E16"/>
<path d="M15.6683 -2.35773L27.8751 29.5903L28.1846 29.2527L15.9778 -2.69347L15.6683 -2.35773Z" fill="#783E16"/>
<path d="M15.3597 -2.02012L27.5665 29.926L27.876 29.5903L15.6692 -2.35774L15.3597 -2.02012Z" fill="#783E16"/>
<path d="M15.0492 -1.6825L27.2559 30.2636L27.5654 29.926L15.3587 -2.02012L15.0492 -1.6825Z" fill="#783E16"/>
<path d="M14.7396 -1.34677L26.9464 30.6012L27.2559 30.2636L15.0491 -1.68251L14.7396 -1.34677Z" fill="#783E16"/>
<path d="M14.431 -1.00913L26.6378 30.9389L26.9473 30.6013L14.7405 -1.34675L14.431 -1.00913Z" fill="#783E16"/>
<path d="M3.75472 33.4635L18.8425 39.4337L26.6377 30.9389L14.4309 -1.00914L-7.07156 22.4234L3.75472 33.4635Z" fill="#783E16"/>
</g>
<mask id="mask2_346_10809" style="mask-type:luminance" maskUnits="userSpaceOnUse" x="1" y="0" width="41" height="33">
<path d="M41.6636 8.11032C41.5717 7.80834 39.8629 3.38742 35.0763 1.63556L24.0305 0.69586L22.2487 3.14359L14.0371 6.08274L10.9235 7.37694L9.52799 9.52832C9.52799 9.52832 2.17543 13.681 2.08165 16.4213C1.98787 19.1598 1.09318 25.0831 2.0085 27.9435C2.92382 30.802 5.95487 32.7752 5.95487 32.7752L12.4184 30.4287L15.4888 30.0592L24.4713 22.9805L27.4724 23.9558L29.4943 22.1383L33.874 21.675L37.2877 13.8573L39.9661 12.3812C39.9661 12.3812 42.3426 10.3405 41.6673 8.1122L41.6636 8.11032Z" fill="white"/>
</mask>
<g mask="url(#mask2_346_10809)">
<path d="M39.8688 3.39117L43.0705 11.7904L45.5576 9.11942L39.8688 3.39117Z" fill="#C6C6C6"/>
<path d="M39.575 3.0967L39.2974 2.98979L42.7749 12.1073L43.0693 11.7904L39.8676 3.39118L39.575 3.0967Z" fill="#C6C6C6"/>
<path d="M39.2979 2.98979L38.8103 2.80223L42.479 12.4243L42.7754 12.1073L39.2979 2.98979Z" fill="#C7C7C7"/>
<path d="M38.8107 2.80223L38.3212 2.61467L42.185 12.7432L42.4795 12.4243L38.8107 2.80223Z" fill="#C8C8C8"/>
<path d="M38.3207 2.61467L37.8331 2.4271L41.8882 13.0602L42.1846 12.7432L38.3207 2.61467Z" fill="#C9C9C9"/>
<path d="M37.8325 2.42709L37.3449 2.23952L41.5932 13.3772L41.8877 13.0602L37.8325 2.42709Z" fill="#CACACA"/>
<path d="M37.3454 2.23952L36.8558 2.05008L41.2974 13.6941L41.5938 13.3771L37.3454 2.23952Z" fill="#CBCBCB"/>
<path d="M36.8563 2.05008L36.3686 1.86252L41.0034 14.013L41.2979 13.6941" fill="#CCCCCC"/>
<path d="M36.3682 1.86252L35.8805 1.67495L40.7066 14.33L41.0029 14.013L36.3682 1.86252Z" fill="#CDCDCD"/>
<path d="M35.881 1.67496L35.3914 1.48739L40.4126 14.647L40.707 14.33L35.881 1.67496Z" fill="#CECECE"/>
<path d="M35.391 1.48739L34.9033 1.29795L40.1158 14.9658L40.4121 14.647L35.391 1.48739Z" fill="#CFCFCF"/>
<path d="M34.9038 1.29795L34.4161 1.11038L39.8199 15.2828L40.1162 14.9658L34.9038 1.29795Z" fill="#D0D0D0"/>
<path d="M34.4166 1.11037L33.927 0.922806L39.5258 15.5998L39.8203 15.2828L34.4166 1.11037Z" fill="#D1D1D1"/>
<path d="M33.9256 0.922808L33.4379 0.735243L39.2281 15.9168L39.5244 15.5998L33.9256 0.922808Z" fill="#D2D2D2"/>
<path d="M33.4393 0.735245L32.9517 0.54768L38.935 16.2356L39.2295 15.9168L33.4393 0.735245Z" fill="#D3D3D3"/>
<path d="M32.9512 0.547683L32.4617 0.358242L38.6382 16.5526L38.9346 16.2357L32.9512 0.547683Z" fill="#D4D4D4"/>
<path d="M32.4612 0.358246L31.9735 0.170681L38.3432 16.8696L38.6377 16.5526L32.4612 0.358246Z" fill="#D5D5D5"/>
<path d="M31.974 0.170683L31.4864 -0.0168819L38.0474 17.1866L38.3438 16.8696L31.974 0.170683Z" fill="#D6D6D6"/>
<path d="M31.4868 -0.0168757L30.9973 -0.204441L37.7534 17.5055L38.0479 17.1866L31.4868 -0.0168757Z" fill="#D7D7D7"/>
<path d="M30.9968 -0.204439L30.5092 -0.392004L37.4566 17.8225L37.7529 17.5055L30.9968 -0.204439Z" fill="#D8D8D8"/>
<path d="M30.5086 -0.392011L30.021 -0.581451L37.1616 18.1394L37.4561 17.8225L30.5086 -0.392011Z" fill="#D9D9D9"/>
<path d="M30.0215 -0.581464L29.532 -0.76903L36.8658 18.4564L37.1621 18.1394L30.0215 -0.581464Z" fill="#DADADA"/>
<path d="M29.5324 -0.769029L29.0447 -0.956594L36.5699 18.7753L36.8662 18.4564L29.5324 -0.769029Z" fill="#DBDBDB"/>
<path d="M29.0442 -0.956588L28.5565 -1.14415L36.2749 19.0923L36.5693 18.7753L29.0442 -0.956588Z" fill="#DCDCDC"/>
<path d="M28.5561 -1.14416L28.0666 -1.3336L35.9781 19.4093L36.2744 19.0923L28.5561 -1.14416Z" fill="#DDDDDD"/>
<path d="M28.067 -1.33359L27.5793 -1.52116L35.684 19.7281L35.9785 19.4093L28.067 -1.33359Z" fill="#DEDEDE"/>
<path d="M27.5789 -1.52116L27.0912 -1.70872L35.3872 20.0451L35.6836 19.7281L27.5789 -1.52116Z" fill="#DFDFDF"/>
<path d="M27.0917 -1.70873L26.6021 -1.8963L35.0932 20.3621L35.3877 20.0451L27.0917 -1.70873Z" fill="#E0E0E0"/>
<path d="M26.6017 -1.8963L26.114 -2.08387L34.7964 20.6791L35.0928 20.3621L26.6017 -1.8963Z" fill="#E1E1E1"/>
<path d="M26.1145 -2.08386L25.6268 -2.2733L34.5024 20.9979L34.7969 20.6791L26.1145 -2.08386Z" fill="#E3E3E3"/>
<path d="M25.6273 -2.2733L25.1378 -2.46086L34.2066 21.3149L34.5029 20.9979L25.6273 -2.2733Z" fill="#E4E4E4"/>
<path d="M25.1373 -2.46086L24.6496 -2.64843L33.9097 21.6319L34.2061 21.3149L25.1373 -2.46086Z" fill="#E5E5E5"/>
<path d="M24.6501 -2.64843L24.1624 -2.83599L33.6157 21.9489L33.9102 21.6319L24.6501 -2.64843Z" fill="#E6E6E6"/>
<path d="M24.1619 -2.83599L23.6724 -3.02543L33.3189 22.2678L33.6152 21.9489L24.1619 -2.83599Z" fill="#E7E7E7"/>
<path d="M23.6719 -3.02543L23.1842 -3.21299L33.0239 22.5848L33.3184 22.2678L23.6719 -3.02543Z" fill="#E8E8E8"/>
<path d="M23.1838 -3.21299L22.6961 -3.40056L32.7271 22.9017L33.0234 22.5848L23.1838 -3.21299Z" fill="#E9E9E9"/>
<path d="M22.6975 -3.40057L22.208 -3.58814L32.434 23.2206L32.7285 22.9017L22.6975 -3.40057Z" fill="#EAEAEA"/>
<path d="M22.2075 -3.58813L21.7199 -3.7757L32.1372 23.5376L32.4336 23.2206L22.2075 -3.58813Z" fill="#EBEBEB"/>
<path d="M21.7193 -3.7757L21.2298 -3.96514L31.8422 23.8546L32.1367 23.5376L21.7193 -3.7757Z" fill="#ECECEC"/>
<path d="M21.2303 -3.96514L20.7427 -4.1527L31.5464 24.1715L31.8428 23.8546L21.2303 -3.96514Z" fill="#EDEDED"/>
<path d="M20.7421 -4.1527L20.2545 -4.34026L31.2514 24.4904L31.5459 24.1715L20.7421 -4.1527Z" fill="#EEEEEE"/>
<path d="M20.255 -4.34026L19.7654 -4.52782L30.9556 24.8074L31.252 24.4904L20.255 -4.34026Z" fill="#EFEFEF"/>
<path d="M19.7649 -4.52783L19.2923 -4.71165L19.2829 -4.70227L30.6587 25.1244L30.9551 24.8074L19.7649 -4.52783Z" fill="#F0F0F0"/>
<path d="M18.9879 -4.38342L30.3637 25.4414L30.6582 25.1244L19.2824 -4.70228L18.9879 -4.38342Z" fill="#F1F1F1"/>
<path d="M18.693 -4.06643L30.0689 25.7602L30.3652 25.4414L18.9894 -4.38342L18.693 -4.06643Z" fill="#F2F2F2"/>
<path d="M18.398 -3.74943L29.7739 26.0772L30.0684 25.7602L18.6925 -4.06642L18.398 -3.74943Z" fill="#F3F3F3"/>
<path d="M18.1003 -3.43245L29.4761 26.3942L29.7725 26.0772L18.3966 -3.74944L18.1003 -3.43245Z" fill="#F4F4F4"/>
<path d="M17.8063 -3.1136L29.184 26.7112L29.4785 26.3942L18.1027 -3.43246L17.8063 -3.1136Z" fill="#F5F5F5"/>
<path d="M17.5104 -2.79662L28.8863 27.03L29.1826 26.7112L17.8049 -3.1136L17.5104 -2.79662Z" fill="#F6F6F6"/>
<path d="M17.2135 -2.47962L28.5913 27.347L28.8857 27.03L17.5099 -2.7966L17.2135 -2.47962Z" fill="#F7F7F7"/>
<path d="M16.9196 -2.16076L28.2954 27.664L28.5918 27.347L17.2141 -2.47962L16.9196 -2.16076Z" fill="#F8F8F8"/>
<path d="M16.6237 -1.84378L27.9995 27.9829L28.2959 27.664L16.9201 -2.16076L16.6237 -1.84378Z" fill="#F9F9F9"/>
<path d="M16.3287 -1.5268L27.7045 28.2999L27.999 27.9829L16.6232 -1.84378L16.3287 -1.5268Z" fill="#FAFAFA"/>
<path d="M16.0329 -1.2098L27.4087 28.6169L27.7051 28.2999L16.3292 -1.52678L16.0329 -1.2098Z" fill="#FBFBFB"/>
<path d="M15.7379 -0.890938L27.1137 28.9338L27.4082 28.6168L16.0324 -1.2098L15.7379 -0.890938Z" fill="#FCFCFC"/>
<path d="M15.4421 -0.573954L26.8179 29.2527L27.1143 28.9338L15.7384 -0.89094L15.4421 -0.573954Z" fill="#FDFDFD"/>
<path d="M15.1462 -0.256976L26.5239 29.5697L26.8184 29.2527L15.4425 -0.573961L15.1462 -0.256976Z" fill="#FEFEFE"/>
<path d="M14.8503 0.0600215L26.2261 29.8867L26.5225 29.5697L15.1447 -0.256964L14.8503 0.0600215Z" fill="white"/>
<path d="M4.50649 32.3944L18.7783 37.8882L26.2266 29.8867L14.8507 0.0600128L-5.69144 22.1308L4.50649 32.3944Z" fill="white"/>
</g>
<path d="M3.73973 26.201C3.82038 24.4173 5.99239 20.3302 6.76703 18.4846C7.54168 16.6389 13.902 12.8351 13.902 12.8351L15.0555 10.9332L17.8109 9.7215L20.5512 8.55485L20.8494 8.4273L21.1477 8.29976L21.4459 8.17221L21.7441 8.04467L22.0424 7.91712L22.3406 7.78958L22.6388 7.66203L22.937 7.53449L23.2353 7.40695L23.5335 7.2794L23.8317 7.15186L24.13 7.02431L24.4282 6.89677L24.7058 6.7786L24.7245 6.75985L25.019 6.47099L25.3135 6.18214L25.608 5.89329L25.9024 5.60444L26.1969 5.31559L26.4914 5.02674L26.6246 4.89545L26.7878 4.87669L27.0879 4.84105L27.388 4.80541L27.6881 4.76978L27.9882 4.73414L28.2883 4.6985L28.5884 4.66286L28.8885 4.62723L29.1886 4.59159L29.4887 4.55595L29.7888 4.52032L30.0889 4.48468L30.389 4.44904L30.6891 4.4134L30.9892 4.37777L31.2893 4.34213L31.5894 4.30649L31.8895 4.27085L32.1896 4.23522L32.4897 4.19958L32.7899 4.16394L33.09 4.1283L33.3901 4.09267L33.6902 4.05703L33.9903 4.02139L34.2904 3.98575L34.3223 3.982C34.4142 3.99701 34.5042 4.01576 34.5924 4.03452C34.6974 4.0589 34.7987 4.08516 34.8962 4.11517C35.0012 4.14706 35.1025 4.1827 35.2001 4.22021C35.307 4.26147 35.4083 4.30461 35.5039 4.35338C35.6127 4.40778 35.714 4.46405 35.8097 4.52594C35.9184 4.59534 36.0216 4.66662 36.1173 4.74352C36.2298 4.83355 36.333 4.92733 36.4267 5.02487C36.543 5.14678 36.6481 5.27245 36.7381 5.40187C36.8656 5.58381 36.9707 5.7695 37.0532 5.95144C37.3796 6.66231 37.3965 7.30566 37.3908 7.39382C37.3721 7.67329 37.2689 7.96401 37.1151 8.25099C37.0307 8.40667 36.9332 8.56047 36.8263 8.71053C36.7344 8.83807 36.6368 8.96374 36.5355 9.08566C36.4399 9.20007 36.3423 9.30886 36.2429 9.4139C36.1435 9.51893 36.046 9.61834 35.9503 9.714C35.8472 9.81341 35.7496 9.90719 35.6558 9.9916C35.5471 10.091 35.4477 10.1773 35.3614 10.2504C35.1832 10.4024 35.0669 10.4886 35.0669 10.4886L34.7705 10.6631L34.4742 10.8375L34.1778 11.012L33.8815 11.1864L33.5851 11.3608L33.2888 11.5353L32.9924 11.7097L32.7617 11.8466L32.6979 11.9291L32.4072 12.3005L32.1165 12.6719L31.8258 13.0433L31.535 13.4147L31.2443 13.786L30.9536 14.1574L30.6629 14.5288L30.3721 14.9002L30.0814 15.2716L29.7907 15.6429L29.5 16.0143L29.2092 16.3857L28.9185 16.7571L28.6278 17.1285L28.337 17.4998L28.2995 17.5486L28.0388 17.6218L27.7406 17.7062L27.4424 17.7906L27.1441 17.875L26.8459 17.9594L26.5477 18.0438L26.2494 18.1282L25.9512 18.2126L25.653 18.297L25.3548 18.3814L25.0565 18.4658L25.0378 18.4714L24.7621 18.6871L24.4676 18.9178L24.1731 19.1485L23.8786 19.3792L23.5841 19.61L23.2897 19.8407L23.1171 19.9757L22.9914 19.9607L22.6895 19.9232L22.3875 19.8857L22.0855 19.8482L21.7835 19.8106L21.4815 19.7731L21.2114 19.7394L21.1796 19.7638L20.8851 19.9851L13.3843 25.582L10.6196 26.4073L5.36404 28.8794C5.36404 28.8794 3.69284 27.9829 3.77349 26.1991L3.73973 26.201Z" fill="url(#paint2_linear_346_10809)"/>
<path d="M3.73973 26.201C3.82038 24.4173 5.99239 20.3302 6.76703 18.4846C7.54168 16.6389 13.902 12.8351 13.902 12.8351L15.0555 10.9332L17.8109 9.7215L20.5512 8.55485L20.8494 8.4273L21.1477 8.29976L21.4459 8.17221L21.7441 8.04467L22.0424 7.91712L22.3406 7.78958L22.6388 7.66203L22.937 7.53449L23.2353 7.40695L23.5335 7.2794L23.8317 7.15186L24.13 7.02431L24.4282 6.89677L24.7058 6.7786L24.7245 6.75985L25.019 6.47099L25.3135 6.18214L25.608 5.89329L25.9024 5.60444L26.1969 5.31559L26.4914 5.02674L26.6246 4.89545L26.7878 4.87669L27.0879 4.84105L27.388 4.80541L27.6881 4.76978L27.9882 4.73414L28.2883 4.6985L28.5884 4.66286L28.8885 4.62723L29.1886 4.59159L29.4887 4.55595L29.7888 4.52032L30.0889 4.48468L30.389 4.44904L30.6891 4.4134L30.9892 4.37777L31.2893 4.34213L31.5894 4.30649L31.8895 4.27085L32.1896 4.23522L32.4897 4.19958L32.7899 4.16394L33.09 4.1283L33.3901 4.09267L33.6902 4.05703L33.9903 4.02139L34.2904 3.98575L34.3223 3.982C34.4142 3.99701 34.5042 4.01576 34.5924 4.03452C34.6974 4.0589 34.7987 4.08516 34.8962 4.11517C35.0012 4.14706 35.1025 4.1827 35.2001 4.22021C35.307 4.26147 35.4083 4.30461 35.5039 4.35338C35.6127 4.40778 35.714 4.46405 35.8097 4.52594C35.9184 4.59534 36.0216 4.66662 36.1173 4.74352C36.2298 4.83355 36.333 4.92733 36.4267 5.02487C36.543 5.14678 36.6481 5.27245 36.7381 5.40187C36.8656 5.58381 36.9707 5.7695 37.0532 5.95144C37.3796 6.66231 37.3965 7.30566 37.3908 7.39382C37.3721 7.67329 37.2689 7.96401 37.1151 8.25099C37.0307 8.40667 36.9332 8.56047 36.8263 8.71053C36.7344 8.83807 36.6368 8.96374 36.5355 9.08566C36.4399 9.20007 36.3423 9.30886 36.2429 9.4139C36.1435 9.51893 36.046 9.61834 35.9503 9.714C35.8472 9.81341 35.7496 9.90719 35.6558 9.9916C35.5471 10.091 35.4477 10.1773 35.3614 10.2504C35.1832 10.4024 35.0669 10.4886 35.0669 10.4886L34.7705 10.6631L34.4742 10.8375L34.1778 11.012L33.8815 11.1864L33.5851 11.3608L33.2888 11.5353L32.9924 11.7097L32.7617 11.8466L32.6979 11.9291L32.4072 12.3005L32.1165 12.6719L31.8258 13.0433L31.535 13.4147L31.2443 13.786L30.9536 14.1574L30.6629 14.5288L30.3721 14.9002L30.0814 15.2716L29.7907 15.6429L29.5 16.0143L29.2092 16.3857L28.9185 16.7571L28.6278 17.1285L28.337 17.4998L28.2995 17.5486L28.0388 17.6218L27.7406 17.7062L27.4424 17.7906L27.1441 17.875L26.8459 17.9594L26.5477 18.0438L26.2494 18.1282L25.9512 18.2126L25.653 18.297L25.3548 18.3814L25.0565 18.4658L25.0378 18.4714L24.7621 18.6871L24.4676 18.9178L24.1731 19.1485L23.8786 19.3792L23.5841 19.61L23.2897 19.8407L23.1171 19.9757L22.9914 19.9607L22.6895 19.9232L22.3875 19.8857L22.0855 19.8482L21.7835 19.8106L21.4815 19.7731L21.2114 19.7394L21.1796 19.7638L20.8851 19.9851L13.3843 25.582L10.6196 26.4073L5.36404 28.8794C5.36404 28.8794 3.69283 27.9829 3.77349 26.1991L3.73973 26.201Z" stroke="url(#paint3_linear_346_10809)" stroke-width="0.35" stroke-miterlimit="10"/>
<path style="mix-blend-mode:overlay" opacity="0.21" d="M32.3807 11.5446C32.4988 11.6103 43.0869 16.2319 43.0869 16.2319C43.0869 16.2319 35.0591 22.3765 34.9334 22.3428C34.8059 22.309 27.1983 16.637 27.1983 16.637L32.3807 11.5446Z" fill="url(#paint4_linear_346_10809)"/>
<path style="mix-blend-mode:multiply" opacity="0.24" d="M34.9316 22.3409C34.8772 22.2921 27.1964 16.6352 27.1964 16.6352L24.2854 17.8731L30.7658 23.1906L34.9298 22.339L34.9316 22.3409Z" fill="url(#paint5_linear_346_10809)"/>
<path style="mix-blend-mode:overlay" opacity="0.21" d="M30.4365 22.9017L23.4966 17.2054L23.0802 19.7075L28.7447 25.1638C28.7447 25.1638 30.3652 22.9167 30.4365 22.9036V22.9017Z" fill="url(#paint6_linear_346_10809)"/>
<path style="mix-blend-mode:multiply" opacity="0.24" d="M28.7451 25.1619L21.4469 18.402L20.8486 19.4299L25.5621 24.1228L28.7451 25.1619Z" fill="url(#paint7_linear_346_10809)"/>
<path style="mix-blend-mode:overlay" opacity="0.21" d="M25.5645 24.2409L19.7312 18.282L13.1514 25.357L16.959 33.0471L25.5645 24.2409Z" fill="url(#paint8_linear_346_10809)"/>
<path style="mix-blend-mode:multiply" opacity="0.24" d="M16.959 33.0471L12.6637 23.5638L10.0416 25.5595L13.6616 33.1972L16.959 33.0471Z" fill="url(#paint9_linear_346_10809)"/>
<path style="mix-blend-mode:overlay" opacity="0.21" d="M12.9248 31.6423L9.59552 24.5054L5.36029 28.5287L6.37314 35.5699L12.9248 31.6423Z" fill="url(#paint10_linear_346_10809)"/>
<path style="mix-blend-mode:multiply" opacity="0.24" d="M5.95639 32.9477L5.05983 26.7356C5.05983 26.7356 7.42316 17.9856 7.37626 17.9725C7.32937 17.9594 -1.21423 14.8889 -1.21423 14.8889L-1.12607 30.2524L5.95639 32.9496V32.9477Z" fill="url(#paint11_linear_346_10809)"/>
<path style="mix-blend-mode:overlay" opacity="0.21" d="M7.5508 18.0194L-1.49736 14.7445L8.83187 8.87748L14.4551 13.2196L7.5508 18.0194Z" fill="url(#paint12_linear_346_10809)"/>
<path style="mix-blend-mode:multiply" opacity="0.24" d="M8.70918 8.82681L15.6416 14.2324L15.3134 11.0907L8.5929 5.40187L8.70918 8.82681Z" fill="url(#paint13_linear_346_10809)"/>
<path style="mix-blend-mode:overlay" opacity="0.21" d="M15.4376 11.0738L7.94623 4.83918L21.6723 2.31079L25.0391 7.47259L15.4376 11.0738Z" fill="url(#paint14_linear_346_10809)"/>
<path style="mix-blend-mode:multiply" opacity="0.24" d="M21.6725 2.31081L23.5632 -0.0168781L27.1738 5.83891L25.0393 7.47261L21.6725 2.31081Z" fill="url(#paint15_linear_346_10809)"/>
<path style="mix-blend-mode:overlay" opacity="0.21" d="M26.68 4.98173L23.0619 -0.806538L35.8857 0.641467L34.1564 4.30649L26.68 4.98173Z" fill="url(#paint16_linear_346_10809)"/>
<path style="mix-blend-mode:overlay" opacity="0.67" d="M32.3807 11.5446C32.4988 11.6103 43.0869 16.2319 43.0869 16.2319C43.0869 16.2319 35.0591 22.3765 34.9334 22.3428C34.8059 22.309 27.1983 16.637 27.1983 16.637L32.3807 11.5446Z" fill="url(#paint17_linear_346_10809)"/>
<path style="mix-blend-mode:overlay" opacity="0.67" d="M30.4365 22.9017L23.4966 17.2054L23.0802 19.7075L28.7447 25.1638C28.7447 25.1638 30.3652 22.9167 30.4365 22.9036V22.9017Z" fill="url(#paint18_linear_346_10809)"/>
<path style="mix-blend-mode:overlay" opacity="0.67" d="M25.5645 24.2409L19.7312 18.282L13.1514 25.357L16.959 33.0471L25.5645 24.2409Z" fill="url(#paint19_linear_346_10809)"/>
<path style="mix-blend-mode:overlay" opacity="0.67" d="M12.9248 31.6423L9.59552 24.5054L5.36029 28.5287L6.37314 35.5699L12.9248 31.6423Z" fill="url(#paint20_linear_346_10809)"/>
<path style="mix-blend-mode:overlay" opacity="0.67" d="M7.5508 18.0194L-1.49736 14.7445L8.83187 8.87748L14.4551 13.2196L7.5508 18.0194Z" fill="url(#paint21_linear_346_10809)"/>
<path style="mix-blend-mode:overlay" opacity="0.67" d="M15.4376 11.0738L7.94623 4.83918L21.6723 2.31079L25.0391 7.47259L15.4376 11.0738Z" fill="url(#paint22_linear_346_10809)"/>
<path style="mix-blend-mode:overlay" opacity="0.67" d="M26.68 4.98173L23.0619 -0.806538L35.8857 0.641467L34.1564 4.30649L26.68 4.98173Z" fill="url(#paint23_linear_346_10809)"/>
</g>
<path d="M14.0368 12.7563L15.1903 10.8544L17.9456 9.64273L20.686 8.47607L20.9842 8.34853L21.2824 8.22098L21.5807 8.09344L21.8789 7.96589L22.1771 7.83835L22.4753 7.71081L22.7736 7.58326L23.0718 7.45572L23.37 7.32817L23.6683 7.20063L23.9665 7.07308L24.2647 6.94554L24.563 6.81799L24.8405 6.69983L24.8593 6.68107L25.1538 6.39222L25.4483 6.10337L25.7427 5.81452L26.0372 5.52567L26.3317 5.23682L26.6262 4.94797L26.7593 4.81667L26.9225 4.79792L27.2226 4.76228L27.5227 4.72664L27.8228 4.691L28.1229 4.65537L28.423 4.61973L28.7232 4.58409L29.0233 4.54845L29.3234 4.51282L29.6235 4.47718L29.9236 4.44154L30.2237 4.4059L30.5238 4.37027L30.8239 4.33463L31.124 4.29899L31.4241 4.26335L31.7242 4.22772L32.0243 4.19208L32.3244 4.15644L32.6245 4.1208L32.9246 4.08517L33.2247 4.04953L33.5248 4.01389L33.8249 3.97825L34.125 3.94262L34.4251 3.90698L34.457 3.90323C34.5489 3.91823 34.639 3.93699 34.7271 3.95575C34.8322 3.98013 34.9334 4.00639 35.031 4.0364C35.136 4.06829 35.2373 4.10392 35.3348 4.14144C35.4417 4.1827 35.543 4.22584 35.6387 4.27461C35.7475 4.329 35.8488 4.38527 35.9444 4.44717C36.0532 4.51657 36.1564 4.58784 36.252 4.66474C36.3646 4.75478 36.4677 4.84856 36.5615 4.94609C36.6778 5.06801 36.7828 5.19368 36.8729 5.3231C37.0004 5.50504 37.1054 5.69073 37.188 5.87267C37.5143 6.58354 37.5312 7.22689 37.5256 7.31504C37.5068 7.59452 37.4037 7.88524 37.2499 8.17222C37.1655 8.3279 37.0679 8.4817 36.961 8.63175C36.8691 8.7593 36.7716 8.88497 36.6703 9.00688C36.5746 9.1213 36.4771 9.23009 36.3777 9.33512C36.2783 9.44016 36.1808 9.54144 36.0851 9.63523C35.9819 9.73464 35.8844 9.82842 35.7906 9.91282C35.6818 10.0122 35.5824 10.0985 35.4961 10.1717C35.318 10.3236 35.2017 10.4099 35.2017 10.4099L34.9053 10.5843L34.609 10.7587L34.3126 10.9332L34.0162 11.1076L33.7199 11.2821L33.4235 11.4565L33.1272 11.6309L32.8965 11.7678L32.8327 11.8504L32.542 12.2218L32.2513 12.5931L31.9605 12.9645L31.6698 13.3359L31.3791 13.7073L31.0884 14.0786L30.7976 14.45L30.5069 14.8214L30.2162 15.1928L29.9254 15.5642L29.6347 15.9355L29.344 16.3069L29.0533 16.6783L28.7625 17.0497L28.4718 17.4211L28.4343 17.4698L28.1736 17.543L27.8754 17.6274L27.5771 17.7118L27.2789 17.7962L26.9807 17.8806L26.6824 17.965L26.3842 18.0494L26.086 18.1338L25.7878 18.2182L25.4895 18.3026L25.1913 18.387L25.1725 18.3927L24.8968 18.6084L24.6023 18.8391L24.3079 19.0698L24.0134 19.3005L23.7189 19.5312L23.4244 19.7619L23.2519 19.8969L23.1262 19.8819L22.8242 19.8444L22.5222 19.8069L22.2203 19.7694L21.9183 19.7319L21.6163 19.6944L21.3462 19.6606L21.3143 19.685L21.0198 19.9063L13.5191 25.5033L10.7544 26.3285L5.49881 28.8007C5.49881 28.8007 3.8276 27.9041 3.90825 26.1203C3.98891 24.3366 6.16091 20.2495 6.93556 18.4039C7.7102 16.5583 14.0705 12.7526 14.0705 12.7526L14.0368 12.7563Z" fill="url(#paint24_linear_346_10809)"/>
<path d="M14.0463 12.762L15.1998 10.86L17.9533 9.64649L20.6917 8.47983L20.99 8.35229L21.2882 8.22474L21.5864 8.0972L21.8846 7.96966L22.1829 7.84211L22.4811 7.71457L22.7793 7.58702L23.0776 7.45948L23.3758 7.33193L23.674 7.20439L23.9722 7.07685L24.2705 6.9493L24.5687 6.82176L24.8463 6.70359L24.8651 6.68483L25.1577 6.39598L25.4503 6.10713L25.7429 5.81828L26.0355 5.52943L26.3281 5.24058L26.6207 4.95173L26.7538 4.82043L26.917 4.80168L27.2171 4.76604L27.5172 4.7304L27.8173 4.69476L28.1174 4.65913L28.4175 4.62349L28.7177 4.58785L29.0178 4.55221L29.3179 4.51658L29.618 4.48094L29.9181 4.4453L30.2182 4.40967L30.5183 4.37403L30.8184 4.33839L31.1185 4.30275L31.4186 4.26712L31.7187 4.23148L32.0188 4.19584L32.3189 4.1602L32.619 4.12457L32.9191 4.08893L33.2192 4.05329L33.5193 4.01765L33.8194 3.98202L34.1195 3.94638L34.4196 3.91074L34.4515 3.90699C34.5434 3.922 34.6335 3.94075 34.7216 3.95951C34.8267 3.98389 34.9279 4.01015 35.0255 4.04016C35.1305 4.07205 35.2318 4.10769 35.3293 4.1452C35.4362 4.18646 35.5375 4.2296 35.6332 4.27837C35.742 4.33276 35.8433 4.38903 35.9389 4.45093C36.0477 4.52033 36.1509 4.5916 36.2465 4.66851C36.3591 4.75854 36.4622 4.85232 36.5541 4.94985C36.6704 5.07177 36.7755 5.19744 36.8655 5.32686C36.993 5.5088 37.0981 5.69449 37.1806 5.87643C37.507 6.5873 37.5238 7.23065 37.5163 7.3188C37.4976 7.59828 37.3944 7.889 37.2406 8.17598C37.1562 8.33166 37.0587 8.48546 36.9518 8.63551C36.8599 8.76306 36.7623 8.88873 36.661 9.01064C36.5654 9.12506 36.4679 9.23385 36.3684 9.33888C36.269 9.44392 36.1715 9.54521 36.0758 9.63899C35.9727 9.7384 35.8751 9.83218 35.7814 9.91659C35.6726 10.016 35.5732 10.1023 35.4869 10.1754C35.3087 10.3274 35.1924 10.4136 35.1924 10.4136L34.8961 10.5899L34.5997 10.7644L34.3033 10.9388L34.007 11.1133L33.7106 11.2877L33.4143 11.4621L33.1179 11.6366L32.8872 11.7735L32.8235 11.856L32.5327 12.2274L32.242 12.5988L31.9513 12.9701L31.6606 13.3415L31.3698 13.7129L31.0791 14.0843L30.7884 14.4557L30.4976 14.827L30.2069 15.1984L29.9162 15.5698L29.6255 15.9412L29.3347 16.3126L29.044 16.6839L28.7533 17.0553L28.4626 17.4267L28.425 17.4755L28.1643 17.5486L27.8661 17.633L27.5679 17.7174L27.2696 17.8018L26.9714 17.8862L26.6732 17.9706L26.375 18.055L26.0767 18.1395L25.7785 18.2239L25.4803 18.3083L25.182 18.3927L25.1633 18.3983L24.8876 18.614L24.5931 18.8447L24.2986 19.0754L24.0041 19.3061L23.7097 19.5368L23.4152 19.7675L23.2426 19.9026L23.1169 19.8876L22.815 19.85L22.513 19.8125L22.211 19.775L21.909 19.7375L21.607 19.7L21.337 19.6662L21.3051 19.6906L21.0106 19.9119L13.5117 25.5108L10.747 26.3361L5.49331 28.81C5.49331 28.81 3.82397 27.9135 3.90463 26.1297C3.98528 24.3441 6.15729 20.2571 6.93193 18.4114C7.70658 16.5658 14.065 12.7582 14.065 12.7582L14.0463 12.762Z" stroke="url(#paint25_linear_346_10809)" stroke-width="0.35" stroke-miterlimit="10"/>
<g opacity="0.59">
<path d="M41.0106 35.0129C40.1703 33.3529 39.6545 31.4848 39.8608 29.641C40.1122 27.394 41.3876 25.4095 42.2373 23.3107C43.8822 19.2555 43.9179 14.5832 42.3348 10.5018" stroke="#72391E" stroke-width="0.68" stroke-miterlimit="10"/>
<path d="M39.1004 38.8842C39.7062 37.922 39.2317 36.6859 38.9316 35.5906C38.3426 33.4467 38.4964 31.1696 38.8716 28.9789C39.2467 26.7881 39.8375 24.6367 40.117 22.4328C40.3158 20.8686 40.3571 19.2761 40.751 17.7475" stroke="#72391E" stroke-width="0.68" stroke-miterlimit="10"/>
<path d="M37.5178 40.6473C37.0564 39.5482 37.1614 38.6723 37.1689 37.4831C37.197 32.9103 38.5944 28.4424 38.8139 23.8752C38.9414 21.2399 38.6732 18.584 38.0204 16.0256" stroke="#72391E" stroke-width="0.68" stroke-miterlimit="10"/>
<path d="M38.4404 38.8861C35.3456 33.9906 34.933 27.5346 37.3807 22.294" stroke="#72391E" stroke-width="0.68" stroke-miterlimit="10"/>
<path d="M38.1123 39.7357C35.884 37.9539 34.3497 35.3392 33.8883 32.537C33.7477 31.6817 33.7026 30.8133 33.6951 29.9467C33.667 26.8763 33.6332 27.0244 34.0534 23.9821" stroke="#72391E" stroke-width="0.68" stroke-miterlimit="10"/>
<path d="M46.7493 18.9779C47.0963 22.1234 45.9972 22.039 45.7383 23.5601C45.472 25.13 45.4814 26.8106 44.658 28.1761C44.2697 28.8195 43.7183 29.3484 43.2625 29.9467C42.4428 31.0233 41.9401 32.3325 41.8295 33.6755C41.8895 33.0453 41.9852 32.6064 42.2984 32.0268C42.8348 31.0327 44.0896 30.6295 44.4967 29.4347C44.6373 29.022 44.6711 28.5831 44.703 28.148C44.9843 24.4098 45.2638 20.6716 45.5451 16.9334" stroke="#72391E" stroke-width="0.68" stroke-miterlimit="10"/>
<path d="M44.5068 16.9709C44.2592 19.3962 44.0004 21.8701 43.0044 24.0984C42.4305 25.3851 41.609 26.5987 41.4158 27.9923C41.3051 28.7969 41.4101 29.6222 41.2695 30.4231C41.1269 31.224 40.6374 32.0531 39.8365 32.2256" stroke="#72391E" stroke-width="0.68" stroke-miterlimit="10"/>
<path d="M32.2021 43.3126C32.0784 41.9396 31.3431 40.6323 30.229 39.8051C29.1505 39.0061 27.7587 38.6497 26.7984 37.7119C26.005 36.9373 25.5998 35.84 25.4667 34.7465C25.296 33.3435 25.5661 31.9424 25.5154 30.5394" stroke="#72391E" stroke-width="0.68" stroke-miterlimit="10"/>
<path d="M29.6135 44.0873C28.912 42.3204 29.094 40.3228 29.5891 38.4866C30.0824 36.6522 30.8702 34.906 31.3748 33.0734C32.035 30.6764 32.1963 28.1461 31.8493 25.6852" stroke="#72391E" stroke-width="0.68" stroke-miterlimit="10"/>
<path d="M31.6357 43.6502C29.0886 38.8204 29.263 33.8312 27.77 28.5869C27.6237 28.0729 27.288 27.4446 26.7572 27.5346" stroke="#72391E" stroke-width="0.68" stroke-miterlimit="10"/>
<path d="M30.7383 43.8753C29.6354 42.9563 29.1684 42.086 27.9511 41.2288C26.323 40.0828 24.2729 39.5088 22.9168 38.0552C22.4085 37.5112 22.0221 36.866 21.6826 36.2058C21.18 35.2304 20.7729 34.0413 21.285 33.0716" stroke="#72391E" stroke-width="0.68" stroke-miterlimit="10"/>
<path d="M29.4297 44.4568C27.9798 43.187 26.1979 42.3523 24.6505 41.2006C21.0943 38.5503 19.0236 34.4314 17.0766 30.4644" stroke="#72391E" stroke-width="0.68" stroke-miterlimit="10"/>
<path d="M16.1233 32.4413C16.0877 33.8631 16.8736 35.1723 17.7232 36.3202C20.3679 39.8952 23.9166 42.8062 27.9512 44.7156C25.9292 43.7365 23.3258 43.7496 21.242 42.9056C17.5057 41.3882 14.469 38.2634 13.0772 34.5083" stroke="#72391E" stroke-width="0.68" stroke-miterlimit="10"/>
<path d="M23.7109 44.5693C21.4883 44.4174 18.898 43.9916 16.9473 42.9262C13.8094 41.21 10.5757 39.3194 8.67382 36.3089C8.31557 35.7425 8.01172 34.996 8.37747 34.4333" stroke="#72391E" stroke-width="0.68" stroke-miterlimit="10"/>
<path d="M26.4082 44.7737C24.8158 44.815 23.5028 44.7512 22.1655 44.6087C20.6481 44.4455 19.472 44.1529 17.994 43.774C16.2384 43.3239 14.6028 42.5774 13.3574 41.9152C12.2245 41.3132 11.5024 40.7786 10.5383 40.1784C9.38477 39.46 8.46195 38.556 7.42471 37.6781C7.06834 37.3762 6.64631 36.8379 6.37247 36.4627" stroke="#72391E" stroke-width="0.68" stroke-miterlimit="10"/>
<path d="M26.3662 44.7944C22.7481 42.5099 19.6495 39.5651 17.7176 35.7688C16.4928 33.3642 16.7366 33.9981 15.2061 31.7736" stroke="#72391E" stroke-width="0.68" stroke-miterlimit="10"/>
<path d="M28.4512 44.5487C25.9397 42.3429 24.1072 39.5782 23.0737 36.3408C22.209 33.6343 21.7213 30.7833 20.4196 28.253" stroke="#72391E" stroke-width="0.68" stroke-miterlimit="10"/>
<path d="M28.6738 43.1213C27.3234 41.2344 26.635 38.8917 26.7475 36.5828C26.8188 35.1254 27.1977 33.653 26.8882 32.2256C26.6931 31.3253 26.2336 30.5057 25.7816 29.701" stroke="#72391E" stroke-width="0.68" stroke-miterlimit="10"/>
<path d="M32.8359 42.9375C31.6524 41.8796 31.1666 40.2703 30.829 38.7285C29.9943 34.9191 29.7467 30.9839 30.0956 27.1013" stroke="#72391E" stroke-width="0.68" stroke-miterlimit="10"/>
<path d="M34.8467 42.2041C33.2149 39.415 32.7122 35.9957 33.4756 32.8615C33.832 31.3928 34.4584 29.9111 34.1808 28.4274C33.9839 27.3771 33.3537 26.4636 32.7384 25.5858" stroke="#72391E" stroke-width="0.68" stroke-miterlimit="10"/>
<path d="M37.0896 40.9962C36.5025 37.7832 36.5081 35.3486 36.8345 32.1C37.114 29.309 37.7329 26.518 37.4572 23.7271" stroke="#72391E" stroke-width="0.68" stroke-miterlimit="10"/>
<path d="M39.6834 38.993C38.9762 36.7066 39.8315 34.6171 40.4899 32.3157C41.1483 30.0161 41.9379 27.6734 41.7241 25.2914C41.5909 23.8096 41.0732 22.3785 40.9813 20.8948" stroke="#72391E" stroke-width="0.68" stroke-miterlimit="10"/>
<path d="M41.6151 37.2674C42.264 31.1021 41.9677 24.8093 43.4232 18.7828C43.6576 17.8131 43.9427 16.8396 44.4717 15.9937" stroke="#72391E" stroke-width="0.68" stroke-miterlimit="10"/>
<path d="M43.2553 31.9424C44.2456 29.1139 44.6826 26.0979 44.5326 23.1062C44.4632 21.7051 44.2644 20.304 44.3563 18.9029C44.4463 17.5018 44.8608 16.0631 45.8418 15.0522" stroke="#72391E" stroke-width="0.68" stroke-miterlimit="10"/>
<path d="M44.6447 13.3322C45.515 14.7971 45.5656 16.9147 45.7438 18.5652C45.9557 20.5497 45.9858 22.5735 45.5356 24.5298C45.0911 26.4636 44.1983 28.2605 43.523 30.1268C42.8478 31.993 42.2457 33.7336 42.7052 35.6637C42.5833 32.7227 42.1988 31.0008 42.6827 28.4068C43.1685 25.8146 43.8907 23.2619 44.2039 20.6435C44.2883 19.9363 44.3408 19.2142 44.1814 18.5202C44.0201 17.8262 43.6149 17.1585 42.9791 16.8303" stroke="#492112" stroke-width="0.68" stroke-miterlimit="10"/>
<path d="M41.4027 36.8585C40.4198 35.5305 40.356 33.7355 40.6318 32.1131C40.9075 30.4888 41.4796 28.917 41.6352 27.2777C41.8791 24.6986 41.0763 22.1477 40.2829 19.6794" stroke="#492112" stroke-width="0.68" stroke-miterlimit="10"/>
<path d="M39.8008 38.1527C38.9136 37.1211 38.4728 35.7631 38.3959 34.4089C38.319 33.0565 38.5872 31.7042 38.9867 30.4081C39.2624 29.5172 39.6019 28.6375 39.7351 27.7147C40.1177 25.04 38.7166 22.3691 38.9755 19.6794" stroke="#492112" stroke-width="0.68" stroke-miterlimit="10"/>
<path d="M37.7743 38.9405C36.9621 34.2701 37.9937 29.4947 39.1472 24.8975C39.3648 24.029 39.4961 22.9111 38.7402 22.4235" stroke="#492112" stroke-width="0.68" stroke-miterlimit="10"/>
<path d="M36.717 39.1487C35.8298 37.1192 35.5635 34.8272 35.963 32.6514C36.37 30.4381 37.4447 28.3487 37.5441 26.1016C37.5779 25.3439 37.3885 24.4286 36.6738 24.1603" stroke="#492112" stroke-width="0.68" stroke-miterlimit="10"/>
<path d="M36.2479 41.6545C34.7699 36.3821 34.9105 30.6763 36.6455 25.4827" stroke="#492112" stroke-width="0.68" stroke-miterlimit="10"/>
<path d="M30.719 27.2289C31.398 28.1217 31.548 29.2921 31.6699 30.4044C31.955 33.0022 32.2195 35.6018 32.4633 38.2052C32.6284 39.974 32.7841 41.7652 32.5215 43.5227" stroke="#492112" stroke-width="0.68" stroke-miterlimit="10"/>
<path d="M21.4722 28.5869C21.0521 29.2921 21.0896 30.1943 21.3747 30.9633C21.6579 31.7323 22.1625 32.4001 22.6595 33.0547C25.6324 36.9692 28.7948 41.0299 33.2832 43.0819C30.2053 39.4975 27.9545 34.3676 26.9773 29.7629" stroke="#492112" stroke-width="0.68" stroke-miterlimit="10"/>
<path d="M43.5385 34.5571C45.4929 30.0574 46.5489 25.1769 46.6258 20.2777C46.6483 18.8804 46.5658 17.4005 45.7874 16.2357" stroke="#492112" stroke-width="0.68" stroke-miterlimit="10"/>
<path d="M42.6898 32.8165C43.6839 28.2286 44.6817 23.5001 43.8433 18.8822C43.6463 17.7962 43.2712 16.6221 42.3184 16.0538" stroke="#492112" stroke-width="0.68" stroke-miterlimit="10"/>
<path d="M41.019 35.2023C41.2403 28.9245 41.2666 22.6392 41.1015 16.3595" stroke="#492112" stroke-width="0.68" stroke-miterlimit="10"/>
<path d="M35.9835 39.7207C36.0248 34.0263 36.0529 28.2474 34.5393 22.7555" stroke="#492112" stroke-width="0.68" stroke-miterlimit="10"/>
<path d="M34.2324 41.2025C33.9548 37.7982 33.6772 34.392 33.1783 31.0121C32.8876 29.0445 32.5012 27.0282 31.4114 25.357" stroke="#492112" stroke-width="0.68" stroke-miterlimit="10"/>
<path d="M33.002 43.0069C32.1823 40.4054 31.6684 37.7194 30.8956 35.1029C30.1228 32.4882 29.065 29.9017 27.3075 27.8047" stroke="#492112" stroke-width="0.68" stroke-miterlimit="10"/>
<path d="M31.7988 43.5489C29.7525 37.6106 27.1059 32.4807 23.5797 27.2701" stroke="#492112" stroke-width="0.68" stroke-miterlimit="10"/>
<path d="M30.8945 42.9112C25.4608 40.4391 20.2239 36.9316 17.3317 31.7436" stroke="#492112" stroke-width="0.68" stroke-miterlimit="10"/>
<path d="M32.1852 42.9956C32.8023 43.1888 33.4438 42.8362 33.9877 42.4873C38.1592 39.8145 42.1168 36.429 44.0506 31.8918C45.5324 28.4143 45.7087 24.5092 45.2679 20.7598" stroke="#492112" stroke-width="0.68" stroke-miterlimit="10"/>
<path d="M42.2877 34.4389C43.4225 31.9612 44.5591 29.474 45.3675 26.8725C46.1741 24.271 46.6467 21.5363 46.4179 18.8241C46.2904 17.3236 45.8758 15.718 44.6829 14.7839" stroke="#492112" stroke-width="0.68" stroke-miterlimit="10"/>
<path d="M39.3573 37.3893C40.3364 33.4204 41.0848 29.3972 41.5987 25.342C41.7394 24.2372 41.8613 23.1137 41.6812 22.0146C41.503 20.9155 40.9853 19.8257 40.0719 19.1767" stroke="#492112" stroke-width="0.68" stroke-miterlimit="10"/>
<path d="M34.0513 40.1278C34.539 37.016 35.0266 33.9062 35.5143 30.7945C35.7844 29.067 36.0564 27.3227 35.9438 25.5783C35.8313 23.834 36.7185 23.4588 35.5593 22.1402" stroke="#492112" stroke-width="0.68" stroke-miterlimit="10"/>
<path d="M30.903 41.2325C31.3794 35.7594 31.6307 30.2674 31.6514 24.7737" stroke="#492112" stroke-width="0.68" stroke-miterlimit="10"/>
<path d="M28.415 42.5624C27.0927 36.6034 26.4512 32.2613 26.7101 26.1654" stroke="#492112" stroke-width="0.68" stroke-miterlimit="10"/>
<path d="M23.5244 43.3595C21.5662 39.2218 20.0995 34.8553 19.1673 30.38" stroke="#492112" stroke-width="0.68" stroke-miterlimit="10"/>
<path d="M23.4727 44.2354C20.391 42.326 17.2661 40.3828 14.8353 37.7063C14.2388 37.0498 13.6667 36.3071 13.5336 35.4311" stroke="#492112" stroke-width="0.68" stroke-miterlimit="10"/>
<path d="M25.9297 42.8606C21.3362 44.4211 16.4351 43.6728 12.1924 41.3226C10.8644 40.5873 9.0957 39.4807 8.37357 38.3609" stroke="#492112" stroke-width="0.68" stroke-miterlimit="10"/>
<path d="M35.7486 41.3319C35.6943 41.285 35.6811 41.4426 35.7543 41.4295C35.8274 41.4163 35.8462 41.3263 35.8499 41.2532C36.1275 35.9244 35.578 30.5563 34.2256 25.3908" stroke="#492112" stroke-width="0.68" stroke-miterlimit="10"/>
<path style="mix-blend-mode:multiply" opacity="0.32" d="M38.0852 40.1634C38.0871 35.0541 38.2634 29.9448 38.6123 24.8468L38.0852 40.1634Z" fill="url(#paint26_linear_346_10809)"/>
<path d="M42.5638 35.8288C43.8298 30.9671 44.8127 27.0057 44.9477 22.0652C45.0134 19.6606 44.9421 17.2129 44.2106 14.919" stroke="#916436" stroke-width="0.68" stroke-miterlimit="10"/>
<path d="M41.4746 37.3218C42.5362 31.3216 43.5978 25.1375 42.2792 19.1861" stroke="#916436" stroke-width="0.68" stroke-miterlimit="10"/>
<path d="M39.7575 38.419C40.7835 33.563 41.8095 28.5231 40.6878 23.6895" stroke="#916436" stroke-width="0.68" stroke-miterlimit="10"/>
<path d="M38.6045 39.0268C38.4113 33.4861 38.22 27.9435 38.0268 22.4028" stroke="#916436" stroke-width="0.68" stroke-miterlimit="10"/>
<path d="M35.1015 25.7715C34.5894 30.3725 35.5441 35.1254 37.7949 39.1843C35.4597 36.941 32.9276 35.3505 31.3614 32.5239C30.5099 30.9896 29.9115 29.1383 30.5418 27.5046" stroke="#916436" stroke-width="0.68" stroke-miterlimit="10"/>
<path d="M37.3789 39.5782C35.4807 39.1862 33.5338 38.7754 31.8982 37.7438C31.2962 37.3649 30.7485 36.9073 30.2233 36.4309C27.2635 33.7543 24.857 30.2356 24.4519 26.2854" stroke="#916436" stroke-width="0.68" stroke-miterlimit="10"/>
<path d="M38.1924 40.2197C35.1951 39.5407 32.6404 39.1281 29.8157 37.922C26.991 36.7178 24.3351 34.9922 22.4425 32.5895" stroke="#916436" stroke-width="0.68" stroke-miterlimit="10"/>
<path d="M36.2373 40.576C32.6023 41.33 28.7497 42.0728 25.2441 40.8574C23.3928 40.2159 21.7366 39.0361 20.5306 37.5037" stroke="#916436" stroke-width="0.68" stroke-miterlimit="10"/>
<path d="M35.8877 41.8421C31.2492 41.9265 26.5301 42.0034 22.0641 40.7524C20.708 40.3735 19.3463 39.8483 18.3297 38.8823" stroke="#916436" stroke-width="0.68" stroke-miterlimit="10"/>
<path d="M34.7793 40.5385C32.8305 41.3507 30.8254 42.0316 28.7828 42.5736C27.5355 42.9056 26.2563 43.187 24.964 43.1476C23.8874 43.1157 22.8314 42.8606 21.7904 42.5905C20.153 42.1666 18.4686 41.6696 17.1875 40.5686" stroke="#916436" stroke-width="0.68" stroke-miterlimit="10"/>
<path d="M37.0957 40.6098C33.8358 40.5723 30.5891 41.0843 27.331 41.0337C24.073 40.9831 20.6669 40.2947 18.1835 38.1996" stroke="#916436" stroke-width="0.68" stroke-miterlimit="10"/>
<path d="M36.4668 39.4582C33.4507 40.3678 30.2134 40.4785 27.1035 39.9552C24.6521 39.5426 22.1256 38.6441 20.5969 36.7009" stroke="#916436" stroke-width="0.68" stroke-miterlimit="10"/>
<path d="M37.6543 39.4169C33.4547 36.8791 29.7015 33.6174 26.6104 29.8248" stroke="#916436" stroke-width="0.68" stroke-miterlimit="10"/>
<path d="M39.2959 39.3212C37.0958 36.4534 35.1676 33.6811 33.3163 30.5788C32.6598 29.4797 32.0034 28.223 32.3072 26.9832" stroke="#916436" stroke-width="0.68" stroke-miterlimit="10"/>
<path d="M40.0518 38.586C37.4315 33.5367 35.6271 28.5887 34.2485 23.0781" stroke="#916436" stroke-width="0.68" stroke-miterlimit="10"/>
<path d="M40.4922 37.9876C39.4587 33.2028 39.0498 28.2849 39.2824 23.3988" stroke="#916436" stroke-width="0.68" stroke-miterlimit="10"/>
<path d="M41.3195 36.4852C41.8653 31.0421 42.4036 25.4808 41.1357 20.1577" stroke="#916436" stroke-width="0.68" stroke-miterlimit="10"/>
<path d="M42.5003 35.6262C43.5244 32.0493 44.4172 28.4349 45.175 24.7943C45.4976 23.2488 45.7302 21.4463 44.6705 20.2683" stroke="#916436" stroke-width="0.68" stroke-miterlimit="10"/>
<path d="M43.8833 32.6008C45.2075 28.6994 46.3835 24.5373 45.5132 20.5122C45.2019 19.0717 44.5792 17.618 43.3881 16.7365" stroke="#916436" stroke-width="0.68" stroke-miterlimit="10"/>
<path d="M39.416 35.478C38.7783 30.4363 38.3506 25.3701 38.1312 20.2946" stroke="#916436" stroke-width="0.68" stroke-miterlimit="10"/>
<path d="M36.501 37.7794C36.0583 35.4724 35.6119 33.1522 34.7979 30.9483C33.982 28.7425 32.7741 26.6362 31.0091 25.07" stroke="#916436" stroke-width="0.68" stroke-miterlimit="10"/>
<path d="M36.9805 40.2122C32.7978 39.4019 29.3972 36.4834 26.2123 33.6718" stroke="#916436" stroke-width="0.68" stroke-miterlimit="10"/>
<path d="M41.7861 36.2452C39.9911 38.4097 37.4234 39.8202 34.7768 40.8049C32.1303 41.7896 29.1499 42.3898 26.5014 41.4051" stroke="#916436" stroke-width="0.68" stroke-miterlimit="10"/>
<path d="M39.2354 39.0211C36.6638 41.1387 33.4527 42.4836 30.1272 42.8343C26.8016 43.1851 23.3767 42.5398 20.4113 41.0056" stroke="#916436" stroke-width="0.68" stroke-miterlimit="10"/>
<path d="M36.3545 41.4857C33.8017 43.2413 31.3165 43.8791 28.6024 44.4661C25.8883 45.0532 22.9886 45.1057 20.3889 44.1304" stroke="#916436" stroke-width="0.68" stroke-miterlimit="10"/>
<path d="M31.6973 43.5696C29.0207 44.3874 26.1828 45.2427 23.4875 44.8131C20.7922 44.3836 18.1813 43.3126 16.0749 41.5908" stroke="#916436" stroke-width="0.68" stroke-miterlimit="10"/>
<path d="M35.2998 41.8984C36.3652 41.6471 37.1736 40.8086 37.9032 40.0002C39.2949 38.4547 40.6379 36.866 41.9302 35.2379C42.4873 34.5364 43.3013 33.7637 43.6033 32.914C43.8565 32.2031 43.9859 31.3778 44.1923 30.6407C44.965 27.8798 45.5953 25.0794 46.0811 22.2547" stroke="#916436" stroke-width="0.68" stroke-miterlimit="10"/>
<path d="M41.3643 37.1849C38.7158 40.5836 35.109 42.5099 31.4927 43.6728" stroke="#916436" stroke-width="0.68" stroke-miterlimit="10"/>
<path d="M39.8467 38.7492C36.915 40.4954 34.1803 42.3767 31.0386 43.7159C29.9957 44.1604 28.8929 44.5899 27.7618 44.4924" stroke="#916436" stroke-width="0.68" stroke-miterlimit="10"/>
<path d="M20.4794 35.2436C22.355 37.3593 25.0747 38.5991 27.8526 39.1881C29.6269 39.5651 31.4426 39.6982 33.2526 39.747C34.0591 39.7676 35.0513 39.9214 35.841 39.7583C36.3999 39.6438 36.9213 39.2743 37.4521 39.0605C33.6877 36.6672 30.3903 33.6286 27.3424 30.3837" stroke="#916436" stroke-width="0.68" stroke-miterlimit="10"/>
<path d="M38.3057 37.5262C35.7979 33.9269 33.519 30.1699 31.4877 26.2854" stroke="#916436" stroke-width="0.68" stroke-miterlimit="10"/>
<path d="M37.9355 35.6881C37.5642 33.4129 37.1703 31.1396 36.7576 28.872C36.6526 28.298 36.5438 27.7128 36.2606 27.2026" stroke="#916436" stroke-width="0.68" stroke-miterlimit="10"/>
<path d="M38.339 38.0045C38.7423 33.4279 39.1211 28.6657 37.4724 24.3723" stroke="#916436" stroke-width="0.68" stroke-miterlimit="10"/>
<path d="M39.9788 35.6149C40.8191 32.2707 41.4606 28.8795 41.9014 25.4602" stroke="#916436" stroke-width="0.68" stroke-miterlimit="10"/>
<path d="M41.3491 35.7237C41.7279 32.25 42.1087 28.7763 42.4876 25.3045C42.6433 23.879 42.7896 22.3803 42.2325 21.0561" stroke="#916436" stroke-width="0.68" stroke-miterlimit="10"/>
<path d="M41.4131 36.9317C43.088 31.2953 44.7799 25.4283 43.8477 19.6231" stroke="#916436" stroke-width="0.68" stroke-miterlimit="10"/>
<path d="M40.4037 38.0627C41.394 32.5107 41.9548 26.8838 42.0786 21.2474C42.1368 18.6347 42.0936 15.9787 41.3471 13.4729" stroke="#916436" stroke-width="0.68" stroke-miterlimit="10"/>
<path d="M38.5791 38.1959C36.4446 32.0869 36.0789 25.3833 37.5325 19.0848" stroke="#916436" stroke-width="0.68" stroke-miterlimit="10"/>
<path d="M38.7461 38.9667C34.237 36.3164 30.3038 32.7077 27.2896 28.4556" stroke="#916436" stroke-width="0.68" stroke-miterlimit="10"/>
<path d="M38.7256 39.7526C35.7714 39.2668 32.776 38.7679 30.0544 37.5319C28.7359 36.9335 27.4998 36.1683 26.2956 35.3655C23.2927 33.3623 21.2051 32.0287 19.02 29.1683" stroke="#916436" stroke-width="0.68" stroke-miterlimit="10"/>
<path d="M37.5381 40.7092C30.0617 40.0283 22.6379 39.1299 16.422 34.9528" stroke="#916436" stroke-width="0.68" stroke-miterlimit="10"/>
<path d="M34.4521 42.3298C27.8555 43.6015 20.7599 42.0972 15.2642 38.2615" stroke="#916436" stroke-width="0.68" stroke-miterlimit="10"/>
<path d="M31.7178 43.6502C29.1031 44.2636 26.4097 45.0345 23.8344 44.9988C23.116 44.9895 22.3939 44.9707 21.6849 44.8525C20.7208 44.6912 19.798 44.3499 18.8958 43.9785C16.0504 42.8043 13.2426 41.2288 11.4645 38.7323" stroke="#916436" stroke-width="0.68" stroke-miterlimit="10"/>
<path d="M41.8909 36.7085C45.7435 31.4979 47.3603 24.7155 46.2724 18.342" stroke="#916436" stroke-width="0.68" stroke-miterlimit="10"/>
<path d="M45.1779 16.352C45.4311 23.4776 43.6249 30.9427 41.0102 37.5844C42.4751 36.2902 43.5705 34.4764 44.422 32.7227C45.66 30.1718 46.4534 27.6697 46.791 24.86C47.1286 22.0502 46.8829 18.6497 45.6881 16.0781" stroke="#916436" stroke-width="0.68" stroke-miterlimit="10"/>
<path d="M42.7625 17.4961C42.9182 24.5617 41.9204 31.6517 39.8215 38.4059C39.5383 39.3137 38.276 40.0771 37.295 40.833" stroke="#916436" stroke-width="0.68" stroke-miterlimit="10"/>
<path d="M39.0498 21.2868C39.258 24.5186 39.4662 27.7616 39.2243 30.9896C38.9804 34.2176 38.2696 37.4531 36.7334 40.3097C36.559 40.6323 36.3658 40.9605 36.0657 41.1725" stroke="#916436" stroke-width="0.68" stroke-miterlimit="10"/>
<path d="M37.7578 26.4205C37.4239 30.4982 36.775 34.5439 36.0041 38.5616C35.8221 39.5144 35.6289 40.4748 35.2238 41.3563C34.8187 42.2379 33.6801 42.8156 32.8023 43.2414" stroke="#916436" stroke-width="0.68" stroke-miterlimit="10"/>
<path d="M38.3516 39.5257C35.5137 35.2286 32.5746 30.9971 29.5379 26.8369" stroke="#916436" stroke-width="0.68" stroke-miterlimit="10"/>
<path d="M36.6279 38.8842C31.7043 37.1905 27.3172 33.9925 24.2186 29.8379" stroke="#916436" stroke-width="0.68" stroke-miterlimit="10"/>
<path d="M34.9219 39.8633C34.2898 39.6551 33.7271 39.3231 33.0837 39.1881C32.2228 39.0061 31.3187 38.9499 30.4484 38.8129C28.7003 38.5391 26.9578 38.2052 25.2566 37.7157C22.4788 36.9148 19.7853 35.6712 17.6358 33.7505" stroke="#916436" stroke-width="0.68" stroke-miterlimit="10"/>
<path d="M34.2051 42.3504C32.6802 38.2934 34.357 33.7055 33.4905 29.4628C33.1678 27.8779 32.4889 26.353 32.4457 24.7361" stroke="#492112" stroke-width="0.68" stroke-miterlimit="10"/>
<path d="M26.218 26.3361C25.4771 27.212 25.4358 28.4687 25.5465 29.6072C25.7978 32.2031 26.6831 34.7259 28.058 36.9467C28.767 38.0927 29.6073 39.1581 30.5601 40.1128C31.0215 40.5761 31.5111 41.0131 32.0231 41.4201C32.3832 41.7071 33.0791 42.0259 33.2686 42.4198C32.4451 42.8043 30.8452 42.825 29.943 42.8737C28.2924 42.9638 26.625 42.673 25.0851 42.0841C22.733 41.1856 20.6754 39.6251 18.9817 37.772C18.1058 36.8135 17.2955 35.7219 17.0517 34.4502" stroke="#492112" stroke-width="0.68" stroke-miterlimit="10"/>
<path d="M11.1521 38.4115C11.6416 39.4675 12.6188 40.2197 13.6223 40.8218C16.2857 42.4198 19.3637 43.2563 22.4604 43.5865C25.5552 43.9185 28.6838 43.7647 31.7861 43.5002C29.2352 42.5155 26.2886 40.3941 24.3492 38.4772C22.4097 36.5621 20.7629 34.3751 19.1855 32.1581C18.7128 31.4923 18.2252 30.7626 18.2439 29.9486" stroke="#492112" stroke-width="0.68" stroke-miterlimit="10"/>
<path d="M38.2469 38.0608C38.8809 32.5107 39.0572 26.8219 37.6767 21.4069C37.386 20.2702 37.1103 19.4262 36.3957 18.3027" stroke="#492112" stroke-width="0.68" stroke-miterlimit="10"/>
<path d="M28.9307 44.3724C24.8905 43.684 20.7472 42.96 17.2172 40.8912C15.7955 40.0584 14.4975 39.0174 13.3796 37.8132C12.1736 36.5134 11.1345 34.8909 11.1982 33.126" stroke="#492112" stroke-width="0.68" stroke-miterlimit="10"/>
<path d="M40.868 34.7184C41.6052 31.436 42.3442 28.1517 43.0813 24.8693C43.3833 23.5245 43.6871 22.1609 43.6384 20.7823C43.5896 19.4037 43.1488 17.9875 42.1529 17.0253" stroke="#492112" stroke-width="0.68" stroke-miterlimit="10"/>
<path d="M37.4136 38.0645C37.9669 35.4067 38.5202 32.7508 39.0735 30.093C39.4524 28.2699 39.835 26.4299 39.8125 24.5673C39.79 22.7048 39.3305 20.7954 38.1807 19.3211" stroke="#492112" stroke-width="0.68" stroke-miterlimit="10"/>
<path d="M25.2471 42.0053C23.3076 36.8885 22.3567 32.492 22.2685 27.0282" stroke="#492112" stroke-width="0.68" stroke-miterlimit="10"/>
<path d="M25.2891 40.8818C19.4783 40.2853 13.4668 39.385 8.60512 36.1739" stroke="#492112" stroke-width="0.68" stroke-miterlimit="10"/>
</g>
<path style="mix-blend-mode:multiply" opacity="0.71" d="M41.1592 5.37375C41.7125 6.06774 42.2358 6.7955 42.7291 7.55701C50.2505 19.1973 47.5777 34.3488 36.757 41.3994C25.9382 48.45 11.0699 44.7287 3.54668 33.0865C2.78891 31.9142 2.13618 30.7082 1.58474 29.4759L11.9984 31.6141C12.7017 31.7586 13.4314 31.6835 14.0897 31.4003L23.8619 27.1501C26.9023 26.653 32.6793 25.6027 34.4274 23.0649L38.0231 17.618C39.9662 16.1719 39.351 13.379 39.8837 11.0157L41.1592 5.36625V5.37375Z" fill="url(#paint27_linear_346_10809)"/>
<defs>
<linearGradient id="paint0_linear_346_10809" x1="29.7625" y1="44.3976" x2="20.7748" y2="10.8316" gradientUnits="userSpaceOnUse">
<stop offset="0.14" stop-color="#683C11"/>
<stop offset="1" stop-color="#936037"/>
</linearGradient>
<linearGradient id="paint1_linear_346_10809" x1="29.7625" y1="44.3976" x2="20.7748" y2="10.8316" gradientUnits="userSpaceOnUse">
<stop offset="0.14" stop-color="#683C11"/>
<stop offset="0.99" stop-color="#936037" stop-opacity="0"/>
</linearGradient>
<linearGradient id="paint2_linear_346_10809" x1="36.5898" y1="5.15699" x2="2.89398" y2="25.6847" gradientUnits="userSpaceOnUse">
<stop stop-color="#B2B2B2"/>
<stop offset="0.51" stop-color="#F6F6F6"/>
</linearGradient>
<linearGradient id="paint3_linear_346_10809" x1="36.6187" y1="5.13942" x2="2.86514" y2="25.7022" gradientUnits="userSpaceOnUse">
<stop offset="0.49" stop-color="white"/>
<stop offset="1" stop-color="white"/>
</linearGradient>
<linearGradient id="paint4_linear_346_10809" x1="42.275" y1="19.2552" x2="27.5535" y2="15.3078" gradientUnits="userSpaceOnUse">
<stop offset="0.49" stop-color="#F6F6F6"/>
<stop offset="1" stop-color="#B2B2B2"/>
</linearGradient>
<linearGradient id="paint5_linear_346_10809" x1="35.1404" y1="21.5658" x2="24.0911" y2="18.6031" gradientUnits="userSpaceOnUse">
<stop offset="0.05" stop-color="#F6F6F6"/>
<stop offset="0.7" stop-color="#9D9D9C"/>
</linearGradient>
<linearGradient id="paint6_linear_346_10809" x1="30.5771" y1="22.3796" x2="22.6783" y2="20.2616" gradientUnits="userSpaceOnUse">
<stop offset="0.49" stop-color="#F6F6F6"/>
<stop offset="1" stop-color="#B2B2B2"/>
</linearGradient>
<linearGradient id="paint7_linear_346_10809" x1="25.7773" y1="25.9569" x2="23.5996" y2="17.8267" gradientUnits="userSpaceOnUse">
<stop offset="0.05" stop-color="#F6F6F6"/>
<stop offset="0.7" stop-color="#9D9D9C"/>
</linearGradient>
<linearGradient id="paint8_linear_346_10809" x1="21.2584" y1="31.8972" x2="17.755" y2="18.8111" gradientUnits="userSpaceOnUse">
<stop offset="0.49" stop-color="#F6F6F6"/>
<stop offset="1" stop-color="#B2B2B2"/>
</linearGradient>
<linearGradient id="paint9_linear_346_10809" x1="14.6686" y1="33.6606" x2="12.0118" y2="23.7397" gradientUnits="userSpaceOnUse">
<stop offset="0.05" stop-color="#F6F6F6"/>
<stop offset="0.7" stop-color="#9D9D9C"/>
</linearGradient>
<linearGradient id="paint10_linear_346_10809" x1="9.92177" y1="34.6209" x2="7.37281" y2="25.1017" gradientUnits="userSpaceOnUse">
<stop offset="0.49" stop-color="#F6F6F6"/>
<stop offset="1" stop-color="#B2B2B2"/>
</linearGradient>
<linearGradient id="paint11_linear_346_10809" x1="5.52323" y1="33.0629" x2="0.532284" y2="14.4222" gradientUnits="userSpaceOnUse">
<stop offset="0.05" stop-color="#F6F6F6"/>
<stop offset="0.7" stop-color="#9D9D9C"/>
</linearGradient>
<linearGradient id="paint12_linear_346_10809" x1="7.55939" y1="18.0173" x2="5.36034" y2="9.80757" gradientUnits="userSpaceOnUse">
<stop offset="0.49" stop-color="#F6F6F6"/>
<stop offset="1" stop-color="#B2B2B2"/>
</linearGradient>
<linearGradient id="paint13_linear_346_10809" x1="13.3214" y1="14.8553" x2="10.6432" y2="4.85483" gradientUnits="userSpaceOnUse">
<stop offset="0.05" stop-color="#F6F6F6"/>
<stop offset="0.7" stop-color="#9D9D9C"/>
</linearGradient>
<linearGradient id="paint14_linear_346_10809" x1="17.6503" y1="10.4814" x2="15.5911" y2="2.79279" gradientUnits="userSpaceOnUse">
<stop offset="0.49" stop-color="#F6F6F6"/>
<stop offset="1" stop-color="#B2B2B2"/>
</linearGradient>
<linearGradient id="paint15_linear_346_10809" x1="27.5091" y1="4.58825" x2="21.4944" y2="2.97548" gradientUnits="userSpaceOnUse">
<stop offset="0.05" stop-color="#F6F6F6"/>
<stop offset="0.7" stop-color="#9D9D9C"/>
</linearGradient>
<linearGradient id="paint16_linear_346_10809" x1="35.0343" y1="3.81757" x2="22.7096" y2="0.512866" gradientUnits="userSpaceOnUse">
<stop offset="0.49" stop-color="#F6F6F6"/>
<stop offset="1" stop-color="#B2B2B2"/>
</linearGradient>
<linearGradient id="paint17_linear_346_10809" x1="43.0869" y1="16.9428" x2="27.1983" y2="16.9428" gradientUnits="userSpaceOnUse">
<stop offset="0.24" stop-color="#F6F6F6"/>
<stop offset="0.6" stop-color="white" stop-opacity="0"/>
</linearGradient>
<linearGradient id="paint18_linear_346_10809" x1="30.4365" y1="21.1836" x2="23.0821" y2="21.1836" gradientUnits="userSpaceOnUse">
<stop offset="0.49" stop-color="#F6F6F6"/>
<stop offset="1" stop-color="white" stop-opacity="0"/>
</linearGradient>
<linearGradient id="paint19_linear_346_10809" x1="23.143" y1="28.4349" x2="14.3162" y2="23.3388" gradientUnits="userSpaceOnUse">
<stop offset="0.05" stop-color="#F6F6F6"/>
<stop offset="0.57" stop-color="white" stop-opacity="0"/>
</linearGradient>
<linearGradient id="paint20_linear_346_10809" x1="12.9248" y1="30.0386" x2="5.36029" y2="30.0386" gradientUnits="userSpaceOnUse">
<stop offset="0.49" stop-color="#F6F6F6"/>
<stop offset="1" stop-color="white" stop-opacity="0"/>
</linearGradient>
<linearGradient id="paint21_linear_346_10809" x1="14.4551" y1="13.4484" x2="-1.49736" y2="13.4484" gradientUnits="userSpaceOnUse">
<stop offset="0.49" stop-color="#F6F6F6"/>
<stop offset="1" stop-color="white" stop-opacity="0"/>
</linearGradient>
<linearGradient id="paint22_linear_346_10809" x1="19.2002" y1="10.8431" x2="13.787" y2="1.46675" gradientUnits="userSpaceOnUse">
<stop stop-color="white" stop-opacity="0"/>
<stop offset="0.39" stop-color="#F6F6F6"/>
</linearGradient>
<linearGradient id="paint23_linear_346_10809" x1="35.8857" y1="2.0876" x2="23.0619" y2="2.0876" gradientUnits="userSpaceOnUse">
<stop offset="0.28" stop-color="white" stop-opacity="0"/>
<stop offset="0.51" stop-color="#F6F6F6"/>
</linearGradient>
<linearGradient id="paint24_linear_346_10809" x1="36.7244" y1="5.0792" x2="3.02699" y2="25.6079" gradientUnits="userSpaceOnUse">
<stop stop-color="#9D9D9C"/>
<stop offset="0.7" stop-color="#F6F6F6"/>
</linearGradient>
<linearGradient id="paint25_linear_346_10809" x1="34.1421" y1="20.1543" x2="7.297" y2="12.9562" gradientUnits="userSpaceOnUse">
<stop offset="0.49" stop-color="white"/>
<stop offset="1" stop-color="white"/>
</linearGradient>
<linearGradient id="paint26_linear_346_10809" x1="38.377" y1="32.8476" x2="38.2008" y2="32.8425" gradientUnits="userSpaceOnUse">
<stop offset="0.14" stop-color="#683C11"/>
<stop offset="0.99" stop-color="#936037" stop-opacity="0"/>
</linearGradient>
<linearGradient id="paint27_linear_346_10809" x1="29.7625" y1="44.3976" x2="20.7748" y2="10.8316" gradientUnits="userSpaceOnUse">
<stop offset="0.06" stop-color="#6B3E13" stop-opacity="0.83"/>
<stop offset="0.5" stop-color="#936037" stop-opacity="0"/>
</linearGradient>
</defs>
</svg>
