<svg width="42" height="41" viewBox="0 0 42 41" fill="none" xmlns="http://www.w3.org/2000/svg">
<path d="M36.0533 4.77667C36.5451 5.39355 37.0103 6.04045 37.4487 6.71735C44.1344 17.0643 41.7586 30.5323 32.1402 36.7995C22.5235 43.0667 9.30727 39.7589 2.61994 29.4103C1.94637 28.3682 1.36617 27.2962 0.875996 26.2008L36.0533 4.77667Z" fill="url(#paint0_linear_343_8500)"/>
<path style="mix-blend-mode:multiply" opacity="0.32" d="M36.0533 4.77667C36.5451 5.39355 37.0103 6.04045 37.4487 6.71735C44.1344 17.0643 41.7586 30.5323 32.1402 36.7995C22.5235 43.0667 9.30727 39.7589 2.61994 29.4103C1.94637 28.3682 1.36617 27.2962 0.875996 26.2008L36.0533 4.77667Z" fill="url(#paint1_linear_343_8500)"/>
<mask id="mask0_343_8500" style="mask-type:luminance" maskUnits="userSpaceOnUse" x="0" y="0" width="38" height="31">
<path d="M7.43683 8.01279L8.64558 5.98375L11.5182 4.69664L18.8541 2.22244L20.6514 0L31.2335 0.631887C35.73 2.32748 37.3606 6.53561 37.449 6.82238C38.0958 8.94478 35.8817 10.8671 35.8817 10.8671L33.3809 12.2509L30.2314 19.6552L26.13 20.067L24.246 21.7809L21.4284 20.8356L13.6223 27.4146L10.1778 27.833L4.13401 30.0205C4.13401 30.0205 1.28135 28.1281 0.40604 25.4072C-0.469265 22.6862 0.331017 17.066 0.402706 14.465C0.4744 11.8641 7.43849 8.01446 7.43849 8.01446L7.43683 8.01279ZM2.87357 23.2114C2.80188 24.797 4.2874 25.5939 4.2874 25.5939L8.95902 23.3965L11.4165 22.6629L18.0839 17.6878L18.3456 17.4911L18.374 17.4694L18.6141 17.4994L18.8825 17.5328L19.1509 17.5661L19.4193 17.5995L19.6878 17.6328L19.9562 17.6662L20.0679 17.6795L20.2213 17.5595L20.483 17.3544L20.7448 17.1493L21.0066 16.9442L21.2683 16.7392L21.5301 16.5341L21.7752 16.3424L21.7918 16.3374L22.0569 16.2623L22.322 16.1873L22.5871 16.1123L22.8522 16.0373L23.1173 15.9622L23.3824 15.8872L23.6475 15.8122L23.9126 15.7372L24.1777 15.6621L24.4428 15.5871L24.6745 15.5221L24.7078 15.4787L24.9663 15.1486L25.2247 14.8185L25.4831 14.4884L25.7415 14.1583L26 13.8282L26.2584 13.498L26.5168 13.1679L26.7752 12.8378L27.0337 12.5077L27.2921 12.1776L27.5505 11.8475L27.8089 11.5173L28.0674 11.1872L28.3258 10.8571L28.5842 10.527L28.6409 10.4536L28.846 10.3319L29.1094 10.1769L29.3728 10.0218L29.6362 9.86677L29.8997 9.71172L30.1631 9.55666L30.4265 9.40161L30.6899 9.24656C30.6899 9.24656 30.7933 9.1682 30.9517 9.03315C31.0284 8.96813 31.1167 8.89143 31.2134 8.80307C31.2951 8.72804 31.3835 8.64635 31.4752 8.55632C31.5602 8.47295 31.6486 8.38459 31.7353 8.28956C31.8237 8.19619 31.9104 8.09782 31.9954 7.99779C32.0854 7.88942 32.1738 7.77938 32.2538 7.66434C32.3488 7.53096 32.4372 7.39258 32.5106 7.25586C32.6473 7.00077 32.7406 6.74235 32.7557 6.49393C32.7607 6.41557 32.7456 5.8437 32.4555 5.21182C32.3822 5.05009 32.2888 4.88504 32.1754 4.72331C32.0954 4.60994 32.0037 4.49657 31.8987 4.3882C31.8153 4.3015 31.7236 4.21814 31.6236 4.13811C31.5386 4.06975 31.4485 4.0064 31.3502 3.94471C31.2651 3.89136 31.1751 3.83967 31.0784 3.79132C30.9934 3.74964 30.9017 3.70963 30.8083 3.67295C30.7216 3.6396 30.6316 3.60792 30.5382 3.57958C30.4515 3.55291 30.3615 3.52956 30.2681 3.50789C30.1914 3.48955 30.1114 3.47455 30.028 3.46121L29.9997 3.46454L29.7329 3.49622L29.4662 3.5279L29.1994 3.55957L28.9327 3.59125L28.6659 3.62293L28.3991 3.65461L28.1324 3.68629L27.8656 3.71796L27.5989 3.74964L27.3321 3.78132L27.0653 3.813L26.7986 3.84467L26.5318 3.87635L26.2651 3.90803L25.9983 3.93971L25.7315 3.97138L25.4648 4.00306L25.198 4.03474L24.9313 4.06642L24.6645 4.0981L24.3977 4.12977L24.131 4.16145L23.8642 4.19313L23.5975 4.22481L23.3307 4.25648L23.1856 4.27316L23.0673 4.38986L22.8055 4.64662L22.5438 4.90338L22.282 5.16013L22.0202 5.41689L21.7585 5.67364L21.4967 5.9304L21.4801 5.94707L21.2333 6.05211L20.9682 6.16548L20.7031 6.27886L20.438 6.39223L20.1729 6.5056L19.9078 6.61897L19.6427 6.73235L19.3777 6.84572L19.1126 6.95909L18.8475 7.07246L18.5824 7.18584L18.3173 7.29921L18.0522 7.41258L17.7871 7.52596L15.3513 8.56299L12.9021 9.64003L11.8767 11.3306C11.8767 11.3306 6.22307 14.7135 5.5345 16.3524C4.84592 17.9929 2.91358 21.6259 2.84356 23.2114H2.87357Z" fill="white"/>
</mask>
<g mask="url(#mask0_343_8500)">
<path d="M37.478 6.91573C37.3896 6.6273 35.7607 2.41916 31.2625 0.725238L20.3887 -0.0316925L18.7948 2.22076L11.5473 4.78999L8.61957 5.9854L7.3658 8.05779C7.3658 8.05779 0.501743 11.9558 0.43005 14.5567C0.360027 17.1576 -0.441921 22.7763 0.433384 25.4989C1.30869 28.2198 4.16135 30.1122 4.16135 30.1122L10.2051 27.9247L13.6497 27.5062L21.4557 20.9273L24.2734 21.8726L26.1574 20.1587L30.2588 19.7469L33.4082 12.3426L35.9091 10.9588C35.9091 10.9588 38.1232 9.03647 37.4763 6.91406L37.478 6.91573Z" fill="#783E16"/>
<mask id="mask1_343_8500" style="mask-type:luminance" maskUnits="userSpaceOnUse" x="0" y="-1" width="38" height="32">
<path d="M37.4789 6.91573C37.3906 6.6273 35.7617 2.41916 31.2634 0.725238L20.3897 -0.0316925L18.7958 2.22076L11.5482 4.78999L8.62055 5.9854L7.36678 8.05779C7.36678 8.05779 0.50272 11.9558 0.431026 14.5567C0.361004 17.1576 -0.440945 22.7763 0.434361 25.4989C1.30967 28.2198 4.16233 30.1122 4.16233 30.1122L10.2061 27.9247L13.6506 27.5062L21.4567 20.9273L24.2743 21.8726L26.1583 20.1587L30.2598 19.7469L33.4092 12.3426L35.9101 10.9588C35.9101 10.9588 38.1242 9.03647 37.4773 6.91406L37.4789 6.91573Z" fill="white"/>
</mask>
<g mask="url(#mask1_343_8500)">
<path d="M35.7653 2.42414L38.8213 10.4203L41.1338 7.89938L35.7653 2.42414Z" fill="#783E16"/>
<path d="M35.4885 2.14237L35.2284 2.04067L38.5462 10.7204L38.8213 10.4203L35.7652 2.42414L35.4885 2.14237Z" fill="#783E16"/>
<path d="M35.2281 2.04068L34.7696 1.85895L38.2708 11.0205L38.5459 10.7204L35.2281 2.04068Z" fill="#783E16"/>
<path d="M34.7703 1.85894L34.3118 1.67721L37.9964 11.3189L38.2715 11.0205L34.7703 1.85894Z" fill="#783E16"/>
<path d="M34.3115 1.67722L33.853 1.49549L37.721 11.619L37.9961 11.3189L34.3115 1.67722Z" fill="#783E16"/>
<path d="M33.8527 1.49549L33.3942 1.31376L37.4456 11.9191L37.7207 11.619L33.8527 1.49549Z" fill="#783E16"/>
<path d="M33.3939 1.31375L32.9337 1.13202L37.1702 12.2192L37.4453 11.9191L33.3939 1.31375Z" fill="#783E16"/>
<path d="M32.9334 1.13202L32.475 0.950294L36.8948 12.5177L37.1699 12.2192L32.9334 1.13202Z" fill="#783E16"/>
<path d="M32.4756 0.950292L32.0171 0.768562L36.6204 12.8178L36.8955 12.5177L32.4756 0.950292Z" fill="#783E16"/>
<path d="M32.0178 0.76856L31.5593 0.58683L36.346 13.1179L36.6211 12.8178L32.0178 0.76856Z" fill="#783E16"/>
<path d="M31.559 0.586836L31.0989 0.405106L36.0723 13.418L36.3457 13.1179L31.559 0.586836Z" fill="#783E16"/>
<path d="M31.0989 0.405096L30.6404 0.223366L35.7972 13.7164L36.0723 13.418L31.0989 0.405096Z" fill="#783E16"/>
<path d="M30.6401 0.223382L30.1816 0.0433197L35.5218 14.0165L35.7969 13.7164L30.6401 0.223382Z" fill="#783E16"/>
<path d="M30.1813 0.0433103L29.7228 -0.13842L35.2464 14.3166L35.5215 14.0165L30.1813 0.0433103Z" fill="#783E16"/>
<path d="M29.7235 -0.138422L29.265 -0.320152L34.972 14.6151L35.2471 14.3166L29.7235 -0.138422Z" fill="#783E16"/>
<path d="M29.2647 -0.320147L28.8045 -0.501877L34.6966 14.9152L34.9717 14.6151L29.2647 -0.320147Z" fill="#783E16"/>
<path d="M28.8052 -0.501879L28.3467 -0.683609L34.4222 15.2153L34.6973 14.9152L28.8052 -0.501879Z" fill="#783E16"/>
<path d="M28.3454 -0.683596L27.887 -0.865326L34.1458 15.5154L34.4209 15.2153L28.3454 -0.683596Z" fill="#783E16"/>
<path d="M27.8876 -0.865336L27.4291 -1.04707L33.8714 15.8138L34.1465 15.5154L27.8876 -0.865336Z" fill="#783E16"/>
<path d="M27.4288 -1.04708L26.9704 -1.22881L33.596 16.1139L33.8711 15.8138L27.4288 -1.04708Z" fill="#783E16"/>
<path d="M26.9701 -1.22879L26.5099 -1.41052L33.3206 16.414L33.5957 16.1139L26.9701 -1.22879Z" fill="#783E16"/>
<path d="M26.5106 -1.41053L26.0521 -1.59226L33.0462 16.7141L33.3213 16.414L26.5106 -1.41053Z" fill="#783E16"/>
<path d="M26.0508 -1.59225L25.5923 -1.77398L32.7715 17.0126L33.0449 16.7141L26.0508 -1.59225Z" fill="#783E16"/>
<path d="M25.5933 -1.77399L25.1348 -1.95572L32.4974 17.3127L32.7725 17.0126L25.5933 -1.77399Z" fill="#783E16"/>
<path d="M25.1345 -1.95572L24.6743 -2.13745L32.222 17.6128L32.4971 17.3127L25.1345 -1.95572Z" fill="#783E16"/>
<path d="M24.675 -2.13746L24.2165 -2.31752L31.9476 17.9112L32.2227 17.6128L24.675 -2.13746Z" fill="#783E16"/>
<path d="M24.2162 -2.31751L23.7577 -2.49924L31.6722 18.2113L31.9473 17.9112L24.2162 -2.31751Z" fill="#783E16"/>
<path d="M23.7574 -2.49925L23.299 -2.68098L31.3968 18.5114L31.6719 18.2113L23.7574 -2.49925Z" fill="#783E16"/>
<path d="M23.2987 -2.68096L22.8402 -2.86269L31.1214 18.8115L31.3965 18.5114L23.2987 -2.68096Z" fill="#783E16"/>
<path d="M22.8409 -2.8627L22.3807 -3.04443L30.847 19.11L31.1221 18.8115L22.8409 -2.8627Z" fill="#783E16"/>
<path d="M22.3804 -3.04444L21.9219 -3.22617L30.5716 19.4101L30.8467 19.11L22.3804 -3.04444Z" fill="#783E16"/>
<path d="M21.9226 -3.22615L21.4641 -3.40788L30.2972 19.7102L30.5723 19.4101L21.9226 -3.22615Z" fill="#783E16"/>
<path d="M21.4638 -3.40789L21.0053 -3.58962L30.0218 20.0103L30.2969 19.7102L21.4638 -3.40789Z" fill="#783E16"/>
<path d="M21.005 -3.58961L20.5465 -3.77134L29.7464 20.3087L30.0215 20.0103L21.005 -3.58961Z" fill="#783E16"/>
<path d="M20.5462 -3.77135L20.0861 -3.95308L29.471 20.6088L29.7461 20.3087L20.5462 -3.77135Z" fill="#783E16"/>
<path d="M20.0858 -3.95309L19.6273 -4.13482L29.1973 20.9089L29.4707 20.6088L20.0858 -3.95309Z" fill="#783E16"/>
<path d="M19.6094 -4.14648L19.1492 -4.32821L28.9026 21.1957L29.1777 20.8956L19.6094 -4.14648Z" fill="#783E16"/>
<path d="M19.1695 -4.31655L18.711 -4.49828L28.6478 21.5075L28.9229 21.2073L19.1695 -4.31655Z" fill="#783E16"/>
<path d="M18.7116 -4.49826L18.2515 -4.67999L28.3733 21.8076L28.6484 21.5075L18.7116 -4.49826Z" fill="#783E16"/>
<path d="M18.2512 -4.67999L17.7927 -4.86005L28.098 22.1077L28.373 21.8076L18.2512 -4.67999Z" fill="#783E16"/>
<path d="M17.7924 -4.86006L17.3339 -5.04179L27.8226 22.4061L28.0977 22.1077L17.7924 -4.86006Z" fill="#783E16"/>
<path d="M17.3336 -5.04179L16.8751 -5.22352L27.5472 22.7062L27.8223 22.4061L17.3336 -5.04179Z" fill="#783E16"/>
<path d="M16.8748 -5.22353L16.4297 -5.40025L16.4213 -5.39192L27.2718 23.0063L27.5469 22.7062L16.8748 -5.22353Z" fill="#783E16"/>
<path d="M16.1469 -5.0918L26.9974 23.3048L27.2725 23.0063L16.422 -5.39191L16.1469 -5.0918Z" fill="#783E16"/>
<path d="M15.8725 -4.7917L26.723 23.6049L26.998 23.3048L16.1476 -5.0918L15.8725 -4.7917Z" fill="#783E16"/>
<path d="M15.5971 -4.49326L26.4476 23.905L26.7227 23.6049L15.8722 -4.7917L15.5971 -4.49326Z" fill="#783E16"/>
<path d="M15.3217 -4.19317L26.1722 24.2051L26.4473 23.905L15.5968 -4.49328L15.3217 -4.19317Z" fill="#783E16"/>
<path d="M15.0463 -3.89305L25.8984 24.5035L26.1719 24.2051L15.3214 -4.19315L15.0463 -3.89305Z" fill="#783E16"/>
<path d="M14.7712 -3.59295L25.6233 24.8036L25.8984 24.5035L15.0463 -3.89305L14.7712 -3.59295Z" fill="#783E16"/>
<path d="M14.4958 -3.29451L25.348 25.1037L25.623 24.8036L14.7709 -3.59295L14.4958 -3.29451Z" fill="#783E16"/>
<path d="M14.2204 -2.99442L25.0726 25.4038L25.3477 25.1037L14.4955 -3.29453L14.2204 -2.99442Z" fill="#783E16"/>
<path d="M13.9467 -2.69432L24.7972 25.7022L25.0723 25.4038L14.2201 -2.99442L13.9467 -2.69432Z" fill="#783E16"/>
<path d="M13.6723 -2.39419L24.5228 26.0024L24.7979 25.7023L13.9474 -2.6943L13.6723 -2.39419Z" fill="#783E16"/>
<path d="M13.3979 -2.09577L24.2483 26.3025L24.5234 26.0024L13.673 -2.3942L13.3979 -2.09577Z" fill="#783E16"/>
<path d="M13.1225 -1.79567L23.973 26.6009L24.248 26.3025L13.3976 -2.09577L13.1225 -1.79567Z" fill="#783E16"/>
<path d="M12.8471 -1.49557L23.6976 26.901L23.9727 26.6009L13.1222 -1.79567L12.8471 -1.49557Z" fill="#783E16"/>
<path d="M12.5717 -1.19713L23.4222 27.2011L23.6973 26.901L12.8468 -1.49557L12.5717 -1.19713Z" fill="#783E16"/>
<path d="M12.2963 -0.897008L23.1468 27.5012L23.4219 27.2011L12.5714 -1.19711L12.2963 -0.897008Z" fill="#783E16"/>
<path d="M2.80704 29.7453L16.2184 35.0522L23.1475 27.5012L12.297 -0.897011L-6.81632 19.9319L2.80704 29.7453Z" fill="#783E16"/>
</g>
<mask id="mask2_343_8500" style="mask-type:luminance" maskUnits="userSpaceOnUse" x="0" y="0" width="37" height="30">
<path d="M36.5036 7.20918C36.4219 6.94075 34.903 3.01105 30.6482 1.45384L20.8298 0.618546L19.2459 2.7943L11.9467 5.40688L9.17905 6.55728L7.93862 8.46962C7.93862 8.46962 1.40301 12.1609 1.31964 14.5968C1.23628 17.0309 0.441006 22.2961 1.25462 24.8387C2.06824 27.3795 4.76251 29.1335 4.76251 29.1335L10.5078 27.0478L13.2371 26.7193L21.2216 20.4271L23.8892 21.2941L25.6865 19.6785L29.5795 19.2667L32.6139 12.3176L34.9947 11.0055C34.9947 11.0055 37.1071 9.19154 36.5069 7.21084L36.5036 7.20918Z" fill="white"/>
</mask>
<g mask="url(#mask2_343_8500)">
<path d="M34.9071 3.01437L37.7531 10.4803L39.9639 8.10615L34.9071 3.01437Z" fill="#C6C6C6"/>
<path d="M34.6459 2.75262L34.3991 2.65759L37.4902 10.7621L37.752 10.4803L34.906 3.01438L34.6459 2.75262Z" fill="#C6C6C6"/>
<path d="M34.4001 2.65758L33.9666 2.49086L37.2278 11.0438L37.4912 10.7621L34.4001 2.65758Z" fill="#C7C7C7"/>
<path d="M33.9664 2.49087L33.5313 2.32414L36.9658 11.3273L37.2275 11.0438L33.9664 2.49087Z" fill="#C8C8C8"/>
<path d="M33.5313 2.32414L33.0978 2.15742L36.7024 11.609L36.9658 11.3273L33.5313 2.32414Z" fill="#C9C9C9"/>
<path d="M33.0976 2.1574L32.6641 1.99068L36.4404 11.8908L36.7021 11.609L33.0976 2.1574Z" fill="#CACACA"/>
<path d="M32.6651 1.99067L32.2299 1.82228L36.178 12.1726L36.4414 11.8908L32.6651 1.99067Z" fill="#CBCBCB"/>
<path d="M32.2297 1.82229L31.7962 1.65556L35.916 12.456L36.1777 12.1726" fill="#CCCCCC"/>
<path d="M31.7953 1.65557L31.3618 1.48885L35.6516 12.7378L35.915 12.456L31.7953 1.65557Z" fill="#CDCDCD"/>
<path d="M31.3625 1.48885L30.9274 1.32212L35.3906 13.0195L35.6523 12.7378L31.3625 1.48885Z" fill="#CECECE"/>
<path d="M30.9274 1.32212L30.4939 1.15372L35.1272 13.303L35.3906 13.0195L30.9274 1.32212Z" fill="#CFCFCF"/>
<path d="M30.4937 1.15372L30.0602 0.987L34.8635 13.5847L35.127 13.303L30.4937 1.15372Z" fill="#D0D0D0"/>
<path d="M30.0599 0.986992L29.6248 0.820267L34.6015 13.8665L34.8633 13.5847L30.0599 0.986992Z" fill="#D1D1D1"/>
<path d="M29.6248 0.820266L29.1913 0.653542L34.3381 14.1482L34.6016 13.8665L29.6248 0.820266Z" fill="#D2D2D2"/>
<path d="M29.1921 0.653541L28.7586 0.486816L34.0771 14.4317L34.3389 14.1482L29.1921 0.653541Z" fill="#D3D3D3"/>
<path d="M28.7577 0.486828L28.3225 0.318436L33.8127 14.7135L34.0762 14.4317L28.7577 0.486828Z" fill="#D4D4D4"/>
<path d="M28.3223 0.318435L27.8888 0.151711L33.5507 14.9952L33.8125 14.7135L28.3223 0.318435Z" fill="#D5D5D5"/>
<path d="M27.8898 0.15171L27.4563 -0.0150146L33.2883 15.277L33.5518 14.9952L27.8898 0.15171Z" fill="#D6D6D6"/>
<path d="M27.4561 -0.0150074L27.0209 -0.181732L33.0263 15.5604L33.2881 15.277L27.4561 -0.0150074Z" fill="#D7D7D7"/>
<path d="M27.0209 -0.181725L26.5875 -0.34845L32.7629 15.8422L33.0264 15.5604L27.0209 -0.181725Z" fill="#D8D8D8"/>
<path d="M26.5872 -0.348454L26.1537 -0.516846L32.5009 16.124L32.7627 15.8422L26.5872 -0.348454Z" fill="#D9D9D9"/>
<path d="M26.1547 -0.516869L25.7196 -0.683594L32.2385 16.4057L32.502 16.1239L26.1547 -0.516869Z" fill="#DADADA"/>
<path d="M25.7193 -0.683586L25.2859 -0.850311L31.9749 16.6891L32.2383 16.4057L25.7193 -0.683586Z" fill="#DBDBDB"/>
<path d="M25.2856 -0.850304L24.8521 -1.01703L31.7129 16.9709L31.9746 16.6891L25.2856 -0.850304Z" fill="#DCDCDC"/>
<path d="M24.8512 -1.01703L24.416 -1.18542L31.4485 17.2527L31.7119 16.9709L24.8512 -1.01703Z" fill="#DDDDDD"/>
<path d="M24.4168 -1.18543L23.9833 -1.35215L31.1875 17.5361L31.4492 17.2527L24.4168 -1.18543Z" fill="#DEDEDE"/>
<path d="M23.9833 -1.35215L23.5498 -1.51888L30.9241 17.8179L31.1875 17.5361L23.9833 -1.35215Z" fill="#DFDFDF"/>
<path d="M23.5496 -1.51888L23.1144 -1.68561L30.6621 18.0996L30.9238 17.8179L23.5496 -1.51888Z" fill="#E0E0E0"/>
<path d="M23.1145 -1.68561L22.681 -1.85233L30.3987 18.3814L30.6621 18.0996L23.1145 -1.68561Z" fill="#E1E1E1"/>
<path d="M22.6807 -1.85233L22.2473 -2.02072L30.1367 18.6648L30.3984 18.3814L22.6807 -1.85233Z" fill="#E3E3E3"/>
<path d="M22.2473 -2.02071L21.8122 -2.18744L29.8733 18.9466L30.1367 18.6648L22.2473 -2.02071Z" fill="#E4E4E4"/>
<path d="M21.8119 -2.18744L21.3784 -2.35416L29.6096 19.2284L29.873 18.9466L21.8119 -2.18744Z" fill="#E5E5E5"/>
<path d="M21.3791 -2.35416L20.9457 -2.52089L29.3486 19.5101L29.6104 19.2284L21.3791 -2.35416Z" fill="#E6E6E6"/>
<path d="M20.9457 -2.52089L20.5106 -2.68929L29.0852 19.7936L29.3486 19.5101L20.9457 -2.52089Z" fill="#E7E7E7"/>
<path d="M20.5103 -2.68928L20.0768 -2.856L28.8232 20.0753L29.085 19.7936L20.5103 -2.68928Z" fill="#E8E8E8"/>
<path d="M20.0759 -2.856L19.6424 -3.02272L28.5588 20.3571L28.8223 20.0753L20.0759 -2.856Z" fill="#E9E9E9"/>
<path d="M19.6441 -3.02274L19.209 -3.18947L28.2988 20.6405L28.5605 20.3571L19.6441 -3.02274Z" fill="#EAEAEA"/>
<path d="M19.208 -3.18946L18.7745 -3.35619L28.0344 20.9223L28.2979 20.6405L19.208 -3.18946Z" fill="#EBEBEB"/>
<path d="M18.7743 -3.35618L18.3391 -3.52457L27.7724 21.204L28.0342 20.9223L18.7743 -3.35618Z" fill="#ECECEC"/>
<path d="M18.3392 -3.52457L17.9057 -3.6913L27.509 21.4858L27.7725 21.204L18.3392 -3.52457Z" fill="#EDEDED"/>
<path d="M17.9064 -3.69129L17.4729 -3.85802L27.248 21.7693L27.5098 21.4858L17.9064 -3.69129Z" fill="#EEEEEE"/>
<path d="M17.473 -3.85801L17.0378 -4.02473L26.9846 22.051L27.248 21.7693L17.473 -3.85801Z" fill="#EFEFEF"/>
<path d="M17.0376 -4.02474L16.6174 -4.18813L16.6091 -4.1798L26.7209 22.3328L26.9844 22.051L17.0376 -4.02474Z" fill="#F0F0F0"/>
<path d="M16.3471 -3.89638L26.4589 22.6145L26.7207 22.3328L16.6088 -4.17981L16.3471 -3.89638Z" fill="#F1F1F1"/>
<path d="M16.0837 -3.61461L26.1956 22.898L26.459 22.6145L16.3471 -3.89638L16.0837 -3.61461Z" fill="#F2F2F2"/>
<path d="M15.8217 -3.33284L25.9336 23.1797L26.1953 22.898L16.0835 -3.6146L15.8217 -3.33284Z" fill="#F3F3F3"/>
<path d="M15.5583 -3.05107L25.6702 23.4615L25.9336 23.1797L15.8217 -3.33284L15.5583 -3.05107Z" fill="#F4F4F4"/>
<path d="M15.2956 -2.76765L25.4091 23.7433L25.6709 23.4615L15.559 -3.05109L15.2956 -2.76765Z" fill="#F5F5F5"/>
<path d="M15.0329 -2.48589L25.1448 24.0267L25.4082 23.7433L15.2947 -2.76765L15.0329 -2.48589Z" fill="#F6F6F6"/>
<path d="M14.7692 -2.20411L24.8828 24.3085L25.1445 24.0267L15.0327 -2.48588L14.7692 -2.20411Z" fill="#F7F7F7"/>
<path d="M14.5075 -1.92068L24.6194 24.5902L24.8828 24.3085L14.7693 -2.20412L14.5075 -1.92068Z" fill="#F8F8F8"/>
<path d="M14.2448 -1.63892L24.3567 24.8737L24.6201 24.5902L14.5083 -1.92068L14.2448 -1.63892Z" fill="#F9F9F9"/>
<path d="M13.9828 -1.35716L24.0947 25.1554L24.3564 24.8737L14.2446 -1.63892L13.9828 -1.35716Z" fill="#FAFAFA"/>
<path d="M13.7194 -1.07538L23.8313 25.4372L24.0947 25.1554L13.9829 -1.35715L13.7194 -1.07538Z" fill="#FBFBFB"/>
<path d="M13.4574 -0.791954L23.5693 25.719L23.8311 25.4372L13.7192 -1.07539L13.4574 -0.791954Z" fill="#FCFCFC"/>
<path d="M13.195 -0.510189L23.3069 26.0024L23.5703 25.719L13.4585 -0.791954L13.195 -0.510189Z" fill="#FDFDFD"/>
<path d="M12.9314 -0.228428L23.0449 26.2841L23.3066 26.0024L13.1948 -0.510193L12.9314 -0.228428Z" fill="#FEFEFE"/>
<path d="M12.6687 0.0533406L22.7805 26.5659L23.0439 26.2841L12.9304 -0.228424L12.6687 0.0533406Z" fill="white"/>
<path d="M3.47354 28.795L16.1596 33.6784L22.7803 26.5659L12.6684 0.0533371L-5.59129 19.6718L3.47354 28.795Z" fill="white"/>
</g>
<path d="M2.7923 23.2898C2.86399 21.7042 4.79467 18.0713 5.48324 16.4307C6.17181 14.7901 11.8254 11.409 11.8254 11.409L12.8508 9.71838L15.3 8.64134L17.7358 7.60431L18.0009 7.49094L18.266 7.37756L18.5311 7.26419L18.7962 7.15082L19.0613 7.03744L19.3264 6.92407L19.5915 6.8107L19.8566 6.69733L20.1217 6.58395L20.3868 6.47058L20.6519 6.35721L20.917 6.24383L21.182 6.13046L21.4288 6.02543L21.4455 6.00875L21.7072 5.752L21.969 5.49524L22.2307 5.23848L22.4925 4.98173L22.7543 4.72497L23.016 4.46822L23.1344 4.35151L23.2794 4.33484L23.5462 4.30316L23.813 4.27148L24.0797 4.2398L24.3465 4.20813L24.6132 4.17645L24.88 4.14477L25.1468 4.11309L25.4135 4.08141L25.6803 4.04974L25.947 4.01806L26.2138 3.98638L26.4806 3.9547L26.7473 3.92303L27.0141 3.89135L27.2808 3.85967L27.5476 3.82799L27.8144 3.79631L28.0811 3.76464L28.3479 3.73296L28.6146 3.70128L28.8814 3.6696L29.1482 3.63793L29.4149 3.60625L29.6817 3.57457L29.9484 3.54289L29.9768 3.53956C30.0585 3.5529 30.1385 3.56957 30.2169 3.58624C30.3102 3.60792 30.4003 3.63126 30.487 3.65793C30.5803 3.68628 30.6703 3.71795 30.757 3.7513C30.8521 3.78798 30.9421 3.82632 31.0271 3.86967C31.1238 3.91802 31.2139 3.96804 31.2989 4.02306C31.3956 4.08475 31.4873 4.1481 31.5723 4.21646C31.6724 4.29649 31.7641 4.37985 31.8474 4.46655C31.9508 4.57492 32.0442 4.68663 32.1242 4.80167C32.2376 4.96339 32.3309 5.12845 32.4043 5.29017C32.6944 5.92206 32.7094 6.49392 32.7044 6.57228C32.6877 6.8207 32.596 7.07913 32.4593 7.33421C32.3843 7.4726 32.2976 7.60931 32.2025 7.74269C32.1209 7.85606 32.0342 7.96777 31.9441 8.07614C31.8591 8.17784 31.7724 8.27454 31.684 8.36791C31.5957 8.46128 31.509 8.54964 31.4239 8.63467C31.3322 8.72303 31.2456 8.8064 31.1622 8.88142C31.0655 8.96979 30.9771 9.04648 30.9004 9.1115C30.742 9.24655 30.6387 9.32324 30.6387 9.32324L30.3752 9.4783L30.1118 9.63335L29.8484 9.7884L29.585 9.94346L29.3215 10.0985L29.0581 10.2536L28.7947 10.4086L28.5896 10.5303L28.5329 10.6037L28.2745 10.9338L28.0161 11.2639L27.7577 11.594L27.4992 11.9241L27.2408 12.2543L26.9824 12.5844L26.724 12.9145L26.4656 13.2446L26.2071 13.5747L25.9487 13.9048L25.6903 14.235L25.4319 14.5651L25.1734 14.8952L24.915 15.2253L24.6566 15.5554L24.6232 15.5988L24.3915 15.6638L24.1264 15.7388L23.8613 15.8138L23.5962 15.8889L23.3311 15.9639L23.066 16.0389L22.8009 16.1139L22.5358 16.189L22.2708 16.264L22.0057 16.339L21.7406 16.414L21.7239 16.419L21.4788 16.6108L21.2171 16.8159L20.9553 17.0209L20.6935 17.226L20.4318 17.4311L20.17 17.6361L20.0166 17.7562L19.9049 17.7428L19.6365 17.7095L19.3681 17.6762L19.0997 17.6428L18.8312 17.6095L18.5628 17.5761L18.3227 17.5461L18.2944 17.5678L18.0326 17.7645L11.3653 22.7396L8.90776 23.4732L4.23614 25.6706C4.23614 25.6706 2.75062 24.8737 2.82231 23.2881L2.7923 23.2898Z" fill="url(#paint2_linear_343_8500)"/>
<path d="M2.7923 23.2898C2.86399 21.7042 4.79467 18.0713 5.48324 16.4307C6.17181 14.7901 11.8254 11.409 11.8254 11.409L12.8508 9.71838L15.3 8.64134L17.7358 7.60431L18.0009 7.49094L18.266 7.37756L18.5311 7.26419L18.7962 7.15082L19.0613 7.03744L19.3264 6.92407L19.5915 6.8107L19.8566 6.69733L20.1217 6.58395L20.3868 6.47058L20.6519 6.35721L20.917 6.24383L21.182 6.13046L21.4288 6.02543L21.4455 6.00875L21.7072 5.752L21.969 5.49524L22.2307 5.23848L22.4925 4.98173L22.7543 4.72497L23.016 4.46822L23.1344 4.35151L23.2794 4.33484L23.5462 4.30316L23.813 4.27148L24.0797 4.2398L24.3465 4.20813L24.6132 4.17645L24.88 4.14477L25.1468 4.11309L25.4135 4.08141L25.6803 4.04974L25.947 4.01806L26.2138 3.98638L26.4806 3.9547L26.7473 3.92303L27.0141 3.89135L27.2808 3.85967L27.5476 3.82799L27.8144 3.79631L28.0811 3.76464L28.3479 3.73296L28.6146 3.70128L28.8814 3.6696L29.1482 3.63793L29.4149 3.60625L29.6817 3.57457L29.9484 3.54289L29.9768 3.53956C30.0585 3.5529 30.1385 3.56957 30.2169 3.58624C30.3102 3.60792 30.4003 3.63126 30.487 3.65793C30.5803 3.68628 30.6703 3.71795 30.757 3.7513C30.8521 3.78798 30.9421 3.82632 31.0271 3.86967C31.1238 3.91802 31.2139 3.96804 31.2989 4.02306C31.3956 4.08475 31.4873 4.1481 31.5723 4.21646C31.6724 4.29649 31.7641 4.37985 31.8474 4.46655C31.9508 4.57492 32.0442 4.68662 32.1242 4.80167C32.2376 4.96339 32.3309 5.12845 32.4043 5.29017C32.6944 5.92206 32.7094 6.49392 32.7044 6.57228C32.6877 6.8207 32.596 7.07913 32.4593 7.33421C32.3843 7.4726 32.2976 7.60931 32.2025 7.74269C32.1209 7.85606 32.0342 7.96777 31.9441 8.07614C31.8591 8.17784 31.7724 8.27454 31.684 8.36791C31.5957 8.46128 31.509 8.54964 31.4239 8.63467C31.3322 8.72303 31.2456 8.8064 31.1622 8.88142C31.0655 8.96979 30.9771 9.04648 30.9004 9.1115C30.742 9.24655 30.6387 9.32324 30.6387 9.32324L30.3752 9.4783L30.1118 9.63335L29.8484 9.7884L29.585 9.94346L29.3215 10.0985L29.0581 10.2536L28.7947 10.4086L28.5896 10.5303L28.5329 10.6037L28.2745 10.9338L28.0161 11.2639L27.7577 11.594L27.4992 11.9241L27.2408 12.2543L26.9824 12.5844L26.724 12.9145L26.4656 13.2446L26.2071 13.5747L25.9487 13.9048L25.6903 14.235L25.4319 14.5651L25.1734 14.8952L24.915 15.2253L24.6566 15.5554L24.6232 15.5988L24.3915 15.6638L24.1264 15.7388L23.8613 15.8138L23.5962 15.8889L23.3311 15.9639L23.066 16.0389L22.8009 16.1139L22.5358 16.189L22.2708 16.264L22.0057 16.339L21.7406 16.414L21.7239 16.419L21.4788 16.6108L21.2171 16.8159L20.9553 17.0209L20.6935 17.226L20.4318 17.4311L20.17 17.6361L20.0166 17.7562L19.9049 17.7428L19.6365 17.7095L19.3681 17.6762L19.0997 17.6428L18.8312 17.6095L18.5628 17.5761L18.3227 17.5461L18.2944 17.5678L18.0326 17.7645L11.3653 22.7396L8.90777 23.4732L4.23614 25.6706C4.23614 25.6706 2.75062 24.8737 2.82231 23.2881L2.7923 23.2898Z" stroke="url(#paint3_linear_343_8500)" stroke-width="0.35" stroke-miterlimit="10"/>
<path style="mix-blend-mode:overlay" opacity="0.21" d="M28.2509 10.2619C28.356 10.3203 37.7676 14.4284 37.7676 14.4284C37.7676 14.4284 30.6318 19.8903 30.5201 19.8602C30.4067 19.8302 23.6443 14.7885 23.6443 14.7885L28.2509 10.2619Z" fill="url(#paint4_linear_343_8500)"/>
<path style="mix-blend-mode:multiply" opacity="0.24" d="M30.5186 19.8586C30.4702 19.8152 23.6428 14.7868 23.6428 14.7868L21.0553 15.8872L26.8156 20.6138L30.5169 19.8569L30.5186 19.8586Z" fill="url(#paint5_linear_343_8500)"/>
<path style="mix-blend-mode:overlay" opacity="0.21" d="M26.5234 20.3571L20.3546 15.2937L19.9845 17.5178L25.0196 22.3678C25.0196 22.3678 26.4601 20.3704 26.5234 20.3588V20.3571Z" fill="url(#paint6_linear_343_8500)"/>
<path style="mix-blend-mode:multiply" opacity="0.24" d="M25.0195 22.3661L18.5323 16.3574L18.0004 17.271L22.1902 21.4425L25.0195 22.3661Z" fill="url(#paint7_linear_343_8500)"/>
<path style="mix-blend-mode:overlay" opacity="0.21" d="M22.1924 21.5475L17.0072 16.2507L11.1585 22.5395L14.543 29.3752L22.1924 21.5475Z" fill="url(#paint8_linear_343_8500)"/>
<path style="mix-blend-mode:multiply" opacity="0.24" d="M14.543 29.3752L10.725 20.9456L8.39416 22.7196L11.6119 29.5086L14.543 29.3752Z" fill="url(#paint9_linear_343_8500)"/>
<path style="mix-blend-mode:overlay" opacity="0.21" d="M10.957 28.1265L7.99767 21.7826L4.23302 25.3588L5.13333 31.6177L10.957 28.1265Z" fill="url(#paint10_linear_343_8500)"/>
<path style="mix-blend-mode:multiply" opacity="0.24" d="M4.76267 29.2869L3.96573 23.7649C3.96573 23.7649 6.06646 15.9872 6.02478 15.9756C5.9831 15.9639 -1.61121 13.2346 -1.61121 13.2346L-1.53285 26.891L4.76267 29.2885V29.2869Z" fill="url(#paint11_linear_343_8500)"/>
<path style="mix-blend-mode:overlay" opacity="0.21" d="M6.18024 16.0173L-1.86256 13.1062L7.31897 7.89109L12.3174 11.7508L6.18024 16.0173Z" fill="url(#paint12_linear_343_8500)"/>
<path style="mix-blend-mode:multiply" opacity="0.24" d="M7.20992 7.84606L13.3721 12.6511L13.0803 9.85843L7.10655 4.80167L7.20992 7.84606Z" fill="url(#paint13_linear_343_8500)"/>
<path style="mix-blend-mode:overlay" opacity="0.21" d="M13.1909 9.84342L6.53196 4.30149L18.7329 2.05404L21.7256 6.64231L13.1909 9.84342Z" fill="url(#paint14_linear_343_8500)"/>
<path style="mix-blend-mode:multiply" opacity="0.24" d="M18.732 2.05405L20.4126 -0.015007L23.6221 5.19014L21.7247 6.64231L18.732 2.05405Z" fill="url(#paint15_linear_343_8500)"/>
<path style="mix-blend-mode:overlay" opacity="0.21" d="M23.1834 4.42821L19.9672 -0.716919L31.3662 0.570197L29.829 3.828L23.1834 4.42821Z" fill="url(#paint16_linear_343_8500)"/>
<path style="mix-blend-mode:overlay" opacity="0.67" d="M28.2509 10.2619C28.356 10.3203 37.7676 14.4284 37.7676 14.4284C37.7676 14.4284 30.6318 19.8903 30.5201 19.8602C30.4067 19.8302 23.6443 14.7885 23.6443 14.7885L28.2509 10.2619Z" fill="url(#paint17_linear_343_8500)"/>
<path style="mix-blend-mode:overlay" opacity="0.67" d="M26.5234 20.3571L20.3546 15.2937L19.9845 17.5178L25.0196 22.3678C25.0196 22.3678 26.4601 20.3704 26.5234 20.3588V20.3571Z" fill="url(#paint18_linear_343_8500)"/>
<path style="mix-blend-mode:overlay" opacity="0.67" d="M22.1924 21.5475L17.0072 16.2507L11.1585 22.5395L14.543 29.3752L22.1924 21.5475Z" fill="url(#paint19_linear_343_8500)"/>
<path style="mix-blend-mode:overlay" opacity="0.67" d="M10.957 28.1265L7.99767 21.7826L4.23302 25.3588L5.13333 31.6177L10.957 28.1265Z" fill="url(#paint20_linear_343_8500)"/>
<path style="mix-blend-mode:overlay" opacity="0.67" d="M6.18024 16.0173L-1.86256 13.1062L7.31897 7.89109L12.3174 11.7508L6.18024 16.0173Z" fill="url(#paint21_linear_343_8500)"/>
<path style="mix-blend-mode:overlay" opacity="0.67" d="M13.1909 9.84342L6.53196 4.30149L18.7329 2.05404L21.7256 6.64231L13.1909 9.84342Z" fill="url(#paint22_linear_343_8500)"/>
<path style="mix-blend-mode:overlay" opacity="0.67" d="M23.1834 4.42821L19.9672 -0.716919L31.3662 0.570197L29.829 3.828L23.1834 4.42821Z" fill="url(#paint23_linear_343_8500)"/>
</g>
<path d="M11.9446 11.3389L12.9699 9.64836L15.4191 8.57132L17.855 7.53429L18.1201 7.42091L18.3852 7.30754L18.6503 7.19417L18.9154 7.0808L19.1804 6.96742L19.4455 6.85405L19.7106 6.74068L19.9757 6.6273L20.2408 6.51393L20.5059 6.40056L20.771 6.28718L21.0361 6.17381L21.3012 6.06044L21.5479 5.9554L21.5646 5.93873L21.8264 5.68197L22.0881 5.42522L22.3499 5.16846L22.6116 4.91171L22.8734 4.65495L23.1352 4.39819L23.2535 4.28149L23.3986 4.26481L23.6653 4.23314L23.9321 4.20146L24.1989 4.16978L24.4656 4.1381L24.7324 4.10642L24.9991 4.07475L25.2659 4.04307L25.5327 4.01139L25.7994 3.97971L26.0662 3.94804L26.3329 3.91636L26.5997 3.88468L26.8665 3.853L27.1332 3.82133L27.4 3.78965L27.6667 3.75797L27.9335 3.72629L28.2003 3.69461L28.467 3.66294L28.7338 3.63126L29.0005 3.59958L29.2673 3.5679L29.5341 3.53623L29.8008 3.50455L30.0676 3.47287L30.0959 3.46954C30.1776 3.48287 30.2576 3.49955 30.336 3.51622C30.4294 3.53789 30.5194 3.56123 30.6061 3.58791C30.6995 3.61625 30.7895 3.64793 30.8762 3.68128C30.9712 3.71796 31.0613 3.7563 31.1463 3.79965C31.243 3.848 31.333 3.89802 31.418 3.95304C31.5147 4.01473 31.6064 4.07808 31.6915 4.14644C31.7915 4.22647 31.8832 4.30983 31.9666 4.39653C32.0699 4.5049 32.1633 4.6166 32.2433 4.73164C32.3567 4.89337 32.4501 5.05842 32.5234 5.22015C32.8135 5.85203 32.8285 6.4239 32.8235 6.50226C32.8069 6.75068 32.7152 7.0091 32.5784 7.26419C32.5034 7.40257 32.4167 7.53929 32.3217 7.67267C32.24 7.78604 32.1533 7.89775 32.0633 8.00612C31.9782 8.10782 31.8915 8.20452 31.8032 8.29789C31.7148 8.39125 31.6281 8.48128 31.5431 8.56465C31.4514 8.65301 31.3647 8.73637 31.2813 8.8114C31.1846 8.89976 31.0963 8.97646 31.0196 9.04148C30.8612 9.17653 30.7578 9.25322 30.7578 9.25322L30.4944 9.40827L30.231 9.56333L29.9675 9.71838L29.7041 9.87344L29.4407 10.0285L29.1773 10.1835L28.9138 10.3386L28.7088 10.4603L28.6521 10.5337L28.3937 10.8638L28.1352 11.1939L27.8768 11.524L27.6184 11.8541L27.36 12.1842L27.1015 12.5144L26.8431 12.8445L26.5847 13.1746L26.3263 13.5047L26.0678 13.8348L25.8094 14.1649L25.551 14.495L25.2926 14.8252L25.0341 15.1553L24.7757 15.4854L24.7424 15.5287L24.5106 15.5938L24.2455 15.6688L23.9804 15.7438L23.7154 15.8188L23.4503 15.8939L23.1852 15.9689L22.9201 16.0439L22.655 16.1189L22.3899 16.194L22.1248 16.269L21.8597 16.344L21.843 16.349L21.598 16.5408L21.3362 16.7458L21.0744 16.9509L20.8127 17.156L20.5509 17.361L20.2892 17.5661L20.1358 17.6862L20.0241 17.6728L19.7556 17.6395L19.4872 17.6061L19.2188 17.5728L18.9504 17.5394L18.6819 17.5061L18.4419 17.4761L18.4135 17.4978L18.1518 17.6945L11.4844 22.6696L9.0269 23.4032L4.35528 25.6006C4.35528 25.6006 2.86976 24.8036 2.94145 23.2181C3.01314 21.6325 4.94381 17.9996 5.63239 16.359C6.32096 14.7185 11.9746 11.3356 11.9746 11.3356L11.9446 11.3389Z" fill="url(#paint24_linear_343_8500)"/>
<path d="M11.953 11.344L12.9784 9.65337L15.4259 8.57466L17.8601 7.53763L18.1252 7.42425L18.3903 7.31088L18.6554 7.19751L18.9205 7.08414L19.1856 6.97076L19.4506 6.85739L19.7157 6.74402L19.9808 6.63065L20.2459 6.51727L20.511 6.4039L20.7761 6.29053L21.0412 6.17715L21.3063 6.06378L21.553 5.95874L21.5697 5.94207L21.8298 5.68532L22.0899 5.42856L22.35 5.1718L22.6101 4.91505L22.8702 4.65829L23.1303 4.40153L23.2486 4.28483L23.3937 4.26815L23.6604 4.23648L23.9272 4.2048L24.194 4.17312L24.4607 4.14144L24.7275 4.10977L24.9942 4.07809L25.261 4.04641L25.5278 4.01473L25.7945 3.98305L26.0613 3.95138L26.328 3.9197L26.5948 3.88802L26.8616 3.85634L27.1283 3.82467L27.3951 3.79299L27.6618 3.76131L27.9286 3.72963L28.1954 3.69796L28.4621 3.66628L28.7289 3.6346L28.9956 3.60292L29.2624 3.57125L29.5292 3.53957L29.7959 3.50789L30.0627 3.47621L30.091 3.47288C30.1727 3.48622 30.2527 3.50289 30.3311 3.51956C30.4245 3.54123 30.5145 3.56458 30.6012 3.59125C30.6946 3.6196 30.7846 3.65127 30.8713 3.68462C30.9663 3.7213 31.0564 3.75964 31.1414 3.80299C31.2381 3.85134 31.3281 3.90136 31.4132 3.95638C31.5099 4.01807 31.6016 4.08142 31.6866 4.14978C31.7866 4.22981 31.8783 4.31317 31.96 4.39987C32.0634 4.50824 32.1567 4.61994 32.2368 4.73498C32.3501 4.89671 32.4435 5.06176 32.5169 5.22349C32.807 5.85537 32.822 6.42724 32.8153 6.5056C32.7986 6.75402 32.7069 7.01245 32.5702 7.26753C32.4952 7.40592 32.4085 7.54263 32.3135 7.67601C32.2318 7.78938 32.1451 7.90109 32.055 8.00946C31.97 8.11116 31.8833 8.20786 31.795 8.30123C31.7066 8.39459 31.6199 8.48462 31.5349 8.56799C31.4432 8.65635 31.3565 8.73971 31.2731 8.81474C31.1764 8.9031 31.088 8.9798 31.0113 9.04482C30.853 9.17987 30.7496 9.25656 30.7496 9.25656L30.4862 9.41328L30.2227 9.56834L29.9593 9.72339L29.6959 9.87844L29.4325 10.0335L29.169 10.1886L28.9056 10.3436L28.7005 10.4653L28.6439 10.5387L28.3854 10.8688L28.127 11.1989L27.8686 11.529L27.6102 11.8591L27.3517 12.1892L27.0933 12.5194L26.8349 12.8495L26.5765 13.1796L26.318 13.5097L26.0596 13.8398L25.8012 14.1699L25.5428 14.5001L25.2843 14.8302L25.0259 15.1603L24.7675 15.4904L24.7342 15.5337L24.5024 15.5988L24.2373 15.6738L23.9722 15.7488L23.7071 15.8239L23.442 15.8989L23.1769 15.9739L22.9119 16.0489L22.6468 16.124L22.3817 16.199L22.1166 16.274L21.8515 16.349L21.8348 16.354L21.5897 16.5458L21.328 16.7508L21.0662 16.9559L20.8045 17.161L20.5427 17.3661L20.2809 17.5711L20.1276 17.6912L20.0158 17.6778L19.7474 17.6445L19.479 17.6111L19.2106 17.5778L18.9421 17.5444L18.6737 17.5111L18.4336 17.4811L18.4053 17.5028L18.1435 17.6995L11.4779 22.6762L9.02035 23.4098L4.35039 25.6089C4.35039 25.6089 2.86653 24.812 2.93823 23.2264C3.00992 21.6392 4.94059 18.0063 5.62916 16.3657C6.31774 14.7251 11.9697 11.3406 11.9697 11.3406L11.953 11.344Z" stroke="url(#paint25_linear_343_8500)" stroke-width="0.35" stroke-miterlimit="10"/>
<g opacity="0.59">
<path d="M35.9207 31.1225C35.1737 29.647 34.7153 27.9864 34.8986 26.3475C35.1221 24.3502 36.2558 22.5862 37.0111 20.7206C38.4732 17.116 38.5049 12.9629 37.0977 9.33495" stroke="#72391E" stroke-width="0.68" stroke-miterlimit="10"/>
<path d="M34.2242 34.5637C34.7627 33.7084 34.3409 32.6097 34.0742 31.636C33.5507 29.7304 33.6874 27.7063 34.0208 25.759C34.3543 23.8117 34.8795 21.8993 35.1279 19.9403C35.3046 18.5498 35.3413 17.1343 35.6914 15.7755" stroke="#72391E" stroke-width="0.68" stroke-miterlimit="10"/>
<path d="M32.8166 36.131C32.4064 35.154 32.4998 34.3753 32.5065 33.3183C32.5315 29.2536 33.7736 25.2822 33.9686 21.2224C34.082 18.8799 33.8436 16.5191 33.2634 14.245" stroke="#72391E" stroke-width="0.68" stroke-miterlimit="10"/>
<path d="M33.6367 34.5654C30.8858 30.2139 30.519 24.4752 32.6947 19.8169" stroke="#72391E" stroke-width="0.68" stroke-miterlimit="10"/>
<path d="M33.3447 35.3207C31.364 33.7368 30.0002 31.4126 29.5901 28.9218C29.465 28.1615 29.425 27.3896 29.4184 26.6193C29.3933 23.89 29.3633 24.0217 29.7368 21.3174" stroke="#72391E" stroke-width="0.68" stroke-miterlimit="10"/>
<path d="M41.0224 16.8692C41.3308 19.6652 40.3538 19.5902 40.1237 20.9423C39.887 22.3378 39.8953 23.8317 39.1634 25.0454C38.8183 25.6173 38.3281 26.0875 37.923 26.6193C37.1944 27.5763 36.7476 28.74 36.6492 29.9338C36.7026 29.3736 36.7876 28.9835 37.066 28.4683C37.5428 27.5846 38.6582 27.2262 39.02 26.1642C39.1451 25.7974 39.1751 25.4072 39.2034 25.0204C39.4535 21.6976 39.7019 18.3748 39.952 15.0519" stroke="#72391E" stroke-width="0.68" stroke-miterlimit="10"/>
<path d="M39.0293 15.0853C38.8092 17.241 38.5791 19.4401 37.6938 21.4208C37.1837 22.5645 36.4534 23.6433 36.2817 24.882C36.1833 25.5973 36.2767 26.3309 36.1516 27.0428C36.0249 27.7547 35.5898 28.4916 34.8779 28.645" stroke="#72391E" stroke-width="0.68" stroke-miterlimit="10"/>
<path d="M28.0918 38.5001C27.9818 37.2797 27.3282 36.1176 26.3379 35.3824C25.3792 34.6721 24.1421 34.3553 23.2885 33.5217C22.5832 32.8331 22.2231 31.8578 22.1047 30.8858C21.953 29.6387 22.1931 28.3933 22.1481 27.1461" stroke="#72391E" stroke-width="0.68" stroke-miterlimit="10"/>
<path d="M25.7909 39.1887C25.1674 37.6181 25.3291 35.8425 25.7692 34.2103C26.2077 32.5797 26.908 31.0275 27.3565 29.3986C27.9433 27.2679 28.0867 25.0187 27.7783 22.8313" stroke="#72391E" stroke-width="0.68" stroke-miterlimit="10"/>
<path d="M27.5879 38.8002C25.3238 34.507 25.4788 30.0722 24.1517 25.4105C24.0216 24.9537 23.7232 24.3952 23.2514 24.4752" stroke="#72391E" stroke-width="0.68" stroke-miterlimit="10"/>
<path d="M26.79 39.0003C25.8097 38.1834 25.3946 37.4097 24.3125 36.6478C22.8653 35.6291 21.043 35.119 19.8376 33.8268C19.3858 33.3433 19.0423 32.7698 18.7406 32.1829C18.2937 31.316 17.9319 30.2589 18.3871 29.397" stroke="#72391E" stroke-width="0.68" stroke-miterlimit="10"/>
<path d="M25.627 39.5171C24.3382 38.3884 22.7543 37.6465 21.3788 36.6228C18.2177 34.267 16.3771 30.6057 14.6465 27.0795" stroke="#72391E" stroke-width="0.68" stroke-miterlimit="10"/>
<path d="M13.7998 28.8367C13.7681 30.1005 14.4667 31.2643 15.222 32.2846C17.5728 35.4624 20.7272 38.05 24.3135 39.7472C22.5162 38.8769 20.202 38.8886 18.3497 38.1383C15.0286 36.7895 12.3293 34.0119 11.0922 30.6741" stroke="#72391E" stroke-width="0.68" stroke-miterlimit="10"/>
<path d="M20.5439 39.6172C18.5683 39.4821 16.2658 39.1037 14.5318 38.1567C11.7425 36.6311 8.86821 34.9505 7.17762 32.2746C6.85918 31.7711 6.58908 31.1075 6.91419 30.6074" stroke="#72391E" stroke-width="0.68" stroke-miterlimit="10"/>
<path d="M22.9414 39.7989C21.5259 39.8356 20.3588 39.7789 19.1701 39.6522C17.8213 39.5071 16.7759 39.247 15.4621 38.9102C13.9016 38.5101 12.4477 37.8465 11.3407 37.258C10.3337 36.7228 9.69179 36.2476 8.83482 35.7141C7.80947 35.0756 6.98918 34.272 6.06719 33.4917C5.75041 33.2233 5.37528 32.7448 5.13186 32.4113" stroke="#72391E" stroke-width="0.68" stroke-miterlimit="10"/>
<path d="M22.9043 39.8172C19.6882 37.7865 16.9339 35.169 15.2166 31.7944C14.1279 29.657 14.3446 30.2206 12.9842 28.2432" stroke="#72391E" stroke-width="0.68" stroke-miterlimit="10"/>
<path d="M24.7578 39.5988C22.5254 37.6382 20.8965 35.1806 19.9778 32.303C19.2092 29.8971 18.7757 27.3629 17.6187 25.1138" stroke="#72391E" stroke-width="0.68" stroke-miterlimit="10"/>
<path d="M24.9551 38.3301C23.7547 36.6528 23.1428 34.5704 23.2428 32.518C23.3062 31.2226 23.643 29.9138 23.3679 28.645C23.1945 27.8447 22.786 27.1161 22.3842 26.4009" stroke="#72391E" stroke-width="0.68" stroke-miterlimit="10"/>
<path d="M28.6553 38.1666C27.6032 37.2263 27.1714 35.7958 26.8713 34.4253C26.1294 31.0392 25.9093 27.5413 26.2194 24.0901" stroke="#72391E" stroke-width="0.68" stroke-miterlimit="10"/>
<path d="M30.4424 37.5148C28.9919 35.0356 28.5451 31.9962 29.2236 29.2102C29.5404 27.9047 30.0973 26.5876 29.8505 25.2688C29.6754 24.3352 29.1153 23.5232 28.5684 22.743" stroke="#72391E" stroke-width="0.68" stroke-miterlimit="10"/>
<path d="M32.436 36.4411C31.9141 33.5851 31.9191 31.421 32.2092 28.5333C32.4576 26.0524 33.0078 23.5716 32.7627 21.0907" stroke="#72391E" stroke-width="0.68" stroke-miterlimit="10"/>
<path d="M34.7422 34.6604C34.1137 32.6281 34.8739 30.7708 35.4591 28.725C36.0443 26.681 36.7462 24.5986 36.5562 22.4812C36.4378 21.1641 35.9776 19.892 35.8959 18.5732" stroke="#72391E" stroke-width="0.68" stroke-miterlimit="10"/>
<path d="M36.4588 33.1266C37.0357 27.6463 36.7723 22.0527 38.0661 16.6958C38.2745 15.8339 38.5279 14.9686 38.998 14.2166" stroke="#72391E" stroke-width="0.68" stroke-miterlimit="10"/>
<path d="M37.9167 28.3933C38.797 25.8791 39.1855 23.1981 39.0521 20.5389C38.9904 19.2934 38.8137 18.048 38.8954 16.8026C38.9754 15.5571 39.3438 14.2783 40.2158 13.3797" stroke="#72391E" stroke-width="0.68" stroke-miterlimit="10"/>
<path d="M39.1525 11.8508C39.9261 13.1529 39.9711 15.0353 40.1295 16.5024C40.3179 18.2664 40.3445 20.0653 39.9444 21.8043C39.5493 23.5232 38.7557 25.1204 38.1554 26.7794C37.5552 28.4383 37.0201 29.9855 37.4285 31.7011C37.3202 29.0868 36.9784 27.5563 37.4085 25.2505C37.8403 22.9463 38.4822 20.6772 38.7607 18.3497C38.8357 17.7212 38.8824 17.0793 38.7407 16.4624C38.5973 15.8455 38.2371 15.252 37.6719 14.9602" stroke="#492112" stroke-width="0.68" stroke-miterlimit="10"/>
<path d="M36.2694 32.7631C35.3957 31.5827 35.3391 29.9871 35.5841 28.545C35.8292 27.1011 36.3377 25.704 36.4761 24.2468C36.6929 21.9543 35.9793 19.6869 35.274 17.4928" stroke="#492112" stroke-width="0.68" stroke-miterlimit="10"/>
<path d="M34.8458 33.9135C34.0572 32.9965 33.6654 31.7894 33.597 30.5857C33.5287 29.3836 33.7671 28.1815 34.1222 27.0294C34.3673 26.2375 34.6691 25.4556 34.7874 24.6353C35.1276 22.2578 33.8821 19.8836 34.1122 17.4928" stroke="#492112" stroke-width="0.68" stroke-miterlimit="10"/>
<path d="M33.0452 34.6138C32.3233 30.4623 33.2403 26.2175 34.2656 22.1311C34.459 21.3591 34.5757 20.3655 33.9038 19.932" stroke="#492112" stroke-width="0.68" stroke-miterlimit="10"/>
<path d="M32.1052 34.7988C31.3166 32.9949 31.0798 30.9575 31.435 29.0235C31.7968 27.0561 32.7521 25.1988 32.8405 23.2014C32.8705 22.5279 32.7021 21.7143 32.0669 21.4758" stroke="#492112" stroke-width="0.68" stroke-miterlimit="10"/>
<path d="M31.6876 37.0263C30.3738 32.3396 30.4988 27.2679 32.041 22.6512" stroke="#492112" stroke-width="0.68" stroke-miterlimit="10"/>
<path d="M26.7728 24.2035C27.3763 24.9971 27.5097 26.0374 27.6181 27.0261C27.8715 29.3353 28.1066 31.6461 28.3233 33.9602C28.47 35.5324 28.6084 37.1246 28.375 38.6869" stroke="#492112" stroke-width="0.68" stroke-miterlimit="10"/>
<path d="M18.5541 25.4105C18.1806 26.0374 18.214 26.8394 18.4674 27.5229C18.7191 28.2065 19.1676 28.8001 19.6094 29.3819C22.252 32.8615 25.063 36.4711 29.0527 38.295C26.3168 35.1089 24.3161 30.549 23.4474 26.4559" stroke="#492112" stroke-width="0.68" stroke-miterlimit="10"/>
<path d="M38.169 30.7174C39.9062 26.7177 40.8449 22.3795 40.9133 18.0246C40.9333 16.7825 40.8599 15.4671 40.168 14.4317" stroke="#492112" stroke-width="0.68" stroke-miterlimit="10"/>
<path d="M37.4143 29.1702C38.298 25.0921 39.1849 20.889 38.4397 16.7842C38.2646 15.8189 37.9312 14.7752 37.0842 14.27" stroke="#492112" stroke-width="0.68" stroke-miterlimit="10"/>
<path d="M35.9296 31.2909C36.1264 25.7107 36.1497 20.1237 36.003 14.5418" stroke="#492112" stroke-width="0.68" stroke-miterlimit="10"/>
<path d="M31.4527 35.3073C31.4894 30.2456 31.5144 25.1088 30.1689 20.2271" stroke="#492112" stroke-width="0.68" stroke-miterlimit="10"/>
<path d="M29.8965 36.6244C29.6497 33.5984 29.403 30.5707 28.9595 27.5663C28.7011 25.8173 28.3576 24.0251 27.3889 22.5395" stroke="#492112" stroke-width="0.68" stroke-miterlimit="10"/>
<path d="M28.8027 38.2283C28.0741 35.9159 27.6173 33.5284 26.9304 31.2026C26.2435 28.8784 25.3032 26.5793 23.741 24.7153" stroke="#492112" stroke-width="0.68" stroke-miterlimit="10"/>
<path d="M27.7324 38.7102C25.9135 33.4317 23.561 28.8717 20.4265 24.2401" stroke="#492112" stroke-width="0.68" stroke-miterlimit="10"/>
<path d="M26.9297 38.1433C22.0997 35.9459 17.4447 32.8281 14.8738 28.2165" stroke="#492112" stroke-width="0.68" stroke-miterlimit="10"/>
<path d="M28.0764 38.2183C28.625 38.3901 29.1952 38.0766 29.6787 37.7665C33.3866 35.3907 36.9045 32.3813 38.6235 28.3482C39.9406 25.2572 40.0973 21.786 39.7055 18.4531" stroke="#492112" stroke-width="0.68" stroke-miterlimit="10"/>
<path d="M37.0567 30.6124C38.0654 28.4099 39.0758 26.1992 39.7944 23.8867C40.5113 21.5742 40.9314 19.1434 40.728 16.7325C40.6146 15.3987 40.2462 13.9716 39.1858 13.1413" stroke="#492112" stroke-width="0.68" stroke-miterlimit="10"/>
<path d="M34.4517 33.2349C35.322 29.7071 35.9872 26.1308 36.4441 22.5262C36.5691 21.5442 36.6775 20.5455 36.5174 19.5685C36.359 18.5915 35.8989 17.6228 35.0869 17.046" stroke="#492112" stroke-width="0.68" stroke-miterlimit="10"/>
<path d="M29.7352 35.6691C30.1686 32.9032 30.6021 30.1389 31.0356 27.3729C31.2757 25.8374 31.5174 24.2868 31.4174 22.7363C31.3174 21.1857 32.106 20.8523 31.0756 19.6802" stroke="#492112" stroke-width="0.68" stroke-miterlimit="10"/>
<path d="M26.9363 36.6511C27.3598 31.7861 27.5832 26.9044 27.6016 22.021" stroke="#492112" stroke-width="0.68" stroke-miterlimit="10"/>
<path d="M24.7256 37.8332C23.5502 32.5364 22.98 28.6767 23.2101 23.2581" stroke="#492112" stroke-width="0.68" stroke-miterlimit="10"/>
<path d="M20.3789 38.5418C18.6383 34.8638 17.3345 30.9825 16.5059 27.0044" stroke="#492112" stroke-width="0.68" stroke-miterlimit="10"/>
<path d="M20.332 39.3204C17.5927 37.6231 14.8151 35.8959 12.6544 33.5167C12.1242 32.9332 11.6157 32.2729 11.4973 31.4943" stroke="#492112" stroke-width="0.68" stroke-miterlimit="10"/>
<path d="M22.5166 38.0983C18.4335 39.4854 14.077 38.8202 10.3057 36.7312C9.12526 36.0776 7.55305 35.0939 6.91116 34.0986" stroke="#492112" stroke-width="0.68" stroke-miterlimit="10"/>
<path d="M31.2442 36.7395C31.1959 36.6978 31.1842 36.8379 31.2492 36.8262C31.3143 36.8145 31.3309 36.7345 31.3343 36.6695C31.581 31.9328 31.0925 27.1612 29.8904 22.5696" stroke="#492112" stroke-width="0.68" stroke-miterlimit="10"/>
<path style="mix-blend-mode:multiply" opacity="0.32" d="M33.3215 35.7008C33.3232 31.1592 33.4799 26.6176 33.79 22.0861L33.3215 35.7008Z" fill="url(#paint26_linear_343_8500)"/>
<path d="M37.3015 31.8478C38.4269 27.5263 39.3005 24.005 39.4205 19.6135C39.4789 17.4761 39.4155 15.3003 38.7653 13.2613" stroke="#916436" stroke-width="0.68" stroke-miterlimit="10"/>
<path d="M36.3343 33.1749C37.2779 27.8414 38.2216 22.3445 37.0495 17.0543" stroke="#916436" stroke-width="0.68" stroke-miterlimit="10"/>
<path d="M34.8077 34.1503C35.7197 29.8337 36.6316 25.3539 35.6346 21.0574" stroke="#916436" stroke-width="0.68" stroke-miterlimit="10"/>
<path d="M33.7822 34.6904C33.6105 29.7654 33.4404 24.8387 33.2687 19.9136" stroke="#916436" stroke-width="0.68" stroke-miterlimit="10"/>
<path d="M30.6683 22.908C30.2132 26.9978 31.0618 31.2226 33.0625 34.8305C30.9868 32.8365 28.736 31.4226 27.3438 28.9101C26.5869 27.5463 26.0551 25.9007 26.6153 24.4485" stroke="#916436" stroke-width="0.68" stroke-miterlimit="10"/>
<path d="M32.6934 35.1806C31.0061 34.8322 29.2755 34.4671 27.8217 33.5501C27.2865 33.2133 26.7996 32.8065 26.3328 32.383C23.7019 30.0038 21.5628 26.8761 21.2027 23.3649" stroke="#916436" stroke-width="0.68" stroke-miterlimit="10"/>
<path d="M33.416 35.7508C30.7518 35.1473 28.481 34.7805 25.9701 33.7084C23.4592 32.6381 21.0984 31.1042 19.4161 28.9685" stroke="#916436" stroke-width="0.68" stroke-miterlimit="10"/>
<path d="M31.6777 36.0676C28.4466 36.7378 25.0221 37.398 21.906 36.3177C20.2604 35.7475 18.7882 34.6988 17.7162 33.3366" stroke="#916436" stroke-width="0.68" stroke-miterlimit="10"/>
<path d="M31.3672 37.193C27.2441 37.268 23.0493 37.3364 19.0796 36.2243C17.8742 35.8875 16.6637 35.4207 15.7601 34.5621" stroke="#916436" stroke-width="0.68" stroke-miterlimit="10"/>
<path d="M30.3828 36.0343C28.6505 36.7562 26.8683 37.3614 25.0526 37.8432C23.9439 38.1383 22.8068 38.3884 21.6581 38.3534C20.7011 38.3251 19.7624 38.0983 18.8371 37.8582C17.3816 37.4814 15.8844 37.0396 14.7457 36.0609" stroke="#916436" stroke-width="0.68" stroke-miterlimit="10"/>
<path d="M32.4414 36.0976C29.5437 36.0643 26.6577 36.5194 23.7617 36.4744C20.8657 36.4294 17.838 35.8175 15.6305 33.9552" stroke="#916436" stroke-width="0.68" stroke-miterlimit="10"/>
<path d="M31.8828 35.0739C29.2019 35.8825 26.3242 35.9809 23.5599 35.5157C21.3808 35.1489 19.135 34.3503 17.7762 32.6231" stroke="#916436" stroke-width="0.68" stroke-miterlimit="10"/>
<path d="M32.9385 35.0372C29.2055 32.7814 25.8693 29.8821 23.1217 26.5109" stroke="#916436" stroke-width="0.68" stroke-miterlimit="10"/>
<path d="M34.3975 34.9522C32.4418 32.403 30.7278 29.9388 29.0823 27.1812C28.4987 26.2042 27.9152 25.0871 28.1853 23.985" stroke="#916436" stroke-width="0.68" stroke-miterlimit="10"/>
<path d="M35.0693 34.2986C32.7402 29.8104 31.1363 25.4122 29.9109 20.5138" stroke="#916436" stroke-width="0.68" stroke-miterlimit="10"/>
<path d="M35.4609 33.7668C34.5423 29.5136 34.1788 25.1421 34.3856 20.7989" stroke="#916436" stroke-width="0.68" stroke-miterlimit="10"/>
<path d="M36.1961 32.4313C36.6813 27.593 37.1598 22.6496 36.0327 17.9179" stroke="#916436" stroke-width="0.68" stroke-miterlimit="10"/>
<path d="M37.2466 31.6677C38.1569 28.4883 38.9505 25.2755 39.6241 22.0394C39.9109 20.6656 40.1176 19.0633 39.1756 18.0163" stroke="#916436" stroke-width="0.68" stroke-miterlimit="10"/>
<path d="M38.4756 28.9785C39.6527 25.5106 40.698 21.811 39.9244 18.233C39.6477 16.9526 39.0941 15.6605 38.0354 14.8769" stroke="#916436" stroke-width="0.68" stroke-miterlimit="10"/>
<path d="M34.5039 31.536C33.937 27.0545 33.5569 22.5512 33.3618 18.0397" stroke="#916436" stroke-width="0.68" stroke-miterlimit="10"/>
<path d="M31.9131 33.5817C31.5196 31.531 31.1228 29.4686 30.3992 27.5096C29.674 25.5489 28.6003 23.6766 27.0314 22.2845" stroke="#916436" stroke-width="0.68" stroke-miterlimit="10"/>
<path d="M32.3398 35.7441C28.6219 35.0239 25.5992 32.4297 22.7682 29.9305" stroke="#916436" stroke-width="0.68" stroke-miterlimit="10"/>
<path d="M36.6113 32.2179C35.0158 34.1419 32.7333 35.3957 30.3808 36.271C28.0283 37.1463 25.3791 37.6798 23.0249 36.8045" stroke="#916436" stroke-width="0.68" stroke-miterlimit="10"/>
<path d="M34.3438 34.6854C32.058 36.5678 29.2036 37.7632 26.2476 38.075C23.2916 38.3867 20.2472 37.8132 17.6113 36.4494" stroke="#916436" stroke-width="0.68" stroke-miterlimit="10"/>
<path d="M31.7832 36.8762C29.5141 38.4367 27.305 39.0036 24.8925 39.5255C22.48 40.0473 19.9024 40.094 17.5916 39.227" stroke="#916436" stroke-width="0.68" stroke-miterlimit="10"/>
<path d="M27.6426 38.7285C25.2634 39.4554 22.7409 40.2157 20.345 39.8339C17.9492 39.4521 15.6284 38.5001 13.7561 36.9696" stroke="#916436" stroke-width="0.68" stroke-miterlimit="10"/>
<path d="M30.8444 37.243C31.7914 37.0196 32.51 36.2744 33.1585 35.5558C34.3956 34.182 35.5894 32.7698 36.7381 31.3226C37.2333 30.6991 37.9569 30.0122 38.2253 29.2569C38.4504 28.625 38.5654 27.8914 38.7488 27.2362C39.4357 24.782 39.9959 22.2928 40.4277 19.7819" stroke="#916436" stroke-width="0.68" stroke-miterlimit="10"/>
<path d="M36.2363 33.0532C33.8822 36.0743 30.6761 37.7865 27.4616 38.8202" stroke="#916436" stroke-width="0.68" stroke-miterlimit="10"/>
<path d="M34.8867 34.4437C32.2808 35.9959 29.85 37.6682 27.0573 38.8586C26.1303 39.2537 25.15 39.6355 24.1446 39.5488" stroke="#916436" stroke-width="0.68" stroke-miterlimit="10"/>
<path d="M17.6709 31.3276C19.3381 33.2083 21.7556 34.3103 24.2248 34.8338C25.8021 35.1689 27.416 35.2873 29.0248 35.3307C29.7418 35.349 30.6237 35.4857 31.3256 35.3407C31.8225 35.239 32.286 34.9105 32.7578 34.7205C29.4116 32.593 26.4806 29.8921 23.7713 27.0078" stroke="#916436" stroke-width="0.68" stroke-miterlimit="10"/>
<path d="M33.5176 33.3567C31.2885 30.1572 29.2628 26.8177 27.4571 23.3649" stroke="#916436" stroke-width="0.68" stroke-miterlimit="10"/>
<path d="M33.1875 31.7228C32.8574 29.7004 32.5073 27.6797 32.1405 25.664C32.0471 25.1538 31.9504 24.6336 31.6986 24.1801" stroke="#916436" stroke-width="0.68" stroke-miterlimit="10"/>
<path d="M33.5465 33.7818C33.905 29.7137 34.2418 25.4806 32.7763 21.6643" stroke="#916436" stroke-width="0.68" stroke-miterlimit="10"/>
<path d="M35.004 31.6577C35.7509 28.685 36.3211 25.6706 36.7129 22.6312" stroke="#916436" stroke-width="0.68" stroke-miterlimit="10"/>
<path d="M36.2227 31.7544C36.5595 28.6667 36.8979 25.5789 37.2347 22.4929C37.3731 21.2257 37.5031 19.8936 37.008 18.7165" stroke="#916436" stroke-width="0.68" stroke-miterlimit="10"/>
<path d="M36.2795 32.8281C37.7684 27.818 39.2722 22.6029 38.4436 17.4428" stroke="#916436" stroke-width="0.68" stroke-miterlimit="10"/>
<path d="M35.3818 33.8335C36.2621 28.8984 36.7606 23.8967 36.8707 18.8866C36.9224 16.5641 36.884 14.2033 36.2204 11.9759" stroke="#916436" stroke-width="0.68" stroke-miterlimit="10"/>
<path d="M33.7598 33.9519C31.8624 28.5216 31.5373 22.5629 32.8294 16.9643" stroke="#916436" stroke-width="0.68" stroke-miterlimit="10"/>
<path d="M33.9082 34.6371C29.9001 32.2813 26.4039 29.0735 23.7247 25.2938" stroke="#916436" stroke-width="0.68" stroke-miterlimit="10"/>
<path d="M33.8906 35.3357C31.2647 34.9038 28.6021 34.4604 26.1829 33.3616C25.0109 32.8298 23.9121 32.1496 22.8418 31.436C20.1725 29.6554 18.3169 28.4699 16.3745 25.9274" stroke="#916436" stroke-width="0.68" stroke-miterlimit="10"/>
<path d="M32.835 36.1859C26.1893 35.5807 19.5903 34.7821 14.0651 31.0692" stroke="#916436" stroke-width="0.68" stroke-miterlimit="10"/>
<path d="M30.0918 37.6265C24.2281 38.7569 17.9209 37.4197 13.0359 34.0102" stroke="#916436" stroke-width="0.68" stroke-miterlimit="10"/>
<path d="M27.6611 38.8002C25.337 39.3454 22.9428 40.0306 20.6537 39.999C20.0151 39.9906 19.3732 39.974 18.743 39.8689C17.8861 39.7255 17.0658 39.4221 16.2638 39.092C13.7346 38.0483 11.2387 36.6478 9.65819 34.4287" stroke="#916436" stroke-width="0.68" stroke-miterlimit="10"/>
<path d="M36.7046 32.6297C40.1292 27.9981 41.5663 21.9694 40.5993 16.304" stroke="#916436" stroke-width="0.68" stroke-miterlimit="10"/>
<path d="M39.6255 14.5351C39.8506 20.869 38.245 27.5046 35.9209 33.4083C37.223 32.2579 38.1967 30.6457 38.9536 29.0868C40.054 26.8194 40.7592 24.5953 41.0593 22.0977C41.3594 19.6002 41.141 16.5775 40.079 14.2917" stroke="#916436" stroke-width="0.68" stroke-miterlimit="10"/>
<path d="M37.4782 15.5521C37.6165 21.8326 36.7296 28.1348 34.8639 34.1386C34.6122 34.9455 33.4901 35.6241 32.6181 36.296" stroke="#916436" stroke-width="0.68" stroke-miterlimit="10"/>
<path d="M34.1789 18.9216C34.364 21.7943 34.5491 24.677 34.334 27.5463C34.1173 30.4156 33.4854 33.2916 32.1199 35.8308C31.9648 36.1176 31.7931 36.4094 31.5264 36.5978" stroke="#916436" stroke-width="0.68" stroke-miterlimit="10"/>
<path d="M33.0303 23.4849C32.7335 27.1095 32.1566 30.7057 31.4714 34.277C31.3097 35.1239 31.1379 35.9776 30.7778 36.7612C30.4177 37.5448 29.4057 38.0583 28.6254 38.4368" stroke="#916436" stroke-width="0.68" stroke-miterlimit="10"/>
<path d="M33.5586 35.1339C31.036 31.3143 28.4235 27.553 25.7242 23.855" stroke="#916436" stroke-width="0.68" stroke-miterlimit="10"/>
<path d="M32.0264 34.5637C27.6498 33.0582 23.7501 30.2156 20.9959 26.5226" stroke="#916436" stroke-width="0.68" stroke-miterlimit="10"/>
<path d="M30.5098 35.434C29.9479 35.249 29.4477 34.9539 28.8759 34.8338C28.1106 34.6721 27.307 34.6221 26.5334 34.5004C24.9795 34.257 23.4306 33.9602 21.9184 33.525C19.4492 32.8131 17.0551 31.7077 15.1444 30.0005" stroke="#916436" stroke-width="0.68" stroke-miterlimit="10"/>
<path d="M29.8721 37.6448C28.5166 34.0386 30.0071 29.9605 29.2368 26.1892C28.9501 24.7803 28.3465 23.4249 28.3082 21.9877" stroke="#492112" stroke-width="0.68" stroke-miterlimit="10"/>
<path d="M22.7729 23.4099C22.1143 24.1885 22.0776 25.3055 22.176 26.3175C22.3994 28.625 23.1863 30.8675 24.4084 32.8415C25.0386 33.8602 25.7856 34.8072 26.6325 35.6558C27.0427 36.0676 27.4778 36.4561 27.933 36.8179C28.2531 37.073 28.8716 37.3564 29.04 37.7065C28.3081 38.0483 26.886 38.0666 26.084 38.11C24.6168 38.19 23.1346 37.9316 21.7658 37.4081C19.6751 36.6095 17.8461 35.2223 16.3406 33.5751C15.562 32.7231 14.8418 31.7528 14.625 30.6224" stroke="#492112" stroke-width="0.68" stroke-miterlimit="10"/>
<path d="M9.38029 34.1436C9.81544 35.0823 10.6841 35.7508 11.5761 36.286C13.9435 37.7065 16.6795 38.4501 19.4321 38.7435C22.1831 39.0386 24.9641 38.9019 27.7217 38.6668C25.4542 37.7915 22.835 35.9059 21.111 34.2019C19.3871 32.4997 17.9233 30.5557 16.5211 28.585C16.101 27.9931 15.6675 27.3446 15.6842 26.621" stroke="#492112" stroke-width="0.68" stroke-miterlimit="10"/>
<path d="M33.465 33.8318C34.0286 28.8984 34.1853 23.8417 32.9582 19.0283C32.6998 18.018 32.4547 17.2677 31.8195 16.269" stroke="#492112" stroke-width="0.68" stroke-miterlimit="10"/>
<path d="M25.1836 39.4421C21.5923 38.8302 17.9094 38.1867 14.7716 36.3477C13.5079 35.6074 12.3541 34.6821 11.3604 33.6118C10.2884 32.4563 9.36475 31.0142 9.42143 29.4453" stroke="#492112" stroke-width="0.68" stroke-miterlimit="10"/>
<path d="M35.7946 30.8608C36.4498 27.9431 37.1067 25.0237 37.7619 22.1061C38.0304 20.9106 38.3005 19.6986 38.2571 18.4731C38.2138 17.2477 37.822 15.9889 36.9367 15.1336" stroke="#492112" stroke-width="0.68" stroke-miterlimit="10"/>
<path d="M32.7242 33.8351C33.216 31.4727 33.7078 29.1118 34.1997 26.7493C34.5365 25.1288 34.8766 23.4932 34.8566 21.8376C34.8366 20.182 34.4281 18.4848 33.4061 17.1743" stroke="#492112" stroke-width="0.68" stroke-miterlimit="10"/>
<path d="M21.9102 37.338C20.1862 32.7898 19.3409 28.8818 19.2626 24.0251" stroke="#492112" stroke-width="0.68" stroke-miterlimit="10"/>
<path d="M21.9463 36.3394C16.7812 35.8092 11.4376 35.0089 7.11612 32.1546" stroke="#492112" stroke-width="0.68" stroke-miterlimit="10"/>
</g>
<path style="mix-blend-mode:multiply" opacity="0.71" d="M36.0533 4.77667C36.5451 5.39355 37.0103 6.04044 37.4487 6.71734C44.1344 17.0643 41.7586 30.5323 32.1402 36.7995C22.5235 43.0667 9.30727 39.7589 2.61994 29.4102C1.94637 28.3682 1.36617 27.2962 0.875996 26.2008L10.1326 28.1015C10.7578 28.2298 11.4063 28.1631 11.9915 27.9114L20.6779 24.1334C23.3805 23.6916 28.5156 22.7579 30.0695 20.5021L33.2656 15.6605C34.9929 14.375 34.446 11.8925 34.9195 9.79175L36.0533 4.77V4.77667Z" fill="url(#paint27_linear_343_8500)"/>
<defs>
<linearGradient id="paint0_linear_343_8500" x1="25.9229" y1="39.4645" x2="17.9339" y2="9.62814" gradientUnits="userSpaceOnUse">
<stop offset="0.14" stop-color="#683C11"/>
<stop offset="1" stop-color="#936037"/>
</linearGradient>
<linearGradient id="paint1_linear_343_8500" x1="25.9229" y1="39.4645" x2="17.9339" y2="9.62814" gradientUnits="userSpaceOnUse">
<stop offset="0.14" stop-color="#683C11"/>
<stop offset="0.99" stop-color="#936037" stop-opacity="0"/>
</linearGradient>
<linearGradient id="paint2_linear_343_8500" x1="31.9924" y1="4.58399" x2="2.04052" y2="22.8308" gradientUnits="userSpaceOnUse">
<stop stop-color="#B2B2B2"/>
<stop offset="0.51" stop-color="#F6F6F6"/>
</linearGradient>
<linearGradient id="paint3_linear_343_8500" x1="32.018" y1="4.56838" x2="2.01489" y2="22.8464" gradientUnits="userSpaceOnUse">
<stop offset="0.49" stop-color="white"/>
<stop offset="1" stop-color="white"/>
</linearGradient>
<linearGradient id="paint4_linear_343_8500" x1="37.0459" y1="17.1157" x2="23.9601" y2="13.607" gradientUnits="userSpaceOnUse">
<stop offset="0.49" stop-color="#F6F6F6"/>
<stop offset="1" stop-color="#B2B2B2"/>
</linearGradient>
<linearGradient id="paint5_linear_343_8500" x1="30.7042" y1="19.1696" x2="20.8826" y2="16.5361" gradientUnits="userSpaceOnUse">
<stop offset="0.05" stop-color="#F6F6F6"/>
<stop offset="0.7" stop-color="#9D9D9C"/>
</linearGradient>
<linearGradient id="paint6_linear_343_8500" x1="26.6484" y1="19.893" x2="19.6272" y2="18.0103" gradientUnits="userSpaceOnUse">
<stop offset="0.49" stop-color="#F6F6F6"/>
<stop offset="1" stop-color="#B2B2B2"/>
</linearGradient>
<linearGradient id="paint7_linear_343_8500" x1="22.3814" y1="23.0728" x2="20.4457" y2="15.846" gradientUnits="userSpaceOnUse">
<stop offset="0.05" stop-color="#F6F6F6"/>
<stop offset="0.7" stop-color="#9D9D9C"/>
</linearGradient>
<linearGradient id="paint8_linear_343_8500" x1="18.3648" y1="28.353" x2="15.2507" y2="16.721" gradientUnits="userSpaceOnUse">
<stop offset="0.49" stop-color="#F6F6F6"/>
<stop offset="1" stop-color="#B2B2B2"/>
</linearGradient>
<linearGradient id="paint9_linear_343_8500" x1="12.5071" y1="29.9205" x2="10.1455" y2="21.1019" gradientUnits="userSpaceOnUse">
<stop offset="0.05" stop-color="#F6F6F6"/>
<stop offset="0.7" stop-color="#9D9D9C"/>
</linearGradient>
<linearGradient id="paint10_linear_343_8500" x1="8.28767" y1="30.7741" x2="6.02192" y2="22.3126" gradientUnits="userSpaceOnUse">
<stop offset="0.49" stop-color="#F6F6F6"/>
<stop offset="1" stop-color="#B2B2B2"/>
</linearGradient>
<linearGradient id="paint11_linear_343_8500" x1="4.37764" y1="29.3893" x2="-0.0587602" y2="12.8198" gradientUnits="userSpaceOnUse">
<stop offset="0.05" stop-color="#F6F6F6"/>
<stop offset="0.7" stop-color="#9D9D9C"/>
</linearGradient>
<linearGradient id="paint12_linear_343_8500" x1="6.18788" y1="16.0154" x2="4.23317" y2="8.71784" gradientUnits="userSpaceOnUse">
<stop offset="0.49" stop-color="#F6F6F6"/>
<stop offset="1" stop-color="#B2B2B2"/>
</linearGradient>
<linearGradient id="paint13_linear_343_8500" x1="11.3097" y1="13.2047" x2="8.92909" y2="4.31541" gradientUnits="userSpaceOnUse">
<stop offset="0.05" stop-color="#F6F6F6"/>
<stop offset="0.7" stop-color="#9D9D9C"/>
</linearGradient>
<linearGradient id="paint14_linear_343_8500" x1="15.1578" y1="9.31683" x2="13.3274" y2="2.48248" gradientUnits="userSpaceOnUse">
<stop offset="0.49" stop-color="#F6F6F6"/>
<stop offset="1" stop-color="#B2B2B2"/>
</linearGradient>
<linearGradient id="paint15_linear_343_8500" x1="23.9201" y1="4.07844" x2="18.5737" y2="2.64487" gradientUnits="userSpaceOnUse">
<stop offset="0.05" stop-color="#F6F6F6"/>
<stop offset="0.7" stop-color="#9D9D9C"/>
</linearGradient>
<linearGradient id="paint16_linear_343_8500" x1="30.6094" y1="3.3934" x2="19.6541" y2="0.455884" gradientUnits="userSpaceOnUse">
<stop offset="0.49" stop-color="#F6F6F6"/>
<stop offset="1" stop-color="#B2B2B2"/>
</linearGradient>
<linearGradient id="paint17_linear_343_8500" x1="37.7676" y1="15.0602" x2="23.6443" y2="15.0602" gradientUnits="userSpaceOnUse">
<stop offset="0.24" stop-color="#F6F6F6"/>
<stop offset="0.6" stop-color="white" stop-opacity="0"/>
</linearGradient>
<linearGradient id="paint18_linear_343_8500" x1="26.5234" y1="18.8299" x2="19.9862" y2="18.8299" gradientUnits="userSpaceOnUse">
<stop offset="0.49" stop-color="#F6F6F6"/>
<stop offset="1" stop-color="white" stop-opacity="0"/>
</linearGradient>
<linearGradient id="paint19_linear_343_8500" x1="20.04" y1="25.2755" x2="12.1939" y2="20.7456" gradientUnits="userSpaceOnUse">
<stop offset="0.05" stop-color="#F6F6F6"/>
<stop offset="0.57" stop-color="white" stop-opacity="0"/>
</linearGradient>
<linearGradient id="paint20_linear_343_8500" x1="10.957" y1="26.701" x2="4.23302" y2="26.701" gradientUnits="userSpaceOnUse">
<stop offset="0.49" stop-color="#F6F6F6"/>
<stop offset="1" stop-color="white" stop-opacity="0"/>
</linearGradient>
<linearGradient id="paint21_linear_343_8500" x1="12.3174" y1="11.9542" x2="-1.86256" y2="11.9542" gradientUnits="userSpaceOnUse">
<stop offset="0.49" stop-color="#F6F6F6"/>
<stop offset="1" stop-color="white" stop-opacity="0"/>
</linearGradient>
<linearGradient id="paint22_linear_343_8500" x1="16.5354" y1="9.63835" x2="11.7238" y2="1.30378" gradientUnits="userSpaceOnUse">
<stop stop-color="white" stop-opacity="0"/>
<stop offset="0.39" stop-color="#F6F6F6"/>
</linearGradient>
<linearGradient id="paint23_linear_343_8500" x1="31.3662" y1="1.85564" x2="19.9672" y2="1.85564" gradientUnits="userSpaceOnUse">
<stop offset="0.28" stop-color="white" stop-opacity="0"/>
<stop offset="0.51" stop-color="#F6F6F6"/>
</linearGradient>
<linearGradient id="paint24_linear_343_8500" x1="32.1114" y1="4.51485" x2="2.15811" y2="22.7626" gradientUnits="userSpaceOnUse">
<stop stop-color="#9D9D9C"/>
<stop offset="0.7" stop-color="#F6F6F6"/>
</linearGradient>
<linearGradient id="paint25_linear_343_8500" x1="29.816" y1="17.915" x2="5.95367" y2="11.5166" gradientUnits="userSpaceOnUse">
<stop offset="0.49" stop-color="white"/>
<stop offset="1" stop-color="white"/>
</linearGradient>
<linearGradient id="paint26_linear_343_8500" x1="33.5809" y1="29.1978" x2="33.4243" y2="29.1933" gradientUnits="userSpaceOnUse">
<stop offset="0.14" stop-color="#683C11"/>
<stop offset="0.99" stop-color="#936037" stop-opacity="0"/>
</linearGradient>
<linearGradient id="paint27_linear_343_8500" x1="25.9229" y1="39.4645" x2="17.9339" y2="9.62813" gradientUnits="userSpaceOnUse">
<stop offset="0.06" stop-color="#6B3E13" stop-opacity="0.83"/>
<stop offset="0.5" stop-color="#936037" stop-opacity="0"/>
</linearGradient>
</defs>
</svg>
