<svg width="82" height="89" viewBox="0 0 82 89" fill="none" xmlns="http://www.w3.org/2000/svg">
<path d="M40.6768 89L80.5108 65.9751V37.6698L81.3537 37.1858V25.4395L40.6768 48.9267V89Z" fill="#FF4333"/>
<g opacity="0.45">
<path d="M40.6787 89L80.5128 65.975V37.6697L81.3557 37.1858V25.4395L40.6787 48.9266V89Z" fill="white"/>
</g>
<path opacity="0.15" d="M40.6768 60.6675L55.9306 51.8632L80.5108 37.6697V39.361L40.6768 62.3533V60.6675Z" fill="black"/>
<path d="M40.677 89L1.06043 66.1437V37.7949L0 37.1858V25.4395L40.677 48.9267V89Z" fill="#FF4333"/>
<path opacity="0.3" d="M40.677 89L1.06043 66.1437V37.7949L0 37.1858V25.4395L40.677 48.9267V89Z" fill="white"/>
<path opacity="0.1" d="M1.05664 37.7949L40.6786 60.6675V62.3533L1.05664 39.5024V37.7949Z" fill="black"/>
<path d="M0 25.4395L40.677 1.95776L81.354 25.4395L40.677 48.9266L0 25.4395Z" fill="#FF4333"/>
<g opacity="0.6">
<path d="M0 25.4395L40.677 1.95776L81.354 25.4395L40.677 48.9266L0 25.4395Z" fill="white"/>
</g>
<path d="M24.1561 79.467V39.3882L17.5488 35.5761V75.6549L24.1561 79.467Z" fill="#EBEBEB"/>
<path d="M24.1561 79.467V39.3882L17.5488 35.5761V75.6549L24.1561 79.467Z" fill="#FF4333"/>
<path opacity="0.4" d="M24.1561 79.467V39.3882L17.5488 35.5761V75.6549L24.1561 79.467Z" fill="black"/>
<path d="M57.1982 79.467V39.3882L63.8055 35.5761V75.6549L57.1982 79.467Z" fill="#FF4333"/>
<path opacity="0.15" d="M57.1982 79.467V39.3882L63.8055 35.5761V75.6549L57.1982 79.467Z" fill="black"/>
<path d="M17.5488 35.5761L58.2258 12.0889L64.8331 15.9065L24.1561 39.3882L17.5488 35.5761Z" fill="#FF4333"/>
<path opacity="0.25" d="M40.1385 30.1652L33.5312 26.3476L40.1385 22.5355L46.7458 26.3476L40.1385 30.1652Z" fill="black"/>
<path d="M57.1994 39.3882L16.5225 15.9065L23.1297 12.0889L63.8067 35.5761L57.1994 39.3882Z" fill="#FF4333"/>
<path d="M39.0908 29.0613L48.4444 44.4511V71.2664L54.2305 63.0875V41.1339L40.4449 26.228L39.0908 29.0613Z" fill="#FF4333"/>
<path d="M40.6956 27.4461L67.6413 28.2781L72.2909 22.0134L40.6357 24.863L40.6956 27.4461Z" fill="#FF4333"/>
<path d="M14.5654 15.292C14.5654 15.292 16.1969 21.8177 23.7721 24.3355C31.3474 26.8534 40.1245 27.4516 40.1245 27.4516L22.9129 6.91187L14.5654 15.292Z" fill="#FF4333"/>
<path opacity="0.4" d="M14.5654 15.292C14.5654 15.292 16.1969 21.8177 23.7721 24.3355C31.3474 26.8534 40.1245 27.4516 40.1245 27.4516L22.9129 6.91187L14.5654 15.292Z" fill="black"/>
<path d="M40.1245 27.4516C40.1245 27.4516 40.3094 21.0183 36.9867 16.1566C33.664 11.295 22.9129 6.91187 22.9129 6.91187C19.7796 9.33231 16.9736 12.1492 14.5654 15.292C14.5654 15.292 28.8568 15.1778 38.678 27.2286L40.1245 27.4516Z" fill="#FF4333"/>
<path opacity="0.1" d="M40.1245 27.4516C40.1245 27.4516 40.3094 21.0183 36.9867 16.1566C33.664 11.295 22.9129 6.91187 22.9129 6.91187C19.7796 9.33231 16.9736 12.1492 14.5654 15.292C14.5654 15.292 28.8568 15.1778 38.678 27.2286L40.1245 27.4516Z" fill="white"/>
<path opacity="0.3" d="M23.5332 16.9452C26.1997 17.8116 28.7466 19.0102 31.1139 20.5126L36.3508 15.3409C34.6052 13.3016 31.7175 11.3983 29.0583 9.90283L23.5332 16.9452Z" fill="white"/>
<path d="M40.1229 27.4516C38.5305 30.3509 36.0536 32.6658 33.0534 34.0589C27.8872 36.5659 19.2406 36.4353 19.2406 36.4353L18.4141 25.5591C19.4069 27.0668 20.7594 28.3036 22.3496 29.158C23.9398 30.0125 25.7177 30.4576 27.5229 30.4534C31.405 30.4805 35.1643 29.0947 38.1 26.5543L40.1229 27.4516Z" fill="#FF4333"/>
<path opacity="0.4" d="M40.1229 27.4516C38.5305 30.3509 36.0536 32.6658 33.0534 34.0589C27.8872 36.5659 19.2406 36.4353 19.2406 36.4353L18.4141 25.5591C19.4069 27.0668 20.7594 28.3036 22.3496 29.158C23.9398 30.0125 25.7177 30.4576 27.5229 30.4534C31.405 30.4805 35.1643 29.0947 38.1 26.5543L40.1229 27.4516Z" fill="black"/>
<path d="M40.1225 27.4515C34.7116 21.9373 29.6487 21.4044 25.0318 22.4811C19.92 23.6775 18.4082 25.5428 18.4082 25.5428L19.2348 36.419C19.2348 36.419 21.9538 31.1005 29.3388 28.7077C36.7237 26.315 40.1225 27.4515 40.1225 27.4515Z" fill="#FF4333"/>
<path opacity="0.1" d="M40.1225 27.4515C34.7116 21.9373 29.6487 21.4044 25.0318 22.4811C19.92 23.6775 18.4082 25.5428 18.4082 25.5428L19.2348 36.419C19.2348 36.419 21.9538 31.1005 29.3388 28.7077C36.7237 26.315 40.1225 27.4515 40.1225 27.4515Z" fill="white"/>
<path opacity="0.3" d="M20.9434 23.8624C22.1996 25.6678 24.2062 28.6207 25.4624 30.486C26.6876 29.7605 27.9876 29.1698 29.3398 28.724C30.6208 28.3108 31.9245 27.9712 33.2443 27.7071L28.5458 22.0297C27.362 22.0533 26.1841 22.2046 25.0328 22.4811C23.6252 22.7975 22.2546 23.2604 20.9434 23.8624Z" fill="white"/>
<path d="M39.8191 26.2388C39.8191 26.2388 47.4324 25.1512 52.6911 19.5065C57.9497 13.8617 59.0917 5.98191 59.0917 5.98191L49.5098 0C50.3061 2.44438 50.5653 5.03188 50.2697 7.58566C49.9741 10.1394 49.1305 12.5993 47.7968 14.7971C44.3871 20.6158 39.6396 21.8068 39.6396 21.8068L39.8191 26.2388Z" fill="#FF4333"/>
<path opacity="0.4" d="M39.8191 26.2388C39.8191 26.2388 47.4324 25.1512 52.6911 19.5065C57.9497 13.8617 59.0917 5.98191 59.0917 5.98191L49.5098 0C50.3061 2.44438 50.5653 5.03188 50.2697 7.58566C49.9741 10.1394 49.1305 12.5993 47.7968 14.7971C44.3871 20.6158 39.6396 21.8068 39.6396 21.8068L39.8191 26.2388Z" fill="black"/>
<path d="M39.8193 26.2388L41.2224 25.9506C42.0255 20.4469 44.671 15.3782 48.7269 11.5723C55.7095 5.17707 59.092 5.98191 59.092 5.98191C56.2859 3.16497 52.9687 1.42478 49.51 0C49.51 0 43.5716 3.46951 40.945 8.38011C37.7964 14.2587 38.8296 22.9705 39.8193 26.2388Z" fill="#FF4333"/>
<path opacity="0.1" d="M39.8193 26.2388L41.2224 25.9506C42.0255 20.4469 44.671 15.3782 48.7269 11.5723C55.7095 5.17707 59.092 5.98191 59.092 5.98191C56.2859 3.16497 52.9687 1.42478 49.51 0C49.51 0 43.5716 3.46951 40.945 8.38011C37.7964 14.2587 38.8296 22.9705 39.8193 26.2388Z" fill="white"/>
<g opacity="0.3">
<path d="M53.9588 7.61343L45.8723 2.63757C45.4862 2.95842 45.1001 3.29558 44.7031 3.66537L52.5992 8.47809C53.0778 8.15724 53.5346 7.85271 53.9588 7.61343Z" fill="white"/>
<path d="M51.3974 9.33189L43.5774 4.79108C42.8313 5.57845 42.1562 6.4301 41.5598 7.33611L41.5055 7.41224C41.3042 7.72222 41.1139 8.04306 40.9616 8.36391C40.8638 8.55424 40.7985 8.77177 40.7061 8.96754L47.2318 13.0842C47.694 12.573 48.1889 12.0673 48.7273 11.5724C49.6898 10.6914 50.5708 9.96271 51.3974 9.33189Z" fill="white"/>
</g>
<path d="M40.059 27.4407C40.059 27.4407 42.517 29.8933 48.2868 31.144C54.0566 32.3948 61.2676 31.3017 64.2748 27.767L63.3177 17.663C63.3177 17.663 58.7062 24.2974 51.74 25.6243C46.4324 26.6304 39.9883 24.7216 39.9883 24.7216L40.059 27.4407Z" fill="#FF4333"/>
<path opacity="0.4" d="M40.059 27.4407C40.059 27.4407 42.517 29.8933 48.2868 31.144C54.0566 32.3948 61.2676 31.3017 64.2748 27.767L63.3177 17.663C63.3177 17.663 58.7062 24.2974 51.74 25.6243C46.4324 26.6304 39.9883 24.7216 39.9883 24.7216L40.059 27.4407Z" fill="black"/>
<path d="M39.6514 25.124C39.6514 25.124 45.0188 19.1421 50.9735 18.0545C59.0382 16.5699 63.3397 17.663 63.3397 17.663C64.8841 21.2684 65.1561 24.6292 64.2968 27.767C64.2968 27.767 60.6805 24.1125 52.469 24.069C45.9759 24.0364 40.081 27.4407 40.081 27.4407L39.6514 25.124Z" fill="#FF4333"/>
<path opacity="0.1" d="M39.6514 25.124C39.6514 25.124 45.0188 19.1421 50.9735 18.0545C59.0382 16.5699 63.3397 17.663 63.3397 17.663C64.8841 21.2684 65.1561 24.6292 64.2968 27.767C64.2968 27.767 60.6805 24.1125 52.469 24.069C45.9759 24.0364 40.081 27.4407 40.081 27.4407L39.6514 25.124Z" fill="white"/>
<path opacity="0.3" d="M62.545 26.5325C60.7562 25.5378 58.8132 24.8504 56.7969 24.4986L55.5244 17.4291C57.5313 17.2377 59.5512 17.2231 61.5607 17.3856C62.4876 20.3401 62.8221 23.4485 62.545 26.5325Z" fill="white"/>
<path opacity="0.15" d="M54.2305 41.1338L48.4443 44.451V71.2663L54.2305 63.0874V41.1338Z" fill="black"/>
</svg>
