<svg width="28" height="27" viewBox="0 0 28 27" fill="none" xmlns="http://www.w3.org/2000/svg">
<path d="M23.4358 3.10483C23.7555 3.5058 24.0579 3.92628 24.3429 4.36627C28.6886 11.0918 27.1443 19.846 20.8924 23.9197C14.6415 27.9933 6.05095 25.8433 1.70418 19.1167C1.26636 18.4393 0.889229 17.7425 0.570618 17.0305L23.4358 3.10483Z" fill="url(#paint0_linear_458_14790)"/>
<path style="mix-blend-mode:multiply" opacity="0.32" d="M23.4358 3.10483C23.7555 3.5058 24.0579 3.92628 24.3429 4.36627C28.6886 11.0918 27.1443 19.846 20.8924 23.9197C14.6415 27.9933 6.05095 25.8433 1.70418 19.1167C1.26636 18.4393 0.889229 17.7425 0.570618 17.0305L23.4358 3.10483Z" fill="url(#paint1_linear_458_14790)"/>
<mask id="mask0_458_14790" style="mask-type:luminance" maskUnits="userSpaceOnUse" x="0" y="0" width="25" height="20">
<path d="M4.83408 5.20832L5.61977 3.88944L7.48701 3.05281L12.2553 1.44459L13.4236 0L20.3019 0.410727C23.2247 1.51286 24.2845 4.24815 24.342 4.43455C24.7624 5.81411 23.3233 7.06363 23.3233 7.06363L21.6977 7.96311L19.6506 12.7759L16.9847 13.0435L15.7601 14.1576L13.9286 13.5431L8.85465 17.8195L6.61571 18.0915L2.68725 19.5133C2.68725 19.5133 0.833023 18.2833 0.264074 16.5147C-0.304874 14.7461 0.215307 11.0929 0.261906 9.40228C0.308506 7.71169 4.83517 5.2094 4.83517 5.2094L4.83408 5.20832ZM1.86797 15.0874C1.82137 16.118 2.78695 16.636 2.78695 16.636L5.82351 15.2077L7.4209 14.7309L11.7547 11.4971L11.9248 11.3692L11.9432 11.3551L12.0993 11.3746L12.2738 11.3963L12.4482 11.418L12.6227 11.4397L12.7972 11.4613L12.9717 11.483L13.0443 11.4917L13.144 11.4136L13.3141 11.2803L13.4843 11.1471L13.6544 11.0138L13.8246 10.8805L13.9947 10.7472L14.154 10.6225L14.1648 10.6193L14.3371 10.5705L14.5095 10.5218L14.6818 10.473L14.8541 10.4242L15.0264 10.3755L15.1987 10.3267L15.371 10.2779L15.5433 10.2291L15.7156 10.1804L15.8879 10.1316L16.0386 10.0893L16.0602 10.0612L16.2282 9.8466L16.3962 9.63202L16.5642 9.41745L16.7321 9.20287L16.9001 8.9883L17.0681 8.77372L17.2361 8.55915L17.404 8.34457L17.572 8.13L17.74 7.91543L17.908 7.70085L18.076 7.48628L18.2439 7.2717L18.4119 7.05713L18.5799 6.84255L18.6167 6.79487L18.75 6.71576L18.9212 6.61497L19.0925 6.51419L19.2637 6.4134L19.4349 6.31262L19.6061 6.21183L19.7774 6.11105L19.9486 6.01026C19.9486 6.01026 20.0158 5.95933 20.1187 5.87155C20.1686 5.82928 20.226 5.77943 20.2889 5.72199C20.342 5.67323 20.3994 5.62013 20.459 5.56161C20.5143 5.50742 20.5717 5.44998 20.6281 5.38821C20.6855 5.32752 20.7419 5.26359 20.7971 5.19856C20.8557 5.12812 20.9131 5.0566 20.9651 4.98182C21.0269 4.89512 21.0843 4.80518 21.132 4.71631C21.2209 4.5505 21.2816 4.38253 21.2913 4.22105C21.2946 4.17012 21.2848 3.79841 21.0963 3.38768C21.0486 3.28256 20.9879 3.17527 20.9142 3.07015C20.8622 2.99646 20.8026 2.92277 20.7343 2.85233C20.6801 2.79597 20.6205 2.74179 20.5555 2.68977C20.5002 2.64534 20.4417 2.60416 20.3778 2.56406C20.3225 2.52938 20.264 2.49579 20.2011 2.46436C20.1458 2.43727 20.0862 2.41126 20.0255 2.38742C19.9692 2.36574 19.9107 2.34515 19.85 2.32673C19.7936 2.30939 19.7351 2.29422 19.6744 2.28013C19.6246 2.26821 19.5726 2.25845 19.5184 2.24978L19.4999 2.25195L19.3266 2.27254L19.1532 2.29313L18.9798 2.31372L18.8064 2.33431L18.633 2.3549L18.4596 2.37549L18.2862 2.39609L18.1128 2.41668L17.9394 2.43727L17.766 2.45786L17.5926 2.47845L17.4192 2.49904L17.2458 2.51963L17.0724 2.54022L16.899 2.56081L16.7256 2.5814L16.5523 2.60199L16.3789 2.62258L16.2055 2.64317L16.0321 2.66376L15.8587 2.68435L15.6853 2.70494L15.5119 2.72553L15.3385 2.74612L15.1651 2.76671L15.0708 2.77755L14.9939 2.85341L14.8237 3.0203L14.6536 3.18719L14.4834 3.35409L14.3133 3.52098L14.1432 3.68787L13.973 3.85476L13.9622 3.8656L13.8018 3.93387L13.6295 4.00756L13.4572 4.08126L13.2849 4.15495L13.1126 4.22864L12.9402 4.30233L12.7679 4.37603L12.5956 4.44972L12.4233 4.52341L12.251 4.5971L12.0787 4.67079L11.9064 4.74449L11.7341 4.81818L11.5618 4.89187L9.97846 5.56594L8.38649 6.26602L7.72001 7.3649C7.72001 7.3649 4.04514 9.56375 3.59757 10.629C3.15 11.6954 1.89397 14.0568 1.84846 15.0874H1.86797Z" fill="white"/>
</mask>
<g mask="url(#mask0_458_14790)">
<path d="M24.3606 4.49522C24.3032 4.30774 23.2444 1.57246 20.3206 0.471406L13.2526 -0.0205994L12.2166 1.44349L7.50567 3.11349L5.60267 3.89051L4.78772 5.23757C4.78772 5.23757 0.326084 7.77128 0.279484 9.46187C0.233969 11.1525 -0.287296 14.8046 0.281652 16.5743C0.850601 18.3429 2.70483 19.5729 2.70483 19.5729L6.63328 18.1511L8.87223 17.8791L13.9462 13.6027L15.7776 14.2172L17.0022 13.1031L19.6682 12.8355L21.7153 8.0227L23.3409 7.12322C23.3409 7.12322 24.78 5.87371 24.3595 4.49414L24.3606 4.49522Z" fill="#783E16"/>
<mask id="mask1_458_14790" style="mask-type:luminance" maskUnits="userSpaceOnUse" x="0" y="-1" width="25" height="21">
<path d="M24.3597 4.49519C24.3022 4.30771 23.2434 1.57243 20.3196 0.471375L13.2516 -0.0206299L12.2156 1.44346L7.50469 3.11346L5.6017 3.89048L4.78675 5.23754C4.78675 5.23754 0.325108 7.77125 0.278507 9.46184C0.232992 11.1524 -0.288273 14.8045 0.280676 16.5742C0.849625 18.3429 2.70385 19.5729 2.70385 19.5729L6.63231 18.151L8.87125 17.879L13.9452 13.6027L15.7767 14.2172L17.0013 13.1031L19.6672 12.8354L21.7143 8.02267L23.3399 7.12319C23.3399 7.12319 24.779 5.87367 24.3586 4.49411L24.3597 4.49519Z" fill="white"/>
</mask>
<g mask="url(#mask1_458_14790)">
<path d="M23.2458 1.57565L25.2322 6.77313L26.7354 5.13456L23.2458 1.57565Z" fill="#783E16"/>
<path d="M23.0661 1.39252L22.897 1.32642L25.0536 6.96822L25.2324 6.77315L23.246 1.57567L23.0661 1.39252Z" fill="#783E16"/>
<path d="M22.8961 1.32641L22.5981 1.20828L24.8739 7.16328L25.0527 6.96821L22.8961 1.32641Z" fill="#783E16"/>
<path d="M22.5992 1.20827L22.3012 1.09015L24.6962 7.35725L24.875 7.16327L22.5992 1.20827Z" fill="#783E16"/>
<path d="M22.3003 1.09017L22.0023 0.972046L24.5165 7.55234L24.6953 7.35727L22.3003 1.09017Z" fill="#783E16"/>
<path d="M22.0034 0.972037L21.7053 0.853912L24.3388 7.7474L24.5176 7.55233L22.0034 0.972037Z" fill="#783E16"/>
<path d="M21.7045 0.853903L21.4054 0.735779L24.1591 7.94246L24.3379 7.74739L21.7045 0.853903Z" fill="#783E16"/>
<path d="M21.4055 0.73577L21.1074 0.617645L23.9804 8.13643L24.1592 7.94245L21.4055 0.73577Z" fill="#783E16"/>
<path d="M21.1076 0.617667L20.8095 0.499542L23.8017 8.33152L23.9805 8.13645L21.1076 0.617667Z" fill="#783E16"/>
<path d="M20.8096 0.499533L20.5116 0.381409L23.6229 8.52658L23.8018 8.33151L20.8096 0.499533Z" fill="#783E16"/>
<path d="M20.5117 0.3814L20.2126 0.263275L23.4453 8.72164L23.623 8.52657L20.5117 0.3814Z" fill="#783E16"/>
<path d="M20.2126 0.263266L19.9146 0.145142L23.2665 8.91562L23.4453 8.72163L20.2126 0.263266Z" fill="#783E16"/>
<path d="M19.9137 0.145147L19.6157 0.0281067L23.0868 9.11069L23.2656 8.91562L19.9137 0.145147Z" fill="#783E16"/>
<path d="M19.6168 0.0281284L19.3187 -0.0899963L22.9091 9.30578L23.0879 9.11071L19.6168 0.0281284Z" fill="#783E16"/>
<path d="M19.3188 -0.0900054L19.0208 -0.20813L22.7304 9.49975L22.9092 9.30577L19.3188 -0.0900054Z" fill="#783E16"/>
<path d="M19.0199 -0.208139L18.7208 -0.326263L22.5507 9.69481L22.7295 9.49975L19.0199 -0.208139Z" fill="#783E16"/>
<path d="M18.7219 -0.326273L18.4239 -0.444397L22.3729 9.88987L22.5518 9.6948L18.7219 -0.326273Z" fill="#783E16"/>
<path d="M18.423 -0.444375L18.125 -0.5625L22.1933 10.085L22.3721 9.88989L18.423 -0.444375Z" fill="#783E16"/>
<path d="M18.1251 -0.562509L17.8271 -0.680634L22.0145 10.2789L22.1934 10.085L18.1251 -0.562509Z" fill="#783E16"/>
<path d="M17.8272 -0.680643L17.5292 -0.798767L21.8358 10.474L22.0146 10.2789L17.8272 -0.680643Z" fill="#783E16"/>
<path d="M17.5293 -0.798746L17.2302 -0.91687L21.6571 10.6691L21.8359 10.474L17.5293 -0.798746Z" fill="#783E16"/>
<path d="M17.2303 -0.916879L16.9322 -1.035L21.4784 10.8641L21.6572 10.6691L17.2303 -0.916879Z" fill="#783E16"/>
<path d="M16.9314 -1.03501L16.6334 -1.15314L21.2998 11.0581L21.4775 10.8641L16.9314 -1.03501Z" fill="#783E16"/>
<path d="M16.6333 -1.15315L16.3353 -1.27127L21.121 11.2532L21.2998 11.0581L16.6333 -1.15315Z" fill="#783E16"/>
<path d="M16.3364 -1.27128L16.0373 -1.3894L20.9433 11.4482L21.1221 11.2532L16.3364 -1.27128Z" fill="#783E16"/>
<path d="M16.0364 -1.3894L15.7384 -1.50644L20.7636 11.6422L20.9424 11.4482L16.0364 -1.3894Z" fill="#783E16"/>
<path d="M15.7385 -1.50642L15.4405 -1.62454L20.5849 11.8373L20.7637 11.6422L15.7385 -1.50642Z" fill="#783E16"/>
<path d="M15.4406 -1.62455L15.1426 -1.74268L20.4061 12.0324L20.585 11.8373L15.4406 -1.62455Z" fill="#783E16"/>
<path d="M15.1427 -1.74268L14.8446 -1.86081L20.2274 12.2274L20.4062 12.0324L15.1427 -1.74268Z" fill="#783E16"/>
<path d="M14.8447 -1.86079L14.5456 -1.97891L20.0487 12.4214L20.2275 12.2275L14.8447 -1.86079Z" fill="#783E16"/>
<path d="M14.5457 -1.97892L14.2477 -2.09705L19.87 12.6165L20.0488 12.4214L14.5457 -1.97892Z" fill="#783E16"/>
<path d="M14.2478 -2.09702L13.9498 -2.21515L19.6913 12.8116L19.8701 12.6165L14.2478 -2.09702Z" fill="#783E16"/>
<path d="M13.9489 -2.21519L13.6509 -2.33331L19.5116 13.0066L19.6904 12.8115L13.9489 -2.21519Z" fill="#783E16"/>
<path d="M13.652 -2.33329L13.354 -2.45142L19.3339 13.2006L19.5127 13.0066L13.652 -2.33329Z" fill="#783E16"/>
<path d="M13.3541 -2.45139L13.055 -2.56952L19.1552 13.3957L19.334 13.2006L13.3541 -2.45139Z" fill="#783E16"/>
<path d="M13.0541 -2.56956L12.7561 -2.68768L18.9766 13.5907L19.1543 13.3957L13.0541 -2.56956Z" fill="#783E16"/>
<path d="M12.7444 -2.69526L12.4453 -2.81339L18.7851 13.7771L18.9639 13.5821L12.7444 -2.69526Z" fill="#783E16"/>
<path d="M12.4581 -2.8058L12.1601 -2.92392L18.619 13.9798L18.7979 13.7847L12.4581 -2.8058Z" fill="#783E16"/>
<path d="M12.1602 -2.9239L11.8611 -3.04202L18.4403 14.1749L18.6191 13.9798L12.1602 -2.9239Z" fill="#783E16"/>
<path d="M11.8612 -3.04202L11.5632 -3.15906L18.2616 14.37L18.4404 14.1749L11.8612 -3.04202Z" fill="#783E16"/>
<path d="M11.5633 -3.1591L11.2653 -3.27722L18.0829 14.5639L18.2617 14.3699L11.5633 -3.1591Z" fill="#783E16"/>
<path d="M11.2654 -3.2772L10.9674 -3.39532L17.9042 14.759L18.083 14.5639L11.2654 -3.2772Z" fill="#783E16"/>
<path d="M10.9675 -3.39532L10.6781 -3.51019L10.6727 -3.50477L17.7255 14.9541L17.9043 14.759L10.9675 -3.39532Z" fill="#783E16"/>
<path d="M10.493 -3.30969L17.5458 15.1481L17.7246 14.9541L10.6718 -3.50476L10.493 -3.30969Z" fill="#783E16"/>
<path d="M10.3153 -3.11465L17.3681 15.3431L17.5469 15.148L10.4941 -3.30972L10.3153 -3.11465Z" fill="#783E16"/>
<path d="M10.1356 -2.92064L17.1884 15.5382L17.3672 15.3431L10.3144 -3.11462L10.1356 -2.92064Z" fill="#783E16"/>
<path d="M9.95785 -2.72559L17.0106 15.7333L17.1895 15.5382L10.1367 -2.92065L9.95785 -2.72559Z" fill="#783E16"/>
<path d="M9.77816 -2.53052L16.832 15.9272L17.0098 15.7333L9.95697 -2.72559L9.77816 -2.53052Z" fill="#783E16"/>
<path d="M9.59934 -2.33545L16.6532 16.1223L16.832 15.9273L9.77816 -2.53052L9.59934 -2.33545Z" fill="#783E16"/>
<path d="M9.42063 -2.14146L16.4745 16.3174L16.6533 16.1223L9.59944 -2.33545L9.42063 -2.14146Z" fill="#783E16"/>
<path d="M9.24192 -1.94641L16.2958 16.5124L16.4746 16.3174L9.42073 -2.14148L9.24192 -1.94641Z" fill="#783E16"/>
<path d="M9.06429 -1.75134L16.1171 16.7064L16.2959 16.5124L9.24202 -1.94641L9.06429 -1.75134Z" fill="#783E16"/>
<path d="M8.88558 -1.55627L15.9384 16.9015L16.1172 16.7064L9.0644 -1.75134L8.88558 -1.55627Z" fill="#783E16"/>
<path d="M8.70687 -1.36229L15.7597 17.0966L15.9385 16.9015L8.88568 -1.55627L8.70687 -1.36229Z" fill="#783E16"/>
<path d="M8.52816 -1.16721L15.581 17.2906L15.7598 17.0966L8.70697 -1.36227L8.52816 -1.16721Z" fill="#783E16"/>
<path d="M8.34847 -0.972168L15.4013 17.4856L15.5801 17.2905L8.52729 -1.16724L8.34847 -0.972168Z" fill="#783E16"/>
<path d="M8.17074 -0.778184L15.2235 17.6807L15.4023 17.4856L8.34955 -0.972168L8.17074 -0.778184Z" fill="#783E16"/>
<path d="M7.99105 -0.5831L15.0438 17.8758L15.2227 17.6807L8.16986 -0.778168L7.99105 -0.5831Z" fill="#783E16"/>
<path d="M1.82267 19.3344L10.54 22.7839L15.0439 17.8758L7.99115 -0.583099L-4.43251 12.9557L1.82267 19.3344Z" fill="#783E16"/>
</g>
<mask id="mask2_458_14790" style="mask-type:luminance" maskUnits="userSpaceOnUse" x="0" y="0" width="24" height="19">
<path d="M23.7269 4.68595C23.6738 4.51147 22.6865 1.95716 19.9209 0.944978L13.5389 0.402039L12.5094 1.81628L7.7649 3.51446L5.96594 4.26222L5.15966 5.50523C5.15966 5.50523 0.911514 7.90457 0.857328 9.48787C0.803143 11.0701 0.286213 14.4924 0.815063 16.1451C1.34391 17.7967 3.09519 18.9368 3.09519 18.9368L6.82966 17.581L8.60369 17.3675L13.7936 13.2776L15.5275 13.8411L16.6958 12.791L19.2262 12.5233L21.1986 8.00644L22.7461 7.15356C22.7461 7.15356 24.1192 5.97448 23.7291 4.68703L23.7269 4.68595Z" fill="white"/>
</mask>
<g mask="url(#mask2_458_14790)">
<path d="M22.6897 1.95932L24.5396 6.81218L25.9766 5.26897L22.6897 1.95932Z" fill="#C6C6C6"/>
<path d="M22.5201 1.78919L22.3597 1.72742L24.3689 6.99534L24.5391 6.81219L22.6892 1.95933L22.5201 1.78919Z" fill="#C6C6C6"/>
<path d="M22.3599 1.72742L22.0782 1.61905L24.1979 7.17849L24.3691 6.99534L22.3599 1.72742Z" fill="#C7C7C7"/>
<path d="M22.0785 1.61908L21.7957 1.51071L24.0281 7.36275L24.1982 7.17852L22.0785 1.61908Z" fill="#C8C8C8"/>
<path d="M21.7959 1.51068L21.5141 1.40231L23.8571 7.54587L24.0283 7.36272L21.7959 1.51068Z" fill="#C9C9C9"/>
<path d="M21.5135 1.40232L21.2317 1.29395L23.6863 7.72902L23.8564 7.54587L21.5135 1.40232Z" fill="#CACACA"/>
<path d="M21.2319 1.29393L20.9491 1.18448L23.5153 7.91216L23.6865 7.72901L21.2319 1.29393Z" fill="#CBCBCB"/>
<path d="M20.9494 1.18448L20.6676 1.07611L23.3455 8.09639L23.5156 7.91216" fill="#CCCCCC"/>
<path d="M20.6669 1.07611L20.3851 0.967743L23.1735 8.27954L23.3447 8.0964L20.6669 1.07611Z" fill="#CDCDCD"/>
<path d="M20.3864 0.967716L20.1036 0.859344L23.0047 8.46266L23.1748 8.27951L20.3864 0.967716Z" fill="#CECECE"/>
<path d="M20.1028 0.859394L19.821 0.749939L22.8327 8.64694L23.0039 8.46271L20.1028 0.859394Z" fill="#CFCFCF"/>
<path d="M19.8214 0.749912L19.5396 0.641541L22.6618 8.83006L22.833 8.64691L19.8214 0.749912Z" fill="#D0D0D0"/>
<path d="M19.5399 0.641544L19.2571 0.533173L22.492 9.01321L22.6621 8.83006L19.5399 0.641544Z" fill="#D1D1D1"/>
<path d="M19.2563 0.533176L18.9746 0.424805L22.32 9.19636L22.4912 9.01322L19.2563 0.533176Z" fill="#D2D2D2"/>
<path d="M18.9749 0.424808L18.6931 0.316437L22.1502 9.3806L22.3203 9.19637L18.9749 0.424808Z" fill="#D3D3D3"/>
<path d="M18.6924 0.316425L18.4095 0.20697L21.9782 9.56373L22.1494 9.38058L18.6924 0.316425Z" fill="#D4D4D4"/>
<path d="M18.4099 0.206973L18.1281 0.0986023L21.8084 9.74688L21.9785 9.56374L18.4099 0.206973Z" fill="#D5D5D5"/>
<path d="M18.1283 0.0986055L17.8465 -0.00976562L21.6374 9.93003L21.8086 9.74689L18.1283 0.0986055Z" fill="#D6D6D6"/>
<path d="M17.8469 -0.00976243L17.564 -0.118134L21.4676 10.1143L21.6377 9.93004L17.8469 -0.00976243Z" fill="#D7D7D7"/>
<path d="M17.5633 -0.11813L17.2815 -0.226501L21.2956 10.2974L21.4668 10.1143L17.5633 -0.11813Z" fill="#D8D8D8"/>
<path d="M17.2818 -0.226513L17.0001 -0.335968L21.1258 10.4806L21.2959 10.2974L17.2818 -0.226513Z" fill="#D9D9D9"/>
<path d="M17.0003 -0.335965L16.7174 -0.444336L20.9548 10.6637L21.126 10.4806L17.0003 -0.335965Z" fill="#DADADA"/>
<path d="M16.7178 -0.444333L16.436 -0.552704L20.7839 10.8479L20.9551 10.6637L16.7178 -0.444333Z" fill="#DBDBDB"/>
<path d="M16.4354 -0.552701L16.1536 -0.661072L20.6131 11.0311L20.7832 10.8479L16.4354 -0.552701Z" fill="#DCDCDC"/>
<path d="M16.1538 -0.661083L15.871 -0.770538L20.4421 11.2142L20.6133 11.0311L16.1538 -0.661083Z" fill="#DDDDDD"/>
<path d="M15.8713 -0.770535L15.5895 -0.878906L20.2722 11.3985L20.4424 11.2142L15.8713 -0.770535Z" fill="#DEDEDE"/>
<path d="M15.5888 -0.878903L15.307 -0.987274L20.1003 11.5816L20.2715 11.3985L15.5888 -0.878903Z" fill="#DFDFDF"/>
<path d="M15.3064 -0.987271L15.0235 -1.09564L19.9295 11.7648L20.0996 11.5816L15.3064 -0.987271Z" fill="#E0E0E0"/>
<path d="M15.0247 -1.09567L14.7429 -1.20404L19.7594 11.9479L19.9307 11.7647L15.0247 -1.09567Z" fill="#E1E1E1"/>
<path d="M14.7433 -1.20402L14.4615 -1.31348L19.5896 12.1321L19.7598 11.9479L14.7433 -1.20402Z" fill="#E3E3E3"/>
<path d="M14.4617 -1.31347L14.1789 -1.42184L19.4186 12.3153L19.5898 12.1321L14.4617 -1.31347Z" fill="#E4E4E4"/>
<path d="M14.1782 -1.42184L13.8965 -1.53021L19.2467 12.4984L19.418 12.3153L14.1782 -1.42184Z" fill="#E5E5E5"/>
<path d="M13.8968 -1.53021L13.615 -1.63858L19.0769 12.6816L19.2471 12.4984L13.8968 -1.53021Z" fill="#E6E6E6"/>
<path d="M13.6152 -1.63856L13.3324 -1.74802L18.9059 12.8658L19.0771 12.6816L13.6152 -1.63856Z" fill="#E7E7E7"/>
<path d="M13.3317 -1.74804L13.05 -1.85641L18.7351 13.0489L18.9053 12.8658L13.3317 -1.74804Z" fill="#E8E8E8"/>
<path d="M13.0502 -1.85641L12.7684 -1.96478L18.5641 13.2321L18.7354 13.049L13.0502 -1.85641Z" fill="#E9E9E9"/>
<path d="M12.7688 -1.96478L12.4859 -2.07315L18.3943 13.4163L18.5645 13.2321L12.7688 -1.96478Z" fill="#EAEAEA"/>
<path d="M12.4852 -2.07315L12.2034 -2.18152L18.2223 13.5995L18.3936 13.4163L12.4852 -2.07315Z" fill="#EBEBEB"/>
<path d="M12.2037 -2.18153L11.9209 -2.29099L18.0525 13.7826L18.2227 13.5995L12.2037 -2.18153Z" fill="#ECECEC"/>
<path d="M11.9211 -2.29098L11.6393 -2.39935L17.8815 13.9658L18.0527 13.7826L11.9211 -2.29098Z" fill="#EDEDED"/>
<path d="M11.6387 -2.39935L11.3569 -2.50772L17.7107 14.15L17.8809 13.9658L11.6387 -2.39935Z" fill="#EEEEEE"/>
<path d="M11.3571 -2.50769L11.0743 -2.61606L17.5397 14.3332L17.7109 14.15L11.3571 -2.50769Z" fill="#EFEFEF"/>
<path d="M11.0746 -2.61612L10.8015 -2.72232L10.7961 -2.7169L17.3688 14.5163L17.54 14.3331L11.0746 -2.61612Z" fill="#F0F0F0"/>
<path d="M10.6253 -2.53266L17.198 14.6994L17.3682 14.5163L10.7955 -2.71689L10.6253 -2.53266Z" fill="#F1F1F1"/>
<path d="M10.4543 -2.34951L17.027 14.8837L17.1982 14.6994L10.6255 -2.53265L10.4543 -2.34951Z" fill="#F2F2F2"/>
<path d="M10.2845 -2.16634L16.8572 15.0668L17.0273 14.8837L10.4546 -2.34949L10.2845 -2.16634Z" fill="#F3F3F3"/>
<path d="M10.1135 -1.9832L16.6862 15.25L16.8574 15.0668L10.2847 -2.16635L10.1135 -1.9832Z" fill="#F4F4F4"/>
<path d="M9.94161 -1.79898L16.5154 15.4331L16.6855 15.25L10.1128 -1.98322L9.94161 -1.79898Z" fill="#F5F5F5"/>
<path d="M9.77169 -1.61583L16.3444 15.6173L16.5156 15.4331L9.94183 -1.79898L9.77169 -1.61583Z" fill="#F6F6F6"/>
<path d="M9.60079 -1.4327L16.1746 15.8005L16.3447 15.6173L9.77202 -1.61584L9.60079 -1.4327Z" fill="#F7F7F7"/>
<path d="M9.43087 -1.24845L16.0036 15.9836L16.1748 15.8005L9.60101 -1.43268L9.43087 -1.24845Z" fill="#F8F8F8"/>
<path d="M9.259 -1.06533L15.8317 16.1678L16.0029 15.9836L9.43022 -1.24847L9.259 -1.06533Z" fill="#F9F9F9"/>
<path d="M9.08918 -0.88216L15.6619 16.351L15.832 16.1679L9.25932 -1.06531L9.08918 -0.88216Z" fill="#FAFAFA"/>
<path d="M8.91818 -0.698994L15.4909 16.5342L15.6621 16.351L9.0894 -0.882141L8.91818 -0.698994Z" fill="#FBFBFB"/>
<path d="M8.74738 -0.514774L15.3201 16.7173L15.4902 16.5342L8.91753 -0.699005L8.74738 -0.514774Z" fill="#FCFCFC"/>
<path d="M8.57638 -0.331623L15.1491 16.9016L15.3203 16.7173L8.7476 -0.514771L8.57638 -0.331623Z" fill="#FDFDFD"/>
<path d="M8.4045 -0.148487L14.9783 17.0847L15.1484 16.9015L8.57573 -0.331635L8.4045 -0.148487Z" fill="#FEFEFE"/>
<path d="M8.23458 0.0346485L14.8073 17.2678L14.9785 17.0847L8.40472 -0.148499L8.23458 0.0346485Z" fill="white"/>
<path d="M2.25824 18.7168L10.5042 21.891L14.8076 17.2678L8.23491 0.034668L-3.6339 12.7867L2.25824 18.7168Z" fill="white"/>
</g>
<path d="M1.81646 15.1384C1.86306 14.1078 3.118 11.7463 3.56557 10.68C4.01314 9.6136 7.688 7.41584 7.688 7.41584L8.35449 6.31695L9.94646 5.61688L11.5298 4.94281L11.7021 4.86912L11.8744 4.79542L12.0467 4.72173L12.219 4.64804L12.3913 4.57435L12.5636 4.50065L12.7359 4.42696L12.9082 4.35327L13.0806 4.27958L13.2529 4.20588L13.4252 4.13219L13.5975 4.0585L13.7698 3.98481L13.9302 3.91653L13.941 3.9057L14.1112 3.73881L14.2813 3.57191L14.4514 3.40502L14.6216 3.23813L14.7917 3.07124L14.9619 2.90435L15.0388 2.82849L15.1331 2.81765L15.3065 2.79706L15.4799 2.77647L15.6533 2.75588L15.8267 2.73529L16.0001 2.7147L16.1735 2.69411L16.3469 2.67352L16.5203 2.65293L16.6936 2.63234L16.867 2.61175L17.0404 2.59115L17.2138 2.57056L17.3872 2.54997L17.5606 2.52938L17.734 2.50879L17.9074 2.4882L18.0808 2.46761L18.2542 2.44702L18.4276 2.42643L18.601 2.40584L18.7744 2.38525L18.9478 2.36466L19.1212 2.34407L19.2946 2.32348L19.4679 2.30289L19.4864 2.30072C19.5395 2.30939 19.5915 2.32023 19.6424 2.33106C19.7031 2.34515 19.7616 2.36032 19.818 2.37766C19.8787 2.39609 19.9372 2.41668 19.9935 2.43835C20.0553 2.46219 20.1138 2.48712 20.1691 2.51529C20.232 2.54672 20.2905 2.57923 20.3458 2.615C20.4086 2.65509 20.4682 2.69627 20.5235 2.74071C20.5885 2.79273 20.6481 2.84691 20.7023 2.90326C20.7695 2.97371 20.8302 3.04631 20.8822 3.12109C20.9559 3.22621 21.0166 3.3335 21.0643 3.43862C21.2528 3.84934 21.2626 4.22106 21.2593 4.27199C21.2485 4.43346 21.1889 4.60144 21.1 4.76725C21.0512 4.85719 20.9949 4.94606 20.9331 5.03276C20.88 5.10645 20.8237 5.17906 20.7651 5.2495C20.7099 5.31561 20.6535 5.37846 20.5961 5.43915C20.5387 5.49984 20.4823 5.55727 20.427 5.61254C20.3674 5.66998 20.3111 5.72416 20.2569 5.77293C20.194 5.83037 20.1366 5.88022 20.0867 5.92248C19.9838 6.01026 19.9166 6.06011 19.9166 6.06011L19.7454 6.1609L19.5741 6.26168L19.4029 6.36247L19.2317 6.46325L19.0605 6.56404L18.8892 6.66483L18.718 6.76561L18.5847 6.84472L18.5479 6.8924L18.3799 7.10698L18.2119 7.32155L18.0439 7.53613L17.876 7.7507L17.708 7.96528L17.54 8.17985L17.372 8.39443L17.2041 8.609L17.0361 8.82358L16.8681 9.03815L16.7001 9.25273L16.5322 9.4673L16.3642 9.68188L16.1962 9.89645L16.0282 10.111L16.0066 10.1392L15.8559 10.1815L15.6836 10.2302L15.5113 10.279L15.339 10.3278L15.1667 10.3765L14.9944 10.4253L14.8221 10.4741L14.6498 10.5228L14.4775 10.5716L14.3051 10.6204L14.1328 10.6691L14.122 10.6724L13.9627 10.797L13.7926 10.9303L13.6224 11.0636L13.4523 11.1969L13.2821 11.3302L13.112 11.4635L13.0123 11.5415L12.9397 11.5329L12.7652 11.5112L12.5907 11.4895L12.4162 11.4678L12.2418 11.4462L12.0673 11.4245L11.9112 11.405L11.8928 11.4191L11.7227 11.5469L7.3889 14.7807L5.79151 15.2576L2.75495 16.6859C2.75495 16.6859 1.78937 16.1679 1.83597 15.1373L1.81646 15.1384Z" fill="url(#paint2_linear_458_14790)"/>
<path d="M1.81646 15.1384C1.86306 14.1078 3.118 11.7463 3.56557 10.68C4.01314 9.6136 7.688 7.41584 7.688 7.41584L8.35449 6.31695L9.94646 5.61688L11.5298 4.94281L11.7021 4.86912L11.8744 4.79542L12.0467 4.72173L12.219 4.64804L12.3913 4.57435L12.5636 4.50065L12.7359 4.42696L12.9082 4.35327L13.0806 4.27958L13.2529 4.20588L13.4252 4.13219L13.5975 4.0585L13.7698 3.98481L13.9302 3.91653L13.941 3.9057L14.1112 3.73881L14.2813 3.57191L14.4514 3.40502L14.6216 3.23813L14.7917 3.07124L14.9619 2.90435L15.0388 2.82849L15.1331 2.81765L15.3065 2.79706L15.4799 2.77647L15.6533 2.75588L15.8267 2.73529L16.0001 2.7147L16.1735 2.69411L16.3469 2.67352L16.5203 2.65293L16.6936 2.63234L16.867 2.61175L17.0404 2.59115L17.2138 2.57056L17.3872 2.54997L17.5606 2.52938L17.734 2.50879L17.9074 2.4882L18.0808 2.46761L18.2542 2.44702L18.4276 2.42643L18.601 2.40584L18.7744 2.38525L18.9478 2.36466L19.1212 2.34407L19.2946 2.32348L19.4679 2.30289L19.4864 2.30072C19.5395 2.30939 19.5915 2.32023 19.6424 2.33106C19.7031 2.34515 19.7616 2.36032 19.818 2.37766C19.8787 2.39609 19.9372 2.41668 19.9935 2.43835C20.0553 2.46219 20.1138 2.48712 20.1691 2.51529C20.232 2.54672 20.2905 2.57923 20.3458 2.615C20.4086 2.65509 20.4682 2.69627 20.5235 2.74071C20.5885 2.79273 20.6481 2.84691 20.7023 2.90326C20.7695 2.97371 20.8302 3.04631 20.8822 3.12109C20.9559 3.22621 21.0166 3.3335 21.0643 3.43862C21.2528 3.84934 21.2626 4.22106 21.2593 4.27199C21.2485 4.43346 21.1889 4.60144 21.1 4.76725C21.0512 4.85719 20.9949 4.94606 20.9331 5.03276C20.88 5.10645 20.8237 5.17906 20.7651 5.2495C20.7099 5.31561 20.6535 5.37846 20.5961 5.43915C20.5387 5.49984 20.4823 5.55727 20.427 5.61254C20.3674 5.66998 20.3111 5.72416 20.2569 5.77293C20.194 5.83037 20.1366 5.88022 20.0867 5.92248C19.9838 6.01026 19.9166 6.06011 19.9166 6.06011L19.7454 6.1609L19.5741 6.26168L19.4029 6.36247L19.2317 6.46326L19.0605 6.56404L18.8892 6.66483L18.718 6.76561L18.5847 6.84472L18.5479 6.8924L18.3799 7.10698L18.2119 7.32155L18.0439 7.53613L17.876 7.7507L17.708 7.96528L17.54 8.17985L17.372 8.39443L17.2041 8.609L17.0361 8.82358L16.8681 9.03815L16.7001 9.25273L16.5322 9.4673L16.3642 9.68188L16.1962 9.89645L16.0282 10.111L16.0066 10.1392L15.8559 10.1815L15.6836 10.2302L15.5113 10.279L15.339 10.3278L15.1667 10.3765L14.9944 10.4253L14.8221 10.4741L14.6498 10.5228L14.4775 10.5716L14.3051 10.6204L14.1328 10.6691L14.122 10.6724L13.9627 10.797L13.7926 10.9303L13.6224 11.0636L13.4523 11.1969L13.2821 11.3302L13.112 11.4635L13.0123 11.5415L12.9397 11.5329L12.7652 11.5112L12.5907 11.4895L12.4162 11.4678L12.2418 11.4462L12.0673 11.4245L11.9112 11.405L11.8928 11.4191L11.7227 11.5469L7.3889 14.7807L5.79151 15.2576L2.75495 16.6859C2.75495 16.6859 1.78937 16.1679 1.83597 15.1373L1.81646 15.1384Z" stroke="url(#paint3_linear_458_14790)" stroke-width="0.35" stroke-miterlimit="10"/>
<path style="mix-blend-mode:overlay" opacity="0.21" d="M18.364 6.67023C18.4323 6.70816 24.5498 9.37842 24.5498 9.37842C24.5498 9.37842 19.9115 12.9287 19.8389 12.9092C19.7652 12.8896 15.3697 9.6125 15.3697 9.6125L18.364 6.67023Z" fill="url(#paint4_linear_458_14790)"/>
<path style="mix-blend-mode:multiply" opacity="0.24" d="M19.8389 12.9081C19.8074 12.8799 15.3696 9.61142 15.3696 9.61142L13.6877 10.3267L17.4319 13.399L19.8378 12.907L19.8389 12.9081Z" fill="url(#paint5_linear_458_14790)"/>
<path style="mix-blend-mode:overlay" opacity="0.21" d="M17.2412 13.2321L13.2315 9.94086L12.9909 11.3865L16.2637 14.539C16.2637 14.539 17.2 13.2408 17.2412 13.2332V13.2321Z" fill="url(#paint6_linear_458_14790)"/>
<path style="mix-blend-mode:multiply" opacity="0.24" d="M16.2637 14.538L12.047 10.6323L11.7012 11.2261L14.4246 13.9376L16.2637 14.538Z" fill="url(#paint7_linear_458_14790)"/>
<path style="mix-blend-mode:overlay" opacity="0.21" d="M14.4258 14.0059L11.0554 10.5629L7.25378 14.6507L9.45371 19.0939L14.4258 14.0059Z" fill="url(#paint8_linear_458_14790)"/>
<path style="mix-blend-mode:multiply" opacity="0.24" d="M9.4541 19.0939L6.9724 13.6147L5.45738 14.7677L7.54894 19.1806L9.4541 19.0939Z" fill="url(#paint9_linear_458_14790)"/>
<path style="mix-blend-mode:overlay" opacity="0.21" d="M7.12305 18.2822L5.19946 14.1587L2.75244 16.4832L3.33764 20.5515L7.12305 18.2822Z" fill="url(#paint10_linear_458_14790)"/>
<path style="mix-blend-mode:multiply" opacity="0.24" d="M3.0972 19.0364L2.57919 15.4472C2.57919 15.4472 3.94466 10.3917 3.91757 10.3841C3.89048 10.3765 -1.04582 8.60248 -1.04582 8.60248L-0.99489 17.4792L3.0972 19.0375V19.0364Z" fill="url(#paint11_linear_458_14790)"/>
<path style="mix-blend-mode:overlay" opacity="0.21" d="M4.01769 10.4112L-1.21013 8.51906L4.75787 5.12921L8.00684 7.638L4.01769 10.4112Z" fill="url(#paint12_linear_458_14790)"/>
<path style="mix-blend-mode:multiply" opacity="0.24" d="M4.68796 5.09995L8.69336 8.22321L8.50371 6.40799L4.62077 3.12109L4.68796 5.09995Z" fill="url(#paint13_linear_458_14790)"/>
<path style="mix-blend-mode:overlay" opacity="0.21" d="M8.57553 6.39821L4.24719 2.79596L12.1778 1.33511L14.123 4.31749L8.57553 6.39821Z" fill="url(#paint14_linear_458_14790)"/>
<path style="mix-blend-mode:multiply" opacity="0.24" d="M12.1769 1.33512L13.2693 -0.00976562L15.3555 3.37358L14.1222 4.31749L12.1769 1.33512Z" fill="url(#paint15_linear_458_14790)"/>
<path style="mix-blend-mode:overlay" opacity="0.21" d="M15.0708 2.87833L12.9803 -0.466003L20.3896 0.370622L19.3905 2.48819L15.0708 2.87833Z" fill="url(#paint16_linear_458_14790)"/>
<path style="mix-blend-mode:overlay" opacity="0.67" d="M18.364 6.67023C18.4323 6.70816 24.5498 9.37842 24.5498 9.37842C24.5498 9.37842 19.9115 12.9287 19.8389 12.9092C19.7652 12.8896 15.3697 9.6125 15.3697 9.6125L18.364 6.67023Z" fill="url(#paint17_linear_458_14790)"/>
<path style="mix-blend-mode:overlay" opacity="0.67" d="M17.2412 13.2321L13.2315 9.94086L12.9909 11.3865L16.2637 14.539C16.2637 14.539 17.2 13.2408 17.2412 13.2332V13.2321Z" fill="url(#paint18_linear_458_14790)"/>
<path style="mix-blend-mode:overlay" opacity="0.67" d="M14.4258 14.0059L11.0554 10.5629L7.25378 14.6507L9.45371 19.0939L14.4258 14.0059Z" fill="url(#paint19_linear_458_14790)"/>
<path style="mix-blend-mode:overlay" opacity="0.67" d="M7.12305 18.2822L5.19946 14.1587L2.75244 16.4832L3.33764 20.5515L7.12305 18.2822Z" fill="url(#paint20_linear_458_14790)"/>
<path style="mix-blend-mode:overlay" opacity="0.67" d="M4.01769 10.4112L-1.21013 8.51906L4.75787 5.12921L8.00684 7.638L4.01769 10.4112Z" fill="url(#paint21_linear_458_14790)"/>
<path style="mix-blend-mode:overlay" opacity="0.67" d="M8.57553 6.39821L4.24719 2.79596L12.1778 1.33511L14.123 4.31749L8.57553 6.39821Z" fill="url(#paint22_linear_458_14790)"/>
<path style="mix-blend-mode:overlay" opacity="0.67" d="M15.0708 2.87833L12.9803 -0.466003L20.3896 0.370622L19.3905 2.48819L15.0708 2.87833Z" fill="url(#paint23_linear_458_14790)"/>
</g>
<path d="M7.76613 7.37031L8.43261 6.27142L10.0246 5.57134L11.6079 4.89728L11.7802 4.82358L11.9525 4.74989L12.1248 4.6762L12.2971 4.60251L12.4694 4.52881L12.6417 4.45512L12.8141 4.38143L12.9864 4.30774L13.1587 4.23404L13.331 4.16035L13.5033 4.08666L13.6756 4.01297L13.8479 3.93927L14.0083 3.871L14.0191 3.86016L14.1893 3.69327L14.3594 3.52638L14.5296 3.35949L14.6997 3.1926L14.8699 3.02571L15.04 2.85882L15.1169 2.78296L15.2112 2.77212L15.3846 2.75153L15.558 2.73094L15.7314 2.71035L15.9048 2.68976L16.0782 2.66917L16.2516 2.64858L16.425 2.62798L16.5984 2.60739L16.7718 2.5868L16.9452 2.56621L17.1186 2.54562L17.292 2.52503L17.4653 2.50444L17.6387 2.48385L17.8121 2.46326L17.9855 2.44267L18.1589 2.42208L18.3323 2.40149L18.5057 2.3809L18.6791 2.36031L18.8525 2.33972L19.0259 2.31913L19.1993 2.29854L19.3727 2.27795L19.5461 2.25736L19.5645 2.25519C19.6176 2.26386 19.6696 2.27469 19.7205 2.28553C19.7812 2.29962 19.8398 2.31479 19.8961 2.33213C19.9568 2.35055 20.0153 2.37115 20.0717 2.39282C20.1334 2.41666 20.192 2.44159 20.2472 2.46976C20.3101 2.50119 20.3686 2.5337 20.4239 2.56946C20.4867 2.60956 20.5463 2.65074 20.6016 2.69517C20.6666 2.74719 20.7262 2.80138 20.7804 2.85773C20.8476 2.92817 20.9083 3.00078 20.9603 3.07556C21.034 3.18068 21.0947 3.28796 21.1424 3.39308C21.3309 3.80381 21.3407 4.17552 21.3374 4.22646C21.3266 4.38793 21.267 4.55591 21.1781 4.72171C21.1294 4.81166 21.073 4.90053 21.0112 4.98722C20.9581 5.06092 20.9018 5.13353 20.8433 5.20397C20.788 5.27007 20.7316 5.33293 20.6742 5.39362C20.6168 5.4543 20.5604 5.51282 20.5052 5.56701C20.4456 5.62445 20.3892 5.67863 20.335 5.7274C20.2722 5.78484 20.2147 5.83469 20.1649 5.87695C20.0619 5.96473 19.9947 6.01458 19.9947 6.01458L19.8235 6.11537L19.6523 6.21615L19.481 6.31694L19.3098 6.41772L19.1386 6.51851L18.9674 6.61929L18.7961 6.72008L18.6628 6.79919L18.626 6.84687L18.458 7.06145L18.29 7.27602L18.1221 7.4906L17.9541 7.70517L17.7861 7.91975L17.6181 8.13432L17.4502 8.3489L17.2822 8.56347L17.1142 8.77805L16.9462 8.99262L16.7783 9.20719L16.6103 9.42177L16.4423 9.63635L16.2743 9.85092L16.1064 10.0655L16.0847 10.0937L15.9341 10.1359L15.7618 10.1847L15.5894 10.2335L15.4171 10.2822L15.2448 10.331L15.0725 10.3798L14.9002 10.4285L14.7279 10.4773L14.5556 10.5261L14.3833 10.5748L14.211 10.6236L14.2001 10.6269L14.0408 10.7515L13.8707 10.8848L13.7005 11.0181L13.5304 11.1514L13.3602 11.2847L13.1901 11.418L13.0904 11.496L13.0178 11.4873L12.8433 11.4657L12.6688 11.444L12.4944 11.4223L12.3199 11.4006L12.1454 11.379L11.9894 11.3594L11.9709 11.3735L11.8008 11.5014L7.46702 14.7352L5.86964 15.212L2.83308 16.6404C2.83308 16.6404 1.86749 16.1224 1.91409 15.0917C1.96069 14.0611 3.21563 11.6997 3.6632 10.6334C4.11077 9.56699 7.78564 7.36814 7.78564 7.36814L7.76613 7.37031Z" fill="url(#paint24_linear_458_14790)"/>
<path d="M7.77084 7.37356L8.43732 6.27467L10.0282 5.57351L11.6104 4.89944L11.7827 4.82575L11.955 4.75206L12.1274 4.67837L12.2997 4.60467L12.472 4.53098L12.6443 4.45729L12.8166 4.3836L12.9889 4.3099L13.1612 4.23621L13.3335 4.16252L13.5058 4.08883L13.6781 4.01513L13.8505 3.94144L14.0108 3.87317L14.0217 3.86233L14.1907 3.69544L14.3598 3.52855L14.5289 3.36166L14.6979 3.19476L14.867 3.02787L15.036 2.86098L15.113 2.78512L15.2073 2.77429L15.3807 2.75369L15.5541 2.7331L15.7274 2.71251L15.9008 2.69192L16.0742 2.67133L16.2476 2.65074L16.421 2.63015L16.5944 2.60956L16.7678 2.58897L16.9412 2.56838L17.1146 2.54779L17.288 2.5272L17.4614 2.50661L17.6348 2.48602L17.8082 2.46543L17.9816 2.44484L18.155 2.42425L18.3284 2.40366L18.5017 2.38307L18.6751 2.36247L18.8485 2.34188L19.0219 2.32129L19.1953 2.3007L19.3687 2.28011L19.5421 2.25952L19.5605 2.25735C19.6136 2.26602 19.6657 2.27686 19.7166 2.2877C19.7773 2.30179 19.8358 2.31696 19.8921 2.3343C19.9528 2.35272 20.0114 2.37331 20.0677 2.39499C20.1295 2.41883 20.188 2.44375 20.2433 2.47193C20.3061 2.50336 20.3646 2.53587 20.4199 2.57163C20.4828 2.61173 20.5424 2.65291 20.5976 2.69734C20.6627 2.74936 20.7223 2.80354 20.7754 2.8599C20.8426 2.93034 20.9033 3.00295 20.9553 3.07772C21.029 3.18284 21.0897 3.29013 21.1373 3.39525C21.3259 3.80598 21.3357 4.17769 21.3313 4.22863C21.3205 4.3901 21.2609 4.55807 21.172 4.72388C21.1232 4.81383 21.0669 4.90269 21.0051 4.98939C20.952 5.06308 20.8957 5.13569 20.8371 5.20613C20.7819 5.27224 20.7255 5.33509 20.6681 5.39578C20.6106 5.45647 20.5543 5.51499 20.499 5.56918C20.4394 5.62661 20.3831 5.6808 20.3289 5.72957C20.266 5.787 20.2086 5.83685 20.1587 5.87912C20.0558 5.9669 19.9886 6.01675 19.9886 6.01675L19.8174 6.11862L19.6461 6.2194L19.4749 6.32019L19.3037 6.42097L19.1325 6.52176L18.9612 6.62254L18.79 6.72333L18.6567 6.80244L18.6199 6.85012L18.4519 7.0647L18.2839 7.27927L18.1159 7.49385L17.948 7.70842L17.78 7.923L17.612 8.13757L17.444 8.35215L17.2761 8.56672L17.1081 8.7813L16.9401 8.99587L16.7721 9.21045L16.6042 9.42502L16.4362 9.6396L16.2682 9.85417L16.1002 10.0687L16.0786 10.0969L15.9279 10.1392L15.7556 10.188L15.5833 10.2367L15.411 10.2855L15.2387 10.3343L15.0664 10.383L14.8941 10.4318L14.7218 10.4806L14.5495 10.5293L14.3771 10.5781L14.2048 10.6269L14.194 10.6301L14.0347 10.7547L13.8645 10.888L13.6944 11.0213L13.5243 11.1546L13.3541 11.2879L13.184 11.4212L13.0843 11.4992L13.0117 11.4906L12.8372 11.4689L12.6627 11.4472L12.4882 11.4256L12.3138 11.4039L12.1393 11.3822L11.9832 11.3627L11.9648 11.3768L11.7947 11.5047L7.46198 14.7395L5.86459 15.2164L2.82912 16.6458C2.82912 16.6458 1.86461 16.1278 1.91121 15.0972C1.95781 14.0655 3.21275 11.7041 3.66032 10.6377C4.1079 9.57132 7.78168 7.37139 7.78168 7.37139L7.77084 7.37356Z" stroke="url(#paint25_linear_458_14790)" stroke-width="0.35" stroke-miterlimit="10"/>
<g opacity="0.59">
<path d="M23.3505 20.2297C22.865 19.2706 22.567 18.1912 22.6862 17.1259C22.8314 15.8276 23.5683 14.6811 24.0592 13.4684C25.0097 11.1254 25.0302 8.42587 24.1156 6.06772" stroke="#72391E" stroke-width="0.68" stroke-miterlimit="10"/>
<path d="M22.2475 22.4664C22.5975 21.9105 22.3234 21.1963 22.15 20.5634C21.8097 19.3248 21.8986 18.0091 22.1153 16.7434C22.332 15.4776 22.6734 14.2346 22.8349 12.9612C22.9498 12.0574 22.9736 11.1373 23.2012 10.2541" stroke="#72391E" stroke-width="0.68" stroke-miterlimit="10"/>
<path d="M21.3329 23.4851C21.0663 22.8501 21.127 22.344 21.1314 21.6569C21.1476 19.0148 21.955 16.4334 22.0818 13.7946C22.1555 12.272 22.0005 10.7374 21.6234 9.25925" stroke="#72391E" stroke-width="0.68" stroke-miterlimit="10"/>
<path d="M21.8652 22.4675C20.0771 19.639 19.8387 15.9089 21.2529 12.881" stroke="#72391E" stroke-width="0.68" stroke-miterlimit="10"/>
<path d="M21.6758 22.9584C20.3883 21.9289 19.5019 20.4182 19.2353 18.7991C19.154 18.305 19.128 17.8032 19.1236 17.3025C19.1074 15.5285 19.0879 15.6141 19.3306 13.8563" stroke="#72391E" stroke-width="0.68" stroke-miterlimit="10"/>
<path d="M26.6663 10.965C26.8668 12.7824 26.2317 12.7336 26.0822 13.6125C25.9283 14.5196 25.9337 15.4906 25.458 16.2795C25.2336 16.6512 24.915 16.9568 24.6517 17.3025C24.1781 17.9246 23.8877 18.681 23.8237 19.457C23.8584 19.0928 23.9137 18.8392 24.0947 18.5044C24.4046 17.93 25.1296 17.697 25.3648 17.0067C25.4461 16.7683 25.4656 16.5147 25.484 16.2633C25.6465 14.1034 25.808 11.9436 25.9706 9.78375" stroke="#72391E" stroke-width="0.68" stroke-miterlimit="10"/>
<path d="M25.3701 9.80542C25.2271 11.2067 25.0775 12.6361 24.5021 13.9235C24.1704 14.6669 23.6958 15.3681 23.5842 16.1733C23.5202 16.6382 23.5809 17.1151 23.4996 17.5778C23.4173 18.0405 23.1344 18.5195 22.6717 18.6192" stroke="#72391E" stroke-width="0.68" stroke-miterlimit="10"/>
<path d="M18.2607 25.0251C18.1892 24.2318 17.7644 23.4764 17.1207 22.9985C16.4975 22.5369 15.6934 22.331 15.1386 21.7891C14.6802 21.3415 14.4461 20.7076 14.3691 20.0758C14.2705 19.2651 14.4266 18.4556 14.3973 17.645" stroke="#72391E" stroke-width="0.68" stroke-miterlimit="10"/>
<path d="M16.7655 25.4727C16.3602 24.4518 16.4653 23.2976 16.7514 22.2367C17.0364 21.1768 17.4916 20.1679 17.7831 19.1091C18.1646 17.7241 18.2578 16.2622 18.0573 14.8404" stroke="#72391E" stroke-width="0.68" stroke-miterlimit="10"/>
<path d="M17.9336 25.2201C16.4619 22.4296 16.5627 19.5469 15.7001 16.5168C15.6155 16.2199 15.4216 15.8569 15.1149 15.9089" stroke="#72391E" stroke-width="0.68" stroke-miterlimit="10"/>
<path d="M17.415 25.3502C16.7778 24.8192 16.508 24.3163 15.8046 23.8211C14.864 23.1589 13.6795 22.8273 12.896 21.9874C12.6023 21.6731 12.379 21.3003 12.1829 20.9189C11.8924 20.3554 11.6573 19.6683 11.9531 19.108" stroke="#72391E" stroke-width="0.68" stroke-miterlimit="10"/>
<path d="M16.6592 25.6861C15.8215 24.9525 14.7919 24.4702 13.8979 23.8048C11.8432 22.2735 10.6467 19.8937 9.52186 17.6017" stroke="#72391E" stroke-width="0.68" stroke-miterlimit="10"/>
<path d="M8.97081 18.7439C8.95022 19.5653 9.40429 20.3217 9.89521 20.985C11.4232 23.0505 13.4736 24.7325 15.8047 25.8357C14.6364 25.27 13.1323 25.2776 11.9283 24.7899C9.7695 23.9132 8.01497 22.1077 7.21086 19.9381" stroke="#72391E" stroke-width="0.68" stroke-miterlimit="10"/>
<path d="M13.3545 25.7512C12.0703 25.6634 10.5737 25.4174 9.44663 24.8018C7.63358 23.8102 5.76526 22.7178 4.66638 20.9785C4.45939 20.6512 4.28383 20.2199 4.49515 19.8948" stroke="#72391E" stroke-width="0.68" stroke-miterlimit="10"/>
<path d="M14.9141 25.8693C13.994 25.8931 13.2354 25.8563 12.4627 25.7739C11.586 25.6796 10.9065 25.5106 10.0525 25.2917C9.03818 25.0316 8.09319 24.6003 7.3736 24.2177C6.71904 23.8698 6.30181 23.561 5.74478 23.2142C5.0783 22.7991 4.54511 22.2768 3.94582 21.7696C3.73992 21.5951 3.49608 21.2841 3.33786 21.0674" stroke="#72391E" stroke-width="0.68" stroke-miterlimit="10"/>
<path d="M14.8896 25.8812C12.7992 24.5613 11.0089 22.8598 9.89266 20.6664C9.18499 19.2771 9.32588 19.6434 8.44157 18.3581" stroke="#72391E" stroke-width="0.68" stroke-miterlimit="10"/>
<path d="M16.0947 25.7393C14.6436 24.4648 13.5849 22.8674 12.9877 20.9969C12.4881 19.4331 12.2064 17.7859 11.4543 16.324" stroke="#72391E" stroke-width="0.68" stroke-miterlimit="10"/>
<path d="M16.2227 24.9145C15.4424 23.8243 15.0447 22.4708 15.1097 21.1367C15.1509 20.2947 15.3698 19.444 15.191 18.6193C15.0783 18.0991 14.8127 17.6255 14.5516 17.1606" stroke="#72391E" stroke-width="0.68" stroke-miterlimit="10"/>
<path d="M18.6279 24.8083C17.9441 24.1971 17.6634 23.2673 17.4684 22.3765C16.9861 20.1755 16.8431 17.9019 17.0446 15.6586" stroke="#72391E" stroke-width="0.68" stroke-miterlimit="10"/>
<path d="M19.7891 24.3846C18.8462 22.7731 18.5558 20.7975 18.9969 18.9866C19.2028 18.1381 19.5647 17.282 19.4043 16.4247C19.2906 15.8179 18.9264 15.2901 18.571 14.7829" stroke="#72391E" stroke-width="0.68" stroke-miterlimit="10"/>
<path d="M21.0855 23.6867C20.7463 21.8303 20.7496 20.4237 20.9381 18.5467C21.0996 16.9341 21.4572 15.3215 21.2979 13.709" stroke="#72391E" stroke-width="0.68" stroke-miterlimit="10"/>
<path d="M22.5835 22.5293C22.1749 21.2083 22.6691 20.001 23.0495 18.6713C23.4299 17.3427 23.8861 15.9891 23.7626 14.6128C23.6856 13.7567 23.3865 12.9298 23.3334 12.0726" stroke="#72391E" stroke-width="0.68" stroke-miterlimit="10"/>
<path d="M23.7001 21.5323C24.0751 17.9701 23.9038 14.3343 24.7448 10.8523C24.8803 10.292 25.045 9.72957 25.3506 9.24081" stroke="#72391E" stroke-width="0.68" stroke-miterlimit="10"/>
<path d="M24.6472 18.4556C25.2194 16.8214 25.4719 15.0788 25.3852 13.3503C25.3451 12.5407 25.2302 11.7312 25.2833 10.9217C25.3353 10.1121 25.5748 9.28093 26.1416 8.69681" stroke="#72391E" stroke-width="0.68" stroke-miterlimit="10"/>
<path d="M25.4509 7.70303C25.9537 8.54941 25.983 9.77292 26.0859 10.7266C26.2084 11.8732 26.2257 13.0425 25.9656 14.1728C25.7088 15.2901 25.1929 16.3283 24.8028 17.4066C24.4127 18.4849 24.0648 19.4906 24.3303 20.6057C24.2599 18.9064 24.0377 17.9116 24.3173 16.4128C24.598 14.9151 25.0152 13.4402 25.1962 11.9273C25.245 11.5188 25.2753 11.1016 25.1832 10.7006C25.09 10.2996 24.8559 9.9138 24.4885 9.72415" stroke="#492112" stroke-width="0.68" stroke-miterlimit="10"/>
<path d="M23.5772 21.296C23.0094 20.5287 22.9725 19.4916 23.1318 18.5542C23.2911 17.6157 23.6217 16.7076 23.7116 15.7604C23.8525 14.2703 23.3887 12.7965 22.9303 11.3703" stroke="#492112" stroke-width="0.68" stroke-miterlimit="10"/>
<path d="M22.6518 22.0438C22.1392 21.4477 21.8845 20.6631 21.8401 19.8807C21.7956 19.0993 21.9506 18.318 22.1814 17.5691C22.3407 17.0544 22.5369 16.5461 22.6138 16.0129C22.8349 14.4675 22.0254 12.9243 22.1749 11.3703" stroke="#492112" stroke-width="0.68" stroke-miterlimit="10"/>
<path d="M21.481 22.4989C21.0118 19.8005 21.6078 17.0414 22.2743 14.3852C22.4 13.8834 22.4759 13.2375 22.0392 12.9558" stroke="#492112" stroke-width="0.68" stroke-miterlimit="10"/>
<path d="M20.8705 22.6193C20.3579 21.4467 20.204 20.1224 20.4349 18.8653C20.67 17.5865 21.291 16.3792 21.3484 15.081C21.3679 14.6431 21.2585 14.1143 20.8456 13.9593" stroke="#492112" stroke-width="0.68" stroke-miterlimit="10"/>
<path d="M20.5984 24.0671C19.7444 21.0207 19.8257 17.7241 20.8281 14.7233" stroke="#492112" stroke-width="0.68" stroke-miterlimit="10"/>
<path d="M17.4046 15.7322C17.7969 16.2481 17.8836 16.9243 17.9541 17.567C18.1188 19.0679 18.2716 20.5699 18.4125 22.0741C18.5079 23.0961 18.5978 24.131 18.4461 25.1464" stroke="#492112" stroke-width="0.68" stroke-miterlimit="10"/>
<path d="M12.0626 16.5168C11.8198 16.9243 11.8415 17.4456 12.0062 17.8899C12.1699 18.3342 12.4614 18.72 12.7486 19.0982C14.4663 21.36 16.2934 23.7062 18.8867 24.8918C17.1083 22.8208 15.8079 19.8568 15.2433 17.1963" stroke="#492112" stroke-width="0.68" stroke-miterlimit="10"/>
<path d="M24.8111 19.9663C25.9403 17.3665 26.5505 14.5467 26.5949 11.716C26.6079 10.9086 26.5602 10.0536 26.1105 9.38062" stroke="#492112" stroke-width="0.68" stroke-miterlimit="10"/>
<path d="M24.3211 18.9606C24.8954 16.3099 25.472 13.5778 24.9876 10.9097C24.8738 10.2822 24.657 9.60385 24.1065 9.27548" stroke="#492112" stroke-width="0.68" stroke-miterlimit="10"/>
<path d="M23.3556 20.3391C23.4835 16.7119 23.4987 13.0804 23.4033 9.45215" stroke="#492112" stroke-width="0.68" stroke-miterlimit="10"/>
<path d="M20.4459 22.9498C20.4697 19.6596 20.486 16.3207 19.6114 13.1476" stroke="#492112" stroke-width="0.68" stroke-miterlimit="10"/>
<path d="M19.4346 23.8059C19.2742 21.839 19.1138 19.8709 18.8255 17.9181C18.6575 16.7813 18.4343 15.6163 17.8047 14.6507" stroke="#492112" stroke-width="0.68" stroke-miterlimit="10"/>
<path d="M18.7236 24.8484C18.2501 23.3453 17.9531 21.7934 17.5066 20.2817C17.0601 18.771 16.4489 17.2765 15.4335 16.0649" stroke="#492112" stroke-width="0.68" stroke-miterlimit="10"/>
<path d="M18.0283 25.1616C16.846 21.7306 15.3169 18.7667 13.2795 15.7561" stroke="#492112" stroke-width="0.68" stroke-miterlimit="10"/>
<path d="M17.5059 24.7931C14.3663 23.3648 11.3406 21.3383 9.66954 18.3407" stroke="#492112" stroke-width="0.68" stroke-miterlimit="10"/>
<path d="M18.2515 24.8419C18.608 24.9536 18.9787 24.7498 19.2929 24.5482C21.7031 23.004 23.9897 21.0479 25.107 18.4264C25.9632 16.4172 26.0651 14.1609 25.8104 11.9945" stroke="#492112" stroke-width="0.68" stroke-miterlimit="10"/>
<path d="M24.0881 19.898C24.7438 18.4665 25.4005 17.0295 25.8676 15.5264C26.3336 14.0233 26.6067 12.4432 26.4745 10.8762C26.4008 10.0092 26.1613 9.08153 25.472 8.54184" stroke="#492112" stroke-width="0.68" stroke-miterlimit="10"/>
<path d="M22.3952 21.6027C22.9609 19.3096 23.3933 16.985 23.6902 14.642C23.7715 14.0037 23.8419 13.3546 23.7379 12.7195C23.6349 12.0845 23.3358 11.4548 22.8081 11.0799" stroke="#492112" stroke-width="0.68" stroke-miterlimit="10"/>
<path d="M19.3297 23.1849C19.6114 21.3871 19.8932 19.5903 20.1749 17.7924C20.331 16.7943 20.4881 15.7864 20.4231 14.7786C20.3581 13.7707 20.8707 13.554 20.201 12.7921" stroke="#492112" stroke-width="0.68" stroke-miterlimit="10"/>
<path d="M17.511 23.8233C17.7862 20.661 17.9314 17.4879 17.9434 14.3137" stroke="#492112" stroke-width="0.68" stroke-miterlimit="10"/>
<path d="M16.0732 24.5916C15.3092 21.1486 14.9386 18.6398 15.0881 15.1178" stroke="#492112" stroke-width="0.68" stroke-miterlimit="10"/>
<path d="M13.248 25.0522C12.1167 22.6615 11.2692 20.1386 10.7306 17.5529" stroke="#492112" stroke-width="0.68" stroke-miterlimit="10"/>
<path d="M13.2178 25.5583C11.4372 24.455 9.63177 23.3323 8.22728 21.7859C7.88266 21.4066 7.55213 20.9774 7.47519 20.4713" stroke="#492112" stroke-width="0.68" stroke-miterlimit="10"/>
<path d="M14.6367 24.7639C11.9827 25.6655 9.15097 25.2331 6.69962 23.8752C5.93235 23.4504 4.91041 22.811 4.49318 22.1641" stroke="#492112" stroke-width="0.68" stroke-miterlimit="10"/>
<path d="M20.3102 23.8807C20.2788 23.8536 20.2712 23.9446 20.3135 23.937C20.3557 23.9294 20.3666 23.8774 20.3687 23.8351C20.5291 20.7563 20.2116 17.6547 19.4302 14.6702" stroke="#492112" stroke-width="0.68" stroke-miterlimit="10"/>
<path style="mix-blend-mode:multiply" opacity="0.32" d="M21.6603 23.2055C21.6614 20.2535 21.7633 17.3015 21.9648 14.3559L21.6603 23.2055Z" fill="url(#paint26_linear_458_14790)"/>
<path d="M24.2483 20.7011C24.9798 17.8921 25.5477 15.6033 25.6257 12.7488C25.6636 11.3595 25.6224 9.94522 25.1998 8.61984" stroke="#916436" stroke-width="0.68" stroke-miterlimit="10"/>
<path d="M23.6182 21.5637C24.2316 18.0969 24.845 14.5239 24.0831 11.0853" stroke="#916436" stroke-width="0.68" stroke-miterlimit="10"/>
<path d="M22.6259 22.1977C23.2187 19.3919 23.8114 16.48 23.1634 13.6873" stroke="#916436" stroke-width="0.68" stroke-miterlimit="10"/>
<path d="M21.96 22.5488C21.8483 19.3475 21.7378 16.1451 21.6262 12.9438" stroke="#916436" stroke-width="0.68" stroke-miterlimit="10"/>
<path d="M19.936 14.8902C19.6401 17.5485 20.1917 20.2947 21.4922 22.6398C20.143 21.3437 18.68 20.4247 17.7751 18.7916C17.2831 17.9051 16.9374 16.8355 17.3015 15.8915" stroke="#916436" stroke-width="0.68" stroke-miterlimit="10"/>
<path d="M21.252 22.8674C20.1552 22.6409 19.0303 22.4036 18.0853 21.8075C17.7375 21.5886 17.421 21.3242 17.1176 21.0489C15.4075 19.5025 14.0171 17.4694 13.783 15.1871" stroke="#916436" stroke-width="0.68" stroke-miterlimit="10"/>
<path d="M21.7227 23.238C19.9909 22.8457 18.5149 22.6073 16.8828 21.9105C15.2507 21.2147 13.7162 20.2177 12.6227 18.8295" stroke="#916436" stroke-width="0.68" stroke-miterlimit="10"/>
<path d="M20.5918 23.4439C18.4916 23.8796 16.2656 24.3087 14.2402 23.6065C13.1705 23.2358 12.2136 22.5542 11.5168 21.6688" stroke="#916436" stroke-width="0.68" stroke-miterlimit="10"/>
<path d="M20.3906 24.1754C17.7106 24.2242 14.984 24.2686 12.4037 23.5458C11.6202 23.3269 10.8334 23.0234 10.246 22.4653" stroke="#916436" stroke-width="0.68" stroke-miterlimit="10"/>
<path d="M19.75 23.4223C18.624 23.8915 17.4655 24.2849 16.2854 24.5981C15.5647 24.7899 14.8256 24.9525 14.0789 24.9297C13.4569 24.9113 12.8468 24.7639 12.2453 24.6079C11.2992 24.3629 10.326 24.0757 9.58587 23.4396" stroke="#916436" stroke-width="0.68" stroke-miterlimit="10"/>
<path d="M21.0889 23.4635C19.2054 23.4418 17.3295 23.7376 15.4471 23.7084C13.5647 23.6791 11.5966 23.2814 10.1618 22.0709" stroke="#916436" stroke-width="0.68" stroke-miterlimit="10"/>
<path d="M20.7256 22.798C18.983 23.3236 17.1125 23.3876 15.3157 23.0852C13.8993 22.8468 12.4395 22.3277 11.5563 21.205" stroke="#916436" stroke-width="0.68" stroke-miterlimit="10"/>
<path d="M21.4111 22.7742C18.9847 21.308 16.8162 19.4234 15.0302 17.2321" stroke="#916436" stroke-width="0.68" stroke-miterlimit="10"/>
<path d="M22.3594 22.7189C21.0882 21.0619 19.9741 19.4602 18.9045 17.6677C18.5252 17.0327 18.1459 16.3066 18.3215 15.5903" stroke="#916436" stroke-width="0.68" stroke-miterlimit="10"/>
<path d="M22.7969 22.2941C21.2829 19.3768 20.2404 16.518 19.4439 13.334" stroke="#916436" stroke-width="0.68" stroke-miterlimit="10"/>
<path d="M23.0518 21.9484C22.4546 19.1838 22.2184 16.3424 22.3528 13.5193" stroke="#916436" stroke-width="0.68" stroke-miterlimit="10"/>
<path d="M23.5286 21.0803C23.8439 17.9354 24.1549 14.7222 23.4223 11.6466" stroke="#916436" stroke-width="0.68" stroke-miterlimit="10"/>
<path d="M24.212 20.584C24.8037 18.5174 25.3195 16.4291 25.7573 14.3256C25.9437 13.4326 26.0781 12.3912 25.4658 11.7106" stroke="#916436" stroke-width="0.68" stroke-miterlimit="10"/>
<path d="M25.0104 18.836C25.7755 16.5819 26.4549 14.1771 25.9521 11.8515C25.7722 11.0192 25.4124 10.1793 24.7243 9.66998" stroke="#916436" stroke-width="0.68" stroke-miterlimit="10"/>
<path d="M22.4297 20.4984C22.0612 17.5854 21.8141 14.6583 21.6873 11.7258" stroke="#916436" stroke-width="0.68" stroke-miterlimit="10"/>
<path d="M20.7451 21.8282C20.4894 20.4952 20.2314 19.1546 19.7611 17.8813C19.2897 16.6068 18.5918 15.3898 17.572 14.4849" stroke="#916436" stroke-width="0.68" stroke-miterlimit="10"/>
<path d="M21.0225 23.2337C18.6058 22.7655 16.641 21.0793 14.8009 19.4548" stroke="#916436" stroke-width="0.68" stroke-miterlimit="10"/>
<path d="M23.7988 20.9417C22.7617 22.1923 21.2781 23.0072 19.749 23.5762C18.2199 24.1451 16.4979 24.4919 14.9677 23.923" stroke="#916436" stroke-width="0.68" stroke-miterlimit="10"/>
<path d="M22.3252 22.5455C20.8394 23.769 18.9841 24.5461 17.0627 24.7487C15.1413 24.9514 13.1624 24.5786 11.4491 23.6921" stroke="#916436" stroke-width="0.68" stroke-miterlimit="10"/>
<path d="M20.6602 23.9695C19.1852 24.9839 17.7493 25.3524 16.1812 25.6916C14.613 26.0308 12.9376 26.0611 11.4356 25.4976" stroke="#916436" stroke-width="0.68" stroke-miterlimit="10"/>
<path d="M17.9697 25.1735C16.4233 25.646 14.7836 26.1402 13.2263 25.892C11.669 25.6439 10.1605 25.0251 8.9435 24.0302" stroke="#916436" stroke-width="0.68" stroke-miterlimit="10"/>
<path d="M20.0501 24.208C20.6657 24.0627 21.1328 23.5783 21.5543 23.1112C22.3584 22.2183 23.1344 21.3004 23.881 20.3597C24.2029 19.9544 24.6732 19.5079 24.8477 19.017C24.994 18.6062 25.0688 18.1294 25.188 17.7035C25.6345 16.1083 25.9986 14.4903 26.2793 12.8582" stroke="#916436" stroke-width="0.68" stroke-miterlimit="10"/>
<path d="M23.5547 21.4846C22.0245 23.4483 19.9405 24.5612 17.8511 25.2331" stroke="#916436" stroke-width="0.68" stroke-miterlimit="10"/>
<path d="M22.6777 22.3884C20.9839 23.3973 19.4038 24.4843 17.5886 25.2581C16.9861 25.5149 16.3489 25.7631 15.6954 25.7067" stroke="#916436" stroke-width="0.68" stroke-miterlimit="10"/>
<path d="M11.4884 20.3629C12.5721 21.5854 14.1435 22.3017 15.7485 22.642C16.7737 22.8598 17.8227 22.9368 18.8685 22.9649C19.3345 22.9769 19.9078 23.0657 20.364 22.9714C20.687 22.9053 20.9882 22.6918 21.2949 22.5683C19.1199 21.1855 17.2147 19.4299 15.4537 17.5551" stroke="#916436" stroke-width="0.68" stroke-miterlimit="10"/>
<path d="M21.7871 21.6818C20.3382 19.6022 19.0215 17.4315 17.8478 15.1871" stroke="#916436" stroke-width="0.68" stroke-miterlimit="10"/>
<path d="M21.5742 20.6198C21.3596 19.3052 21.1321 17.9918 20.8936 16.6816C20.833 16.35 20.7701 16.0118 20.6065 15.7171" stroke="#916436" stroke-width="0.68" stroke-miterlimit="10"/>
<path d="M21.807 21.9582C22.04 19.3139 22.2589 16.5624 21.3063 14.0818" stroke="#916436" stroke-width="0.68" stroke-miterlimit="10"/>
<path d="M22.7544 20.5775C23.2399 18.6453 23.6106 16.6859 23.8652 14.7103" stroke="#916436" stroke-width="0.68" stroke-miterlimit="10"/>
<path d="M23.5457 20.6404C23.7646 18.6334 23.9846 16.6263 24.2035 14.6204C24.2934 13.7968 24.378 12.9309 24.0561 12.1658" stroke="#916436" stroke-width="0.68" stroke-miterlimit="10"/>
<path d="M23.5834 21.3383C24.5512 18.0817 25.5287 14.6919 24.9901 11.3378" stroke="#916436" stroke-width="0.68" stroke-miterlimit="10"/>
<path d="M23.0003 21.9918C23.5725 18.784 23.8966 15.5329 23.9681 12.2763C24.0017 10.7667 23.9768 9.23217 23.5454 7.78433" stroke="#916436" stroke-width="0.68" stroke-miterlimit="10"/>
<path d="M21.9463 22.0687C20.713 18.5391 20.5017 14.6659 21.3416 11.0268" stroke="#916436" stroke-width="0.68" stroke-miterlimit="10"/>
<path d="M22.042 22.5141C19.4368 20.9828 17.1642 18.8978 15.4227 16.441" stroke="#916436" stroke-width="0.68" stroke-miterlimit="10"/>
<path d="M22.0303 22.9682C20.3234 22.6875 18.5927 22.3992 17.0203 21.6851C16.2584 21.3394 15.5443 20.8972 14.8485 20.4334C13.1135 19.276 11.9073 18.5055 10.6448 16.8528" stroke="#916436" stroke-width="0.68" stroke-miterlimit="10"/>
<path d="M21.3447 23.5209C17.0251 23.1275 12.7357 22.6084 9.14431 20.1949" stroke="#916436" stroke-width="0.68" stroke-miterlimit="10"/>
<path d="M19.5615 24.4572C15.7501 25.192 11.6504 24.3228 8.47516 22.1066" stroke="#916436" stroke-width="0.68" stroke-miterlimit="10"/>
<path d="M17.9814 25.2201C16.4708 25.5745 14.9145 26.0199 13.4266 25.9993C13.0115 25.9939 12.5943 25.9831 12.1847 25.9148C11.6276 25.8216 11.0945 25.6243 10.5732 25.4098C8.92921 24.7314 7.30689 23.8211 6.27953 22.3786" stroke="#916436" stroke-width="0.68" stroke-miterlimit="10"/>
<path d="M23.8596 21.2093C26.0855 18.1988 27.0197 14.2801 26.3911 10.5976" stroke="#916436" stroke-width="0.68" stroke-miterlimit="10"/>
<path d="M25.7584 9.44783C25.9047 13.5649 24.8611 17.878 23.3504 21.7154C24.1967 20.9677 24.8296 19.9197 25.3216 18.9065C26.0369 17.4326 26.4953 15.9869 26.6904 14.3635C26.8854 12.7401 26.7435 10.7754 26.0531 9.28961" stroke="#916436" stroke-width="0.68" stroke-miterlimit="10"/>
<path d="M24.363 10.1089C24.4529 14.1912 23.8764 18.2877 22.6637 22.1901C22.5001 22.7146 21.7707 23.1557 21.2039 23.5924" stroke="#916436" stroke-width="0.68" stroke-miterlimit="10"/>
<path d="M22.2172 12.299C22.3375 14.1663 22.4578 16.04 22.318 17.9051C22.1771 19.7701 21.7664 21.6395 20.8789 23.29C20.7781 23.4764 20.6665 23.6661 20.4931 23.7885" stroke="#916436" stroke-width="0.68" stroke-miterlimit="10"/>
<path d="M21.4717 15.2652C21.2788 17.6212 20.9038 19.9587 20.4584 22.28C20.3533 22.8306 20.2417 23.3854 20.0076 23.8948C19.7735 24.4041 19.1157 24.7379 18.6085 24.9839" stroke="#916436" stroke-width="0.68" stroke-miterlimit="10"/>
<path d="M21.8145 22.8371C20.1748 20.3543 18.4766 17.9094 16.7221 15.5058" stroke="#916436" stroke-width="0.68" stroke-miterlimit="10"/>
<path d="M20.8193 22.4664C17.9746 21.4878 15.4398 19.6401 13.6495 17.2397" stroke="#916436" stroke-width="0.68" stroke-miterlimit="10"/>
<path d="M19.832 23.0321C19.4668 22.9118 19.1417 22.72 18.77 22.642C18.2726 22.5369 17.7502 22.5044 17.2474 22.4252C16.2374 22.267 15.2306 22.0741 14.2477 21.7913C12.6427 21.3285 11.0865 20.61 9.84455 19.5003" stroke="#916436" stroke-width="0.68" stroke-miterlimit="10"/>
<path d="M19.418 24.4691C18.5369 22.1251 19.5057 19.4743 19.0051 17.0229C18.8187 16.1072 18.4264 15.2262 18.4014 14.292" stroke="#492112" stroke-width="0.68" stroke-miterlimit="10"/>
<path d="M14.8033 15.2164C14.3752 15.7225 14.3514 16.4486 14.4153 17.1064C14.5605 18.6062 15.072 20.0638 15.8664 21.347C16.276 22.0091 16.7615 22.6246 17.3121 23.1763C17.5787 23.4439 17.8615 23.6964 18.1574 23.9316C18.3654 24.0974 18.7675 24.2816 18.877 24.5092C18.4012 24.7314 17.4768 24.7433 16.9555 24.7715C16.0019 24.8235 15.0384 24.6555 14.1487 24.3152C12.7897 23.7961 11.6009 22.8945 10.6223 21.8238C10.1162 21.27 9.64807 20.6393 9.50719 19.9045" stroke="#492112" stroke-width="0.68" stroke-miterlimit="10"/>
<path d="M6.0986 22.1933C6.38145 22.8035 6.94606 23.238 7.52585 23.5859C9.06472 24.5092 10.8431 24.9925 12.6323 25.1833C14.4204 25.3751 16.228 25.2862 18.0205 25.1334C16.5467 24.5645 14.8442 23.3388 13.7236 22.2313C12.603 21.1248 11.6515 19.8612 10.7401 18.5802C10.467 18.1955 10.1853 17.7739 10.1961 17.3036" stroke="#492112" stroke-width="0.68" stroke-miterlimit="10"/>
<path d="M21.7543 21.9907C22.1206 18.784 22.2224 15.4971 21.4248 12.3684C21.2569 11.7117 21.0976 11.224 20.6847 10.5749" stroke="#492112" stroke-width="0.68" stroke-miterlimit="10"/>
<path d="M16.3711 25.6374C14.0368 25.2396 11.6429 24.8213 9.60332 23.626C8.78187 23.1448 8.03194 22.5434 7.38604 21.8476C6.68922 21.0966 6.08884 20.1592 6.12569 19.1394" stroke="#492112" stroke-width="0.68" stroke-miterlimit="10"/>
<path d="M23.2684 20.0595C23.6943 18.163 24.1213 16.2654 24.5472 14.3689C24.7217 13.5919 24.8973 12.8041 24.8691 12.0075C24.8409 11.211 24.5862 10.3928 24.0108 9.83685" stroke="#492112" stroke-width="0.68" stroke-miterlimit="10"/>
<path d="M21.2726 21.9929C21.5923 20.4572 21.912 18.9227 22.2317 17.3871C22.4506 16.3337 22.6716 15.2706 22.6586 14.1945C22.6456 13.1183 22.3801 12.0151 21.7158 11.1633" stroke="#492112" stroke-width="0.68" stroke-miterlimit="10"/>
<path d="M14.2432 24.2697C13.1226 21.3134 12.5732 18.7732 12.5222 15.6163" stroke="#492112" stroke-width="0.68" stroke-miterlimit="10"/>
<path d="M14.2666 23.6206C10.9093 23.276 7.43597 22.7558 4.62699 20.9005" stroke="#492112" stroke-width="0.68" stroke-miterlimit="10"/>
</g>
<path style="mix-blend-mode:multiply" opacity="0.71" d="M23.4358 3.10483C23.7555 3.5058 24.0579 3.92628 24.3429 4.36627C28.6886 11.0918 27.1443 19.846 20.8924 23.9197C14.6415 27.9933 6.05095 25.8433 1.70418 19.1167C1.26636 18.4393 0.889229 17.7425 0.570618 17.0305L6.58738 18.2659C6.99377 18.3494 7.41534 18.306 7.79572 18.1424L13.4419 15.6867C15.1986 15.3995 18.5364 14.7927 19.5464 13.3264L21.6239 10.1793C22.7466 9.34375 22.3911 7.73011 22.6989 6.36463L23.4358 3.10049V3.10483Z" fill="url(#paint27_linear_458_14790)"/>
<defs>
<linearGradient id="paint0_linear_458_14790" x1="16.8511" y1="25.6519" x2="11.6582" y2="6.25828" gradientUnits="userSpaceOnUse">
<stop offset="0.14" stop-color="#683C11"/>
<stop offset="1" stop-color="#936037"/>
</linearGradient>
<linearGradient id="paint1_linear_458_14790" x1="16.8511" y1="25.6519" x2="11.6582" y2="6.25828" gradientUnits="userSpaceOnUse">
<stop offset="0.14" stop-color="#683C11"/>
<stop offset="0.99" stop-color="#936037" stop-opacity="0"/>
</linearGradient>
<linearGradient id="paint2_linear_458_14790" x1="20.7965" y1="2.9796" x2="1.3278" y2="14.84" gradientUnits="userSpaceOnUse">
<stop stop-color="#B2B2B2"/>
<stop offset="0.51" stop-color="#F6F6F6"/>
</linearGradient>
<linearGradient id="paint3_linear_458_14790" x1="20.8132" y1="2.96945" x2="1.31114" y2="14.8502" gradientUnits="userSpaceOnUse">
<stop offset="0.49" stop-color="white"/>
<stop offset="1" stop-color="white"/>
</linearGradient>
<linearGradient id="paint4_linear_458_14790" x1="24.0807" y1="11.1252" x2="15.5749" y2="8.84451" gradientUnits="userSpaceOnUse">
<stop offset="0.49" stop-color="#F6F6F6"/>
<stop offset="1" stop-color="#B2B2B2"/>
</linearGradient>
<linearGradient id="paint5_linear_458_14790" x1="19.9595" y1="12.4602" x2="13.5755" y2="10.7484" gradientUnits="userSpaceOnUse">
<stop offset="0.05" stop-color="#F6F6F6"/>
<stop offset="0.7" stop-color="#9D9D9C"/>
</linearGradient>
<linearGradient id="paint6_linear_458_14790" x1="17.3225" y1="12.9304" x2="12.7587" y2="11.7067" gradientUnits="userSpaceOnUse">
<stop offset="0.49" stop-color="#F6F6F6"/>
<stop offset="1" stop-color="#B2B2B2"/>
</linearGradient>
<linearGradient id="paint7_linear_458_14790" x1="14.5489" y1="14.9973" x2="13.2907" y2="10.2999" gradientUnits="userSpaceOnUse">
<stop offset="0.05" stop-color="#F6F6F6"/>
<stop offset="0.7" stop-color="#9D9D9C"/>
</linearGradient>
<linearGradient id="paint8_linear_458_14790" x1="11.9379" y1="18.4295" x2="9.91367" y2="10.8687" gradientUnits="userSpaceOnUse">
<stop offset="0.49" stop-color="#F6F6F6"/>
<stop offset="1" stop-color="#B2B2B2"/>
</linearGradient>
<linearGradient id="paint9_linear_458_14790" x1="8.13077" y1="19.4483" x2="6.59574" y2="13.7163" gradientUnits="userSpaceOnUse">
<stop offset="0.05" stop-color="#F6F6F6"/>
<stop offset="0.7" stop-color="#9D9D9C"/>
</linearGradient>
<linearGradient id="paint10_linear_458_14790" x1="5.38796" y1="20.0032" x2="3.91523" y2="14.5032" gradientUnits="userSpaceOnUse">
<stop offset="0.49" stop-color="#F6F6F6"/>
<stop offset="1" stop-color="#B2B2B2"/>
</linearGradient>
<linearGradient id="paint11_linear_458_14790" x1="2.84693" y1="19.103" x2="-0.0367294" y2="8.33283" gradientUnits="userSpaceOnUse">
<stop offset="0.05" stop-color="#F6F6F6"/>
<stop offset="0.7" stop-color="#9D9D9C"/>
</linearGradient>
<linearGradient id="paint12_linear_458_14790" x1="4.02266" y1="10.41" x2="2.7521" y2="5.6666" gradientUnits="userSpaceOnUse">
<stop offset="0.49" stop-color="#F6F6F6"/>
<stop offset="1" stop-color="#B2B2B2"/>
</linearGradient>
<linearGradient id="paint13_linear_458_14790" x1="7.35282" y1="8.58306" x2="5.80542" y2="2.80503" gradientUnits="userSpaceOnUse">
<stop offset="0.05" stop-color="#F6F6F6"/>
<stop offset="0.7" stop-color="#9D9D9C"/>
</linearGradient>
<linearGradient id="paint14_linear_458_14790" x1="9.85396" y1="6.05593" x2="8.66424" y2="1.6136" gradientUnits="userSpaceOnUse">
<stop offset="0.49" stop-color="#F6F6F6"/>
<stop offset="1" stop-color="#B2B2B2"/>
</linearGradient>
<linearGradient id="paint15_linear_458_14790" x1="15.5492" y1="2.65097" x2="12.074" y2="1.71916" gradientUnits="userSpaceOnUse">
<stop offset="0.05" stop-color="#F6F6F6"/>
<stop offset="0.7" stop-color="#9D9D9C"/>
</linearGradient>
<linearGradient id="paint16_linear_458_14790" x1="19.8977" y1="2.2057" x2="12.7768" y2="0.296318" gradientUnits="userSpaceOnUse">
<stop offset="0.49" stop-color="#F6F6F6"/>
<stop offset="1" stop-color="#B2B2B2"/>
</linearGradient>
<linearGradient id="paint17_linear_458_14790" x1="24.5498" y1="9.78915" x2="15.3697" y2="9.78915" gradientUnits="userSpaceOnUse">
<stop offset="0.24" stop-color="#F6F6F6"/>
<stop offset="0.6" stop-color="white" stop-opacity="0"/>
</linearGradient>
<linearGradient id="paint18_linear_458_14790" x1="17.2412" y1="12.2394" x2="12.992" y2="12.2394" gradientUnits="userSpaceOnUse">
<stop offset="0.49" stop-color="#F6F6F6"/>
<stop offset="1" stop-color="white" stop-opacity="0"/>
</linearGradient>
<linearGradient id="paint19_linear_458_14790" x1="13.0267" y1="16.4291" x2="7.92677" y2="13.4846" gradientUnits="userSpaceOnUse">
<stop offset="0.05" stop-color="#F6F6F6"/>
<stop offset="0.57" stop-color="white" stop-opacity="0"/>
</linearGradient>
<linearGradient id="paint20_linear_458_14790" x1="7.12305" y1="17.3556" x2="2.75244" y2="17.3556" gradientUnits="userSpaceOnUse">
<stop offset="0.49" stop-color="#F6F6F6"/>
<stop offset="1" stop-color="white" stop-opacity="0"/>
</linearGradient>
<linearGradient id="paint21_linear_458_14790" x1="8.00684" y1="7.77022" x2="-1.21013" y2="7.77022" gradientUnits="userSpaceOnUse">
<stop offset="0.49" stop-color="#F6F6F6"/>
<stop offset="1" stop-color="white" stop-opacity="0"/>
</linearGradient>
<linearGradient id="paint22_linear_458_14790" x1="10.7495" y1="6.26492" x2="7.62186" y2="0.847443" gradientUnits="userSpaceOnUse">
<stop stop-color="white" stop-opacity="0"/>
<stop offset="0.39" stop-color="#F6F6F6"/>
</linearGradient>
<linearGradient id="paint23_linear_458_14790" x1="20.3896" y1="1.20616" x2="12.9803" y2="1.20616" gradientUnits="userSpaceOnUse">
<stop offset="0.28" stop-color="white" stop-opacity="0"/>
<stop offset="0.51" stop-color="#F6F6F6"/>
</linearGradient>
<linearGradient id="paint24_linear_458_14790" x1="20.8746" y1="2.93464" x2="1.40492" y2="14.7956" gradientUnits="userSpaceOnUse">
<stop stop-color="#9D9D9C"/>
<stop offset="0.7" stop-color="#F6F6F6"/>
</linearGradient>
<linearGradient id="paint25_linear_458_14790" x1="19.3818" y1="11.6447" x2="3.87125" y2="7.48577" gradientUnits="userSpaceOnUse">
<stop offset="0.49" stop-color="white"/>
<stop offset="1" stop-color="white"/>
</linearGradient>
<linearGradient id="paint26_linear_458_14790" x1="21.8289" y1="18.9786" x2="21.7271" y2="18.9756" gradientUnits="userSpaceOnUse">
<stop offset="0.14" stop-color="#683C11"/>
<stop offset="0.99" stop-color="#936037" stop-opacity="0"/>
</linearGradient>
<linearGradient id="paint27_linear_458_14790" x1="16.8511" y1="25.6519" x2="11.6582" y2="6.25828" gradientUnits="userSpaceOnUse">
<stop offset="0.06" stop-color="#6B3E13" stop-opacity="0.83"/>
<stop offset="0.5" stop-color="#936037" stop-opacity="0"/>
</linearGradient>
</defs>
</svg>
