<svg width="380" height="99" viewBox="0 0 380 99" fill="none" xmlns="http://www.w3.org/2000/svg">
<g clip-path="url(#clip0_1_6)">
<path d="M0 27.5696C0 12.3433 9.84974 0 22 0H358C370.15 0 380 12.3433 380 27.5696V71.6588C327.715 98.4819 270.288 105.429 214.874 91.6341L182.192 83.4981L132.382 74.448C88.2619 66.4316 43.3248 69.0807 0 82.252V27.5696Z" fill="#FF7A70"/>
<g clip-path="url(#clip1_1_6)">
<path d="M0 27.5733C0 12.345 9.84974 0 22 0H358C370.15 0 380 12.345 380 27.5733V67.8563C327.602 93.3112 270.57 99.9011 215.342 86.8819L182.192 79.0674L112.524 67.0809C81.3431 61.716 49.7656 60.9824 18.4472 64.8952L0 67.2V27.5733Z" fill="#FF6154"/>
</g>
</g>
<defs>
<clipPath id="clip0_1_6">
<rect width="380" height="99" fill="white"/>
</clipPath>
<clipPath id="clip1_1_6">
<rect width="380" height="94" fill="white"/>
</clipPath>
</defs>
</svg>
