<svg width="380" height="138" viewBox="0 0 380 138" fill="none" xmlns="http://www.w3.org/2000/svg">
<path d="M0 0H380V79H0V0Z" fill="#FF6154"/>
<path d="M0 66.5696C0 51.3433 9.84974 39 22 39H358C370.15 39 380 51.3433 380 66.5696V110.659C327.715 137.482 270.288 144.429 214.874 130.634L182.192 122.498L132.382 113.448C88.2619 105.432 43.3248 108.081 0 121.252V66.5696Z" fill="#FF7A70"/>
<path d="M0 66.5733C0 51.345 9.84974 39 22 39H358C370.15 39 380 51.345 380 66.5733V106.856C327.602 132.311 270.57 138.901 215.342 125.882L182.192 118.067L112.524 106.081C81.3431 100.716 49.7656 99.9824 18.4472 103.895L0 106.2V66.5733Z" fill="#FF6154"/>
</svg>
