<svg width="24" height="26" viewBox="0 0 24 26" fill="none" xmlns="http://www.w3.org/2000/svg">
<g id="Delete">
<path id="Rectangle 980" d="M20.1497 5.84991L19.468 16.8775C19.2938 19.695 19.2068 21.1038 18.5005 22.1166C18.1514 22.6173 17.7018 23.04 17.1805 23.3576C16.126 23.9999 14.7146 23.9999 11.8917 23.9999C9.06513 23.9999 7.65184 23.9999 6.59666 23.3564C6.07498 23.0382 5.62529 22.6148 5.27625 22.1133C4.57026 21.0988 4.4851 19.6881 4.31477 16.8666L3.6497 5.84991" stroke="#FF6154" stroke-width="2.5" stroke-linecap="round"/>
<path id="Vector" d="M21.8 5.84991H2" stroke="#FF6154" stroke-width="2.5" stroke-linecap="round"/>
<path id="Vector_2" d="M16.3614 5.85001L15.6105 4.3009C15.1116 3.27188 14.8622 2.75737 14.432 2.43649C14.3366 2.36531 14.2355 2.302 14.1298 2.24717C13.6534 2 13.0816 2 11.9381 2C10.7658 2 10.1797 2 9.69536 2.25753C9.58802 2.31461 9.48559 2.38049 9.38913 2.45449C8.95391 2.78837 8.7108 3.32171 8.22457 4.38839L7.55832 5.85001" stroke="#FF6154" stroke-width="2.5" stroke-linecap="round"/>
<path id="Line 5" d="M9.1497 17.95L9.1497 11.35" stroke="#FF6154" stroke-width="2.5" stroke-linecap="round"/>
<path id="Line 6" d="M14.6497 17.95L14.6497 11.3499" stroke="#FF6154" stroke-width="2.5" stroke-linecap="round"/>
</g>
</svg>
