<svg width="27" height="24" viewBox="0 0 27 24" fill="none" xmlns="http://www.w3.org/2000/svg">
<path d="M19.1813 22.2286V19.8699C19.1813 18.6187 18.7024 17.4188 17.85 16.5341C16.9976 15.6494 15.8415 15.1524 14.636 15.1524H5.54532C4.33983 15.1524 3.18371 15.6494 2.33129 16.5341C1.47888 17.4188 1 18.6187 1 19.8699V22.2286" stroke="#BDBDBD" stroke-width="2" stroke-linecap="round" stroke-linejoin="round"/>
<path d="M10.0907 10.435C12.601 10.435 14.6361 8.32288 14.6361 5.71748C14.6361 3.11209 12.601 1 10.0907 1C7.58042 1 5.54541 3.11209 5.54541 5.71748C5.54541 8.32288 7.58042 10.435 10.0907 10.435Z" stroke="#BDBDBD" stroke-width="2" stroke-linecap="round" stroke-linejoin="round"/>
<path d="M25.9993 22.2287V19.87C25.9986 18.8247 25.6634 17.8093 25.0464 16.9832C24.4293 16.1571 23.5655 15.5671 22.5903 15.3058" stroke="#BDBDBD" stroke-width="2" stroke-linecap="round" stroke-linejoin="round"/>
<path d="M18.0449 1.15332C19.0226 1.41314 19.8892 2.00329 20.5081 2.83075C21.1269 3.65821 21.4628 4.6759 21.4628 5.72338C21.4628 6.77086 21.1269 7.78855 20.5081 8.61601C19.8892 9.44347 19.0226 10.0336 18.0449 10.2934" stroke="#BDBDBD" stroke-width="2" stroke-linecap="round" stroke-linejoin="round"/>
</svg>
