<svg width="28" height="29" viewBox="0 0 28 29" fill="none" xmlns="http://www.w3.org/2000/svg">
<path fill-rule="evenodd" clip-rule="evenodd" d="M24.0446 9.14376L23.3253 7.8483C22.7168 6.75214 21.3682 6.37399 20.3106 7.00295V7.00295C19.8072 7.31075 19.2065 7.39808 18.6409 7.24567C18.0754 7.09327 17.5915 6.71365 17.2959 6.19054C17.1058 5.85804 17.0036 5.47932 16.9998 5.09268V5.09268C17.0169 4.47281 16.7916 3.87213 16.3751 3.42747C15.9586 2.98281 15.3865 2.73204 14.789 2.7323H13.3398C12.7544 2.73229 12.1932 2.97439 11.7803 3.40501C11.3674 3.83563 11.1368 4.41928 11.1396 5.02681V5.02681C11.1223 6.28116 10.1375 7.28852 8.92884 7.28839C8.55631 7.28438 8.19142 7.17834 7.87105 6.98099V6.98099C6.81344 6.35203 5.46488 6.73018 4.85635 7.82634L4.08416 9.14376C3.47637 10.2386 3.83577 11.6373 4.88808 12.2726V12.2726C5.57211 12.6825 5.99349 13.44 5.99349 14.2598C5.99349 15.0795 5.57211 15.837 4.88808 16.2469V16.2469C3.8371 16.8779 3.47732 18.2733 4.08416 19.3648V19.3648L4.81404 20.6712C5.09916 21.2052 5.57754 21.5992 6.14333 21.7661C6.70911 21.933 7.31566 21.859 7.82874 21.5605V21.5605C8.33312 21.255 8.93418 21.1713 9.4983 21.328C10.0624 21.4847 10.5429 21.8688 10.8329 22.3949C11.023 22.7274 11.1252 23.1061 11.129 23.4927V23.4927C11.129 24.7599 12.1188 25.7872 13.3398 25.7872H14.789C16.0058 25.7872 16.9939 24.7666 16.9998 23.5037V23.5037C16.9969 22.8942 17.2289 22.3089 17.6442 21.878C18.0594 21.447 18.6233 21.2062 19.2105 21.2092C19.5822 21.2195 19.9456 21.3251 20.2683 21.5166V21.5166C21.3232 22.1474 22.6709 21.7744 23.283 20.6822V20.6822L24.0446 19.3648C24.3394 18.8396 24.4203 18.2141 24.2695 17.6269C24.1186 17.0396 23.7483 16.539 23.2407 16.2359V16.2359C22.7331 15.9328 22.3629 15.4322 22.212 14.8449C22.0611 14.2577 22.142 13.6322 22.4368 13.107C22.6285 12.7596 22.906 12.4716 23.2407 12.2726V12.2726C24.2867 11.6377 24.6453 10.2471 24.0446 9.15474V9.15474V9.14376Z" stroke="#BDBDBD" stroke-width="2" stroke-linecap="round" stroke-linejoin="round"/>
<ellipse cx="14.0699" cy="14.2598" rx="3.04643" ry="3.16182" stroke="#BDBDBD" stroke-width="2" stroke-linecap="round" stroke-linejoin="round"/>
</svg>
